<svg width="18" height="22" viewBox="0 0 18 22" fill="none" xmlns="http://www.w3.org/2000/svg">
<path d="M15.0341 11.6996C15.009 8.92019 17.3227 7.56802 17.4285 7.50507C16.1181 5.6053 14.0871 5.34573 13.3734 5.32504C11.6676 5.14653 10.0129 6.34003 9.144 6.34003C8.25771 6.34003 6.91959 5.34228 5.47741 5.3716C3.62157 5.40006 1.88541 6.46852 0.933206 8.12769C-1.0319 11.5107 0.433691 16.4822 2.31641 19.2167C3.25821 20.5559 4.35871 22.0513 5.79915 21.9987C7.20837 21.9409 7.73477 21.1053 9.43538 21.1053C11.1204 21.1053 11.6147 21.9987 13.0838 21.965C14.5962 21.9409 15.5484 20.6197 16.4572 19.2684C17.5456 17.7334 17.9827 16.2217 18 16.1441C17.9644 16.1321 15.0627 15.0308 15.0341 11.6996ZM12.259 3.52617C13.017 2.58361 13.5356 1.30129 13.3916 0C12.2946 0.0482918 10.9227 0.75456 10.1326 1.67642C9.43365 2.48875 8.80925 3.82023 8.97056 5.07237C10.2029 5.16378 11.4681 4.45406 12.259 3.52617Z" fill="#828282"/>
<path d="M15.0341 11.6996C15.009 8.92019 17.3227 7.56802 17.4285 7.50507C16.1181 5.6053 14.0871 5.34573 13.3734 5.32504C11.6676 5.14653 10.0129 6.34003 9.144 6.34003C8.25771 6.34003 6.91959 5.34228 5.47741 5.3716C3.62157 5.40006 1.88541 6.46852 0.933206 8.12769C-1.0319 11.5107 0.433691 16.4822 2.31641 19.2167C3.25821 20.5559 4.35871 22.0513 5.79915 21.9987C7.20837 21.9409 7.73477 21.1053 9.43538 21.1053C11.1204 21.1053 11.6147 21.9987 13.0838 21.965C14.5962 21.9409 15.5484 20.6197 16.4572 19.2684C17.5456 17.7334 17.9827 16.2217 18 16.1441C17.9644 16.1321 15.0627 15.0308 15.0341 11.6996ZM12.259 3.52617C13.017 2.58361 13.5356 1.30129 13.3916 0C12.2946 0.0482918 10.9227 0.75456 10.1326 1.67642C9.43365 2.48875 8.80925 3.82023 8.97056 5.07237C10.2029 5.16378 11.4681 4.45406 12.259 3.52617Z" fill="url(#paint0_linear)"/>
<defs>
<linearGradient id="paint0_linear" x1="21.5494" y1="6.89883" x2="1.35795" y2="16.7614" gradientUnits="userSpaceOnUse">
<stop stop-color="white"/>
<stop offset="1" stop-color="white" stop-opacity="0"/>
</linearGradient>
</defs>
</svg>
