<svg width="30" height="30" viewBox="0 0 30 30" fill="none" xmlns="http://www.w3.org/2000/svg">
<rect width="30" height="30" fill="white"/>
<path fill-rule="evenodd" clip-rule="evenodd" d="M20.5259 10.0658C19.9655 10.4813 18.7999 11.0541 17.8136 10.3353C17.2868 9.26842 17.7127 8.68443 18.3628 8.05552C19.5284 7.15708 19.6068 6.42709 18.9119 6.16879C20.8397 5.43881 21.9493 7.26939 20.4923 7.98814L20.4362 8.0106L20.638 8.11168C24.8633 10.6498 24.5159 16.8266 19.3042 18.8593C19.8758 17.2084 19.8758 15.3666 19.3266 13.7045L19.3154 13.6483C19.4051 13.6596 19.506 13.6708 19.5956 13.6708C20.481 13.6708 21.2096 12.952 21.2096 12.0536C21.2096 11.4808 20.9182 10.9867 20.481 10.6947C20.4362 10.661 20.4026 10.6386 20.3578 10.6161C20.3017 10.5824 20.2569 10.5599 20.2008 10.5375C20.3465 10.4926 20.8173 10.1669 20.5259 10.0658ZM18.5645 10.8744L17.5894 11.3348C17.623 11.0765 17.6567 10.8407 17.7799 10.5262C17.9593 10.7396 18.3067 10.8295 18.5645 10.8744ZM19.0801 9.52673C19.0688 9.35827 18.9231 9.2235 18.755 9.23473C18.5869 9.24596 18.4524 9.39196 18.4636 9.56042C18.4748 9.72888 18.6205 9.86364 18.7887 9.85241C18.9568 9.84118 19.0913 9.69518 19.0801 9.52673ZM21.8487 6.98851C21.0306 6.89867 21.5573 5.94407 22.3531 6.19114C22.9471 6.37083 23.0928 7.12328 22.7005 7.46019C22.1513 7.93187 21.6246 7.9431 20.9409 7.9431C21.6918 7.67357 22.0841 7.37035 21.9944 7.01097C21.9278 6.74389 21.9101 6.81497 21.8896 6.89723C21.879 6.93949 21.8678 6.9847 21.8487 6.98851ZM9.16113 10.0097H13.0054C13.0979 10.0142 13.2076 10.0172 13.3304 10.0206H13.3304C14.1459 10.0434 15.5393 10.0823 16.2894 10.6387C14.6208 7.58472 12.5953 7.52475 9.92731 7.44575C9.49493 7.43295 9.04567 7.41965 8.57832 7.39302C5.9046 7.39302 4.60138 6.59742 4.09678 6.28936L4.09678 6.28936L4.09677 6.28935C4.0719 6.27417 4.04897 6.26017 4.02791 6.24751C3.74771 6.25874 5.58581 10.0097 9.16113 10.0097ZM10.3829 16.3662C10.1251 13.5024 15.4937 13.6709 14.2272 16.1192C14.1711 15.9732 13.9246 15.9732 13.8125 16.063C13.678 16.1641 13.678 16.5235 13.9918 16.6919C14.8772 17.2534 17.074 16.9951 18.1499 14.1538C17.4551 19.3086 10.7415 20.3643 10.3829 16.3662ZM4.53227 16.0517C5.57461 13.8617 7.35666 13.5585 8.67919 14.1312C9.16113 14.3895 9.30684 14.7714 9.16113 15.142C8.8249 14.266 7.5472 14.6141 7.28941 15.9281C6.135 21.8242 18.3292 22.9809 18.7999 14.0077C18.9344 14.5805 19.0129 15.1757 19.0129 15.7934C19.0129 20.0497 15.4488 23.5087 11.0441 23.5087C10.4164 23.5087 9.81119 23.4414 9.22838 23.3066C9.06026 23.2617 8.90335 23.2167 8.73523 23.1606C4.73401 21.7343 3.50114 18.2416 4.53227 16.0517ZM18.7104 20.016C18.4862 20.9145 18.0715 21.7455 17.4999 22.4531C16.2671 23.9467 14.3729 24.9125 12.2434 24.9238C10.9433 24.9125 9.74405 24.5419 8.72413 23.913C8.77146 23.9334 8.81879 23.9496 8.86859 23.9667C8.90133 23.9779 8.93514 23.9895 8.97071 24.0029L8.97079 24.0029C9.13888 24.059 9.30697 24.1152 9.47506 24.1601C10.0803 24.2949 10.7079 24.3735 11.358 24.3735C14.5635 24.3735 17.343 22.6103 18.7104 20.016ZM16.088 12.7387H11.0669C9.0831 12.7387 7.79419 11.2787 7.28984 10.4364C7.86144 10.661 8.81411 10.7958 9.509 10.7958L13.5102 10.8295C16.2337 10.7284 17.7468 11.6942 18.5202 13.3002C17.8548 12.8084 16.7117 12.7633 16.1344 12.7405L16.088 12.7387ZM26.142 8.41497C26.1083 10.0434 24.7186 10.5151 23.7211 10.5488C23.4633 9.99848 23.1158 9.48187 22.7123 9.03265C23.7098 9.16742 25.4807 8.87542 26.142 8.41497ZM24.3027 12.8847C25.6925 12.6039 25.9502 11.3124 25.8942 10.2343C25.3786 10.7958 24.5829 11.0092 23.9328 11.0541C24.157 11.6381 24.2803 12.267 24.3027 12.8847ZM25.6036 12.7162C25.3906 13.8842 24.8639 14.9736 23.9224 15.2094C24.1466 14.6142 24.2923 13.9965 24.3147 13.3564C24.8751 13.2441 25.301 13.0194 25.6036 12.7162ZM23.0878 8.49636C23.0973 8.50701 23.1064 8.51733 23.1153 8.52724C21.916 8.74062 21.2099 8.31386 21.0418 8.19032C21.4901 8.22401 21.8712 8.22401 22.2523 8.05555C22.5729 7.91634 22.8935 8.2775 23.0878 8.49636Z"/>
</svg>
