<svg width="18" height="18" viewBox="0 0 18 18" fill="none" xmlns="http://www.w3.org/2000/svg">
<path fill-rule="evenodd" clip-rule="evenodd" d="M1.5 1.79584C1.5 1.64691 1.64691 1.5 1.79584 1.5H8.55361C8.96782 1.5 9.30361 1.16421 9.30361 0.75C9.30361 0.335786 8.96782 0 8.55361 0H1.79584C0.818484 0 0 0.818484 0 1.79584V15.7136C0 16.691 0.818483 17.5095 1.79584 17.5095H15.6332C16.6105 17.5095 17.429 16.691 17.429 15.7136V8.79496C17.429 8.38074 17.0932 8.04496 16.679 8.04496C16.2648 8.04496 15.929 8.38074 15.929 8.79496V15.7136C15.929 15.8626 15.7821 16.0095 15.6332 16.0095H1.79584C1.64691 16.0095 1.5 15.8626 1.5 15.7136V1.79584ZM13.75 1.60214C13.7549 1.59728 13.7778 1.58046 13.8231 1.58046C13.8683 1.58046 13.8913 1.59728 13.8961 1.60214L15.8269 3.53293L15.8563 3.5623L15.8887 3.58825C15.9047 3.60102 15.911 3.61123 15.9139 3.61707C15.9173 3.62377 15.9193 3.63139 15.9197 3.64002C15.9207 3.66015 15.9127 3.67367 15.9073 3.67901L15.1971 4.38922L13.1075 2.24463L13.75 1.60214ZM12.0468 3.30538L6.92565 8.42651L9.07024 10.5161L14.1364 5.44997L12.0468 3.30538ZM5.45691 11.9764L6.00946 9.62811L7.85225 11.4237L5.45691 11.9764ZM14.9568 0.541475C14.3421 -0.0732161 13.304 -0.0732161 12.6894 0.541475L4.88575 8.34508L4.73488 8.49595L4.68602 8.70364L3.72062 12.8066L3.44446 13.9803L4.61933 13.7091L8.80271 12.7437L9.01229 12.6954L9.16439 12.5433L16.968 4.73967C17.5851 4.12257 17.5886 3.06249 16.8625 2.44718L14.9568 0.541475Z" fill="white"/>
</svg>
