<svg width="34" height="52" viewBox="0 0 34 52" fill="none" xmlns="http://www.w3.org/2000/svg">
<path d="M24.0039 16.4227C24.5755 16.5656 25.2899 15.9941 26.0043 15.1368L23.4324 14.4224C23.0038 14.7558 21.9179 15.2225 22.1465 15.5654C22.4323 15.9941 23.4324 16.2798 24.0039 16.4227Z" fill="white"/>
<path d="M15.8907 13.9936C16.4622 14.1365 17.1766 13.565 17.891 12.7077L15.3191 11.9933C14.8905 12.3267 13.8046 12.7934 14.0332 13.1363C14.319 13.565 15.3191 13.8507 15.8907 13.9936Z" fill="white"/>
<path d="M32.1467 42.9518C31.861 43.3805 31.7181 43.5234 31.2895 44.2378C30.7656 43.9996 29.7178 43.5234 29.7178 43.3805C29.7178 43.0947 30.1464 42.8089 30.1464 42.8089C30.4221 42.9192 32.0137 42.0447 32.4325 41.9517C32.3849 42.1898 32.4325 42.5232 32.1467 42.9518Z" fill="white"/>
<path d="M31.4326 44.1521C31.4326 44.9412 30.9208 45.5809 30.2895 45.5809C29.6582 45.5809 29.1465 44.9412 29.1465 44.1521C29.1465 43.363 29.6582 42.7233 30.2895 42.7233C30.9208 42.7233 31.4326 43.363 31.4326 44.1521Z" fill="white"/>
<path d="M31.8603 44.2378C31.8603 45.0269 31.3486 45.6666 30.7173 45.6666C30.086 45.6666 29.5742 45.0269 29.5742 44.2378C29.5742 43.4487 30.086 42.809 30.7173 42.809C31.3486 42.809 31.8603 43.4487 31.8603 44.2378Z" fill="white"/>
<path d="M31.4321 44.2378C31.4321 44.7112 31.1762 45.0951 30.8606 45.0951C30.5449 45.0951 30.2891 44.7112 30.2891 44.2378C30.2891 43.7643 30.5449 43.3805 30.8606 43.3805C31.1762 43.3805 31.4321 43.7643 31.4321 44.2378Z" fill="white"/>
<path d="M25.1472 44.9097C24.7186 45.1955 24.4328 45.1955 24.0042 45.9099C23.4803 45.6717 22.4897 45.1097 22.7183 44.7668C22.9469 44.4239 23.004 44.0524 22.8611 43.9095C23.0993 44.0048 23.6613 43.9381 24.0042 44.0524C24.3471 44.1667 25.2901 43.719 25.7188 43.6238C25.6711 43.8619 25.4902 44.6811 25.1472 44.9097Z" fill="white"/>
<ellipse cx="23.0044" cy="45.8241" rx="1.14305" ry="1.42881" fill="white"/>
<ellipse cx="23.4331" cy="45.9099" rx="1.14305" ry="1.42881" fill="white"/>
<path d="M24.0044 45.9098C24.0044 46.3833 23.7485 46.7671 23.4329 46.7671C23.1172 46.7671 22.8613 46.3833 22.8613 45.9098C22.8613 45.4364 23.1172 45.0526 23.4329 45.0526C23.7485 45.0526 24.0044 45.4364 24.0044 45.9098Z" fill="white"/>
<mask id="mask0" mask-type="alpha" maskUnits="userSpaceOnUse" x="2" y="39" width="5" height="6">
<path d="M2.28516 39.7221L6.57158 40.8652V44.5801L2.28516 43.437V39.7221Z" fill="#C4C4C4"/>
</mask>
<g mask="url(#mask0)">
<path d="M6.28591 41.008C5.85727 41.2937 5.57151 41.2937 5.14286 42.0081C4.61897 41.77 3.62833 41.208 3.85694 40.8651C4.08554 40.5222 4.1427 40.1507 3.99982 40.0078C4.23795 40.1031 4.79995 40.0364 5.14286 40.1507C5.48578 40.265 6.42879 39.8173 6.85743 39.722C6.80981 39.9602 6.62882 40.7794 6.28591 41.008Z" fill="white"/>
<ellipse cx="4.14305" cy="41.9224" rx="1.14305" ry="1.42881" fill="white"/>
<ellipse cx="4.57176" cy="42.0082" rx="1.14305" ry="1.42881" fill="white"/>
<path d="M5.14305 42.0081C5.14305 42.4816 4.88717 42.8654 4.57152 42.8654C4.25588 42.8654 4 42.4816 4 42.0081C4 41.5346 4.25588 41.1508 4.57152 41.1508C4.88717 41.1508 5.14305 41.5346 5.14305 42.0081Z" fill="white"/>
</g>
<path fill-rule="evenodd" clip-rule="evenodd" d="M9.77203 10.8024C10.2865 10.7073 10.8257 10.7209 11.3317 10.8265L31.8204 15.1011C33.1139 15.3709 33.9997 16.1989 33.9997 17.1381V40.4887C33.9997 41.4111 33.1449 42.2283 31.883 42.5122L24.9242 44.0779C24.2921 44.2201 23.6104 44.2153 22.9825 44.0641L20.1178 43.3745L20.2131 43.1831L23.0778 43.8727C23.6459 44.0095 24.2626 44.0139 24.8346 43.8852L31.7933 42.3195C32.935 42.0626 33.7085 41.3232 33.7085 40.4887V17.1381C33.7085 16.2884 32.907 15.5392 31.7367 15.2951L11.248 11.0205C10.7897 10.9248 10.3055 10.9134 9.84683 10.9982C8.66026 11.2174 6.26792 11.7073 4.22049 12.4232C3.5676 12.7308 3.04003 13.2304 2.65581 13.7844C2.27066 14.3398 2.03561 14.9413 1.96158 15.439L1.67188 15.4181C1.74949 14.8964 1.99417 14.2722 2.39347 13.6964C2.79223 13.1214 3.35124 12.586 4.06539 12.2516L4.07302 12.248L4.08124 12.2452C6.1579 11.5182 8.57846 11.023 9.77203 10.8024Z" fill="white"/>
<path d="M16.08 4.84924C16.4387 4.84924 16.7295 5.14002 16.7295 5.49872L16.7295 12.6714C16.7295 13.0301 16.4387 13.3208 16.08 13.3208C15.7213 13.3208 15.4305 13.0301 15.4305 12.6714L15.4305 5.49872C15.4305 5.14002 15.7213 4.84924 16.08 4.84924Z" fill="white"/>
<path fill-rule="evenodd" clip-rule="evenodd" d="M16.4437 12.6714L16.4437 5.49872C16.4437 5.29784 16.2809 5.13501 16.08 5.13501C15.8791 5.13501 15.7163 5.29784 15.7163 5.49872L15.7163 12.6714C15.7163 12.8722 15.8791 13.0351 16.08 13.0351C16.2809 13.0351 16.4437 12.8722 16.4437 12.6714ZM16.7295 5.49872C16.7295 5.14002 16.4387 4.84924 16.08 4.84924C15.7213 4.84924 15.4305 5.14002 15.4305 5.49872L15.4305 12.6714C15.4305 13.0301 15.7213 13.3208 16.08 13.3208C16.4387 13.3208 16.7295 13.0301 16.7295 12.6714L16.7295 5.49872Z" fill="white"/>
<path d="M23.7958 7.13538C24.1545 7.13538 24.4453 7.42616 24.4453 7.78485L24.4453 14.9575C24.4453 15.3162 24.1545 15.607 23.7958 15.607C23.4371 15.607 23.1464 15.3162 23.1464 14.9575L23.1464 7.78485C23.1464 7.42616 23.4371 7.13538 23.7958 7.13538Z" fill="white"/>
<path fill-rule="evenodd" clip-rule="evenodd" d="M24.1596 14.9575L24.1596 7.78485C24.1596 7.58398 23.9967 7.42114 23.7958 7.42114C23.595 7.42114 23.4321 7.58398 23.4321 7.78485L23.4321 14.9575C23.4321 15.1584 23.595 15.3212 23.7958 15.3212C23.9967 15.3212 24.1596 15.1584 24.1596 14.9575ZM24.4453 7.78485C24.4453 7.42616 24.1545 7.13538 23.7958 7.13538C23.4371 7.13538 23.1464 7.42616 23.1464 7.78485L23.1464 14.9575C23.1464 15.3162 23.4371 15.607 23.7958 15.607C24.1545 15.607 24.4453 15.3162 24.4453 14.9575L24.4453 7.78485Z" fill="white"/>
<path fill-rule="evenodd" clip-rule="evenodd" d="M15.4213 0.891926C15.1584 1.07966 15.0023 1.38284 15.0023 1.70592V5.37286C15.0023 5.92523 15.4501 6.37302 16.0025 6.37302C16.5549 6.37302 17.0027 5.92523 17.0027 5.37286V3.10681L22.9049 5.13334V7.94193C22.9049 8.49431 23.3527 8.9421 23.9051 8.9421C24.4575 8.9421 24.9053 8.49431 24.9053 7.94193V4.41927C24.9053 3.99207 24.6339 3.61204 24.2299 3.47331L16.3273 0.759962C16.0217 0.655044 15.6843 0.704196 15.4213 0.891926Z" fill="white"/>
<path fill-rule="evenodd" clip-rule="evenodd" d="M2.45307 14.6786C3.34443 14.0776 4.63786 13.9069 6.49409 14.2788C9.07691 14.7964 15.8477 16.235 18.4094 16.868C19.3905 17.1104 20.6649 17.5298 21.6966 18.1806C22.7304 18.8327 23.5274 19.7222 23.5274 20.8986C23.5274 21.7915 23.4648 23.4095 23.3981 25.1316C23.3934 25.2533 23.3886 25.3755 23.3839 25.4981C23.3122 27.3558 23.2405 29.2833 23.2405 30.5234C23.2405 31.7628 23.3838 34.6323 23.5273 37.2982C23.5656 38.0099 23.604 38.7073 23.6396 39.3552C23.7372 41.1306 23.8143 42.5338 23.8143 42.8391C23.8143 43.0613 23.7468 43.2489 23.6185 43.4007C23.4899 43.5529 23.3052 43.6631 23.0847 43.7354C22.6486 43.8784 22.0736 43.8737 21.4842 43.7674C20.5062 43.591 16.6331 42.7432 12.5915 41.8585C11.8735 41.7013 11.1501 41.5429 10.4367 41.387C9.63074 41.262 8.11913 40.9445 6.49732 40.6038C5.40842 40.3751 4.26984 40.136 3.26184 39.9376C1.60189 39.611 0.795011 38.4452 0.398215 37.2091C-1.9154e-06 35.9686 -6.99308e-07 34.6137 1.86354e-09 33.8383V33.8352C1.86354e-09 28.1452 0.304816 20.0725 0.86244 17.4675C1.12063 16.2614 1.57433 15.2712 2.45307 14.6786ZM2.649 14.8298C1.84533 15.3718 1.40258 16.3005 1.146 17.4991C0.592402 20.0853 0.28692 28.1409 0.28692 33.8352C0.28692 34.6127 0.287453 35.9466 0.677738 37.1624C1.06997 38.3843 1.84116 39.4436 3.33733 39.7379C4.36063 39.9393 5.50712 40.1801 6.5985 40.4094C8.21269 40.7486 9.70634 41.0624 10.5026 41.1855L10.5085 41.1864L10.5142 41.1876C11.23 41.3441 11.9553 41.5029 12.675 41.6604C16.7191 42.5457 20.5834 43.3916 21.5538 43.5666C22.1121 43.6673 22.613 43.6627 22.966 43.5469C23.14 43.4899 23.278 43.406 23.3736 43.293C23.4694 43.1796 23.5274 43.0309 23.5274 42.8391C23.5274 42.5382 23.4508 41.1446 23.3535 39.3739C23.3177 38.7237 23.2792 38.0227 23.2406 37.3062C23.0972 34.6423 22.9536 31.7679 22.9536 30.5234C22.9536 29.2797 23.0254 27.349 23.0971 25.4923C23.1018 25.3705 23.1065 25.2491 23.1112 25.1281C23.1779 23.4039 23.2405 21.7885 23.2405 20.8986C23.2405 19.7982 22.4986 18.9614 21.5077 18.3364C20.5146 17.71 19.2784 17.3015 18.3164 17.0638C15.7631 16.4329 8.99904 14.9956 6.4173 14.4783C4.61496 14.1171 3.44004 14.2964 2.649 14.8298ZM33.2013 15.5808C33.7417 15.8427 34 16.3279 34 16.9659L33.7131 16.9659C33.7131 16.3619 33.4693 15.96 33.0413 15.7526C32.6101 15.5436 31.9456 15.5088 31.0309 15.7191C30.6864 15.7983 30.3468 15.8705 30.0161 15.9409L29.9411 15.9568C29.5862 16.0324 29.2419 16.1062 28.9093 16.1853C28.2439 16.3435 27.6322 16.5212 27.0904 16.7707C26.0167 17.265 25.1951 18.0511 24.8163 19.5715C23.9223 23.1597 23.8141 28.6354 23.9307 33.3894C23.989 35.7649 24.1033 37.9577 24.2031 39.641C24.2378 40.2265 24.2708 40.7511 24.299 41.2005C24.3519 42.0407 24.3882 42.618 24.3882 42.8391C24.3882 43.17 24.4325 43.4107 24.5072 43.5827C24.5815 43.754 24.6829 43.8509 24.7922 43.9052C24.9014 43.9593 25.0369 43.98 25.2046 43.9728C25.3739 43.9656 25.566 43.9302 25.7774 43.8793L25.8681 44.0757C25.6492 44.1283 25.4288 44.1706 25.2216 44.1795C25.0126 44.1884 24.8074 44.1639 24.6297 44.0757C24.4521 43.9876 24.3204 43.8453 24.2333 43.6446C24.1466 43.4447 24.1013 43.1809 24.1013 42.8391C24.1013 42.6228 24.0655 42.0548 24.0131 41.2218C23.9848 40.7709 23.9515 40.2424 23.9164 39.6498C23.8166 37.9657 23.7022 35.7709 23.6439 33.393C23.5273 28.6401 23.6343 23.1455 24.5339 19.5349C24.9243 17.9679 25.7835 17.1268 26.936 16.5962C27.5072 16.3332 28.1449 16.1491 28.8195 15.9887C29.1569 15.9084 29.5053 15.8338 29.8599 15.7583L29.9343 15.7425C30.2656 15.672 30.6023 15.6004 30.9438 15.5219C31.8941 15.3034 32.6641 15.3204 33.2013 15.5808Z" fill="white"/>
<path fill-rule="evenodd" clip-rule="evenodd" d="M5.65682 24.3242C5.02904 24.1188 4.4115 23.9109 3.81152 23.7016L3.90565 23.4318C4.64411 23.6894 5.40964 23.945 6.1886 24.1966C9.03454 25.1159 12.0573 25.9812 14.5899 26.6956C14.9522 26.7978 15.3047 26.8969 15.6453 26.9927C17.6814 27.5655 19.2933 28.019 20.0522 28.2901L19.9561 28.5592C19.2074 28.2918 17.6075 27.8417 15.5685 27.268C15.2281 27.1722 14.8754 27.073 14.5123 26.9706C12.0243 26.2688 9.05919 25.4202 6.25226 24.5173L5.99823 25.7417L5.99753 25.7445C5.95665 25.9081 5.87229 26.0406 5.73132 26.0815C5.59211 26.1219 5.46468 26.0535 5.38282 25.9717C5.21846 25.8073 5.12422 25.4827 5.31139 25.202C5.41392 25.0482 5.50428 24.8145 5.57649 24.5908C5.60744 24.4949 5.63428 24.4034 5.65682 24.3242ZM5.9287 24.4128C5.90629 24.4913 5.87942 24.5826 5.84844 24.6786C5.77538 24.9049 5.67524 25.1714 5.54916 25.3605C5.45057 25.5084 5.49921 25.6839 5.58489 25.7696C5.60467 25.7894 5.62235 25.7999 5.63475 25.8044C5.64619 25.8087 5.6509 25.8073 5.65162 25.8071C5.65218 25.8069 5.6605 25.8046 5.67355 25.7873C5.68745 25.7688 5.70506 25.7351 5.71963 25.6779L5.97874 24.429C5.96205 24.4236 5.94538 24.4182 5.9287 24.4128Z" fill="white"/>
<path fill-rule="evenodd" clip-rule="evenodd" d="M6.10076 25.04C5.32009 24.7879 4.55242 24.5316 3.81152 24.2731L3.90565 24.0033C4.64411 24.2609 5.40964 24.5165 6.1886 24.7681C9.03454 25.6874 12.0573 26.5527 14.5899 27.2671C14.9522 27.3693 15.3047 27.4684 15.6453 27.5643C17.6814 28.1371 19.2933 28.5906 20.0522 28.8616L19.9561 29.1307C19.2074 28.8633 17.6075 28.4132 15.5685 27.8395C15.2281 27.7438 14.8754 27.6445 14.5123 27.5421C11.9795 26.8277 8.95223 25.9611 6.10076 25.04Z" fill="white"/>
</svg>
