<svg width="57" height="65" viewBox="0 0 57 65" fill="none" xmlns="http://www.w3.org/2000/svg">
<path fill-rule="evenodd" clip-rule="evenodd" d="M35.981 1.06545C35.981 0.721281 36.1473 0.398309 36.4274 0.198327C36.7075 -0.00165467 37.0669 -0.0540143 37.3925 0.0577508L45.8108 2.94818C46.2412 3.09596 46.5303 3.5008 46.5303 3.95588V7.70844C46.5303 8.08464 46.3353 8.4153 46.0409 8.60488V14.6852L53.7951 17.0115C55.147 17.4171 56.0729 18.6615 56.0729 20.073V55.167C56.0729 56.3063 55.4694 57.3388 54.5223 57.9074C54.5009 58.1337 54.4694 58.415 54.2451 58.7515C54.1437 58.9036 54.0592 59.0219 53.9747 59.1402L53.9746 59.1404C53.9163 59.222 53.858 59.3036 53.7942 59.3962C53.8878 59.6118 53.941 59.8588 53.941 60.1213C53.941 60.9619 53.3959 61.6434 52.7234 61.6434C52.5765 61.6434 52.4357 61.6109 52.3053 61.5513C52.2926 61.5518 52.2799 61.5521 52.267 61.5521C51.5946 61.5521 51.0494 60.8706 51.0494 60.03C51.0494 59.6414 51.1659 59.2869 51.3576 59.0179L47.3553 60.3128C47.2708 60.6706 47.0873 61.2917 46.7882 61.4911C46.6759 61.566 46.5729 61.6225 46.4744 61.6763L46.4744 61.6764C46.3356 61.7524 46.2061 61.8233 46.0732 61.9335C46.1416 62.1237 46.1796 62.3346 46.1796 62.5566C46.1796 63.3972 45.6344 64.0786 44.9619 64.0786C44.8151 64.0786 44.6743 64.0461 44.5439 63.9865C44.531 63.987 44.5181 63.9873 44.5051 63.9873C43.8326 63.9873 43.2875 63.3059 43.2875 62.4652C43.2875 61.6732 43.7715 61.0225 44.3899 60.9499C44.4486 60.7617 44.452 60.5926 44.3955 60.4844L41.5636 59.5041L41.5743 59.4731C39.9117 58.9916 37.0378 58.121 33.9998 57.1993V57.7829C33.9998 58.5778 33.3648 59.2947 32.3816 59.6593C32.3528 59.8296 32.294 60.0252 32.1468 60.2461C32.0515 60.389 31.9722 60.5001 31.8928 60.6112C31.8381 60.6878 31.7833 60.7644 31.7234 60.8514C31.8113 61.0538 31.8612 61.2856 31.8612 61.532C31.8612 62.3212 31.3494 62.9609 30.7181 62.9609C30.5803 62.9609 30.4482 62.9304 30.3258 62.8745L30.3051 62.875L30.29 62.8751C29.6587 62.8751 29.1469 62.2354 29.1469 61.4463C29.1469 60.9912 29.3172 60.5857 29.5825 60.324L25.7802 61.1795L25.8681 61.3699C25.7749 61.3923 25.6815 61.4128 25.5889 61.4297C25.4934 61.7334 25.3481 62.07 25.1472 62.2039C25.0418 62.2742 24.945 62.3272 24.8526 62.3778L24.8525 62.3778C24.7223 62.4492 24.6007 62.5157 24.476 62.6192C24.5402 62.7977 24.5758 62.9957 24.5758 63.2041C24.5758 63.9932 24.0641 64.6329 23.4328 64.6329C23.2949 64.6329 23.1627 64.6024 23.0403 64.5465C23.0283 64.5469 23.0161 64.5472 23.004 64.5472C22.3727 64.5472 21.8609 63.9075 21.8609 63.1184C21.8609 62.3748 22.3153 61.764 22.8958 61.6959C22.937 61.5637 22.9492 61.4415 22.9305 61.3458L22.0366 61.1306C21.8566 61.1189 21.6711 61.0954 21.4842 61.0617C20.5062 60.8853 16.6331 60.0374 12.5915 59.1527C11.8735 58.9955 11.1501 58.8372 10.4367 58.6812C9.64425 58.5583 8.16959 58.2493 6.57875 57.9152C6.54154 57.9926 6.50058 58.0652 6.45576 58.1285L6.57176 58.1594V61.8743L2.28533 60.7313V57.0164L4.07636 57.494C4.07326 57.4561 4.06612 57.4214 4.05483 57.3906C3.78401 57.3356 3.51868 57.2824 3.26184 57.2319C1.60189 56.9053 0.795011 55.7394 0.398215 54.5034C-1.91348e-06 53.2629 0 51.908 0 51.1325V51.1294C0 45.4395 0.304816 37.3667 0.86244 34.7618C1.03226 33.9684 1.28667 33.2685 1.69097 32.7137L1.67194 32.7124C1.74955 32.1906 1.99423 31.5665 2.39354 30.9907C2.79229 30.4157 3.35131 29.8802 4.06546 29.5458L4.07309 29.5423L4.08131 29.5394C6.15796 28.8124 8.57852 28.3172 9.77209 28.0966C10.2866 28.0016 10.8257 28.0151 11.3318 28.1207L15.4307 28.9759L15.4307 23.488C15.1716 23.3072 15.0021 23.007 15.0021 22.6671V19.0002C15.0021 18.6771 15.1582 18.3739 15.4211 18.1862C15.684 17.9984 16.0215 17.9493 16.3271 18.0542L21.1985 19.7268C21.4463 18.7721 21.7952 17.9614 22.2994 17.3542C22.3945 16.5985 22.6444 15.7171 23.0382 14.9004C23.455 14.0363 24.0393 13.2315 24.7857 12.729L24.7937 12.7236L24.8023 12.7193C26.9728 11.6267 29.5028 10.8825 30.7503 10.551C31.288 10.4081 31.8515 10.4284 32.3804 10.5871L36.438 11.8044V5.84639C36.1618 5.65388 35.981 5.3339 35.981 4.9717V1.06545ZM44.6574 60.2529L43.7132 59.9261C43.9982 59.9201 44.2632 59.8692 44.4921 59.7652C44.726 59.6589 44.922 59.4969 45.0585 59.273C45.1946 59.0498 45.2662 58.7738 45.2662 58.447C45.2662 57.9982 45.1844 55.9352 45.0809 53.3247L45.0809 53.324L45.0808 53.3233C45.043 52.3705 45.0024 51.3449 44.9617 50.2981C44.8094 46.3774 44.6574 42.1573 44.6574 40.3345C44.6574 38.5107 44.7334 35.676 44.8096 32.9438L44.8246 32.4048L44.8246 32.4047L44.8246 32.4038C44.8954 29.8716 44.9618 27.4924 44.9618 26.1794C44.9618 24.4492 44.1162 23.1411 43.0193 22.182C41.9248 21.225 40.5727 20.6081 39.5317 20.2516C36.8139 19.3207 29.6303 17.205 26.8901 16.4438C24.966 15.9093 23.6118 16.1366 22.6686 16.9718C22.7877 16.3523 23.004 15.6721 23.3124 15.0327C23.714 14.2 24.2654 13.4492 24.9478 12.9868C25.2727 12.8235 25.6059 12.668 25.9417 12.5206C25.9526 12.561 25.9799 12.5958 26.018 12.6157C26.4485 12.8412 27.5887 13.2402 28.6705 13.5938C29.7476 13.9459 30.7943 14.2619 31.0712 14.3268C31.9364 14.6 32.9761 14.9164 34.1074 15.2608L34.1078 15.2609L34.1081 15.261L34.1082 15.261C36.7675 16.0703 39.9331 17.0338 42.5288 17.9516C42.7979 18.0468 43.2887 18.1632 43.8835 18.2897C44.4817 18.417 45.1956 18.5568 45.9167 18.6979C47.2719 18.963 48.643 19.2314 49.3461 19.4341C49.08 19.558 48.8233 19.6955 48.5782 19.8519C47.3555 20.6323 46.4439 21.8693 46.0297 24.1738C45.0752 29.484 44.9616 37.5647 45.0854 44.5548C45.1472 48.052 45.2686 51.2798 45.3745 53.7566C45.4117 54.627 45.447 55.4036 45.477 56.0662L45.4771 56.0666L45.4771 56.0686C45.5327 57.2937 45.5706 58.1289 45.5706 58.447C45.5706 58.9497 45.6188 59.3378 45.7108 59.6317C45.8032 59.9268 45.9429 60.1362 46.1313 60.2658C46.172 60.2938 46.2141 60.3174 46.2573 60.3371C45.7284 60.4599 45.1737 60.4316 44.6574 60.2529ZM51.9602 18.537C51.9485 18.4825 51.9076 18.4383 51.8532 18.4228C51.4706 18.3135 50.6328 18.1486 49.6619 17.9576C49.1796 17.8627 48.6645 17.7614 48.156 17.6571C47.3855 17.4992 46.6268 17.3341 46.0091 17.1734C45.7002 17.093 45.4286 17.0142 45.2096 16.9385C45.1103 16.9042 45.0242 16.8714 44.9515 16.8402C44.944 16.8207 44.9324 16.8026 44.9171 16.7872C44.8053 16.6754 44.653 16.5449 44.4673 16.4004C44.8477 16.5525 45.266 16.6666 45.5703 16.7426C46.156 16.8891 46.8827 16.331 47.6147 15.4752L53.7076 17.3031C54.3135 17.4848 54.8248 17.8528 55.1866 18.3332C54.6187 17.9746 53.8159 17.9578 52.8303 18.2719C52.5369 18.3654 52.2467 18.4523 51.9602 18.537ZM43.9399 17.8397C43.8245 17.8743 43.7093 17.899 43.6001 17.9166C43.71 17.9411 43.8258 17.9662 43.9469 17.992C44.5421 18.1187 45.2533 18.2579 45.9752 18.3991L45.9988 18.4037C47.3933 18.6766 48.8339 18.9585 49.5233 19.1692C49.8941 19.0292 50.3432 18.8942 50.7424 18.7741L50.7425 18.7741L50.8062 18.7549C50.9878 18.7003 51.1571 18.649 51.3038 18.6017C50.8787 18.5073 50.2876 18.391 49.6275 18.2612L49.6267 18.261L49.6265 18.261C49.1404 18.1653 48.6169 18.0623 48.0949 17.9554C47.3232 17.7972 46.5581 17.6308 45.9324 17.468C45.6197 17.3866 45.3397 17.3055 45.1102 17.2262C45.0248 17.1968 44.9447 17.167 44.8715 17.1368C44.6647 17.5305 44.2906 17.7345 43.9399 17.8397ZM33.7793 12.6938C34.3354 12.5692 34.9396 12.4965 35.5683 12.5021C35.6489 12.4517 35.7315 12.4019 35.8125 12.3529L35.8126 12.3529L35.8127 12.3528C35.9778 12.2531 36.1367 12.1571 36.2598 12.0687L32.293 10.8787C31.8139 10.735 31.3078 10.7178 30.8284 10.8452C30.2683 10.994 29.451 11.2259 28.5259 11.5345C28.9065 11.6941 29.6287 11.9857 30.3519 12.2733C31.2948 12.6483 32.2171 13.0075 32.3734 13.055C32.4092 13.0659 32.438 13.0888 32.4568 13.1179C32.8537 12.948 33.2996 12.8013 33.7793 12.6938ZM38.9762 12.8837C38.8835 12.9921 38.7909 13.0959 38.6987 13.194C39.7355 13.605 40.8536 14.1617 41.8589 14.7264C42.4811 15.0758 43.0645 15.4308 43.5617 15.7587C43.5125 15.5095 44.0064 15.2111 44.4545 14.9404C44.5239 14.8985 44.5922 14.8572 44.6572 14.8169V14.5879L38.9762 12.8837ZM31.1641 13.8874C31.4086 13.6778 31.727 13.4703 32.1024 13.2822C31.7466 13.1509 30.991 12.855 30.2394 12.5562C29.3566 12.2051 28.4596 11.8419 28.195 11.7238L28.1898 11.7249C28.1699 11.7293 28.1443 11.7362 28.1128 11.746C28.0499 11.7656 27.9703 11.7944 27.878 11.8306C27.6936 11.903 27.4664 12.0017 27.2358 12.1059C26.9479 12.2361 26.6574 12.3737 26.4432 12.477C26.9636 12.6973 27.871 13.0122 28.765 13.3045C29.8104 13.6462 30.8119 13.9488 31.1123 14.0236C31.1055 13.9737 31.1237 13.9219 31.1641 13.8874ZM35.6586 14.1149C33.2852 13.4953 31.9407 13.9056 31.4022 14.1118C31.4495 14.1267 31.4973 14.1416 31.5456 14.1567C31.564 14.154 31.5832 14.1546 31.6024 14.1592C32.8683 14.457 33.6828 14.3461 34.4955 14.2327L34.5106 14.2306C34.8798 14.1791 35.2497 14.1274 35.6586 14.1149ZM37.0249 14.541C36.0021 14.3298 35.2911 14.429 34.5496 14.5325L34.5376 14.5342C34.1092 14.5939 33.6711 14.6544 33.1632 14.6549C33.494 14.7558 33.8363 14.86 34.1876 14.9669L34.1878 14.967L34.1878 14.967C36.76 15.7498 39.8148 16.6796 42.3658 17.5716C42.2269 17.4754 42.0868 17.3774 41.9448 17.2782C40.607 16.3432 39.1097 15.2967 37.0249 14.541ZM51.5489 18.976C51.2488 19.0651 50.9563 19.1538 50.6718 19.2475C49.9659 19.4802 49.3169 19.7416 48.742 20.1085C47.6029 20.8355 46.7312 21.9916 46.3293 24.2277C45.3807 29.5048 45.266 37.5579 45.3897 44.5494C45.4515 48.0431 45.5728 51.2681 45.6787 53.7436C45.7154 54.604 45.7504 55.375 45.7804 56.0356L45.7805 56.0372C45.8365 57.2729 45.8751 58.1219 45.8751 58.447C45.8751 58.9337 45.9221 59.2877 46.0013 59.5407C46.0801 59.7926 46.1877 59.9351 46.3038 60.0149C46.4196 60.0945 46.5634 60.125 46.7412 60.1144C46.9209 60.1037 47.1247 60.0517 47.349 59.9769L47.3544 59.9931L53.7668 57.9185C54.9601 57.5324 55.7685 56.4212 55.7685 55.167V38.0515H55.7679C55.7679 37.3688 55.7037 35.5299 55.6235 33.2301L55.6234 33.2279L55.6233 33.2257L55.6232 33.2234L55.6231 33.2212L55.6231 33.219L55.623 33.2184L55.6229 33.2155L55.6229 33.2153V33.2152C55.5964 32.4546 55.568 31.6437 55.5397 30.8078C55.4257 27.4449 55.3116 23.6805 55.3113 21.1661C55.2931 21.0199 55.2772 20.8779 55.2618 20.7408L55.2618 20.7408C55.212 20.2966 55.168 19.9038 55.0706 19.5837C55.0077 19.3773 54.9263 19.2158 54.8171 19.0986C54.7105 18.9842 54.5702 18.9043 54.3731 18.8715C53.9348 18.7984 53.2644 18.7973 52.5649 18.854C52.2215 18.8818 51.8746 18.9233 51.5489 18.976ZM55.7685 28.4927V20.3956H55.7684C55.7684 19.5074 55.5098 18.9163 55.0557 18.6112C54.621 18.3191 53.9626 18.2584 53.0654 18.5185C53.5837 18.4976 54.0666 18.5118 54.4231 18.5712C54.6826 18.6144 54.8848 18.7248 55.0397 18.891C55.1921 19.0545 55.2914 19.264 55.3618 19.4951C55.4682 19.8447 55.5166 20.2775 55.567 20.7289C55.5821 20.8641 55.5974 21.0009 55.6145 21.1377L55.6157 21.1471V21.1566C55.6157 23.103 55.6844 25.8058 55.7685 28.4927ZM26.8898 17.0526C25.2237 16.5898 23.9901 16.5795 23.0769 17.0331C23.9078 16.4246 25.0891 16.2594 26.8086 16.7371C29.5477 17.498 36.7242 19.6118 39.4331 20.5396C40.4538 20.8892 41.7653 21.4899 42.819 22.4112C43.8703 23.3304 44.6574 24.5611 44.6574 26.1794C44.6574 27.4186 44.5979 29.6146 44.5315 31.9971C44.5174 31.6117 44.5031 31.2255 44.4891 30.8471L44.4692 30.3128L44.4691 30.311L44.4691 30.3104C44.4063 28.6261 44.3527 27.1887 44.3527 26.7882C44.3527 25.0581 43.5071 23.7499 42.4102 22.7908C41.3157 21.8338 39.9636 21.217 38.9226 20.8604C36.2081 19.9307 29.6337 17.8148 26.8898 17.0526ZM44.353 40.3345C44.353 39.2098 44.3818 37.7029 44.4217 36.0742L44.3527 36.0754C44.3318 34.8607 44.2557 32.7645 44.1849 30.8584L44.1647 30.3166L44.1646 30.3153C44.1021 28.637 44.0483 27.1948 44.0483 26.7882C44.0483 25.1699 43.2611 23.9392 42.2098 23.02C41.1562 22.0988 39.8447 21.498 38.824 21.1484C36.1118 20.2195 29.5438 18.1058 26.8083 17.3459C24.8813 16.8107 23.6441 16.9203 22.8154 17.5527C22.2104 18.0143 21.7978 18.7723 21.5043 19.8318L24.2297 20.7676C24.6337 20.9063 24.905 21.2863 24.905 21.7135V24.4655C25.4575 24.6532 26.0215 24.8395 26.5923 25.0239C29.624 26.0032 32.844 26.9249 35.5419 27.686C35.9279 27.7948 36.3033 27.9005 36.6662 28.0025C38.8351 28.6127 40.5523 29.0958 41.3607 29.3845L41.2583 29.6712C40.4607 29.3864 38.7565 28.9069 36.5844 28.2958C36.2217 28.1937 35.846 28.088 35.4593 27.9789C32.8088 27.2313 29.6502 26.3274 26.6601 25.3656L26.6039 25.6365C29.6322 26.6144 32.8474 27.5347 35.5419 28.2948C35.9279 28.4037 36.3033 28.5093 36.6662 28.6114C38.8351 29.2216 40.5523 29.7047 41.3607 29.9934L41.2583 30.28C40.4607 29.9952 38.7565 29.5157 36.5844 28.9046C36.2217 28.8026 35.846 28.6969 35.4593 28.5878C32.7738 27.8303 29.5667 26.9123 26.5417 25.9363L26.3895 26.6699L26.3888 26.6729C26.3452 26.8471 26.2553 26.9883 26.1052 27.0319C25.9569 27.0749 25.8211 27.002 25.7339 26.9148C25.5588 26.7397 25.4584 26.394 25.6578 26.0949C25.7263 25.9922 25.7897 25.8559 25.8465 25.7098C25.5257 25.6043 25.2076 25.4982 24.893 25.3917C24.8481 25.6793 24.6806 25.9263 24.4457 26.0777V30.8567L31.8204 32.3953C32.1712 32.4685 32.492 32.5827 32.7733 32.7291C32.929 32.7637 33.0719 32.8123 33.2013 32.875C33.7417 33.1369 34 33.6221 34 34.2601H33.9898C33.9964 34.317 33.9998 34.3745 33.9998 34.4324V56.8811C38.0853 58.1207 41.8825 59.2707 42.8679 59.517C43.4602 59.6651 43.9917 59.6583 44.3661 59.4881C44.5508 59.4041 44.6972 59.2808 44.7986 59.1146C44.9003 58.9478 44.9618 58.7291 44.9618 58.447C44.9618 58.005 44.8807 55.959 44.7776 53.3585L44.7774 53.3541L44.7774 53.3539L44.7773 53.3514L44.7773 53.3508L44.7772 53.3503C44.7393 52.3942 44.6984 51.3634 44.6575 50.3099C44.5054 46.3921 44.353 42.1647 44.353 40.3345ZM26.3687 25.2715L26.3126 25.542L26.2364 25.5172C26.2667 25.4224 26.2931 25.3324 26.3154 25.2542L26.3687 25.2715ZM25.9111 26.2638C25.9977 26.1338 26.0729 25.9696 26.1362 25.8047L26.2504 25.8419L26.0927 26.6019C26.0772 26.6628 26.0584 26.6987 26.0436 26.7184C26.0297 26.7369 26.0209 26.7394 26.0203 26.7395C26.0195 26.7397 26.0145 26.7412 26.0023 26.7367C25.9891 26.7318 25.9702 26.7206 25.9492 26.6996C25.8579 26.6083 25.8061 26.4213 25.9111 26.2638ZM26.0258 25.1598C26.0035 25.2383 25.9772 25.3281 25.9471 25.4225C25.5961 25.307 25.2483 25.1909 24.905 25.0743V24.7869C25.2742 24.9119 25.6483 25.0363 26.0258 25.1598ZM37.8217 5.70259V12.2195L44.6572 14.2701V8.40334C44.4965 8.21678 44.3994 7.97395 44.3994 7.70844V4.71656L38.1119 2.55776V4.9717C38.1119 5.25464 38.0016 5.51181 37.8217 5.70259ZM32.0396 32.6661C31.9418 32.6367 31.8407 32.611 31.7367 32.5893L24.4457 31.0681V31.9981L26.0042 32.431C25.2898 33.2883 24.5754 33.8598 24.0039 33.7169C23.4324 33.574 22.4322 33.2883 22.1464 32.8596C21.9824 32.6135 22.4953 32.3037 22.9565 32.0251C23.0216 31.9857 23.0857 31.947 23.1467 31.9092V30.7971L16.7296 29.4583V29.6793L17.8912 30.0019C17.1768 30.8592 16.4624 31.4308 15.8909 31.2879C15.3193 31.145 14.3192 30.8592 14.0334 30.4306C13.8693 30.1845 14.3823 29.8746 14.8435 29.596C15.0249 29.4864 15.1983 29.3817 15.3193 29.2875L15.4307 29.3185V29.1873L11.2481 28.3147C10.7897 28.2191 10.3055 28.2076 9.84689 28.2924C8.66032 28.5117 6.26798 29.0016 4.22056 29.7174C3.56767 30.025 3.04009 30.5246 2.65587 31.0787C2.38039 31.4759 2.1817 31.8967 2.06379 32.2863C2.18334 32.1722 2.31279 32.0674 2.45307 31.9729C3.34443 31.3718 4.63786 31.2011 6.49409 31.5731C9.07691 32.0906 15.8477 33.5293 18.4094 34.1622C19.3905 34.4046 20.6649 34.8241 21.6966 35.4748C22.7304 36.1269 23.5274 37.0164 23.5274 38.1928C23.5274 39.0857 23.4648 40.7038 23.3981 42.4258L23.3839 42.7923C23.3122 44.65 23.2405 46.5775 23.2405 47.8177C23.2405 49.0571 23.3838 51.9265 23.5273 54.5924C23.5656 55.3042 23.604 56.0016 23.6396 56.6494L23.6396 56.6505C23.7372 58.4254 23.8143 59.8281 23.8143 60.1333C23.8143 60.3555 23.7468 60.5431 23.6185 60.6949C23.4899 60.8471 23.3052 60.9573 23.0847 61.0296C22.9947 61.0591 22.8989 61.0823 22.7982 61.0996L23.0779 61.167C23.5195 61.2733 23.9904 61.2996 24.4469 61.2456C24.3584 61.1651 24.2873 61.0631 24.2333 60.9388C24.1466 60.739 24.1013 60.4751 24.1013 60.1333C24.1013 59.917 24.0655 59.3491 24.0131 58.5161L24.013 58.5132L24.0129 58.5116C23.9846 58.0617 23.9514 57.5346 23.9164 56.9441C23.8166 55.2599 23.7022 53.0652 23.6439 50.6872C23.5273 45.9343 23.6343 40.4398 24.5339 36.8291C24.9243 35.2622 25.7835 34.421 26.936 33.8904C27.5072 33.6274 28.1449 33.4433 28.8195 33.2829C29.1569 33.2027 29.5053 33.128 29.8599 33.0525L29.9343 33.0367C30.2656 32.9662 30.6023 32.8946 30.9438 32.8161C31.342 32.7245 31.7086 32.6743 32.0396 32.6661ZM24.8112 61.1846L24.8347 61.1794L25.0865 61.1227L25.1703 61.0932L25.1704 61.0932L25.1704 61.0932L25.1705 61.0931C25.3823 61.0184 25.5782 60.9492 25.7187 60.918C25.715 60.9365 25.7105 60.9585 25.7052 60.9835L31.2882 59.7274C31.3764 59.6878 31.4648 59.6476 31.5516 59.6082L31.5517 59.6081L31.5517 59.6081C31.9255 59.4383 32.2687 59.2823 32.4325 59.2459C32.4223 59.2974 32.4164 59.3533 32.4107 59.4137C33.205 59.0677 33.7086 58.4563 33.7086 57.7829V34.4324C33.7086 33.8289 33.3044 33.2762 32.6509 32.919C32.242 32.8365 31.7042 32.8585 31.0309 33.0133C30.6864 33.0925 30.3469 33.1647 30.0162 33.2351L30.0162 33.2351L30.0161 33.2351L30.0161 33.2351L29.9411 33.2511C29.5862 33.3266 29.2419 33.4004 28.9093 33.4795C28.2439 33.6377 27.6322 33.8154 27.0904 34.0649C26.0167 34.5592 25.1951 35.3453 24.8163 36.8657C23.9223 40.4539 23.8141 45.9296 23.9307 50.6836C23.989 53.0591 24.1033 55.2519 24.2031 56.9352C24.2378 57.5207 24.2708 58.0453 24.299 58.4947L24.299 58.4948C24.3519 59.335 24.3882 59.9123 24.3882 60.1333C24.3882 60.4642 24.4325 60.7049 24.5072 60.877C24.5781 61.0405 24.6738 61.1363 24.7775 61.1918L24.8112 61.1846ZM22.0737 60.9253C22.4202 60.9469 22.727 60.9195 22.966 60.8412C23.14 60.7841 23.278 60.7002 23.3736 60.5872C23.4694 60.4738 23.5274 60.3251 23.5274 60.1333C23.5274 59.8325 23.4508 58.4394 23.3535 56.6692L23.3535 56.6681L23.3533 56.6659C23.3176 56.0163 23.2791 55.3161 23.2406 54.6005C23.0972 51.9365 22.9536 49.0621 22.9536 47.8177C22.9536 46.574 23.0254 44.6432 23.0971 42.7865L23.1112 42.4224L23.1112 42.4223C23.178 40.6981 23.2405 39.0827 23.2405 38.1928C23.2405 37.0924 22.4986 36.2556 21.5077 35.6306C20.5146 35.0042 19.2784 34.5957 18.3164 34.358C15.7631 33.7271 8.99904 32.2898 6.4173 31.7725C4.61496 31.4113 3.44004 31.5906 2.649 32.1241C1.84533 32.666 1.40258 33.5947 1.146 34.7934C0.592402 37.3795 0.28692 45.4352 0.28692 51.1294C0.28692 51.9069 0.287453 53.2409 0.677738 54.4567C1.06997 55.6785 1.84116 56.7378 3.33733 57.0322C3.99248 57.1611 4.69813 57.3062 5.40748 57.4541C5.66196 57.42 6.00214 57.3 6.30887 57.1917L6.30895 57.1917L6.30904 57.1917L6.30911 57.1917L6.3092 57.1916L6.30929 57.1916L6.30936 57.1916L6.30942 57.1915L6.30947 57.1915L6.30954 57.1915C6.52142 57.1167 6.71729 57.0476 6.85785 57.0163C6.8324 57.1436 6.76885 57.4369 6.66286 57.7172C8.25231 58.0511 9.71693 58.3583 10.5026 58.4797L10.5085 58.4806L10.5142 58.4819C11.1866 58.6289 11.8676 58.7779 12.5443 58.9261L12.5546 58.9283L12.5995 58.9381L12.675 58.9547C15.6123 59.5977 18.4547 60.2199 20.1623 60.5793L20.2131 60.4773L22.0737 60.9253ZM16.7296 29.2469V23.3536C16.8987 23.1745 17.0024 22.9329 17.0024 22.6671V20.4011L22.9047 22.4276V25.2362C22.9047 25.4855 22.9959 25.7134 23.1467 25.8886V30.5857L16.7296 29.2469ZM5.65701 41.6184C5.02924 41.413 4.4117 41.2051 3.81172 40.9958L3.90584 40.726C4.6443 40.9836 5.40984 41.2392 6.18879 41.4908C9.03474 42.4101 12.0575 43.2754 14.5901 43.9898C14.9524 44.092 15.3049 44.1912 15.6455 44.287C17.6816 44.8598 19.2935 45.3133 20.0524 45.5843L19.9563 45.8534C19.2076 45.586 17.6077 45.1359 15.5687 44.5623C15.2283 44.4665 14.8756 44.3672 14.5125 44.2648C12.0245 43.563 9.05939 42.7144 6.25246 41.8116L6.1997 42.0659C9.04246 42.9838 12.0607 43.8478 14.5901 44.5613C14.9516 44.6633 15.3033 44.7622 15.6432 44.8578L15.6455 44.8585C17.6816 45.4313 19.2935 45.8848 20.0524 46.1558L19.9563 46.4249C19.2076 46.1575 17.6077 45.7074 15.5687 45.1338C15.2283 45.038 14.8756 44.9387 14.5125 44.8363C11.9916 44.1252 8.98097 43.2635 6.14131 42.3473L5.99843 43.036L5.99773 43.0388C5.95685 43.2023 5.87249 43.3348 5.73151 43.3758C5.59231 43.4162 5.46488 43.3478 5.38302 43.2659C5.21865 43.1015 5.12441 42.777 5.31159 42.4962C5.3759 42.3998 5.43542 42.2719 5.48869 42.1347C4.91883 41.9473 4.358 41.7579 3.81172 41.5673L3.90584 41.2975C4.45197 41.488 5.01291 41.6774 5.58314 41.865C5.61138 41.7764 5.63606 41.6921 5.65701 41.6184ZM5.76064 42.2238C5.70121 42.3786 5.63068 42.5328 5.54936 42.6547C5.45077 42.8026 5.49941 42.9782 5.58508 43.0638C5.60486 43.0836 5.62255 43.0941 5.63494 43.0987C5.64638 43.1029 5.6511 43.1015 5.65182 43.1013C5.65238 43.1012 5.6607 43.0989 5.67375 43.0815C5.68765 43.063 5.70526 43.0293 5.71983 42.9721L5.86784 42.2587L5.76064 42.2238ZM5.92625 41.9772L5.85471 41.9539C5.88314 41.8649 5.90797 41.7804 5.9289 41.707L5.97894 41.7233L5.92625 41.9772Z" fill="white"/>
</svg>
