<svg width="97" height="55" viewBox="0 0 97 55" fill="none" xmlns="http://www.w3.org/2000/svg">
<g clip-path="url(#clip0)">
<path d="M60.02 17.9202H56.47L59.77 0.680222H49.41L28.52 18.7502V22.4802H15.09C15.09 22.4802 17 21.9002 24.29 18.0002C31.58 14.1002 32.17 9.14022 32 6.73022C31.83 4.33022 30.26 0.350222 21.31 0.0102224C12.36 -0.329778 4.39 4.25022 4.39 4.25022L8.2 12.1302C8.2 12.1302 9.94 10.7202 12.43 9.31022C14.92 7.90022 19.81 7.15022 21.05 8.32022C22.29 9.48022 20.06 10.6402 20.06 10.6402C20.06 10.6402 6.13 16.6002 3.23 21.7402C0.33 26.8802 0 30.9402 0 30.9402H28.85V25.8802H34.16L34.33 25.7102H45.26L44.12 31.0202H53.99L55 25.7102H58.63L60.02 17.9202ZM42.12 17.9202L48.25 11.7902L46.93 17.9202H42.12Z" fill="#E9476F"/>
<path d="M73.0396 25.8809H96.0896V32.7609C96.0896 32.7609 87.1396 38.8109 84.5696 44.3709C81.9996 49.9209 81.0896 54.9809 81.0896 54.9809H70.0496C70.0496 54.9809 71.6296 49.2609 73.8596 43.2109C76.0896 37.1609 80.4896 34.3409 80.4896 34.3409H68.0596L73.0396 25.8809Z" fill="#E9476F"/>
<path d="M68.8104 0.349609L60.6004 14.5296H64.1704L61.0204 28.7796H57.7004L56.5404 34.0896H48.1704L35.6504 54.5696H52.0604L85.1404 0.429609L68.8104 0.349609Z" fill="#818283"/>
</g>
<defs>
<clipPath id="clip0">
<rect width="96.09" height="54.98" fill="white"/>
</clipPath>
</defs>
</svg>
