<svg width="35" height="35" viewBox="0 0 35 35" fill="none" xmlns="http://www.w3.org/2000/svg">
<rect width="35" height="35" rx="2" fill="#FF2A00"/>
<path fill-rule="evenodd" clip-rule="evenodd" d="M21.0436 16.9857C21.0436 19.5299 18.9811 21.5924 16.4369 21.5924C13.8926 21.5924 11.8301 19.5299 11.8301 16.9857C11.8301 14.4414 13.8926 12.3789 16.4369 12.3789C18.9811 12.3789 21.0436 14.4414 21.0436 16.9857ZM19.9264 22.5968C18.9138 23.2278 17.7179 23.5924 16.4369 23.5924C12.788 23.5924 9.83008 20.6345 9.83008 16.9857C9.83008 13.3369 12.788 10.3789 16.4369 10.3789C20.0857 10.3789 23.0436 13.3369 23.0436 16.9857C23.0436 18.2654 22.6798 19.4601 22.0499 20.472L25.2704 23.2899C25.8939 23.8355 25.9571 24.7831 25.4116 25.4066C24.866 26.03 23.9184 26.0932 23.2949 25.5477L19.9915 22.6572C19.9691 22.6376 19.9474 22.6174 19.9264 22.5968Z" fill="white"/>
</svg>
