<svg width="20" height="20" viewBox="0 0 20 20" fill="none" xmlns="http://www.w3.org/2000/svg">
<path fill-rule="evenodd" clip-rule="evenodd" d="M15.5941 0.513068V1.74904H20V20H0V1.74904H4.40594V0.513068C4.40594 0.229519 4.63864 0 4.92611 0C5.21359 0 5.44628 0.229519 5.44628 0.513068V1.74904H7.71762V0.513068C7.71762 0.229519 7.95032 0 8.23779 0C8.52484 0 8.75796 0.229519 8.75796 0.513068V1.74904H11.1571V0.513068C11.1571 0.229519 11.3902 0 11.6773 0C11.9643 0 12.1975 0.229519 12.1975 0.513068V1.74904H14.5537V0.513068C14.5537 0.229519 14.7864 0 15.0739 0C15.3614 0 15.5941 0.229519 15.5941 0.513068ZM1.06157 18.9525H18.9384V2.79611H15.5941V4.02077C15.5941 4.30432 15.3614 4.53384 15.0739 4.53384C14.7864 4.53384 14.5537 4.30432 14.5537 4.02077V2.79611H12.1975V4.02077C12.1975 4.30432 11.9648 4.53384 11.6773 4.53384C11.3898 4.53384 11.1571 4.30432 11.1571 4.02077V2.79611H8.75796V4.02077C8.75796 4.30432 8.52527 4.53384 8.23779 4.53384C7.95032 4.53384 7.71762 4.30432 7.71762 4.02077V2.79611H5.44628V4.02077C5.44628 4.30432 5.21359 4.53384 4.92611 4.53384C4.63864 4.53384 4.40594 4.30432 4.40594 4.02077V2.79611H1.06157V18.9525ZM5.44534 8.06836H4.405V9.09449H5.44534V8.06836ZM8.75668 8.06836H7.71635V9.09449H8.75668V8.06836ZM11.1555 8.06836H12.1958V9.09449H11.1555V8.06836ZM15.5946 8.06836H14.5543V9.09449H15.5946V8.06836ZM5.44534 14.7295H4.405V15.7556H5.44534V14.7295ZM7.71635 14.7295H8.75668V15.7556H7.71635V14.7295ZM12.1958 14.7295H11.1555V15.7556H12.1958V14.7295ZM14.5543 14.7295H15.5946V15.7556H14.5543V14.7295ZM5.44534 11.3386H4.405V12.3648H5.44534V11.3386ZM7.71635 11.3386H8.75668V12.3648H7.71635V11.3386ZM12.1958 11.3386H11.1555V12.3648H12.1958V11.3386ZM14.5543 11.3386H15.5946V12.3648H14.5543V11.3386Z" fill="#B3B3B3"/>
</svg>
