<svg width="9" height="16" viewBox="0 0 9 16" fill="none" xmlns="http://www.w3.org/2000/svg">
<path d="M8.08368 0.00323273L6.0689 0C3.80537 0 2.34257 1.50079 2.34257 3.82367V5.58664H0.316804C0.141754 5.58664 0 5.72856 0 5.90361V8.45795C0 8.633 0.141916 8.77476 0.316804 8.77476H2.34257V15.2202C2.34257 15.3952 2.48433 15.537 2.65938 15.537H5.30243C5.47748 15.537 5.61923 15.3951 5.61923 15.2202V8.77476H7.98783C8.16288 8.77476 8.30464 8.633 8.30464 8.45795L8.3056 5.90361C8.3056 5.81956 8.27215 5.73906 8.21283 5.67958C8.15351 5.6201 8.07269 5.58664 7.98864 5.58664H5.61923V4.09215C5.61923 3.37384 5.7904 3.00919 6.72611 3.00919L8.08336 3.0087C8.25825 3.0087 8.4 2.86678 8.4 2.69189V0.32004C8.4 0.145311 8.25841 0.003556 8.08368 0.00323273Z" fill="#BDBDBD"/>
</svg>
