<svg width="15" height="15" viewBox="0 0 15 15" fill="none">
    <path fill-rule="evenodd" clip-rule="evenodd" d="M10.4582 6.16197C10.4582 8.7589 8.41658 10.7976 5.97912 10.7976C3.54166 10.7976 1.5 8.7589 1.5 6.16197C1.5 3.56503 3.54166 1.52637 5.97912 1.52637C8.41658 1.52637 10.4582 3.56503 10.4582 6.16197ZM9.45549 11.1545C8.47589 11.8741 7.2757 12.2976 5.97912 12.2976C2.67694 12.2976 0 9.55056 0 6.16197C0 2.77337 2.67694 0.0263672 5.97912 0.0263672C9.2813 0.0263672 11.9582 2.77337 11.9582 6.16197C11.9582 7.48822 11.5482 8.7162 10.8511 9.71966L13.7475 12.3204C14.1584 12.6893 14.1924 13.3216 13.8234 13.7325C13.4545 14.1435 12.8222 14.1775 12.4113 13.8085L9.45549 11.1545Z"/>
</svg>
