<svg width="44" height="48" viewBox="0 0 44 48" fill="none" xmlns="http://www.w3.org/2000/svg">
<g clip-path="url(#clip0)">
<path d="M25.1251 7.91168C25.1524 3.95447 28.3518 0.360418 31.9741 0.0348242C36.2034 -0.34587 39.8904 2.4367 40.7587 6.32379C41.4304 9.33177 39.9451 11.656 38.8405 14.113C37.6389 16.7803 36.0318 19.2348 34.4619 21.6993C33.2827 23.5477 32.7229 23.5377 31.586 21.7344C29.3668 18.2054 27.1104 14.7041 25.655 10.7494C25.2868 9.75254 25.0902 8.77075 25.1251 7.91168ZM33.0961 1.83811C29.0359 1.34221 25.5057 6.12843 27.2074 10.1082C28.6677 13.5269 30.4789 16.7253 32.3697 19.896C32.8349 20.6749 33.2155 20.5247 33.636 19.8234C35.5068 16.6927 37.3454 13.5695 38.7609 10.1683C40.3407 6.37638 37.2956 1.45491 33.0961 1.83811Z" fill="#E30613"/>
<path d="M37.303 7.89204C37.1438 10.066 35.559 12.24 33.0538 12.235C30.5634 12.2299 29.006 10.5318 28.7025 8.00725C28.4687 6.07122 30.8421 3.72444 32.8921 3.65682C35.0241 3.58919 37.2806 5.75564 37.303 7.89204ZM35.4645 7.97469C35.4346 6.67732 34.233 5.35992 33.0563 5.33738C31.7427 5.31233 30.4042 6.72741 30.4714 8.06736C30.5361 9.36973 31.7377 10.5744 32.9692 10.5744C34.3325 10.5744 35.4968 9.36222 35.4645 7.97469Z" fill="#E30613"/>
<path d="M41.4126 15.4409L40.2409 17.5798C41.246 19.8189 41.8605 22.2709 41.9873 24.8531H36.2479H33.8919H31.9016H29.1351H22.9951V16.1798H25.7268L24.9158 14.1761H22.9926V9.42496V5.81588V3.72957C22.6618 3.71454 22.3309 3.70703 21.9975 3.70703C9.86928 3.70703 0 13.6401 0 25.8524C0 38.0647 9.86928 48.0003 22 48.0003C34.1307 48.0003 44 38.0647 44 25.8524C44 22.0905 43.0621 18.5466 41.4126 15.4409ZM15.9919 6.63737C14.2827 8.4607 12.8522 11.0504 11.8297 14.1761H5.7096C8.20988 10.6522 11.8048 7.9673 15.9919 6.63737ZM4.45324 16.1798H11.2475C10.5783 18.8071 10.1753 21.7374 10.1056 24.8506H2.01515C2.1694 21.7224 3.03517 18.777 4.45324 16.1798ZM4.34377 35.3197C2.99039 32.7725 2.16442 29.9023 2.01515 26.8567H10.1056C10.1728 29.8071 10.536 32.5897 11.1431 35.1093H4.34377V35.3197ZM5.41355 37.1129H11.6954C12.7253 40.424 14.2056 43.1665 15.9919 45.0699C11.6381 43.6874 7.92129 40.8422 5.41355 37.1129ZM21.0049 45.8914C18.0642 45.2653 15.4595 41.8966 13.8349 37.1104H21.0049V45.8914ZM21.0049 35.1093H13.2353C12.5785 32.6022 12.1705 29.8021 12.0959 26.8567H21.0049V35.1093ZM21.0049 24.8506H12.0959C12.1755 21.7399 12.6233 18.792 13.3473 16.1798H21.0049V24.8506ZM21.0049 14.1761H13.9817C15.6137 9.6128 18.1513 6.42448 21.0049 5.81588V14.1761ZM22.9951 26.8542H31.9041C31.8295 29.7996 31.424 32.5997 30.7647 35.1068H22.9951V26.8542ZM22.9951 45.8914V37.1104H30.1651C28.5405 41.8992 25.9358 45.2653 22.9951 45.8914ZM28.0057 45.0699C29.7919 43.1665 31.2722 40.424 32.3022 37.1129H38.584C36.0787 40.8422 32.3619 43.6874 28.0057 45.0699ZM39.7632 35.1093H32.8545C33.4615 32.5897 33.8247 29.8071 33.8919 26.8567H41.9824C41.8406 29.8196 41.0519 32.6147 39.7632 35.1093Z" fill="#E30613"/>
</g>
<defs>
<clipPath id="clip0">
<rect width="44" height="48" fill="white"/>
</clipPath>
</defs>
</svg>
