<svg width="61" height="48" viewBox="0 0 61 48" fill="none" xmlns="http://www.w3.org/2000/svg">
<g clip-path="url(#clip0)">
<path d="M44.6525 8.23257C44.6808 4.11486 47.9899 0.375036 51.7365 0.0362366C56.1109 -0.359898 59.9244 2.53553 60.8224 6.58027C61.5172 9.71025 59.981 12.1288 58.8385 14.6854C57.5956 17.4609 55.9333 20.015 54.3097 22.5794C53.09 24.5027 52.511 24.4923 51.3351 22.6159C49.0398 18.9438 46.7059 15.3004 45.2006 11.1853C44.8223 10.1481 44.6165 9.12648 44.6525 8.23257ZM52.8996 1.91266C48.7001 1.39665 45.0488 6.37699 46.8088 10.5182C48.3193 14.0755 50.1926 17.4036 52.1482 20.703C52.6294 21.5135 53.0231 21.3571 53.4579 20.6274C55.393 17.3697 57.2946 14.1199 58.7587 10.5807C60.3927 6.635 57.2431 1.51392 52.8996 1.91266Z" fill="#E30613"/>
<path d="M57.2509 8.21133C57.0862 10.4735 55.4471 12.7356 52.8559 12.7304C50.2802 12.7252 48.6694 10.9582 48.3554 8.33122C48.1135 6.31666 50.5684 3.87471 52.6887 3.80434C54.8939 3.73397 57.2278 5.98829 57.2509 8.21133ZM55.3493 8.29734C55.3185 6.94735 54.0756 5.57652 52.8585 5.55306C51.4999 5.527 50.1155 6.99948 50.185 8.39376C50.2519 9.74896 51.4947 11.0025 52.7684 11.0025C54.176 11.0025 55.3802 9.74114 55.3493 8.29734Z" fill="#E30613"/>
<path d="M32.3962 47.9998C32.3422 47.9998 32.2907 47.9946 32.2367 47.9867C31.9125 47.9346 31.632 47.7287 31.4802 47.4342L22.878 30.5282C22.5898 30.8227 22.3068 31.1119 22.0211 31.4038C20.9481 32.4932 19.8751 33.5852 18.7995 34.6719C17.8937 35.5893 16.9854 36.5041 16.0796 37.4188L15.5985 37.9036C15.5264 37.9765 15.4312 38.073 15.3077 38.1642C15.3051 38.2424 15.3103 38.3622 15.3154 38.4482L15.3231 38.6124C15.3386 39.0685 15.3617 39.522 15.3823 39.9781C15.4055 40.4758 15.4286 40.9736 15.4466 41.474C15.4647 42.0291 15.4775 42.5816 15.4878 43.1367C15.4955 43.5328 15.5032 43.929 15.5161 44.3225C15.5316 44.8411 15.3643 45.2607 15.0092 45.6073C14.564 46.04 14.1163 46.4986 13.6814 46.9417C13.4756 47.1528 13.2697 47.3613 13.0639 47.5698C12.9223 47.7131 12.7757 47.7887 12.6985 47.8278L12.6702 47.8434C12.4257 47.9867 12.1349 48.0232 11.8622 47.9424C11.592 47.8616 11.3656 47.6714 11.2369 47.4186L10.9899 46.926C10.8149 46.5768 10.6425 46.2302 10.4624 45.8888C10.3363 45.6516 10.2076 45.4145 10.079 45.1799C9.90914 44.8698 9.73931 44.5597 9.5772 44.2443C9.31988 43.7439 9.07028 43.2383 8.82068 42.7327C8.65085 42.3913 8.48359 42.0499 8.31119 41.7085C8.252 41.5913 8.19282 41.4714 8.13364 41.3541C7.95352 40.9892 7.78368 40.6452 7.59327 40.3221C7.56496 40.3064 7.53151 40.2908 7.50578 40.2778C7.45174 40.2517 7.39771 40.223 7.34882 40.197C6.50738 39.7435 5.6608 39.3005 4.8168 38.8574C4.43854 38.6593 4.06028 38.4613 3.68202 38.2658C3.27289 38.0547 2.86632 37.841 2.45718 37.6273C2.02232 37.398 1.59002 37.166 1.14229 36.9289L0.547879 36.6109C0.259682 36.4571 0.0615467 36.1757 0.0100829 35.8525C-0.0413809 35.5268 0.0615467 35.1984 0.287987 34.9612L0.627648 34.6042C0.879821 34.341 1.1217 34.0856 1.36873 33.8354C1.77529 33.4236 2.14326 33.0613 2.49836 32.7278C2.76597 32.475 3.13136 32.3212 3.47874 32.316C4.20953 32.3056 4.96347 32.2925 5.72513 32.3134C6.60774 32.3368 7.49806 32.3785 8.36008 32.4176L8.96221 32.4437C9.18865 32.4541 9.38678 32.501 9.52831 32.5349C9.6055 32.5531 9.67498 32.5688 10.0455 32.1883C10.9436 31.2631 11.8648 30.3301 12.7551 29.431C13.2646 28.915 13.7741 28.3989 14.2836 27.8829C15.1096 27.0437 15.9304 26.202 16.7538 25.3602L17.2556 24.8468L0.563318 16.1292C0.269975 15.9754 0.0692662 15.6914 0.0178025 15.363C-0.0336613 15.0346 0.0744126 14.701 0.308573 14.4639C0.547879 14.2215 0.787186 13.9791 1.02392 13.7394C1.81646 12.9341 2.56783 12.1731 3.36037 11.4173C3.87758 10.9221 4.61866 11.0629 4.93774 11.1202C5.32629 11.1932 5.70455 11.2818 6.07251 11.3704C6.27065 11.4173 6.46879 11.4642 6.66692 11.5085C6.97313 11.5763 7.27677 11.6414 7.58298 11.7066C7.89433 11.7717 8.20826 11.8395 8.51962 11.9073C9.39707 12.1027 10.272 12.2956 11.1443 12.5015C11.4556 12.5744 11.767 12.6526 12.0758 12.7334C12.4695 12.835 12.84 12.9289 13.2183 13.0123C13.5991 13.0957 13.9799 13.1712 14.3633 13.2442C14.7596 13.3198 15.1533 13.398 15.547 13.484C15.9175 13.5674 16.2829 13.6586 16.6355 13.7498C16.9571 13.8332 17.2787 13.914 17.6004 13.987C17.9812 14.073 18.3646 14.1511 18.7455 14.2267C19.1289 14.3049 19.5123 14.3805 19.8931 14.4665C20.2714 14.5525 20.6496 14.6437 21.0279 14.7375C21.365 14.8209 21.7021 14.9043 22.0391 14.9825C22.2733 15.0346 22.5126 15.0789 22.7493 15.1206C22.9758 15.1623 23.2022 15.204 23.4261 15.2509C23.6448 15.2978 23.861 15.3526 24.0771 15.4073C24.2598 15.4542 24.4399 15.5011 24.6252 15.5402C24.7539 15.5689 24.9031 15.5897 25.0601 15.6132C25.3997 15.6627 25.7806 15.7174 26.1614 15.866C26.1665 15.8608 26.1717 15.853 26.1768 15.8477C26.2489 15.7643 26.3209 15.6836 26.393 15.6106C27.8983 14.1173 29.4113 12.5744 30.8755 11.0863L31.2409 10.7162C31.6706 10.281 32.0926 9.83797 32.5172 9.39753C33.3277 8.55575 34.1692 7.68269 35.0312 6.85133C36.1943 5.73068 37.5966 5.40752 39.0865 5.91833C40.1467 6.28058 40.9315 6.966 41.3612 7.9016C41.6417 8.51405 41.9839 9.43923 41.7215 10.4244L41.6983 10.513C41.5928 10.9117 41.4641 11.4069 41.1219 11.8864C40.6793 12.5093 40.1673 13.0097 39.6706 13.4918C39.4957 13.6638 39.3181 13.8332 39.1483 14.0104C38.8446 14.3231 38.5384 14.6385 38.2348 14.9538C37.7613 15.4438 37.2853 15.9364 36.8067 16.4237C35.8649 17.3854 34.918 18.3444 33.971 19.3009L33.585 19.6918C33.374 19.9055 33.1605 20.1192 32.9495 20.3329C32.5506 20.7343 32.1389 21.146 31.7375 21.5604C31.7915 21.8002 31.8481 22.0373 31.9073 22.2745C31.9459 22.4387 31.9871 22.6003 32.0257 22.7645C32.126 23.1919 32.2264 23.6219 32.3216 24.0493C32.422 24.5001 32.5172 24.9536 32.6124 25.4045C32.7307 25.957 32.8465 26.5121 32.9598 27.0646C33.0164 27.3461 33.073 27.6249 33.1296 27.9064C33.2171 28.3468 33.3046 28.7873 33.3972 29.2251C33.4461 29.4518 33.5001 29.6786 33.5542 29.9053C33.6108 30.1451 33.67 30.3822 33.7188 30.6246C33.7909 30.9582 33.8578 31.2918 33.9247 31.6254C34.0045 32.0293 34.0868 32.4359 34.1743 32.8372C34.2566 33.2099 34.3441 33.58 34.4342 33.95C34.5294 34.3462 34.6246 34.7423 34.7121 35.141C34.8099 35.5893 34.8999 36.0428 34.9874 36.4936C35.0415 36.7673 35.0929 37.0383 35.1495 37.312C35.2756 37.927 35.4043 38.5395 35.5381 39.1519L35.5947 39.4151C35.7002 39.9103 35.8083 40.4081 35.9241 40.9006C36.045 41.4114 36.1711 41.9196 36.2972 42.4278L36.4773 43.1523C36.6703 43.9316 36.3409 44.458 36.0321 44.7629C35.3219 45.464 34.6323 46.165 33.899 46.9078L33.127 47.6896C32.9289 47.8929 32.6664 47.9998 32.3962 47.9998ZM2.7248 35.4121C2.95381 35.5346 3.18025 35.6545 3.40669 35.7743C3.81068 35.988 4.21725 36.1965 4.62124 36.4076C5.00207 36.6057 5.38547 36.8038 5.76373 37.0044C6.61546 37.4501 7.46718 37.8983 8.31376 38.3544C8.34464 38.3701 8.37809 38.3883 8.41412 38.4039C8.66114 38.5264 9.03168 38.7115 9.27613 39.105C9.54375 39.5402 9.76504 39.9885 9.97861 40.4185C10.0352 40.5332 10.0918 40.6478 10.1484 40.7599C10.3208 41.1039 10.4933 41.4505 10.6631 41.7945C10.9075 42.2923 11.1546 42.7875 11.4067 43.28C11.5586 43.5771 11.7181 43.869 11.8802 44.1609C12.0166 44.4085 12.1504 44.6561 12.2816 44.9063C12.3382 45.0157 12.3948 45.1252 12.4514 45.2347C12.7808 44.8985 13.1153 44.5597 13.4576 44.2261C13.4473 43.8716 13.4421 43.525 13.4344 43.1758C13.4241 42.6311 13.4112 42.0864 13.3932 41.5391C13.3778 41.0492 13.3521 40.5618 13.3289 40.0719C13.3057 39.608 13.2852 39.1467 13.2671 38.6828L13.262 38.5499C13.2363 38.0417 13.19 37.0957 14.1009 36.4728C14.1137 36.4598 14.1266 36.4467 14.1395 36.4337L14.6309 35.9385C15.5367 35.0238 16.4425 34.1116 17.3482 33.1943C18.4212 32.1075 19.4943 31.0181 20.5647 29.9288C20.9764 29.5118 21.3856 29.0922 21.8024 28.6648L22.4148 28.0367C22.6464 27.7995 22.9784 27.6901 23.3026 27.7396C23.6294 27.7891 23.9099 27.995 24.0617 28.2921L32.6664 45.206C33.2634 44.6014 33.8346 44.0228 34.4213 43.4416L34.2978 42.9386C34.1692 42.4226 34.0405 41.904 33.9196 41.3854C33.7986 40.8772 33.6905 40.3664 33.5825 39.8582L33.5259 39.5949C33.3921 38.9747 33.2608 38.357 33.1347 37.7342C33.0781 37.4553 33.0241 37.1791 32.9701 36.9002C32.8851 36.465 32.8002 36.0271 32.705 35.5945C32.6201 35.2114 32.53 34.8283 32.4374 34.4452C32.3448 34.0621 32.2547 33.679 32.1698 33.2959C32.0772 32.8789 31.9948 32.4619 31.9099 32.0423C31.8456 31.7166 31.7787 31.3908 31.7092 31.0676C31.6629 30.8461 31.6088 30.622 31.5548 30.4005C31.4956 30.1555 31.4364 29.9105 31.385 29.6655C31.2898 29.2173 31.2023 28.7716 31.1122 28.3234C31.0582 28.0471 31.0016 27.7683 30.945 27.492C30.8317 26.9421 30.7159 26.3948 30.6001 25.8449C30.5049 25.3993 30.4123 24.9536 30.3119 24.5106C30.2193 24.0884 30.1215 23.6688 30.0212 23.2492C29.9826 23.0902 29.9466 22.9312 29.908 22.7723C29.8256 22.4257 29.7407 22.0816 29.6686 21.735C29.558 21.2112 29.6661 20.7291 29.9697 20.4137C30.4766 19.8847 30.9964 19.3608 31.5008 18.8552C31.7118 18.6441 31.9228 18.4304 32.1338 18.2193L32.5197 17.8284C33.4641 16.872 34.4085 15.9181 35.3503 14.959C35.8237 14.4743 36.2972 13.987 36.7681 13.4996C37.0743 13.1843 37.3779 12.8689 37.6841 12.5536C37.8694 12.3633 38.0572 12.1783 38.2477 11.9959C38.698 11.558 39.1225 11.1463 39.4545 10.6745C39.5754 10.5051 39.6372 10.2628 39.7118 9.98392L39.7375 9.88749C39.825 9.55911 39.6423 9.10043 39.4982 8.78509C39.3078 8.37071 38.9604 8.07882 38.4329 7.899C37.6816 7.64099 37.0537 7.78954 36.4567 8.3655C35.6204 9.1708 34.797 10.0282 33.9968 10.857C33.567 11.3026 33.1373 11.7483 32.705 12.1887L32.3396 12.5588C30.8703 14.0521 29.3521 15.5976 27.8391 17.1013C27.8005 17.1404 27.7619 17.1847 27.7259 17.229C27.4711 17.5209 26.7018 18.407 25.4615 17.8284C25.3019 17.7528 25.0472 17.7164 24.777 17.6773C24.5917 17.6512 24.3988 17.6225 24.1955 17.5782C23.9896 17.5339 23.7838 17.4818 23.5805 17.4297C23.3901 17.3802 23.1971 17.3306 23.0041 17.2915C22.8008 17.2472 22.595 17.2108 22.3917 17.1743C22.1241 17.1248 21.859 17.0778 21.5966 17.0179C21.244 16.9371 20.8941 16.8511 20.5441 16.7651C20.1813 16.6765 19.8211 16.5853 19.4557 16.5045C19.0877 16.4211 18.7197 16.3481 18.3518 16.2725C17.9529 16.1918 17.5567 16.111 17.1604 16.0224C16.8181 15.9442 16.4785 15.8582 16.1388 15.7722C15.7863 15.681 15.4518 15.5949 15.1147 15.522C14.739 15.4386 14.3608 15.3656 13.9851 15.2926C13.5837 15.2145 13.1848 15.1389 12.786 15.0503C12.3768 14.959 11.9728 14.8548 11.5791 14.7558C11.2806 14.6802 10.9847 14.6046 10.6862 14.5342C9.82165 14.331 8.95191 14.1381 8.08475 13.9453C7.78111 13.8775 7.4749 13.8123 7.16869 13.7472C6.85734 13.682 6.54341 13.6143 6.23205 13.5465C6.02362 13.4996 5.8152 13.4501 5.60677 13.4006C5.24909 13.3146 4.91201 13.2338 4.57235 13.1712C4.56205 13.1686 4.54919 13.166 4.53889 13.166C3.94706 13.7394 3.36809 14.3231 2.76597 14.9304L19.466 23.6453C19.7619 23.7991 19.9652 24.091 20.014 24.4246C20.0604 24.7582 19.9446 25.0944 19.7027 25.3289L19.6255 25.4019C19.5895 25.4358 19.556 25.467 19.5251 25.4983L18.2308 26.8222C17.4074 27.664 16.584 28.5084 15.758 29.3476C15.2485 29.8662 14.7364 30.3848 14.2244 30.9008C13.3366 31.7974 12.4206 32.7251 11.5277 33.6451C11.1443 34.0413 10.344 34.8622 9.07028 34.5599C9.01624 34.5468 8.91846 34.5234 8.88501 34.5234L8.28031 34.4973C7.42859 34.4582 6.54598 34.4191 5.68139 34.3957C5.04324 34.3774 4.3948 34.3853 3.75922 34.3957C3.46845 34.6745 3.16224 34.9743 2.83287 35.3078C2.79427 35.3417 2.75825 35.3782 2.7248 35.4121Z" fill="#E30613"/>
</g>
<defs>
<clipPath id="clip0">
<rect width="61" height="48" fill="white"/>
</clipPath>
</defs>
</svg>
