<svg width="42" height="32" viewBox="0 0 42 32" fill="none" xmlns="http://www.w3.org/2000/svg">
<g clip-path="url(#clip0)">
<path d="M12.926 13.6308C12.926 17.9668 12.9415 22.3108 12.9183 26.6468C12.9105 28.6335 12.0332 30.1708 10.3719 31.2194C9.5567 31.7318 8.65614 31.9762 7.70124 31.9762C5.19367 31.9841 2.67832 31.9841 0.170746 31.992C0.0387679 31.992 -0.0078125 31.9604 -0.0078125 31.8185C-4.90993e-05 28.1841 -0.0078125 24.5576 -4.90993e-05 20.9232C-4.90993e-05 20.8523 -0.0466295 20.7419 0.108639 20.7892C0.846162 20.9863 1.59145 21.1124 2.3445 21.2149C3.71086 21.4041 5.08498 21.4751 6.4591 21.3963C7.33636 21.349 8.20586 21.2228 9.04431 20.9311C10.0225 20.6 10.8609 20.0797 11.3889 19.1415C11.7615 18.4793 11.878 17.754 11.878 17.005C11.878 15.0262 11.878 13.0395 11.8857 11.0607C11.8857 10.8952 11.8391 10.8557 11.6761 10.8557C10.2942 10.8636 8.90457 10.8636 7.52269 10.8636C7.36742 10.8636 7.33636 10.9109 7.33636 11.0607C7.34413 13.0395 7.33636 15.0262 7.33636 17.005C7.33636 17.754 7.14228 18.4241 6.59884 18.9523C6.09422 19.4411 5.46538 19.6461 4.78997 19.6776C3.37703 19.7486 2.04949 19.3859 0.760764 18.8498C0.558916 18.771 0.372594 18.6606 0.170746 18.5897C0.0232411 18.5345 -0.0078125 18.4399 -0.0078125 18.298C-4.90993e-05 15.4125 -0.0078125 12.5192 -0.0078125 9.63376C-0.0078125 8.24622 -4.90993e-05 6.85869 -0.0078125 5.47116C-4.90993e-05 4.17823 0.357067 3.01144 1.1567 2.01021C2.01844 0.922252 3.14413 0.267904 4.51049 0.070811C4.84431 0.0235087 5.1859 0.015625 5.51973 0.015625C7.92638 0.0235087 10.3408 0.0235087 12.7475 0.0235087C12.895 0.0235087 12.926 0.0629273 12.926 0.204834C12.926 4.68279 12.926 9.15285 12.926 13.6308Z" fill="#0369B3"/>
<path d="M14.5249 19.6856C14.9596 20.0562 15.4022 20.3242 15.8757 20.545C16.5589 20.8603 17.2731 21.0653 18.0184 21.1914C19.936 21.5225 21.8613 21.491 23.7789 21.2072C24.4698 21.1047 25.1608 20.9628 25.8439 20.813C25.9682 20.7815 26.0225 20.7342 26.0225 20.5923C26.0147 19.9616 26.0225 19.3309 26.0147 18.7002C26.0147 18.645 26.0303 18.5898 25.9914 18.5188C25.8905 18.5662 25.7974 18.6135 25.6964 18.6608C24.2835 19.3388 22.8084 19.7408 21.2247 19.6935C20.262 19.662 19.3615 19.4255 18.6084 18.779C18.1193 18.3612 17.801 17.8093 17.6458 17.1707C17.3896 16.0985 17.4206 15.05 17.9486 14.0567C18.4532 13.1106 19.2916 12.6218 20.2931 12.409C21.4887 12.1567 22.6687 12.3144 23.8332 12.6297C24.5397 12.8189 25.2151 13.0949 25.8672 13.426C25.9759 13.4812 26.0147 13.4812 26.0147 13.3392C26.007 12.6849 26.0147 12.0227 26.0147 11.3683C26.0147 11.2737 26.007 11.2264 25.8983 11.2028C25.1608 11.0293 24.4232 10.8874 23.6702 10.777C22.2495 10.5721 20.821 10.5169 19.3848 10.6351C18.3678 10.714 17.3663 10.8874 16.3959 11.2422C15.7515 11.4787 15.146 11.8019 14.6103 12.2434C14.587 12.2592 14.5637 12.2749 14.5171 12.3065C14.5171 12.2119 14.5171 12.1488 14.5171 12.0779C14.5171 9.85464 14.5094 7.62355 14.5171 5.40035C14.5249 3.57132 15.2546 2.08918 16.7142 1.00123C17.6147 0.339 18.6317 0.00788372 19.7341 0.00788372C22.2572 0 24.7804 0.00788372 27.3035 0C27.451 0 27.4743 0.055186 27.4665 0.181325C27.4587 1.57674 27.4665 2.97216 27.4665 4.36758C27.4665 11.7704 27.4743 19.1732 27.4665 26.576C27.4665 28.5312 26.6513 30.0685 25.0443 31.1564C24.1826 31.732 23.2199 32 22.1874 32C19.6876 32 17.1877 32 14.6879 32.0079C14.5559 32.0079 14.5094 31.9842 14.5171 31.8344C14.5249 27.8295 14.5171 23.8167 14.5171 19.8118C14.5249 19.7802 14.5249 19.7566 14.5249 19.6856Z" fill="#E20B17"/>
<path d="M37.5282 15.8463C37.6446 15.7832 37.7766 15.7832 37.893 15.7517C38.7004 15.5388 39.3603 15.121 39.7097 14.3247C40.2531 13.0791 39.6942 11.7389 38.421 11.2028C37.7844 10.9347 37.1245 10.8716 36.449 10.8716C34.0502 10.8716 31.659 10.8716 29.2601 10.8795C29.0738 10.8795 29.0272 10.8322 29.035 10.643C29.0427 8.92437 29.0505 7.20572 29.035 5.48707C29.0272 4.02858 29.4853 2.74353 30.4635 1.68712C31.3562 0.725302 32.4742 0.165558 33.7707 0.0315349C34.0812 0 34.384 0 34.6945 0C37.0624 0 39.438 0 41.8058 0C41.9533 0 41.9999 0.0315349 41.9999 0.189209C41.9921 9.01109 42.0077 17.833 41.9921 26.6548C41.9921 28.5548 41.1614 30.0606 39.6088 31.1249C38.7626 31.7004 37.8154 31.9921 36.7984 31.9921C34.2753 32 31.7522 31.9921 29.2291 32C29.0738 32 29.0427 31.9527 29.0427 31.8029C29.0505 28.3104 29.0505 24.8101 29.0427 21.3176C29.0427 21.1362 29.1049 21.1205 29.2524 21.1205C31.9463 21.1205 34.6324 21.1284 37.3263 21.1205C38.0561 21.1205 38.7548 20.947 39.3759 20.545C40.6646 19.7172 40.9285 17.9906 39.9348 16.9027C39.5389 16.4691 39.0343 16.2089 38.4831 16.0512C38.2113 15.9724 37.9319 15.9251 37.6524 15.8936C37.6058 15.8936 37.5592 15.9172 37.5282 15.8463Z" fill="#009640"/>
<path d="M33.2892 16.6505C33.7783 16.6505 34.2597 16.6426 34.7488 16.6505C35.4397 16.6662 35.9754 17.155 36.0685 17.8488C36.185 18.6766 35.6183 19.4176 34.7953 19.4413C33.7706 19.4728 32.7536 19.4492 31.7288 19.4571C31.6356 19.4571 31.6201 19.4176 31.6201 19.3388C31.6201 18.4795 31.6201 17.628 31.6201 16.7687C31.6201 16.6505 31.6667 16.6426 31.7599 16.6426C32.2645 16.6505 32.7769 16.6505 33.2892 16.6505Z" fill="#269339"/>
<path d="M33.0957 15.0646C32.6609 15.0646 32.2262 15.0568 31.7837 15.0646C31.6594 15.0646 31.6129 15.041 31.6129 14.8991C31.6206 14.1344 31.6129 13.3775 31.6129 12.6128C31.6129 12.534 31.5973 12.4551 31.7293 12.4551C32.6764 12.4709 33.6236 12.4236 34.5707 12.4788C35.2383 12.5182 35.7119 13.0622 35.7197 13.7323C35.7274 14.4182 35.2616 14.9622 34.6018 15.041C34.5552 15.0489 34.5008 15.0568 34.4542 15.0568C34.004 15.0646 33.5459 15.0646 33.0957 15.0646Z" fill="#269339"/>
</g>
<defs>
<clipPath id="clip0">
<rect width="42" height="32" fill="white"/>
</clipPath>
</defs>
</svg>
