<svg width="188" height="172" viewBox="0 0 188 172" fill="none" xmlns="http://www.w3.org/2000/svg">
<path fill-rule="evenodd" clip-rule="evenodd" d="M5 17.3614V17C44.8626 27.0482 86.9398 19.4578 127.337 18.1566C158.952 17.1446 176.745 20.8313 184 23C172.545 20.1084 151.468 18.9518 127.261 19.6024C105.42 20.1807 81.1361 22.494 60.0593 22.7108C32.9497 23.0723 14.3166 19.9639 5 17.3614Z" fill="#FF2A00"/>
<path fill-rule="evenodd" clip-rule="evenodd" d="M5 42.3614V42C44.8626 52.0482 86.9398 44.4578 127.337 43.1566C158.952 42.1446 176.745 45.8313 184 48C172.545 45.1084 151.468 43.9518 127.261 44.6024C105.42 45.1807 81.1361 47.494 60.0593 47.7108C32.9497 48.0723 14.3166 44.9639 5 42.3614Z" fill="#D7B262"/>
<path fill-rule="evenodd" clip-rule="evenodd" d="M5 67.3614V67C44.8626 77.0482 86.9398 69.4578 127.337 68.1566C158.952 67.1446 176.745 70.8313 184 73C172.545 70.1084 151.468 68.9518 127.261 69.6024C105.42 70.1807 81.1361 72.494 60.0593 72.7108C32.9497 73.0723 14.3166 69.9639 5 67.3614Z" fill="#504F54"/>
<rect width="188" height="40" transform="translate(0 132)" fill="#504F54"/>
<path fill-rule="evenodd" clip-rule="evenodd" d="M5 149.361V149C44.8626 159.048 86.9398 151.458 127.337 150.157C158.952 149.145 176.745 152.831 184 155C172.545 152.108 151.468 150.952 127.261 151.602C105.42 152.181 81.1361 154.494 60.0593 154.711C32.9497 155.072 14.3166 151.964 5 149.361Z" fill="white"/>
<rect width="188" height="40" transform="translate(0 92)" fill="#FF2A00"/>
<path fill-rule="evenodd" clip-rule="evenodd" d="M5 109.361V109C44.8626 119.048 86.9398 111.458 127.337 110.157C158.952 109.145 176.745 112.831 184 115C172.545 112.108 151.468 110.952 127.261 111.602C105.42 112.181 81.1361 114.494 60.0593 114.711C32.9497 115.072 14.3166 111.964 5 109.361Z" fill="white"/>
</svg>
