<svg width="188" height="230" viewBox="0 0 188 230" fill="none" xmlns="http://www.w3.org/2000/svg">
<path fill-rule="evenodd" clip-rule="evenodd" d="M103.392 45.7253C103.882 44.0266 103.129 41.9125 101.396 41.535L100.567 44.1398H96.5356L96.5733 43.9888L101.094 28.4733L95.3677 28.4355L90.3193 45.7253H103.392Z" fill="#FF0011"/>
<path fill-rule="evenodd" clip-rule="evenodd" d="M70.012 45.7251L74.0808 31.7573H68.618L66.4329 39.2697C65.9055 41.0817 65.152 43.611 61.7236 43.611C60.3296 43.611 59.5761 43.007 59.3501 42.101C59.124 41.497 59.3878 40.3645 59.5761 39.7227L61.912 31.7573H56.4492L54.1133 39.7227C53.6989 41.1572 52.9831 42.9315 53.8496 44.1773C54.6785 45.423 56.5999 45.9516 58.6343 45.9516C61.3845 45.9516 63.0422 45.0078 65.3027 43.5733L64.6999 45.6873H70.012V45.7251Z" fill="#FF0011"/>
<path fill-rule="evenodd" clip-rule="evenodd" d="M76.2661 42.0628C75.8516 42.2894 75.0228 43.0444 74.533 43.7239C74.2693 44.0636 74.081 44.4034 73.8926 44.8186C75.2865 45.6114 77.0572 45.9889 78.9786 45.9889C83.7633 45.9889 87.154 44.0636 87.9452 41.3833C89.5275 36.0227 79.8075 37.4195 80.6363 34.626C80.9377 33.4557 82.5954 32.9649 84.027 32.9649C85.7977 32.9649 87.1163 34.1352 87.0787 35.381C87.7191 35.1922 88.6233 34.5882 89.2261 33.8332L89.9042 32.8517C88.5856 31.9457 86.5135 31.4927 84.5545 31.4927C80.9754 31.4927 77.2833 33.1537 76.4168 36.0605C74.9475 41.0813 84.4038 40.0243 83.6126 42.7424C83.3112 43.7616 81.4275 44.5166 80.0712 44.5166C77.9237 44.5166 76.5298 43.4974 76.2661 42.0628V42.0628Z" fill="#FF0011"/>
<path fill-rule="evenodd" clip-rule="evenodd" d="M110.363 31.7196L106.294 45.6874H111.757L115.826 31.7196H110.363ZM114.658 25C112.962 25 111.267 26.057 110.89 27.265C110.551 28.4731 111.606 29.5301 113.301 29.5301C114.997 29.5301 116.767 28.5108 117.144 27.265C117.483 26.0193 116.353 25 114.658 25V25Z" fill="#FF0011"/>
<path fill-rule="evenodd" clip-rule="evenodd" d="M120.797 31.7193L116.728 45.6871H122.191L124.112 39.043C124.64 37.2309 125.619 33.8711 129.048 33.8711C131.798 33.8711 131.722 35.8341 130.931 38.5144L128.822 45.6871H134.284L136.733 37.2309C137.75 33.7579 137.148 31.4551 132.175 31.4551C129.726 31.4551 127.352 32.4743 125.393 33.8334L126.034 31.7193H120.797Z" fill="#FF0011"/>
<path fill-rule="evenodd" clip-rule="evenodd" d="M43.0731 28.7755L35.0861 28.8132C34.7847 29.455 33.353 34.2493 33.2777 34.5891L30 45.7633H35.7265L37.4219 39.9497H40.3605L43.7135 45.8011H48.5359L45.1452 39.8364H45.2205H45.2959H45.3712C54.5638 39.3457 54.7145 28.7377 43.0731 28.7755V28.7755ZM40.0214 30.4365C50.1182 28.8887 47.1042 38.7039 41.8298 38.7039H37.761L40.0214 30.4365Z" fill="#FF0011"/>
<path fill-rule="evenodd" clip-rule="evenodd" d="M145.776 38.7417H148.074C150.297 38.6662 158.736 39.1192 157.493 34.3626C157.041 32.6261 154.705 31.4558 151.126 31.4936C145.4 31.4936 141.255 34.3626 140.05 38.4019C138.656 43.083 141.18 45.9898 147.773 45.9898C149.694 45.9898 151.993 45.499 153.801 44.7063L155.12 43.083L154.705 42.8188C153.274 43.5738 151.352 44.1023 149.732 44.1023C145.55 44.1023 144.797 41.724 145.776 38.7417V38.7417ZM146.492 36.7409C147.509 34.3626 149.167 33.6453 150.862 33.6076C155.044 33.4566 153.726 37.5714 149.732 37.5714H146.191L146.492 36.7409Z" fill="#FF0011"/>
<path fill-rule="evenodd" clip-rule="evenodd" d="M103.392 115.725C103.882 114.027 103.129 111.913 101.396 111.535L100.567 114.14H96.5356L96.5733 113.989L101.094 98.4733L95.3677 98.4355L90.3193 115.725H103.392Z" fill="#504F54"/>
<path fill-rule="evenodd" clip-rule="evenodd" d="M70.012 115.725L74.0808 101.757H68.618L66.4329 109.27C65.9055 111.082 65.152 113.611 61.7236 113.611C60.3296 113.611 59.5761 113.007 59.3501 112.101C59.124 111.497 59.3878 110.364 59.5761 109.723L61.912 101.757H56.4492L54.1133 109.723C53.6989 111.157 52.9831 112.932 53.8496 114.177C54.6785 115.423 56.5999 115.952 58.6343 115.952C61.3845 115.952 63.0422 115.008 65.3027 113.573L64.6999 115.687H70.012V115.725Z" fill="#504F54"/>
<path fill-rule="evenodd" clip-rule="evenodd" d="M76.2661 112.063C75.8516 112.289 75.0228 113.044 74.533 113.724C74.2693 114.064 74.081 114.403 73.8926 114.819C75.2865 115.611 77.0572 115.989 78.9786 115.989C83.7633 115.989 87.154 114.064 87.9452 111.383C89.5275 106.023 79.8075 107.42 80.6363 104.626C80.9377 103.456 82.5954 102.965 84.027 102.965C85.7977 102.965 87.1163 104.135 87.0787 105.381C87.7191 105.192 88.6233 104.588 89.2261 103.833L89.9042 102.852C88.5856 101.946 86.5135 101.493 84.5545 101.493C80.9754 101.493 77.2833 103.154 76.4168 106.06C74.9475 111.081 84.4038 110.024 83.6126 112.742C83.3112 113.762 81.4275 114.517 80.0712 114.517C77.9237 114.517 76.5298 113.497 76.2661 112.063V112.063Z" fill="#504F54"/>
<path fill-rule="evenodd" clip-rule="evenodd" d="M110.363 101.72L106.294 115.687H111.757L115.826 101.72H110.363ZM114.658 95C112.962 95 111.267 96.057 110.89 97.265C110.551 98.4731 111.606 99.5301 113.301 99.5301C114.997 99.5301 116.767 98.5108 117.144 97.265C117.483 96.0193 116.353 95 114.658 95V95Z" fill="#504F54"/>
<path fill-rule="evenodd" clip-rule="evenodd" d="M120.797 101.719L116.728 115.687H122.191L124.112 109.043C124.64 107.231 125.619 103.871 129.048 103.871C131.798 103.871 131.722 105.834 130.931 108.514L128.822 115.687H134.284L136.733 107.231C137.75 103.758 137.148 101.455 132.175 101.455C129.726 101.455 127.352 102.474 125.393 103.833L126.034 101.719H120.797Z" fill="#504F54"/>
<path fill-rule="evenodd" clip-rule="evenodd" d="M43.0731 98.7755L35.0861 98.8132C34.7847 99.455 33.353 104.249 33.2777 104.589L30 115.763H35.7265L37.4219 109.95H40.3605L43.7135 115.801H48.5359L45.1452 109.836H45.2205H45.2959H45.3712C54.5638 109.346 54.7145 98.7377 43.0731 98.7755V98.7755ZM40.0214 100.437C50.1182 98.8887 47.1042 108.704 41.8298 108.704H37.761L40.0214 100.437Z" fill="#504F54"/>
<path fill-rule="evenodd" clip-rule="evenodd" d="M145.776 108.742H148.074C150.297 108.666 158.736 109.119 157.493 104.363C157.041 102.626 154.705 101.456 151.126 101.494C145.4 101.494 141.255 104.363 140.05 108.402C138.656 113.083 141.18 115.99 147.773 115.99C149.694 115.99 151.993 115.499 153.801 114.706L155.12 113.083L154.705 112.819C153.274 113.574 151.352 114.102 149.732 114.102C145.55 114.102 144.797 111.724 145.776 108.742V108.742ZM146.492 106.741C147.509 104.363 149.167 103.645 150.862 103.608C155.044 103.457 153.726 107.571 149.732 107.571H146.191L146.492 106.741Z" fill="#504F54"/>
<rect width="188" height="90" transform="translate(0 140)" fill="#FF2A00"/>
<path fill-rule="evenodd" clip-rule="evenodd" d="M103.392 195.725C103.882 194.027 103.129 191.913 101.396 191.535L100.567 194.14H96.5356L96.5733 193.989L101.094 178.473L95.3677 178.436L90.3193 195.725H103.392Z" fill="white"/>
<path fill-rule="evenodd" clip-rule="evenodd" d="M70.012 195.725L74.0808 181.757H68.618L66.4329 189.27C65.9055 191.082 65.152 193.611 61.7236 193.611C60.3296 193.611 59.5761 193.007 59.3501 192.101C59.124 191.497 59.3878 190.364 59.5761 189.723L61.912 181.757H56.4492L54.1133 189.723C53.6989 191.157 52.9831 192.932 53.8496 194.177C54.6785 195.423 56.5999 195.952 58.6343 195.952C61.3845 195.952 63.0422 195.008 65.3027 193.573L64.6999 195.687H70.012V195.725Z" fill="white"/>
<path fill-rule="evenodd" clip-rule="evenodd" d="M76.2661 192.063C75.8516 192.289 75.0228 193.044 74.533 193.724C74.2693 194.064 74.081 194.403 73.8926 194.819C75.2865 195.611 77.0572 195.989 78.9786 195.989C83.7633 195.989 87.154 194.064 87.9452 191.383C89.5275 186.023 79.8075 187.42 80.6363 184.626C80.9377 183.456 82.5954 182.965 84.027 182.965C85.7977 182.965 87.1163 184.135 87.0787 185.381C87.7191 185.192 88.6233 184.588 89.2261 183.833L89.9042 182.852C88.5856 181.946 86.5135 181.493 84.5545 181.493C80.9754 181.493 77.2833 183.154 76.4168 186.06C74.9475 191.081 84.4038 190.024 83.6126 192.742C83.3112 193.762 81.4275 194.517 80.0712 194.517C77.9237 194.517 76.5298 193.497 76.2661 192.063V192.063Z" fill="white"/>
<path fill-rule="evenodd" clip-rule="evenodd" d="M110.363 181.72L106.294 195.687H111.757L115.826 181.72H110.363ZM114.658 175C112.962 175 111.267 176.057 110.89 177.265C110.551 178.473 111.606 179.53 113.301 179.53C114.997 179.53 116.767 178.511 117.144 177.265C117.483 176.019 116.353 175 114.658 175V175Z" fill="white"/>
<path fill-rule="evenodd" clip-rule="evenodd" d="M120.797 181.719L116.728 195.687H122.191L124.112 189.043C124.64 187.231 125.619 183.871 129.048 183.871C131.798 183.871 131.722 185.834 130.931 188.514L128.822 195.687H134.284L136.733 187.231C137.75 183.758 137.148 181.455 132.175 181.455C129.726 181.455 127.352 182.474 125.393 183.833L126.034 181.719H120.797Z" fill="white"/>
<path fill-rule="evenodd" clip-rule="evenodd" d="M43.0731 178.775L35.0861 178.813C34.7847 179.455 33.353 184.249 33.2777 184.589L30 195.763H35.7265L37.4219 189.95H40.3605L43.7135 195.801H48.5359L45.1452 189.836H45.2205H45.2959H45.3712C54.5638 189.346 54.7145 178.738 43.0731 178.775V178.775ZM40.0214 180.437C50.1182 178.889 47.1042 188.704 41.8298 188.704H37.761L40.0214 180.437Z" fill="white"/>
<path fill-rule="evenodd" clip-rule="evenodd" d="M145.776 188.742H148.074C150.297 188.666 158.736 189.119 157.493 184.363C157.041 182.626 154.705 181.456 151.126 181.494C145.4 181.494 141.255 184.363 140.05 188.402C138.656 193.083 141.18 195.99 147.773 195.99C149.694 195.99 151.993 195.499 153.801 194.706L155.12 193.083L154.705 192.819C153.274 193.574 151.352 194.102 149.732 194.102C145.55 194.102 144.797 191.724 145.776 188.742V188.742ZM146.492 186.741C147.509 184.363 149.167 183.645 150.862 183.608C155.044 183.457 153.726 187.571 149.732 187.571H146.191L146.492 186.741Z" fill="white"/>
</svg>
