<svg width="42" height="23" viewBox="0 0 42 23" fill="none" xmlns="http://www.w3.org/2000/svg">
<path opacity="0.99" d="M7.48024 22.326H0.654297L9.53305 11.667L12.9858 15.3528L7.48024 22.326ZM32.4672 11.8548L41.3459 22.326H23.5884L32.4672 11.8548H32.4672Z" stroke="#B2C0D1" stroke-width="1.2" stroke-linecap="round" stroke-linejoin="round"/>
<path opacity="0.99" d="M23.6687 22.3256H7.1499L17.548 10.2292L16.5108 10.0449L21.1132 5.10804L25.5815 10.0197L24.6684 10.1855L28.9627 14.975L23.6687 22.3256ZM32.1456 5.869C33.5365 5.869 34.6641 4.70625 34.6641 3.2719C34.6641 1.83769 33.5365 0.674805 32.1456 0.674805C30.7547 0.674805 29.627 1.83755 29.627 3.2719C29.627 4.70625 30.7547 5.869 32.1456 5.869Z" stroke="#B2C0D1" stroke-width="1.2" stroke-linecap="round" stroke-linejoin="round"/>
<path d="M9.71973 19.8157H12.1725M19.0442 14.8439H21.497H19.0442ZM16.2179 16.6453H18.6707H16.2179ZM20.2007 19.3114H22.6535H20.2007ZM33.896 20.5363H36.3488H33.896ZM31.3106 18.1585H33.7633H31.3106ZM17.5476 10.2286H20.9113H17.5476ZM24.0393 10.207H25.5812H24.0393ZM22.9257 13.763H25.3785H22.9257Z" stroke="#B2C0D1" stroke-width="1.2" stroke-linecap="round" stroke-linejoin="round"/>
</svg>
