<svg width="39" height="32" viewBox="0 0 39 32" fill="none" xmlns="http://www.w3.org/2000/svg">
<path opacity="0.99" d="M18.6591 8.38281C15.6032 8.38704 12.8191 10.1275 11.4938 12.8621C10.6915 12.4817 9.81417 12.2831 8.92514 12.2805C5.61038 12.2805 2.92347 14.9491 2.92334 18.2409C2.92334 21.5326 5.61051 24.2012 8.92514 24.2013C9.04847 24.2007 9.17175 24.1963 9.29482 24.1882C9.40454 24.1959 9.5149 24.2014 9.62668 24.2014H23.5551C24.0237 24.1391 24.4789 24.1969 24.9138 24.2014C27.9261 24.2014 30.368 21.7762 30.368 18.7846C30.3658 16.2519 28.5966 14.0585 26.108 13.504C24.9399 10.424 21.9731 8.38435 18.6591 8.38281C18.6591 8.38281 18.6591 8.38281 18.6591 8.38281Z" stroke="#B2C0D1" stroke-width="1.2" stroke-linecap="round" stroke-linejoin="round"/>
<path opacity="0.99" d="M30.6414 19.0578C30.9273 19.084 31.217 19.0975 31.5097 19.0975C34.1139 19.0933 36.597 18.0047 38.355 16.0967C38.224 16.104 38.093 16.1088 37.9619 16.1106C32.8258 16.1107 28.6622 11.9758 28.6622 6.87526C28.6665 4.56537 29.5422 2.34091 31.1165 0.640625C26.3968 0.839063 22.6212 4.50657 22.2417 9.10435" stroke="#B2C0D1" stroke-width="1.2" stroke-linecap="round" stroke-linejoin="round"/>
<path d="M27.5096 25.5771L21.6883 31.3584M6.46685 25.5771L0.645508 31.3584L6.46685 25.5771ZM11.6474 25.5771L8.30817 28.8934L11.6474 25.5771ZM16.9654 25.5771L11.144 31.3584L16.9654 25.5771ZM22.146 25.5771L18.8067 28.8934L22.146 25.5771Z" stroke="#B2C0D1" stroke-width="1.2" stroke-linecap="round" stroke-linejoin="round"/>
</svg>
