<svg width="41" height="41" viewBox="0 0 41 41" fill="none" xmlns="http://www.w3.org/2000/svg">
<path d="M15.1294 8.17109L18.6672 6.25591V24.4515C18.6672 25.2397 19.2925 25.8785 20.0639 25.8785C20.8351 25.8785 21.4605 25.2397 21.4605 24.4515V6.19941L24.9948 8.15796C25.4878 8.43123 26.1044 8.25613 26.3882 7.76182C26.8547 6.94915 27.4405 5.63289 27.4405 4.14796C27.4405 2.66231 26.8548 1.34605 26.3884 0.533235C26.1044 0.0383532 25.4884 -0.136454 24.9948 0.137101L20.1319 2.83284L15.1294 0.123973C14.6378 -0.142162 14.0279 0.0335014 13.7458 0.523389C13.278 1.33535 12.6873 2.65632 12.6873 4.14796C12.6873 5.63888 13.2782 6.95971 13.7458 7.77167C14.0283 8.26199 14.6372 8.43751 15.1294 8.17109Z" fill="#C4C4C4"/>
<path d="M36.9481 6.51874L31.6335 4.59829C31.3311 4.48898 30.9981 4.51024 30.7114 4.65694C30.4247 4.80363 30.2086 5.06335 30.1131 5.37629L21.0661 35.0081C20.9509 35.3857 20.6087 35.6427 20.2217 35.6427C19.8347 35.6427 19.4925 35.3856 19.3773 35.0081L10.3246 5.36159C10.2298 5.05122 10.0164 4.79307 9.73272 4.64566C9.44906 4.49826 9.11918 4.47414 8.81792 4.57888L3.20164 6.52901C2.42008 6.80043 1.89453 7.55017 1.89453 8.39352V39.0307C1.89453 40.1183 2.75751 40.9999 3.82189 40.9999H36.3055C37.37 40.9999 38.2328 40.1183 38.2328 39.0307V8.37526C38.2328 7.54075 37.7182 6.797 36.9481 6.51874ZM34.0867 34.8326C34.0867 35.2566 33.7503 35.6002 33.3354 35.6002H26.1918C25.7768 35.6002 25.4405 35.2566 25.4405 34.8326V33.2578C25.4405 32.8338 25.7768 32.4902 26.1918 32.4902H33.3354C33.7503 32.4902 34.0867 32.8338 34.0867 33.2578V34.8326Z" fill="#C4C4C4"/>
</svg>
