<svg width="41" height="41" viewBox="0 0 41 41" fill="none" xmlns="http://www.w3.org/2000/svg">
<g clip-path="url(#clip0)">
<path d="M13.3322 23.1044V18.6305H10.2005V23.1044C10.2005 23.4504 9.92017 23.7308 9.57414 23.7308H5.1897V26.5941H9.57414C9.92017 26.5941 10.2005 26.8744 10.2005 27.2204V31.6943H13.3322V27.2204C13.3322 26.8744 13.6126 26.5941 13.9586 26.5941H18.4325V23.7308H13.9586C13.6126 23.7308 13.3322 23.4504 13.3322 23.1044V23.1044Z" fill="#C4C4C4"/>
<path d="M19.8104 13.4021C19.572 13.3074 19.4158 13.0764 19.4168 12.8195V10.3983H4.11602V12.8191C4.11602 13.075 3.95803 13.2616 3.7207 13.4406H3.71826C1.48863 14.3354 4.88565e-06 16.5454 4.88565e-06 19.0005V34.6459C-0.00279132 36.1262 1.19503 37.3285 2.67527 37.3313H20.8338C22.319 37.3296 23.5245 36.1293 23.5329 34.6442V19.0008C23.5329 16.5318 22.0386 14.2815 19.8104 13.4021V13.4021ZM19.6853 27.2203C19.6853 27.5663 19.405 27.8466 19.0589 27.8466H14.585V32.3205C14.585 32.6666 14.3047 32.9469 13.9587 32.9469H9.57421C9.22817 32.9469 8.94786 32.6666 8.94786 32.3205V27.8466H4.56341C4.21738 27.8466 3.93706 27.5663 3.93706 27.2203V23.1043C3.93706 22.7582 4.21738 22.4779 4.56341 22.4779H8.94786V18.004C8.94786 17.658 9.22817 17.3776 9.57421 17.3776H13.9587C14.3047 17.3776 14.585 17.658 14.585 18.004V22.4779H19.0589C19.405 22.4779 19.6853 22.7582 19.6853 23.1043V27.2203Z" fill="#C4C4C4"/>
<path d="M3.31079 3.6875H20.2222V9.14569H3.31079V3.6875Z" fill="#C4C4C4"/>
<path d="M38.1378 32.4102H34.2703V37.3315H38.1378C39.4967 37.3315 40.5984 36.2298 40.5984 34.8708C40.5984 33.5119 39.4967 32.4102 38.1378 32.4102V32.4102Z" fill="#C4C4C4"/>
<path d="M39.3833 28.314L35.7682 26.9886L34.2397 31.1574H38.1376C39.0216 31.1571 39.8762 31.4731 40.5473 32.048C40.9905 31.4224 41.1166 30.6255 40.8884 29.8932C40.6602 29.1613 40.1037 28.5772 39.3833 28.314V28.314Z" fill="#C4C4C4"/>
<path d="M27.8938 28.5821C28.1671 29.1759 28.6666 29.6355 29.2811 29.8589L32.8242 31.1574H32.9056L34.5925 26.5573L30.9773 25.2326C30.0416 24.8893 28.9917 25.1438 28.3167 25.8771C27.6414 26.6104 27.4747 27.6778 27.8938 28.5821V28.5821ZM29.1032 28.5251C29.2224 28.2004 29.582 28.0337 29.9071 28.1525L32.7658 29.2007C32.9776 29.2762 33.1325 29.4601 33.1716 29.6813C33.2108 29.9029 33.1283 30.1284 32.9549 30.2724C32.7819 30.416 32.5453 30.4559 32.3345 30.3769L29.4758 29.3287C29.151 29.2095 28.9843 28.8498 29.1032 28.5251Z" fill="#C4C4C4"/>
<path d="M26.7209 34.8708C26.723 36.2305 27.8254 37.3315 29.1851 37.3315H33.0176V32.4102H29.1851C27.8254 32.4102 26.723 33.5112 26.7209 34.8708ZM32.8565 36.1683C32.8565 36.5143 32.5762 36.7946 32.2302 36.7946H29.1851C28.8391 36.7946 28.5588 36.5143 28.5588 36.1683C28.5588 35.8222 28.8391 35.5419 29.1851 35.5419H32.2302C32.5762 35.5419 32.8565 35.8222 32.8565 36.1683Z" fill="#C4C4C4"/>
</g>
<defs>
<clipPath id="clip0">
<rect width="41" height="41" fill="white"/>
</clipPath>
</defs>
</svg>
