<svg width="41" height="41" viewBox="0 0 41 41" fill="none" xmlns="http://www.w3.org/2000/svg">
<g clip-path="url(#clip0)">
<path d="M10.1467 30.6475L32.3722 8.422C32.3757 8.35369 32.379 8.28706 32.3825 8.21698C32.4218 7.45498 32.461 6.7033 32.461 5.97717C32.461 5.50563 32.0783 5.12291 31.6068 5.12291C27.2912 5.12291 23.1754 4.88033 20.2523 1.95539C20.0079 1.71105 19.6423 1.63929 19.3211 1.77087C19.0017 1.90245 18.7932 2.2151 18.7932 2.56019V19.1495L17.6006 19.8312C17.5272 19.7748 17.4486 19.7219 17.3546 19.6894L14.7919 18.8351C14.3409 18.6848 13.8608 18.9274 13.7121 19.375C13.5635 19.8226 13.8044 20.3061 14.252 20.4547L15.6769 20.9297L7.26442 25.7374C6.99789 25.8912 6.83388 26.1747 6.83388 26.4806V29.4396L2.30468 32.4602H0.854265C0.382725 32.4603 0 32.8429 0 33.3145C0 33.786 0.382725 34.1687 0.854265 34.1687H2.56272C2.73185 34.1687 2.89587 34.1191 3.03594 34.0252L7.9461 30.7517H9.3966H10.0783C10.1039 30.7176 10.1176 30.6783 10.1467 30.6475Z" fill="#C4C4C4"/>
<path d="M37.7335 6.83301C36.8604 6.83301 36.0386 7.17297 35.4202 7.79146L32.3125 10.8992L11.7475 31.4641C11.0727 31.0147 10.2663 30.7516 9.39665 30.7516C7.0424 30.7516 5.12549 32.6685 5.12549 35.0229C5.12549 37.3772 7.0424 39.294 9.39665 39.294C11.7509 39.294 13.6678 37.3771 13.6678 35.0229C13.6678 34.1532 13.4047 33.3469 12.9554 32.672L14.8757 30.7516H16.2305C18.0381 30.7516 22.991 29.7454 26.8572 27.4645L29.1295 30.304C28.0412 31.2454 27.3356 32.619 27.3356 34.1686C27.3356 36.9944 29.6352 39.294 32.461 39.294C35.2868 39.294 37.5864 36.9944 37.5864 34.1686C37.5864 31.3428 35.2868 29.0432 32.461 29.0432C31.7981 29.0432 31.1711 29.1799 30.5885 29.4088C30.5783 29.3951 30.5766 29.378 30.5646 29.3626L26.6043 24.4132C26.3156 24.0441 26.3753 23.5128 26.741 23.2189C27.1117 22.9233 27.6465 22.9848 27.942 23.3522L29.5976 25.4212C29.6129 25.4058 29.6318 25.3921 29.6471 25.3767C31.5948 23.4291 33.0487 21.6061 33.8534 20.1043C35.1638 17.6595 34.6103 16.3201 33.9184 15.6264C33.1906 14.8986 32.7993 14.017 32.5738 13.0534L36.6264 9.0009C36.9168 8.71044 37.32 8.54306 37.73 8.54306C38.5911 8.54306 39.2916 9.24356 39.2916 10.2515C39.2916 10.723 39.6743 11.0323 40.1458 11.0323C40.6174 11.0323 41.0001 10.5761 41.0001 10.1046C41.0035 8.29888 39.5376 6.83301 37.7335 6.83301Z" fill="#C4C4C4"/>
</g>
<defs>
<clipPath id="clip0">
<rect width="41" height="41" fill="white"/>
</clipPath>
</defs>
</svg>
