<svg width="45" height="35" viewBox="0 0 45 35" fill="none" xmlns="http://www.w3.org/2000/svg">
<g clip-path="url(#clip0)">
<path d="M13.9061 27.8437C21.5862 27.8437 27.8122 21.6107 27.8122 13.9219C27.8122 6.23303 21.5862 0 13.9061 0C6.22596 0 0 6.23303 0 13.9219C0 21.6107 6.22596 27.8437 13.9061 27.8437Z" fill="#EB001B"/>
<path d="M31.0936 27.8437C38.7737 27.8437 44.9997 21.6107 44.9997 13.9219C44.9997 6.23303 38.7737 0 31.0936 0C23.4135 0 17.1875 6.23303 17.1875 13.9219C17.1875 21.6107 23.4135 27.8437 31.0936 27.8437Z" fill="#0099DF"/>
<path d="M17.1875 13.9229C17.1875 16.4164 17.8422 18.7602 18.9941 20.7882C19.8892 22.3674 21.0825 23.7472 22.4997 24.8692C24.066 23.6308 25.3671 22.0599 26.2869 20.2646C27.2648 18.3613 27.8118 16.2086 27.8118 13.9229C27.8118 11.6788 27.2814 9.55101 26.3367 7.6726C25.4168 5.83574 24.0991 4.23992 22.4997 2.97656C20.9416 4.20667 19.6488 5.76094 18.7372 7.53961C17.751 9.45127 17.1875 11.6206 17.1875 13.9229Z" fill="#6C6BBD"/>
<path fill-rule="evenodd" clip-rule="evenodd" d="M27.3748 32.6671V32.6669V32.6668C27.3726 32.4767 27.3706 32.3045 27.3805 32.1306C27.3913 31.9418 27.3195 31.8851 27.1508 31.9002C27.0767 31.9078 27.0011 31.9053 26.9249 31.9027C26.8866 31.9015 26.8482 31.9002 26.8098 31.9002C26.7057 31.9002 26.6554 31.8511 26.659 31.7416C26.6626 31.583 26.6626 31.4282 26.659 31.2695C26.659 31.1563 26.7128 31.1109 26.8133 31.1109C26.8577 31.1109 26.9018 31.1101 26.9456 31.1093C27.033 31.1076 27.1198 31.1059 27.2082 31.1109C27.3302 31.1147 27.3805 31.0618 27.3769 30.9334C27.3751 30.807 27.376 30.6815 27.3769 30.5561V30.5558V30.5555C27.3778 30.4301 27.3787 30.3046 27.3769 30.1782C27.3733 30.0498 27.42 29.9931 27.5456 30.0007C27.7071 30.0082 27.8687 30.0044 28.0302 30.0007C28.1451 29.9969 28.1917 30.046 28.1881 30.1668C28.1867 30.265 28.1876 30.3632 28.1884 30.4614C28.1897 30.6087 28.191 30.756 28.1846 30.9032C28.1774 31.0581 28.2276 31.1185 28.3784 31.1147C28.522 31.1109 28.6656 31.1119 28.8091 31.1128C28.9527 31.1138 29.0963 31.1147 29.2399 31.1109C29.3906 31.1072 29.4588 31.1638 29.4481 31.33C29.4373 31.4546 29.4409 31.583 29.4481 31.7076C29.4588 31.8549 29.4014 31.9115 29.2614 31.9078C29.058 31.9052 28.8546 31.9061 28.6512 31.9069C28.5495 31.9073 28.4478 31.9078 28.3461 31.9078C28.2599 31.9078 28.1881 31.9191 28.1881 32.0362C28.1919 32.2333 28.1887 32.4304 28.1855 32.6273C28.1795 32.9964 28.1735 33.3649 28.2133 33.7318C28.2456 34.0301 28.3927 34.1585 28.6835 34.1585C28.8737 34.1585 29.0532 34.117 29.2183 34.0226C29.344 33.9546 29.4014 33.9924 29.4373 34.1245C29.4732 34.2567 29.5163 34.3889 29.5629 34.5173C29.6024 34.623 29.5845 34.6948 29.484 34.7476C29.0173 34.9856 28.5363 35.0498 28.041 34.8685C27.6497 34.7212 27.4774 34.3889 27.4092 33.981C27.3745 33.7452 27.3771 33.5093 27.3794 33.2886C27.3808 33.1665 27.382 33.049 27.3769 32.9387C27.3769 32.8433 27.3759 32.7533 27.3748 32.6671ZM20.6203 33.3355H20.6202C20.3418 33.3362 20.0624 33.337 19.785 33.3313C19.6307 33.3275 19.6163 33.3879 19.6594 33.5239C19.8209 34.011 20.3055 34.2754 20.8547 34.1772C21.106 34.1319 21.3429 34.0413 21.5511 33.8902C21.648 33.8184 21.709 33.8298 21.7664 33.9355C21.7966 33.9917 21.8314 34.0464 21.8657 34.1004L21.8657 34.1005L21.866 34.1008L21.8661 34.1011C21.8847 34.1303 21.9032 34.1594 21.9208 34.1885C22.0787 34.4453 22.0823 34.4529 21.8418 34.6039C21.1383 35.0345 20.406 35.1138 19.6701 34.721C18.9271 34.3245 18.7153 33.4635 18.7799 32.7837C18.8481 32.07 19.1425 31.4959 19.7922 31.1863C20.9193 30.6462 22.1505 31.4242 22.2295 32.7195C22.2316 32.7617 22.2353 32.8039 22.2389 32.8461C22.2477 32.9474 22.2565 33.0487 22.2439 33.15C22.2295 33.286 22.1721 33.3313 22.05 33.3313C21.8557 33.3313 21.6632 33.3322 21.4712 33.3332C21.2801 33.3341 21.0894 33.3351 20.8978 33.3351C20.8055 33.3351 20.713 33.3353 20.6204 33.3355H20.6204H20.6203ZM20.4957 32.6478H21.2136C21.3895 32.6478 21.4111 32.61 21.3572 32.4287C21.228 31.9907 20.9337 31.7792 20.4742 31.7943C20.0686 31.8056 19.7563 32.0737 19.6558 32.4854C19.6235 32.6138 19.6594 32.6553 19.7814 32.6515C19.9479 32.6434 20.1181 32.645 20.2893 32.6465L20.2893 32.6465C20.358 32.6471 20.4269 32.6478 20.4957 32.6478ZM8.00359 31.1449C8.17162 31.0924 8.34157 31.1006 8.51203 31.1087C8.57463 31.1117 8.63729 31.1147 8.69996 31.1147C8.77175 31.1147 8.80765 31.16 8.80765 31.2356V31.4735C8.83637 31.4961 8.85072 31.4848 8.86149 31.4697C9.31737 30.8541 10.4194 30.8617 10.9111 31.5452C10.9865 31.651 11.0224 31.6321 11.0906 31.5414C11.5788 30.8881 12.5587 30.907 13.0684 31.2695C13.4525 31.5414 13.632 31.938 13.6428 32.41C13.6543 32.9004 13.6525 33.3891 13.6507 33.8784C13.6497 34.1502 13.6487 34.4223 13.65 34.6948C13.65 34.8345 13.5997 34.8874 13.4705 34.8836C13.3197 34.8798 13.1725 34.8798 13.0218 34.8836C12.8818 34.8874 12.8351 34.8307 12.8351 34.6834C12.8369 34.3757 12.8369 34.0669 12.8369 33.7582V33.758C12.8369 33.4493 12.8369 33.1407 12.8387 32.833C12.8387 32.7046 12.8279 32.5837 12.8028 32.4591C12.731 32.089 12.53 31.87 12.2213 31.836C11.7834 31.7869 11.4567 31.9606 11.3167 32.3156C11.2557 32.4704 11.2378 32.6291 11.2378 32.7952V34.6268C11.2378 34.8685 11.2234 34.8798 10.9901 34.8836C10.9482 34.8836 10.9063 34.8828 10.8645 34.8819C10.7807 34.8802 10.697 34.8786 10.6132 34.8836C10.4553 34.8949 10.405 34.8194 10.405 34.6608C10.4086 34.1019 10.4086 33.5392 10.405 32.9803C10.405 32.867 10.405 32.7537 10.4014 32.6404C10.3799 32.1155 10.125 31.8322 9.66914 31.8322C9.17019 31.8285 8.84354 32.1381 8.83278 32.6593C8.82201 33.1408 8.82335 33.6223 8.8247 34.1038C8.82515 34.2643 8.8256 34.4248 8.8256 34.5853C8.8256 34.8836 8.8256 34.8911 8.53125 34.8836C8.48229 34.8825 8.43276 34.885 8.38307 34.8875C8.25427 34.8939 8.12433 34.9003 8 34.8458C8.00359 33.6109 8.00359 32.3798 8.00359 31.1449ZM34.8863 34.9968C34.5094 34.9326 34.1504 34.8193 33.8525 34.5549C33.2315 33.9998 33.0341 33.2898 33.2279 32.4666C33.4002 31.7302 34.014 31.1675 34.7319 31.058C35.7334 30.9069 36.5877 31.4054 36.9036 32.3306C36.9299 32.4086 36.9499 32.49 36.9698 32.5714L36.9698 32.5715C36.9798 32.6122 36.9898 32.6529 37.0005 32.6932V33.3351C36.8713 33.9469 36.5806 34.4379 36.0421 34.7438C35.8016 34.8797 35.5396 34.9439 35.2775 34.9968H34.8863ZM36.1749 33.0104C36.1749 32.3193 35.7262 31.8321 35.0873 31.8321C34.4555 31.8321 34.0033 32.3155 33.9997 32.9915C33.9961 33.6826 34.4484 34.1811 35.0801 34.1848C35.7119 34.1962 36.1749 33.6977 36.1749 33.0104ZM17.5882 31.107C17.2041 31.107 17.2041 31.107 17.1682 31.5035C16.5688 30.9333 15.7862 30.8653 15.1257 31.3109C14.2786 31.8849 14.0381 33.1803 14.5909 34.1093C15.1545 35.0572 16.4898 35.2611 17.1503 34.502C17.153 34.4992 17.1617 34.5027 17.1705 34.5063L17.179 34.5096C17.188 34.6979 17.1925 34.7914 17.2415 34.8377C17.2898 34.8834 17.3814 34.8834 17.5631 34.8834H17.7605C17.9794 34.8797 17.9902 34.8721 17.9902 34.6342V31.5186C17.9898 31.4727 17.9901 31.432 17.9903 31.3957C17.9912 31.2601 17.9917 31.188 17.956 31.1498C17.9155 31.1064 17.8285 31.1066 17.6428 31.1069L17.5882 31.107ZM17.2149 33.0103C17.2113 33.6901 16.7805 34.1584 16.1631 34.1584C15.5493 34.1584 15.115 33.6674 15.115 32.9801C15.1222 32.3004 15.5529 31.8321 16.1703 31.8321C16.7913 31.8321 17.2185 32.3192 17.2149 33.0103ZM25.7688 31.3075C25.3704 31.1074 24.9504 31.0318 24.5304 31.0205C24.1356 31.0243 23.7658 31.0847 23.45 31.3188C22.8074 31.7947 22.872 32.7614 23.5684 33.1353C23.7766 33.2486 24.0063 33.2977 24.2361 33.3392C24.306 33.3515 24.3765 33.361 24.447 33.3705C24.637 33.3961 24.8272 33.4217 25.0078 33.5016C25.1083 33.5469 25.1909 33.6187 25.1981 33.7509C25.2052 33.883 25.155 33.9812 25.0509 34.053C24.9863 34.0983 24.9181 34.1323 24.8391 34.1474C24.4299 34.2305 24.0351 34.1965 23.6402 34.0454C23.5895 34.0259 23.5413 33.988 23.4939 33.9507C23.4039 33.8798 23.3167 33.8111 23.2202 33.8755C23.1404 33.9283 23.0924 34.0284 23.0441 34.1293C23.0164 34.1871 22.9886 34.2451 22.9546 34.2947C22.8684 34.4269 22.8936 34.5024 23.0192 34.5779C23.5576 34.9065 24.1356 35.0122 24.7458 34.9404C25.137 34.8951 25.5032 34.7705 25.7832 34.4495C26.2175 33.951 26.099 33.1617 25.5355 32.837C25.3129 32.7086 25.0688 32.6482 24.8212 32.6028C24.7473 32.5899 24.6729 32.58 24.5985 32.5702C24.4124 32.5455 24.2263 32.5208 24.0494 32.448C23.8089 32.3498 23.7802 32.0968 23.9812 31.9306C24.0961 31.8362 24.2361 31.806 24.3832 31.7947C24.7565 31.772 25.1119 31.8438 25.4422 32.0213C25.5893 32.1006 25.6575 32.0666 25.715 31.9193C25.7544 31.8173 25.8047 31.7116 25.8657 31.621C25.9734 31.4624 25.916 31.383 25.7688 31.3075ZM32.6356 31.0617C32.1654 30.9598 31.7454 31.0391 31.3901 31.4734C31.386 31.4447 31.3819 31.4225 31.3786 31.4046C31.3732 31.3754 31.3699 31.3576 31.3721 31.3412C31.3901 31.1524 31.3039 31.0957 31.1388 31.1071C31.0072 31.1145 30.879 31.1109 30.7475 31.1072L30.7439 31.1071C30.6147 31.1033 30.5609 31.1562 30.5645 31.2959C30.5698 31.5563 30.5692 31.8146 30.5685 32.074C30.5683 32.1606 30.568 32.2474 30.568 32.3344C30.568 32.5261 30.5683 32.7178 30.5685 32.9095C30.5692 33.4844 30.5698 34.0593 30.5645 34.6343C30.5609 34.8193 30.6075 34.9062 30.7942 34.8873C30.8761 34.8792 30.9562 34.8807 31.0371 34.8823C31.0696 34.8829 31.1023 34.8835 31.1352 34.8835C31.3685 34.8797 31.3757 34.8759 31.3757 34.6267C31.3757 34.437 31.3751 34.2469 31.3745 34.0567C31.3731 33.5807 31.3716 33.1039 31.3793 32.629C31.3865 32.104 31.67 31.8321 32.1582 31.8284C32.2116 31.8284 32.2675 31.8473 32.3227 31.866C32.4273 31.9015 32.5294 31.9361 32.6069 31.8397C32.6751 31.7546 32.7042 31.634 32.733 31.5147C32.7451 31.4646 32.7572 31.4146 32.772 31.3676C32.7756 31.3525 32.7792 31.3412 32.7828 31.3299C32.8618 31.1599 32.79 31.0957 32.6356 31.0617Z" fill="black"/>
</g>
<defs>
<clipPath id="clip0">
<rect width="45" height="35" fill="white"/>
</clipPath>
</defs>
</svg>
