<svg width="9" height="7" viewBox="0 0 9 7" fill="none" xmlns="http://www.w3.org/2000/svg">
<path fill-rule="evenodd" clip-rule="evenodd" d="M6.90873 1.35449H2.49745L4.68982 3.21802L6.90873 1.35449ZM1.71484 2.00171V4.25439L2.79677 3.03882L3.54375 3.70367L2.26745 5.13762H7.15584L5.87005 3.69524L6.61651 3.02982L7.71484 4.26191V1.98337L5.33294 3.98379C4.95936 4.29754 4.41389 4.29592 4.04217 3.97996L1.71484 2.00171ZM0.714844 1.35449C0.714844 0.802208 1.16256 0.354492 1.71484 0.354492H7.71484C8.26713 0.354492 8.71484 0.802207 8.71484 1.35449V5.13762C8.71484 5.68991 8.26713 6.13762 7.71484 6.13762H1.71484C1.16256 6.13762 0.714844 5.68991 0.714844 5.13762V1.35449Z" fill="white"/>
</svg>
