<svg width="91" height="91" viewBox="0 0 91 91" fill="none" xmlns="http://www.w3.org/2000/svg">
<g clip-path="url(#clip0)">
<g clip-path="url(#clip1)" filter="url(#filter0_d)">
<rect width="135.415" height="22.7543" transform="translate(19.0898 -22.0898) rotate(45)" fill="#FF2A00"/>
<path d="M37.9915 18.6484L44.4855 12.1543L45.3072 12.9759L42.5848 15.6983L45.6042 18.7177L48.3265 15.9953L49.1581 16.8269L42.664 23.3209L41.8325 22.4894L44.8914 19.4304L41.8721 16.4111L38.8131 19.47L37.9915 18.6484ZM46.1223 27.0168C45.8254 26.7199 45.5977 26.38 45.4393 25.9972C45.2875 25.621 45.2149 25.225 45.2215 24.8092C45.2347 24.3869 45.3337 23.9579 45.5185 23.5223C45.7165 23.0867 46.0135 22.671 46.4094 22.275C46.812 21.8724 47.2278 21.5754 47.6568 21.384C48.0989 21.1926 48.5312 21.0903 48.9536 21.0771C49.376 21.0639 49.7753 21.1332 50.1514 21.285C50.5342 21.4434 50.8741 21.6711 51.1711 21.9681C51.4681 22.2651 51.6925 22.6017 51.8443 22.9778C52.0026 23.3606 52.0752 23.7632 52.062 24.1856C52.0488 24.608 51.9433 25.0369 51.7453 25.4725C51.5605 25.9081 51.2668 26.3272 50.8642 26.7298C50.4682 27.1257 50.0491 27.4194 49.607 27.6108C49.178 27.8022 48.7523 27.9045 48.3299 27.9177C47.9142 27.9243 47.5149 27.8484 47.1321 27.69C46.7559 27.5382 46.4193 27.3138 46.1223 27.0168ZM46.7955 26.3437C47.0001 26.5483 47.2311 26.6935 47.4885 26.7792C47.7525 26.8584 48.0231 26.8782 48.3002 26.8386C48.5906 26.799 48.881 26.7001 49.1714 26.5417C49.4618 26.3833 49.7456 26.1655 50.0227 25.8883C50.2999 25.6111 50.5177 25.3273 50.6761 25.0369C50.8411 24.74 50.9434 24.4463 50.983 24.1559C51.0292 23.8721 51.0094 23.6015 50.9236 23.3441C50.8444 23.0801 50.7025 22.8458 50.4979 22.6413C50.2933 22.4367 50.059 22.2948 49.7951 22.2156C49.5377 22.1298 49.2638 22.1067 48.9734 22.1463C48.6896 22.1925 48.3992 22.2981 48.1022 22.4631C47.8119 22.6215 47.5281 22.8392 47.2509 23.1164C46.9737 23.3936 46.7559 23.6774 46.5975 23.9678C46.4391 24.2582 46.3368 24.5453 46.2906 24.829C46.2576 25.1128 46.2807 25.3867 46.3599 25.6507C46.4457 25.9081 46.5909 26.1391 46.7955 26.3437ZM49.7356 30.3925L54.5467 25.5813L56.3979 27.4325C56.6619 27.6965 56.8797 27.9605 57.0513 28.2245C57.2229 28.4885 57.3351 28.7459 57.3879 28.9967C57.4539 29.2474 57.4506 29.4949 57.378 29.7391C57.312 29.9767 57.1701 30.2044 56.9523 30.4222C56.6817 30.6928 56.388 30.8413 56.0713 30.8677C55.7611 30.9007 55.4443 30.8281 55.1209 30.6499L55.0912 30.6796C55.1968 30.8512 55.2793 31.0261 55.3387 31.2042C55.4047 31.389 55.4377 31.5738 55.4377 31.7586C55.4377 31.9434 55.3981 32.1282 55.3189 32.313C55.2397 32.4978 55.1143 32.676 54.9427 32.8476C54.7051 33.0851 54.451 33.2402 54.1805 33.3128C53.9165 33.392 53.6393 33.4052 53.3489 33.3524C53.0717 33.2996 52.7912 33.1841 52.5074 33.006C52.2237 32.8278 51.9432 32.6001 51.666 32.3229L49.7356 30.3925ZM53.3291 28.4027L54.2399 29.3134C54.6424 29.716 54.9922 29.9404 55.2892 29.9866C55.5928 30.0262 55.8568 29.9338 56.0812 29.7094C56.3056 29.485 56.3979 29.2276 56.3583 28.9373C56.3188 28.6469 56.1109 28.3136 55.7347 27.9374L54.7645 26.9673L53.3291 28.4027ZM51.1215 30.6103L52.161 31.6497C52.5569 32.0457 52.9232 32.2668 53.2598 32.313C53.603 32.3658 53.9099 32.2569 54.1805 31.9863C54.4246 31.7421 54.5137 31.4484 54.4477 31.1052C54.3817 30.7621 54.1442 30.3859 53.735 29.9767L52.745 28.9868L51.1215 30.6103ZM54.7627 35.4196L59.5738 30.6084L60.3658 31.4004L58.3661 33.4001C58.1087 33.6575 57.815 33.9313 57.485 34.2217C57.1683 34.5121 56.8449 34.8025 56.5149 35.0929L56.5545 35.1325C56.7987 35.0731 57.0759 35.0071 57.386 34.9345C57.7028 34.8685 57.98 34.8025 58.2176 34.7365L62.7813 33.8159L63.5435 34.5781L58.7324 39.3893L57.9404 38.5973L59.9401 36.5976C60.1975 36.3402 60.4846 36.0663 60.8014 35.776C61.1313 35.4856 61.4646 35.1919 61.8012 34.8949L61.7616 34.8553C61.5174 34.9147 61.2336 34.9807 60.9103 35.0533C60.6001 35.1259 60.3295 35.1919 60.0985 35.2513L55.515 36.1719L54.7627 35.4196ZM60.3601 41.017L65.1713 36.2059L65.9831 37.0176L64.0329 38.9678L66.3493 41.2843L68.2995 39.3341L69.1113 40.1459L64.3001 44.957L63.4884 44.1453L65.6267 42.007L63.3102 39.6905L61.1719 41.8288L60.3601 41.017ZM65.9189 46.5758L70.7301 41.7647L71.5419 42.5764L69.562 44.5563L70.4925 45.4869L72.0368 44.8929C72.3404 44.7741 72.6044 44.6949 72.8288 44.6553C73.0532 44.6157 73.2545 44.6124 73.4327 44.6454C73.6174 44.6718 73.7791 44.7279 73.9177 44.8137C74.0629 44.8929 74.2015 44.9985 74.3335 45.1305C74.4391 45.2361 74.515 45.345 74.5612 45.4572L73.6603 46.0809C73.6405 46.0347 73.6207 46.0017 73.6009 45.9819C73.5811 45.9621 73.5548 45.9357 73.5218 45.9027C73.4558 45.8367 73.3832 45.7839 73.304 45.7443C73.238 45.7047 73.1522 45.6783 73.0466 45.6651C72.9476 45.6585 72.8255 45.6684 72.6803 45.6948C72.5351 45.7212 72.3635 45.774 72.1655 45.8532L70.8093 46.3976L69.9084 50.5653L69.0175 49.6744L69.849 46.17L68.8987 45.2196L66.7307 47.3876L65.9189 46.5758ZM71.7426 52.6371C71.34 52.2345 71.1223 51.7792 71.0893 51.271C71.0629 50.7694 71.2675 50.3008 71.703 49.8653C72.231 49.3373 72.8679 49.169 73.6136 49.3604C74.366 49.5452 75.313 50.0962 76.4548 51.0136C76.6066 50.8618 76.7386 50.6968 76.8508 50.5186C76.9696 50.347 77.0488 50.1688 77.0884 49.984C77.128 49.7993 77.1148 49.6079 77.0488 49.4099C76.996 49.2119 76.8706 49.0139 76.6726 48.8159C76.3954 48.5387 76.0819 48.3308 75.7321 48.1922C75.3823 48.0536 75.0458 47.9547 74.7224 47.8953L74.9699 47.0142C75.3394 47.0934 75.7519 47.2287 76.2073 47.4201C76.6693 47.6049 77.095 47.892 77.4843 48.2813C78.0717 48.8687 78.3159 49.4759 78.2169 50.1028C78.1245 50.7232 77.778 51.3337 77.1775 51.9343L74.2274 54.8843L73.5542 54.2111L74.0591 53.5677L74.0294 53.538C73.607 53.4984 73.1946 53.4159 72.792 53.2905C72.396 53.1585 72.0462 52.9407 71.7426 52.6371ZM72.6336 52.2213C72.8646 52.4523 73.1352 52.6173 73.4453 52.7163C73.7621 52.8087 74.1416 52.8648 74.5838 52.8846L75.9202 51.5482C75.4648 51.1984 75.0623 50.9212 74.7125 50.7166C74.3693 50.5186 74.0624 50.3833 73.7918 50.3107C73.5278 50.2447 73.2902 50.2381 73.0791 50.2909C72.8811 50.3437 72.7062 50.446 72.5544 50.5978C72.2772 50.875 72.1617 51.1555 72.2079 51.4393C72.2541 51.7231 72.396 51.9837 72.6336 52.2213Z" fill="white"/>
</g>
</g>
<defs>
<filter id="filter0_d" x="-3" y="-26.0898" width="123.843" height="123.843" filterUnits="userSpaceOnUse" color-interpolation-filters="sRGB">
<feFlood flood-opacity="0" result="BackgroundImageFix"/>
<feColorMatrix in="SourceAlpha" type="matrix" values="0 0 0 0 0 0 0 0 0 0 0 0 0 0 0 0 0 0 127 0"/>
<feOffset dy="2"/>
<feGaussianBlur stdDeviation="3"/>
<feColorMatrix type="matrix" values="0 0 0 0 0 0 0 0 0 0 0 0 0 0 0 0 0 0 0.25 0"/>
<feBlend mode="normal" in2="BackgroundImageFix" result="effect1_dropShadow"/>
<feBlend mode="normal" in="SourceGraphic" in2="effect1_dropShadow" result="shape"/>
</filter>
<clipPath id="clip0">
<rect width="91" height="91" fill="white"/>
</clipPath>
<clipPath id="clip1">
<rect width="135.415" height="22.7543" fill="white" transform="translate(19.0898 -22.0898) rotate(45)"/>
</clipPath>
</defs>
</svg>
