<svg viewBox="0 0 1920 1080" xmlns="http://www.w3.org/2000/svg" xmlns:xlink="http://www.w3.org/1999/xlink"><pattern id="a" height="1080" patternTransform="matrix(1.05 0 0 1 2302.09 -148)" patternUnits="userSpaceOnUse" viewBox="0 0 1080 1080" width="1080"><path d="m0 0h1080v1080h-1080z" fill="none"/><path d="m0 0h1080v1080h-1080z" fill="#fff"/><path d="m242.47 287.11c-23.9 55.47 21.22 118.92 76 135.45 78.83 23.78 146.4-32.29 167.18-92.5 7.18-20.79 13.31-79.88 6.61-90.32l-1 9.94c-8.88 82.58-57.26 113.94-89.16 119.81-63.94 11.78-120.12-32.2-114.75-82.82 2.65-24.88 26.11-32.51 32.92-16.39 2.24-7.08-.58-14-9.44-18.53-24.26-9.75-58.52 6.86-68.36 35.36z" fill="#f4f4f4"/><path d="m493.7 206.91c-1.85.79-3.93-1.57-4.08-3.52-.16-2.2 3.55-5.54 7.95-3.92 13.18 3.5 32.91 21.22 16.36 60 42.08-49.77-3.56-123.89-47.18-87.17-27.9 27.37 12.91 69.15 26.95 34.61z" fill="#f4f4f4"/><path d="m292.35 436.66c85.94 55.29 176.67 7.86 190.42-78-45.51 119.9-169.55 87.78-190.42 78z" fill="#f4f4f4"/><path d="m399.24 298.47c-6-2.89-6.32-10-3.91-12 2.13-1.79 6.63-2 7.66.67 21.33-48.71-62-49-62.21 6.81 5.89 81.19 127.1 54.24 136.09-38.36-23.18 55.49-60.93 52.9-77.63 42.88z" fill="#f4f4f4"/><path d="m0 372.44v15.25a285.16 285.16 0 0 0 27-23.9 201.31 201.31 0 0 1 -27 8.65z" fill="#f4f4f4"/><path d="m84.47 333.93-9.47 1.95c-30.12 5.89-55 4.3-75-1.45v19.29c21.79.39 76.85-10.72 84.47-19.79z" fill="#f4f4f4"/><path d="m6.92 183.9c7.17 0 12.76-4.55 14.39-14 1.22-15.33-7.63-31.28-21.31-41.63v31.17c11.79 4.62 16.11 16.7 6.92 24.46z" fill="#f4f4f4"/><path d="m39.48 47.41c3.08 18.65-12.48 28.93-20.64 18.59-.21 5.6 3.24 10.08 10.59 11.58 19.57 2.17 41.16-16.8 42.57-39.53a61.91 61.91 0 0 0 -7-38.05h-65v5.25c20.53 6.68 36.15 21.98 39.48 42.16z" fill="#f4f4f4"/><path d="m202.93 0h-118.58c29.71 32 85.55 27.44 118.58 0z" fill="#f4f4f4"/><path d="m145.41 50.68c-3.62 11.42-18.82 20.32-36.52 20.58-26.37.4-37.27 2.42-59.67 24.2a107.54 107.54 0 0 1 33.63-7.11c20.32.06 68.74 4.04 62.56-37.67z" fill="#f4f4f4"/><path d="m128.26 164c-.09-39.26-35-62.33-65.36-63.47-10.48-.4-38.27 5-42.11 9.48l4.67-.93c38.9-7.35 59.91 10.4 67 24.12 14.24 27.55 2 59.27-21.86 63.82-11.72 2.24-18.45-7.41-12-12.75-3.54 0-6.31 2.2-7.14 6.87-1.07 12.41 11.24 25.75 25.6 26.3 28.58 3.21 51.26-26.15 51.2-53.44z" fill="#f4f4f4"/><path d="m134.27 252.3c-25.24-8.81-59.68 2.81-65.86 30.36-4.1 13.49 4.29 29.18 16.12 32.16 4.59.73 7.55-1.12 8.65-4.42-7 4.23-13.77-5.1-7.94-15.24 11.85-20.63 45.13-21.84 66.05.19 10.42 11 20.11 36.14.84 69.84l-2.35 4c5.39-2.11 19.27-26.15 22.26-36 8.67-28.45-1.48-68.19-37.77-80.89z" fill="#f4f4f4"/><path d="m107.4 307.1c-15.22 21.16 16.33 44 21.63 19.66-1.12.73-2.76-.58-3.07-1.85-.36-1.43 1.7-4 4.77-3.48 9.05.8 24 10.19 17.55 37.57 22-37.5-16.39-81-40.88-51.9z" fill="#f4f4f4"/><path d="m172.75 162.21c-7.06-63.7 24.11-95.44 47.1-105.21 46.15-19.61 95.73 4.08 100.15 43.11 2.17 19.18-14.2 28.87-22 17.87-.5 5.71 2.78 10.46 10.2 12.37 19.87 3.26 42.87-15 45.51-38.1 8.7-45.8-35.84-86-79.83-89.27-63.27-4.67-104.73 48.91-110.3 97.75-1.92 16.86 3.34 62.39 10.12 69.14z" fill="#f4f4f4"/><path d="m233 119.2c-7.91 40.27 54.82 26.48 45.65-15.57-18-60.17-104.66-19.51-96 51.74 8.16-45.72 37-50.11 51.22-45.36 5 1.16 6.43 6.48 4.95 8.41-1.3 1.7-4.65 2.58-5.82.78z" fill="#f4f4f4"/><path d="m51 421.68c53.38-7.41 98.23 31.12 91.87 72.87-3.14 20.53-22.85 26-27.88 12.37-2.13 5.79 0 11.64 7.11 15.71 19.72 9 48.72-3.53 57.94-26.79 21.9-45.09-13.06-99.35-57.81-115.07-49.23-17.28-94.81 4.37-122.23 37.48v33.56c16.21-19.4 35.92-28.04 51-30.13z" fill="#f4f4f4"/><path d="m50.63 480.65c4.9 2.61 4.86 8.53 2.78 10.12-1.83 1.4-5.57 1.42-6.32-.84-19.5 39.59 49.49 42.88 51.77-3.35-1.44-54.37-67.49-53.34-98.86-11v14.46c18.94-20.04 40.16-16.34 50.63-9.39z" fill="#f4f4f4"/><path d="m76.37 97.88c61 4.18 63.52 65.21 61.95 76.09 13.3-46.86-20.91-81.69-61.95-76.09z" fill="#f4f4f4"/><path d="m140.28 108.57a8.27 8.27 0 0 0 4.72-10.81 8.54 8.54 0 0 0 -11.16-4.26 8.27 8.27 0 0 0 -4.7 10.82 8.53 8.53 0 0 0 11.14 4.25z" fill="#f4f4f4"/><path d="m66.5 171.63c36.21-13.92 7.11-65.49-36.36-56.78 28.54 2.89 32.59 20.48 30.34 29.48-.48 3.15-3.69 4.27-4.95 3.45s-1.84-2.75-.76-3.59c-25.17-2.99-13.77 35.07 11.73 27.44z" fill="#f4f4f4"/><path d="m325.42 241.34a157.66 157.66 0 0 1 23.93-44.27c19.31-22.62 69.61-72.89 17.29-105.5 9.28 14.86 4.81 40.25-11.66 60.26-24.53 29.8-32.61 43.89-29.56 89.51z" fill="#f4f4f4"/><path d="m308.63 170.11a7.44 7.44 0 0 0 -5.93-8.79 7.67 7.67 0 0 0 -8.61 6.42 7.43 7.43 0 0 0 5.92 8.79 7.69 7.69 0 0 0 8.62-6.42z" fill="#f4f4f4"/><path d="m352.74 213.8c13.38-26.16 31.64-23.48 39.38-18 2.83 1.63 2.69 5.11 1.45 6s-3.3.73-3.7-.61c-12.23 22.9 28.29 26.16 30.51-1 .21-39.7-59.75-31.13-67.64 13.61z" fill="#f4f4f4"/><path d="m202.23 323.85c13.5 21.31 3.55 33.63-3.89 36.95-2.44 1.38-5-.24-5.07-1.56-.1-1.16.9-2.75 2.07-2.46-11.6-19-31.68 9.49-12.59 23 29.25 17.47 49.11-30.58 19.48-55.93z" fill="#f4f4f4"/><path d="m419.31 492.06c4.9-33-45.48-19.43-36.46 14.34 16.87 48.14 85.67 11.93 75.91-45.55-4.89 37.39-28.12 42-39.85 38.7-4.12-.75-5.46-5-4.34-6.63 1-1.43 3.68-2.31 4.74-.86z" fill="#f4f4f4"/><path d="m177.65 257c3.78 10.07 19.89 34.25 25.66 36.1l-2.73-4.05c-22.37-33.91-13.93-60.82-3.78-73 20.38-24.38 55.22-25.31 69-4.56 6.76 10.2.31 20.39-7.28 16.44 1.37 3.37 4.59 5.1 9.33 4 12.15-3.9 19.87-20.83 14.69-34.64-8.29-28.36-45-38.21-70.8-27.35-37.09 15.7-45.03 57.9-34.09 87.06z" fill="#f4f4f4"/><path d="m221.25 240.28c3.17-.8 5.49 1.8 5.22 3.32-.25 1.34-1.87 2.82-3.09 2.14 7.16 25 38.58-.88 21.28-22-27.52-28.74-64.66 19.26-39.24 56.92-8.58-28.16 6.43-38.95 15.83-40.38z" fill="#f4f4f4"/><path d="m321.14 719.92c10.73.75 39.42-3.83 43.5-8.31l-4.82.79c-40.14 6.24-61.11-12.62-67.93-26.91-13.69-28.67-.06-60.74 24.53-64.62 12.09-1.9 18.68 8.2 11.93 13.46 3.63.16 6.55-2.05 7.55-6.81 1.51-12.67-10.67-26.73-25.39-27.76-29.24-4.25-53.48 25.07-54.32 53-1.19 40.24 33.87 64.99 64.95 67.16z" fill="#f4f4f4"/><path d="m318.78 645.17c-37.6 13.06-9.46 66.82 35.42 59.33-29.18-3.9-32.75-22-30.14-31.18.59-3.22 3.92-4.25 5.19-3.37 1.11.78 1.79 2.88.65 3.7 25.72 3.89 15.26-35.45-11.12-28.48z" fill="#f4f4f4"/><path d="m366.62 16.37c-10 16.75-3.95 40.63 10.95 48.57 5.92 2.5 10.53 1 13.1-3.06-10.82 3.36-16.8-11.43-5.59-23.12 22.81-23.76 67.92-14.32 88.72 22.24 10.35 18.21 15 55.24-22.15 94.12l-4.52 4.63c8-1 34.64-28.73 41.94-40.95 20.55-34.4 20.77-89-20.15-118.79h-89.45a51.91 51.91 0 0 0 -12.85 16.36z" fill="#f4f4f4"/><path d="m432.19 93.31c-1.75.61-3.51-1.71-3.52-3.51 0-2 3.64-4.88 7.58-3.09 11.91 4.08 28.9 21.68 11.07 56.32 42.07-43.08 5-114.29-37.64-83.34-27.52 23.37 7.32 64.49 22.51 33.62z" fill="#f4f4f4"/><path d="m526.9 41.94c.58 12.58-7.32 87.77-67.8 117.74 39.97-9.96 76.78-66.24 67.8-117.74z" fill="#f4f4f4"/><path d="m202.5 474.1c-5.28 9.48-.24 24.48 11 30 21.63 12.79 50.18-2.44 59.87-24.16 13.94-31.23-5.65-62.05-29.4-73.81-8.2-4.05-32.26-9.71-36.92-7.51l4 .93c33.6 8.07 44 29.68 44.75 43.12 1.51 27-19.58 47.81-40.17 42.91-10.13-2.41-12.05-12.48-5-14.43-2.8-1.26-5.8-.47-8.13 2.95z" fill="#f4f4f4"/><path d="m222.12 439.75c-19-11.37-23.45 23-.45 26 33.8 1.87 29-49.51-8.69-58.13 21.69 12.5 18.64 27.93 13.63 34.27-1.5 2.34-4.46 2.08-5.17 1s-.44-2.89.68-3.14z" fill="#f4f4f4"/><path d="m0 56.56v11.85a33.18 33.18 0 0 0 0-11.85z" fill="#f4f4f4"/><path d="m135.85 207.3a12.09 12.09 0 0 0 -6.77 15.86c2.65 6.07 10 8.81 16.37 6.12a12.09 12.09 0 0 0 6.76-15.86c-2.65-6.07-9.97-8.81-16.36-6.12z" fill="#f4f4f4"/><path d="m513.58 3.85a17.87 17.87 0 0 0 5.74-3.85h-25.32a17.63 17.63 0 0 0 19.58 3.85z" fill="#f4f4f4"/><path d="m65.45 324.22c-57.88-5.49-66.33-41.08-61.87-59.36.93-6.4 7.42-8.7 10-7.05 2.26 1.45 3.75 5.54 1.58 7.26 48 5.39 30-62.28-15.14-57.35v107.1c17.98 9.93 40.56 14.55 65.43 9.4z" fill="#f4f4f4"/><path d="m640.48 524.63c-1.27-22.24 19.21-47.8 49.77-60 45.53-18.21 63.13-29 87.58-81.67 0 0-22.49 21.44-53.69 34.7-35.33 13.34-122.06 38.63-83.66 106.97z" fill="#f4f4f4"/><path d="m710.53 218.26c-6.38-22.27-36.61-37.25-61.9-28.65-51.83 13.39-71.74 79.49-53.53 126.85 26.2 68.11 102.17 85 155.62 66.79 18.45-6.28 63.16-34.09 66.83-44.45l-7.49 4.71c-62.69 38.61-110.94 21.76-132.37 2.64-43-38.37-42.73-101.6-4.37-125.35 18.86-11.67 36.95.61 29.37 14.14 6.17-2.27 9.49-8.02 7.84-16.68z" fill="#f4f4f4"/><path d="m566.86 222.57-2.64-7.06c-21.4-58.94.92-96.32 20.54-110.93 39.34-29.31 92-18.24 105.18 17.85 6.48 17.74-6.86 30.73-16.83 22.08.84 5.54 5 9.3 12.55 9.41 19.65-1.51 37.32-24.17 34.5-46.76-2.27-45.55-53.9-73.5-96.48-66.42-61.25 10.18-88.33 70.71-82.37 118.43 2.05 16.48 17.55 58.56 25.55 63.4z" fill="#f4f4f4"/><path d="m716 34.06c38.77 26.42 93 3.84 116.78-34.06h-89.28a52.11 52.11 0 0 1 -11.5 0h-38.47c2.04 13.44 9.95 26.82 22.47 34.06z" fill="#f4f4f4"/><path d="m650.5 0h-56.89a96.81 96.81 0 0 1 -19.79 0h-17.88c13 5.45 34.71 11 44.78 11.47a97.21 97.21 0 0 0 49.78-11.47z" fill="#f4f4f4"/><path d="m737.17 196.92a115.52 115.52 0 0 1 5.23-36.42c7.53-20.4 29.33-67.61-14.85-76.75 10.14 7.85 13.5 26.4 7.26 44.29-9.3 26.65-11.28 38.35 2.36 68.88z" fill="#f4f4f4"/><path d="m835.09 142.7c-39.47-14.36-75.5 12.26-87.8 42.34-4.25 10.38-9.07 40.3-6 45.81l.79-5c6.92-41.85 32.51-56.43 48.92-58.51 32.91-4.17 60.27 19.84 56.08 45.47-2.06 12.6-14.22 15.82-17.23 7.41-1.35 3.54-.11 7.15 4.28 9.71 12.07 5.65 30-1.82 35.82-16.05 13.76-27.57-7.41-61.19-34.86-71.18z" fill="#f4f4f4"/><path d="m874.84 339.88c26.9-8.34 48.84-39.76 36.84-67-5-14-21.89-22-33.79-17.17-4.34 2.25-5.7 5.68-4.57 9.16 3.29-8 14.87-4.29 16.27 8 2.86 24.91-24.6 46.78-56.12 41.21-15.71-2.78-39.66-18.06-44.42-58.71l-.52-4.89c-3.25 5.17 0 34.25 3.64 44.47 10.48 29.54 43.97 56.92 82.67 44.93z" fill="#f4f4f4"/><path d="m834.58 279c-8.17 5-26.74 6.41-38.39-20.87 4.82 45.59 64.58 58.43 67.14 18.41-.34-27.47-41.35-27-30.65-3.13.5-1.32 2.71-1.23 3.77-.35s1.09 4.54-1.87 5.94z" fill="#f4f4f4"/><path d="m749.6 170.53c26.6-59.75 88.87-39.84 99.22-34.26-42.19-30.62-89.76-9.06-99.22 34.26z" fill="#f4f4f4"/><path d="m775.45 119.87a9.12 9.12 0 0 0 8.38-9.65 8.84 8.84 0 0 0 -9.13-8.7 9.13 9.13 0 0 0 -8.39 9.65 8.85 8.85 0 0 0 9.14 8.7z" fill="#f4f4f4"/><path d="m792.07 209.84c-1.14.85-3.44.84-3.89-.55-12.26 24.19 30.18 26.71 31.88-1.69-.67-41.53-63.19-31.27-70.41 15.64 13.35-27.62 32.55-25.24 40.77-19.64 2.99 1.64 2.93 5.28 1.65 6.24z" fill="#f4f4f4"/><path d="m529 338.3c-2.1 1.93-5 .89-5.37-.38s.27-2.94 1.49-2.92c-15.81-16.21-29.25 16.64-7.27 25.64 33 10.67 41.74-41.48 6.64-59.84 18.24 18.03 11.18 32.52 4.51 37.5z" fill="#f4f4f4"/><path d="m694.68 672.32c-8.41-21-33.39 4.2-16.52 20.92 26.4 22.46 54.43-22.38 29-52.77 9.94 23.63-2.16 34.31-10.16 36.39-2.68 1-4.93-1.08-4.82-2.41s1.38-2.61 2.5-2.13z" fill="#f4f4f4"/><path d="m566.37 53.13c5.29-4.83 5.55-13.3.58-18.92s-13.31-6.26-18.6-1.43-5.55 13.3-.58 18.92 13.3 6.3 18.6 1.43z" fill="#f4f4f4"/><path d="m572 206.71c-2.77-45.35 23.64-56.19 38.27-55 5-.06 7.6 4.67 6.64 6.85-.84 1.92-3.82 3.57-5.4 2.1 1.76 40.12 58.23 12.5 39.83-25.36-30.94-53.01-104 5.7-79.34 71.41z" fill="#f4f4f4"/><path d="m729.07 396.77c-108.64 33.26-153.56-71-158.05-91 7.98 90.23 90.5 128 158.05 91z" fill="#f4f4f4"/><path d="m643.52 563c-10.42.32-18.71 9.43-18.52 20.34s8.79 19.5 19.21 19.18 18.71-9.43 18.52-20.34-8.8-19.47-19.21-19.18z" fill="#f4f4f4"/><path d="m798.09 336.58c-51.48 13.95-70.18-13.9-72.23-31-1.26-5.8 3.57-9.86 6.3-9.27 2.41.51 5 3.54 3.7 5.72 45.69-11.53.59-70-38.57-39.86-53.65 48.22 31.09 118.44 100.8 74.41z" fill="#f4f4f4"/><path d="m912.63 455.81c7.21-23.19 37.89-41.44 73.76-42.21 41.68-.89 64.28-3.67 93.61-25.91v-15.25a206.62 206.62 0 0 1 -41 6.19c-41.23.14-139.44-7.3-126.37 77.18z" fill="#f4f4f4"/><path d="m945.91 225.9c.7 79.57 71.82 125.88 133.33 127.81h.76v-19.28c-32.36-9.29-52.13-29.45-61.13-46.58-29.22-55.64-4.76-120.1 43.48-129.64a31.3 31.3 0 0 1 17.65 1.2v-31.17a54.53 54.53 0 0 0 -30.93-11.33c-58.07-6.17-103.64 53.66-103.16 108.99z" fill="#f4f4f4"/><path d="m953.06 28.24c.21-7.42.85-17.51.66-28.24h-23.66c.25 30.79 4.57 46.17 31.76 75.62a150.93 150.93 0 0 1 -8.76-47.38z" fill="#f4f4f4"/><path d="m979.91 122.87-1.29-7.43c-10.06-61.92 18.83-94.5 40.82-105.2 20.64-10 42.5-10.85 60.56-5v-5.24h-94.36a115.9 115.9 0 0 0 -19 55.79c-1.1 16.58 6.3 60.83 13.27 67.08z" fill="#f4f4f4"/><path d="m849.15 116.42c4.31 2.22 7.86 1.36 10-1.55-8.33 1.91-12-9.57-2.89-17.73 18.52-16.6 52-6.92 65.5 21.78 6.76 14.31 8.14 42.45-22 69.61l-3.66 3.23c6-.34 27.69-19.66 33.88-28.45 17.93-25.44 20.87-68.24-11-92.68-22.17-17-60.16-16.73-75.32 8.6-8.47 12.05-5.28 30.36 5.49 37.19z" fill="#f4f4f4"/><path d="m902.5 473.67c0 6.14 18.21 29.27 26.73 36.08 24.67 19.73 67.86 25.36 94.6-5.43 18.59-21.41 20.68-59.92-4.05-76.83-11.68-9.34-30.44-7.23-38 3.25-2.51 4.23-1.86 7.88 1 10.26-1.42-8.56 10.44-11.56 18.14-1.84 15.67 19.79 3.79 53.06-26.13 65-14.92 6-43.52 5.62-69.17-26.61z" fill="#f4f4f4"/><path d="m980.38 456.31c-14.88-23.31-49.74-1.17-27.88 13.59-.28-1.39 1.66-2.49 3-2.3 1.55.21 3.32 3.27 1.55 6.07-4.34 8.61-19.47 19.68-43.91 2.54 28.35 36.41 86.29 15.67 67.24-19.9z" fill="#f4f4f4"/><path d="m1051.35 525.9 1.19-8.21c4.58-29.62 15-50.94 27.46-65.88v-33.56a123.91 123.91 0 0 0 -19.75 33c-6.73 17-14.05 65.75-8.9 74.65z" fill="#f4f4f4"/><path d="m1080 490.08v-14.46a82.57 82.57 0 0 0 -15.27 37.74c4.71-9.98 9.9-17.58 15.27-23.28z" fill="#f4f4f4"/><path d="m821.24 55.07a123.9 123.9 0 0 1 24.28-31.07c6.87-5.76 17.83-14.08 26.65-24h-27.69c-14.41 14.13-20.31 26-23.24 55.07z" fill="#f4f4f4"/><path d="m878.74 28.58c2 1.63 1.41 4.3.33 4.83s-2.64.13-2.78-.95c-12.43 16.11 18.46 23.91 23.71 3.22 5.35-30.7-42.12-31.89-54 1.66 13.71-18.48 27.47-14.02 32.74-8.76z" fill="#f4f4f4"/><path d="m586.35 645.86c9.95 35.36 16.56 49.32 53.85 71.74a150.3 150.3 0 0 1 -21.57-42.76c-7.17-27.38-19.11-94-73-70.83 16.64.82 34.04 18.11 40.72 41.85z" fill="#f4f4f4"/><path d="m643.88 645.45c11.26 22 35.82-7.88 15.82-24.37-30.93-21.77-56.82 29.73-26.16 60.21-13.17-24.68-1.15-37.48 7.36-40.54 2.81-1.32 5.45.68 5.47 2.14.02 1.29-1.22 2.97-2.49 2.56z" fill="#f4f4f4"/><path d="m708.36 525.05c32.29 25.84 49.25-36.65 7.39-48.07-62.17-12-66.3 84.44 1.45 109.88-37.06-28.61-27.52-56.42-16.63-66.92 3.38-4 8.79-2.72 9.83-.51.91 1.96.17 5.38-2.04 5.62z" fill="#f4f4f4"/><path d="m874.38 116.24c-22 16 1.83 49 15 26.59-1.35.36-2.55-1.49-2.45-2.84.12-1.54 3-3.46 5.88-1.9 8.73 3.75 20.52 18 5.13 43 34.15-30 10.28-85.73-23.56-64.85z" fill="#f4f4f4"/><path d="m963 34.34a118.18 118.18 0 0 1 8.12-34.34h-6a97.22 97.22 0 0 0 -2.12 34.34z" fill="#f4f4f4"/><path d="m988 108.25c5.71-45.09 33.68-50.81 47.83-46.88 5 .88 6.6 6 5.25 8-1.19 1.73-4.42 2.8-5.7 1.06-4.93 34.22 39.29 26.69 44.67-2v-11.87c-.21-1.19-.48-2.41-.81-3.65-20.63-57.91-103.34-13.91-91.24 55.34z" fill="#f4f4f4"/><path d="m789.68 501.69c23.41 7.33 33.63 8.73 59.75-3.94a100.22 100.22 0 0 1 -31.77-3.54c-17.93-6-59.55-23.6-66.23 15 6.57-9.03 22.57-12.45 38.25-7.52z" fill="#f4f4f4"/><path d="m882.92 495.33-5-.61c-41.26-5.5-56.41-30.1-59-46.13-5.16-32.14 17.53-59.71 42.82-56.4 12.44 1.63 16 13.47 7.83 16.68 3.52 1.21 7-.12 9.39-4.5 5.16-12-2.75-29.37-16.91-34.64-27.51-12.65-59.82 9.15-68.74 36.38-12.83 39.15 14.47 73.66 44.39 84.8 10.38 3.85 39.91 7.65 45.22 4.42z" fill="#f4f4f4"/><path d="m823.43 489.09c-59.5-24.24-42-85.92-36.83-96.25-28.69 42.33-5.99 88.32 36.83 96.25z" fill="#f4f4f4"/><path d="m753.11 462.49a9 9 0 0 0 9.18 8.57 8.66 8.66 0 0 0 8.86-8.65 9 9 0 0 0 -9.18-8.56 8.67 8.67 0 0 0 -8.86 8.64z" fill="#f4f4f4"/><path d="m860.23 450.06c24.15 11.27 25.26-30.43-2.68-31.22-40.74 2-28.65 62.94 17.63 68.58-27.55-12.29-25.81-31.15-20.6-39.38 1.52-3 5.09-3 6.08-1.81s.92 3.34-.43 3.83z" fill="#f4f4f4"/><path d="m925.4 205.8c-26.34 95.2 43.46 165.31 126.6 153.42-123.66-7.67-129.63-131.36-126.6-153.42z" fill="#f4f4f4"/><path d="m897.28 362.39c-8.85 3.72-13 13.56-9.38 22s13.83 12.21 22.68 8.48 13-13.57 9.38-22-13.83-12.21-22.68-8.48z" fill="#f4f4f4"/><path d="m1080 314.82v-107.1a49.09 49.09 0 0 0 -9 1.88c-52.52 20.59-36.66 80.01 9 105.22z" fill="#f4f4f4"/><path d="m411.25 777.47c-41.2-53.89-126.73-24.06-99.15 28.48 21.58 34.46 73.16 2.31 41.2-19.66.39 2.05-2.49 3.64-4.5 3.35-2.27-.33-4.84-4.85-2.2-8.95 6.49-12.62 28.91-28.69 64.65-3.22z" fill="#f4f4f4"/><path d="m0 1035.69v44.31h65c-12.48-23.27-38.36-40.23-65-44.31z" fill="#f4f4f4"/><path d="m149.79 695.17c34.56 7.23 77.71-13.84 81.11-51 3.07-18.37-10.61-37.49-26.62-39.39-6.13-.17-9.71 2.76-10.58 7.26 8.45-6.73 18.91 4.35 13 18.62-12 29.05-55.41 36.3-86.58 11-15.53-12.61-32.52-43.93-13-91.37l2.4-5.68c-6.71 3.69-20.79 37.55-23 51-6.52 38.76 13.55 89.15 63.27 99.56z" fill="#f4f4f4"/><path d="m212.09 922.28c-11.39-13.86-49.83-43.32-59.93-43.12l6.49 4.92c53.56 41.45 54.75 88.48 45.27 113.16-19 49.5-73.46 69.82-106.34 44.5-16.17-12.45-11.49-32 2.61-29.89-4-4.58-10-5.58-16.89-1.34-17.07 12.73-20.13 43.63-4.51 62.63a65.75 65.75 0 0 0 5.56 6.86h118.58c.78-.65 1.55-1.3 2.3-2 50.05-44.67 39.85-115.59 6.86-155.72z" fill="#f4f4f4"/><path d="m301.37 910.2c-16.07-9.66-24.14-36.07-18.14-63.17 8.94-40.38 9.81-57.75-15.25-99.81 0 0 4.24 25.85-1.34 53.89-7.45 30.98-31.04 103.43 34.73 109.09z" fill="#f4f4f4"/><path d="m255.32 766.26c4.4-15.84 6.26-60.2.8-67.68l-.28 7.46c-2.89 62-37.51 87.65-61 93.52-47.1 11.76-91-18.44-89.29-56.45.83-18.68 18-25.47 23.78-13.76 1.35-5.38-1.07-10.42-7.88-13.38-18.52-6.13-43.29 7.84-49.31 29.55-15.26 42.48 21.26 87.73 62.86 97.48 59.82 14.1 107.6-30.86 120.32-76.74z" fill="#f4f4f4"/><path d="m59 571.62c-6.27 20.16-29.67 36.7-59 42v34.31c35.78-6.8 66.86-25.46 59-76.31z" fill="#f4f4f4"/><path d="m0 735.47v146.78c15.57-20.89 24.78-47.25 24.56-72.71-.26-29.19-9.68-54.05-24.56-74.07z" fill="#f4f4f4"/><path d="m80.45 985.31c26.52-26.11 33.24-76.3 2.68-101-14.3-13.42-39-12.59-50 .35-3.73 5.28-3.25 10.13.18 13.53-1-11.35 14.85-14.06 23.91-.54 18.43 27.51-.55 69.85-40.91 82.43a56.56 56.56 0 0 1 -16.31 2.4v23.72c26.79 6.63 57 2.23 80.45-20.89z" fill="#f4f4f4"/><path d="m38.26 530.52a10.07 10.07 0 1 0 13.23 5.26 10.07 10.07 0 0 0 -13.23-5.26z" fill="#f4f4f4"/><path d="m585.17 755.88c-12-63.51-80.11-33.43-109.51-23.14a164.9 164.9 0 0 1 -52.27 6.59c43.37 20.29 60.18 17.74 98.56 5.07 25.76-8.5 52.24-3.23 63.22 11.48z" fill="#f4f4f4"/><path d="m503.45 600.4c-13.62-39.55-61.21-70.69-101-51.65-20.53 8-31.66 33.49-23.88 50.92 3.56 6.35 8.69 8.21 13.8 6.37-12-4.51-7.06-21.87 11-24.51 36.79-5.37 70.49 34.41 63.69 81.44-3.38 23.44-24.9 59.68-84.92 68.58l-7.22 1c7.81 4.59 50.76-1.58 65.73-7.41 43.35-16.89 82.35-67.85 62.8-124.74z" fill="#f4f4f4"/><path d="m461.49 722.18c62.24-12.49 94.29-80.1 51.51-141.28 7.73 14.96 34.68 104.63-51.51 141.28z" fill="#f4f4f4"/><path d="m534.65 686.39c-.5 6.92 5 12.88 12.23 13.3s13.53-4.85 14-11.77-5-12.88-12.23-13.3-13.51 4.84-14 11.77z" fill="#f4f4f4"/><path d="m386 720.83c67.33-9.21 83.57-98.5 24.14-100.49-40.67 1.75-38.14 62.6-3.14 45.66-2-.68-1.94-4-.7-5.58 1.41-1.81 6.62-1.81 8.9 2.52 7.74 11.87 10.7 39.37-29.2 57.89z" fill="#f4f4f4"/><path d="m354 598c-1.1-43.93-10.07-56.7-36.17-83.07-17.52-17.7-24-41.61-16.46-56.65-47.21 35.82 5.35 79.51 25.83 99.46a151.79 151.79 0 0 1 26.8 40.26z" fill="#f4f4f4"/><path d="m286.17 560.3c6.92-5.95 24.17-10.12 39.27 13.75-11.44-42.13-69.63-45.05-65.92-7.05 4.51 25.78 43 19.1 29.29-1.75-.27 1.32-2.36 1.57-3.49.91s-1.71-4.05.85-5.86z" fill="#f4f4f4"/><path d="m28.64 918c-6.85-12.9-18.64-16.49-28.64-14.77v62.31c23.17-3.65 39.93-21.73 28.64-47.54z" fill="#f4f4f4"/><path d="m45.78 830.34c17.22-62.17-5.24-114.02-45.78-140.71v15.37c45.6 41.75 48 109.35 45.78 125.34z" fill="#f4f4f4"/><path d="m35.25 661.61c-9.16 3.85-13.51 14-9.7 22.74s14.31 12.65 23.45 8.79 13.5-14 9.7-22.75-14.29-12.64-23.45-8.78z" fill="#f4f4f4"/><path d="m14 555c-1.75-9.73-7.47-15.63-14-18.4v47.4c9.45-4.74 15.52-14.42 14-29z" fill="#f4f4f4"/><path d="m254.46 787.77c-28.42 91.51-122.31 73.32-138.3 67 66.55 37.23 131.98-2.35 138.3-67z" fill="#f4f4f4"/><path d="m379.47 1080h89.45q-1.77-1.29-3.64-2.52c-25.21-16.48-63.13-16.77-85.81 2.52z" fill="#f4f4f4"/><path d="m225.57 865.94c-7 1.21-11.69 8.15-10.52 15.48s7.78 12.3 14.77 11.08 11.69-8.15 10.52-15.48-7.78-12.3-14.77-11.08z" fill="#f4f4f4"/><path d="m191.74 738.06c13.66-37.33-48.44-33.65-46 8 8.11 60.29 97.18 34.55 99.64-34.94-14.73 42.5-43 42.32-55.87 35.62-4.63-1.87-5.17-7.17-3.46-8.79 1.46-1.47 4.8-1.84 5.69.11z" fill="#f4f4f4"/><path d="m143.34 966.52c-.33-2.24 1.43-5.46 3.73-5-24.77-35.61-60.4 22.25-21.74 46.18 58.92 30.53 91.75-65.28 31.25-111 28.71 39.81 10.85 65-3.21 72.3-4.58 2.91-9.64.07-10.03-2.48z" fill="#f4f4f4"/><path d="m175.63 618.8c16.33-30.32-28.9-54.81-31.7-22.09 1.34-1.15 3.72.3 4.35 1.91.71 1.81-1.54 5.59-5.67 5.37-12 .5-33.21-9.25-29.41-46.23-22.42 52.88 35.31 103.33 62.43 61.04z" fill="#f4f4f4"/><path d="m0 1017.59v1.06a52.28 52.28 0 0 1 5.74.58c-1.92-.6-3.84-1.14-5.74-1.64z" fill="#f4f4f4"/><path d="m74 834.73c-6.65 2.66-9.87 10.5-7.18 17.51s10.26 10.53 16.91 7.87 9.86-10.5 7.18-17.51-10.27-10.54-16.91-7.87z" fill="#f4f4f4"/><path d="m523 1061.87c-3.68-8.41-13.83-12.21-22.68-8.48s-13 13.56-9.38 22a15.93 15.93 0 0 0 3.06 4.61h25.32a16.38 16.38 0 0 0 3.68-18.13z" fill="#f4f4f4"/><path d="m391.83 1029.68c-38.82-13.75-128.78-53.85-144.94 30.09 14.6-19.4 49.63-26.24 83.67-14.88 50.71 16.93 72.93 20.38 130.38-6.25 0 0-33.81 1.99-69.11-8.96z" fill="#f4f4f4"/><path d="m403.52 937.44c-8.77-62.23 36-114.68 84.61-107.42 23.91 3.58 30.32 26.55 14.48 32.47 6.74 2.45 13.55 0 18.27-8.36 10.38-23-4.23-56.8-31.34-67.47-52.54-25.36-115.65 15.61-133.84 67.86-26.16 75.16 25.2 142.72 82.46 165.26 19.78 7.79 76.56 16.14 86.91 10.1l-9.55-1.35c-79.35-12.04-107.63-60.07-112-91.09z" fill="#f4f4f4"/><path d="m410.63 1015.78c-113.82-48.87-77.76-167.34-67.47-187.09-56.87 80.71-14.79 170.31 67.47 187.09z" fill="#f4f4f4"/><path d="m297.8 985.63c9.59-.52 16.86-8.37 16.23-17.53s-8.9-16.16-18.49-15.63-16.86 8.37-16.24 17.53 8.91 16.16 18.5 15.63z" fill="#f4f4f4"/><path d="m483 941.68c46.14 22.61 49.8-57.87-4-60.35-78.61 2.35-57.54 120.51 31.47 133-52.65-24.67-48.61-61-38.26-76.74 3-5.71 9.92-5.69 11.78-3.27 1.61 2.13 1.63 6.48-.99 7.36z" fill="#f4f4f4"/><path d="m491.43 536c23.69 34.5 77.94 51.78 111.31 22.73 17.68-13.22 21.63-40.8 9.47-55.53-5.12-5.17-10.59-5.58-15-2.44 12.76 1.15 12.64 19.2-4.11 26.6-34.1 15-77.23-14.28-83.22-61.47-3-23.52 8.13-64.25 63.71-88.94l6.71-2.9c-8.76-2.33-48.59 15.14-61.49 24.79-37.37 27.94-61.46 87.55-27.38 137.16z" fill="#f4f4f4"/><path d="m714.56 1049.14c-5.32-2.89-11.3-1.71-16.29 4.69-4.74 7.37-6.17 16.78-4.74 26.17h38.47a50.86 50.86 0 0 1 -9.4-2c-19.51-5.93-22-25.9-8.04-28.86z" fill="#f4f4f4"/><path d="m787.91 926c-15.52-9-61.85-23.06-71.24-19.32l7.81 2.33c64.69 20 82.3 63.61 82.08 90-.36 43.76-30.31 77.4-63.06 81h89.28c1.19-1.9 2.31-3.83 3.34-5.8 31.19-59.45-3.24-122.27-48.21-148.21z" fill="#f4f4f4"/><path d="m816.13 820.5c-5.79-41-11.07-57.53-49.28-88.1 0 0 13 22.72 17.64 50.93 3.89 31.63 7.21 107.75 70.79 89.95-18.45-3.41-35.28-25.28-39.15-52.78z" fill="#f4f4f4"/><path d="m675.93 868.85c61-7.85 89.92-66.74 85.74-114.17-1.44-16.38-15.25-58.57-23-63.66l2.36 7.09c19 59.08-4.39 95.26-24.31 109-40 27.56-91.65 14.7-103.4-21.48-5.78-17.79 7.88-30.16 17.43-21.24-.62-5.51-4.66-9.39-12.07-9.76-19.49.77-37.79 22.55-35.81 45 .62 45.15 50.69 74.67 93.06 69.22z" fill="#f4f4f4"/><path d="m546 1074.07c1.26 1.77 5 3.84 9.93 5.93h17.88a126.24 126.24 0 0 1 -21.73-4.16z" fill="#f4f4f4"/><path d="m694.57 1014.9c3.19-36.15-23.52-77.67-61.8-76.68-19.09-.93-36.92 15.32-36.92 31.89.57 6.28 4 9.58 8.68 9.93-7.88-7.82 2.14-19.82 17.41-15.51 31 8.77 43.7 52.2 21.69 87-7.54 11.94-24 25.63-50 28.42h56.87c22.94-12.23 41.34-34.14 44.07-65.05z" fill="#f4f4f4"/><path d="m574.06 988.32a10.07 10.07 0 1 0 -14.23-.28 10.08 10.08 0 0 0 14.23.28z" fill="#f4f4f4"/><path d="m692.72 931.78a8 8 0 0 0 -.58 11.34 8.22 8.22 0 0 0 11.5.06 8 8 0 0 0 .59-11.34 8.22 8.22 0 0 0 -11.51-.06z" fill="#f4f4f4"/><path d="m594.93 1032.68c-1.33-1.24-.14-3.83 1.42-4.67 1.76-.94 5.88.9 6.16 5.14 2 12.19-5.41 35-43.56 35.57 56.61 16.54 101-48.44 54.65-71-32.87-13.07-52.36 36.02-18.67 34.96z" fill="#f4f4f4"/><path d="m535.9 785c-7.22 6.83-7.72 17.89-1.11 24.71s17.83 6.8 25.06 0 7.72-17.9 1.11-24.71-17.83-6.81-25.06 0z" fill="#f4f4f4"/><path d="m768.4 775.12c5.49 95.68-88.79 111.63-106 111.33 75.39 11.49 122.77-48.58 106-111.33z" fill="#f4f4f4"/><path d="m777.17 876.21c-6.11 3.59-8.09 11.74-4.42 18.2s11.61 8.78 17.72 5.18 8.09-11.74 4.42-18.2-11.6-8.78-17.72-5.18z" fill="#f4f4f4"/><path d="m733 706.53c1.11 45-25.4 54.73-39.83 53-5-.12-7.35-4.9-6.32-7 .9-1.88 3.9-3.4 5.42-1.89-.3-39.75-57.16-14.48-40.32 23.64 28.72 53.58 103.1-1.82 81.05-67.75z" fill="#f4f4f4"/><path d="m736.63 1036.39c65.87 7.88 63-93.36-9.69-114.93 40.85 27.18 32.95 57 22.36 68.82-3.24 4.39-9 3.51-10.24 1.26-1.1-2-.58-5.62 1.72-6-35.68-24.67-48.78 42.03-4.15 50.85z" fill="#f4f4f4"/><path d="m572.68 388.36c-62.55 26.94-54.42 117.43 3.49 103.4 38.83-12.6 20.15-70.61-9.07-44.87 2.09.11 2.94 3.3 2.16 5.19-.87 2.13-5.9 3.53-9.25 0-10.7-9.43-20.89-35.16 12.67-63.72z" fill="#f4f4f4"/><path d="m902.56 1019.24c15.85 5.48 27.77 27.09 27.51 51.9v8.86h23.66c-.55-30.45-7.86-66.08-51.17-60.76z" fill="#f4f4f4"/><path d="m985.64 1080h94.36v-44.31a81.94 81.94 0 0 0 -10.44-.93c-37.69-.86-66.45 18.86-83.92 45.24z" fill="#f4f4f4"/><path d="m937.82 666.85s32.24-13.73 70.45-15.36c17.83-.06 46 1.25 71.73-3.61v-34.31a112.44 112.44 0 0 1 -17.34 1.73c-55.3 1.19-78.15 5.57-124.84 51.55z" fill="#f4f4f4"/><path d="m966.58 677.28c-22-.69-80.21 11-88.2 20.46l9.79-2c81.5-15.93 125.81 21 140.88 49.7 30.24 57.58 4.94 124.28-45 134.16-24.54 4.85-38.79-15.29-25.42-26.58-7.43 0-13.21 4.71-14.89 14.51-2.08 26.05 23.93 53.87 54.06 54.81 33.36 3.55 62.74-14 82.19-40.08v-146.79c-27.09-36.47-72.32-56.9-113.41-58.19z" fill="#f4f4f4"/><path d="m1008.63 938.13-3.57-5.43c-.69 8 20.75 40.19 31.18 50a99.66 99.66 0 0 0 43.76 23.5v-23.72c-20.6.12-48.11-9.81-71.37-44.35z" fill="#f4f4f4"/><path d="m871 963.27c-1.11 9.73 1.93 36 5.84 39.9l-.54-4.42c-4.11-36.75 13.87-55.08 27.14-60.75 26.62-11.31 55.25 2.36 57.8 24.88 1.25 11.07-8.2 16.66-12.71 10.31-.29 3.3 1.6 6 5.89 7.14 11.46 1.88 24.74-8.65 26.26-22 5-26.42-20.68-49.63-46.07-51.51-36.51-2.65-60.44 28.27-63.61 56.45z" fill="#f4f4f4"/><path d="m831.72 794.73c12.55 20 41.8 30.68 60.12 14.63 9.69-7.27 12.06-22.93 5.59-31.51-2.73-3-5.69-3.35-8.12-1.62 6.9.85 6.69 11.13-2.45 15.1-18.59 8.06-41.72-9.3-44.57-36.29-1.42-13.45 4.94-36.5 35.26-49.73l3.66-1.56c-4.73-1.46-26.45 7.9-33.52 13.2-20.47 15.36-34.02 48.98-15.97 77.78z" fill="#f4f4f4"/><path d="m883.67 994c4.71-26.39 21.35-28.92 29.56-26.18 2.91.67 3.71 3.74 2.86 4.86s-2.68 1.51-3.39.45c-4.56 23.24 31.64 15.28 26.35-9-10.39-34.76-60.4-11.3-55.38 29.87z" fill="#f4f4f4"/><path d="m872.63 1024.68c5.24 12.7-1.53 31.74-16.86 45-4.26 3.7-8 7-11.29 10.27h27.69c14.1-15.76 22.73-35.57.46-55.27z" fill="#f4f4f4"/><path d="m897 1070a6.78 6.78 0 0 0 5.56 7.92 7 7 0 0 0 7.76-6 6.79 6.79 0 0 0 -5.56-7.93 7 7 0 0 0 -7.76 6.01z" fill="#f4f4f4"/><path d="m573.83 946.74c31.34-20.15 42.92-30.71 53.58-73.52a152.42 152.42 0 0 1 -35 33.61c-24.42 15.08-85.47 46.42-47 91.83-4.21-16.4 7.39-38.4 28.42-51.92z" fill="#f4f4f4"/><path d="m594.18 890.46c-20 20.09-36 12.24-41.49 4.89-2.11-2.33-1-5.48.45-5.94 1.25-.4 3.25.31 3.22 1.66 18-17.44-18.27-32.4-28.32-8.11-11.93 36.45 45.69 46.28 66.14 7.5z" fill="#f4f4f4"/><path d="m1070.79 932.92c-.22-1.85 2.43-3.09 4.2-2.7 2 .43 4 4.62 1.4 8.1-6.56 10.83-27.49 23.75-57.66-1.19 15.55 23.67 40.89 31.62 61.27 28.41v-62.31c-14.77 2.54-25.37 16.77-9.21 29.69z" fill="#f4f4f4"/><path d="m994.8 671.58c38.32 2.38 65.71 15.53 85.2 33.39v-15.34c-23.67-15.58-53.49-22.63-85.2-18.05z" fill="#f4f4f4"/><path d="m901.33 867.79c9.16-3.85 13.51-14 9.71-22.74s-14.31-12.64-23.47-8.79-13.51 14-9.7 22.75 14.31 12.64 23.46 8.78z" fill="#f4f4f4"/><path d="m953.69 781.36c-1 6.63-7.67 9-10.32 7.3-2.34-1.5-3.89-5.73-1.64-7.51-52.84-5.93-28.34 73.75 25 57.4 75.78-29.7 14-137.48-77-118.61 59.84 5.68 68.58 42.51 63.96 61.42z" fill="#f4f4f4"/><path d="m1058.33 557.24c.32-1.61 2.87-1.93 4.25-1.13 1.56.9 2.11 4.94-1 7.15-8.4 7.28-29.39 12.45-48-16.51 9.75 35 46 47.6 66.39 37.28v-47.48c-14.55-6.15-33.26 3.23-21.64 20.69z" fill="#f4f4f4"/><path d="m882.35 905.45c-26.35 24.41-29.77 70.55-12.07 92.69-20.56-41.64 6.5-86.06 12.07-92.69z" fill="#f4f4f4"/><path d="m847.46 516.33c-70.12 21.56-92.26 96.67-77.74 151.67 5 19 29.82 65.82 40 70.23l-4.21-7.85c-34.39-65.65-14.15-113 6.51-133.14 41.44-40.5 104.84-35.82 126 4.35 10.4 19.76-3.16 37.07-16.21 28.51 1.85 6.36 7.39 10.1 16.18 9 22.77-4.85 39.88-34.16 33-60.17-9.9-52.93-74.78-77.58-123.53-62.6z" fill="#f4f4f4"/><path d="m815.8 716c-10.42-52.68 18.79-69.52 36.11-70.39 5.91-.87 9.65 4.28 8.87 7-.69 2.38-3.91 4.78-6 3.31 8.41 46.69 70.18 5.48 42.64-36-44.67-57.24-120.95 22.98-81.62 96.08z" fill="#f4f4f4"/><path d="m793.86 733.56c-68.72-62.75-50.54-165.37-45-181.8-31.49 64.8-4.17 153.38 45 181.8z" fill="#f4f4f4"/><path d="m965.16 1080h6c23.28-56.49 86.16-62.57 108.88-61.35v-1.06c-57.42-15.01-103.34 16.18-114.88 62.41z" fill="#f4f4f4"/><path d="m965.5 1005.65c-6.65 2.66-9.87 10.5-7.18 17.51s10.26 10.53 16.91 7.87 9.86-10.51 7.18-17.51-10.26-10.52-16.91-7.87z" fill="#f4f4f4"/></pattern><path d="m0 0h1920v1080h-1920z" fill="url(#a)"/></svg>