<svg width="696" height="189" viewBox="0 0 696 189" fill="none" xmlns="http://www.w3.org/2000/svg">
<path d="M15 20C15 17.2386 17.2386 15 20 15H348V70H20C17.2386 70 15 67.7614 15 65V20Z" fill="url(#paint0_linear)"/>
<path d="M102.441 43.0122C102.441 44.0571 102.265 44.9702 101.914 45.7515C101.562 46.5278 101.064 47.1211 100.419 47.5312C99.7749 47.9414 99.0229 48.1465 98.1636 48.1465C97.3237 48.1465 96.5791 47.9414 95.9297 47.5312C95.2803 47.1162 94.7749 46.5278 94.4136 45.7661C94.0571 44.9995 93.874 44.1133 93.8643 43.1074V42.3384C93.8643 41.313 94.0425 40.4072 94.3989 39.6211C94.7554 38.835 95.2583 38.2344 95.9077 37.8193C96.562 37.3994 97.3091 37.1895 98.1489 37.1895C99.0034 37.1895 99.7554 37.397 100.405 37.812C101.059 38.2222 101.562 38.8203 101.914 39.6064C102.265 40.3877 102.441 41.2983 102.441 42.3384V43.0122ZM101.042 42.3237C101.042 41.0591 100.788 40.0898 100.28 39.416C99.7725 38.7373 99.062 38.3979 98.1489 38.3979C97.2603 38.3979 96.5596 38.7373 96.0469 39.416C95.5391 40.0898 95.2778 41.0273 95.2632 42.2285V43.0122C95.2632 44.2378 95.5195 45.2021 96.0322 45.9053C96.5498 46.6035 97.2603 46.9526 98.1636 46.9526C99.0718 46.9526 99.7749 46.623 100.273 45.9639C100.771 45.2998 101.027 44.3501 101.042 43.1147V42.3237ZM110.82 48H109.465V41.1958H105.817V48H104.455V40.0752H110.82V48ZM119.492 40.0752V48H118.129V41.1958H115.434L115.273 44.1621C115.185 45.5244 114.956 46.4985 114.584 47.0845C114.218 47.6704 113.635 47.9756 112.834 48H112.292V46.8062L112.68 46.7769C113.12 46.728 113.435 46.4741 113.625 46.0151C113.815 45.5562 113.938 44.7065 113.991 43.4663L114.138 40.0752H119.492ZM126.56 48C126.481 47.8438 126.418 47.5654 126.369 47.165C125.739 47.8193 124.987 48.1465 124.113 48.1465C123.332 48.1465 122.69 47.9268 122.187 47.4873C121.689 47.043 121.44 46.4814 121.44 45.8027C121.44 44.9775 121.752 44.3379 122.377 43.8838C123.007 43.4248 123.891 43.1953 125.029 43.1953H126.347V42.5728C126.347 42.0991 126.206 41.7231 125.922 41.4448C125.639 41.1616 125.222 41.02 124.67 41.02C124.187 41.02 123.781 41.1421 123.454 41.3862C123.127 41.6304 122.963 41.9258 122.963 42.2725H121.601C121.601 41.877 121.74 41.4961 122.019 41.1299C122.302 40.7588 122.683 40.4658 123.161 40.251C123.645 40.0361 124.174 39.9287 124.75 39.9287C125.664 39.9287 126.379 40.1582 126.896 40.6172C127.414 41.0713 127.683 41.6987 127.702 42.4995V46.147C127.702 46.8745 127.795 47.4531 127.98 47.8828V48H126.56ZM124.311 46.9673C124.736 46.9673 125.139 46.8574 125.52 46.6377C125.9 46.418 126.176 46.1323 126.347 45.7808V44.1548H125.285C123.625 44.1548 122.795 44.6406 122.795 45.6123C122.795 46.0371 122.937 46.3691 123.22 46.6084C123.503 46.8477 123.867 46.9673 124.311 46.9673ZM135.598 41.1738H132.939V48H131.584V41.1738H128.977V40.0752H135.598V41.1738ZM141.691 48C141.613 47.8438 141.55 47.5654 141.501 47.165C140.871 47.8193 140.119 48.1465 139.245 48.1465C138.464 48.1465 137.822 47.9268 137.319 47.4873C136.821 47.043 136.572 46.4814 136.572 45.8027C136.572 44.9775 136.884 44.3379 137.509 43.8838C138.139 43.4248 139.023 43.1953 140.161 43.1953H141.479V42.5728C141.479 42.0991 141.337 41.7231 141.054 41.4448C140.771 41.1616 140.354 41.02 139.802 41.02C139.318 41.02 138.913 41.1421 138.586 41.3862C138.259 41.6304 138.095 41.9258 138.095 42.2725H136.733C136.733 41.877 136.872 41.4961 137.15 41.1299C137.434 40.7588 137.814 40.4658 138.293 40.251C138.776 40.0361 139.306 39.9287 139.882 39.9287C140.795 39.9287 141.511 40.1582 142.028 40.6172C142.546 41.0713 142.814 41.6987 142.834 42.4995V46.147C142.834 46.8745 142.927 47.4531 143.112 47.8828V48H141.691ZM139.443 46.9673C139.868 46.9673 140.271 46.8574 140.651 46.6377C141.032 46.418 141.308 46.1323 141.479 45.7808V44.1548H140.417C138.757 44.1548 137.927 44.6406 137.927 45.6123C137.927 46.0371 138.068 46.3691 138.352 46.6084C138.635 46.8477 138.999 46.9673 139.443 46.9673ZM152.158 40.5293C153.154 40.5293 153.95 40.8638 154.545 41.5327C155.146 42.1968 155.446 43.0732 155.446 44.1621V44.2866C155.446 45.0337 155.302 45.7026 155.014 46.2935C154.726 46.8794 154.311 47.3359 153.769 47.6631C153.232 47.9854 152.612 48.1465 151.909 48.1465C150.844 48.1465 149.987 47.7925 149.338 47.0845C148.688 46.3716 148.364 45.417 148.364 44.2207V43.5615C148.364 41.8965 148.671 40.5732 149.287 39.5918C149.907 38.6104 150.82 38.0122 152.026 37.7974C152.709 37.6753 153.171 37.5264 153.41 37.3506C153.649 37.1748 153.769 36.9331 153.769 36.6255H154.882C154.882 37.2358 154.743 37.7119 154.465 38.0537C154.191 38.3955 153.752 38.6372 153.146 38.7788L152.136 39.0059C151.33 39.1963 150.725 39.5186 150.319 39.9727C149.919 40.4219 149.658 41.0225 149.536 41.7744C150.253 40.9443 151.127 40.5293 152.158 40.5293ZM151.894 41.6426C151.23 41.6426 150.703 41.8672 150.312 42.3164C149.921 42.7607 149.726 43.3784 149.726 44.1694V44.2866C149.726 45.1362 149.921 45.8101 150.312 46.3081C150.708 46.8013 151.24 47.0479 151.909 47.0479C152.583 47.0479 153.115 46.7988 153.505 46.3008C153.896 45.8027 154.091 45.0752 154.091 44.1182C154.091 43.3711 153.894 42.7729 153.498 42.3237C153.107 41.8696 152.573 41.6426 151.894 41.6426ZM161.862 48C161.784 47.8438 161.721 47.5654 161.672 47.165C161.042 47.8193 160.29 48.1465 159.416 48.1465C158.635 48.1465 157.993 47.9268 157.49 47.4873C156.992 47.043 156.743 46.4814 156.743 45.8027C156.743 44.9775 157.055 44.3379 157.68 43.8838C158.31 43.4248 159.194 43.1953 160.332 43.1953H161.65V42.5728C161.65 42.0991 161.508 41.7231 161.225 41.4448C160.942 41.1616 160.524 41.02 159.973 41.02C159.489 41.02 159.084 41.1421 158.757 41.3862C158.43 41.6304 158.266 41.9258 158.266 42.2725H156.904C156.904 41.877 157.043 41.4961 157.321 41.1299C157.604 40.7588 157.985 40.4658 158.464 40.251C158.947 40.0361 159.477 39.9287 160.053 39.9287C160.966 39.9287 161.682 40.1582 162.199 40.6172C162.717 41.0713 162.985 41.6987 163.005 42.4995V46.147C163.005 46.8745 163.098 47.4531 163.283 47.8828V48H161.862ZM159.614 46.9673C160.039 46.9673 160.441 46.8574 160.822 46.6377C161.203 46.418 161.479 46.1323 161.65 45.7808V44.1548H160.588C158.928 44.1548 158.098 44.6406 158.098 45.6123C158.098 46.0371 158.239 46.3691 158.522 46.6084C158.806 46.8477 159.169 46.9673 159.614 46.9673ZM171.604 48H170.249V44.6162H166.608V48H165.246V40.0752H166.608V43.5103H170.249V40.0752H171.604V48ZM176.254 44.6235H175.266V48H173.903V40.0752H175.266V43.4297H176.152L178.818 40.0752H180.458L177.324 43.8838L180.722 48H179.001L176.254 44.6235ZM181.367 43.9644C181.367 43.188 181.518 42.4897 181.821 41.8696C182.128 41.2495 182.553 40.771 183.095 40.4341C183.642 40.0972 184.265 39.9287 184.963 39.9287C186.042 39.9287 186.914 40.3022 187.578 41.0493C188.247 41.7964 188.581 42.79 188.581 44.0303V44.1255C188.581 44.897 188.432 45.5903 188.134 46.2056C187.841 46.8159 187.419 47.292 186.867 47.6338C186.32 47.9756 185.69 48.1465 184.978 48.1465C183.903 48.1465 183.032 47.7729 182.363 47.0259C181.699 46.2788 181.367 45.29 181.367 44.0596V43.9644ZM182.729 44.1255C182.729 45.0044 182.932 45.71 183.337 46.2422C183.747 46.7744 184.294 47.0405 184.978 47.0405C185.666 47.0405 186.213 46.772 186.618 46.2349C187.023 45.6929 187.226 44.936 187.226 43.9644C187.226 43.0952 187.019 42.3921 186.604 41.855C186.193 41.313 185.646 41.042 184.963 41.042C184.294 41.042 183.754 41.3081 183.344 41.8403C182.934 42.3726 182.729 43.1343 182.729 44.1255ZM190.405 48V40.0752H193.496C194.55 40.0752 195.358 40.2607 195.92 40.6318C196.486 40.998 196.77 41.5376 196.77 42.2505C196.77 42.6167 196.66 42.9487 196.44 43.2466C196.22 43.5396 195.896 43.7642 195.466 43.9204C195.944 44.0327 196.328 44.2524 196.616 44.5796C196.909 44.9067 197.055 45.2974 197.055 45.7515C197.055 46.479 196.787 47.0356 196.25 47.4214C195.717 47.8071 194.963 48 193.986 48H190.405ZM191.76 44.521V46.9087H194.001C194.567 46.9087 194.99 46.8037 195.268 46.5938C195.551 46.3838 195.693 46.0884 195.693 45.7075C195.693 44.9165 195.112 44.521 193.95 44.521H191.76ZM191.76 43.437H193.51C194.78 43.437 195.415 43.0659 195.415 42.3237C195.415 41.5815 194.814 41.1982 193.613 41.1738H191.76V43.437ZM202.028 47.0405C202.512 47.0405 202.934 46.894 203.295 46.6011C203.657 46.3081 203.857 45.9419 203.896 45.5024H205.178C205.153 45.9565 204.997 46.3887 204.709 46.7988C204.421 47.209 204.035 47.5361 203.552 47.7803C203.073 48.0244 202.565 48.1465 202.028 48.1465C200.949 48.1465 200.09 47.7876 199.45 47.0698C198.815 46.3472 198.498 45.3608 198.498 44.1108V43.8838C198.498 43.1123 198.64 42.4263 198.923 41.8257C199.206 41.2251 199.611 40.7588 200.139 40.4268C200.671 40.0947 201.298 39.9287 202.021 39.9287C202.91 39.9287 203.647 40.1948 204.233 40.7271C204.824 41.2593 205.139 41.9502 205.178 42.7998H203.896C203.857 42.2871 203.662 41.8672 203.31 41.54C202.963 41.208 202.534 41.042 202.021 41.042C201.333 41.042 200.798 41.291 200.417 41.7891C200.041 42.2822 199.853 42.9976 199.853 43.9351V44.1914C199.853 45.1045 200.041 45.8076 200.417 46.3008C200.793 46.7939 201.33 47.0405 202.028 47.0405ZM209.169 44.6235H208.181V48H206.818V40.0752H208.181V43.4297H209.067L211.733 40.0752H213.374L210.239 43.8838L213.637 48H211.916L209.169 44.6235ZM214.282 43.9644C214.282 43.188 214.433 42.4897 214.736 41.8696C215.043 41.2495 215.468 40.771 216.01 40.4341C216.557 40.0972 217.18 39.9287 217.878 39.9287C218.957 39.9287 219.829 40.3022 220.493 41.0493C221.162 41.7964 221.496 42.79 221.496 44.0303V44.1255C221.496 44.897 221.347 45.5903 221.049 46.2056C220.756 46.8159 220.334 47.292 219.782 47.6338C219.235 47.9756 218.605 48.1465 217.893 48.1465C216.818 48.1465 215.947 47.7729 215.278 47.0259C214.614 46.2788 214.282 45.29 214.282 44.0596V43.9644ZM215.644 44.1255C215.644 45.0044 215.847 45.71 216.252 46.2422C216.662 46.7744 217.209 47.0405 217.893 47.0405C218.581 47.0405 219.128 46.772 219.533 46.2349C219.938 45.6929 220.141 44.936 220.141 43.9644C220.141 43.0952 219.934 42.3921 219.519 41.855C219.108 41.313 218.562 41.042 217.878 41.042C217.209 41.042 216.669 41.3081 216.259 41.8403C215.849 42.3726 215.644 43.1343 215.644 44.1255ZM228.322 40.0752H229.677V48H228.322V42.2212L224.667 48H223.312V40.0752H224.667V45.8613L228.322 40.0752ZM228.688 37.1895C228.688 37.7803 228.486 38.2563 228.081 38.6177C227.68 38.9741 227.153 39.1523 226.499 39.1523C225.844 39.1523 225.314 38.9717 224.909 38.6104C224.504 38.249 224.301 37.7754 224.301 37.1895H225.407C225.407 37.5312 225.5 37.7998 225.686 37.9951C225.871 38.1855 226.142 38.2808 226.499 38.2808C226.84 38.2808 227.106 38.1855 227.297 37.9951C227.492 37.8047 227.59 37.5361 227.59 37.1895H228.688ZM238.042 44.6235H237.053V48H235.69V40.0752H237.053V43.4297H237.939L240.605 40.0752H242.246L239.111 43.8838L242.509 48H240.788L238.042 44.6235ZM248.566 48C248.488 47.8438 248.425 47.5654 248.376 47.165C247.746 47.8193 246.994 48.1465 246.12 48.1465C245.339 48.1465 244.697 47.9268 244.194 47.4873C243.696 47.043 243.447 46.4814 243.447 45.8027C243.447 44.9775 243.759 44.3379 244.384 43.8838C245.014 43.4248 245.898 43.1953 247.036 43.1953H248.354V42.5728C248.354 42.0991 248.212 41.7231 247.929 41.4448C247.646 41.1616 247.229 41.02 246.677 41.02C246.193 41.02 245.788 41.1421 245.461 41.3862C245.134 41.6304 244.97 41.9258 244.97 42.2725H243.608C243.608 41.877 243.747 41.4961 244.025 41.1299C244.309 40.7588 244.689 40.4658 245.168 40.251C245.651 40.0361 246.181 39.9287 246.757 39.9287C247.67 39.9287 248.386 40.1582 248.903 40.6172C249.421 41.0713 249.689 41.6987 249.709 42.4995V46.147C249.709 46.8745 249.802 47.4531 249.987 47.8828V48H248.566ZM246.318 46.9673C246.743 46.9673 247.146 46.8574 247.526 46.6377C247.907 46.418 248.183 46.1323 248.354 45.7808V44.1548H247.292C245.632 44.1548 244.802 44.6406 244.802 45.6123C244.802 46.0371 244.943 46.3691 245.227 46.6084C245.51 46.8477 245.874 46.9673 246.318 46.9673ZM258.527 44.1255C258.527 45.3315 258.251 46.3032 257.7 47.0405C257.148 47.7778 256.401 48.1465 255.458 48.1465C254.497 48.1465 253.74 47.8413 253.188 47.231V51.0469H251.833V40.0752H253.071L253.137 40.9541C253.688 40.2705 254.455 39.9287 255.437 39.9287C256.389 39.9287 257.141 40.2876 257.692 41.0054C258.249 41.7231 258.527 42.7217 258.527 44.001V44.1255ZM257.172 43.9717C257.172 43.0781 256.982 42.3726 256.601 41.855C256.22 41.3374 255.698 41.0786 255.034 41.0786C254.213 41.0786 253.598 41.4424 253.188 42.1699V45.9565C253.593 46.6792 254.213 47.0405 255.048 47.0405C255.698 47.0405 256.213 46.7842 256.594 46.2715C256.979 45.7539 257.172 44.9873 257.172 43.9717ZM265.559 41.1738H262.9V48H261.545V41.1738H258.938V40.0752H265.559V41.1738ZM266.21 43.9644C266.21 43.188 266.362 42.4897 266.665 41.8696C266.972 41.2495 267.397 40.771 267.939 40.4341C268.486 40.0972 269.108 39.9287 269.807 39.9287C270.886 39.9287 271.757 40.3022 272.421 41.0493C273.09 41.7964 273.425 42.79 273.425 44.0303V44.1255C273.425 44.897 273.276 45.5903 272.978 46.2056C272.685 46.8159 272.263 47.292 271.711 47.6338C271.164 47.9756 270.534 48.1465 269.821 48.1465C268.747 48.1465 267.875 47.7729 267.207 47.0259C266.542 46.2788 266.21 45.29 266.21 44.0596V43.9644ZM267.573 44.1255C267.573 45.0044 267.775 45.71 268.181 46.2422C268.591 46.7744 269.138 47.0405 269.821 47.0405C270.51 47.0405 271.057 46.772 271.462 46.2349C271.867 45.6929 272.07 44.936 272.07 43.9644C272.07 43.0952 271.862 42.3921 271.447 41.855C271.037 41.313 270.49 41.042 269.807 41.042C269.138 41.042 268.598 41.3081 268.188 41.8403C267.778 42.3726 267.573 43.1343 267.573 44.1255ZM280.251 40.0752H281.606V48H280.251V42.2212L276.596 48H275.241V40.0752H276.596V45.8613L280.251 40.0752ZM280.617 37.1895C280.617 37.7803 280.415 38.2563 280.009 38.6177C279.609 38.9741 279.082 39.1523 278.427 39.1523C277.773 39.1523 277.243 38.9717 276.838 38.6104C276.433 38.249 276.23 37.7754 276.23 37.1895H277.336C277.336 37.5312 277.429 37.7998 277.614 37.9951C277.8 38.1855 278.071 38.2808 278.427 38.2808C278.769 38.2808 279.035 38.1855 279.226 37.9951C279.421 37.8047 279.519 37.5361 279.519 37.1895H280.617Z" fill="#656565"/>
<path d="M35.7095 93.7607H31.2534V96.5283H33.5513C34.5161 96.541 35.2694 96.7886 35.811 97.271C36.3527 97.7534 36.6235 98.4093 36.6235 99.2388C36.6235 100.072 36.3506 100.737 35.8047 101.232C35.2588 101.727 34.514 101.983 33.5703 102H30.0283V92.7578H35.7095V93.7607ZM31.2534 97.5312V101.003H33.4814C34.0866 101.003 34.5563 100.843 34.8906 100.521C35.2292 100.199 35.3984 99.7677 35.3984 99.2261C35.3984 98.7056 35.2355 98.2951 34.9097 97.9946C34.5881 97.6942 34.1289 97.5397 33.5322 97.5312H31.2534ZM39.3721 97.4995H41.1558C41.9344 97.508 42.5501 97.7111 43.0029 98.1089C43.4557 98.5067 43.6821 99.0462 43.6821 99.7275C43.6821 100.413 43.4494 100.963 42.9839 101.378C42.5184 101.793 41.8921 102 41.105 102H38.1978V95.1318H39.3721V97.4995ZM46.1323 102H44.9517V95.1318H46.1323V102ZM39.3721 98.458V101.042H41.1177C41.5578 101.042 41.8984 100.929 42.1396 100.705C42.3809 100.477 42.5015 100.166 42.5015 99.772C42.5015 99.3911 42.383 99.0801 42.146 98.8389C41.9132 98.5934 41.5853 98.4665 41.1621 98.458H39.3721ZM50.9375 101.168C51.3564 101.168 51.7225 101.042 52.0356 100.788C52.3488 100.534 52.5223 100.216 52.5562 99.8354H53.667C53.6458 100.229 53.5104 100.604 53.2607 100.959C53.0111 101.314 52.6768 101.598 52.2578 101.81C51.8431 102.021 51.403 102.127 50.9375 102.127C50.0023 102.127 49.2575 101.816 48.7031 101.194C48.153 100.568 47.8779 99.7127 47.8779 98.6294V98.4326C47.8779 97.764 48.0007 97.1694 48.2461 96.6489C48.4915 96.1284 48.8428 95.7243 49.2998 95.4365C49.7611 95.1488 50.3049 95.0049 50.9312 95.0049C51.7013 95.0049 52.3403 95.2355 52.8481 95.6968C53.3602 96.158 53.6331 96.7568 53.667 97.4932H52.5562C52.5223 97.0488 52.353 96.6849 52.0483 96.4014C51.7479 96.1136 51.3755 95.9697 50.9312 95.9697C50.3345 95.9697 49.8711 96.1855 49.541 96.6172C49.2152 97.0446 49.0522 97.6646 49.0522 98.4771V98.6992C49.0522 99.4906 49.2152 100.1 49.541 100.527C49.8669 100.955 50.3324 101.168 50.9375 101.168ZM60.0908 96.084H57.7866V102H56.6123V96.084H54.3525V95.1318H60.0908V96.084ZM67.0352 98.6421C67.0352 99.6873 66.7961 100.529 66.3179 101.168C65.8397 101.807 65.1922 102.127 64.3755 102.127C63.5418 102.127 62.8859 101.862 62.4077 101.333V104.641H61.2334V95.1318H62.3062L62.3633 95.8936C62.8415 95.3011 63.5059 95.0049 64.3564 95.0049C65.1816 95.0049 65.8333 95.3159 66.3115 95.938C66.7939 96.5601 67.0352 97.4255 67.0352 98.5342V98.6421ZM65.8608 98.5088C65.8608 97.7344 65.6958 97.1229 65.3657 96.6743C65.0356 96.2257 64.5828 96.0015 64.0073 96.0015C63.2964 96.0015 62.7632 96.3167 62.4077 96.9473V100.229C62.759 100.855 63.2964 101.168 64.02 101.168C64.5828 101.168 65.0293 100.946 65.3594 100.502C65.6937 100.053 65.8608 99.389 65.8608 98.5088ZM68.2222 98.5024C68.2222 97.8296 68.3534 97.2244 68.6157 96.687C68.8823 96.1496 69.2505 95.7349 69.7202 95.4429C70.1942 95.1509 70.7337 95.0049 71.3389 95.0049C72.2741 95.0049 73.0295 95.3286 73.605 95.9761C74.1847 96.6235 74.4746 97.4847 74.4746 98.5596V98.6421C74.4746 99.3107 74.3455 99.9116 74.0874 100.445C73.8335 100.974 73.4674 101.386 72.9893 101.683C72.5153 101.979 71.9694 102.127 71.3516 102.127C70.4206 102.127 69.6652 101.803 69.0854 101.156C68.5099 100.508 68.2222 99.6514 68.2222 98.585V98.5024ZM69.4028 98.6421C69.4028 99.4038 69.5785 100.015 69.9297 100.477C70.2852 100.938 70.7591 101.168 71.3516 101.168C71.9482 101.168 72.4222 100.936 72.7734 100.47C73.1247 100 73.3003 99.3446 73.3003 98.5024C73.3003 97.7492 73.1204 97.1398 72.7607 96.6743C72.4053 96.2046 71.9313 95.9697 71.3389 95.9697C70.7591 95.9697 70.2915 96.2004 69.936 96.6616C69.5806 97.1229 69.4028 97.783 69.4028 98.6421ZM75.9727 101.384C75.9727 101.181 76.0319 101.012 76.1504 100.876C76.2731 100.741 76.4551 100.673 76.6963 100.673C76.9375 100.673 77.1195 100.741 77.2422 100.876C77.3691 101.012 77.4326 101.181 77.4326 101.384C77.4326 101.579 77.3691 101.742 77.2422 101.873C77.1195 102.004 76.9375 102.07 76.6963 102.07C76.4551 102.07 76.2731 102.004 76.1504 101.873C76.0319 101.742 75.9727 101.579 75.9727 101.384ZM82.7837 102V92.7578H85.8052C86.8081 92.7578 87.5614 92.9652 88.0649 93.3799C88.5728 93.7946 88.8267 94.4082 88.8267 95.2207C88.8267 95.6523 88.7039 96.0353 88.4585 96.3696C88.2131 96.6997 87.8787 96.9557 87.4556 97.1377C87.9549 97.2773 88.3485 97.5439 88.6362 97.9375C88.9282 98.3268 89.0742 98.7923 89.0742 99.334C89.0742 100.163 88.8055 100.815 88.2681 101.289C87.7306 101.763 86.971 102 85.9893 102H82.7837ZM84.0024 97.6772V101.003H86.0146C86.5817 101.003 87.0282 100.857 87.354 100.565C87.6841 100.269 87.8491 99.863 87.8491 99.3467C87.8491 98.2337 87.244 97.6772 86.0337 97.6772H84.0024ZM84.0024 96.6997H85.8433C86.3765 96.6997 86.8018 96.5664 87.1191 96.2998C87.4408 96.0332 87.6016 95.6714 87.6016 95.2144C87.6016 94.7065 87.4535 94.3384 87.1572 94.1099C86.861 93.8771 86.4103 93.7607 85.8052 93.7607H84.0024V96.6997ZM91.9814 97.4995H93.7651C94.5438 97.508 95.1595 97.7111 95.6123 98.1089C96.0651 98.5067 96.2915 99.0462 96.2915 99.7275C96.2915 100.413 96.0588 100.963 95.5933 101.378C95.1278 101.793 94.5015 102 93.7144 102H90.8071V95.1318H91.9814V97.4995ZM98.7417 102H97.561V95.1318H98.7417V102ZM91.9814 98.458V101.042H93.7271C94.1672 101.042 94.5078 100.929 94.749 100.705C94.9902 100.477 95.1108 100.166 95.1108 99.772C95.1108 99.3911 94.9924 99.0801 94.7554 98.8389C94.5226 98.5934 94.1947 98.4665 93.7715 98.458H91.9814ZM105.229 96.103H102.062V102H100.881V95.1318H105.229V96.103ZM105.813 98.5024C105.813 97.8296 105.944 97.2244 106.207 96.687C106.473 96.1496 106.841 95.7349 107.311 95.4429C107.785 95.1509 108.325 95.0049 108.93 95.0049C109.865 95.0049 110.62 95.3286 111.196 95.9761C111.776 96.6235 112.065 97.4847 112.065 98.5596V98.6421C112.065 99.3107 111.936 99.9116 111.678 100.445C111.424 100.974 111.058 101.386 110.58 101.683C110.106 101.979 109.56 102.127 108.942 102.127C108.011 102.127 107.256 101.803 106.676 101.156C106.101 100.508 105.813 99.6514 105.813 98.585V98.5024ZM106.994 98.6421C106.994 99.4038 107.169 100.015 107.521 100.477C107.876 100.938 108.35 101.168 108.942 101.168C109.539 101.168 110.013 100.936 110.364 100.47C110.715 100 110.891 99.3446 110.891 98.5024C110.891 97.7492 110.711 97.1398 110.352 96.6743C109.996 96.2046 109.522 95.9697 108.93 95.9697C108.35 95.9697 107.882 96.2004 107.527 96.6616C107.171 97.1229 106.994 97.783 106.994 98.6421ZM113.024 101.042L113.43 100.54C113.887 99.9476 114.147 99.0589 114.211 97.874L114.319 95.1318H118.743V101.042H119.625V104.019H118.451V102H113.659V104.019H112.484L112.491 101.042H113.024ZM114.414 101.042H117.569V96.2173H115.455L115.385 97.855C115.313 99.2218 114.99 100.284 114.414 101.042ZM126.538 102H125.364V99.0674H122.209V102H121.028V95.1318H122.209V98.1089H125.364V95.1318H126.538V102ZM128.119 98.5024C128.119 97.8296 128.25 97.2244 128.512 96.687C128.779 96.1496 129.147 95.7349 129.617 95.4429C130.091 95.1509 130.63 95.0049 131.235 95.0049C132.171 95.0049 132.926 95.3286 133.501 95.9761C134.081 96.6235 134.371 97.4847 134.371 98.5596V98.6421C134.371 99.3107 134.242 99.9116 133.984 100.445C133.73 100.974 133.364 101.386 132.886 101.683C132.412 101.979 131.866 102.127 131.248 102.127C130.317 102.127 129.562 101.803 128.982 101.156C128.406 100.508 128.119 99.6514 128.119 98.585V98.5024ZM129.299 98.6421C129.299 99.4038 129.475 100.015 129.826 100.477C130.182 100.938 130.656 101.168 131.248 101.168C131.845 101.168 132.319 100.936 132.67 100.47C133.021 100 133.197 99.3446 133.197 98.5024C133.197 97.7492 133.017 97.1398 132.657 96.6743C132.302 96.2046 131.828 95.9697 131.235 95.9697C130.656 95.9697 130.188 96.2004 129.833 96.6616C129.477 97.1229 129.299 97.783 129.299 98.6421ZM135.869 101.384C135.869 101.181 135.928 101.012 136.047 100.876C136.17 100.741 136.352 100.673 136.593 100.673C136.834 100.673 137.016 100.741 137.139 100.876C137.266 101.012 137.329 101.181 137.329 101.384C137.329 101.579 137.266 101.742 137.139 101.873C137.016 102.004 136.834 102.07 136.593 102.07C136.352 102.07 136.17 102.004 136.047 101.873C135.928 101.742 135.869 101.579 135.869 101.384ZM145.854 98.1216L147.98 92.7578H149.396L146.127 100.458C145.907 100.948 145.702 101.298 145.511 101.505C145.321 101.708 145.097 101.865 144.838 101.975C144.584 102.08 144.265 102.133 143.88 102.133C143.546 102.133 143.332 102.114 143.239 102.076L143.277 101.111L143.854 101.137C144.299 101.137 144.629 100.923 144.845 100.496L145.003 100.166L145.245 99.6006L142.096 92.7578H143.461L145.854 98.1216ZM150.082 101.042L150.488 100.54C150.945 99.9476 151.205 99.0589 151.269 97.874L151.376 95.1318H155.801V101.042H156.683V104.019H155.509V102H150.716V104.019H149.542L149.548 101.042H150.082ZM151.472 101.042H154.626V96.2173H152.513L152.443 97.855C152.371 99.2218 152.047 100.284 151.472 101.042ZM157.673 98.5024C157.673 97.8296 157.805 97.2244 158.067 96.687C158.333 96.1496 158.702 95.7349 159.171 95.4429C159.645 95.1509 160.185 95.0049 160.79 95.0049C161.725 95.0049 162.481 95.3286 163.056 95.9761C163.636 96.6235 163.926 97.4847 163.926 98.5596V98.6421C163.926 99.3107 163.797 99.9116 163.539 100.445C163.285 100.974 162.919 101.386 162.44 101.683C161.966 101.979 161.421 102.127 160.803 102.127C159.872 102.127 159.116 101.803 158.537 101.156C157.961 100.508 157.673 99.6514 157.673 98.585V98.5024ZM158.854 98.6421C158.854 99.4038 159.03 100.015 159.381 100.477C159.736 100.938 160.21 101.168 160.803 101.168C161.399 101.168 161.873 100.936 162.225 100.47C162.576 100 162.751 99.3446 162.751 98.5024C162.751 97.7492 162.572 97.1398 162.212 96.6743C161.856 96.2046 161.382 95.9697 160.79 95.9697C160.21 95.9697 159.743 96.2004 159.387 96.6616C159.032 97.1229 158.854 97.783 158.854 98.6421ZM168.414 95.5254C169.277 95.5254 169.967 95.8153 170.483 96.395C171.003 96.9705 171.264 97.7301 171.264 98.6738V98.7817C171.264 99.4292 171.139 100.009 170.889 100.521C170.639 101.029 170.28 101.424 169.81 101.708C169.345 101.987 168.807 102.127 168.198 102.127C167.275 102.127 166.533 101.82 165.97 101.207C165.407 100.589 165.125 99.7614 165.125 98.7246V98.1533C165.125 96.7103 165.392 95.5635 165.925 94.7129C166.463 93.8623 167.254 93.3439 168.299 93.1577C168.892 93.0519 169.292 92.9229 169.499 92.7705C169.706 92.6182 169.81 92.4087 169.81 92.1421H170.775C170.775 92.6711 170.654 93.0837 170.413 93.3799C170.176 93.6761 169.795 93.8856 169.271 94.0083L168.395 94.2051C167.696 94.3701 167.172 94.6494 166.82 95.043C166.473 95.4323 166.247 95.9528 166.141 96.6045C166.763 95.8851 167.521 95.5254 168.414 95.5254ZM168.185 96.4902C167.61 96.4902 167.153 96.6849 166.814 97.0742C166.475 97.4593 166.306 97.9946 166.306 98.6802V98.7817C166.306 99.5181 166.475 100.102 166.814 100.534C167.157 100.961 167.618 101.175 168.198 101.175C168.782 101.175 169.243 100.959 169.582 100.527C169.92 100.096 170.089 99.4652 170.089 98.6357C170.089 97.9883 169.918 97.4699 169.575 97.0806C169.237 96.687 168.773 96.4902 168.185 96.4902ZM178.081 102H176.907V99.0674H173.752V102H172.571V95.1318H173.752V98.1089H176.907V95.1318H178.081V102ZM179.662 98.5024C179.662 97.8296 179.793 97.2244 180.055 96.687C180.322 96.1496 180.69 95.7349 181.16 95.4429C181.634 95.1509 182.173 95.0049 182.778 95.0049C183.714 95.0049 184.469 95.3286 185.044 95.9761C185.624 96.6235 185.914 97.4847 185.914 98.5596V98.6421C185.914 99.3107 185.785 99.9116 185.527 100.445C185.273 100.974 184.907 101.386 184.429 101.683C183.955 101.979 183.409 102.127 182.791 102.127C181.86 102.127 181.105 101.803 180.525 101.156C179.949 100.508 179.662 99.6514 179.662 98.585V98.5024ZM180.842 98.6421C180.842 99.4038 181.018 100.015 181.369 100.477C181.725 100.938 182.199 101.168 182.791 101.168C183.388 101.168 183.862 100.936 184.213 100.47C184.564 100 184.74 99.3446 184.74 98.5024C184.74 97.7492 184.56 97.1398 184.2 96.6743C183.845 96.2046 183.371 95.9697 182.778 95.9697C182.199 95.9697 181.731 96.2004 181.375 96.6616C181.02 97.1229 180.842 97.783 180.842 98.6421ZM187.412 101.384C187.412 101.181 187.471 101.012 187.59 100.876C187.713 100.741 187.895 100.673 188.136 100.673C188.377 100.673 188.559 100.741 188.682 100.876C188.809 101.012 188.872 101.181 188.872 101.384C188.872 101.579 188.809 101.742 188.682 101.873C188.559 102.004 188.377 102.07 188.136 102.07C187.895 102.07 187.713 102.004 187.59 101.873C187.471 101.742 187.412 101.579 187.412 101.384ZM199.86 93.7607H195.404V96.5283H197.702C198.667 96.541 199.42 96.7886 199.961 97.271C200.503 97.7534 200.774 98.4093 200.774 99.2388C200.774 100.072 200.501 100.737 199.955 101.232C199.409 101.727 198.664 101.983 197.721 102H194.179V92.7578H199.86V93.7607ZM195.404 97.5312V101.003H197.632C198.237 101.003 198.707 100.843 199.041 100.521C199.38 100.199 199.549 99.7677 199.549 99.2261C199.549 98.7056 199.386 98.2951 199.06 97.9946C198.738 97.6942 198.279 97.5397 197.683 97.5312H195.404ZM205.09 102.127C204.159 102.127 203.402 101.822 202.818 101.213C202.234 100.599 201.942 99.7804 201.942 98.7563V98.5405C201.942 97.8592 202.071 97.252 202.329 96.7188C202.591 96.1813 202.955 95.7624 203.421 95.4619C203.891 95.1572 204.398 95.0049 204.944 95.0049C205.837 95.0049 206.531 95.299 207.026 95.8872C207.521 96.4754 207.769 97.3175 207.769 98.4136V98.9023H203.116C203.133 99.5794 203.33 100.127 203.707 100.546C204.087 100.961 204.57 101.168 205.154 101.168C205.569 101.168 205.92 101.084 206.208 100.915C206.495 100.745 206.747 100.521 206.963 100.242L207.68 100.8C207.105 101.685 206.241 102.127 205.09 102.127ZM204.944 95.9697C204.47 95.9697 204.073 96.1432 203.751 96.4902C203.429 96.833 203.23 97.3154 203.154 97.9375H206.595V97.8486C206.561 97.252 206.4 96.7907 206.112 96.4648C205.825 96.1348 205.435 95.9697 204.944 95.9697ZM212.911 97.0107C212.911 96.6891 212.788 96.4352 212.542 96.249C212.297 96.0586 211.961 95.9634 211.533 95.9634C211.118 95.9634 210.771 96.0713 210.492 96.2871C210.217 96.5029 210.08 96.7568 210.08 97.0488H208.912C208.912 96.4521 209.161 95.9634 209.661 95.5825C210.16 95.2017 210.784 95.0112 211.533 95.0112C212.337 95.0112 212.964 95.1847 213.412 95.5317C213.861 95.8745 214.085 96.3654 214.085 97.0044C214.085 97.3133 213.992 97.5968 213.806 97.855C213.619 98.1131 213.355 98.3184 213.012 98.4707C213.812 98.7415 214.212 99.2747 214.212 100.07C214.212 100.701 213.969 101.2 213.482 101.568C212.995 101.937 212.346 102.121 211.533 102.121C210.742 102.121 210.088 101.928 209.572 101.543C209.06 101.154 208.804 100.629 208.804 99.9688H209.972C209.972 100.303 210.12 100.591 210.416 100.832C210.716 101.069 211.089 101.188 211.533 101.188C211.982 101.188 212.344 101.084 212.619 100.876C212.894 100.669 213.031 100.4 213.031 100.07C213.031 99.6852 212.915 99.4102 212.682 99.2451C212.454 99.0758 212.096 98.9912 211.609 98.9912H210.435V98.001H211.711C212.511 97.9798 212.911 97.6497 212.911 97.0107ZM224.578 102H223.403V96.103H220.242V102H219.062V95.1318H224.578V102ZM229.313 102.127C228.382 102.127 227.625 101.822 227.041 101.213C226.457 100.599 226.165 99.7804 226.165 98.7563V98.5405C226.165 97.8592 226.294 97.252 226.552 96.7188C226.814 96.1813 227.178 95.7624 227.644 95.4619C228.113 95.1572 228.621 95.0049 229.167 95.0049C230.06 95.0049 230.754 95.299 231.249 95.8872C231.744 96.4754 231.992 97.3175 231.992 98.4136V98.9023H227.339C227.356 99.5794 227.553 100.127 227.929 100.546C228.31 100.961 228.792 101.168 229.376 101.168C229.791 101.168 230.142 101.084 230.43 100.915C230.718 100.745 230.97 100.521 231.186 100.242L231.903 100.8C231.327 101.685 230.464 102.127 229.313 102.127ZM229.167 95.9697C228.693 95.9697 228.295 96.1432 227.974 96.4902C227.652 96.833 227.453 97.3154 227.377 97.9375H230.817V97.8486C230.784 97.252 230.623 96.7907 230.335 96.4648C230.047 96.1348 229.658 95.9697 229.167 95.9697ZM239.158 98.6421C239.158 99.6873 238.919 100.529 238.441 101.168C237.963 101.807 237.315 102.127 236.499 102.127C235.665 102.127 235.009 101.862 234.531 101.333V104.641H233.356V95.1318H234.429L234.486 95.8936C234.965 95.3011 235.629 95.0049 236.479 95.0049C237.305 95.0049 237.956 95.3159 238.435 95.938C238.917 96.5601 239.158 97.4255 239.158 98.5342V98.6421ZM237.984 98.5088C237.984 97.7344 237.819 97.1229 237.489 96.6743C237.159 96.2257 236.706 96.0015 236.13 96.0015C235.419 96.0015 234.886 96.3167 234.531 96.9473V100.229C234.882 100.855 235.419 101.168 236.143 101.168C236.706 101.168 237.152 100.946 237.482 100.502C237.817 100.053 237.984 99.389 237.984 98.5088ZM243.506 102.127C242.575 102.127 241.818 101.822 241.234 101.213C240.65 100.599 240.358 99.7804 240.358 98.7563V98.5405C240.358 97.8592 240.487 97.252 240.745 96.7188C241.007 96.1813 241.371 95.7624 241.837 95.4619C242.307 95.1572 242.814 95.0049 243.36 95.0049C244.253 95.0049 244.947 95.299 245.442 95.8872C245.938 96.4754 246.185 97.3175 246.185 98.4136V98.9023H241.532C241.549 99.5794 241.746 100.127 242.123 100.546C242.503 100.961 242.986 101.168 243.57 101.168C243.985 101.168 244.336 101.084 244.624 100.915C244.911 100.745 245.163 100.521 245.379 100.242L246.096 100.8C245.521 101.685 244.657 102.127 243.506 102.127ZM243.36 95.9697C242.886 95.9697 242.489 96.1432 242.167 96.4902C241.845 96.833 241.646 97.3154 241.57 97.9375H245.011V97.8486C244.977 97.252 244.816 96.7907 244.528 96.4648C244.241 96.1348 243.851 95.9697 243.36 95.9697ZM253.167 102H251.993V96.103H248.832V102H247.651V95.1318H253.167V102ZM260.683 95.1318V102H259.502V96.103H257.167L257.027 98.6738C256.951 99.8545 256.752 100.699 256.43 101.207C256.113 101.714 255.607 101.979 254.913 102H254.443V100.965L254.78 100.94C255.161 100.898 255.434 100.678 255.599 100.28C255.764 99.882 255.869 99.1457 255.916 98.0708L256.043 95.1318H260.683ZM266.809 102C266.741 101.865 266.686 101.623 266.644 101.276C266.098 101.843 265.446 102.127 264.688 102.127C264.011 102.127 263.455 101.937 263.019 101.556C262.587 101.171 262.372 100.684 262.372 100.096C262.372 99.3805 262.642 98.8262 263.184 98.4326C263.73 98.0348 264.496 97.8359 265.482 97.8359H266.625V97.2964C266.625 96.8859 266.502 96.5601 266.256 96.3188C266.011 96.0734 265.649 95.9507 265.171 95.9507C264.752 95.9507 264.401 96.0565 264.117 96.2681C263.834 96.4797 263.692 96.7357 263.692 97.0361H262.511C262.511 96.6934 262.632 96.3633 262.873 96.0459C263.118 95.7243 263.449 95.4704 263.863 95.2842C264.282 95.098 264.741 95.0049 265.241 95.0049C266.032 95.0049 266.652 95.2038 267.101 95.6016C267.549 95.9951 267.782 96.5389 267.799 97.2329V100.394C267.799 101.025 267.879 101.526 268.04 101.898V102H266.809ZM264.86 101.105C265.228 101.105 265.577 101.01 265.907 100.819C266.237 100.629 266.476 100.381 266.625 100.077V98.6675H265.704C264.265 98.6675 263.546 99.0885 263.546 99.9307C263.546 100.299 263.669 100.587 263.914 100.794C264.16 101.001 264.475 101.105 264.86 101.105ZM274.642 96.084H272.337V102H271.163V96.084H268.903V95.1318H274.642V96.084ZM275.81 101.384C275.81 101.181 275.869 101.012 275.987 100.876C276.11 100.741 276.292 100.673 276.533 100.673C276.774 100.673 276.956 100.741 277.079 100.876C277.206 101.012 277.27 101.181 277.27 101.384C277.27 101.579 277.206 101.742 277.079 101.873C276.956 102.004 276.774 102.07 276.533 102.07C276.292 102.07 276.11 102.004 275.987 101.873C275.869 101.742 275.81 101.579 275.81 101.384ZM289.679 102H288.454V93.7607H283.896V102H282.678V92.7578H289.679V102ZM291.406 98.5024C291.406 97.8296 291.537 97.2244 291.799 96.687C292.066 96.1496 292.434 95.7349 292.904 95.4429C293.378 95.1509 293.917 95.0049 294.522 95.0049C295.458 95.0049 296.213 95.3286 296.789 95.9761C297.368 96.6235 297.658 97.4847 297.658 98.5596V98.6421C297.658 99.3107 297.529 99.9116 297.271 100.445C297.017 100.974 296.651 101.386 296.173 101.683C295.699 101.979 295.153 102.127 294.535 102.127C293.604 102.127 292.849 101.803 292.269 101.156C291.694 100.508 291.406 99.6514 291.406 98.585V98.5024ZM292.586 98.6421C292.586 99.4038 292.762 100.015 293.113 100.477C293.469 100.938 293.943 101.168 294.535 101.168C295.132 101.168 295.606 100.936 295.957 100.47C296.308 100 296.484 99.3446 296.484 98.5024C296.484 97.7492 296.304 97.1398 295.944 96.6743C295.589 96.2046 295.115 95.9697 294.522 95.9697C293.943 95.9697 293.475 96.2004 293.12 96.6616C292.764 97.1229 292.586 97.783 292.586 98.6421ZM298.617 101.042L299.023 100.54C299.48 99.9476 299.74 99.0589 299.804 97.874L299.912 95.1318H304.336V101.042H305.218V104.019H304.044V102H299.251V104.019H298.077L298.083 101.042H298.617ZM300.007 101.042H303.162V96.2173H301.048L300.978 97.855C300.906 99.2218 300.582 100.284 300.007 101.042ZM312.321 98.6421C312.321 99.6873 312.082 100.529 311.604 101.168C311.126 101.807 310.478 102.127 309.662 102.127C308.828 102.127 308.172 101.862 307.694 101.333V104.641H306.52V95.1318H307.592L307.649 95.8936C308.128 95.3011 308.792 95.0049 309.643 95.0049C310.468 95.0049 311.119 95.3159 311.598 95.938C312.08 96.5601 312.321 97.4255 312.321 98.5342V98.6421ZM311.147 98.5088C311.147 97.7344 310.982 97.1229 310.652 96.6743C310.322 96.2257 309.869 96.0015 309.293 96.0015C308.583 96.0015 308.049 96.3167 307.694 96.9473V100.229C308.045 100.855 308.583 101.168 309.306 101.168C309.869 101.168 310.315 100.946 310.646 100.502C310.98 100.053 311.147 99.389 311.147 98.5088ZM313.508 98.5024C313.508 97.8296 313.639 97.2244 313.902 96.687C314.168 96.1496 314.537 95.7349 315.006 95.4429C315.48 95.1509 316.02 95.0049 316.625 95.0049C317.56 95.0049 318.316 95.3286 318.891 95.9761C319.471 96.6235 319.761 97.4847 319.761 98.5596V98.6421C319.761 99.3107 319.632 99.9116 319.374 100.445C319.12 100.974 318.754 101.386 318.275 101.683C317.801 101.979 317.256 102.127 316.638 102.127C315.707 102.127 314.951 101.803 314.372 101.156C313.796 100.508 313.508 99.6514 313.508 98.585V98.5024ZM314.689 98.6421C314.689 99.4038 314.865 100.015 315.216 100.477C315.571 100.938 316.045 101.168 316.638 101.168C317.234 101.168 317.708 100.936 318.06 100.47C318.411 100 318.586 99.3446 318.586 98.5024C318.586 97.7492 318.407 97.1398 318.047 96.6743C317.691 96.2046 317.217 95.9697 316.625 95.9697C316.045 95.9697 315.578 96.2004 315.222 96.6616C314.867 97.1229 314.689 97.783 314.689 98.6421ZM324.249 95.5254C325.112 95.5254 325.802 95.8153 326.318 96.395C326.838 96.9705 327.099 97.7301 327.099 98.6738V98.7817C327.099 99.4292 326.974 100.009 326.724 100.521C326.474 101.029 326.115 101.424 325.645 101.708C325.18 101.987 324.642 102.127 324.033 102.127C323.11 102.127 322.368 101.82 321.805 101.207C321.242 100.589 320.96 99.7614 320.96 98.7246V98.1533C320.96 96.7103 321.227 95.5635 321.76 94.7129C322.298 93.8623 323.089 93.3439 324.134 93.1577C324.727 93.0519 325.127 92.9229 325.334 92.7705C325.541 92.6182 325.645 92.4087 325.645 92.1421H326.61C326.61 92.6711 326.489 93.0837 326.248 93.3799C326.011 93.6761 325.63 93.8856 325.105 94.0083L324.229 94.2051C323.531 94.3701 323.007 94.6494 322.655 95.043C322.308 95.4323 322.082 95.9528 321.976 96.6045C322.598 95.8851 323.356 95.5254 324.249 95.5254ZM324.02 96.4902C323.444 96.4902 322.987 96.6849 322.649 97.0742C322.31 97.4593 322.141 97.9946 322.141 98.6802V98.7817C322.141 99.5181 322.31 100.102 322.649 100.534C322.992 100.961 323.453 101.175 324.033 101.175C324.617 101.175 325.078 100.959 325.417 100.527C325.755 100.096 325.924 99.4652 325.924 98.6357C325.924 97.9883 325.753 97.4699 325.41 97.0806C325.072 96.687 324.608 96.4902 324.02 96.4902ZM333.916 102H332.742V99.0674H329.587V102H328.406V95.1318H329.587V98.1089H332.742V95.1318H333.916V102ZM337.09 97.4995H338.874C339.652 97.508 340.268 97.7111 340.721 98.1089C341.174 98.5067 341.4 99.0462 341.4 99.7275C341.4 100.413 341.167 100.963 340.702 101.378C340.236 101.793 339.61 102 338.823 102H335.916V95.1318H337.09V97.4995ZM343.85 102H342.669V95.1318H343.85V102ZM337.09 98.458V101.042H338.835C339.276 101.042 339.616 100.929 339.857 100.705C340.099 100.477 340.219 100.166 340.219 99.772C340.219 99.3911 340.101 99.0801 339.864 98.8389C339.631 98.5934 339.303 98.4665 338.88 98.458H337.09ZM348.75 102.127C347.819 102.127 347.062 101.822 346.478 101.213C345.894 100.599 345.602 99.7804 345.602 98.7563V98.5405C345.602 97.8592 345.731 97.252 345.989 96.7188C346.252 96.1813 346.616 95.7624 347.081 95.4619C347.551 95.1572 348.059 95.0049 348.604 95.0049C349.497 95.0049 350.191 95.299 350.687 95.8872C351.182 96.4754 351.429 97.3175 351.429 98.4136V98.9023H346.776C346.793 99.5794 346.99 100.127 347.367 100.546C347.748 100.961 348.23 101.168 348.814 101.168C349.229 101.168 349.58 101.084 349.868 100.915C350.155 100.745 350.407 100.521 350.623 100.242L351.34 100.8C350.765 101.685 349.902 102.127 348.75 102.127ZM348.604 95.9697C348.131 95.9697 347.733 96.1432 347.411 96.4902C347.09 96.833 346.891 97.3154 346.814 97.9375H350.255V97.8486C350.221 97.252 350.06 96.7907 349.772 96.4648C349.485 96.1348 349.095 95.9697 348.604 95.9697ZM358.266 100.28L359.865 95.1318H361.122L358.361 103.06C357.933 104.203 357.254 104.774 356.323 104.774L356.101 104.755L355.663 104.672V103.72L355.98 103.746C356.378 103.746 356.687 103.665 356.907 103.504C357.132 103.344 357.316 103.049 357.459 102.622L357.72 101.924L355.27 95.1318H356.552L358.266 100.28ZM364.842 101.168C365.261 101.168 365.627 101.042 365.94 100.788C366.253 100.534 366.427 100.216 366.46 99.8354H367.571C367.55 100.229 367.415 100.604 367.165 100.959C366.915 101.314 366.581 101.598 366.162 101.81C365.747 102.021 365.307 102.127 364.842 102.127C363.907 102.127 363.162 101.816 362.607 101.194C362.057 100.568 361.782 99.7127 361.782 98.6294V98.4326C361.782 97.764 361.905 97.1694 362.15 96.6489C362.396 96.1284 362.747 95.7243 363.204 95.4365C363.665 95.1488 364.209 95.0049 364.835 95.0049C365.606 95.0049 366.245 95.2355 366.752 95.6968C367.264 96.158 367.537 96.7568 367.571 97.4932H366.46C366.427 97.0488 366.257 96.6849 365.953 96.4014C365.652 96.1136 365.28 95.9697 364.835 95.9697C364.239 95.9697 363.775 96.1855 363.445 96.6172C363.119 97.0446 362.957 97.6646 362.957 98.4771V98.6992C362.957 99.4906 363.119 100.1 363.445 100.527C363.771 100.955 364.237 101.168 364.842 101.168ZM374.522 95.1318V102H373.341V96.103H371.005L370.866 98.6738C370.79 99.8545 370.591 100.699 370.269 101.207C369.952 101.714 369.446 101.979 368.752 102H368.282V100.965L368.619 100.94C369 100.898 369.272 100.678 369.438 100.28C369.603 99.882 369.708 99.1457 369.755 98.0708L369.882 95.1318H374.522ZM376.096 98.5024C376.096 97.8296 376.227 97.2244 376.49 96.687C376.756 96.1496 377.125 95.7349 377.594 95.4429C378.068 95.1509 378.608 95.0049 379.213 95.0049C380.148 95.0049 380.903 95.3286 381.479 95.9761C382.059 96.6235 382.349 97.4847 382.349 98.5596V98.6421C382.349 99.3107 382.22 99.9116 381.961 100.445C381.708 100.974 381.341 101.386 380.863 101.683C380.389 101.979 379.843 102.127 379.226 102.127C378.295 102.127 377.539 101.803 376.959 101.156C376.384 100.508 376.096 99.6514 376.096 98.585V98.5024ZM377.277 98.6421C377.277 99.4038 377.452 100.015 377.804 100.477C378.159 100.938 378.633 101.168 379.226 101.168C379.822 101.168 380.296 100.936 380.647 100.47C380.999 100 381.174 99.3446 381.174 98.5024C381.174 97.7492 380.994 97.1398 380.635 96.6743C380.279 96.2046 379.805 95.9697 379.213 95.9697C378.633 95.9697 378.166 96.2004 377.81 96.6616C377.455 97.1229 377.277 97.783 377.277 98.6421ZM383.929 102V95.1318H386.608C387.522 95.1318 388.222 95.2926 388.709 95.6143C389.2 95.9316 389.445 96.3993 389.445 97.0171C389.445 97.3345 389.35 97.6222 389.16 97.8804C388.969 98.1343 388.688 98.3289 388.315 98.4644C388.73 98.5617 389.062 98.7521 389.312 99.0356C389.566 99.3192 389.693 99.6577 389.693 100.051C389.693 100.682 389.46 101.164 388.995 101.499C388.533 101.833 387.88 102 387.033 102H383.929ZM385.104 98.9849V101.054H387.046C387.537 101.054 387.903 100.963 388.144 100.781C388.389 100.599 388.512 100.343 388.512 100.013C388.512 99.3276 388.009 98.9849 387.001 98.9849H385.104ZM385.104 98.0454H386.621C387.721 98.0454 388.271 97.7238 388.271 97.0806C388.271 96.4373 387.75 96.1051 386.709 96.084H385.104V98.0454ZM395.691 95.1318H396.866V102H395.691V96.9917L392.524 102H391.35V95.1318H392.524V100.146L395.691 95.1318ZM404 95.1318V102H402.82V99.3276H401.049L399.43 102H398.161L399.887 99.1499C399.447 98.9891 399.109 98.7415 398.872 98.4072C398.639 98.0687 398.522 97.6751 398.522 97.2266C398.522 96.6003 398.757 96.0967 399.227 95.7158C399.697 95.3307 400.325 95.1361 401.112 95.1318H404ZM399.703 97.2393C399.703 97.5736 399.817 97.8444 400.046 98.0518C400.274 98.2549 400.577 98.3586 400.954 98.3628H402.82V96.084H401.131C400.695 96.084 400.348 96.1919 400.09 96.4077C399.832 96.6193 399.703 96.8965 399.703 97.2393ZM414.728 102H413.554V96.103H410.393V102H409.212V95.1318H414.728V102ZM416.302 98.5024C416.302 97.8296 416.433 97.2244 416.696 96.687C416.962 96.1496 417.331 95.7349 417.8 95.4429C418.274 95.1509 418.814 95.0049 419.419 95.0049C420.354 95.0049 421.11 95.3286 421.685 95.9761C422.265 96.6235 422.555 97.4847 422.555 98.5596V98.6421C422.555 99.3107 422.426 99.9116 422.167 100.445C421.914 100.974 421.548 101.386 421.069 101.683C420.595 101.979 420.049 102.127 419.432 102.127C418.501 102.127 417.745 101.803 417.166 101.156C416.59 100.508 416.302 99.6514 416.302 98.585V98.5024ZM417.483 98.6421C417.483 99.4038 417.659 100.015 418.01 100.477C418.365 100.938 418.839 101.168 419.432 101.168C420.028 101.168 420.502 100.936 420.854 100.47C421.205 100 421.38 99.3446 421.38 98.5024C421.38 97.7492 421.201 97.1398 420.841 96.6743C420.485 96.2046 420.011 95.9697 419.419 95.9697C418.839 95.9697 418.372 96.2004 418.016 96.6616C417.661 97.1229 417.483 97.783 417.483 98.6421ZM472.308 101.384C472.308 101.181 472.367 101.012 472.485 100.876C472.608 100.741 472.79 100.673 473.031 100.673C473.272 100.673 473.454 100.741 473.577 100.876C473.704 101.012 473.768 101.181 473.768 101.384C473.768 101.579 473.704 101.742 473.577 101.873C473.454 102.004 473.272 102.07 473.031 102.07C472.79 102.07 472.608 102.004 472.485 101.873C472.367 101.742 472.308 101.579 472.308 101.384ZM554.668 101.042L555.075 100.54C555.532 99.9476 555.792 99.0589 555.855 97.874L555.963 95.1318H560.388V101.042H561.27V104.019H560.096V102H555.303V104.019H554.129L554.135 101.042H554.668ZM556.059 101.042H559.213V96.2173H557.1L557.03 97.855C556.958 99.2218 556.634 100.284 556.059 101.042ZM568.202 95.1318V102H567.021V96.103H564.685L564.545 98.6738C564.469 99.8545 564.27 100.699 563.949 101.207C563.631 101.714 563.126 101.979 562.432 102H561.962V100.965L562.298 100.94C562.679 100.898 562.952 100.678 563.117 100.28C563.282 99.882 563.388 99.1457 563.435 98.0708L563.562 95.1318H568.202ZM575.336 95.1318V102H574.156V99.3276H572.385L570.766 102H569.497L571.223 99.1499C570.783 98.9891 570.444 98.7415 570.208 98.4072C569.975 98.0687 569.858 97.6751 569.858 97.2266C569.858 96.6003 570.093 96.0967 570.563 95.7158C571.033 95.3307 571.661 95.1361 572.448 95.1318H575.336ZM571.039 97.2393C571.039 97.5736 571.153 97.8444 571.382 98.0518C571.61 98.2549 571.913 98.3586 572.29 98.3628H574.156V96.084H572.467C572.031 96.084 571.684 96.1919 571.426 96.4077C571.168 96.6193 571.039 96.8965 571.039 97.2393ZM586.064 102H584.89V96.103H581.729V102H580.548V95.1318H586.064V102ZM592.189 102C592.122 101.865 592.067 101.623 592.024 101.276C591.479 101.843 590.827 102.127 590.069 102.127C589.392 102.127 588.836 101.937 588.4 101.556C587.968 101.171 587.752 100.684 587.752 100.096C587.752 99.3805 588.023 98.8262 588.565 98.4326C589.111 98.0348 589.877 97.8359 590.863 97.8359H592.005V97.2964C592.005 96.8859 591.883 96.5601 591.637 96.3188C591.392 96.0734 591.03 95.9507 590.552 95.9507C590.133 95.9507 589.782 96.0565 589.498 96.2681C589.215 96.4797 589.073 96.7357 589.073 97.0361H587.892C587.892 96.6934 588.013 96.3633 588.254 96.0459C588.499 95.7243 588.829 95.4704 589.244 95.2842C589.663 95.098 590.122 95.0049 590.622 95.0049C591.413 95.0049 592.033 95.2038 592.481 95.6016C592.93 95.9951 593.163 96.5389 593.18 97.2329V100.394C593.18 101.025 593.26 101.526 593.421 101.898V102H592.189ZM590.241 101.105C590.609 101.105 590.958 101.01 591.288 100.819C591.618 100.629 591.857 100.381 592.005 100.077V98.6675H591.085C589.646 98.6675 588.927 99.0885 588.927 99.9307C588.927 100.299 589.049 100.587 589.295 100.794C589.54 101.001 589.856 101.105 590.241 101.105ZM597.775 101.168C598.194 101.168 598.56 101.042 598.874 100.788C599.187 100.534 599.36 100.216 599.394 99.8354H600.505C600.484 100.229 600.348 100.604 600.099 100.959C599.849 101.314 599.515 101.598 599.096 101.81C598.681 102.021 598.241 102.127 597.775 102.127C596.84 102.127 596.095 101.816 595.541 101.194C594.991 100.568 594.716 99.7127 594.716 98.6294V98.4326C594.716 97.764 594.839 97.1694 595.084 96.6489C595.329 96.1284 595.681 95.7243 596.138 95.4365C596.599 95.1488 597.143 95.0049 597.769 95.0049C598.539 95.0049 599.178 95.2355 599.686 95.6968C600.198 96.158 600.471 96.7568 600.505 97.4932H599.394C599.36 97.0488 599.191 96.6849 598.886 96.4014C598.586 96.1136 598.213 95.9697 597.769 95.9697C597.172 95.9697 596.709 96.1855 596.379 96.6172C596.053 97.0446 595.89 97.6646 595.89 98.4771V98.6992C595.89 99.4906 596.053 100.1 596.379 100.527C596.705 100.955 597.17 101.168 597.775 101.168ZM604.58 101.168C604.999 101.168 605.365 101.042 605.678 100.788C605.991 100.534 606.165 100.216 606.199 99.8354H607.31C607.288 100.229 607.153 100.604 606.903 100.959C606.654 101.314 606.319 101.598 605.9 101.81C605.486 102.021 605.046 102.127 604.58 102.127C603.645 102.127 602.9 101.816 602.346 101.194C601.796 100.568 601.521 99.7127 601.521 98.6294V98.4326C601.521 97.764 601.643 97.1694 601.889 96.6489C602.134 96.1284 602.485 95.7243 602.942 95.4365C603.404 95.1488 603.947 95.0049 604.574 95.0049C605.344 95.0049 605.983 95.2355 606.491 95.6968C607.003 96.158 607.276 96.7568 607.31 97.4932H606.199C606.165 97.0488 605.996 96.6849 605.691 96.4014C605.39 96.1136 605.018 95.9697 604.574 95.9697C603.977 95.9697 603.514 96.1855 603.184 96.6172C602.858 97.0446 602.695 97.6646 602.695 98.4771V98.6992C602.695 99.4906 602.858 100.1 603.184 100.527C603.509 100.955 603.975 101.168 604.58 101.168ZM612.87 102C612.802 101.865 612.747 101.623 612.705 101.276C612.159 101.843 611.507 102.127 610.75 102.127C610.073 102.127 609.516 101.937 609.081 101.556C608.649 101.171 608.433 100.684 608.433 100.096C608.433 99.3805 608.704 98.8262 609.246 98.4326C609.792 98.0348 610.557 97.8359 611.543 97.8359H612.686V97.2964C612.686 96.8859 612.563 96.5601 612.318 96.3188C612.072 96.0734 611.711 95.9507 611.232 95.9507C610.813 95.9507 610.462 96.0565 610.179 96.2681C609.895 96.4797 609.753 96.7357 609.753 97.0361H608.573C608.573 96.6934 608.693 96.3633 608.935 96.0459C609.18 95.7243 609.51 95.4704 609.925 95.2842C610.344 95.098 610.803 95.0049 611.302 95.0049C612.094 95.0049 612.714 95.2038 613.162 95.6016C613.611 95.9951 613.843 96.5389 613.86 97.2329V100.394C613.86 101.025 613.941 101.526 614.102 101.898V102H612.87ZM610.921 101.105C611.29 101.105 611.639 101.01 611.969 100.819C612.299 100.629 612.538 100.381 612.686 100.077V98.6675H611.766C610.327 98.6675 609.607 99.0885 609.607 99.9307C609.607 100.299 609.73 100.587 609.976 100.794C610.221 101.001 610.536 101.105 610.921 101.105ZM621.179 99.0166H620.354V102H619.18V99.0166H618.354L616.431 102H614.946L617.402 98.4453L615.181 95.1318H616.603L618.374 97.9756H619.18V95.1318H620.354V97.9756H621.154L622.938 95.1318H624.359L622.131 98.4517L624.588 102H623.103L621.179 99.0166ZM630.098 95.1318H631.272V102H630.098V96.9917L626.93 102H625.756V95.1318H626.93V100.146L630.098 95.1318ZM638.959 98.6421C638.959 99.6873 638.72 100.529 638.242 101.168C637.764 101.807 637.116 102.127 636.299 102.127C635.466 102.127 634.81 101.862 634.332 101.333V104.641H633.157V95.1318H634.23L634.287 95.8936C634.765 95.3011 635.43 95.0049 636.28 95.0049C637.105 95.0049 637.757 95.3159 638.235 95.938C638.718 96.5601 638.959 97.4255 638.959 98.5342V98.6421ZM637.785 98.5088C637.785 97.7344 637.62 97.1229 637.29 96.6743C636.959 96.2257 636.507 96.0015 635.931 96.0015C635.22 96.0015 634.687 96.3167 634.332 96.9473V100.229C634.683 100.855 635.22 101.168 635.944 101.168C636.507 101.168 636.953 100.946 637.283 100.502C637.618 100.053 637.785 99.389 637.785 98.5088ZM640.146 98.5024C640.146 97.8296 640.277 97.2244 640.54 96.687C640.806 96.1496 641.174 95.7349 641.644 95.4429C642.118 95.1509 642.658 95.0049 643.263 95.0049C644.198 95.0049 644.953 95.3286 645.529 95.9761C646.109 96.6235 646.398 97.4847 646.398 98.5596V98.6421C646.398 99.3107 646.269 99.9116 646.011 100.445C645.757 100.974 645.391 101.386 644.913 101.683C644.439 101.979 643.893 102.127 643.275 102.127C642.344 102.127 641.589 101.803 641.009 101.156C640.434 100.508 640.146 99.6514 640.146 98.585V98.5024ZM641.327 98.6421C641.327 99.4038 641.502 100.015 641.854 100.477C642.209 100.938 642.683 101.168 643.275 101.168C643.872 101.168 644.346 100.936 644.697 100.47C645.049 100 645.224 99.3446 645.224 98.5024C645.224 97.7492 645.044 97.1398 644.685 96.6743C644.329 96.2046 643.855 95.9697 643.263 95.9697C642.683 95.9697 642.215 96.2004 641.86 96.6616C641.504 97.1229 641.327 97.783 641.327 98.6421ZM647.979 102V95.1318H650.658C651.572 95.1318 652.272 95.2926 652.759 95.6143C653.25 95.9316 653.495 96.3993 653.495 97.0171C653.495 97.3345 653.4 97.6222 653.209 97.8804C653.019 98.1343 652.738 98.3289 652.365 98.4644C652.78 98.5617 653.112 98.7521 653.362 99.0356C653.616 99.3192 653.743 99.6577 653.743 100.051C653.743 100.682 653.51 101.164 653.044 101.499C652.583 101.833 651.929 102 651.083 102H647.979ZM649.153 98.9849V101.054H651.096C651.587 101.054 651.953 100.963 652.194 100.781C652.439 100.599 652.562 100.343 652.562 100.013C652.562 99.3276 652.058 98.9849 651.051 98.9849H649.153ZM649.153 98.0454H650.67C651.771 98.0454 652.321 97.7238 652.321 97.0806C652.321 96.4373 651.8 96.1051 650.759 96.084H649.153V98.0454ZM655.323 101.384C655.323 101.181 655.382 101.012 655.501 100.876C655.624 100.741 655.806 100.673 656.047 100.673C656.288 100.673 656.47 100.741 656.593 100.876C656.72 101.012 656.783 101.181 656.783 101.384C656.783 101.579 656.72 101.742 656.593 101.873C656.47 102.004 656.288 102.07 656.047 102.07C655.806 102.07 655.624 102.004 655.501 101.873C655.382 101.742 655.323 101.579 655.323 101.384Z" fill="#656565"/>
<path d="M430.007 101.168C430.426 101.168 430.792 101.042 431.105 100.788C431.418 100.534 431.592 100.216 431.625 99.8354H432.736C432.715 100.229 432.58 100.604 432.33 100.959C432.08 101.314 431.746 101.598 431.327 101.81C430.912 102.021 430.472 102.127 430.007 102.127C429.072 102.127 428.327 101.816 427.772 101.194C427.222 100.568 426.947 99.7127 426.947 98.6294V98.4326C426.947 97.764 427.07 97.1694 427.315 96.6489C427.561 96.1284 427.912 95.7243 428.369 95.4365C428.83 95.1488 429.374 95.0049 430 95.0049C430.771 95.0049 431.41 95.2355 431.917 95.6968C432.43 96.158 432.702 96.7568 432.736 97.4932H431.625C431.592 97.0488 431.422 96.6849 431.118 96.4014C430.817 96.1136 430.445 95.9697 430 95.9697C429.404 95.9697 428.94 96.1855 428.61 96.6172C428.285 97.0446 428.122 97.6646 428.122 98.4771V98.6992C428.122 99.4906 428.285 100.1 428.61 100.527C428.936 100.955 429.402 101.168 430.007 101.168ZM436.812 101.168C437.23 101.168 437.597 101.042 437.91 100.788C438.223 100.534 438.396 100.216 438.43 99.8354H439.541C439.52 100.229 439.384 100.604 439.135 100.959C438.885 101.314 438.551 101.598 438.132 101.81C437.717 102.021 437.277 102.127 436.812 102.127C435.876 102.127 435.132 101.816 434.577 101.194C434.027 100.568 433.752 99.7127 433.752 98.6294V98.4326C433.752 97.764 433.875 97.1694 434.12 96.6489C434.366 96.1284 434.717 95.7243 435.174 95.4365C435.635 95.1488 436.179 95.0049 436.805 95.0049C437.575 95.0049 438.214 95.2355 438.722 95.6968C439.234 96.158 439.507 96.7568 439.541 97.4932H438.43C438.396 97.0488 438.227 96.6849 437.922 96.4014C437.622 96.1136 437.25 95.9697 436.805 95.9697C436.208 95.9697 435.745 96.1855 435.415 96.6172C435.089 97.0446 434.926 97.6646 434.926 98.4771V98.6992C434.926 99.4906 435.089 100.1 435.415 100.527C435.741 100.955 436.206 101.168 436.812 101.168ZM442.144 97.4995H443.927C444.706 97.508 445.322 97.7111 445.774 98.1089C446.227 98.5067 446.454 99.0462 446.454 99.7275C446.454 100.413 446.221 100.963 445.755 101.378C445.29 101.793 444.664 102 443.876 102H440.969V95.1318H442.144V97.4995ZM448.904 102H447.723V95.1318H448.904V102ZM442.144 98.458V101.042H443.889C444.329 101.042 444.67 100.929 444.911 100.705C445.152 100.477 445.273 100.166 445.273 99.772C445.273 99.3911 445.154 99.0801 444.917 98.8389C444.685 98.5934 444.357 98.4665 443.934 98.458H442.144ZM456.584 95.1318V102H455.404V96.103H453.068L452.928 98.6738C452.852 99.8545 452.653 100.699 452.332 101.207C452.014 101.714 451.508 101.979 450.814 102H450.345V100.965L450.681 100.94C451.062 100.898 451.335 100.678 451.5 100.28C451.665 99.882 451.771 99.1457 451.817 98.0708L451.944 95.1318H456.584ZM460.609 99.0737H459.752V102H458.571V95.1318H459.752V98.0391H460.52L462.831 95.1318H464.252L461.536 98.4326L464.481 102H462.989L460.609 99.0737ZM468.239 102.127C467.308 102.127 466.55 101.822 465.966 101.213C465.382 100.599 465.09 99.7804 465.09 98.7563V98.5405C465.09 97.8592 465.219 97.252 465.478 96.7188C465.74 96.1813 466.104 95.7624 466.569 95.4619C467.039 95.1572 467.547 95.0049 468.093 95.0049C468.986 95.0049 469.68 95.299 470.175 95.8872C470.67 96.4754 470.917 97.3175 470.917 98.4136V98.9023H466.265C466.282 99.5794 466.478 100.127 466.855 100.546C467.236 100.961 467.718 101.168 468.302 101.168C468.717 101.168 469.068 101.084 469.356 100.915C469.644 100.745 469.896 100.521 470.111 100.242L470.829 100.8C470.253 101.685 469.39 102.127 468.239 102.127ZM468.093 95.9697C467.619 95.9697 467.221 96.1432 466.899 96.4902C466.578 96.833 466.379 97.3154 466.303 97.9375H469.743V97.8486C469.709 97.252 469.549 96.7907 469.261 96.4648C468.973 96.1348 468.584 95.9697 468.093 95.9697ZM484.946 92.7578H486.165V102H484.946V94.8779L480.395 102H479.169V92.7578H480.395V99.8799L484.946 92.7578ZM493.813 102H492.639V99.0674H489.484V102H488.304V95.1318H489.484V98.1089H492.639V95.1318H493.813V102ZM498.46 101.168C498.879 101.168 499.245 101.042 499.558 100.788C499.871 100.534 500.045 100.216 500.079 99.8354H501.189C501.168 100.229 501.033 100.604 500.783 100.959C500.534 101.314 500.199 101.598 499.78 101.81C499.366 102.021 498.925 102.127 498.46 102.127C497.525 102.127 496.78 101.816 496.226 101.194C495.675 100.568 495.4 99.7127 495.4 98.6294V98.4326C495.4 97.764 495.523 97.1694 495.769 96.6489C496.014 96.1284 496.365 95.7243 496.822 95.4365C497.284 95.1488 497.827 95.0049 498.454 95.0049C499.224 95.0049 499.863 95.2355 500.371 95.6968C500.883 96.158 501.156 96.7568 501.189 97.4932H500.079C500.045 97.0488 499.875 96.6849 499.571 96.4014C499.27 96.1136 498.898 95.9697 498.454 95.9697C497.857 95.9697 497.394 96.1855 497.063 96.6172C496.738 97.0446 496.575 97.6646 496.575 98.4771V98.6992C496.575 99.4906 496.738 100.1 497.063 100.527C497.389 100.955 497.855 101.168 498.46 101.168ZM507.613 96.084H505.309V102H504.135V96.084H501.875V95.1318H507.613V96.084ZM514.558 98.6421C514.558 99.6873 514.319 100.529 513.84 101.168C513.362 101.807 512.715 102.127 511.898 102.127C511.064 102.127 510.408 101.862 509.93 101.333V104.641H508.756V95.1318H509.829L509.886 95.8936C510.364 95.3011 511.028 95.0049 511.879 95.0049C512.704 95.0049 513.356 95.3159 513.834 95.938C514.316 96.5601 514.558 97.4255 514.558 98.5342V98.6421ZM513.383 98.5088C513.383 97.7344 513.218 97.1229 512.888 96.6743C512.558 96.2257 512.105 96.0015 511.53 96.0015C510.819 96.0015 510.286 96.3167 509.93 96.9473V100.229C510.281 100.855 510.819 101.168 511.542 101.168C512.105 101.168 512.552 100.946 512.882 100.502C513.216 100.053 513.383 99.389 513.383 98.5088ZM518.227 100.28L519.826 95.1318H521.083L518.322 103.06C517.894 104.203 517.215 104.774 516.284 104.774L516.062 104.755L515.624 104.672V103.72L515.941 103.746C516.339 103.746 516.648 103.665 516.868 103.504C517.092 103.344 517.277 103.049 517.42 102.622L517.681 101.924L515.23 95.1318H516.513L518.227 100.28ZM524.276 99.0737H523.419V102H522.238V95.1318H523.419V98.0391H524.187L526.498 95.1318H527.919L525.203 98.4326L528.148 102H526.656L524.276 99.0737ZM529.259 95.1318H530.439V101.042H533.601V95.1318H534.775V101.042H535.594L535.479 104.038H534.426V102H529.259V95.1318ZM541.307 95.1318H542.481V102H541.307V96.9917L538.139 102H536.965V95.1318H538.139V100.146L541.307 95.1318ZM549.616 95.1318V102H548.435V99.3276H546.664L545.045 102H543.776L545.502 99.1499C545.062 98.9891 544.724 98.7415 544.487 98.4072C544.254 98.0687 544.138 97.6751 544.138 97.2266C544.138 96.6003 544.373 96.0967 544.842 95.7158C545.312 95.3307 545.94 95.1361 546.728 95.1318H549.616ZM545.318 97.2393C545.318 97.5736 545.433 97.8444 545.661 98.0518C545.89 98.2549 546.192 98.3586 546.569 98.3628H548.435V96.084H546.747C546.311 96.084 545.964 96.1919 545.706 96.4077C545.447 96.6193 545.318 96.8965 545.318 97.2393Z" fill="black"/>
<path d="M426.363 103.27H471.387V103.904H426.363V103.27ZM478.046 103.27H550.612V103.904H478.046V103.27Z" fill="black"/>
<path d="M348 15H676C678.761 15 681 17.2386 681 20V65C681 67.7614 678.761 70 676 70H348V15Z" fill="#FF1723"/>
<path d="M390.819 43.8252V48H389.413V37.3359H393.346C394.513 37.3359 395.426 37.6338 396.085 38.2295C396.75 38.8252 397.082 39.6138 397.082 40.5952C397.082 41.6304 396.757 42.4287 396.107 42.9902C395.463 43.5469 394.538 43.8252 393.332 43.8252H390.819ZM390.819 42.6753H393.346C394.098 42.6753 394.674 42.4995 395.075 42.1479C395.475 41.7915 395.675 41.2788 395.675 40.6099C395.675 39.9751 395.475 39.4673 395.075 39.0864C394.674 38.7056 394.125 38.5078 393.427 38.4932H390.819V42.6753ZM403.468 48C403.39 47.8438 403.327 47.5654 403.278 47.165C402.648 47.8193 401.896 48.1465 401.022 48.1465C400.241 48.1465 399.599 47.9268 399.096 47.4873C398.598 47.043 398.349 46.4814 398.349 45.8027C398.349 44.9775 398.661 44.3379 399.286 43.8838C399.916 43.4248 400.8 43.1953 401.938 43.1953H403.256V42.5728C403.256 42.0991 403.114 41.7231 402.831 41.4448C402.548 41.1616 402.13 41.02 401.579 41.02C401.095 41.02 400.69 41.1421 400.363 41.3862C400.036 41.6304 399.872 41.9258 399.872 42.2725H398.51C398.51 41.877 398.649 41.4961 398.927 41.1299C399.21 40.7588 399.591 40.4658 400.07 40.251C400.553 40.0361 401.083 39.9287 401.659 39.9287C402.572 39.9287 403.288 40.1582 403.805 40.6172C404.323 41.0713 404.591 41.6987 404.611 42.4995V46.147C404.611 46.8745 404.704 47.4531 404.889 47.8828V48H403.468ZM401.22 46.9673C401.645 46.9673 402.047 46.8574 402.428 46.6377C402.809 46.418 403.085 46.1323 403.256 45.7808V44.1548H402.194C400.534 44.1548 399.704 44.6406 399.704 45.6123C399.704 46.0371 399.845 46.3691 400.128 46.6084C400.412 46.8477 400.775 46.9673 401.22 46.9673ZM409.21 46.0151L411.056 40.0752H412.506L409.32 49.2231C408.827 50.5415 408.043 51.2007 406.969 51.2007L406.713 51.1787L406.208 51.0835V49.9849L406.574 50.0142C407.033 50.0142 407.389 49.9214 407.643 49.7358C407.902 49.5503 408.114 49.2109 408.28 48.7178L408.581 47.9121L405.753 40.0752H407.233L409.21 46.0151ZM415.348 46.8501H420.402V48H413.935V37.3359H415.348V46.8501ZM426.686 48C426.608 47.8438 426.544 47.5654 426.496 47.165C425.866 47.8193 425.114 48.1465 424.24 48.1465C423.458 48.1465 422.816 47.9268 422.313 47.4873C421.815 47.043 421.566 46.4814 421.566 45.8027C421.566 44.9775 421.879 44.3379 422.504 43.8838C423.134 43.4248 424.018 43.1953 425.155 43.1953H426.474V42.5728C426.474 42.0991 426.332 41.7231 426.049 41.4448C425.766 41.1616 425.348 41.02 424.796 41.02C424.313 41.02 423.908 41.1421 423.581 41.3862C423.253 41.6304 423.09 41.9258 423.09 42.2725H421.728C421.728 41.877 421.867 41.4961 422.145 41.1299C422.428 40.7588 422.809 40.4658 423.288 40.251C423.771 40.0361 424.301 39.9287 424.877 39.9287C425.79 39.9287 426.505 40.1582 427.023 40.6172C427.541 41.0713 427.809 41.6987 427.829 42.4995V46.147C427.829 46.8745 427.921 47.4531 428.107 47.8828V48H426.686ZM424.438 46.9673C424.862 46.9673 425.265 46.8574 425.646 46.6377C426.027 46.418 426.303 46.1323 426.474 45.7808V44.1548H425.412C423.751 44.1548 422.921 44.6406 422.921 45.6123C422.921 46.0371 423.063 46.3691 423.346 46.6084C423.629 46.8477 423.993 46.9673 424.438 46.9673ZM431.791 38.1562V40.0752H433.271V41.1226H431.791V46.0371C431.791 46.3545 431.857 46.5938 431.989 46.7549C432.121 46.9111 432.345 46.9893 432.663 46.9893C432.819 46.9893 433.034 46.96 433.307 46.9014V48C432.951 48.0977 432.604 48.1465 432.267 48.1465C431.662 48.1465 431.205 47.9634 430.897 47.5972C430.59 47.231 430.436 46.7109 430.436 46.0371V41.1226H428.993V40.0752H430.436V38.1562H431.791ZM438.148 48.1465C437.074 48.1465 436.2 47.7949 435.526 47.0918C434.853 46.3838 434.516 45.439 434.516 44.2573V44.0083C434.516 43.2222 434.665 42.5215 434.962 41.9062C435.265 41.2861 435.685 40.8027 436.222 40.4561C436.764 40.1045 437.35 39.9287 437.98 39.9287C439.01 39.9287 439.811 40.2681 440.382 40.9468C440.954 41.6255 441.239 42.5972 441.239 43.8618V44.4258H435.871C435.89 45.207 436.117 45.8394 436.552 46.3228C436.991 46.8013 437.548 47.0405 438.222 47.0405C438.7 47.0405 439.105 46.9429 439.438 46.7476C439.77 46.5522 440.06 46.2935 440.309 45.9712L441.137 46.6157C440.473 47.6362 439.477 48.1465 438.148 48.1465ZM437.98 41.042C437.433 41.042 436.974 41.2422 436.603 41.6426C436.232 42.0381 436.002 42.5947 435.915 43.3125H439.884V43.21C439.845 42.5215 439.66 41.9893 439.328 41.6133C438.996 41.2324 438.546 41.042 437.98 41.042ZM449.354 44.0229H445.78V42.917H449.354V44.0229ZM454.042 43.9644C454.042 43.188 454.193 42.4897 454.496 41.8696C454.804 41.2495 455.229 40.771 455.771 40.4341C456.317 40.0972 456.94 39.9287 457.638 39.9287C458.717 39.9287 459.589 40.3022 460.253 41.0493C460.922 41.7964 461.256 42.79 461.256 44.0303V44.1255C461.256 44.897 461.107 45.5903 460.81 46.2056C460.517 46.8159 460.094 47.292 459.542 47.6338C458.996 47.9756 458.366 48.1465 457.653 48.1465C456.579 48.1465 455.707 47.7729 455.038 47.0259C454.374 46.2788 454.042 45.29 454.042 44.0596V43.9644ZM455.404 44.1255C455.404 45.0044 455.607 45.71 456.012 46.2422C456.422 46.7744 456.969 47.0405 457.653 47.0405C458.341 47.0405 458.888 46.772 459.293 46.2349C459.699 45.6929 459.901 44.936 459.901 43.9644C459.901 43.0952 459.694 42.3921 459.279 41.855C458.869 41.313 458.322 41.042 457.638 41.042C456.969 41.042 456.43 41.3081 456.02 41.8403C455.609 42.3726 455.404 43.1343 455.404 44.1255ZM469.438 48H468.083V41.1958H464.435V48H463.073V40.0752H469.438V48ZM478.109 40.0752V48H476.747V41.1958H474.052L473.891 44.1621C473.803 45.5244 473.573 46.4985 473.202 47.0845C472.836 47.6704 472.252 47.9756 471.452 48H470.91V46.8062L471.298 46.7769C471.737 46.728 472.052 46.4741 472.243 46.0151C472.433 45.5562 472.555 44.7065 472.609 43.4663L472.755 40.0752H478.109ZM485.177 48C485.099 47.8438 485.036 47.5654 484.987 47.165C484.357 47.8193 483.605 48.1465 482.731 48.1465C481.95 48.1465 481.308 47.9268 480.805 47.4873C480.307 47.043 480.058 46.4814 480.058 45.8027C480.058 44.9775 480.37 44.3379 480.995 43.8838C481.625 43.4248 482.509 43.1953 483.646 43.1953H484.965V42.5728C484.965 42.0991 484.823 41.7231 484.54 41.4448C484.257 41.1616 483.839 41.02 483.288 41.02C482.804 41.02 482.399 41.1421 482.072 41.3862C481.745 41.6304 481.581 41.9258 481.581 42.2725H480.219C480.219 41.877 480.358 41.4961 480.636 41.1299C480.919 40.7588 481.3 40.4658 481.779 40.251C482.262 40.0361 482.792 39.9287 483.368 39.9287C484.281 39.9287 484.997 40.1582 485.514 40.6172C486.032 41.0713 486.3 41.6987 486.32 42.4995V46.147C486.32 46.8745 486.413 47.4531 486.598 47.8828V48H485.177ZM482.929 46.9673C483.354 46.9673 483.756 46.8574 484.137 46.6377C484.518 46.418 484.794 46.1323 484.965 45.7808V44.1548H483.903C482.243 44.1548 481.413 44.6406 481.413 45.6123C481.413 46.0371 481.554 46.3691 481.837 46.6084C482.121 46.8477 482.484 46.9673 482.929 46.9673ZM494.215 41.1738H491.557V48H490.202V41.1738H487.594V40.0752H494.215V41.1738ZM500.309 48C500.231 47.8438 500.167 47.5654 500.119 47.165C499.489 47.8193 498.737 48.1465 497.863 48.1465C497.082 48.1465 496.439 47.9268 495.937 47.4873C495.438 47.043 495.189 46.4814 495.189 45.8027C495.189 44.9775 495.502 44.3379 496.127 43.8838C496.757 43.4248 497.641 43.1953 498.778 43.1953H500.097V42.5728C500.097 42.0991 499.955 41.7231 499.672 41.4448C499.389 41.1616 498.971 41.02 498.419 41.02C497.936 41.02 497.531 41.1421 497.204 41.3862C496.876 41.6304 496.713 41.9258 496.713 42.2725H495.351C495.351 41.877 495.49 41.4961 495.768 41.1299C496.051 40.7588 496.432 40.4658 496.911 40.251C497.394 40.0361 497.924 39.9287 498.5 39.9287C499.413 39.9287 500.128 40.1582 500.646 40.6172C501.164 41.0713 501.432 41.6987 501.452 42.4995V46.147C501.452 46.8745 501.544 47.4531 501.73 47.8828V48H500.309ZM498.061 46.9673C498.485 46.9673 498.888 46.8574 499.269 46.6377C499.65 46.418 499.926 46.1323 500.097 45.7808V44.1548H499.035C497.375 44.1548 496.544 44.6406 496.544 45.6123C496.544 46.0371 496.686 46.3691 496.969 46.6084C497.252 46.8477 497.616 46.9673 498.061 46.9673ZM512.189 48C512.111 47.8438 512.047 47.5654 511.999 47.165C511.369 47.8193 510.617 48.1465 509.743 48.1465C508.961 48.1465 508.319 47.9268 507.816 47.4873C507.318 47.043 507.069 46.4814 507.069 45.8027C507.069 44.9775 507.382 44.3379 508.007 43.8838C508.637 43.4248 509.521 43.1953 510.658 43.1953H511.977V42.5728C511.977 42.0991 511.835 41.7231 511.552 41.4448C511.269 41.1616 510.851 41.02 510.299 41.02C509.816 41.02 509.411 41.1421 509.083 41.3862C508.756 41.6304 508.593 41.9258 508.593 42.2725H507.23C507.23 41.877 507.37 41.4961 507.648 41.1299C507.931 40.7588 508.312 40.4658 508.791 40.251C509.274 40.0361 509.804 39.9287 510.38 39.9287C511.293 39.9287 512.008 40.1582 512.526 40.6172C513.043 41.0713 513.312 41.6987 513.332 42.4995V46.147C513.332 46.8745 513.424 47.4531 513.61 47.8828V48H512.189ZM509.94 46.9673C510.365 46.9673 510.768 46.8574 511.149 46.6377C511.53 46.418 511.806 46.1323 511.977 45.7808V44.1548H510.915C509.254 44.1548 508.424 44.6406 508.424 45.6123C508.424 46.0371 508.566 46.3691 508.849 46.6084C509.132 46.8477 509.496 46.9673 509.94 46.9673ZM515.58 48V40.0752H518.671C519.726 40.0752 520.534 40.2607 521.095 40.6318C521.662 40.998 521.945 41.5376 521.945 42.2505C521.945 42.6167 521.835 42.9487 521.615 43.2466C521.396 43.5396 521.071 43.7642 520.641 43.9204C521.12 44.0327 521.503 44.2524 521.791 44.5796C522.084 44.9067 522.23 45.2974 522.23 45.7515C522.23 46.479 521.962 47.0356 521.425 47.4214C520.893 47.8071 520.138 48 519.162 48H515.58ZM516.935 44.521V46.9087H519.176C519.743 46.9087 520.165 46.8037 520.443 46.5938C520.727 46.3838 520.868 46.0884 520.868 45.7075C520.868 44.9165 520.287 44.521 519.125 44.521H516.935ZM516.935 43.437H518.686C519.955 43.437 520.59 43.0659 520.59 42.3237C520.59 41.5815 519.989 41.1982 518.788 41.1738H516.935V43.437ZM529.152 40.0752H530.507V48H529.152V42.2212L525.497 48H524.142V40.0752H525.497V45.8613L529.152 40.0752ZM537.575 48C537.497 47.8438 537.433 47.5654 537.384 47.165C536.754 47.8193 536.002 48.1465 535.128 48.1465C534.347 48.1465 533.705 47.9268 533.202 47.4873C532.704 47.043 532.455 46.4814 532.455 45.8027C532.455 44.9775 532.768 44.3379 533.393 43.8838C534.022 43.4248 534.906 43.1953 536.044 43.1953H537.362V42.5728C537.362 42.0991 537.221 41.7231 536.938 41.4448C536.654 41.1616 536.237 41.02 535.685 41.02C535.202 41.02 534.796 41.1421 534.469 41.3862C534.142 41.6304 533.979 41.9258 533.979 42.2725H532.616C532.616 41.877 532.755 41.4961 533.034 41.1299C533.317 40.7588 533.698 40.4658 534.176 40.251C534.66 40.0361 535.189 39.9287 535.766 39.9287C536.679 39.9287 537.394 40.1582 537.912 40.6172C538.429 41.0713 538.698 41.6987 538.717 42.4995V46.147C538.717 46.8745 538.81 47.4531 538.996 47.8828V48H537.575ZM535.326 46.9673C535.751 46.9673 536.154 46.8574 536.535 46.6377C536.916 46.418 537.191 46.1323 537.362 45.7808V44.1548H536.3C534.64 44.1548 533.81 44.6406 533.81 45.6123C533.81 46.0371 533.952 46.3691 534.235 46.6084C534.518 46.8477 534.882 46.9673 535.326 46.9673ZM544.32 40.5293C545.316 40.5293 546.112 40.8638 546.708 41.5327C547.309 42.1968 547.609 43.0732 547.609 44.1621V44.2866C547.609 45.0337 547.465 45.7026 547.177 46.2935C546.889 46.8794 546.474 47.3359 545.932 47.6631C545.395 47.9854 544.774 48.1465 544.071 48.1465C543.007 48.1465 542.15 47.7925 541.5 47.0845C540.851 46.3716 540.526 45.417 540.526 44.2207V43.5615C540.526 41.8965 540.834 40.5732 541.449 39.5918C542.069 38.6104 542.982 38.0122 544.188 37.7974C544.872 37.6753 545.333 37.5264 545.573 37.3506C545.812 37.1748 545.932 36.9331 545.932 36.6255H547.045C547.045 37.2358 546.906 37.7119 546.627 38.0537C546.354 38.3955 545.915 38.6372 545.309 38.7788L544.298 39.0059C543.493 39.1963 542.887 39.5186 542.482 39.9727C542.082 40.4219 541.82 41.0225 541.698 41.7744C542.416 40.9443 543.29 40.5293 544.32 40.5293ZM544.057 41.6426C543.393 41.6426 542.865 41.8672 542.475 42.3164C542.084 42.7607 541.889 43.3784 541.889 44.1694V44.2866C541.889 45.1362 542.084 45.8101 542.475 46.3081C542.87 46.8013 543.402 47.0479 544.071 47.0479C544.745 47.0479 545.277 46.7988 545.668 46.3008C546.059 45.8027 546.254 45.0752 546.254 44.1182C546.254 43.3711 546.056 42.7729 545.661 42.3237C545.27 41.8696 544.735 41.6426 544.057 41.6426ZM554.127 40.0752H555.482V48H554.127V42.2212L550.473 48H549.118V40.0752H550.473V45.8613L554.127 40.0752ZM564.154 40.0752V48H562.792V41.1958H560.097L559.936 44.1621C559.848 45.5244 559.618 46.4985 559.247 47.0845C558.881 47.6704 558.297 47.9756 557.497 48H556.955V46.8062L557.343 46.7769C557.782 46.728 558.097 46.4741 558.288 46.0151C558.478 45.5562 558.6 44.7065 558.654 43.4663L558.8 40.0752H564.154ZM569.618 48.1465C568.544 48.1465 567.67 47.7949 566.996 47.0918C566.322 46.3838 565.985 45.439 565.985 44.2573V44.0083C565.985 43.2222 566.134 42.5215 566.432 41.9062C566.735 41.2861 567.155 40.8027 567.692 40.4561C568.234 40.1045 568.82 39.9287 569.45 39.9287C570.48 39.9287 571.281 40.2681 571.852 40.9468C572.423 41.6255 572.709 42.5972 572.709 43.8618V44.4258H567.34C567.36 45.207 567.587 45.8394 568.021 46.3228C568.461 46.8013 569.018 47.0405 569.691 47.0405C570.17 47.0405 570.575 46.9429 570.907 46.7476C571.239 46.5522 571.53 46.2935 571.779 45.9712L572.606 46.6157C571.942 47.6362 570.946 48.1465 569.618 48.1465ZM569.45 41.042C568.903 41.042 568.444 41.2422 568.073 41.6426C567.702 42.0381 567.472 42.5947 567.384 43.3125H571.354V43.21C571.315 42.5215 571.129 41.9893 570.797 41.6133C570.465 41.2324 570.016 41.042 569.45 41.042ZM580.084 41.1738H577.426V48H576.071V41.1738H573.463V40.0752H580.084V41.1738ZM586.178 48C586.1 47.8438 586.037 47.5654 585.988 47.165C585.358 47.8193 584.606 48.1465 583.732 48.1465C582.951 48.1465 582.309 47.9268 581.806 47.4873C581.308 47.043 581.059 46.4814 581.059 45.8027C581.059 44.9775 581.371 44.3379 581.996 43.8838C582.626 43.4248 583.51 43.1953 584.647 43.1953H585.966V42.5728C585.966 42.0991 585.824 41.7231 585.541 41.4448C585.258 41.1616 584.84 41.02 584.289 41.02C583.805 41.02 583.4 41.1421 583.073 41.3862C582.746 41.6304 582.582 41.9258 582.582 42.2725H581.22C581.22 41.877 581.359 41.4961 581.637 41.1299C581.92 40.7588 582.301 40.4658 582.78 40.251C583.263 40.0361 583.793 39.9287 584.369 39.9287C585.282 39.9287 585.998 40.1582 586.515 40.6172C587.033 41.0713 587.301 41.6987 587.321 42.4995V46.147C587.321 46.8745 587.414 47.4531 587.599 47.8828V48H586.178ZM583.93 46.9673C584.354 46.9673 584.757 46.8574 585.138 46.6377C585.519 46.418 585.795 46.1323 585.966 45.7808V44.1548H584.904C583.244 44.1548 582.414 44.6406 582.414 45.6123C582.414 46.0371 582.555 46.3691 582.838 46.6084C583.122 46.8477 583.485 46.9673 583.93 46.9673ZM593.29 48V40.0752H596.381C597.436 40.0752 598.244 40.2607 598.805 40.6318C599.372 40.998 599.655 41.5376 599.655 42.2505C599.655 42.6167 599.545 42.9487 599.325 43.2466C599.105 43.5396 598.781 43.7642 598.351 43.9204C598.83 44.0327 599.213 44.2524 599.501 44.5796C599.794 44.9067 599.94 45.2974 599.94 45.7515C599.94 46.479 599.672 47.0356 599.135 47.4214C598.603 47.8071 597.848 48 596.872 48H593.29ZM594.645 44.521V46.9087H596.886C597.453 46.9087 597.875 46.8037 598.153 46.5938C598.437 46.3838 598.578 46.0884 598.578 45.7075C598.578 44.9165 597.997 44.521 596.835 44.521H594.645ZM594.645 43.437H596.396C597.665 43.437 598.3 43.0659 598.3 42.3237C598.3 41.5815 597.699 41.1982 596.498 41.1738H594.645V43.437ZM607.924 44.6235H606.935V48H605.573V40.0752H606.935V43.4297H607.821L610.487 40.0752H612.128L608.993 43.8838L612.392 48H610.67L607.924 44.6235ZM620.25 44.1255C620.25 45.3315 619.975 46.3032 619.423 47.0405C618.871 47.7778 618.124 48.1465 617.182 48.1465C616.22 48.1465 615.463 47.8413 614.911 47.231V51.0469H613.556V40.0752H614.794L614.86 40.9541C615.412 40.2705 616.178 39.9287 617.16 39.9287C618.112 39.9287 618.864 40.2876 619.416 41.0054C619.972 41.7231 620.25 42.7217 620.25 44.001V44.1255ZM618.896 43.9717C618.896 43.0781 618.705 42.3726 618.324 41.855C617.943 41.3374 617.421 41.0786 616.757 41.0786C615.937 41.0786 615.321 41.4424 614.911 42.1699V45.9565C615.316 46.6792 615.937 47.0405 616.771 47.0405C617.421 47.0405 617.936 46.7842 618.317 46.2715C618.703 45.7539 618.896 44.9873 618.896 43.9717ZM625.268 48.1465C624.193 48.1465 623.319 47.7949 622.646 47.0918C621.972 46.3838 621.635 45.439 621.635 44.2573V44.0083C621.635 43.2222 621.784 42.5215 622.082 41.9062C622.384 41.2861 622.804 40.8027 623.341 40.4561C623.883 40.1045 624.469 39.9287 625.099 39.9287C626.129 39.9287 626.93 40.2681 627.501 40.9468C628.073 41.6255 628.358 42.5972 628.358 43.8618V44.4258H622.99C623.009 45.207 623.236 45.8394 623.671 46.3228C624.11 46.8013 624.667 47.0405 625.341 47.0405C625.819 47.0405 626.225 46.9429 626.557 46.7476C626.889 46.5522 627.179 46.2935 627.428 45.9712L628.256 46.6157C627.592 47.6362 626.596 48.1465 625.268 48.1465ZM625.099 41.042C624.552 41.042 624.093 41.2422 623.722 41.6426C623.351 42.0381 623.122 42.5947 623.034 43.3125H627.003V43.21C626.964 42.5215 626.779 41.9893 626.447 41.6133C626.115 41.2324 625.666 41.042 625.099 41.042ZM629.867 46.894L630.336 46.3154C630.863 45.6318 631.164 44.6064 631.237 43.2393L631.361 40.0752H636.466V46.894H637.484V50.3291H636.129V48H630.6V50.3291H629.245L629.252 46.894H629.867ZM631.471 46.894H635.111V41.3276H632.672L632.592 43.2173C632.509 44.7944 632.135 46.02 631.471 46.894ZM644.113 40.0752H645.468V48H644.113V42.2212L640.458 48H639.103V40.0752H640.458V45.8613L644.113 40.0752ZM653.532 41.1738H650.873V48H649.518V41.1738H646.911V40.0752H653.532V41.1738Z" fill="white"/>
<path d="M247 130C247 127.239 249.239 125 252 125H444C446.761 125 449 127.239 449 130V169C449 171.761 446.761 174 444 174H252C249.239 174 247 171.761 247 169V130Z" fill="#FF1723"/>
<path d="M286.809 146.12C286.809 145.402 286.546 144.833 286.02 144.413C285.5 143.986 284.768 143.772 283.821 143.772C283.03 143.772 282.365 143.992 281.827 144.431C281.295 144.864 281.029 145.402 281.029 146.045H279.248C279.248 145.328 279.442 144.685 279.832 144.116C280.228 143.547 280.778 143.104 281.483 142.789C282.188 142.467 282.968 142.307 283.821 142.307C285.33 142.307 286.502 142.647 287.337 143.327C288.172 144.001 288.59 144.941 288.59 146.147C288.59 146.772 288.398 147.341 288.015 147.854C287.631 148.368 287.096 148.773 286.41 149.07C287.999 149.602 288.794 150.656 288.794 152.233C288.794 153.446 288.342 154.407 287.439 155.119C286.536 155.83 285.33 156.186 283.821 156.186C282.924 156.186 282.108 156.028 281.372 155.712C280.642 155.391 280.073 154.936 279.665 154.349C279.257 153.761 279.053 153.062 279.053 152.252H280.834C280.834 152.963 281.115 153.557 281.678 154.033C282.241 154.503 282.955 154.738 283.821 154.738C284.792 154.738 285.565 154.513 286.141 154.061C286.722 153.61 287.013 153.013 287.013 152.271C287.013 150.687 286.032 149.88 284.072 149.849H282.402V148.383H284.062C284.965 148.365 285.649 148.161 286.113 147.771C286.577 147.381 286.809 146.831 286.809 146.12ZM297.088 156C296.989 155.802 296.909 155.45 296.847 154.942C296.049 155.771 295.096 156.186 293.989 156.186C293 156.186 292.186 155.907 291.549 155.351C290.918 154.788 290.603 154.076 290.603 153.217C290.603 152.172 290.999 151.361 291.791 150.786C292.588 150.205 293.708 149.914 295.149 149.914H296.819V149.125C296.819 148.526 296.639 148.049 296.281 147.697C295.922 147.338 295.393 147.159 294.694 147.159C294.082 147.159 293.569 147.313 293.154 147.623C292.74 147.932 292.533 148.306 292.533 148.745H290.807C290.807 148.244 290.983 147.762 291.336 147.298C291.695 146.828 292.177 146.457 292.783 146.185C293.396 145.912 294.067 145.776 294.796 145.776C295.953 145.776 296.859 146.067 297.515 146.648C298.17 147.224 298.51 148.018 298.535 149.033V153.653C298.535 154.574 298.653 155.307 298.888 155.852V156H297.088ZM294.24 154.692C294.778 154.692 295.288 154.553 295.771 154.274C296.253 153.996 296.602 153.634 296.819 153.189V151.129H295.474C293.371 151.129 292.319 151.745 292.319 152.976C292.319 153.514 292.499 153.934 292.857 154.237C293.216 154.54 293.677 154.692 294.24 154.692ZM305.632 146.537C306.894 146.537 307.902 146.961 308.657 147.808C309.417 148.649 309.798 149.759 309.798 151.139V151.296C309.798 152.243 309.615 153.09 309.25 153.838C308.886 154.581 308.36 155.159 307.673 155.573C306.993 155.981 306.208 156.186 305.317 156.186C303.969 156.186 302.883 155.737 302.061 154.84C301.238 153.937 300.827 152.728 300.827 151.213V150.378C300.827 148.269 301.216 146.593 301.996 145.35C302.781 144.106 303.938 143.349 305.465 143.077C306.331 142.922 306.916 142.733 307.219 142.511C307.522 142.288 307.673 141.982 307.673 141.592H309.083C309.083 142.365 308.907 142.968 308.555 143.401C308.208 143.834 307.652 144.14 306.885 144.32L305.604 144.607C304.584 144.849 303.817 145.257 303.304 145.832C302.797 146.401 302.466 147.162 302.311 148.114C303.22 147.063 304.327 146.537 305.632 146.537ZM305.298 147.947C304.457 147.947 303.789 148.232 303.294 148.801C302.8 149.364 302.552 150.146 302.552 151.148V151.296C302.552 152.373 302.8 153.226 303.294 153.857C303.795 154.482 304.47 154.794 305.317 154.794C306.17 154.794 306.845 154.479 307.339 153.848C307.834 153.217 308.082 152.295 308.082 151.083C308.082 150.137 307.831 149.379 307.33 148.81C306.835 148.235 306.158 147.947 305.298 147.947ZM320.04 151.092C320.04 152.62 319.691 153.851 318.992 154.785C318.293 155.719 317.347 156.186 316.153 156.186C314.934 156.186 313.976 155.799 313.277 155.026V159.859H311.561V145.962H313.128L313.212 147.075C313.911 146.209 314.882 145.776 316.125 145.776C317.331 145.776 318.284 146.231 318.982 147.14C319.688 148.049 320.04 149.314 320.04 150.935V151.092ZM318.324 150.897C318.324 149.766 318.083 148.872 317.6 148.216C317.118 147.561 316.456 147.233 315.615 147.233C314.576 147.233 313.796 147.694 313.277 148.615V153.412C313.79 154.327 314.576 154.785 315.633 154.785C316.456 154.785 317.108 154.46 317.591 153.811C318.079 153.155 318.324 152.184 318.324 150.897ZM321.775 150.888C321.775 149.905 321.967 149.02 322.35 148.235C322.74 147.449 323.278 146.843 323.964 146.417C324.657 145.99 325.446 145.776 326.33 145.776C327.697 145.776 328.801 146.25 329.642 147.196C330.489 148.142 330.913 149.401 330.913 150.972V151.092C330.913 152.069 330.724 152.948 330.347 153.727C329.976 154.5 329.441 155.103 328.742 155.536C328.049 155.969 327.252 156.186 326.349 156.186C324.988 156.186 323.884 155.712 323.037 154.766C322.195 153.82 321.775 152.567 321.775 151.009V150.888ZM323.5 151.092C323.5 152.206 323.757 153.099 324.271 153.773C324.79 154.448 325.483 154.785 326.349 154.785C327.221 154.785 327.913 154.444 328.427 153.764C328.94 153.078 329.197 152.119 329.197 150.888C329.197 149.787 328.934 148.897 328.408 148.216C327.889 147.53 327.196 147.187 326.33 147.187C325.483 147.187 324.799 147.524 324.28 148.198C323.76 148.872 323.5 149.837 323.5 151.092ZM341.267 156H339.55V151.714H334.939V156H333.214V145.962H334.939V150.313H339.55V145.962H341.267V156ZM350.525 145.962H352.242V156H350.525V148.68L345.896 156H344.18V145.962H345.896V153.291L350.525 145.962ZM363.477 151.092C363.477 152.62 363.127 153.851 362.428 154.785C361.729 155.719 360.783 156.186 359.589 156.186C358.371 156.186 357.412 155.799 356.713 155.026V159.859H354.997V145.962H356.565L356.648 147.075C357.347 146.209 358.318 145.776 359.562 145.776C360.768 145.776 361.72 146.231 362.419 147.14C363.124 148.049 363.477 149.314 363.477 150.935V151.092ZM361.76 150.897C361.76 149.766 361.519 148.872 361.037 148.216C360.554 147.561 359.892 147.233 359.051 147.233C358.012 147.233 357.233 147.694 356.713 148.615V153.412C357.227 154.327 358.012 154.785 359.07 154.785C359.892 154.785 360.545 154.46 361.027 153.811C361.516 153.155 361.76 152.184 361.76 150.897ZM365.211 150.888C365.211 149.905 365.403 149.02 365.787 148.235C366.176 147.449 366.714 146.843 367.401 146.417C368.094 145.99 368.882 145.776 369.767 145.776C371.133 145.776 372.237 146.25 373.079 147.196C373.926 148.142 374.35 149.401 374.35 150.972V151.092C374.35 152.069 374.161 152.948 373.784 153.727C373.413 154.5 372.878 155.103 372.179 155.536C371.486 155.969 370.688 156.186 369.785 156.186C368.424 156.186 367.32 155.712 366.473 154.766C365.632 153.82 365.211 152.567 365.211 151.009V150.888ZM366.937 151.092C366.937 152.206 367.194 153.099 367.707 153.773C368.227 154.448 368.919 154.785 369.785 154.785C370.657 154.785 371.35 154.444 371.863 153.764C372.377 153.078 372.633 152.119 372.633 150.888C372.633 149.787 372.37 148.897 371.845 148.216C371.325 147.53 370.632 147.187 369.767 147.187C368.919 147.187 368.236 147.524 367.716 148.198C367.197 148.872 366.937 149.837 366.937 151.092ZM376.66 156V145.962H380.575C381.911 145.962 382.934 146.197 383.646 146.667C384.363 147.131 384.722 147.814 384.722 148.717C384.722 149.181 384.583 149.602 384.304 149.979C384.026 150.35 383.615 150.635 383.07 150.833C383.676 150.975 384.162 151.253 384.527 151.667C384.898 152.082 385.083 152.577 385.083 153.152C385.083 154.073 384.743 154.778 384.063 155.267C383.389 155.756 382.433 156 381.196 156H376.66ZM378.376 151.593V154.618H381.215C381.932 154.618 382.467 154.485 382.82 154.219C383.179 153.953 383.358 153.579 383.358 153.096C383.358 152.094 382.622 151.593 381.15 151.593H378.376ZM378.376 150.22H380.593C382.201 150.22 383.005 149.75 383.005 148.81C383.005 147.87 382.245 147.384 380.723 147.354H378.376V150.22ZM393.554 156C393.455 155.802 393.374 155.45 393.312 154.942C392.515 155.771 391.562 156.186 390.455 156.186C389.465 156.186 388.652 155.907 388.015 155.351C387.384 154.788 387.069 154.076 387.069 153.217C387.069 152.172 387.465 151.361 388.256 150.786C389.054 150.205 390.174 149.914 391.615 149.914H393.285V149.125C393.285 148.526 393.105 148.049 392.747 147.697C392.388 147.338 391.859 147.159 391.16 147.159C390.548 147.159 390.035 147.313 389.62 147.623C389.206 147.932 388.999 148.306 388.999 148.745H387.273C387.273 148.244 387.449 147.762 387.802 147.298C388.16 146.828 388.643 146.457 389.249 146.185C389.861 145.912 390.532 145.776 391.262 145.776C392.419 145.776 393.325 146.067 393.98 146.648C394.636 147.224 394.976 148.018 395.001 149.033V153.653C395.001 154.574 395.118 155.307 395.354 155.852V156H393.554ZM390.706 154.692C391.244 154.692 391.754 154.553 392.236 154.274C392.719 153.996 393.068 153.634 393.285 153.189V151.129H391.939C389.837 151.129 388.785 151.745 388.785 152.976C388.785 153.514 388.965 153.934 389.323 154.237C389.682 154.54 390.143 154.692 390.706 154.692ZM405.002 147.354H401.634V156H399.918V147.354H396.615V145.962H405.002V147.354ZM408.546 149.422H411.153C412.291 149.435 413.191 149.732 413.853 150.313C414.514 150.894 414.845 151.683 414.845 152.679C414.845 153.681 414.505 154.485 413.825 155.091C413.144 155.697 412.229 156 411.079 156H406.83V145.962H408.546V149.422ZM408.546 150.823V154.599H411.097C411.74 154.599 412.238 154.435 412.591 154.107C412.943 153.773 413.12 153.319 413.12 152.744C413.12 152.187 412.946 151.732 412.6 151.38C412.26 151.021 411.781 150.836 411.162 150.823H408.546Z" fill="white"/>
<defs>
<linearGradient id="paint0_linear" x1="181.5" y1="15" x2="181.5" y2="70" gradientUnits="userSpaceOnUse">
<stop stop-color="#FBFBFB"/>
<stop offset="1" stop-color="#F1F1F1"/>
</linearGradient>
</defs>
</svg>
