<svg width="7" height="8" viewBox="0 0 7 8" fill="none" xmlns="http://www.w3.org/2000/svg">
<path fill-rule="evenodd" clip-rule="evenodd" d="M3.89974 0.578716C3.87739 0.575291 3.85055 0.573334 3.82219 0.571288L3.82213 0.571284C3.70472 0.56272 3.46058 0.544911 3.47503 0.292494C3.48131 0.183253 3.53032 0 3.78814 0C3.81691 0 3.8453 0.00193419 3.87044 0.0036477L3.87174 0.00373624L3.87482 0.00394455C3.89473 0.00529313 3.91345 0.00656065 3.92881 0.00656065C3.93891 0.00656065 3.9448 0.00598242 3.94798 0.00551539C3.95445 0.00460358 3.96086 0.00424774 3.96757 0.00447014C5.58654 0.0591126 6.98919 1.5285 6.96919 3.14891C6.96891 3.17025 6.97 3.19456 6.97115 3.22038L6.97115 3.22042L6.97122 3.22188C6.97607 3.32939 6.98207 3.46316 6.89598 3.5532C6.84663 3.60484 6.77764 3.631 6.69091 3.631L6.68233 3.63091C6.40583 3.62557 6.40166 3.36815 6.39966 3.24434L6.39966 3.24428C6.39911 3.20949 6.39857 3.17665 6.39517 3.14971C6.19481 1.56533 5.47183 0.820482 3.89974 0.578716ZM4.11461 0.941834C5.18017 1.06982 6.04008 1.99539 6.03147 3.00501C6.03145 3.00966 6.03112 3.01431 6.03045 3.01893C6.02799 3.03724 6.02893 3.06474 6.02993 3.09384L6.02994 3.09413C6.0335 3.19781 6.0409 3.4136 5.80456 3.44951C5.78092 3.45312 5.75822 3.45494 5.73709 3.45494H5.73707C5.48327 3.45494 5.46895 3.21887 5.46207 3.1054L5.46206 3.1052C5.46022 3.07496 5.45849 3.04646 5.45465 3.02332C5.2971 2.07409 4.97474 1.73776 4.01737 1.52384C3.99432 1.51866 3.9669 1.51488 3.9378 1.51086L3.93549 1.51054C3.83328 1.49655 3.70602 1.4791 3.6337 1.38075C3.59071 1.32228 3.57645 1.24758 3.5914 1.15862C3.60677 1.06713 3.66515 0.913723 3.88354 0.913723C3.93858 0.913723 3.99313 0.922708 4.04589 0.931448L4.04606 0.931477L4.04606 0.931477C4.07044 0.935514 4.09346 0.939327 4.11461 0.941834ZM6.31915 5.19745C6.28573 5.17192 6.25117 5.1455 6.21881 5.11943C6.04722 4.98135 5.86468 4.85407 5.68813 4.73096L5.68812 4.73096L5.68795 4.73084L5.57813 4.65414C5.35191 4.49524 5.14853 4.41802 4.95638 4.41802C4.69758 4.41802 4.47194 4.56102 4.28571 4.843C4.2032 4.968 4.1031 5.02878 3.97974 5.02878C3.90679 5.02878 3.8239 5.00797 3.73341 4.96689C3.00322 4.63577 2.48182 4.12808 2.18365 3.45794C2.03952 3.13405 2.08624 2.92233 2.33991 2.75002C2.48395 2.65225 2.75207 2.47024 2.73308 2.1217C2.71157 1.72591 1.83827 0.535006 1.47032 0.399745C1.31453 0.342456 1.15085 0.341923 0.982944 0.398411C0.559949 0.54061 0.256402 0.790338 0.10504 1.12055C-0.041229 1.43962 -0.0346239 1.81427 0.124144 2.20399C0.583122 3.33078 1.22842 4.31318 2.04219 5.12388C2.83872 5.91747 3.81772 6.56753 4.95198 7.05594C5.05421 7.09993 5.16145 7.12392 5.23976 7.14143L5.24549 7.14271C5.26975 7.14817 5.2907 7.15288 5.30628 7.15715C5.31551 7.15966 5.32502 7.16102 5.33457 7.16111L5.34353 7.16115H5.34357C5.87705 7.16115 6.51762 6.67366 6.71435 6.1179C6.8867 5.63125 6.57201 5.39071 6.31915 5.19745ZM4.05896 1.85829L4.0591 1.85829C4.30122 1.85244 4.56741 1.97874 4.78822 2.203C5.00828 2.42657 5.13767 2.70726 5.13483 2.95449C5.14263 3.19139 5.05628 3.32227 4.87814 3.34346C4.867 3.34482 4.85581 3.34547 4.84487 3.34547H4.84485C4.69673 3.34547 4.58137 3.22584 4.56429 3.05453C4.52753 2.68713 4.34375 2.48924 3.98589 2.43182C3.88721 2.41592 3.77873 2.38694 3.72211 2.29238C3.68352 2.22793 3.67979 2.14938 3.71099 2.05891C3.77765 1.86541 3.96757 1.86061 4.05896 1.85829Z" fill="white"/>
</svg>
