<svg width="224" height="78" viewBox="0 0 224 78" fill="none" xmlns="http://www.w3.org/2000/svg">
<path fill-rule="evenodd" clip-rule="evenodd" d="M68.1159 16.7584C65.806 18.4711 61.0016 20.8319 56.9363 17.8693C54.765 13.4718 56.5205 11.0647 59.1999 8.47245C64.0044 4.76925 64.3277 1.7604 61.4636 0.695726C69.4094 -2.31313 73.9829 5.23215 67.9773 8.19471L67.7463 8.28729L68.5779 8.7039C85.994 19.1655 84.5619 44.625 63.0804 53.0035C65.4365 46.1988 65.4365 38.6073 63.1728 31.7563L63.1266 31.5249C63.4962 31.5712 63.912 31.6175 64.2816 31.6175C67.9311 31.6175 70.9339 28.6549 70.9339 24.9517C70.9339 22.5909 69.7328 20.5542 67.9311 19.3506C67.7463 19.2117 67.6077 19.1192 67.4229 19.0266C67.1919 18.8877 67.0072 18.7951 66.7762 18.7026C67.3767 18.5174 69.317 17.175 68.1159 16.7584ZM60.0315 20.0913L56.0123 21.9891C56.1509 20.9245 56.2895 19.9524 56.7977 18.6563C57.5368 19.5358 58.9689 19.9061 60.0315 20.0913ZM62.1565 14.5364C62.1103 13.8421 61.5098 13.2866 60.8168 13.3329C60.1238 13.3792 59.5695 13.981 59.6157 14.6753C59.6619 15.3697 60.2624 15.9251 60.9554 15.8789C61.6483 15.8326 62.2027 15.2308 62.1565 14.5364ZM73.568 4.07443C70.1957 3.70411 72.3669 -0.230538 75.6469 0.787841C78.0953 1.52848 78.6958 4.62991 77.0789 6.01861C74.8153 7.96278 72.6441 8.00907 69.8261 8.00907C72.9212 6.89811 74.5381 5.64829 74.1686 4.16701C73.8939 3.06616 73.8208 3.35915 73.7363 3.69818C73.6929 3.87237 73.6464 4.05872 73.568 4.07443ZM37.1186 16.5274H21.2731C6.53638 16.5274 -1.03988 1.06651 0.115034 1.02022C0.201846 1.07241 0.296376 1.13012 0.398905 1.19271C2.47877 2.46246 7.85036 5.7418 18.8709 5.7418C20.7972 5.85155 22.649 5.90637 24.4312 5.95914C35.4283 6.28475 43.7768 6.53193 50.6542 19.1196C47.5628 16.8265 41.8194 16.6662 38.4582 16.5723C37.9519 16.5582 37.4996 16.5456 37.1186 16.5274ZM154.137 76.6114L159.126 59.484H165.824L160.835 76.6114H154.137ZM159.773 54.0218C160.235 52.5405 162.314 51.2444 164.392 51.2444C166.471 51.2444 167.857 52.4942 167.441 54.0218C166.979 55.5494 164.808 56.7992 162.729 56.7992C160.65 56.7992 159.357 55.5031 159.773 54.0218ZM148.13 71.5195C150.255 71.9824 151.179 74.5746 150.579 76.6577H134.549L140.739 55.4568L147.761 55.5031L142.217 74.5283L142.171 74.7135H147.114L148.13 71.5195ZM114.637 59.5306L109.648 76.6579V76.6116H103.134L103.873 74.0194C101.101 75.7784 99.0686 76.9357 95.6963 76.9357C93.2017 76.9357 90.8456 76.2876 89.8293 74.76C88.8965 73.4189 89.4592 71.5783 89.9543 69.9586L89.9544 69.9584C90.0232 69.7333 90.0907 69.5125 90.1527 69.2978L93.0169 59.5306H99.7154L96.8512 69.2978C96.6202 70.0848 96.2968 71.4735 96.574 72.2141C96.8512 73.3251 97.7751 74.0657 99.4844 74.0657C103.688 74.0657 104.612 70.9643 105.259 68.7423L107.938 59.5306H114.637ZM117.316 72.167C116.808 72.4448 115.792 73.3706 115.191 74.2038C114.868 74.6204 114.637 75.037 114.406 75.5462C116.115 76.5183 118.286 76.9812 120.642 76.9812C126.509 76.9812 130.667 74.6204 131.637 71.3338C132.764 67.5167 129.217 66.4938 126.244 65.6363C124.097 65.0171 122.249 64.4842 122.675 63.0479C123.045 61.6129 125.077 61.0111 126.833 61.0111C129.004 61.0111 130.621 62.4461 130.575 63.9737C131.36 63.7423 132.469 63.0016 133.208 62.0758L134.039 60.8723C132.422 59.7613 129.882 59.2058 127.479 59.2058C123.091 59.2058 118.563 61.2426 117.501 64.8069C116.463 68.3541 119.872 69.4273 122.763 70.3372C124.89 71.0066 126.736 71.5877 126.324 73.0003C125.955 74.2501 123.645 75.1759 121.982 75.1759C119.349 75.1759 117.639 73.926 117.316 72.167ZM171.92 59.4841L166.931 76.6113H173.629L175.985 68.4643C176.632 66.2424 177.833 62.1226 182.037 62.1226C185.409 62.1226 185.317 64.5297 184.347 67.8162L181.76 76.6113H188.458L191.461 66.2424C192.708 61.9837 191.969 59.16 185.871 59.16C182.868 59.16 179.958 60.4099 177.556 62.0763L178.341 59.4841H171.92ZM66.8215 55.9201L76.6152 55.8738C90.89 55.8275 90.7052 68.835 79.4332 69.4368H79.3408H79.2484H79.156L83.3137 76.7506H77.4006L73.2891 69.5757H69.6857L67.6069 76.7044H60.585L64.6041 63.0025C64.6965 62.5859 66.4519 56.707 66.8215 55.9201ZM75.0907 68.0481C81.5583 68.0481 85.254 56.0127 72.8733 57.9106L70.1015 68.0481H75.0907ZM202.551 68.0942H205.368C205.638 68.0851 205.981 68.0822 206.38 68.079H206.38C210.022 68.049 218.292 67.9811 216.918 62.7246C216.363 60.5952 213.499 59.1602 209.11 59.2065C202.089 59.2065 197.007 62.7246 195.529 67.6776C193.819 73.4175 196.915 76.9819 204.999 76.9819C207.355 76.9819 210.173 76.3801 212.39 75.408L214.007 73.4175L213.499 73.0935C211.744 74.0193 209.388 74.6674 207.401 74.6674C202.273 74.6674 201.349 71.7511 202.551 68.0942ZM203.428 65.6408C204.676 62.7246 206.708 61.845 208.787 61.7988C213.915 61.6136 212.298 66.6592 207.401 66.6592H203.059L203.428 65.6408ZM26.3096 42.7276C25.247 30.9236 47.3753 31.6179 42.155 41.7092C41.924 41.1074 40.9077 41.1074 40.4457 41.4777C39.8914 41.8943 39.8914 43.3756 41.1849 44.07C44.8344 46.3845 53.889 45.3198 58.3239 33.6084C55.4597 54.8556 27.7879 59.2068 26.3096 42.7276ZM2.19265 41.4308C6.48894 32.4043 13.8342 31.1545 19.2854 33.5153C21.2719 34.5799 21.8724 36.1538 21.2719 37.6814C19.886 34.0707 14.6196 35.5057 13.557 40.9217C8.79877 65.2239 59.0608 69.9918 61.001 33.0061C61.5554 35.3669 61.8788 37.8202 61.8788 40.3662C61.8788 57.9101 47.1882 72.1674 29.0329 72.1674C26.4459 72.1674 23.9513 71.8897 21.5491 71.3342C20.8561 71.149 20.2094 70.9639 19.5164 70.7324C3.02419 64.8536 -2.05745 50.4574 2.19265 41.4308ZM60.6328 57.7713C59.7089 61.4745 57.9996 64.8999 55.6436 67.8162C50.5619 73.9728 42.7547 77.9537 33.9773 78C28.6185 77.9537 23.6754 76.4261 19.4715 73.8339C19.6665 73.9177 19.8615 73.9846 20.0667 74.0549L20.0669 74.055L20.0671 74.0551C20.202 74.1014 20.3413 74.1492 20.4879 74.2042C21.1808 74.4357 21.8738 74.6671 22.5667 74.8523C25.0613 75.4078 27.6483 75.7318 30.3278 75.7318C43.54 75.7318 54.9968 68.4643 60.6328 57.7713ZM49.8229 27.7755H29.1268C20.9499 27.7755 15.6373 21.7578 13.5585 18.286C15.9145 19.2118 19.8412 19.7673 22.7054 19.7673L39.1976 19.9062C50.4234 19.4896 56.66 23.4705 59.8476 30.09C57.105 28.0627 52.3934 27.8769 50.0138 27.783L49.8229 27.7755ZM91.2628 9.95398C91.1243 16.666 85.3959 18.6102 81.2844 18.7491C80.2219 16.4809 78.7898 14.3515 77.1267 12.4999C81.2382 13.0554 88.5372 11.8519 91.2628 9.95398ZM83.6848 28.3772C89.4132 27.2199 90.4757 21.8966 90.2447 17.4528C88.1196 19.7673 84.8397 20.6468 82.1603 20.8319C83.0842 23.239 83.5924 25.8312 83.6848 28.3772ZM89.0448 27.6828C88.1671 32.497 85.9958 36.9871 82.1153 37.9592C83.0392 35.5059 83.6398 32.9599 83.7322 30.3214C86.042 29.8585 87.7975 28.9327 89.0448 27.6828ZM78.6757 10.2895C78.7147 10.3334 78.7524 10.3759 78.7889 10.4168C73.8458 11.2963 70.9354 9.53726 70.2425 9.02807C72.0904 9.16694 73.6611 9.16693 75.2318 8.47258C76.5533 7.89876 77.8748 9.38739 78.6757 10.2895Z" fill="white"/>
<path fill-rule="evenodd" clip-rule="evenodd" d="M212.299 43.698C212.207 43.9757 212.068 44.2072 211.883 44.4386C211.699 44.6701 211.514 44.8552 211.283 45.0404C211.052 45.2256 210.775 45.3181 210.498 45.4107C210.22 45.5033 209.897 45.5496 209.574 45.5496C209.296 45.5496 209.019 45.5033 208.788 45.4107C208.557 45.3181 208.326 45.1793 208.188 45.0404C208.003 44.8552 207.911 44.6701 207.818 44.4386C207.726 44.2072 207.68 43.9757 207.726 43.698H208.973V43.6981C208.973 43.8369 208.973 43.9295 209.019 44.0683C209.035 44.0992 209.05 44.1352 209.065 44.1712C209.096 44.2432 209.127 44.3152 209.158 44.3461C209.204 44.4386 209.296 44.4849 209.389 44.5312C209.481 44.5775 209.62 44.6238 209.758 44.6238C209.897 44.6238 210.036 44.6238 210.174 44.5312C210.313 44.4849 210.405 44.4386 210.544 44.3461C210.575 44.3152 210.61 44.2843 210.646 44.2535C210.718 44.1918 210.79 44.13 210.821 44.0683C210.877 44.0123 210.916 43.9392 210.958 43.8595L210.959 43.8593C210.986 43.8074 211.016 43.7527 211.052 43.698H212.299ZM194.417 51.7994H196.127L198.298 44.1152H193.586C193.515 44.3631 193.417 44.5839 193.313 44.8191C193.281 44.8913 193.249 44.9649 193.216 45.041L192.801 46.0131L192.385 46.9852C192.315 47.1241 192.246 47.2745 192.177 47.4249L192.177 47.425C192.108 47.5754 192.038 47.7259 191.969 47.8647C191.877 48.1425 191.738 48.4202 191.599 48.6517C191.536 48.8414 191.452 48.988 191.375 49.1209L191.375 49.1209C191.339 49.1825 191.305 49.2411 191.276 49.2997C191.091 49.67 190.86 49.9478 190.675 50.1329C190.491 50.3181 190.26 50.4107 190.029 50.4107H189.798C189.705 50.4107 189.659 50.4107 189.613 50.3644L189.197 51.7531C189.336 51.7994 189.474 51.8457 189.613 51.8457C189.752 51.892 189.936 51.892 190.075 51.892C190.352 51.892 190.629 51.8457 190.86 51.7531C191.137 51.6605 191.368 51.5679 191.553 51.3828C191.784 51.2439 191.969 51.0125 192.154 50.781C192.339 50.5496 192.523 50.2718 192.708 49.9478C192.753 49.8584 192.797 49.7642 192.843 49.6668L192.844 49.6665C192.941 49.4613 193.045 49.2416 193.17 49.022C193.262 48.8368 193.343 48.6516 193.424 48.4665C193.505 48.2813 193.586 48.0962 193.678 47.911C193.795 47.6765 193.894 47.442 193.997 47.1957C194.057 47.0531 194.119 46.9065 194.186 46.7538C194.371 46.3836 194.51 46.0134 194.648 45.6431L194.648 45.643L194.648 45.6428H196.219L194.417 51.7994ZM80.6368 50.1324L80.7292 51.7989H82.3923L81.9303 44.2073H79.8976L74.9546 51.7989H76.8948L77.9112 50.1324H80.6368ZM80.5444 46.0589V46.244V48.8826H78.6041L80.1748 46.2903C80.1748 46.244 80.221 46.1515 80.2672 46.1052C80.2903 46.082 80.3019 46.0473 80.3134 46.0126C80.325 45.9779 80.3365 45.9432 80.3596 45.92C80.3772 45.8847 80.3949 45.856 80.41 45.8316C80.4343 45.7921 80.452 45.7635 80.452 45.7348C80.452 45.7117 80.4635 45.6886 80.4751 45.6654C80.4866 45.6423 80.4982 45.6191 80.4982 45.596H80.5444V45.6886V45.8737V46.0589ZM89.5527 47.9568C89.5989 47.8179 89.6451 47.679 89.6451 47.5402V47.5402C89.6451 47.4013 89.6451 47.2624 89.5066 47.1698C89.4604 47.031 89.368 46.8921 89.2294 46.7532C89.0908 46.6144 88.906 46.5218 88.675 46.4292C88.444 46.3366 88.1206 46.2903 87.7511 46.2903C87.1967 46.2903 86.7347 46.3829 86.319 46.5218C85.9032 46.6606 85.5336 46.8458 85.2564 47.1236C85.0255 47.3087 84.8407 47.5402 84.7021 47.7716C84.5635 48.0031 84.4249 48.2808 84.3325 48.5123C84.2401 48.7437 84.1477 49.0214 84.1015 49.2529C84.0553 49.4843 84.0091 49.7158 84.0091 49.9472V49.9473C84.0091 50.3176 84.0091 50.6416 84.1015 50.9193C84.1477 51.1508 84.2863 51.3822 84.4711 51.5211C84.6559 51.66 84.8869 51.7988 85.1641 51.8451C85.4412 51.8914 85.7646 51.9377 86.1342 51.9377C86.5038 51.9377 86.8733 51.8914 87.1505 51.8451C87.4739 51.7988 87.7049 51.7063 87.9359 51.6137C87.9841 51.5847 88.0303 51.5577 88.0745 51.5319C88.242 51.4341 88.3806 51.3533 88.4902 51.2434C88.6288 51.1045 88.7674 50.9656 88.8598 50.8268L88.8598 50.8267C88.9522 50.6879 89.0446 50.549 89.0908 50.4101C89.137 50.2713 89.1832 50.1324 89.1832 50.0398C89.2294 49.7621 89.137 49.4843 88.9522 49.2992C88.7674 49.114 88.4902 49.0214 88.1207 48.9752C88.3978 48.9289 88.6288 48.8363 88.8136 48.7437C88.8687 48.7023 88.9239 48.6649 88.9766 48.6293L88.9766 48.6293L88.9766 48.6293C89.1005 48.5455 89.2107 48.4708 89.2756 48.3734C89.4142 48.2345 89.5065 48.0956 89.5527 47.9568L89.5527 47.9568ZM87.8897 47.4013C87.9821 47.4939 88.0283 47.6327 88.0283 47.7716C88.0283 47.9568 87.9821 48.0956 87.9359 48.1419C87.8435 48.2345 87.7049 48.3271 87.5201 48.3734C87.3353 48.466 87.1043 48.5123 86.8733 48.5123C86.5962 48.5585 86.3652 48.5585 86.0418 48.5585C86.088 48.3734 86.1804 48.1882 86.2728 48.0494C86.3652 47.8642 86.4576 47.7253 86.5962 47.6327C86.7347 47.4939 86.8733 47.4013 87.0119 47.355C87.1505 47.3087 87.2891 47.2624 87.4739 47.2624C87.6587 47.2624 87.7973 47.3087 87.8897 47.4013ZM87.4277 49.6232C87.5663 49.7158 87.6125 49.8547 87.6125 50.0398C87.6125 50.1324 87.5663 50.225 87.5201 50.3176C87.4739 50.4101 87.3815 50.5027 87.2891 50.5953L87.2891 50.5953C87.1967 50.6879 87.0581 50.7342 86.9195 50.7805C86.8552 50.7805 86.7809 50.7904 86.7013 50.8011C86.6094 50.8135 86.5104 50.8268 86.4114 50.8268C86.088 50.8268 85.9032 50.7805 85.7646 50.6416C85.6722 50.5027 85.5798 50.2713 85.626 49.9935V49.8084C85.626 49.7158 85.626 49.6695 85.6722 49.5769C85.7365 49.5769 85.8108 49.567 85.8904 49.5563C85.9823 49.5439 86.0814 49.5306 86.1804 49.5306C86.3652 49.4843 86.5961 49.4843 86.7809 49.4843H86.7809C87.1043 49.4843 87.2891 49.5306 87.4277 49.6232ZM95.5583 50.5027C95.6045 50.3176 95.6507 50.1324 95.6969 49.9935L96.667 46.4755H95.004L94.2648 49.0214C94.2186 49.2066 94.1262 49.4381 94.0338 49.6232C93.9414 49.8547 93.8028 50.0398 93.6643 50.1787L93.6642 50.1787C93.5257 50.3176 93.3871 50.4564 93.2023 50.549C93.0637 50.6416 92.8789 50.6879 92.6941 50.6879C92.5093 50.6879 92.4169 50.6416 92.3245 50.549C92.2322 50.4564 92.2322 50.3176 92.2322 50.1787V50.0398C92.2322 49.9856 92.248 49.9472 92.2611 49.9155C92.2704 49.893 92.2784 49.8738 92.2784 49.8547C92.2784 49.8315 92.2899 49.7968 92.3015 49.7621C92.313 49.7274 92.3245 49.6926 92.3245 49.6695C92.3245 49.6464 92.3361 49.6116 92.3476 49.5769C92.3592 49.5422 92.3707 49.5075 92.3707 49.4843L93.2485 46.4292H91.5854L90.6615 49.5769C90.6615 49.6232 90.6615 49.7158 90.6153 49.8084C90.6153 49.8547 90.6037 49.901 90.5922 49.9472C90.5806 49.9935 90.5691 50.0398 90.5691 50.0861C90.5691 50.1324 90.5575 50.1787 90.546 50.225C90.5344 50.2713 90.5229 50.3176 90.5229 50.3639C90.4767 50.4564 90.4767 50.549 90.4767 50.5953C90.4767 51.0582 90.5229 51.4285 90.7539 51.66C90.9386 51.8914 91.262 52.0303 91.724 52.0303C91.9088 52.0303 92.0936 51.984 92.2784 51.9377C92.4631 51.8914 92.6479 51.7989 92.8327 51.7063L92.8327 51.7063C92.9603 51.6424 93.0658 51.5564 93.1798 51.4636L93.1798 51.4636C93.2309 51.4219 93.2837 51.3789 93.3409 51.3359C93.3855 51.2913 93.4349 51.2466 93.486 51.2003C93.5886 51.1074 93.6981 51.0083 93.7896 50.8905C93.7759 50.9117 93.7566 50.9521 93.7566 51.0119C93.7566 51.0582 93.7566 51.1508 93.7104 51.2434C93.7104 51.2897 93.6989 51.3359 93.6874 51.3822L93.6874 51.3822L93.6873 51.3823C93.6758 51.4285 93.6643 51.4748 93.6643 51.5211C93.6643 51.5976 93.6503 51.66 93.6377 51.7161C93.6274 51.7619 93.6181 51.8035 93.6181 51.8451H95.3273C95.3273 51.7526 95.3273 51.6137 95.3735 51.4748C95.3966 51.4054 95.4082 51.3244 95.4197 51.2434C95.4313 51.1624 95.4428 51.0814 95.4659 51.0119C95.4659 50.8585 95.4976 50.7369 95.5348 50.5944C95.5425 50.5649 95.5504 50.5345 95.5583 50.5027ZM93.8028 50.873C93.8028 50.873 93.797 50.8789 93.7896 50.8905L93.8028 50.873ZM102.575 50.2018C102.588 50.1168 102.6 50.0473 102.626 49.9935L103.689 46.6607C103.55 46.6607 103.366 46.6144 103.181 46.5681L103.181 46.5681C103.088 46.5449 102.996 46.5334 102.904 46.5218C102.811 46.5102 102.719 46.4986 102.626 46.4755C102.534 46.4755 102.43 46.4639 102.326 46.4523C102.222 46.4408 102.118 46.4292 102.026 46.4292H101.425C100.871 46.4292 100.455 46.4755 100.039 46.6144C99.6236 46.7532 99.3003 46.8921 99.0231 47.1236C98.6997 47.3087 98.4687 47.5402 98.2839 47.8179C98.0991 48.0956 97.9605 48.3271 97.822 48.6048C97.6834 48.8363 97.591 49.114 97.5448 49.3455C97.5369 49.3852 97.5289 49.4235 97.5212 49.4607C97.4841 49.6404 97.4524 49.7938 97.4524 49.9472V49.9474C97.4524 50.2713 97.4524 50.549 97.4986 50.8268C97.5448 51.0582 97.6372 51.2897 97.7758 51.4748C97.9143 51.66 98.0991 51.7988 98.2839 51.8914C98.4687 51.984 98.6997 52.0303 98.9769 52.0303C99.1617 52.0303 99.3464 51.984 99.5312 51.9377C99.716 51.8914 99.8546 51.7989 99.9932 51.7063C100.178 51.6137 100.27 51.5211 100.409 51.3822C100.548 51.2434 100.686 51.1045 100.779 50.9656C100.779 51.0119 100.767 51.0466 100.755 51.0814C100.744 51.1161 100.732 51.1508 100.732 51.1971C100.732 51.2163 100.724 51.2434 100.715 51.2751L100.715 51.2752C100.702 51.3201 100.686 51.3743 100.686 51.4285C100.686 51.4477 100.678 51.4748 100.669 51.5066L100.669 51.5066C100.656 51.5515 100.64 51.6057 100.64 51.66C100.594 51.7063 100.594 51.7988 100.594 51.8451H102.303C102.303 51.7063 102.303 51.5674 102.349 51.4285C102.372 51.3359 102.384 51.2549 102.395 51.1739L102.395 51.1739C102.407 51.0929 102.419 51.0119 102.442 50.9193C102.463 50.8325 102.475 50.7457 102.486 50.6637L102.486 50.6636L102.486 50.6636L102.486 50.6636L102.486 50.6635L102.486 50.6635C102.498 50.5706 102.509 50.4839 102.534 50.4101C102.553 50.3326 102.565 50.2632 102.575 50.2019L102.575 50.2018ZM101.564 47.4707C101.61 47.4823 101.656 47.4939 101.702 47.4939L101.287 48.7437C101.241 48.9752 101.148 49.2066 101.056 49.4381C100.963 49.6695 100.871 49.8547 100.732 50.0398C100.594 50.225 100.455 50.3639 100.27 50.5027C100.086 50.6416 99.9008 50.6879 99.716 50.6879H99.716C99.6236 50.6879 99.5312 50.6879 99.4388 50.6416C99.3464 50.5953 99.3003 50.549 99.2541 50.4564L99.254 50.4564C99.2078 50.3638 99.1617 50.2713 99.1617 50.1787V49.8084C99.1617 49.7158 99.1617 49.5306 99.2079 49.3918C99.2079 49.2745 99.2449 49.1758 99.2838 49.0722C99.3063 49.0122 99.3295 48.9505 99.3464 48.8826C99.3926 48.79 99.4388 48.709 99.485 48.628C99.5312 48.547 99.5774 48.466 99.6236 48.3734C99.716 48.1882 99.8546 48.0494 99.9932 47.9105C100.132 47.7716 100.317 47.679 100.501 47.5865L100.501 47.5865C100.686 47.4939 100.917 47.4476 101.148 47.4476H101.425C101.471 47.4476 101.518 47.4592 101.564 47.4707ZM109.279 51.7989L108.124 48.9289L110.757 46.3829H108.771L106.461 48.7437L107.154 46.3829H105.491L103.92 51.7989H105.583L106.415 48.9752H106.461L107.431 51.7989H109.279ZM116.162 49.2992C116.254 49.0214 116.301 48.7437 116.301 48.5123C116.301 48.1882 116.301 47.8642 116.254 47.6327C116.162 47.3087 116.023 47.0773 115.839 46.8921C115.654 46.7069 115.423 46.5218 115.146 46.4292C114.869 46.3366 114.545 46.2903 114.176 46.2903C113.76 46.2903 113.436 46.3366 113.113 46.4292C113.083 46.4394 113.052 46.4495 113.02 46.4598C112.766 46.5432 112.487 46.6347 112.282 46.7995C112.051 46.9384 111.82 47.1236 111.635 47.355C111.45 47.5865 111.311 47.8179 111.173 48.0494C111.034 48.3271 110.942 48.5585 110.849 48.8363C110.757 49.114 110.711 49.3455 110.711 49.6232C110.665 49.9472 110.665 50.2713 110.757 50.549C110.803 50.8268 110.942 51.1045 111.127 51.2897C111.311 51.4748 111.542 51.6137 111.82 51.7526C112.097 51.8914 112.42 51.9377 112.836 51.9377C113.205 51.9377 113.575 51.8914 113.898 51.7989C113.984 51.7621 114.069 51.7286 114.153 51.6958C114.386 51.6045 114.606 51.5184 114.776 51.3822L114.776 51.3821C115.007 51.197 115.238 51.0119 115.423 50.7805C115.569 50.6344 115.686 50.4307 115.797 50.2376C115.826 50.1859 115.856 50.135 115.885 50.0861C115.919 49.9835 115.959 49.8872 115.999 49.7926L115.999 49.7925L115.999 49.7925L115.999 49.7924L115.999 49.7923L115.999 49.7923L115.999 49.7922L115.999 49.7922C116.067 49.6308 116.133 49.4742 116.162 49.2992ZM114.591 48.1419V48.5585C114.591 48.79 114.545 49.0677 114.499 49.2992C114.407 49.5769 114.314 49.8084 114.176 49.9935C114.037 50.1787 113.898 50.3176 113.714 50.4564C113.529 50.5953 113.344 50.6416 113.113 50.6416C112.882 50.6416 112.697 50.549 112.559 50.3639C112.42 50.1787 112.374 49.9472 112.374 49.6232C112.374 49.3918 112.42 49.114 112.513 48.8826C112.605 48.6048 112.697 48.3734 112.836 48.1882C112.974 47.9568 113.113 47.8179 113.298 47.679C113.483 47.5402 113.667 47.4939 113.898 47.4939C114.037 47.4939 114.129 47.4939 114.222 47.5865C114.255 47.6192 114.287 47.6462 114.318 47.6715C114.374 47.7176 114.423 47.7581 114.453 47.8179C114.545 47.9105 114.591 48.0031 114.591 48.1419ZM122.352 51.7989H123.923L125.54 46.4292H123.138L121.244 49.5306C120.92 50.0398 120.736 50.3639 120.689 50.5027V49.5306L120.551 46.4292H118.518L116.947 51.8451H118.195L119.442 47.6327V48.6048L119.581 51.7989H121.059L123.045 48.6048C123.151 48.4104 123.244 48.243 123.322 48.1C123.45 47.8684 123.543 47.7009 123.6 47.5865L122.352 51.7989ZM132.1 47.6791V47.679C132.146 47.2161 132.054 46.8921 131.823 46.7069C131.638 46.4755 131.315 46.3366 130.853 46.3366C130.668 46.3366 130.483 46.3829 130.298 46.4292C130.113 46.4755 129.929 46.568 129.744 46.6606L129.744 46.6607C129.616 46.7246 129.511 46.8106 129.397 46.9034C129.346 46.945 129.293 46.988 129.236 47.031C129.057 47.1652 128.922 47.2994 128.788 47.4753C128.801 47.4539 128.82 47.4137 128.82 47.355C128.82 47.3087 128.831 47.2624 128.843 47.2161C128.855 47.1698 128.866 47.1236 128.866 47.0773C128.866 47.031 128.878 46.9732 128.889 46.9153L128.889 46.9152L128.889 46.9152C128.901 46.8573 128.912 46.7995 128.912 46.7532C128.912 46.6768 128.926 46.6144 128.939 46.5582C128.949 46.5124 128.959 46.4708 128.959 46.4292H127.295C127.295 46.5218 127.295 46.6144 127.249 46.7532C127.249 46.8921 127.203 47.031 127.157 47.1698L127.157 47.1702C127.111 47.3089 127.064 47.4477 127.018 47.6327L127.018 47.6329C126.972 47.818 126.926 48.0031 126.88 48.1419L125.771 51.8451H127.48L128.266 49.1603C128.288 49.1049 128.307 49.0521 128.326 49.0013L128.326 49.0013C128.385 48.8401 128.437 48.6993 128.543 48.5585L128.543 48.5585C128.681 48.3733 128.82 48.1882 128.959 48.0494L128.959 48.0493C129.097 47.9105 129.236 47.7716 129.42 47.679C129.605 47.5864 129.744 47.5402 129.882 47.5402C130.067 47.5402 130.16 47.5864 130.252 47.679C130.344 47.7716 130.344 47.9105 130.344 48.0956C130.344 48.1419 130.344 48.2345 130.298 48.3734C130.277 48.4371 130.266 48.5007 130.255 48.5599L130.255 48.56C130.242 48.6299 130.231 48.6936 130.206 48.7437L129.328 51.8451H130.991L131.915 48.6974C131.915 48.6511 131.915 48.5585 131.961 48.466C131.961 48.4197 131.973 48.3734 131.984 48.3271C131.996 48.2808 132.008 48.2345 132.008 48.1882C132.008 48.1419 132.019 48.0956 132.031 48.0494C132.042 48.0031 132.054 47.9568 132.054 47.9105C132.1 47.8179 132.1 47.7254 132.1 47.6791ZM128.774 47.4939C128.774 47.4939 128.78 47.4877 128.788 47.4753L128.774 47.4939ZM138.238 50.2019L138.238 50.2018C138.252 50.1167 138.263 50.0473 138.29 49.9935L139.399 46.6607C139.26 46.6607 139.076 46.6144 138.891 46.5681C138.798 46.5449 138.706 46.5334 138.614 46.5218C138.521 46.5102 138.429 46.4986 138.336 46.4755C138.244 46.4755 138.14 46.4639 138.036 46.4523C137.932 46.4408 137.828 46.4292 137.736 46.4292H137.135C136.581 46.4292 136.165 46.4755 135.749 46.6144C135.334 46.7532 135.01 46.8921 134.733 47.1236C134.41 47.3087 134.179 47.5402 133.994 47.8179C133.809 48.0956 133.671 48.3271 133.532 48.6048C133.393 48.8363 133.301 49.114 133.255 49.3455C133.247 49.3852 133.239 49.4235 133.231 49.4607C133.194 49.6404 133.162 49.7938 133.162 49.9472C133.162 50.2713 133.162 50.549 133.209 50.8268C133.255 51.0582 133.347 51.2897 133.486 51.4748C133.624 51.66 133.809 51.7988 133.994 51.8914C134.179 51.984 134.41 52.0303 134.687 52.0303C134.872 52.0303 135.056 51.984 135.241 51.9377C135.426 51.8914 135.565 51.7989 135.703 51.7063C135.888 51.6137 135.98 51.5211 136.119 51.3823L136.119 51.3822C136.165 51.3128 136.223 51.2434 136.281 51.1739C136.338 51.1045 136.396 51.0351 136.442 50.9656H136.489C136.489 51.0119 136.477 51.0466 136.465 51.0814C136.454 51.1161 136.442 51.1508 136.442 51.1971C136.442 51.2162 136.434 51.2434 136.425 51.2751L136.425 51.2751C136.412 51.3201 136.396 51.3743 136.396 51.4285C136.396 51.4477 136.388 51.4748 136.379 51.5066L136.379 51.5066C136.366 51.5515 136.35 51.6057 136.35 51.66C136.304 51.7063 136.304 51.7988 136.304 51.8451H137.967C137.967 51.7063 137.967 51.5674 138.013 51.4285C138.036 51.3359 138.048 51.2549 138.059 51.1739C138.071 51.0929 138.082 51.0119 138.105 50.9193C138.105 50.7342 138.152 50.549 138.198 50.4101C138.217 50.3326 138.228 50.2632 138.238 50.2019ZM137.228 47.4707C137.274 47.4823 137.32 47.4939 137.366 47.4939L136.997 48.7437C136.951 48.9752 136.858 49.2066 136.766 49.4381C136.724 49.5071 136.687 49.5721 136.652 49.6341C136.568 49.78 136.493 49.9099 136.396 50.0398C136.258 50.225 136.119 50.3639 135.934 50.5027C135.749 50.6416 135.565 50.6879 135.38 50.6879C135.287 50.6879 135.195 50.6879 135.103 50.6416C135.089 50.6276 135.07 50.6136 135.051 50.5983C135.005 50.563 134.95 50.521 134.918 50.4564C134.872 50.3639 134.826 50.2713 134.826 50.1787V49.8084V49.8083C134.826 49.7157 134.826 49.5306 134.872 49.3918C134.872 49.2745 134.909 49.1758 134.948 49.0722C134.97 49.0122 134.993 48.9505 135.01 48.8826C135.057 48.79 135.103 48.709 135.149 48.628L135.149 48.6278C135.195 48.5469 135.241 48.4659 135.287 48.3734C135.38 48.1882 135.518 48.0494 135.657 47.9105C135.796 47.7716 135.98 47.679 136.165 47.5865L136.165 47.5865C136.35 47.4939 136.581 47.4476 136.812 47.4476H137.089C137.135 47.4476 137.182 47.4592 137.228 47.4707ZM143.233 51.7989H144.896L146.467 46.3829H144.804L144.25 48.3271H142.402L142.956 46.3829H141.293L139.722 51.7989H141.385L142.032 49.5769H143.88L143.233 51.7989ZM152.195 50.5027C152.242 50.3176 152.288 50.1324 152.334 49.9935L153.258 46.4755H151.595L150.856 49.0214C150.81 49.2066 150.717 49.4381 150.625 49.6232C150.532 49.8547 150.394 50.0398 150.255 50.1787C150.117 50.3176 149.978 50.4564 149.793 50.549C149.655 50.6416 149.47 50.6879 149.285 50.6879C149.1 50.6879 149.008 50.6416 148.916 50.549C148.869 50.4564 148.823 50.3176 148.823 50.1787V50.0398C148.869 49.9472 148.869 49.901 148.869 49.8547C148.869 49.8315 148.881 49.7968 148.892 49.7621C148.904 49.7274 148.916 49.6926 148.916 49.6695C148.916 49.6464 148.927 49.6117 148.939 49.577L148.939 49.5769L148.939 49.5768C148.95 49.5421 148.962 49.5075 148.962 49.4843L149.839 46.4292H148.176L147.252 49.5769C147.252 49.6232 147.252 49.7158 147.206 49.8084C147.206 49.901 147.206 49.9935 147.16 50.0861C147.16 50.1324 147.148 50.1787 147.137 50.225C147.125 50.2713 147.114 50.3176 147.114 50.3639C147.068 50.4564 147.068 50.549 147.068 50.5953C147.068 51.0582 147.114 51.4285 147.345 51.66C147.53 51.8914 147.853 52.0303 148.315 52.0303C148.5 52.0303 148.685 51.984 148.869 51.9377C149.054 51.8914 149.239 51.7989 149.424 51.7063L149.424 51.7063C149.551 51.6424 149.657 51.5564 149.771 51.4635C149.822 51.4219 149.875 51.3789 149.932 51.3359C149.976 51.2913 150.026 51.2466 150.077 51.2003C150.185 51.1029 150.3 50.9986 150.394 50.873H150.44C150.44 50.873 150.394 50.9193 150.394 51.0119C150.394 51.0311 150.386 51.0582 150.377 51.09C150.363 51.1349 150.348 51.1891 150.348 51.2434C150.348 51.336 150.348 51.4285 150.301 51.5211C150.301 51.5976 150.287 51.66 150.275 51.7161L150.275 51.7162C150.265 51.7619 150.255 51.8035 150.255 51.8451H151.964C151.964 51.7526 151.964 51.6137 152.011 51.4748C152.034 51.4054 152.045 51.3244 152.057 51.2434C152.068 51.1624 152.08 51.0814 152.103 51.0119C152.103 50.8585 152.135 50.7369 152.172 50.5944C152.18 50.5649 152.188 50.5345 152.195 50.5027ZM156.908 51.7989H158.571L160.234 46.3829H157.462C157 46.3829 156.584 46.4292 156.261 46.5218C155.937 46.6144 155.66 46.7532 155.475 46.8921C155.244 47.0773 155.106 47.2624 155.013 47.4476C154.921 47.6327 154.829 47.8642 154.829 48.0956C154.829 48.2808 154.829 48.4197 154.875 48.5585C154.921 48.6974 154.967 48.8363 155.06 48.9289C155.152 49.0214 155.244 49.114 155.383 49.2066L155.799 49.3455C155.475 49.4381 155.198 49.5306 154.967 49.7158C154.736 49.8547 154.505 50.0861 154.321 50.3639L153.304 51.7989H155.198L155.984 50.5953C156.076 50.4564 156.168 50.3176 156.261 50.225C156.353 50.1324 156.446 50.0398 156.538 49.9935C156.6 49.9318 156.661 49.9112 156.723 49.8907C156.754 49.8804 156.784 49.8701 156.815 49.8547C156.908 49.8084 157 49.8084 157.092 49.8084H157.508L156.908 51.7989ZM156.723 47.5865C156.908 47.4476 157.185 47.4013 157.508 47.4013H158.201L157.785 48.79H157.231C157.139 48.79 157 48.79 156.908 48.7437C156.769 48.6974 156.677 48.6511 156.63 48.6048C156.538 48.5585 156.492 48.5123 156.446 48.4197C156.399 48.3271 156.399 48.2345 156.399 48.1419C156.446 47.9105 156.538 47.7253 156.723 47.5865ZM167.533 46.5679H168.595L167.256 48.4658L168.595 50.3174H167.533L166.239 48.4658L166.286 48.3732L167.533 46.5679ZM169.335 46.5679H170.443L169.104 48.4658L170.443 50.3174H169.381L168.087 48.4658L169.335 46.5679ZM222.646 50.3174H221.583L222.923 48.4195L221.583 46.5679H222.646L223.939 48.4195L223.893 48.5121L222.646 50.3174ZM220.844 50.3174H219.735L221.075 48.4195L219.735 46.5679H220.798L222.091 48.4195L220.844 50.3174ZM177.88 45.5497C177.787 45.2719 177.649 45.0405 177.464 44.8553C177.279 44.6702 177.048 44.5313 176.725 44.3924C176.401 44.2999 176.032 44.2073 175.616 44.2073H173.029L170.812 51.7988H172.521L173.26 49.2066H174.323C174.923 49.2066 175.431 49.114 175.847 48.9751C176.263 48.8363 176.632 48.6048 176.956 48.3734C177.233 48.0956 177.464 47.8179 177.649 47.4939C177.787 47.1698 177.88 46.7995 177.926 46.4292C177.972 46.1052 177.972 45.7811 177.88 45.5497ZM176.032 47.031C175.939 47.2161 175.847 47.355 175.708 47.4939C175.57 47.6327 175.385 47.7253 175.2 47.8179C175.016 47.9105 174.785 47.9105 174.507 47.9105H173.722L174.415 45.5497H175.108C175.477 45.5497 175.755 45.6423 175.939 45.8274C176.124 46.0126 176.217 46.244 176.17 46.5218C176.147 46.6143 176.124 46.6953 176.101 46.7763L176.101 46.7764C176.078 46.8574 176.055 46.9384 176.032 47.031ZM180.098 53.141C180.329 52.9095 180.56 52.6318 180.745 52.3078L184.671 46.3826H182.916L181.022 49.6692C180.929 49.8081 180.837 49.947 180.791 50.0858C180.745 50.2247 180.699 50.3172 180.652 50.4098L180.652 50.4099H180.606C180.606 50.3683 180.615 50.3267 180.626 50.2809L180.626 50.2808L180.626 50.2808C180.638 50.2247 180.652 50.1623 180.652 50.0858V49.7155L180.514 46.4289H178.758L179.405 51.7986L178.897 52.4929C178.758 52.6781 178.573 52.8632 178.389 52.9558C178.204 53.0484 178.019 53.0947 177.788 53.0947C177.696 53.0947 177.557 53.0947 177.465 53.0484C177.326 53.0021 177.234 52.9558 177.188 52.9095L176.818 54.2057C176.957 54.2519 177.095 54.2982 177.28 54.2982C177.419 54.3445 177.557 54.3445 177.696 54.3445C178.019 54.3445 178.342 54.2982 178.62 54.2057C178.897 54.1131 179.174 53.9742 179.405 53.7891C179.612 53.6508 179.767 53.4867 179.929 53.3161L179.929 53.3159L179.929 53.3158L179.93 53.3156C179.984 53.2579 180.04 53.1995 180.098 53.141ZM189.245 47.8642C189.152 47.7716 188.968 47.679 188.783 47.6327C188.598 47.5864 188.413 47.5402 188.182 47.5402C187.905 47.5402 187.674 47.5864 187.489 47.7253C187.258 47.8642 187.074 48.0031 186.935 48.1882C186.797 48.3734 186.658 48.6048 186.566 48.8363C186.473 49.0677 186.427 49.2992 186.381 49.5306C186.335 49.9009 186.427 50.1787 186.566 50.3638C186.704 50.549 186.981 50.6416 187.305 50.6416C187.397 50.6416 187.536 50.6416 187.628 50.5953C187.72 50.5953 187.859 50.549 187.951 50.5027C188.09 50.4564 188.182 50.4102 188.275 50.3639L188.275 50.3638L188.552 50.225L188.182 51.5211C187.951 51.66 187.674 51.7525 187.397 51.7988C187.12 51.8451 186.843 51.8914 186.566 51.8914C186.196 51.8914 185.919 51.8451 185.642 51.7063C185.364 51.6137 185.18 51.4285 184.995 51.2434C184.81 51.0582 184.718 50.8267 184.625 50.549C184.579 50.2713 184.533 49.9935 184.579 49.6695C184.625 49.3455 184.671 49.0677 184.764 48.79C184.856 48.5123 184.995 48.2346 185.133 47.9569L185.133 47.9568C185.272 47.7253 185.457 47.4476 185.688 47.2624C185.919 47.031 186.15 46.8458 186.381 46.7069C186.658 46.5681 186.935 46.4292 187.212 46.3366C187.536 46.244 187.859 46.1977 188.182 46.1977C188.367 46.1977 188.506 46.1977 188.644 46.244C188.783 46.244 188.922 46.2903 189.014 46.3366C189.075 46.3569 189.127 46.3683 189.173 46.3786C189.234 46.3918 189.285 46.4032 189.337 46.4292C189.362 46.4416 189.383 46.454 189.403 46.4655C189.458 46.497 189.501 46.5218 189.568 46.5218L189.245 47.8642ZM204.399 46.4287C204.307 46.4056 204.215 46.394 204.122 46.3824C204.03 46.3708 203.937 46.3593 203.845 46.3361C203.66 46.2898 203.475 46.2898 203.244 46.2898C203.152 46.2898 203.048 46.2783 202.944 46.2667C202.84 46.2551 202.736 46.2435 202.644 46.2435C202.136 46.2435 201.674 46.2898 201.304 46.4287C200.935 46.5676 200.565 46.7527 200.288 46.9379C200.011 47.1693 199.78 47.4008 199.549 47.6322C199.364 47.91 199.225 48.1414 199.087 48.4192C199 48.5931 198.949 48.7488 198.901 48.8978C198.872 48.9868 198.844 49.0733 198.81 49.1598L198.81 49.16C198.763 49.3914 198.717 49.6228 198.717 49.7616C198.671 50.0856 198.717 50.3634 198.763 50.6411C198.81 50.9188 198.902 51.104 199.041 51.2892C199.179 51.4743 199.318 51.6132 199.549 51.7058C199.734 51.7984 199.964 51.8446 200.242 51.8446C200.473 51.8446 200.657 51.7984 200.796 51.7521C200.981 51.7058 201.119 51.6132 201.258 51.5206C201.397 51.428 201.535 51.2892 201.628 51.1966C201.697 51.1272 201.755 51.0577 201.812 50.9883C201.87 50.9188 201.928 50.8494 201.997 50.78H202.043C202.043 50.7992 202.035 50.8263 202.026 50.858C202.013 50.903 201.997 50.9572 201.997 51.0114C201.997 51.0657 201.981 51.1199 201.968 51.1648C201.959 51.1966 201.951 51.2237 201.951 51.2429C201.951 51.2971 201.935 51.3513 201.922 51.3963C201.913 51.428 201.905 51.4552 201.905 51.4743C201.905 51.5669 201.905 51.6132 201.859 51.6595H203.568C203.568 51.6211 203.576 51.5749 203.585 51.5206C203.598 51.4439 203.614 51.3513 203.614 51.2429C203.639 51.1691 203.65 51.0823 203.662 50.9894C203.673 50.9073 203.685 50.8205 203.706 50.7337C203.73 50.6411 203.741 50.5601 203.753 50.4791C203.764 50.3981 203.776 50.3171 203.799 50.2245C203.845 50.0856 203.891 49.9468 203.891 49.8079L204.908 46.3361C204.769 46.5213 204.584 46.475 204.399 46.4287ZM202.598 48.7432C202.552 48.9747 202.459 49.2061 202.367 49.4376C202.31 49.5798 202.236 49.7046 202.165 49.8226L202.165 49.8227L202.165 49.8228C202.121 49.8967 202.079 49.968 202.043 50.0393C201.905 50.2245 201.766 50.3634 201.581 50.5022C201.397 50.6411 201.212 50.6874 201.027 50.6874C200.935 50.6874 200.842 50.6874 200.75 50.5948C200.657 50.5485 200.611 50.5022 200.565 50.4097C200.519 50.3171 200.473 50.2245 200.473 50.1319C200.473 50.1039 200.468 50.0716 200.464 50.0364C200.453 49.9552 200.44 49.8584 200.473 49.7616C200.473 49.6227 200.519 49.4839 200.565 49.3451L200.565 49.345C200.611 49.2063 200.657 49.0215 200.703 48.8365L200.704 48.8358C200.75 48.6506 200.842 48.5118 200.981 48.3266C201.073 48.1415 201.212 48.0026 201.35 47.8637L201.35 47.8637C201.489 47.7248 201.674 47.6322 201.859 47.5397C202.043 47.4471 202.274 47.4008 202.505 47.4008H202.782C202.829 47.4008 202.875 47.4124 202.921 47.4239C202.967 47.4355 203.013 47.4471 203.06 47.4471L202.598 48.7432ZM210.681 50.5032C210.727 50.318 210.773 50.1329 210.819 49.994L211.789 46.4297H210.126L209.387 48.9756C209.341 49.1608 209.249 49.3922 209.156 49.5774C209.064 49.8089 208.925 49.994 208.787 50.1329C208.648 50.2717 208.509 50.4106 208.325 50.5032C208.186 50.5958 208.001 50.6421 207.816 50.6421C207.632 50.6421 207.539 50.5958 207.447 50.5032C207.401 50.4106 207.354 50.2717 207.354 50.1329V50.0403C207.354 49.9861 207.37 49.9477 207.383 49.916C207.393 49.8935 207.401 49.8743 207.401 49.8551C207.401 49.832 207.412 49.7973 207.424 49.7626C207.435 49.7278 207.447 49.6931 207.447 49.67C207.447 49.6157 207.463 49.5774 207.476 49.5456C207.485 49.5232 207.493 49.504 207.493 49.4848L208.371 46.4297H206.708L205.784 49.5774C205.784 49.6237 205.784 49.7163 205.737 49.8089C205.737 49.8551 205.726 49.9014 205.714 49.9477C205.703 49.994 205.691 50.0403 205.691 50.0866C205.691 50.1329 205.68 50.1792 205.668 50.2255C205.657 50.2718 205.645 50.318 205.645 50.3643C205.599 50.4569 205.599 50.5495 205.599 50.5958C205.599 51.0587 205.645 51.429 205.876 51.6605C206.061 51.8919 206.384 52.0308 206.846 52.0308C207.031 52.0308 207.216 51.9845 207.401 51.9382C207.585 51.8919 207.77 51.7993 207.955 51.7067C208.083 51.6428 208.188 51.5568 208.302 51.464C208.353 51.4224 208.406 51.3794 208.463 51.3364C208.508 51.2917 208.557 51.247 208.608 51.2008L208.608 51.2006C208.711 51.1078 208.82 51.0088 208.912 50.891C208.898 50.9122 208.879 50.9526 208.879 51.0124C208.879 51.0316 208.871 51.0587 208.862 51.0905C208.849 51.1354 208.833 51.1896 208.833 51.2438C208.833 51.2901 208.821 51.3364 208.81 51.3827C208.798 51.429 208.787 51.4753 208.787 51.5216C208.787 51.598 208.773 51.6604 208.76 51.7166L208.76 51.7167C208.75 51.7625 208.74 51.804 208.74 51.8456H210.45C210.45 51.8041 210.459 51.7532 210.469 51.6972L210.469 51.6969C210.482 51.6282 210.496 51.5517 210.496 51.4753C210.519 51.4059 210.531 51.3249 210.542 51.2438C210.554 51.1628 210.565 51.0818 210.588 51.0124C210.588 50.859 210.62 50.7374 210.657 50.5949C210.665 50.5654 210.673 50.535 210.681 50.5032ZM208.912 50.891C208.915 50.8864 208.918 50.8827 208.92 50.8799C208.923 50.8757 208.925 50.8735 208.925 50.8735L208.912 50.891ZM213.866 51.7986L214.513 49.5767H216.361L215.76 51.7986H217.423L218.994 46.3826H217.285L216.731 48.3731H214.883L215.437 46.3826H213.774L212.203 51.7986H213.866Z" fill="white"/>
</svg>
