<svg width="224" height="78" viewBox="0 0 224 78" fill="none" xmlns="http://www.w3.org/2000/svg">
<path fill-rule="evenodd" clip-rule="evenodd" d="M68.1159 16.7584C65.806 18.4711 61.0016 20.8319 56.9363 17.8693C54.765 13.4718 56.5205 11.0647 59.1999 8.47245C64.0044 4.76925 64.3277 1.7604 61.4636 0.695726C69.4094 -2.31313 73.9829 5.23215 67.9773 8.19471L67.7463 8.28729L68.5779 8.7039C85.994 19.1655 84.5619 44.625 63.0804 53.0035C65.4365 46.1988 65.4365 38.6073 63.1728 31.7563L63.1266 31.5249C63.4962 31.5712 63.912 31.6175 64.2816 31.6175C67.9311 31.6175 70.9339 28.6549 70.9339 24.9517C70.9339 22.5909 69.7328 20.5542 67.9311 19.3506C67.7463 19.2117 67.6077 19.1192 67.4229 19.0266C67.1919 18.8877 67.0072 18.7951 66.7762 18.7026C67.3767 18.5174 69.317 17.175 68.1159 16.7584ZM60.0315 20.0913L56.0123 21.9891C56.1509 20.9245 56.2895 19.9524 56.7977 18.6563C57.5368 19.5358 58.9689 19.9061 60.0315 20.0913ZM62.1565 14.5364C62.1103 13.8421 61.5098 13.2866 60.8168 13.3329C60.1238 13.3792 59.5695 13.981 59.6157 14.6753C59.6619 15.3697 60.2624 15.9251 60.9554 15.8789C61.6483 15.8326 62.2027 15.2308 62.1565 14.5364ZM73.568 4.07443C70.1957 3.70411 72.3669 -0.230538 75.6469 0.787841C78.0953 1.52848 78.6958 4.62991 77.0789 6.01861C74.8153 7.96278 72.6441 8.00907 69.8261 8.00907C72.9212 6.89811 74.5381 5.64829 74.1686 4.16701C73.8939 3.06616 73.8208 3.35915 73.7363 3.69818C73.6929 3.87237 73.6464 4.05872 73.568 4.07443ZM37.1186 16.5274H21.2731C6.53638 16.5274 -1.03988 1.06651 0.115034 1.02022C0.201846 1.07241 0.296376 1.13012 0.398905 1.19271C2.47877 2.46246 7.85036 5.7418 18.8709 5.7418C20.7972 5.85155 22.649 5.90637 24.4312 5.95914C35.4283 6.28475 43.7768 6.53193 50.6542 19.1196C47.5628 16.8265 41.8194 16.6662 38.4582 16.5723C37.9519 16.5582 37.4996 16.5456 37.1186 16.5274ZM154.137 76.6114L159.126 59.484H165.824L160.835 76.6114H154.137ZM159.773 54.0218C160.235 52.5405 162.314 51.2444 164.392 51.2444C166.471 51.2444 167.857 52.4942 167.441 54.0218C166.979 55.5494 164.808 56.7992 162.729 56.7992C160.65 56.7992 159.357 55.5031 159.773 54.0218ZM148.13 71.5195C150.255 71.9824 151.179 74.5746 150.579 76.6577H134.549L140.739 55.4568L147.761 55.5031L142.217 74.5283L142.171 74.7135H147.114L148.13 71.5195ZM114.637 59.5306L109.648 76.6579V76.6116H103.134L103.873 74.0194C101.101 75.7784 99.0686 76.9357 95.6963 76.9357C93.2017 76.9357 90.8456 76.2876 89.8293 74.76C88.8965 73.4189 89.4592 71.5783 89.9543 69.9586L89.9544 69.9584C90.0232 69.7333 90.0907 69.5125 90.1527 69.2978L93.0169 59.5306H99.7154L96.8512 69.2978C96.6202 70.0848 96.2968 71.4735 96.574 72.2141C96.8512 73.3251 97.7751 74.0657 99.4844 74.0657C103.688 74.0657 104.612 70.9643 105.259 68.7423L107.938 59.5306H114.637ZM117.316 72.167C116.808 72.4448 115.792 73.3706 115.191 74.2038C114.868 74.6204 114.637 75.037 114.406 75.5462C116.115 76.5183 118.286 76.9812 120.642 76.9812C126.509 76.9812 130.667 74.6204 131.637 71.3338C132.764 67.5167 129.217 66.4938 126.244 65.6363C124.097 65.0171 122.249 64.4842 122.675 63.0479C123.045 61.6129 125.077 61.0111 126.833 61.0111C129.004 61.0111 130.621 62.4461 130.575 63.9737C131.36 63.7423 132.469 63.0016 133.208 62.0758L134.039 60.8723C132.422 59.7613 129.882 59.2058 127.479 59.2058C123.091 59.2058 118.563 61.2426 117.501 64.8069C116.463 68.3541 119.872 69.4273 122.763 70.3372C124.89 71.0066 126.736 71.5877 126.324 73.0003C125.955 74.2501 123.645 75.1759 121.982 75.1759C119.349 75.1759 117.639 73.926 117.316 72.167ZM171.92 59.4841L166.931 76.6113H173.629L175.985 68.4643C176.632 66.2424 177.833 62.1226 182.037 62.1226C185.409 62.1226 185.317 64.5297 184.347 67.8162L181.76 76.6113H188.458L191.461 66.2424C192.708 61.9837 191.969 59.16 185.871 59.16C182.868 59.16 179.958 60.4099 177.556 62.0763L178.341 59.4841H171.92ZM66.8215 55.9201L76.6152 55.8738C90.89 55.8275 90.7052 68.835 79.4332 69.4368H79.3408H79.2484H79.156L83.3137 76.7506H77.4006L73.2891 69.5757H69.6857L67.6069 76.7044H60.585L64.6041 63.0025C64.6965 62.5859 66.4519 56.707 66.8215 55.9201ZM75.0907 68.0481C81.5583 68.0481 85.254 56.0127 72.8733 57.9106L70.1015 68.0481H75.0907ZM202.551 68.0942H205.368C205.638 68.0851 205.981 68.0822 206.38 68.079H206.38C210.022 68.049 218.292 67.9811 216.918 62.7246C216.363 60.5952 213.499 59.1602 209.11 59.2065C202.089 59.2065 197.007 62.7246 195.529 67.6776C193.819 73.4175 196.915 76.9819 204.999 76.9819C207.355 76.9819 210.173 76.3801 212.39 75.408L214.007 73.4175L213.499 73.0935C211.744 74.0193 209.388 74.6674 207.401 74.6674C202.273 74.6674 201.349 71.7511 202.551 68.0942ZM203.428 65.6408C204.676 62.7246 206.708 61.845 208.787 61.7988C213.915 61.6136 212.298 66.6592 207.401 66.6592H203.059L203.428 65.6408ZM26.3096 42.7276C25.247 30.9236 47.3753 31.6179 42.155 41.7092C41.924 41.1074 40.9077 41.1074 40.4457 41.4777C39.8914 41.8943 39.8914 43.3756 41.1849 44.07C44.8344 46.3845 53.889 45.3198 58.3239 33.6084C55.4597 54.8556 27.7879 59.2068 26.3096 42.7276ZM2.19265 41.4308C6.48894 32.4043 13.8342 31.1545 19.2854 33.5153C21.2719 34.5799 21.8724 36.1538 21.2719 37.6814C19.886 34.0707 14.6196 35.5057 13.557 40.9217C8.79877 65.2239 59.0608 69.9918 61.001 33.0061C61.5554 35.3669 61.8788 37.8202 61.8788 40.3662C61.8788 57.9101 47.1882 72.1674 29.0329 72.1674C26.4459 72.1674 23.9513 71.8897 21.5491 71.3342C20.8561 71.149 20.2094 70.9639 19.5164 70.7324C3.02419 64.8536 -2.05745 50.4574 2.19265 41.4308ZM60.6328 57.7713C59.7089 61.4745 57.9996 64.8999 55.6436 67.8162C50.5619 73.9728 42.7547 77.9537 33.9773 78C28.6185 77.9537 23.6754 76.4261 19.4715 73.8339C19.6665 73.9177 19.8615 73.9846 20.0667 74.0549L20.0669 74.055L20.0671 74.0551C20.202 74.1014 20.3413 74.1492 20.4879 74.2042C21.1808 74.4357 21.8738 74.6671 22.5667 74.8523C25.0613 75.4078 27.6483 75.7318 30.3278 75.7318C43.54 75.7318 54.9968 68.4643 60.6328 57.7713ZM49.8229 27.7755H29.1268C20.9499 27.7755 15.6373 21.7578 13.5585 18.286C15.9145 19.2118 19.8412 19.7673 22.7054 19.7673L39.1976 19.9062C50.4234 19.4896 56.66 23.4705 59.8476 30.09C57.105 28.0627 52.3934 27.8769 50.0138 27.783L49.8229 27.7755ZM91.2628 9.95398C91.1243 16.666 85.3959 18.6102 81.2844 18.7491C80.2219 16.4809 78.7898 14.3515 77.1267 12.4999C81.2382 13.0554 88.5372 11.8519 91.2628 9.95398ZM83.6848 28.3772C89.4132 27.2199 90.4757 21.8966 90.2447 17.4528C88.1196 19.7673 84.8397 20.6468 82.1603 20.8319C83.0842 23.239 83.5924 25.8312 83.6848 28.3772ZM89.0448 27.6828C88.1671 32.497 85.9958 36.9871 82.1153 37.9592C83.0392 35.5059 83.6398 32.9599 83.7322 30.3214C86.042 29.8585 87.7975 28.9327 89.0448 27.6828ZM78.6757 10.2895C78.7147 10.3334 78.7524 10.3759 78.7889 10.4168C73.8458 11.2963 70.9354 9.53726 70.2425 9.02807C72.0904 9.16694 73.6611 9.16693 75.2318 8.47258C76.5533 7.89876 77.8748 9.38739 78.6757 10.2895Z" fill="#FF2A00"/>
<path fill-rule="evenodd" clip-rule="evenodd" d="M212.299 43.6982C212.207 43.976 212.068 44.2074 211.883 44.4389C211.699 44.6703 211.514 44.8555 211.283 45.0407C211.052 45.2258 210.775 45.3184 210.498 45.411C210.22 45.5036 209.897 45.5498 209.574 45.5498C209.296 45.5498 209.019 45.5036 208.788 45.411C208.557 45.3184 208.326 45.1795 208.188 45.0407C208.003 44.8555 207.911 44.6703 207.818 44.4389C207.726 44.2074 207.68 43.976 207.726 43.6982H208.973V43.6984C208.973 43.8372 208.973 43.9297 209.019 44.0686C209.035 44.0994 209.05 44.1354 209.065 44.1715C209.096 44.2435 209.127 44.3154 209.158 44.3463C209.204 44.4389 209.296 44.4852 209.389 44.5315C209.481 44.5778 209.62 44.624 209.758 44.624C209.897 44.624 210.036 44.624 210.174 44.5315C210.313 44.4852 210.405 44.4389 210.544 44.3463C210.575 44.3154 210.61 44.2846 210.646 44.2537C210.718 44.192 210.79 44.1303 210.821 44.0686C210.877 44.0125 210.916 43.9395 210.958 43.8597L210.959 43.8596C210.986 43.8077 211.016 43.753 211.052 43.6982H212.299ZM194.417 51.7996H196.127L198.298 44.1155H193.586C193.515 44.3634 193.417 44.5842 193.313 44.8193C193.281 44.8915 193.249 44.9651 193.216 45.0413L192.801 46.0134L192.385 46.9855C192.315 47.1243 192.246 47.2747 192.177 47.4251L192.177 47.4252C192.108 47.5757 192.038 47.7261 191.969 47.865C191.877 48.1427 191.738 48.4205 191.599 48.6519C191.536 48.8417 191.452 48.9882 191.375 49.1211L191.375 49.1212C191.339 49.1827 191.305 49.2413 191.276 49.3C191.091 49.6703 190.86 49.948 190.675 50.1332C190.491 50.3183 190.26 50.4109 190.029 50.4109H189.798C189.705 50.4109 189.659 50.4109 189.613 50.3646L189.197 51.7533C189.336 51.7996 189.474 51.8459 189.613 51.8459C189.752 51.8922 189.936 51.8922 190.075 51.8922C190.352 51.8922 190.629 51.8459 190.86 51.7533C191.137 51.6608 191.368 51.5682 191.553 51.383C191.784 51.2441 191.969 51.0127 192.154 50.7813C192.339 50.5498 192.523 50.2721 192.708 49.948C192.753 49.8587 192.797 49.7645 192.843 49.6671L192.844 49.6668C192.941 49.4615 193.045 49.2419 193.17 49.0222C193.262 48.8371 193.343 48.6519 193.424 48.4667C193.505 48.2816 193.586 48.0964 193.678 47.9113C193.795 47.6767 193.894 47.4422 193.997 47.1959C194.057 47.0533 194.119 46.9068 194.186 46.754C194.371 46.3838 194.51 46.0136 194.648 45.6434L194.648 45.6432L194.648 45.6431H196.219L194.417 51.7996ZM80.6368 50.1326L80.7292 51.7991H82.3923L81.9303 44.2075H79.8976L74.9546 51.7991H76.8948L77.9112 50.1326H80.6368ZM80.5444 46.0591V46.2443V48.8828H78.6041L80.1748 46.2906C80.1748 46.2443 80.221 46.1517 80.2672 46.1054C80.2903 46.0823 80.3019 46.0476 80.3134 46.0128C80.325 45.9781 80.3365 45.9434 80.3596 45.9203C80.3772 45.8849 80.3949 45.8563 80.41 45.8319C80.4343 45.7923 80.452 45.7637 80.452 45.7351C80.452 45.7119 80.4635 45.6888 80.4751 45.6657C80.4866 45.6425 80.4982 45.6194 80.4982 45.5962H80.5444V45.6888V45.874V46.0591ZM89.5527 47.957C89.5989 47.8181 89.6451 47.6793 89.6451 47.5404V47.5404C89.6451 47.4015 89.6451 47.2627 89.5066 47.1701C89.4604 47.0312 89.368 46.8923 89.2294 46.7535C89.0908 46.6146 88.906 46.522 88.675 46.4294C88.444 46.3369 88.1206 46.2906 87.7511 46.2906C87.1967 46.2906 86.7347 46.3832 86.319 46.522C85.9032 46.6609 85.5336 46.8461 85.2564 47.1238C85.0255 47.309 84.8407 47.5404 84.7021 47.7719C84.5635 48.0033 84.4249 48.281 84.3325 48.5125C84.2401 48.7439 84.1477 49.0217 84.1015 49.2531C84.0553 49.4846 84.0091 49.716 84.0091 49.9475V49.9475C84.0091 50.3178 84.0091 50.6418 84.1015 50.9196C84.1477 51.151 84.2863 51.3825 84.4711 51.5214C84.6559 51.6602 84.8869 51.7991 85.1641 51.8454C85.4412 51.8917 85.7646 51.938 86.1342 51.938C86.5038 51.938 86.8733 51.8917 87.1505 51.8454C87.4739 51.7991 87.7049 51.7065 87.9359 51.6139C87.9841 51.5849 88.0303 51.558 88.0745 51.5322C88.242 51.4344 88.3806 51.3535 88.4902 51.2436C88.6288 51.1047 88.7674 50.9659 88.8598 50.827L88.8598 50.827C88.9522 50.6881 89.0446 50.5493 89.0908 50.4104C89.137 50.2715 89.1832 50.1327 89.1832 50.0401C89.2294 49.7623 89.137 49.4846 88.9522 49.2994C88.7674 49.1143 88.4902 49.0217 88.1207 48.9754C88.3978 48.9291 88.6288 48.8365 88.8136 48.7439C88.8687 48.7025 88.9239 48.6652 88.9766 48.6295L88.9766 48.6295L88.9766 48.6295C89.1005 48.5457 89.2107 48.4711 89.2756 48.3736C89.4142 48.2348 89.5065 48.0959 89.5527 47.957L89.5527 47.957ZM87.8897 47.4015C87.9821 47.4941 88.0283 47.633 88.0283 47.7719C88.0283 47.957 87.9821 48.0959 87.9359 48.1422C87.8435 48.2348 87.7049 48.3273 87.5201 48.3736C87.3353 48.4662 87.1043 48.5125 86.8733 48.5125C86.5962 48.5588 86.3652 48.5588 86.0418 48.5588C86.088 48.3736 86.1804 48.1885 86.2728 48.0496C86.3652 47.8644 86.4576 47.7256 86.5962 47.633C86.7347 47.4941 86.8733 47.4015 87.0119 47.3552C87.1505 47.309 87.2891 47.2627 87.4739 47.2627C87.6587 47.2627 87.7973 47.309 87.8897 47.4015ZM87.4277 49.6235C87.5663 49.716 87.6125 49.8549 87.6125 50.0401C87.6125 50.1327 87.5663 50.2252 87.5201 50.3178C87.4739 50.4104 87.3815 50.5029 87.2891 50.5955L87.2891 50.5955C87.1967 50.6881 87.0581 50.7344 86.9195 50.7807C86.8552 50.7807 86.7809 50.7907 86.7013 50.8014C86.6094 50.8137 86.5104 50.827 86.4114 50.827C86.088 50.827 85.9032 50.7807 85.7646 50.6418C85.6722 50.503 85.5798 50.2715 85.626 49.9938V49.8086C85.626 49.716 85.626 49.6697 85.6722 49.5772C85.7365 49.5772 85.8108 49.5672 85.8904 49.5565C85.9823 49.5442 86.0814 49.5309 86.1804 49.5309C86.3652 49.4846 86.5961 49.4846 86.7809 49.4846H86.7809C87.1043 49.4846 87.2891 49.5309 87.4277 49.6235ZM95.5583 50.503C95.6045 50.3178 95.6507 50.1326 95.6969 49.9938L96.667 46.4757H95.004L94.2648 49.0217C94.2186 49.2069 94.1262 49.4383 94.0338 49.6235C93.9414 49.8549 93.8028 50.0401 93.6643 50.1789L93.6642 50.179C93.5257 50.3178 93.3871 50.4567 93.2023 50.5493C93.0637 50.6418 92.8789 50.6881 92.6941 50.6881C92.5093 50.6881 92.4169 50.6418 92.3245 50.5493C92.2322 50.4567 92.2322 50.3178 92.2322 50.1789V50.0401C92.2322 49.9858 92.248 49.9475 92.2611 49.9157C92.2704 49.8933 92.2784 49.8741 92.2784 49.8549C92.2784 49.8318 92.2899 49.797 92.3015 49.7623C92.313 49.7276 92.3245 49.6929 92.3245 49.6697C92.3245 49.6466 92.3361 49.6119 92.3476 49.5772C92.3592 49.5425 92.3707 49.5077 92.3707 49.4846L93.2485 46.4294H91.5854L90.6615 49.5772C90.6615 49.6235 90.6615 49.716 90.6153 49.8086C90.6153 49.8549 90.6037 49.9012 90.5922 49.9475C90.5806 49.9938 90.5691 50.0401 90.5691 50.0864C90.5691 50.1327 90.5575 50.1789 90.546 50.2252C90.5344 50.2715 90.5229 50.3178 90.5229 50.3641C90.4767 50.4567 90.4767 50.5493 90.4767 50.5955C90.4767 51.0584 90.5229 51.4288 90.7539 51.6602C90.9386 51.8917 91.262 52.0305 91.724 52.0305C91.9088 52.0305 92.0936 51.9843 92.2784 51.938C92.4631 51.8917 92.6479 51.7991 92.8327 51.7065L92.8327 51.7065C92.9603 51.6426 93.0658 51.5566 93.1798 51.4638L93.1798 51.4638C93.2309 51.4222 93.2837 51.3792 93.3409 51.3362C93.3855 51.2915 93.4349 51.2468 93.486 51.2006C93.5886 51.1077 93.6981 51.0086 93.7896 50.8907C93.7759 50.9119 93.7566 50.9524 93.7566 51.0122C93.7566 51.0585 93.7566 51.151 93.7104 51.2436C93.7104 51.2899 93.6989 51.3362 93.6874 51.3825L93.6874 51.3825L93.6873 51.3825C93.6758 51.4288 93.6643 51.4751 93.6643 51.5214C93.6643 51.5978 93.6503 51.6602 93.6377 51.7163C93.6274 51.7622 93.6181 51.8038 93.6181 51.8454H95.3273C95.3273 51.7528 95.3273 51.6139 95.3735 51.4751C95.3966 51.4056 95.4082 51.3246 95.4197 51.2436C95.4313 51.1626 95.4428 51.0816 95.4659 51.0122C95.4659 50.8588 95.4976 50.7371 95.5348 50.5946C95.5425 50.5651 95.5504 50.5347 95.5583 50.503ZM93.8028 50.8733C93.8028 50.8733 93.797 50.8791 93.7896 50.8907L93.8028 50.8733ZM102.575 50.2021C102.588 50.117 102.6 50.0476 102.626 49.9938L103.689 46.6609C103.55 46.6609 103.366 46.6146 103.181 46.5683L103.181 46.5683C103.088 46.5452 102.996 46.5336 102.904 46.522C102.811 46.5105 102.719 46.4989 102.626 46.4757C102.534 46.4757 102.43 46.4642 102.326 46.4526C102.222 46.441 102.118 46.4294 102.026 46.4294H101.425C100.871 46.4294 100.455 46.4757 100.039 46.6146C99.6236 46.7535 99.3003 46.8923 99.0231 47.1238C98.6997 47.309 98.4687 47.5404 98.2839 47.8181C98.0991 48.0959 97.9605 48.3273 97.822 48.6051C97.6834 48.8365 97.591 49.1143 97.5448 49.3457C97.5369 49.3854 97.5289 49.4238 97.5212 49.461C97.4841 49.6407 97.4524 49.7941 97.4524 49.9475V49.9476C97.4524 50.2716 97.4524 50.5493 97.4986 50.827C97.5448 51.0584 97.6372 51.2899 97.7758 51.4751C97.9143 51.6602 98.0991 51.7991 98.2839 51.8917C98.4687 51.9843 98.6997 52.0305 98.9769 52.0305C99.1617 52.0305 99.3464 51.9843 99.5312 51.938C99.716 51.8917 99.8546 51.7991 99.9932 51.7065C100.178 51.6139 100.27 51.5213 100.409 51.3825C100.548 51.2436 100.686 51.1047 100.779 50.9659C100.779 51.0122 100.767 51.0469 100.755 51.0816C100.744 51.1163 100.732 51.151 100.732 51.1973C100.732 51.2165 100.724 51.2436 100.715 51.2754L100.715 51.2754C100.702 51.3203 100.686 51.3745 100.686 51.4288C100.686 51.4479 100.678 51.475 100.669 51.5068L100.669 51.5068C100.656 51.5518 100.64 51.606 100.64 51.6602C100.594 51.7065 100.594 51.7991 100.594 51.8454H102.303C102.303 51.7065 102.303 51.5676 102.349 51.4288C102.372 51.3362 102.384 51.2552 102.395 51.1742L102.395 51.1741C102.407 51.0931 102.419 51.0121 102.442 50.9196C102.463 50.8328 102.475 50.7459 102.486 50.6639L102.486 50.6639L102.486 50.6638L102.486 50.6638L102.486 50.6638L102.486 50.6637C102.498 50.5709 102.509 50.4841 102.534 50.4104C102.553 50.3329 102.565 50.2634 102.575 50.2021L102.575 50.2021ZM101.564 47.471C101.61 47.4825 101.656 47.4941 101.702 47.4941L101.287 48.7439C101.241 48.9754 101.148 49.2068 101.056 49.4383C100.963 49.6697 100.871 49.8549 100.732 50.0401C100.594 50.2252 100.455 50.3641 100.27 50.503C100.086 50.6418 99.9008 50.6881 99.716 50.6881H99.716C99.6236 50.6881 99.5312 50.6881 99.4388 50.6418C99.3464 50.5956 99.3003 50.5493 99.2541 50.4567L99.254 50.4566C99.2078 50.3641 99.1617 50.2715 99.1617 50.1789V49.8086C99.1617 49.716 99.1617 49.5309 99.2079 49.392C99.2079 49.2748 99.2449 49.1761 99.2838 49.0724C99.3063 49.0124 99.3295 48.9507 99.3464 48.8828C99.3926 48.7902 99.4388 48.7092 99.485 48.6282C99.5312 48.5472 99.5774 48.4662 99.6236 48.3736C99.716 48.1885 99.8546 48.0496 99.9932 47.9107C100.132 47.7719 100.317 47.6793 100.501 47.5867L100.501 47.5867C100.686 47.4941 100.917 47.4478 101.148 47.4478H101.425C101.471 47.4478 101.518 47.4594 101.564 47.471ZM109.279 51.7991L108.124 48.9291L110.757 46.3832H108.771L106.461 48.7439L107.154 46.3832H105.491L103.92 51.7991H105.583L106.415 48.9754H106.461L107.431 51.7991H109.279ZM116.162 49.2994C116.254 49.0217 116.301 48.7439 116.301 48.5125C116.301 48.1885 116.301 47.8644 116.254 47.633C116.162 47.309 116.023 47.0775 115.839 46.8923C115.654 46.7072 115.423 46.522 115.146 46.4294C114.869 46.3369 114.545 46.2906 114.176 46.2906C113.76 46.2906 113.436 46.3369 113.113 46.4294C113.083 46.4396 113.052 46.4498 113.02 46.4601C112.766 46.5435 112.487 46.6349 112.282 46.7998C112.051 46.9386 111.82 47.1238 111.635 47.3552C111.45 47.5867 111.311 47.8181 111.173 48.0496C111.034 48.3273 110.942 48.5588 110.849 48.8365C110.757 49.1143 110.711 49.3457 110.711 49.6235C110.665 49.9475 110.665 50.2715 110.757 50.5493C110.803 50.827 110.942 51.1047 111.127 51.2899C111.311 51.4751 111.542 51.6139 111.82 51.7528C112.097 51.8917 112.42 51.938 112.836 51.938C113.205 51.938 113.575 51.8917 113.898 51.7991C113.984 51.7624 114.069 51.7289 114.153 51.6961C114.386 51.6048 114.606 51.5187 114.776 51.3825L114.776 51.3824C115.007 51.1972 115.238 51.0121 115.423 50.7807C115.569 50.6346 115.686 50.431 115.797 50.2378C115.826 50.1861 115.856 50.1352 115.885 50.0864C115.919 49.9838 115.959 49.8875 115.999 49.7928L115.999 49.7928L115.999 49.7927L115.999 49.7926L115.999 49.7926L115.999 49.7925L115.999 49.7925L115.999 49.7925C116.067 49.631 116.133 49.4744 116.162 49.2994ZM114.591 48.1422V48.5588C114.591 48.7902 114.545 49.068 114.499 49.2994C114.407 49.5772 114.314 49.8086 114.176 49.9938C114.037 50.1789 113.898 50.3178 113.714 50.4567C113.529 50.5955 113.344 50.6418 113.113 50.6418C112.882 50.6418 112.697 50.5493 112.559 50.3641C112.42 50.1789 112.374 49.9475 112.374 49.6235C112.374 49.392 112.42 49.1143 112.513 48.8828C112.605 48.6051 112.697 48.3736 112.836 48.1885C112.974 47.957 113.113 47.8181 113.298 47.6793C113.483 47.5404 113.667 47.4941 113.898 47.4941C114.037 47.4941 114.129 47.4941 114.222 47.5867C114.255 47.6195 114.287 47.6465 114.318 47.6718C114.374 47.7179 114.423 47.7584 114.453 47.8181C114.545 47.9107 114.591 48.0033 114.591 48.1422ZM122.352 51.7991H123.923L125.54 46.4294H123.138L121.244 49.5309C120.92 50.0401 120.736 50.3641 120.689 50.503V49.5309L120.551 46.4294H118.518L116.947 51.8454H118.195L119.442 47.633V48.6051L119.581 51.7991H121.059L123.045 48.6051C123.151 48.4106 123.244 48.2432 123.322 48.1002C123.45 47.8687 123.543 47.7012 123.6 47.5867L122.352 51.7991ZM132.1 47.6793V47.6793C132.146 47.2164 132.054 46.8923 131.823 46.7072C131.638 46.4757 131.315 46.3369 130.853 46.3369C130.668 46.3369 130.483 46.3832 130.298 46.4294C130.113 46.4757 129.929 46.5683 129.744 46.6609L129.744 46.6609C129.616 46.7248 129.511 46.8108 129.397 46.9036C129.346 46.9452 129.293 46.9882 129.236 47.0312C129.057 47.1654 128.922 47.2996 128.788 47.4756C128.801 47.4541 128.82 47.414 128.82 47.3552C128.82 47.309 128.831 47.2627 128.843 47.2164C128.855 47.1701 128.866 47.1238 128.866 47.0775C128.866 47.0312 128.878 46.9734 128.889 46.9156L128.889 46.9155L128.889 46.9154C128.901 46.8576 128.912 46.7997 128.912 46.7535C128.912 46.677 128.926 46.6146 128.939 46.5585C128.949 46.5127 128.959 46.4711 128.959 46.4294H127.295C127.295 46.522 127.295 46.6146 127.249 46.7535C127.249 46.8923 127.203 47.0312 127.157 47.1701L127.157 47.1704C127.111 47.3092 127.064 47.448 127.018 47.633L127.018 47.6331C126.972 47.8182 126.926 48.0033 126.88 48.1422L125.771 51.8454H127.48L128.266 49.1606C128.288 49.1051 128.307 49.0523 128.326 49.0015L128.326 49.0015C128.385 48.8404 128.437 48.6996 128.543 48.5588L128.543 48.5587C128.681 48.3736 128.82 48.1884 128.959 48.0496L128.959 48.0496C129.097 47.9107 129.236 47.7718 129.42 47.6793C129.605 47.5867 129.744 47.5404 129.882 47.5404C130.067 47.5404 130.16 47.5867 130.252 47.6793C130.344 47.7719 130.344 47.9107 130.344 48.0959C130.344 48.1422 130.344 48.2348 130.298 48.3736C130.277 48.4373 130.266 48.501 130.255 48.5602L130.255 48.5602C130.242 48.6301 130.231 48.6938 130.206 48.7439L129.328 51.8454H130.991L131.915 48.6977C131.915 48.6514 131.915 48.5588 131.961 48.4662C131.961 48.4199 131.973 48.3736 131.984 48.3273C131.996 48.281 132.008 48.2348 132.008 48.1885C132.008 48.1422 132.019 48.0959 132.031 48.0496C132.042 48.0033 132.054 47.957 132.054 47.9107C132.1 47.8182 132.1 47.7256 132.1 47.6793ZM128.774 47.4941C128.774 47.4941 128.78 47.4879 128.788 47.4756L128.774 47.4941ZM138.238 50.2021L138.238 50.202C138.252 50.117 138.263 50.0476 138.29 49.9938L139.399 46.6609C139.26 46.6609 139.076 46.6146 138.891 46.5683C138.798 46.5452 138.706 46.5336 138.614 46.522C138.521 46.5105 138.429 46.4989 138.336 46.4757C138.244 46.4757 138.14 46.4642 138.036 46.4526C137.932 46.441 137.828 46.4294 137.736 46.4294H137.135C136.581 46.4294 136.165 46.4757 135.749 46.6146C135.334 46.7535 135.01 46.8923 134.733 47.1238C134.41 47.309 134.179 47.5404 133.994 47.8181C133.809 48.0959 133.671 48.3273 133.532 48.6051C133.393 48.8365 133.301 49.1143 133.255 49.3457C133.247 49.3854 133.239 49.4237 133.231 49.4609C133.194 49.6407 133.162 49.7941 133.162 49.9475C133.162 50.2715 133.162 50.5493 133.209 50.827C133.255 51.0584 133.347 51.2899 133.486 51.4751C133.624 51.6602 133.809 51.7991 133.994 51.8917C134.179 51.9843 134.41 52.0305 134.687 52.0305C134.872 52.0305 135.056 51.9843 135.241 51.938C135.426 51.8917 135.565 51.7991 135.703 51.7065C135.888 51.6139 135.98 51.5214 136.119 51.3825L136.119 51.3825C136.165 51.313 136.223 51.2436 136.281 51.1742C136.338 51.1047 136.396 51.0353 136.442 50.9659H136.489C136.489 51.0122 136.477 51.0469 136.465 51.0816C136.454 51.1163 136.442 51.151 136.442 51.1973C136.442 51.2165 136.434 51.2436 136.425 51.2754L136.425 51.2754C136.412 51.3203 136.396 51.3745 136.396 51.4288C136.396 51.4479 136.388 51.475 136.379 51.5068L136.379 51.5068C136.366 51.5518 136.35 51.606 136.35 51.6602C136.304 51.7065 136.304 51.7991 136.304 51.8454H137.967C137.967 51.7065 137.967 51.5676 138.013 51.4288C138.036 51.3362 138.048 51.2552 138.059 51.1742C138.071 51.0932 138.082 51.0122 138.105 50.9196C138.105 50.7344 138.152 50.5493 138.198 50.4104C138.217 50.3328 138.228 50.2634 138.238 50.2021ZM137.228 47.471C137.274 47.4825 137.32 47.4941 137.366 47.4941L136.997 48.7439C136.951 48.9754 136.858 49.2068 136.766 49.4383C136.724 49.5074 136.687 49.5723 136.652 49.6344C136.568 49.7803 136.493 49.9102 136.396 50.0401C136.258 50.2252 136.119 50.3641 135.934 50.503C135.749 50.6418 135.565 50.6881 135.38 50.6881C135.287 50.6881 135.195 50.6881 135.103 50.6418C135.089 50.6278 135.07 50.6138 135.051 50.5985C135.005 50.5633 134.95 50.5212 134.918 50.4567C134.872 50.3641 134.826 50.2715 134.826 50.1789V49.8086V49.8086C134.826 49.7159 134.826 49.5308 134.872 49.392C134.872 49.2748 134.909 49.1761 134.948 49.0724C134.97 49.0124 134.993 48.9507 135.01 48.8828C135.057 48.7902 135.103 48.7092 135.149 48.6282L135.149 48.6281C135.195 48.5471 135.241 48.4661 135.287 48.3736C135.38 48.1885 135.518 48.0496 135.657 47.9107C135.796 47.7719 135.98 47.6793 136.165 47.5867L136.165 47.5867C136.35 47.4941 136.581 47.4478 136.812 47.4478H137.089C137.135 47.4478 137.182 47.4594 137.228 47.471ZM143.233 51.7991H144.896L146.467 46.3832H144.804L144.25 48.3273H142.402L142.956 46.3832H141.293L139.722 51.7991H141.385L142.032 49.5772H143.88L143.233 51.7991ZM152.195 50.503C152.242 50.3178 152.288 50.1326 152.334 49.9938L153.258 46.4757H151.595L150.856 49.0217C150.81 49.2069 150.717 49.4383 150.625 49.6235C150.532 49.8549 150.394 50.0401 150.255 50.1789C150.117 50.3178 149.978 50.4567 149.793 50.5493C149.655 50.6418 149.47 50.6881 149.285 50.6881C149.1 50.6881 149.008 50.6418 148.916 50.5493C148.869 50.4567 148.823 50.3178 148.823 50.1789V50.0401C148.869 49.9475 148.869 49.9012 148.869 49.8549C148.869 49.8318 148.881 49.797 148.892 49.7623C148.904 49.7276 148.916 49.6929 148.916 49.6697C148.916 49.6466 148.927 49.612 148.939 49.5773L148.939 49.5772L148.939 49.5771C148.95 49.5424 148.962 49.5077 148.962 49.4846L149.839 46.4294H148.176L147.252 49.5772C147.252 49.6235 147.252 49.716 147.206 49.8086C147.206 49.9012 147.206 49.9938 147.16 50.0864C147.16 50.1327 147.148 50.1789 147.137 50.2252C147.125 50.2715 147.114 50.3178 147.114 50.3641C147.068 50.4567 147.068 50.5493 147.068 50.5955C147.068 51.0584 147.114 51.4288 147.345 51.6602C147.53 51.8917 147.853 52.0305 148.315 52.0305C148.5 52.0305 148.685 51.9843 148.869 51.938C149.054 51.8917 149.239 51.7991 149.424 51.7066L149.424 51.7065C149.551 51.6426 149.657 51.5566 149.771 51.4638C149.822 51.4222 149.875 51.3792 149.932 51.3362C149.976 51.2915 150.026 51.2468 150.077 51.2006C150.185 51.1031 150.3 50.9989 150.394 50.8733H150.44C150.44 50.8733 150.394 50.9196 150.394 51.0122C150.394 51.0313 150.386 51.0585 150.377 51.0902C150.363 51.1352 150.348 51.1894 150.348 51.2436C150.348 51.3362 150.348 51.4288 150.301 51.5214C150.301 51.5978 150.287 51.6602 150.275 51.7163L150.275 51.7164C150.265 51.7622 150.255 51.8038 150.255 51.8454H151.964C151.964 51.7528 151.964 51.6139 152.011 51.4751C152.034 51.4056 152.045 51.3246 152.057 51.2436C152.068 51.1626 152.08 51.0816 152.103 51.0122C152.103 50.8588 152.135 50.7371 152.172 50.5946C152.18 50.5651 152.188 50.5347 152.195 50.503ZM156.908 51.7991H158.571L160.234 46.3832H157.462C157 46.3832 156.584 46.4294 156.261 46.522C155.937 46.6146 155.66 46.7535 155.475 46.8923C155.244 47.0775 155.106 47.2627 155.013 47.4478C154.921 47.633 154.829 47.8644 154.829 48.0959C154.829 48.281 154.829 48.4199 154.875 48.5588C154.921 48.6977 154.967 48.8365 155.06 48.9291C155.152 49.0217 155.244 49.1143 155.383 49.2068L155.799 49.3457C155.475 49.4383 155.198 49.5309 154.967 49.716C154.736 49.8549 154.505 50.0864 154.321 50.3641L153.304 51.7991H155.198L155.984 50.5955C156.076 50.4567 156.168 50.3178 156.261 50.2252C156.353 50.1326 156.446 50.0401 156.538 49.9938C156.6 49.9321 156.661 49.9115 156.723 49.8909C156.754 49.8806 156.784 49.8703 156.815 49.8549C156.908 49.8086 157 49.8086 157.092 49.8086H157.508L156.908 51.7991ZM156.723 47.5867C156.908 47.4478 157.185 47.4015 157.508 47.4015H158.201L157.785 48.7902H157.231C157.139 48.7902 157 48.7902 156.908 48.7439C156.769 48.6977 156.677 48.6514 156.63 48.6051C156.538 48.5588 156.492 48.5125 156.446 48.4199C156.399 48.3273 156.399 48.2348 156.399 48.1422C156.446 47.9107 156.538 47.7256 156.723 47.5867ZM167.533 46.5682H168.595L167.256 48.4661L168.595 50.3177H167.533L166.239 48.4661L166.286 48.3735L167.533 46.5682ZM169.335 46.5682H170.443L169.104 48.4661L170.443 50.3177H169.381L168.087 48.4661L169.335 46.5682ZM222.646 50.3177H221.583L222.923 48.4198L221.583 46.5682H222.646L223.939 48.4198L223.893 48.5124L222.646 50.3177ZM220.844 50.3177H219.735L221.075 48.4198L219.735 46.5682H220.798L222.091 48.4198L220.844 50.3177ZM177.88 45.5499C177.787 45.2722 177.649 45.0407 177.464 44.8556C177.279 44.6704 177.048 44.5316 176.725 44.3927C176.401 44.3001 176.032 44.2075 175.616 44.2075H173.029L170.812 51.7991H172.521L173.26 49.2068H174.323C174.923 49.2068 175.431 49.1143 175.847 48.9754C176.263 48.8365 176.632 48.6051 176.956 48.3736C177.233 48.0959 177.464 47.8181 177.649 47.4941C177.787 47.1701 177.88 46.7998 177.926 46.4294C177.972 46.1054 177.972 45.7814 177.88 45.5499ZM176.032 47.0312C175.939 47.2164 175.847 47.3552 175.708 47.4941C175.57 47.633 175.385 47.7256 175.2 47.8181C175.016 47.9107 174.785 47.9107 174.507 47.9107H173.722L174.415 45.5499H175.108C175.477 45.5499 175.755 45.6425 175.939 45.8277C176.124 46.0128 176.217 46.2443 176.17 46.522C176.147 46.6146 176.124 46.6956 176.101 46.7765L176.101 46.7766C176.078 46.8576 176.055 46.9386 176.032 47.0312ZM180.098 53.1412C180.329 52.9098 180.56 52.632 180.745 52.308L184.671 46.3829H182.916L181.022 49.6695C180.929 49.8083 180.837 49.9472 180.791 50.0861C180.745 50.2249 180.699 50.3175 180.652 50.41L180.652 50.4101H180.606C180.606 50.3685 180.615 50.3269 180.626 50.2811L180.626 50.2811L180.626 50.281C180.638 50.2249 180.652 50.1625 180.652 50.0861V49.7158L180.514 46.4292H178.758L179.405 51.7988L178.897 52.4932C178.758 52.6783 178.573 52.8635 178.389 52.9561C178.204 53.0487 178.019 53.0949 177.788 53.0949C177.696 53.0949 177.557 53.0949 177.465 53.0486C177.326 53.0024 177.234 52.9561 177.188 52.9098L176.818 54.2059C176.957 54.2522 177.095 54.2985 177.28 54.2985C177.419 54.3448 177.557 54.3448 177.696 54.3448C178.019 54.3448 178.342 54.2985 178.62 54.2059C178.897 54.1133 179.174 53.9745 179.405 53.7893C179.612 53.651 179.767 53.4869 179.929 53.3163L179.929 53.3162L179.929 53.316L179.93 53.3159C179.984 53.2582 180.04 53.1997 180.098 53.1412ZM189.245 47.8644C189.152 47.7719 188.968 47.6793 188.783 47.633C188.598 47.5867 188.413 47.5404 188.182 47.5404C187.905 47.5404 187.674 47.5867 187.489 47.7256C187.258 47.8644 187.074 48.0033 186.935 48.1885C186.797 48.3736 186.658 48.6051 186.566 48.8365C186.473 49.068 186.427 49.2994 186.381 49.5309C186.335 49.9012 186.427 50.1789 186.566 50.3641C186.704 50.5492 186.981 50.6418 187.305 50.6418C187.397 50.6418 187.536 50.6418 187.628 50.5955C187.72 50.5955 187.859 50.5492 187.951 50.503C188.09 50.4567 188.182 50.4104 188.275 50.3641L188.275 50.3641L188.552 50.2252L188.182 51.5213C187.951 51.6602 187.674 51.7528 187.397 51.7991C187.12 51.8454 186.843 51.8917 186.566 51.8917C186.196 51.8917 185.919 51.8454 185.642 51.7065C185.364 51.6139 185.18 51.4288 184.995 51.2436C184.81 51.0584 184.718 50.827 184.625 50.5493C184.579 50.2715 184.533 49.9938 184.579 49.6697C184.625 49.3457 184.671 49.068 184.764 48.7902C184.856 48.5125 184.995 48.2348 185.133 47.9571L185.133 47.957C185.272 47.7256 185.457 47.4478 185.688 47.2627C185.919 47.0312 186.15 46.8461 186.381 46.7072C186.658 46.5683 186.935 46.4294 187.212 46.3369C187.536 46.2443 187.859 46.198 188.182 46.198C188.367 46.198 188.506 46.198 188.644 46.2443C188.783 46.2443 188.922 46.2906 189.014 46.3369C189.075 46.3572 189.127 46.3686 189.173 46.3789C189.234 46.392 189.285 46.4034 189.337 46.4294C189.362 46.4418 189.383 46.4542 189.403 46.4658C189.458 46.4972 189.501 46.522 189.568 46.522L189.245 47.8644ZM204.399 46.4289C204.307 46.4058 204.215 46.3942 204.122 46.3827C204.03 46.3711 203.937 46.3595 203.845 46.3364C203.66 46.2901 203.475 46.2901 203.244 46.2901C203.152 46.2901 203.048 46.2785 202.944 46.2669C202.84 46.2554 202.736 46.2438 202.644 46.2438C202.136 46.2438 201.674 46.2901 201.304 46.4289C200.935 46.5678 200.565 46.753 200.288 46.9381C200.011 47.1696 199.78 47.401 199.549 47.6325C199.364 47.9102 199.225 48.1417 199.087 48.4194C199 48.5933 198.949 48.7491 198.901 48.898C198.872 48.987 198.844 49.0735 198.81 49.1601L198.81 49.1603C198.763 49.3917 198.717 49.623 198.717 49.7618C198.671 50.0859 198.717 50.3636 198.763 50.6414C198.81 50.9191 198.902 51.1043 199.041 51.2894C199.179 51.4746 199.318 51.6134 199.549 51.706C199.734 51.7986 199.964 51.8449 200.242 51.8449C200.473 51.8449 200.657 51.7986 200.796 51.7523C200.981 51.706 201.119 51.6134 201.258 51.5209C201.397 51.4283 201.535 51.2894 201.628 51.1968C201.697 51.1274 201.755 51.058 201.812 50.9885C201.87 50.9191 201.928 50.8497 201.997 50.7802H202.043C202.043 50.7994 202.035 50.8265 202.026 50.8583C202.013 50.9032 201.997 50.9574 201.997 51.0117C201.997 51.0659 201.981 51.1201 201.968 51.1651C201.959 51.1968 201.951 51.224 201.951 51.2431C201.951 51.2974 201.935 51.3516 201.922 51.3965C201.913 51.4283 201.905 51.4554 201.905 51.4746C201.905 51.5672 201.905 51.6134 201.859 51.6597H203.568C203.568 51.6214 203.576 51.5751 203.585 51.5209C203.598 51.4442 203.614 51.3516 203.614 51.2431C203.639 51.1694 203.65 51.0826 203.662 50.9896C203.673 50.9076 203.685 50.8208 203.706 50.7339C203.73 50.6413 203.741 50.5603 203.753 50.4793C203.764 50.3983 203.776 50.3173 203.799 50.2247C203.845 50.0859 203.891 49.947 203.891 49.8081L204.908 46.3364C204.769 46.5215 204.584 46.4752 204.399 46.4289ZM202.598 48.7435C202.552 48.9749 202.459 49.2064 202.367 49.4378C202.31 49.5801 202.236 49.7048 202.165 49.8228L202.165 49.823L202.165 49.823C202.121 49.897 202.079 49.9683 202.043 50.0396C201.905 50.2247 201.766 50.3636 201.581 50.5025C201.397 50.6413 201.212 50.6876 201.027 50.6876C200.935 50.6876 200.842 50.6876 200.75 50.5951C200.657 50.5488 200.611 50.5025 200.565 50.4099C200.519 50.3173 200.473 50.2247 200.473 50.1322C200.473 50.1041 200.468 50.0719 200.464 50.0366C200.453 49.9555 200.44 49.8587 200.473 49.7618C200.473 49.623 200.519 49.4841 200.565 49.3453L200.565 49.3452C200.611 49.2065 200.657 49.0217 200.703 48.8368L200.704 48.836C200.75 48.6509 200.842 48.512 200.981 48.3268C201.073 48.1417 201.212 48.0028 201.35 47.864L201.35 47.8639C201.489 47.7251 201.674 47.6325 201.859 47.5399C202.043 47.4473 202.274 47.401 202.505 47.401H202.782C202.829 47.401 202.875 47.4126 202.921 47.4242C202.967 47.4358 203.013 47.4473 203.06 47.4473L202.598 48.7435ZM210.681 50.5034C210.727 50.3183 210.773 50.1331 210.819 49.9943L211.789 46.4299H210.126L209.387 48.9759C209.341 49.161 209.249 49.3925 209.156 49.5776C209.064 49.8091 208.925 49.9943 208.787 50.1331C208.648 50.272 208.509 50.4109 208.325 50.5034C208.186 50.596 208.001 50.6423 207.816 50.6423C207.632 50.6423 207.539 50.596 207.447 50.5034C207.401 50.4109 207.354 50.272 207.354 50.1331V50.0405C207.354 49.9863 207.37 49.948 207.383 49.9162C207.393 49.8937 207.401 49.8746 207.401 49.8554C207.401 49.8322 207.412 49.7975 207.424 49.7628C207.435 49.7281 207.447 49.6934 207.447 49.6702C207.447 49.616 207.463 49.5776 207.476 49.5459C207.485 49.5234 207.493 49.5042 207.493 49.4851L208.371 46.4299H206.708L205.784 49.5776C205.784 49.6239 205.784 49.7165 205.737 49.8091C205.737 49.8554 205.726 49.9017 205.714 49.948C205.703 49.9943 205.691 50.0405 205.691 50.0868C205.691 50.1331 205.68 50.1794 205.668 50.2257C205.657 50.272 205.645 50.3183 205.645 50.3646C205.599 50.4572 205.599 50.5497 205.599 50.596C205.599 51.0589 205.645 51.4292 205.876 51.6607C206.061 51.8921 206.384 52.031 206.846 52.031C207.031 52.031 207.216 51.9847 207.401 51.9384C207.585 51.8921 207.77 51.7996 207.955 51.707C208.083 51.6431 208.188 51.5571 208.302 51.4642C208.353 51.4226 208.406 51.3796 208.463 51.3367C208.508 51.292 208.557 51.2473 208.608 51.201L208.608 51.2009C208.711 51.108 208.82 51.009 208.912 50.8912C208.898 50.9124 208.879 50.9529 208.879 51.0126C208.879 51.0318 208.871 51.0589 208.862 51.0907C208.849 51.1356 208.833 51.1899 208.833 51.2441C208.833 51.2904 208.821 51.3367 208.81 51.383C208.798 51.4292 208.787 51.4755 208.787 51.5218C208.787 51.5983 208.773 51.6607 208.76 51.7168L208.76 51.717C208.75 51.7627 208.74 51.8043 208.74 51.8459H210.45C210.45 51.8043 210.459 51.7534 210.469 51.6974L210.469 51.6972C210.482 51.6284 210.496 51.552 210.496 51.4755C210.519 51.4061 210.531 51.3251 210.542 51.2441C210.554 51.1631 210.565 51.0821 210.588 51.0126C210.588 50.8592 210.62 50.7376 210.657 50.5951C210.665 50.5656 210.673 50.5352 210.681 50.5034ZM208.912 50.8912C208.915 50.8866 208.918 50.8829 208.92 50.8802C208.923 50.8759 208.925 50.8738 208.925 50.8738L208.912 50.8912ZM213.866 51.7988L214.513 49.5769H216.361L215.76 51.7988H217.423L218.994 46.3829H217.285L216.731 48.3733H214.883L215.437 46.3829H213.774L212.203 51.7988H213.866Z" fill="black"/>
</svg>
