<svg width="7" height="8" viewBox="0 0 7 8" fill="none" xmlns="http://www.w3.org/2000/svg">
<path fill-rule="evenodd" clip-rule="evenodd" d="M3.5 0.98329C3.44701 0.98329 3.39429 0.984468 3.34187 0.986799L3.31563 0.944336C3.2905 0.959862 3.26543 0.976005 3.24044 0.992769C1.42865 1.12558 0 2.6376 0 4.48329C0 6.33868 1.44371 7.85688 3.26903 7.97579L3.27115 7.97761L3.27252 7.97602C3.34773 7.98084 3.42358 7.98329 3.5 7.98329C3.57642 7.98329 3.65227 7.98084 3.72748 7.97602L3.72885 7.97761L3.73097 7.97579C5.55629 7.85688 7 6.33868 7 4.48329C7 2.6376 5.57135 1.12558 3.75956 0.992769C3.73457 0.976005 3.7095 0.959862 3.68437 0.944336L3.65813 0.986799C3.60571 0.984468 3.55299 0.98329 3.5 0.98329ZM3.51546 1.68333L3.5 1.68329L3.48454 1.68333C3.15901 1.95281 2.82872 2.40465 2.63153 3.08324H4.36847C4.17128 2.40465 3.84099 1.95281 3.51546 1.68333ZM2.38028 1.91615C2.18322 2.24019 2.01899 2.62841 1.90757 3.08324H1.07462C1.37278 2.56783 1.83052 2.15628 2.38028 1.91615ZM1.78597 3.78324H0.788225C0.730632 4.00699 0.7 4.24156 0.7 4.48329C0.7 4.72502 0.730632 4.95959 0.788225 5.18334H1.78874C1.76322 4.96284 1.74961 4.72793 1.74961 4.47727C1.74961 4.23372 1.76223 4.00244 1.78597 3.78324ZM1.91995 5.88334H1.07462C1.38693 6.42321 1.87432 6.84912 2.45914 7.08344C2.38103 6.96744 2.30642 6.84295 2.23692 6.70889C2.1099 6.46389 2.00181 6.1906 1.91995 5.88334ZM2.64935 5.88334H4.35065C4.29062 6.06935 4.2197 6.23612 4.14163 6.3867C3.96099 6.73512 3.73627 7.00816 3.5 7.23884C3.26373 7.00816 3.03901 6.73512 2.85837 6.3867C2.7803 6.23612 2.70938 6.06935 2.64935 5.88334ZM4.5059 5.18334H2.4941C2.46542 4.96814 2.44961 4.73359 2.44961 4.47727C2.44961 4.22906 2.46401 3.99798 2.49036 3.78324H4.50964C4.53599 3.99798 4.55039 4.22906 4.55039 4.47727C4.55039 4.73359 4.53458 4.96814 4.5059 5.18334ZM5.08005 5.88334C4.99819 6.1906 4.8901 6.46389 4.76308 6.70889C4.69358 6.84295 4.61897 6.96744 4.54086 7.08344C5.12568 6.84912 5.61307 6.42321 5.92538 5.88334H5.08005ZM6.21178 5.18334H5.21126C5.23678 4.96284 5.25039 4.72793 5.25039 4.47727C5.25039 4.23372 5.23777 4.00244 5.21403 3.78324H6.21178C6.26937 4.00699 6.3 4.24156 6.3 4.48329C6.3 4.72502 6.26937 4.95959 6.21178 5.18334ZM4.61972 1.91615C5.16948 2.15628 5.62722 2.56783 5.92538 3.08324H5.09243C4.98101 2.62841 4.81678 2.24019 4.61972 1.91615Z" fill="white"/>
</svg>
