<svg width="1220" height="1012" viewBox="0 0 1220 1012" fill="none" xmlns="http://www.w3.org/2000/svg">
<g clip-path="url(#clip0)">
<path d="M1000.73 952.917C1000.73 964.357 999.964 974.69 998.733 982.142C998.116 985.876 997.39 988.841 996.606 990.848C996.212 991.857 995.825 992.566 995.471 993.006C995.105 993.458 994.899 993.478 994.866 993.478C994.832 993.478 994.626 993.458 994.26 993.006C993.906 992.566 993.519 991.857 993.125 990.848C992.341 988.841 991.615 985.876 990.998 982.142C989.767 974.69 989.001 964.357 989.001 952.917C989.001 941.478 989.767 931.145 990.998 923.692C991.615 919.958 992.341 916.994 993.125 914.986C993.519 913.977 993.906 913.268 994.26 912.829C994.626 912.376 994.832 912.356 994.866 912.356C994.899 912.356 995.105 912.376 995.471 912.829C995.825 913.268 996.212 913.977 996.606 914.986C997.39 916.994 998.116 919.958 998.733 923.692C999.964 931.145 1000.73 941.478 1000.73 952.917Z" fill="white" stroke="#DFDFDF" stroke-width="2"/>
<path d="M1168.37 994.116C1168.37 1005.56 1167.6 1015.89 1166.37 1023.34C1165.76 1027.08 1165.03 1030.04 1164.25 1032.05C1163.85 1033.06 1163.47 1033.77 1163.11 1034.2C1162.75 1034.66 1162.54 1034.68 1162.51 1034.68C1162.47 1034.68 1162.27 1034.66 1161.9 1034.2C1161.55 1033.77 1161.16 1033.06 1160.76 1032.05C1159.98 1030.04 1159.25 1027.08 1158.64 1023.34C1157.41 1015.89 1156.64 1005.56 1156.64 994.116C1156.64 982.677 1157.41 972.344 1158.64 964.891C1159.25 961.157 1159.98 958.193 1160.76 956.185C1161.16 955.176 1161.55 954.467 1161.9 954.028C1162.27 953.575 1162.47 953.556 1162.51 953.556C1162.54 953.556 1162.75 953.575 1163.11 954.028C1163.47 954.467 1163.85 955.176 1164.25 956.185C1165.03 958.193 1165.76 961.157 1166.37 964.891C1167.6 972.344 1168.37 982.677 1168.37 994.116Z" fill="white" stroke="#DFDFDF" stroke-width="2"/>
<path d="M1231.23 1005.68C1231.23 1017.12 1230.47 1027.45 1229.24 1034.91C1228.62 1038.64 1227.89 1041.6 1227.11 1043.61C1226.72 1044.62 1226.33 1045.33 1225.98 1045.77C1225.61 1046.22 1225.4 1046.24 1225.37 1046.24C1225.34 1046.24 1225.13 1046.22 1224.77 1045.77C1224.41 1045.33 1224.02 1044.62 1223.63 1043.61C1222.85 1041.6 1222.12 1038.64 1221.5 1034.91C1220.27 1027.45 1219.51 1017.12 1219.51 1005.68C1219.51 994.242 1220.27 983.909 1221.5 976.457C1222.12 972.723 1222.85 969.759 1223.63 967.751C1224.02 966.742 1224.41 966.033 1224.77 965.594C1225.13 965.141 1225.34 965.121 1225.37 965.121C1225.4 965.121 1225.61 965.141 1225.98 965.594C1226.33 966.033 1226.72 966.742 1227.11 967.751C1227.89 969.759 1228.62 972.723 1229.24 976.457C1230.47 983.909 1231.23 994.242 1231.23 1005.68Z" fill="white" stroke="#DFDFDF" stroke-width="2"/>
<path d="M968.046 960.87V693.955L1633.71 1021.02V1115.37L968.046 960.87Z" fill="white" stroke="#DFDFDF" stroke-width="2"/>
<path d="M1189.73 1012.79V974.021L974.993 907.742V963.392M1410.71 1065.31V1038.42L1208.46 978.398V1016.54" stroke="#DFDFDF" stroke-width="2"/>
<path d="M745.814 951.261C745.814 962.7 746.58 973.034 747.811 980.486C748.428 984.22 749.154 987.184 749.938 989.192C750.332 990.201 750.719 990.91 751.073 991.349C751.439 991.802 751.645 991.822 751.678 991.822C751.712 991.822 751.918 991.802 752.284 991.349C752.638 990.91 753.025 990.201 753.419 989.192C754.203 987.184 754.929 984.22 755.546 980.486C756.777 973.034 757.543 962.7 757.543 951.261C757.543 939.822 756.777 929.488 755.546 922.036C754.929 918.302 754.203 915.338 753.419 913.33C753.025 912.321 752.638 911.612 752.284 911.173C751.918 910.72 751.712 910.7 751.678 910.7C751.645 910.7 751.439 910.72 751.073 911.173C750.719 911.612 750.332 912.321 749.938 913.33C749.154 915.338 748.428 918.302 747.811 922.036C746.58 929.488 745.814 939.822 745.814 951.261Z" fill="white" stroke="#DFDFDF" stroke-width="2"/>
<path d="M578.173 992.46C578.173 1003.9 578.94 1014.23 580.17 1021.69C580.787 1025.42 581.513 1028.38 582.297 1030.39C582.691 1031.4 583.078 1032.11 583.432 1032.55C583.798 1033 584.004 1033.02 584.038 1033.02C584.071 1033.02 584.278 1033 584.643 1032.55C584.998 1032.11 585.384 1031.4 585.778 1030.39C586.562 1028.38 587.288 1025.42 587.905 1021.69C589.136 1014.23 589.902 1003.9 589.902 992.46C589.902 981.021 589.136 970.688 587.905 963.235C587.288 959.501 586.562 956.537 585.778 954.529C585.384 953.52 584.998 952.811 584.643 952.372C584.278 951.919 584.071 951.899 584.038 951.899C584.004 951.899 583.798 951.919 583.432 952.372C583.078 952.811 582.691 953.52 582.297 954.529C581.513 956.537 580.787 959.501 580.17 963.235C578.94 970.688 578.173 981.021 578.173 992.46Z" fill="white" stroke="#DFDFDF" stroke-width="2"/>
<path d="M515.309 1004.03C515.309 1015.46 516.075 1025.8 517.306 1033.25C517.923 1036.98 518.649 1039.95 519.433 1041.96C519.827 1042.97 520.214 1043.67 520.568 1044.11C520.934 1044.57 521.14 1044.59 521.174 1044.59C521.207 1044.59 521.413 1044.57 521.779 1044.11C522.133 1043.67 522.52 1042.97 522.914 1041.96C523.698 1039.95 524.424 1036.98 525.041 1033.25C526.272 1025.8 527.038 1015.46 527.038 1004.03C527.038 992.586 526.272 982.253 525.041 974.801C524.424 971.066 523.698 968.102 522.914 966.095C522.52 965.086 522.133 964.377 521.779 963.937C521.413 963.485 521.207 963.465 521.174 963.465C521.14 963.465 520.934 963.485 520.568 963.937C520.214 964.377 519.827 965.086 519.433 966.095C518.649 968.102 517.923 971.066 517.306 974.801C516.075 982.253 515.309 992.586 515.309 1004.03Z" fill="white" stroke="#DFDFDF" stroke-width="2"/>
<path d="M347.67 1040.16C347.67 1051.6 348.437 1061.94 349.667 1069.39C350.284 1073.12 351.01 1076.09 351.794 1078.09C352.188 1079.1 352.575 1079.81 352.93 1080.25C353.295 1080.7 353.502 1080.72 353.535 1080.72C353.568 1080.72 353.775 1080.7 354.14 1080.25C354.495 1079.81 354.881 1079.1 355.275 1078.09C356.059 1076.09 356.785 1073.12 357.402 1069.39C358.633 1061.94 359.399 1051.6 359.399 1040.16C359.399 1028.72 358.633 1018.39 357.402 1010.94C356.785 1007.21 356.059 1004.24 355.275 1002.23C354.881 1001.22 354.495 1000.52 354.14 1000.08C353.775 999.623 353.568 999.604 353.535 999.604C353.502 999.604 353.295 999.623 352.93 1000.08C352.575 1000.52 352.188 1001.22 351.794 1002.23C351.01 1004.24 350.284 1007.21 349.667 1010.94C348.437 1018.39 347.67 1028.72 347.67 1040.16Z" fill="white" stroke="#DFDFDF" stroke-width="2"/>
<path d="M778.498 959.214V692.299L112.829 1019.37V1113.71L778.498 959.214Z" fill="white" stroke="#DFDFDF" stroke-width="2"/>
<path d="M556.812 1011.13V972.365L771.551 906.086V961.735M335.832 1063.66V1036.77L538.085 976.742V1014.88" stroke="#DFDFDF" stroke-width="2"/>
<path d="M897.384 1522.79L897.353 1522.87L897.338 1522.96L872.812 1664.7L848.285 1522.96L848.27 1522.87L848.24 1522.79L847.3 1523.13C848.24 1522.79 848.239 1522.79 848.239 1522.78L848.236 1522.78L848.226 1522.75L848.184 1522.63L848.12 1522.45L848.019 1522.17C847.872 1521.76 847.655 1521.16 847.372 1520.35C846.805 1518.75 845.974 1516.38 844.915 1513.3C842.798 1507.13 839.773 1498.14 836.142 1486.81C828.88 1464.16 819.198 1432.19 809.515 1394.93C790.146 1320.38 770.795 1224.72 770.795 1140.08L770.795 344.12C770.795 283.363 785.462 208.761 805.659 149.351C815.758 119.645 827.222 93.788 838.895 75.3777C844.733 66.1706 850.598 58.8657 856.339 53.8733C862.088 48.8735 867.62 46.2725 872.812 46.2725C878.338 46.2725 884.114 48.9181 890.033 53.9684C895.947 59.0144 901.921 66.3933 907.818 75.683C919.61 94.2594 930.993 120.317 940.931 150.158C960.805 209.838 974.828 284.442 974.828 344.12V344.272V344.437V344.614V344.804V345.006V345.221V345.448V345.688V345.94V346.205V346.482V346.771V347.072V347.385V347.711V348.049V348.399V348.76V349.134V349.52V349.917V350.327V350.748V351.181V351.626V352.082V352.55V353.03V353.521V354.023V354.538V355.063V355.6V356.148V356.708V357.278V357.86V358.453V359.058V359.673V360.299V360.937V361.585V362.244V362.914V363.595V364.287V364.989V365.702V366.426V367.16V367.905V368.661V369.427V370.203V370.99V371.787V372.595V373.413V374.241V375.079V375.927V376.786V377.654V378.533V379.421V380.32V381.228V382.146V383.074V384.012V384.959V385.917V386.883V387.86V388.846V389.841V390.846V391.86V392.884V393.917V394.96V396.011V397.072V398.142V399.221V400.31V401.407V402.513V403.629V404.753V405.886V407.028V408.179V409.338V410.506V411.683V412.868V414.062V415.265V416.476V417.696V418.924V420.16V421.404V422.657V423.919V425.188V426.465V427.751V429.045V430.346V431.656V432.974V434.299V435.633V436.974V438.323V439.68V441.044V442.416V443.796V445.183V446.578V447.981V449.39V450.807V452.232V453.664V455.103V456.549V458.002V459.463V460.931V462.405V463.887V465.376V466.872V468.374V469.884V471.4V472.923V474.452V475.989V477.532V479.081V480.637V482.2V483.769V485.345V486.927V488.515V490.109V491.71V493.317V494.93V496.55V498.175V499.806V501.444V503.087V504.736V506.392V508.053V509.719V511.392V513.07V514.754V516.443V518.138V519.839V521.545V523.257V524.974V526.696V528.424V530.156V531.895V533.638V535.386V537.14V538.899V540.662V542.431V544.205V545.983V547.766V549.555V551.348V553.145V554.948V556.755V558.566V560.382V562.203V564.028V565.858V567.692V569.53V571.373V573.22V575.071V576.926V578.785V580.649V582.516V584.388V586.263V588.143V590.026V591.914V593.804V595.699V597.598V599.5V601.406V603.315V605.228V607.144V609.064V610.987V612.914V614.844V616.777V618.713V620.653V622.596V624.542V626.491V628.443V630.398V632.356V634.317V636.281V638.247V640.217V642.189V644.164V646.141V648.121V650.104V652.089V654.077V656.067V658.06V660.054V662.052V664.051V666.053V668.057V670.063V672.071V674.081V676.093V678.107V680.123V682.141V684.161V686.183V688.206V690.232V692.258V694.287V696.317V698.348V700.382V702.416V704.452V706.49V708.528V710.568V712.61V714.652V716.696V718.741V720.787V722.833V724.881V726.93V728.98V731.031V733.082V735.135V737.188V739.242V741.296V743.351V745.407V747.463V749.52V751.577V753.634V755.692V757.75V759.809V761.868V763.927V765.986V768.045V770.104V772.163V774.223V776.282V778.341V780.4V782.459V784.518V786.576V788.634V790.692V792.749V794.806V796.862V798.918V800.973V803.028V805.082V807.135V809.188V811.239V813.29V815.341V817.39V819.438V821.485V823.532V825.577V827.621V829.664V831.706V833.746V835.785V837.823V839.86V841.895V843.928V845.96V847.991V850.02V852.047V854.073V856.097V858.119V860.14V862.159V864.175V866.19V868.203V870.214V872.223V874.23V876.234V878.237V880.237V882.235V884.231V886.224V888.215V890.203V892.189V894.173V896.154V898.132V900.108V902.081V904.051V906.019V907.984V909.946V911.905V913.861V915.814V917.764V919.711V921.655V923.596V925.533V927.468V929.399V931.327V933.251V935.172V937.09V939.004V940.914V942.821V944.725V946.624V948.52V950.413V952.301V954.186V956.067V957.943V959.816V961.685V963.55V965.411V967.268V969.12V970.969V972.813V974.653V976.488V978.319V980.146V981.968V983.786V985.599V987.408V989.212V991.011V992.805V994.595V996.38V998.161V999.936V1001.71V1003.47V1005.23V1006.99V1008.74V1010.48V1012.22V1013.96V1015.69V1017.41V1019.13V1020.84V1022.55V1024.25V1025.95V1027.64V1029.33V1031.01V1032.68V1034.35V1036.01V1037.67V1039.32V1040.97V1042.61V1044.24V1045.87V1047.49V1049.11V1050.71V1052.32V1053.91V1055.5V1057.09V1058.67V1060.24V1061.8V1063.36V1064.91V1066.46V1068V1069.53V1071.05V1072.57V1074.08V1075.59V1077.09V1078.58V1080.06V1081.54V1083.01V1084.47V1085.93V1087.38V1088.82V1090.25V1091.68V1093.1V1094.51V1095.92V1097.31V1098.7V1100.09V1101.46V1102.83V1104.19V1105.54V1106.88V1108.22V1109.55V1110.87V1112.18V1113.49V1114.78V1116.07V1117.35V1118.62V1119.89V1121.14V1122.39V1123.63V1124.86V1126.08V1127.3V1128.5V1129.7V1130.89V1132.07V1133.24V1134.4V1135.55V1136.7V1137.84V1138.96V1140.08C974.828 1224.72 955.477 1320.38 936.108 1394.93C926.426 1432.19 916.743 1464.16 909.481 1486.81C905.851 1498.14 902.825 1507.13 900.708 1513.3C899.649 1516.38 898.818 1518.75 898.251 1520.35C897.968 1521.16 897.751 1521.76 897.605 1522.17C897.531 1522.38 897.476 1522.53 897.439 1522.63L897.397 1522.75L897.387 1522.78L897.384 1522.78C897.384 1522.79 897.384 1522.79 898.324 1523.13L897.384 1522.79Z" fill="white" stroke="#DFDFDF" stroke-width="2"/>
<path d="M799.532 271.823H780.46C787.041 227.146 822.982 186.996 873.04 186.996C923.098 186.996 959.039 227.146 965.62 271.823H946.548C939.862 241.076 907.5 216.419 873.04 216.419C838.58 216.419 806.218 241.076 799.532 271.823Z" fill="white" stroke="#DFDFDF" stroke-width="2"/>
<path d="M872.952 185.996V216.485M807.028 214.648L820.95 237.423M926.592 239.26L940.514 216.485" stroke="#DFDFDF" stroke-width="2"/>
<path d="M780.693 1118.07L780.693 449.719C780.693 426.236 780.554 394.545 780.415 368.726C780.345 355.817 780.276 344.375 780.224 336.16C780.198 332.053 780.176 328.752 780.161 326.479L780.143 323.866L780.141 323.65C780.397 323.554 780.729 323.432 781.136 323.285C782.221 322.894 783.841 322.334 785.966 321.661C790.217 320.314 796.49 318.516 804.56 316.716C820.698 313.118 844.019 309.516 872.712 309.516C901.405 309.516 924.726 313.118 940.865 316.716C948.934 318.516 955.207 320.314 959.458 321.661C961.583 322.334 963.203 322.894 964.288 323.285C964.695 323.432 965.027 323.554 965.283 323.65L965.281 323.866L965.264 326.479C965.248 328.752 965.227 332.053 965.2 336.16C965.148 344.375 965.079 355.817 965.009 368.726C964.87 394.545 964.731 426.236 964.731 449.719V449.937V450.164V450.4V450.645V450.899V451.162V451.434V451.716V452.006V452.305V452.613V452.929V453.255V453.589V453.933V454.284V454.645V455.014V455.392V455.779V456.174V456.578V456.99V457.411V457.84V458.278V458.724V459.178V459.641V460.112V460.592V461.08V461.576V462.08V462.593V463.113V463.642V464.179V464.724V465.277V465.838V466.407V466.984V467.569V468.162V468.762V469.371V469.987V470.611V471.243V471.883V472.53V473.185V473.848V474.518V475.196V475.882V476.575V477.275V477.983V478.699V479.421V480.152V480.889V481.634V482.386V483.146V483.913V484.686V485.468V486.256V487.051V487.854V488.663V489.48V490.304V491.134V491.972V492.816V493.668V494.526V495.391V496.263V497.142V498.028V498.92V499.819V500.724V501.636V502.555V503.481V504.413V505.351V506.296V507.248V508.206V509.17V510.141V511.118V512.101V513.091V514.087V515.089V516.097V517.112V518.133V519.16V520.193V521.232V522.277V523.328V524.385V525.448V526.517V527.592V528.672V529.759V530.851V531.949V533.053V534.163V535.278V536.399V537.525V538.658V539.795V540.939V542.088V543.242V544.402V545.567V546.738V547.914V549.095V550.282V551.474V552.671V553.873V555.081V556.294V557.512V558.735V559.963V561.196V562.435V563.678V564.926V566.179V567.438V568.701V569.968V571.241V572.519V573.801V575.088V576.38V577.676V578.977V580.283V581.593V582.908V584.228V585.552V586.88V588.213V589.55V590.892V592.238V593.589V594.944V596.303V597.666V599.033V600.405V601.781V603.161V604.545V605.934V607.326V608.722V610.122V611.527V612.935V614.347V615.763V617.183V618.607V620.034V621.466V622.901V624.339V625.782V627.228V628.677V630.131V631.588V633.048V634.512V635.979V637.45V638.924V640.402V641.883V643.367V644.855V646.346V647.84V649.338V650.838V652.342V653.849V655.359V656.872V658.388V659.907V661.429V662.955V664.483V666.014V667.547V669.084V670.624V672.166V673.711V675.259V676.809V678.362V679.918V681.477V683.038V684.601V686.167V687.736V689.307V690.881V692.457V694.035V695.616V697.199V698.784V700.372V701.962V703.554V705.148V706.744V708.343V709.944V711.546V713.151V714.758V716.367V717.978V719.59V721.205V722.821V724.44V726.06V727.682V729.305V730.931V732.558V734.186V735.817V737.449V739.082V740.718V742.354V743.992V745.632V747.273V748.916V750.559V752.205V753.851V755.499V757.148V758.799V760.45V762.103V763.757V765.412V767.068V768.725V770.383V772.043V773.703V775.364V777.026V778.689V780.353V782.018V783.683V785.349V787.017V788.684V790.353V792.022V793.692V795.362V797.033V798.704V800.376V802.049V803.722V805.395V807.069V808.743V810.418V812.093V813.768V815.443V817.119V818.795V820.471V822.147V823.823V825.5V827.176V828.853V830.529V832.206V833.882V835.558V837.234V838.911V840.586V842.262V843.938V845.613V847.288V848.962V850.637V852.311V853.984V855.657V857.33V859.002V860.674V862.345V864.015V865.685V867.355V869.023V870.691V872.358V874.025V875.691V877.356V879.02V880.683V882.345V884.007V885.667V887.327V888.985V890.643V892.299V893.955V895.609V897.262V898.914V900.565V902.214V903.862V905.509V907.155V908.799V910.442V912.084V913.724V915.362V916.999V918.635V920.269V921.901V923.532V925.162V926.789V928.415V930.039V931.662V933.282V934.901V936.518V938.133V939.746V941.358V942.967V944.574V946.18V947.783V949.384V950.984V952.581V954.176V955.768V957.359V958.947V960.533V962.117V963.698V965.277V966.854V968.428V970V971.569V973.136V974.701V976.262V977.822V979.378V980.932V982.483V984.032V985.578V987.121V988.661V990.199V991.733V993.265V994.794V996.32V997.843V999.363V1000.88V1002.39V1003.91V1005.41V1006.92V1008.42V1009.92V1011.41V1012.9V1014.39V1015.88V1017.36V1018.84V1020.31V1021.79V1023.25V1024.72V1026.18V1027.64V1029.09V1030.54V1031.99V1033.43V1034.87V1036.31V1037.74V1039.17V1040.6V1042.02V1043.43V1044.85V1046.26V1047.66V1049.06V1050.46V1051.85V1053.24V1054.63V1056.01V1057.39V1058.76V1060.13V1061.49V1062.85V1064.21V1065.56V1066.91V1068.25V1069.59V1070.93V1072.26V1073.58V1074.9V1076.22V1077.53V1078.84V1080.14V1081.44V1082.73V1084.02V1085.3V1086.58V1087.85V1089.12V1090.39V1091.65V1092.9V1094.15V1095.4V1096.64V1097.87V1099.1V1100.33V1101.55V1102.76V1103.97V1105.17V1106.37V1107.57V1108.75V1109.94V1111.11V1112.29V1113.45V1114.61V1115.77V1116.92V1118.07C964.731 1168.88 923.535 1209.9 872.712 1209.9C821.889 1209.9 780.693 1168.88 780.693 1118.07Z" stroke="#DFDFDF" stroke-width="2"/>
<rect x="791.72" y="819.187" width="27.1809" height="22.8522" rx="7.5" fill="white" stroke="#B3B3B3"/>
<path d="M813.936 855.591C810.358 856.373 807.792 856.76 805.258 856.765C802.726 856.77 800.2 856.393 796.701 855.618C793.672 854.947 791.431 852.382 791.059 849.284L790.438 844.103C790.372 843.554 790.387 842.998 790.482 842.453C791.076 839.049 794.618 836.852 798.12 837.397C800.247 837.728 802.714 837.979 805.311 837.979C807.786 837.979 810.144 837.751 812.202 837.443C815.865 836.894 819.568 839.191 820.187 842.751C820.289 843.336 820.302 843.934 820.226 844.523L819.609 849.308C819.211 852.392 816.958 854.93 813.936 855.591Z" fill="white" stroke="#B3B3B3"/>
<path d="M809.227 846.909C806.425 846.572 804.253 846.563 801.388 846.908C800.217 847.049 799.24 847.816 798.906 848.909C798.557 850.056 798.224 851.504 798.224 852.837V858.145C799.969 858.487 802.453 858.663 805.04 858.663C807.647 858.663 810.321 858.485 812.398 858.132V852.837C812.398 851.506 812.066 850.06 811.717 848.915C811.383 847.819 810.402 847.05 809.227 846.909Z" fill="white" stroke="#B3B3B3"/>
<rect x="788.83" y="822.801" width="6.22585" height="18.5154" rx="3.11293" fill="white" stroke="#B3B3B3"/>
<rect x="815.565" y="822.801" width="6.22585" height="18.5154" rx="3.11293" fill="white" stroke="#B3B3B3"/>
<rect x="791.205" y="798.553" width="27.7955" height="18.2162" rx="8" fill="#D5D5D5"/>
<path d="M805.104 800.47L806.717 805.438H811.94L807.715 808.509L809.329 813.478L805.104 810.407L800.878 813.478L802.492 808.509L798.267 805.438H803.49L805.104 800.47Z" fill="white"/>
<rect x="827.85" y="819.187" width="27.1809" height="22.8522" rx="7.5" fill="white" stroke="#B3B3B3"/>
<path d="M850.066 855.591C846.487 856.373 843.922 856.76 841.388 856.765C838.856 856.77 836.33 856.393 832.83 855.618C829.802 854.947 827.561 852.382 827.189 849.284L826.567 844.103C826.502 843.554 826.516 842.998 826.611 842.453C827.205 839.049 830.748 836.852 834.25 837.397C836.377 837.728 838.844 837.979 841.441 837.979C843.916 837.979 846.274 837.751 848.332 837.443C851.995 836.894 855.698 839.191 856.317 842.751C856.419 843.336 856.432 843.934 856.356 844.523L855.739 849.308C855.341 852.392 853.088 854.93 850.066 855.591Z" fill="white" stroke="#B3B3B3"/>
<path d="M845.356 846.909C842.553 846.572 840.382 846.563 837.517 846.908C836.346 847.049 835.369 847.816 835.035 848.909C834.686 850.056 834.353 851.504 834.353 852.837V858.145C836.098 858.487 838.582 858.663 841.169 858.663C843.776 858.663 846.45 858.485 848.527 858.132V852.837C848.527 851.506 848.195 850.06 847.846 848.915C847.512 847.819 846.531 847.05 845.356 846.909Z" fill="white" stroke="#B3B3B3"/>
<rect x="824.96" y="822.801" width="6.22585" height="18.5154" rx="3.11293" fill="white" stroke="#B3B3B3"/>
<rect x="851.695" y="822.801" width="6.22586" height="18.5154" rx="3.11293" fill="white" stroke="#B3B3B3"/>
<rect x="827.335" y="798.553" width="27.7955" height="18.2162" rx="8" fill="#D5D5D5"/>
<path d="M841.233 800.47L842.847 805.438H848.07L843.845 808.509L845.459 813.478L841.233 810.407L837.008 813.478L838.622 808.509L834.397 805.438H839.62L841.233 800.47Z" fill="white"/>
<rect x="791.72" y="867.613" width="27.1809" height="22.8523" rx="7.5" fill="white" stroke="#B3B3B3"/>
<path d="M813.936 904.018C810.358 904.8 807.792 905.187 805.258 905.192C802.726 905.197 800.2 904.82 796.701 904.045C793.672 903.374 791.431 900.809 791.059 897.711L790.438 892.529C790.372 891.98 790.387 891.425 790.482 890.88C791.076 887.476 794.618 885.279 798.12 885.824C800.247 886.155 802.714 886.406 805.311 886.406C807.786 886.406 810.144 886.178 812.202 885.87C815.865 885.321 819.568 887.618 820.187 891.177C820.289 891.763 820.302 892.36 820.226 892.95L819.609 897.734C819.211 900.819 816.958 903.357 813.936 904.018Z" fill="white" stroke="#B3B3B3"/>
<path d="M809.227 895.336C806.425 894.999 804.253 894.99 801.388 895.334C800.217 895.475 799.24 896.242 798.906 897.336C798.557 898.483 798.224 899.931 798.224 901.264V906.572C799.969 906.914 802.453 907.09 805.04 907.09C807.647 907.09 810.321 906.911 812.398 906.559V901.264C812.398 899.933 812.066 898.487 811.717 897.341C811.383 896.245 810.402 895.477 809.227 895.336Z" fill="white" stroke="#B3B3B3"/>
<rect x="788.83" y="871.228" width="6.22585" height="18.5155" rx="3.11293" fill="white" stroke="#B3B3B3"/>
<rect x="815.565" y="871.228" width="6.22585" height="18.5155" rx="3.11293" fill="white" stroke="#B3B3B3"/>
<rect x="827.85" y="867.613" width="27.1809" height="22.8523" rx="7.5" fill="white" stroke="#B3B3B3"/>
<path d="M850.066 904.018C846.487 904.8 843.922 905.187 841.388 905.192C838.856 905.197 836.33 904.82 832.83 904.045C829.802 903.374 827.561 900.809 827.189 897.711L826.567 892.529C826.502 891.98 826.516 891.425 826.611 890.88C827.205 887.476 830.748 885.279 834.25 885.824C836.377 886.155 838.844 886.406 841.441 886.406C843.916 886.406 846.274 886.178 848.332 885.87C851.995 885.321 855.698 887.618 856.317 891.177C856.419 891.763 856.432 892.36 856.356 892.95L855.739 897.734C855.341 900.819 853.088 903.357 850.066 904.018Z" fill="white" stroke="#B3B3B3"/>
<path d="M845.356 895.336C842.553 894.999 840.382 894.99 837.517 895.334C836.346 895.475 835.369 896.242 835.035 897.336C834.686 898.483 834.353 899.931 834.353 901.264V906.572C836.098 906.914 838.582 907.09 841.169 907.09C843.776 907.09 846.45 906.911 848.527 906.559V901.264C848.527 899.933 848.195 898.487 847.846 897.341C847.512 896.245 846.531 895.477 845.356 895.336Z" fill="white" stroke="#B3B3B3"/>
<rect x="824.96" y="871.228" width="6.22585" height="18.5155" rx="3.11293" fill="white" stroke="#B3B3B3"/>
<rect x="851.695" y="871.228" width="6.22586" height="18.5155" rx="3.11293" fill="white" stroke="#B3B3B3"/>
<rect x="791.72" y="916.041" width="27.1809" height="22.8523" rx="7.5" fill="white" stroke="#B3B3B3"/>
<path d="M813.936 952.445C810.358 953.228 807.792 953.615 805.258 953.62C802.726 953.625 800.2 953.248 796.701 952.473C793.672 951.802 791.431 949.237 791.059 946.139L790.438 940.957C790.372 940.408 790.387 939.853 790.482 939.308C791.076 935.904 794.618 933.706 798.12 934.252C800.247 934.583 802.714 934.833 805.311 934.833C807.786 934.833 810.144 934.605 812.202 934.297C815.865 933.749 819.568 936.046 820.187 939.605C820.289 940.191 820.302 940.788 820.226 941.377L819.609 946.162C819.211 949.246 816.958 951.785 813.936 952.445Z" fill="white" stroke="#B3B3B3"/>
<path d="M809.227 943.764C806.425 943.427 804.253 943.417 801.388 943.762C800.217 943.903 799.24 944.67 798.906 945.764C798.557 946.91 798.224 948.359 798.224 949.691V955C799.969 955.342 802.453 955.518 805.04 955.518C807.647 955.518 810.321 955.339 812.398 954.987V949.691C812.398 948.361 812.066 946.915 811.717 945.769C811.383 944.673 810.402 943.905 809.227 943.764Z" fill="white" stroke="#B3B3B3"/>
<rect x="788.83" y="919.655" width="6.22585" height="18.5156" rx="3.11293" fill="white" stroke="#B3B3B3"/>
<rect x="815.565" y="919.655" width="6.22585" height="18.5156" rx="3.11293" fill="white" stroke="#B3B3B3"/>
<rect x="827.85" y="916.041" width="27.1809" height="22.8523" rx="7.5" fill="white" stroke="#B3B3B3"/>
<path d="M850.066 952.445C846.487 953.228 843.922 953.615 841.388 953.62C838.856 953.625 836.33 953.248 832.83 952.473C829.802 951.802 827.561 949.237 827.189 946.139L826.567 940.957C826.502 940.408 826.516 939.853 826.611 939.308C827.205 935.904 830.748 933.706 834.25 934.252C836.377 934.583 838.844 934.833 841.441 934.833C843.916 934.833 846.274 934.605 848.331 934.297C851.995 933.749 855.698 936.046 856.317 939.605C856.419 940.191 856.432 940.788 856.356 941.377L855.739 946.162C855.341 949.246 853.088 951.785 850.066 952.445Z" fill="white" stroke="#B3B3B3"/>
<path d="M845.356 943.764C842.553 943.427 840.382 943.417 837.517 943.762C836.346 943.903 835.369 944.67 835.035 945.764C834.686 946.91 834.353 948.359 834.353 949.691V955C836.098 955.342 838.582 955.518 841.169 955.518C843.776 955.518 846.45 955.339 848.527 954.987V949.691C848.527 948.361 848.195 946.915 847.846 945.769C847.512 944.673 846.531 943.905 845.356 943.764Z" fill="white" stroke="#B3B3B3"/>
<rect x="824.96" y="919.655" width="6.22585" height="18.5156" rx="3.11293" fill="white" stroke="#B3B3B3"/>
<rect x="851.695" y="919.655" width="6.22586" height="18.5156" rx="3.11293" fill="white" stroke="#B3B3B3"/>
<rect x="791.72" y="964.469" width="27.1809" height="22.8522" rx="7.5" fill="white" stroke="#B3B3B3"/>
<path d="M813.936 1000.87C810.358 1001.66 807.792 1002.04 805.258 1002.05C802.726 1002.05 800.2 1001.68 796.701 1000.9C793.672 1000.23 791.431 997.665 791.059 994.566L790.438 989.385C790.372 988.836 790.387 988.28 790.482 987.736C791.076 984.331 794.618 982.134 798.12 982.679C800.247 983.01 802.714 983.261 805.311 983.261C807.786 983.261 810.144 983.033 812.202 982.725C815.865 982.176 819.568 984.473 820.187 988.033C820.289 988.618 820.302 989.216 820.226 989.805L819.609 994.59C819.211 997.674 816.958 1000.21 813.936 1000.87Z" fill="white" stroke="#B3B3B3"/>
<path d="M809.227 992.191C806.425 991.855 804.253 991.845 801.388 992.19C800.217 992.331 799.24 993.098 798.906 994.192C798.557 995.338 798.224 996.787 798.224 998.119V1003.43C799.969 1003.77 802.453 1003.95 805.04 1003.95C807.647 1003.95 810.321 1003.77 812.398 1003.41V998.119C812.398 996.789 812.066 995.343 811.717 994.197C811.383 993.101 810.402 992.333 809.227 992.191Z" fill="white" stroke="#B3B3B3"/>
<rect x="788.83" y="968.083" width="6.22585" height="18.5154" rx="3.11293" fill="white" stroke="#B3B3B3"/>
<rect x="815.565" y="968.083" width="6.22585" height="18.5154" rx="3.11293" fill="white" stroke="#B3B3B3"/>
<rect x="827.85" y="964.469" width="27.1809" height="22.8522" rx="7.5" fill="white" stroke="#B3B3B3"/>
<path d="M850.066 1000.87C846.487 1001.66 843.922 1002.04 841.388 1002.05C838.856 1002.05 836.33 1001.68 832.83 1000.9C829.802 1000.23 827.561 997.665 827.189 994.566L826.567 989.385C826.502 988.836 826.516 988.28 826.611 987.736C827.205 984.331 830.748 982.134 834.25 982.679C836.377 983.01 838.844 983.261 841.441 983.261C843.916 983.261 846.274 983.033 848.332 982.725C851.995 982.176 855.698 984.473 856.317 988.033C856.419 988.618 856.432 989.216 856.356 989.805L855.739 994.59C855.341 997.674 853.088 1000.21 850.066 1000.87Z" fill="white" stroke="#B3B3B3"/>
<path d="M845.356 992.191C842.553 991.855 840.382 991.845 837.517 992.19C836.346 992.331 835.369 993.098 835.035 994.192C834.686 995.338 834.353 996.787 834.353 998.119V1003.43C836.098 1003.77 838.582 1003.95 841.169 1003.95C843.776 1003.95 846.45 1003.77 848.527 1003.41V998.119C848.527 996.789 848.195 995.343 847.846 994.197C847.512 993.101 846.531 992.333 845.356 992.191Z" fill="white" stroke="#B3B3B3"/>
<rect x="824.96" y="968.083" width="6.22585" height="18.5154" rx="3.11293" fill="white" stroke="#B3B3B3"/>
<rect x="851.695" y="968.083" width="6.22586" height="18.5154" rx="3.11293" fill="white" stroke="#B3B3B3"/>
<rect x="892.092" y="819.187" width="27.1809" height="22.8522" rx="7.5" fill="white" stroke="#B3B3B3"/>
<path d="M914.308 855.591C910.73 856.373 908.164 856.76 905.631 856.765C903.098 856.77 900.572 856.393 897.073 855.618C894.044 854.947 891.803 852.382 891.431 849.284L890.81 844.103C890.744 843.554 890.759 842.998 890.854 842.453C891.448 839.049 894.99 836.852 898.492 837.397C900.619 837.728 903.087 837.979 905.683 837.979C908.158 837.979 910.516 837.751 912.574 837.443C916.237 836.894 919.94 839.191 920.559 842.751C920.661 843.336 920.674 843.934 920.598 844.523L919.981 849.308C919.583 852.392 917.33 854.93 914.308 855.591Z" fill="white" stroke="#B3B3B3"/>
<path d="M909.598 846.909C906.796 846.572 904.624 846.563 901.759 846.908C900.588 847.049 899.611 847.816 899.277 848.909C898.928 850.056 898.595 851.504 898.595 852.837V858.145C900.34 858.487 902.824 858.663 905.411 858.663C908.019 858.663 910.692 858.485 912.769 858.132V852.837C912.769 851.506 912.437 850.06 912.088 848.915C911.754 847.819 910.773 847.05 909.598 846.909Z" fill="white" stroke="#B3B3B3"/>
<rect x="889.202" y="822.801" width="6.22585" height="18.5154" rx="3.11293" fill="white" stroke="#B3B3B3"/>
<rect x="915.938" y="822.801" width="6.22586" height="18.5154" rx="3.11293" fill="white" stroke="#B3B3B3"/>
<rect x="891.577" y="798.553" width="27.7955" height="18.2162" rx="8" fill="#D5D5D5"/>
<path d="M905.476 800.47L907.09 805.438H912.312L908.087 808.509L909.701 813.478L905.476 810.407L901.25 813.478L902.864 808.509L898.639 805.438H903.862L905.476 800.47Z" fill="white"/>
<rect x="928.221" y="819.187" width="27.1809" height="22.8522" rx="7.5" fill="white" stroke="#B3B3B3"/>
<path d="M950.437 855.591C946.858 856.373 944.293 856.76 941.759 856.765C939.227 856.77 936.701 856.393 933.202 855.618C930.173 854.947 927.932 852.382 927.56 849.284L926.939 844.103C926.873 843.554 926.887 842.998 926.983 842.453C927.577 839.049 931.119 836.852 934.621 837.397C936.748 837.728 939.215 837.979 941.812 837.979C944.287 837.979 946.645 837.751 948.703 837.443C952.366 836.894 956.069 839.191 956.688 842.751C956.79 843.336 956.803 843.934 956.727 844.523L956.11 849.308C955.712 852.392 953.459 854.93 950.437 855.591Z" fill="white" stroke="#B3B3B3"/>
<path d="M945.728 846.909C942.926 846.572 940.754 846.563 937.889 846.908C936.718 847.049 935.741 847.816 935.407 848.909C935.058 850.056 934.725 851.504 934.725 852.837V858.145C936.47 858.487 938.954 858.663 941.541 858.663C944.148 858.663 946.822 858.485 948.899 858.132V852.837C948.899 851.506 948.567 850.06 948.218 848.915C947.884 847.819 946.903 847.05 945.728 846.909Z" fill="white" stroke="#B3B3B3"/>
<rect x="925.331" y="822.801" width="6.22585" height="18.5154" rx="3.11293" fill="white" stroke="#B3B3B3"/>
<rect x="952.066" y="822.801" width="6.22586" height="18.5154" rx="3.11293" fill="white" stroke="#B3B3B3"/>
<rect x="927.706" y="798.553" width="27.7956" height="18.2162" rx="8" fill="#D5D5D5"/>
<path d="M941.605 800.47L943.218 805.438H948.441L944.216 808.509L945.83 813.478L941.605 810.407L937.379 813.478L938.993 808.509L934.768 805.438H939.991L941.605 800.47Z" fill="white"/>
<rect x="892.092" y="867.614" width="27.1809" height="22.8523" rx="7.5" fill="white" stroke="#B3B3B3"/>
<path d="M914.308 904.019C910.73 904.801 908.164 905.188 905.631 905.193C903.098 905.198 900.572 904.821 897.073 904.046C894.044 903.375 891.803 900.81 891.431 897.712L890.81 892.53C890.744 891.981 890.759 891.426 890.854 890.881C891.448 887.477 894.99 885.28 898.492 885.825C900.619 886.156 903.087 886.407 905.683 886.407C908.158 886.407 910.516 886.179 912.574 885.871C916.237 885.322 919.94 887.619 920.559 891.178C920.661 891.764 920.674 892.361 920.598 892.951L919.981 897.735C919.583 900.82 917.33 903.358 914.308 904.019Z" fill="white" stroke="#B3B3B3"/>
<path d="M909.598 895.337C906.796 895 904.624 894.991 901.759 895.335C900.588 895.476 899.611 896.243 899.277 897.337C898.928 898.483 898.595 899.932 898.595 901.265V906.573C900.34 906.915 902.824 907.091 905.411 907.091C908.019 907.091 910.692 906.912 912.769 906.56V901.265C912.769 899.934 912.437 898.488 912.088 897.342C911.754 896.246 910.773 895.478 909.598 895.337Z" fill="white" stroke="#B3B3B3"/>
<rect x="889.202" y="871.229" width="6.22585" height="18.5155" rx="3.11293" fill="white" stroke="#B3B3B3"/>
<rect x="915.938" y="871.229" width="6.22586" height="18.5155" rx="3.11293" fill="white" stroke="#B3B3B3"/>
<rect x="928.221" y="867.614" width="27.1809" height="22.8523" rx="7.5" fill="white" stroke="#B3B3B3"/>
<path d="M950.437 904.019C946.858 904.801 944.293 905.188 941.759 905.193C939.227 905.198 936.701 904.821 933.202 904.046C930.173 903.375 927.932 900.81 927.56 897.712L926.939 892.53C926.873 891.981 926.887 891.426 926.983 890.881C927.577 887.477 931.119 885.28 934.621 885.825C936.748 886.156 939.215 886.407 941.812 886.407C944.287 886.407 946.645 886.179 948.703 885.871C952.366 885.322 956.069 887.619 956.688 891.178C956.79 891.764 956.803 892.361 956.727 892.951L956.11 897.735C955.712 900.82 953.459 903.358 950.437 904.019Z" fill="white" stroke="#B3B3B3"/>
<path d="M945.728 895.337C942.926 895 940.754 894.991 937.889 895.335C936.718 895.476 935.741 896.243 935.407 897.337C935.058 898.483 934.725 899.932 934.725 901.265V906.573C936.47 906.915 938.954 907.091 941.541 907.091C944.148 907.091 946.822 906.912 948.899 906.56V901.265C948.899 899.934 948.567 898.488 948.218 897.342C947.884 896.246 946.903 895.478 945.728 895.337Z" fill="white" stroke="#B3B3B3"/>
<rect x="925.331" y="871.229" width="6.22585" height="18.5155" rx="3.11293" fill="white" stroke="#B3B3B3"/>
<rect x="952.066" y="871.229" width="6.22586" height="18.5155" rx="3.11293" fill="white" stroke="#B3B3B3"/>
<rect x="892.092" y="916.041" width="27.1809" height="22.8523" rx="7.5" fill="white" stroke="#B3B3B3"/>
<path d="M914.308 952.445C910.73 953.228 908.164 953.615 905.631 953.62C903.098 953.625 900.572 953.248 897.073 952.473C894.044 951.802 891.803 949.237 891.431 946.139L890.81 940.957C890.744 940.408 890.759 939.853 890.854 939.308C891.448 935.904 894.99 933.706 898.492 934.252C900.619 934.583 903.087 934.833 905.683 934.833C908.158 934.833 910.516 934.605 912.574 934.297C916.237 933.749 919.94 936.046 920.559 939.605C920.661 940.191 920.674 940.788 920.598 941.377L919.981 946.162C919.583 949.246 917.33 951.785 914.308 952.445Z" fill="white" stroke="#B3B3B3"/>
<path d="M909.598 943.764C906.796 943.427 904.624 943.417 901.759 943.762C900.588 943.903 899.611 944.67 899.277 945.764C898.928 946.91 898.595 948.359 898.595 949.691V955C900.34 955.342 902.824 955.518 905.411 955.518C908.019 955.518 910.692 955.339 912.769 954.987V949.691C912.769 948.361 912.437 946.915 912.088 945.769C911.754 944.673 910.773 943.905 909.598 943.764Z" fill="white" stroke="#B3B3B3"/>
<rect x="889.202" y="919.655" width="6.22585" height="18.5156" rx="3.11293" fill="white" stroke="#B3B3B3"/>
<rect x="915.938" y="919.655" width="6.22586" height="18.5156" rx="3.11293" fill="white" stroke="#B3B3B3"/>
<rect x="928.221" y="916.041" width="27.1809" height="22.8523" rx="7.5" fill="white" stroke="#B3B3B3"/>
<path d="M950.437 952.445C946.858 953.228 944.293 953.615 941.759 953.62C939.227 953.625 936.701 953.248 933.202 952.473C930.173 951.802 927.932 949.237 927.56 946.139L926.939 940.957C926.873 940.408 926.887 939.853 926.983 939.308C927.577 935.904 931.119 933.706 934.621 934.252C936.748 934.583 939.215 934.833 941.812 934.833C944.287 934.833 946.645 934.605 948.703 934.297C952.366 933.749 956.069 936.046 956.688 939.605C956.79 940.191 956.803 940.788 956.727 941.377L956.11 946.162C955.712 949.246 953.459 951.785 950.437 952.445Z" fill="white" stroke="#B3B3B3"/>
<path d="M945.728 943.764C942.926 943.427 940.754 943.417 937.889 943.762C936.718 943.903 935.741 944.67 935.407 945.764C935.058 946.91 934.725 948.359 934.725 949.691V955C936.47 955.342 938.954 955.518 941.541 955.518C944.148 955.518 946.822 955.339 948.899 954.987V949.691C948.899 948.361 948.567 946.915 948.218 945.769C947.884 944.673 946.903 943.905 945.728 943.764Z" fill="white" stroke="#B3B3B3"/>
<rect x="925.331" y="919.655" width="6.22585" height="18.5156" rx="3.11293" fill="white" stroke="#B3B3B3"/>
<rect x="952.066" y="919.655" width="6.22586" height="18.5156" rx="3.11293" fill="white" stroke="#B3B3B3"/>
<rect x="892.092" y="964.469" width="27.1809" height="22.8522" rx="7.5" fill="white" stroke="#B3B3B3"/>
<path d="M914.308 1000.87C910.73 1001.66 908.164 1002.04 905.631 1002.05C903.098 1002.05 900.572 1001.68 897.073 1000.9C894.044 1000.23 891.803 997.665 891.431 994.566L890.81 989.385C890.744 988.836 890.759 988.28 890.854 987.736C891.448 984.331 894.99 982.134 898.492 982.679C900.619 983.01 903.087 983.261 905.683 983.261C908.158 983.261 910.516 983.033 912.574 982.725C916.237 982.176 919.94 984.473 920.559 988.033C920.661 988.618 920.674 989.216 920.598 989.805L919.981 994.59C919.583 997.674 917.33 1000.21 914.308 1000.87Z" fill="white" stroke="#B3B3B3"/>
<path d="M909.598 992.191C906.796 991.855 904.624 991.845 901.759 992.19C900.588 992.331 899.611 993.098 899.277 994.192C898.928 995.338 898.595 996.787 898.595 998.119V1003.43C900.34 1003.77 902.824 1003.95 905.411 1003.95C908.019 1003.95 910.692 1003.77 912.769 1003.41V998.119C912.769 996.789 912.437 995.343 912.088 994.197C911.754 993.101 910.773 992.333 909.598 992.191Z" fill="white" stroke="#B3B3B3"/>
<rect x="889.202" y="968.083" width="6.22585" height="18.5154" rx="3.11293" fill="white" stroke="#B3B3B3"/>
<rect x="915.938" y="968.083" width="6.22586" height="18.5154" rx="3.11293" fill="white" stroke="#B3B3B3"/>
<rect x="928.221" y="964.469" width="27.1809" height="22.8522" rx="7.5" fill="white" stroke="#B3B3B3"/>
<path d="M950.437 1000.87C946.858 1001.66 944.293 1002.04 941.759 1002.05C939.227 1002.05 936.701 1001.68 933.202 1000.9C930.173 1000.23 927.932 997.665 927.56 994.566L926.939 989.385C926.873 988.836 926.887 988.28 926.983 987.736C927.577 984.331 931.119 982.134 934.621 982.679C936.748 983.01 939.215 983.261 941.812 983.261C944.287 983.261 946.645 983.033 948.703 982.725C952.366 982.176 956.069 984.473 956.688 988.033C956.79 988.618 956.803 989.216 956.727 989.805L956.11 994.59C955.712 997.674 953.459 1000.21 950.437 1000.87Z" fill="white" stroke="#B3B3B3"/>
<path d="M945.728 992.191C942.926 991.855 940.754 991.845 937.889 992.19C936.718 992.331 935.741 993.098 935.407 994.192C935.058 995.338 934.725 996.787 934.725 998.119V1003.43C936.47 1003.77 938.954 1003.95 941.541 1003.95C944.148 1003.95 946.822 1003.77 948.899 1003.41V998.119C948.899 996.789 948.567 995.343 948.218 994.197C947.884 993.101 946.903 992.333 945.728 992.191Z" fill="white" stroke="#B3B3B3"/>
<rect x="925.331" y="968.083" width="6.22585" height="18.5154" rx="3.11293" fill="white" stroke="#B3B3B3"/>
<rect x="952.066" y="968.083" width="6.22586" height="18.5154" rx="3.11293" fill="white" stroke="#B3B3B3"/>
<rect x="771.469" y="351.204" width="9.58467" height="47.9373" fill="#DFDFDF"/>
<rect x="964.38" y="352.163" width="9.58464" height="47.9373" fill="#DFDFDF"/>
<path opacity="0.54" fill-rule="evenodd" clip-rule="evenodd" d="M952.878 368.462L951.536 369.804L956.903 375.173H945.21V377.091H956.903L951.536 382.46L952.878 383.802L960.545 376.132L952.878 368.462Z" fill="#DFDFDF"/>
<path opacity="0.54" fill-rule="evenodd" clip-rule="evenodd" d="M792.555 368.462L793.897 369.804L788.529 375.173H800.223V377.091H788.529L793.897 382.46L792.555 383.802L784.887 376.132L792.555 368.462Z" fill="#DFDFDF"/>
<rect x="827.136" y="472.203" width="27.1809" height="22.8522" rx="7.5" fill="white" stroke="#B3B3B3"/>
<path d="M849.352 508.607C845.774 509.39 843.208 509.777 840.675 509.782C838.142 509.787 835.616 509.41 832.117 508.635C829.088 507.964 826.847 505.399 826.475 502.3L825.854 497.119C825.788 496.57 825.803 496.015 825.898 495.47C826.492 492.066 830.034 489.869 833.536 490.414C835.663 490.745 838.13 490.996 840.727 490.996C843.202 490.996 845.56 490.768 847.618 490.459C851.281 489.911 854.984 492.208 855.603 495.767C855.705 496.353 855.718 496.95 855.642 497.539L855.025 502.324C854.627 505.408 852.374 507.947 849.352 508.607Z" fill="white" stroke="#B3B3B3"/>
<path d="M844.643 499.926C841.841 499.589 839.669 499.579 836.804 499.924C835.633 500.065 834.656 500.832 834.322 501.926C833.973 503.072 833.64 504.521 833.64 505.853V511.162C835.385 511.504 837.869 511.68 840.456 511.68C843.063 511.68 845.737 511.501 847.814 511.149V505.853C847.814 504.523 847.482 503.077 847.133 501.931C846.799 500.835 845.818 500.067 844.643 499.926Z" fill="white" stroke="#B3B3B3"/>
<rect x="824.246" y="475.817" width="6.22585" height="18.5154" rx="3.11293" fill="white" stroke="#B3B3B3"/>
<rect x="850.981" y="475.817" width="6.22586" height="18.5154" rx="3.11293" fill="white" stroke="#B3B3B3"/>
<g opacity="0.4">
<rect x="791.006" y="424.252" width="27.1809" height="22.8522" rx="7.5" fill="white" stroke="#636467"/>
<path d="M813.222 460.656C809.644 461.439 807.078 461.826 804.545 461.831C802.012 461.836 799.486 461.459 795.987 460.684C792.958 460.013 790.717 457.448 790.345 454.349L789.724 449.168C789.658 448.619 789.673 448.063 789.768 447.519C790.362 444.115 793.904 441.917 797.406 442.462C799.533 442.794 802.001 443.044 804.597 443.044C807.072 443.044 809.43 442.816 811.488 442.508C815.151 441.96 818.855 444.257 819.473 447.816C819.575 448.401 819.588 448.999 819.512 449.588L818.895 454.373C818.497 457.457 816.244 459.996 813.222 460.656Z" fill="white" stroke="#636467"/>
<path d="M808.513 451.975C805.711 451.638 803.539 451.628 800.674 451.973C799.503 452.114 798.526 452.881 798.192 453.975C797.843 455.121 797.51 456.57 797.51 457.902V463.211C799.255 463.553 801.739 463.729 804.326 463.729C806.934 463.729 809.607 463.55 811.684 463.198V457.902C811.684 456.572 811.352 455.126 811.003 453.98C810.669 452.884 809.688 452.116 808.513 451.975Z" fill="white" stroke="#636467"/>
<rect x="788.116" y="427.866" width="6.22585" height="18.5154" rx="3.11293" fill="white" stroke="#636467"/>
<rect x="814.852" y="427.866" width="6.22587" height="18.5154" rx="3.11293" fill="white" stroke="#636467"/>
</g>
<rect x="790.491" y="403.618" width="27.7956" height="18.2162" rx="8" fill="#D5D5D5"/>
<path d="M804.389 405.535L806.003 410.504H811.225L807 413.574L808.614 418.543L804.389 415.472L800.163 418.543L801.777 413.574L797.552 410.504H802.775L804.389 405.535Z" fill="white"/>
<g opacity="0.4">
<rect x="827.136" y="424.252" width="27.1809" height="22.8522" rx="7.5" fill="white" stroke="#636467"/>
<path d="M849.352 460.656C845.774 461.439 843.208 461.826 840.675 461.831C838.142 461.836 835.616 461.459 832.117 460.684C829.088 460.013 826.847 457.448 826.475 454.349L825.854 449.168C825.788 448.619 825.803 448.063 825.898 447.519C826.492 444.115 830.034 441.917 833.536 442.462C835.663 442.794 838.13 443.044 840.727 443.044C843.202 443.044 845.56 442.816 847.618 442.508C851.281 441.96 854.984 444.257 855.603 447.816C855.705 448.401 855.718 448.999 855.642 449.588L855.025 454.373C854.627 457.457 852.374 459.996 849.352 460.656Z" fill="white" stroke="#636467"/>
<path d="M844.643 451.975C841.841 451.638 839.669 451.628 836.804 451.973C835.633 452.114 834.656 452.881 834.322 453.975C833.973 455.121 833.64 456.57 833.64 457.902V463.211C835.385 463.553 837.869 463.729 840.456 463.729C843.063 463.729 845.737 463.55 847.814 463.198V457.902C847.814 456.572 847.482 455.126 847.133 453.98C846.799 452.884 845.818 452.116 844.643 451.975Z" fill="white" stroke="#636467"/>
<rect x="824.246" y="427.866" width="6.22585" height="18.5154" rx="3.11293" fill="white" stroke="#636467"/>
<rect x="850.981" y="427.866" width="6.22586" height="18.5154" rx="3.11293" fill="white" stroke="#636467"/>
</g>
<rect x="826.621" y="403.618" width="27.7956" height="18.2162" rx="8" fill="#D5D5D5"/>
<path d="M840.519 405.535L842.133 410.504H847.355L843.13 413.574L844.744 418.543L840.519 415.472L836.293 418.543L837.907 413.574L833.682 410.504H838.905L840.519 405.535Z" fill="white"/>
<rect x="791.006" y="569.533" width="27.1809" height="22.8523" rx="7.5" fill="white" stroke="#B3B3B3"/>
<path d="M813.222 605.937C809.644 606.72 807.078 607.107 804.545 607.112C802.012 607.117 799.486 606.74 795.987 605.965C792.958 605.294 790.717 602.729 790.345 599.631L789.724 594.449C789.658 593.9 789.673 593.345 789.768 592.8C790.362 589.396 793.904 587.199 797.406 587.744C799.533 588.075 802.001 588.326 804.597 588.326C807.072 588.326 809.43 588.098 811.488 587.79C815.151 587.241 818.855 589.538 819.473 593.097C819.575 593.683 819.588 594.28 819.512 594.87L818.895 599.654C818.497 602.739 816.244 605.277 813.222 605.937Z" fill="white" stroke="#B3B3B3"/>
<path d="M808.513 597.256C805.711 596.919 803.539 596.909 800.674 597.254C799.503 597.395 798.526 598.162 798.192 599.256C797.843 600.402 797.51 601.851 797.51 603.183V608.492C799.255 608.834 801.739 609.01 804.326 609.01C806.934 609.01 809.607 608.831 811.684 608.479V603.183C811.684 601.853 811.352 600.407 811.003 599.261C810.669 598.165 809.688 597.397 808.513 597.256Z" fill="white" stroke="#B3B3B3"/>
<rect x="788.116" y="573.147" width="6.22585" height="18.5155" rx="3.11293" fill="white" stroke="#B3B3B3"/>
<rect x="814.852" y="573.147" width="6.22587" height="18.5155" rx="3.11294" fill="white" stroke="#B3B3B3"/>
<rect x="827.136" y="569.533" width="27.1809" height="22.8523" rx="7.5" fill="white" stroke="#B3B3B3"/>
<path d="M849.352 605.937C845.774 606.72 843.208 607.107 840.675 607.112C838.142 607.117 835.616 606.74 832.117 605.965C829.088 605.294 826.847 602.729 826.475 599.631L825.854 594.449C825.788 593.9 825.803 593.345 825.898 592.8C826.492 589.396 830.034 587.199 833.536 587.744C835.663 588.075 838.13 588.326 840.727 588.326C843.202 588.326 845.56 588.098 847.618 587.79C851.281 587.241 854.984 589.538 855.603 593.097C855.705 593.683 855.718 594.28 855.642 594.87L855.025 599.654C854.627 602.739 852.374 605.277 849.352 605.937Z" fill="white" stroke="#B3B3B3"/>
<path d="M844.643 597.256C841.841 596.919 839.669 596.909 836.804 597.254C835.633 597.395 834.656 598.162 834.322 599.256C833.973 600.402 833.64 601.851 833.64 603.183V608.492C835.385 608.834 837.869 609.01 840.456 609.01C843.063 609.01 845.737 608.831 847.814 608.479V603.183C847.814 601.853 847.482 600.407 847.133 599.261C846.799 598.165 845.818 597.397 844.643 597.256Z" fill="white" stroke="#B3B3B3"/>
<rect x="824.246" y="573.147" width="6.22585" height="18.5155" rx="3.11293" fill="white" stroke="#B3B3B3"/>
<rect x="850.981" y="573.147" width="6.22586" height="18.5155" rx="3.11293" fill="white" stroke="#B3B3B3"/>
<rect x="791.006" y="617.961" width="27.1809" height="22.8523" rx="7.5" fill="white" stroke="#B3B3B3"/>
<path d="M813.222 654.365C809.644 655.148 807.078 655.535 804.545 655.54C802.012 655.545 799.486 655.168 795.987 654.393C792.958 653.722 790.717 651.157 790.345 648.058L789.724 642.877C789.658 642.328 789.673 641.772 789.768 641.228C790.362 637.824 793.904 635.626 797.406 636.171C799.533 636.503 802.001 636.753 804.597 636.753C807.072 636.753 809.43 636.525 811.488 636.217C815.151 635.669 818.855 637.966 819.473 641.525C819.575 642.11 819.588 642.708 819.512 643.297L818.895 648.082C818.497 651.166 816.244 653.705 813.222 654.365Z" fill="white" stroke="#B3B3B3"/>
<path d="M808.513 645.684C805.711 645.347 803.539 645.337 800.674 645.682C799.503 645.823 798.526 646.59 798.192 647.684C797.843 648.83 797.51 650.279 797.51 651.611V656.92C799.255 657.262 801.739 657.437 804.326 657.438C806.934 657.438 809.607 657.259 811.684 656.907V651.611C811.684 650.281 811.352 648.835 811.003 647.689C810.669 646.593 809.688 645.825 808.513 645.684Z" fill="white" stroke="#B3B3B3"/>
<rect x="788.116" y="621.575" width="6.22585" height="18.5156" rx="3.11293" fill="white" stroke="#B3B3B3"/>
<rect x="814.852" y="621.575" width="6.22587" height="18.5156" rx="3.11294" fill="white" stroke="#B3B3B3"/>
<rect x="827.136" y="617.961" width="27.1809" height="22.8523" rx="7.5" fill="white" stroke="#B3B3B3"/>
<path d="M849.352 654.365C845.774 655.148 843.208 655.535 840.675 655.54C838.142 655.545 835.616 655.168 832.117 654.393C829.088 653.722 826.847 651.157 826.475 648.058L825.854 642.877C825.788 642.328 825.803 641.772 825.898 641.228C826.492 637.824 830.034 635.626 833.536 636.171C835.663 636.503 838.13 636.753 840.727 636.753C843.202 636.753 845.56 636.525 847.618 636.217C851.281 635.669 854.984 637.966 855.603 641.525C855.705 642.11 855.718 642.708 855.642 643.297L855.025 648.082C854.627 651.166 852.374 653.705 849.352 654.365Z" fill="white" stroke="#B3B3B3"/>
<path d="M844.643 645.684C841.841 645.347 839.669 645.337 836.804 645.682C835.633 645.823 834.656 646.59 834.322 647.684C833.973 648.83 833.64 650.279 833.64 651.611V656.92C835.385 657.262 837.869 657.437 840.456 657.438C843.063 657.438 845.737 657.259 847.814 656.907V651.611C847.814 650.281 847.482 648.835 847.133 647.689C846.799 646.593 845.818 645.825 844.643 645.684Z" fill="white" stroke="#B3B3B3"/>
<rect x="824.246" y="621.575" width="6.22585" height="18.5156" rx="3.11293" fill="white" stroke="#B3B3B3"/>
<rect x="850.981" y="621.575" width="6.22586" height="18.5156" rx="3.11293" fill="white" stroke="#B3B3B3"/>
<rect x="791.006" y="472.701" width="27.1809" height="22.8522" rx="7.5" fill="white" stroke="#B3B3B3"/>
<path d="M813.222 509.105C809.644 509.888 807.078 510.275 804.545 510.28C802.012 510.285 799.486 509.908 795.987 509.133C792.958 508.462 790.717 505.897 790.345 502.799L789.724 497.617C789.658 497.068 789.673 496.513 789.768 495.968C790.362 492.564 793.904 490.367 797.406 490.912C799.533 491.243 802.001 491.494 804.597 491.494C807.072 491.494 809.43 491.266 811.488 490.958C815.151 490.409 818.855 492.706 819.473 496.265C819.575 496.851 819.588 497.448 819.512 498.038L818.895 502.822C818.497 505.907 816.244 508.445 813.222 509.105Z" fill="white" stroke="#B3B3B3"/>
<path d="M808.513 500.424C805.711 500.087 803.539 500.077 800.674 500.422C799.503 500.563 798.526 501.33 798.192 502.424C797.843 503.57 797.51 505.019 797.51 506.351V511.66C799.255 512.002 801.739 512.178 804.326 512.178C806.934 512.178 809.607 511.999 811.684 511.647V506.351C811.684 505.021 811.352 503.575 811.003 502.429C810.669 501.333 809.688 500.565 808.513 500.424Z" fill="white" stroke="#B3B3B3"/>
<rect x="788.116" y="476.315" width="6.22585" height="18.5155" rx="3.11293" fill="white" stroke="#B3B3B3"/>
<rect x="814.852" y="476.315" width="6.22587" height="18.5155" rx="3.11294" fill="white" stroke="#B3B3B3"/>
<rect x="791.006" y="521.128" width="27.1809" height="22.8522" rx="7.5" fill="white" stroke="#B3B3B3"/>
<path d="M813.222 557.532C809.644 558.315 807.078 558.702 804.545 558.707C802.012 558.712 799.486 558.335 795.987 557.56C792.958 556.889 790.717 554.324 790.345 551.225L789.724 546.044C789.658 545.495 789.673 544.939 789.768 544.395C790.362 540.991 793.904 538.793 797.406 539.338C799.533 539.67 802.001 539.92 804.597 539.92C807.072 539.92 809.43 539.692 811.488 539.384C815.151 538.836 818.855 541.133 819.473 544.692C819.575 545.277 819.588 545.875 819.512 546.464L818.895 551.249C818.497 554.333 816.244 556.872 813.222 557.532Z" fill="white" stroke="#B3B3B3"/>
<path d="M808.513 548.851C805.711 548.514 803.539 548.504 800.674 548.849C799.503 548.99 798.526 549.757 798.192 550.851C797.843 551.997 797.51 553.446 797.51 554.778V560.087C799.255 560.429 801.739 560.604 804.326 560.604C806.934 560.604 809.607 560.426 811.684 560.074V554.778C811.684 553.448 811.352 552.002 811.003 550.856C810.669 549.76 809.688 548.992 808.513 548.851Z" fill="white" stroke="#B3B3B3"/>
<rect x="788.116" y="524.742" width="6.22585" height="18.5155" rx="3.11293" fill="white" stroke="#B3B3B3"/>
<rect x="814.852" y="524.742" width="6.22587" height="18.5155" rx="3.11294" fill="white" stroke="#B3B3B3"/>
<rect x="827.136" y="521.128" width="27.1809" height="22.8522" rx="7.5" fill="white" stroke="#B3B3B3"/>
<path d="M849.352 557.532C845.774 558.315 843.208 558.702 840.675 558.707C838.142 558.712 835.616 558.335 832.117 557.56C829.088 556.889 826.847 554.324 826.475 551.225L825.854 546.044C825.788 545.495 825.803 544.939 825.898 544.395C826.492 540.991 830.034 538.793 833.536 539.338C835.663 539.67 838.13 539.92 840.727 539.92C843.202 539.92 845.56 539.692 847.618 539.384C851.281 538.836 854.984 541.133 855.603 544.692C855.705 545.277 855.718 545.875 855.642 546.464L855.025 551.249C854.627 554.333 852.374 556.872 849.352 557.532Z" fill="white" stroke="#B3B3B3"/>
<path d="M844.643 548.851C841.841 548.514 839.669 548.504 836.804 548.849C835.633 548.99 834.656 549.757 834.322 550.851C833.973 551.997 833.64 553.446 833.64 554.778V560.087C835.385 560.429 837.869 560.604 840.456 560.604C843.063 560.604 845.737 560.426 847.814 560.074V554.778C847.814 553.448 847.482 552.002 847.133 550.856C846.799 549.76 845.818 548.992 844.643 548.851Z" fill="white" stroke="#B3B3B3"/>
<rect x="824.246" y="524.742" width="6.22585" height="18.5155" rx="3.11293" fill="white" stroke="#B3B3B3"/>
<rect x="850.981" y="524.742" width="6.22586" height="18.5155" rx="3.11293" fill="white" stroke="#B3B3B3"/>
<rect x="791.006" y="666.388" width="27.1809" height="22.8523" rx="7.5" fill="white" stroke="#B3B3B3"/>
<path d="M813.222 702.792C809.644 703.574 807.078 703.962 804.545 703.967C802.012 703.972 799.486 703.594 795.987 702.819C792.958 702.149 790.717 699.584 790.345 696.485L789.724 691.304C789.658 690.755 789.673 690.199 789.768 689.654C790.362 686.25 793.904 684.053 797.406 684.598C799.533 684.929 802.001 685.18 804.597 685.18C807.072 685.18 809.43 684.952 811.488 684.644C815.151 684.095 818.855 686.392 819.473 689.952C819.575 690.537 819.588 691.135 819.512 691.724L818.895 696.509C818.497 699.593 816.244 702.131 813.222 702.792Z" fill="white" stroke="#B3B3B3"/>
<path d="M808.513 694.11C805.711 693.774 803.539 693.764 800.674 694.109C799.503 694.25 798.526 695.017 798.192 696.11C797.843 697.257 797.51 698.706 797.51 700.038V705.346C799.255 705.689 801.739 705.864 804.326 705.864C806.934 705.864 809.607 705.686 811.684 705.333V700.038C811.684 698.708 811.352 697.261 811.003 696.116C810.669 695.02 809.688 694.252 808.513 694.11Z" fill="white" stroke="#B3B3B3"/>
<rect x="788.116" y="670.002" width="6.22585" height="18.5155" rx="3.11293" fill="white" stroke="#B3B3B3"/>
<rect x="814.852" y="670.002" width="6.22587" height="18.5155" rx="3.11294" fill="white" stroke="#B3B3B3"/>
<rect x="827.136" y="666.388" width="27.1809" height="22.8523" rx="7.5" fill="white" stroke="#B3B3B3"/>
<path d="M849.352 702.792C845.774 703.574 843.208 703.962 840.675 703.967C838.142 703.972 835.616 703.594 832.117 702.819C829.088 702.149 826.847 699.584 826.475 696.485L825.854 691.304C825.788 690.755 825.803 690.199 825.898 689.654C826.492 686.25 830.034 684.053 833.536 684.598C835.663 684.929 838.13 685.18 840.727 685.18C843.202 685.18 845.56 684.952 847.618 684.644C851.281 684.095 854.984 686.392 855.603 689.952C855.705 690.537 855.718 691.135 855.642 691.724L855.025 696.509C854.627 699.593 852.374 702.131 849.352 702.792Z" fill="white" stroke="#B3B3B3"/>
<path d="M844.643 694.11C841.841 693.774 839.669 693.764 836.804 694.109C835.633 694.25 834.656 695.017 834.322 696.11C833.973 697.257 833.64 698.706 833.64 700.038V705.346C835.385 705.689 837.869 705.864 840.456 705.864C843.063 705.864 845.737 705.686 847.814 705.333V700.038C847.814 698.708 847.482 697.261 847.133 696.116C846.799 695.02 845.818 694.252 844.643 694.11Z" fill="white" stroke="#B3B3B3"/>
<rect x="824.246" y="670.002" width="6.22585" height="18.5155" rx="3.11293" fill="white" stroke="#B3B3B3"/>
<rect x="850.981" y="670.002" width="6.22586" height="18.5155" rx="3.11293" fill="white" stroke="#B3B3B3"/>
<rect x="791.006" y="714.815" width="27.1809" height="22.8522" rx="7.5" fill="white" stroke="#B3B3B3"/>
<path d="M813.222 751.22C809.644 752.002 807.078 752.389 804.545 752.394C802.012 752.399 799.486 752.022 795.987 751.247C792.958 750.576 790.717 748.011 790.345 744.913L789.724 739.732C789.658 739.183 789.673 738.627 789.768 738.082C790.362 734.678 793.904 732.481 797.406 733.026C799.533 733.357 802.001 733.608 804.597 733.608C807.072 733.608 809.43 733.38 811.488 733.072C815.151 732.523 818.855 734.82 819.473 738.379C819.575 738.965 819.588 739.562 819.512 740.152L818.895 744.936C818.497 748.021 816.244 750.559 813.222 751.22Z" fill="white" stroke="#B3B3B3"/>
<path d="M808.513 742.538C805.711 742.201 803.539 742.192 800.674 742.537C799.503 742.678 798.526 743.445 798.192 744.538C797.843 745.685 797.51 747.133 797.51 748.466V753.774C799.255 754.116 801.739 754.292 804.326 754.292C806.934 754.292 809.607 754.113 811.684 753.761V748.466C811.684 747.135 811.352 745.689 811.003 744.543C810.669 743.448 809.688 742.679 808.513 742.538Z" fill="white" stroke="#B3B3B3"/>
<rect x="788.116" y="718.43" width="6.22585" height="18.5155" rx="3.11293" fill="white" stroke="#B3B3B3"/>
<rect x="814.852" y="718.43" width="6.22587" height="18.5155" rx="3.11294" fill="white" stroke="#B3B3B3"/>
<rect x="827.136" y="714.815" width="27.1809" height="22.8522" rx="7.5" fill="white" stroke="#B3B3B3"/>
<path d="M849.352 751.22C845.774 752.002 843.208 752.389 840.675 752.394C838.142 752.399 835.616 752.022 832.117 751.247C829.088 750.576 826.847 748.011 826.475 744.913L825.854 739.732C825.788 739.183 825.803 738.627 825.898 738.082C826.492 734.678 830.034 732.481 833.536 733.026C835.663 733.357 838.13 733.608 840.727 733.608C843.202 733.608 845.56 733.38 847.618 733.072C851.281 732.523 854.984 734.82 855.603 738.379C855.705 738.965 855.718 739.562 855.642 740.152L855.025 744.936C854.627 748.021 852.374 750.559 849.352 751.22Z" fill="white" stroke="#B3B3B3"/>
<path d="M844.643 742.538C841.841 742.201 839.669 742.192 836.804 742.537C835.633 742.678 834.656 743.445 834.322 744.538C833.973 745.685 833.64 747.133 833.64 748.466V753.774C835.385 754.116 837.869 754.292 840.456 754.292C843.063 754.292 845.737 754.113 847.814 753.761V748.466C847.814 747.135 847.482 745.689 847.133 744.543C846.799 743.448 845.818 742.679 844.643 742.538Z" fill="white" stroke="#B3B3B3"/>
<rect x="824.246" y="718.43" width="6.22585" height="18.5155" rx="3.11293" fill="white" stroke="#B3B3B3"/>
<rect x="850.981" y="718.43" width="6.22586" height="18.5155" rx="3.11293" fill="white" stroke="#B3B3B3"/>
<g opacity="0.4">
<rect x="891.378" y="472.679" width="27.1808" height="22.8523" rx="7.5" fill="white" stroke="#636467"/>
<path d="M913.594 509.083C910.016 509.865 907.45 510.253 904.917 510.258C902.384 510.263 899.858 509.885 896.359 509.111C893.33 508.44 891.089 505.875 890.717 502.776L890.096 497.595C890.03 497.046 890.045 496.49 890.14 495.946C890.734 492.541 894.276 490.344 897.778 490.889C899.905 491.22 902.373 491.471 904.969 491.471C907.444 491.471 909.802 491.243 911.86 490.935C915.523 490.386 919.227 492.683 919.845 496.243C919.947 496.828 919.96 497.426 919.884 498.015L919.267 502.8C918.869 505.884 916.616 508.422 913.594 509.083Z" fill="white" stroke="#636467"/>
<path d="M908.885 500.401C906.083 500.065 903.911 500.055 901.046 500.4C899.875 500.541 898.898 501.308 898.565 502.401C898.215 503.548 897.882 504.997 897.882 506.329V511.637C899.627 511.98 902.112 512.155 904.698 512.155C907.306 512.155 909.98 511.977 912.056 511.625V506.329C912.056 504.999 911.724 503.552 911.375 502.407C911.041 501.311 910.06 500.543 908.885 500.401Z" fill="white" stroke="#636467"/>
<rect x="888.488" y="476.293" width="6.22583" height="18.5155" rx="3.11291" fill="white" stroke="#636467"/>
<rect x="915.224" y="476.293" width="6.22584" height="18.5155" rx="3.11292" fill="white" stroke="#636467"/>
</g>
<rect x="890.863" y="452.045" width="27.7955" height="18.2162" rx="8" fill="#D5D5D5"/>
<path d="M904.761 453.962L906.375 458.931L911.597 458.931L907.372 462.001L908.986 466.97L904.761 463.899L900.535 466.97L902.149 462.001L897.924 458.931L903.147 458.931L904.761 453.962Z" fill="white"/>
<g opacity="0.4">
<rect x="927.507" y="472.679" width="27.181" height="22.8523" rx="7.5" fill="white" stroke="#636467"/>
<path d="M949.723 509.083C946.145 509.865 943.579 510.253 941.046 510.258C938.513 510.263 935.987 509.885 932.488 509.111C929.459 508.44 927.218 505.875 926.846 502.776L926.225 497.595C926.159 497.046 926.174 496.49 926.269 495.946C926.863 492.541 930.405 490.344 933.907 490.889C936.034 491.22 938.502 491.471 941.098 491.471C943.573 491.471 945.931 491.243 947.989 490.935C951.653 490.386 955.356 492.683 955.974 496.243C956.076 496.828 956.089 497.426 956.013 498.015L955.396 502.8C954.998 505.884 952.745 508.422 949.723 509.083Z" fill="white" stroke="#636467"/>
<path d="M945.014 500.401C942.212 500.065 940.04 500.055 937.175 500.4C936.004 500.541 935.027 501.308 934.693 502.401C934.344 503.548 934.011 504.997 934.011 506.329V511.637C935.756 511.98 938.24 512.155 940.827 512.155C943.435 512.155 946.109 511.977 948.185 511.625V506.329C948.185 504.999 947.853 503.552 947.504 502.407C947.17 501.311 946.189 500.543 945.014 500.401Z" fill="white" stroke="#636467"/>
<rect x="924.617" y="476.293" width="6.22588" height="18.5155" rx="3.11294" fill="white" stroke="#636467"/>
<rect x="951.354" y="476.293" width="6.22589" height="18.5155" rx="3.11295" fill="white" stroke="#636467"/>
</g>
<rect x="926.992" y="452.045" width="27.7957" height="18.2162" rx="8" fill="#D5D5D5"/>
<path d="M940.89 453.962L942.504 458.931L947.726 458.931L943.501 462.001L945.115 466.97L940.89 463.899L936.664 466.97L938.278 462.001L934.053 458.931L939.276 458.931L940.89 453.962Z" fill="white"/>
<rect x="891.378" y="521.106" width="27.1808" height="22.8522" rx="7.5" fill="white" stroke="#B3B3B3"/>
<path d="M913.594 557.511C910.016 558.293 907.45 558.68 904.917 558.685C902.384 558.69 899.858 558.313 896.359 557.538C893.33 556.867 891.089 554.302 890.717 551.204L890.096 546.023C890.03 545.474 890.045 544.918 890.14 544.373C890.734 540.969 894.276 538.772 897.778 539.317C899.905 539.648 902.373 539.899 904.969 539.899C907.444 539.899 909.802 539.671 911.86 539.363C915.523 538.814 919.226 541.111 919.845 544.67C919.947 545.256 919.96 545.853 919.884 546.443L919.267 551.227C918.869 554.312 916.616 556.85 913.594 557.511Z" fill="white" stroke="#B3B3B3"/>
<path d="M908.885 548.829C906.083 548.492 903.911 548.483 901.046 548.828C899.875 548.969 898.898 549.736 898.565 550.829C898.215 551.976 897.882 553.424 897.882 554.757V560.065C899.627 560.407 902.112 560.583 904.698 560.583C907.306 560.583 909.98 560.405 912.056 560.052V554.757C912.056 553.426 911.724 551.98 911.375 550.834C911.041 549.739 910.06 548.97 908.885 548.829Z" fill="white" stroke="#B3B3B3"/>
<rect x="888.488" y="524.721" width="6.22583" height="18.5155" rx="3.11291" fill="white" stroke="#B3B3B3"/>
<rect x="915.224" y="524.721" width="6.22584" height="18.5155" rx="3.11292" fill="white" stroke="#B3B3B3"/>
<rect x="927.507" y="521.106" width="27.181" height="22.8522" rx="7.5" fill="white" stroke="#B3B3B3"/>
<path d="M949.723 557.511C946.145 558.293 943.579 558.68 941.046 558.685C938.513 558.69 935.987 558.313 932.488 557.538C929.459 556.867 927.218 554.302 926.846 551.204L926.225 546.023C926.159 545.474 926.174 544.918 926.269 544.373C926.863 540.969 930.405 538.772 933.907 539.317C936.034 539.648 938.502 539.899 941.098 539.899C943.573 539.899 945.931 539.671 947.989 539.363C951.653 538.814 955.356 541.111 955.974 544.67C956.076 545.256 956.089 545.853 956.013 546.443L955.396 551.227C954.998 554.312 952.745 556.85 949.723 557.511Z" fill="white" stroke="#B3B3B3"/>
<path d="M945.014 548.829C942.212 548.492 940.04 548.483 937.175 548.828C936.004 548.969 935.027 549.736 934.693 550.829C934.344 551.976 934.011 553.424 934.011 554.757V560.065C935.756 560.407 938.24 560.583 940.827 560.583C943.435 560.583 946.109 560.405 948.185 560.052V554.757C948.185 553.426 947.853 551.98 947.504 550.834C947.17 549.739 946.189 548.97 945.014 548.829Z" fill="white" stroke="#B3B3B3"/>
<rect x="924.617" y="524.721" width="6.22588" height="18.5155" rx="3.11294" fill="white" stroke="#B3B3B3"/>
<rect x="951.354" y="524.721" width="6.22589" height="18.5155" rx="3.11295" fill="white" stroke="#B3B3B3"/>
<rect x="891.378" y="569.533" width="27.1808" height="22.8522" rx="7.5" fill="white" stroke="#B3B3B3"/>
<path d="M913.594 605.937C910.016 606.72 907.45 607.107 904.917 607.112C902.384 607.117 899.858 606.74 896.359 605.965C893.33 605.294 891.089 602.729 890.717 599.631L890.096 594.449C890.03 593.9 890.045 593.345 890.14 592.8C890.734 589.396 894.276 587.199 897.778 587.744C899.905 588.075 902.373 588.326 904.969 588.326C907.444 588.326 909.802 588.098 911.86 587.79C915.523 587.241 919.226 589.538 919.845 593.097C919.947 593.683 919.96 594.28 919.884 594.87L919.267 599.654C918.869 602.739 916.616 605.277 913.594 605.937Z" fill="white" stroke="#B3B3B3"/>
<path d="M908.885 597.256C906.083 596.919 903.911 596.909 901.046 597.254C899.875 597.395 898.898 598.162 898.565 599.256C898.215 600.402 897.882 601.851 897.882 603.183V608.492C899.627 608.834 902.112 609.01 904.698 609.01C907.306 609.01 909.98 608.831 912.056 608.479V603.183C912.056 601.853 911.724 600.407 911.375 599.261C911.041 598.165 910.06 597.397 908.885 597.256Z" fill="white" stroke="#B3B3B3"/>
<rect x="888.488" y="573.147" width="6.22583" height="18.5154" rx="3.11291" fill="white" stroke="#B3B3B3"/>
<rect x="915.224" y="573.147" width="6.22584" height="18.5154" rx="3.11292" fill="white" stroke="#B3B3B3"/>
<rect x="927.507" y="569.533" width="27.181" height="22.8522" rx="7.5" fill="white" stroke="#B3B3B3"/>
<path d="M949.723 605.937C946.145 606.72 943.579 607.107 941.046 607.112C938.513 607.117 935.987 606.74 932.488 605.965C929.459 605.294 927.218 602.729 926.846 599.631L926.225 594.449C926.159 593.9 926.174 593.345 926.269 592.8C926.863 589.396 930.405 587.199 933.907 587.744C936.034 588.075 938.502 588.326 941.098 588.326C943.573 588.326 945.931 588.098 947.989 587.79C951.653 587.241 955.356 589.538 955.974 593.097C956.076 593.683 956.089 594.28 956.013 594.87L955.396 599.654C954.998 602.739 952.745 605.277 949.723 605.937Z" fill="white" stroke="#B3B3B3"/>
<path d="M945.014 597.256C942.212 596.919 940.04 596.909 937.175 597.254C936.004 597.395 935.027 598.162 934.693 599.256C934.344 600.402 934.011 601.851 934.011 603.183V608.492C935.756 608.834 938.24 609.01 940.827 609.01C943.435 609.01 946.109 608.831 948.185 608.479V603.183C948.185 601.853 947.853 600.407 947.504 599.261C947.17 598.165 946.189 597.397 945.014 597.256Z" fill="white" stroke="#B3B3B3"/>
<rect x="924.617" y="573.147" width="6.22588" height="18.5154" rx="3.11294" fill="white" stroke="#B3B3B3"/>
<rect x="951.354" y="573.147" width="6.22589" height="18.5154" rx="3.11295" fill="white" stroke="#B3B3B3"/>
<rect x="891.378" y="617.961" width="27.1808" height="22.8523" rx="7.5" fill="white" stroke="#B3B3B3"/>
<path d="M913.594 654.365C910.016 655.148 907.45 655.535 904.917 655.54C902.384 655.545 899.858 655.168 896.359 654.393C893.33 653.722 891.089 651.157 890.717 648.058L890.096 642.877C890.03 642.328 890.045 641.772 890.14 641.228C890.734 637.824 894.276 635.626 897.778 636.171C899.905 636.503 902.373 636.753 904.969 636.753C907.444 636.753 909.802 636.525 911.86 636.217C915.523 635.669 919.226 637.966 919.845 641.525C919.947 642.11 919.96 642.708 919.884 643.297L919.267 648.082C918.869 651.166 916.616 653.705 913.594 654.365Z" fill="white" stroke="#B3B3B3"/>
<path d="M908.885 645.684C906.083 645.347 903.911 645.337 901.046 645.682C899.875 645.823 898.898 646.59 898.565 647.684C898.215 648.83 897.882 650.279 897.882 651.611V656.92C899.627 657.262 902.112 657.437 904.698 657.438C907.306 657.438 909.98 657.259 912.056 656.907V651.611C912.056 650.281 911.724 648.835 911.375 647.689C911.041 646.593 910.06 645.825 908.885 645.684Z" fill="white" stroke="#B3B3B3"/>
<rect x="888.488" y="621.575" width="6.22583" height="18.5155" rx="3.11291" fill="white" stroke="#B3B3B3"/>
<rect x="915.224" y="621.575" width="6.22584" height="18.5155" rx="3.11292" fill="white" stroke="#B3B3B3"/>
<rect x="927.507" y="617.961" width="27.181" height="22.8523" rx="7.5" fill="white" stroke="#B3B3B3"/>
<path d="M949.723 654.365C946.145 655.148 943.579 655.535 941.046 655.54C938.513 655.545 935.987 655.168 932.488 654.393C929.459 653.722 927.218 651.157 926.846 648.058L926.225 642.877C926.159 642.328 926.174 641.772 926.269 641.228C926.863 637.824 930.405 635.626 933.907 636.171C936.034 636.503 938.502 636.753 941.098 636.753C943.573 636.753 945.931 636.525 947.989 636.217C951.653 635.669 955.356 637.966 955.974 641.525C956.076 642.11 956.089 642.708 956.013 643.297L955.396 648.082C954.998 651.166 952.745 653.705 949.723 654.365Z" fill="white" stroke="#B3B3B3"/>
<path d="M945.014 645.684C942.212 645.347 940.04 645.337 937.175 645.682C936.004 645.823 935.027 646.59 934.693 647.684C934.344 648.83 934.011 650.279 934.011 651.611V656.92C935.756 657.262 938.24 657.437 940.827 657.438C943.435 657.438 946.109 657.259 948.185 656.907V651.611C948.185 650.281 947.853 648.835 947.504 647.689C947.17 646.593 946.189 645.825 945.014 645.684Z" fill="white" stroke="#B3B3B3"/>
<rect x="924.617" y="621.575" width="6.22588" height="18.5155" rx="3.11294" fill="white" stroke="#B3B3B3"/>
<rect x="951.354" y="621.575" width="6.22589" height="18.5155" rx="3.11295" fill="white" stroke="#B3B3B3"/>
<rect x="891.378" y="666.388" width="27.1808" height="22.8523" rx="7.5" fill="white" stroke="#B3B3B3"/>
<path d="M913.594 702.792C910.016 703.574 907.45 703.962 904.917 703.967C902.384 703.972 899.858 703.594 896.359 702.819C893.33 702.149 891.089 699.584 890.717 696.485L890.096 691.304C890.03 690.755 890.045 690.199 890.14 689.654C890.734 686.25 894.276 684.053 897.778 684.598C899.905 684.929 902.373 685.18 904.969 685.18C907.444 685.18 909.802 684.952 911.86 684.644C915.523 684.095 919.226 686.392 919.845 689.952C919.947 690.537 919.96 691.135 919.884 691.724L919.267 696.509C918.869 699.593 916.616 702.131 913.594 702.792Z" fill="white" stroke="#B3B3B3"/>
<path d="M908.885 694.11C906.083 693.774 903.911 693.764 901.046 694.109C899.875 694.25 898.898 695.017 898.565 696.11C898.215 697.257 897.882 698.706 897.882 700.038V705.346C899.627 705.689 902.112 705.864 904.698 705.864C907.306 705.864 909.98 705.686 912.056 705.333V700.038C912.056 698.708 911.724 697.261 911.375 696.116C911.041 695.02 910.06 694.252 908.885 694.11Z" fill="white" stroke="#B3B3B3"/>
<rect x="888.488" y="670.002" width="6.22583" height="18.5155" rx="3.11291" fill="white" stroke="#B3B3B3"/>
<rect x="915.224" y="670.002" width="6.22584" height="18.5155" rx="3.11292" fill="white" stroke="#B3B3B3"/>
<rect x="927.507" y="666.388" width="27.181" height="22.8523" rx="7.5" fill="white" stroke="#B3B3B3"/>
<path d="M949.723 702.792C946.145 703.574 943.579 703.962 941.046 703.967C938.513 703.972 935.987 703.594 932.488 702.819C929.459 702.149 927.218 699.584 926.846 696.485L926.225 691.304C926.159 690.755 926.174 690.199 926.269 689.654C926.863 686.25 930.405 684.053 933.907 684.598C936.034 684.929 938.502 685.18 941.098 685.18C943.573 685.18 945.931 684.952 947.989 684.644C951.653 684.095 955.356 686.392 955.974 689.952C956.076 690.537 956.089 691.135 956.013 691.724L955.396 696.509C954.998 699.593 952.745 702.131 949.723 702.792Z" fill="white" stroke="#B3B3B3"/>
<path d="M945.014 694.11C942.212 693.774 940.04 693.764 937.175 694.109C936.004 694.25 935.027 695.017 934.693 696.11C934.344 697.257 934.011 698.706 934.011 700.038V705.346C935.756 705.689 938.24 705.864 940.827 705.864C943.435 705.864 946.109 705.686 948.185 705.333V700.038C948.185 698.708 947.853 697.261 947.504 696.116C947.17 695.02 946.189 694.252 945.014 694.11Z" fill="white" stroke="#B3B3B3"/>
<rect x="924.617" y="670.002" width="6.22588" height="18.5155" rx="3.11294" fill="white" stroke="#B3B3B3"/>
<rect x="951.354" y="670.002" width="6.22589" height="18.5155" rx="3.11295" fill="white" stroke="#B3B3B3"/>
<rect x="891.378" y="714.815" width="27.1808" height="22.8523" rx="7.5" fill="white" stroke="#B3B3B3"/>
<path d="M913.594 751.22C910.016 752.002 907.45 752.389 904.917 752.394C902.384 752.399 899.858 752.022 896.359 751.247C893.33 750.576 891.089 748.011 890.717 744.913L890.096 739.732C890.03 739.183 890.045 738.627 890.14 738.082C890.734 734.678 894.276 732.481 897.778 733.026C899.905 733.357 902.373 733.608 904.969 733.608C907.444 733.608 909.802 733.38 911.86 733.072C915.523 732.523 919.226 734.82 919.845 738.379C919.947 738.965 919.96 739.562 919.884 740.152L919.267 744.937C918.869 748.021 916.616 750.559 913.594 751.22Z" fill="white" stroke="#B3B3B3"/>
<path d="M908.885 742.538C906.083 742.201 903.911 742.192 901.046 742.537C899.875 742.678 898.898 743.445 898.565 744.538C898.215 745.685 897.882 747.133 897.882 748.466V753.774C899.627 754.116 902.112 754.292 904.698 754.292C907.306 754.292 909.98 754.113 912.056 753.761V748.466C912.056 747.135 911.724 745.689 911.375 744.543C911.041 743.447 910.06 742.679 908.885 742.538Z" fill="white" stroke="#B3B3B3"/>
<rect x="888.488" y="718.43" width="6.22583" height="18.5155" rx="3.11291" fill="white" stroke="#B3B3B3"/>
<rect x="915.224" y="718.43" width="6.22584" height="18.5155" rx="3.11292" fill="white" stroke="#B3B3B3"/>
<rect x="927.507" y="714.815" width="27.181" height="22.8523" rx="7.5" fill="white" stroke="#B3B3B3"/>
<path d="M949.723 751.22C946.145 752.002 943.579 752.389 941.046 752.394C938.513 752.399 935.987 752.022 932.488 751.247C929.459 750.576 927.218 748.011 926.846 744.913L926.225 739.732C926.159 739.183 926.174 738.627 926.269 738.082C926.863 734.678 930.405 732.481 933.907 733.026C936.034 733.357 938.502 733.608 941.098 733.608C943.573 733.608 945.931 733.38 947.989 733.072C951.653 732.523 955.356 734.82 955.974 738.379C956.076 738.965 956.089 739.562 956.013 740.152L955.396 744.937C954.998 748.021 952.745 750.559 949.723 751.22Z" fill="white" stroke="#B3B3B3"/>
<path d="M945.014 742.538C942.212 742.201 940.04 742.192 937.175 742.537C936.004 742.678 935.027 743.445 934.693 744.538C934.344 745.685 934.011 747.133 934.011 748.466V753.774C935.756 754.116 938.24 754.292 940.827 754.292C943.435 754.292 946.109 754.113 948.185 753.761V748.466C948.185 747.135 947.853 745.689 947.504 744.543C947.17 743.447 946.189 742.679 945.014 742.538Z" fill="white" stroke="#B3B3B3"/>
<rect x="924.617" y="718.43" width="6.22588" height="18.5155" rx="3.11294" fill="white" stroke="#B3B3B3"/>
<rect x="951.354" y="718.43" width="6.22589" height="18.5155" rx="3.11295" fill="white" stroke="#B3B3B3"/>
<rect x="771.469" y="757.409" width="10.5432" height="38.3499" fill="#DFDFDF"/>
<rect x="963.421" y="757.409" width="10.5432" height="38.3499" fill="#DFDFDF"/>
<path opacity="0.54" fill-rule="evenodd" clip-rule="evenodd" d="M952.878 768.915L951.536 770.257L956.903 775.626H945.21V777.544H956.903L951.536 782.913L952.878 784.255L960.546 776.585L952.878 768.915Z" fill="#DFDFDF"/>
<path opacity="0.54" fill-rule="evenodd" clip-rule="evenodd" d="M792.556 768.913L793.898 770.255L788.53 775.624H800.224V777.542H788.53L793.898 782.911L792.556 784.253L784.888 776.583L792.556 768.913Z" fill="#DFDFDF"/>
</g>
<defs>
<clipPath id="clip0">
<rect width="1220" height="1012" fill="white"/>
</clipPath>
</defs>
</svg>
