<svg width="20" height="20" viewBox="0 0 20 20" fill="none" xmlns="http://www.w3.org/2000/svg">
<path d="M9.87022 4.79013C10.0475 4.79013 10.225 4.79013 10.4023 4.79013C10.7507 4.79013 11.0028 4.99147 11.1008 5.32429C11.1418 5.46301 11.1315 5.59489 11.1082 5.72878C11.0785 5.90042 11.0988 6.07466 11.0711 6.24629C11.0167 6.58474 11.0357 6.93001 10.9747 7.26866C10.9483 7.4156 10.9733 7.56776 10.9491 7.71751C10.8936 8.06258 10.9082 8.41387 10.8513 8.75975C10.8265 8.9101 10.8505 9.06588 10.8255 9.21864C10.77 9.55709 10.7868 9.90216 10.7284 10.241C10.7043 10.3815 10.7254 10.5267 10.7037 10.6698C10.6504 11.0217 10.6646 11.38 10.6036 11.7317C10.5837 11.8463 10.6107 11.9642 10.5816 12.0804C10.4928 12.4355 10.2352 12.6515 9.86777 12.6661C9.57583 12.6778 9.28307 12.5033 9.16822 12.1972C9.12461 12.081 9.11888 11.966 9.10946 11.8465C9.08223 11.4988 9.04497 11.1518 9.01426 10.8043C9.00198 10.665 8.99256 10.5253 8.9897 10.3855C8.98601 10.2053 8.94855 10.029 8.93299 9.85016C8.9203 9.70403 8.92521 9.55789 8.91026 9.41115C8.86461 8.95788 8.83963 8.5022 8.79664 8.04913C8.75877 7.64886 8.73236 7.24738 8.68937 6.8473C8.66685 6.63673 8.65927 6.42214 8.63655 6.21096C8.61525 6.01263 8.61996 5.8135 8.58762 5.61456C8.5221 5.21108 8.84189 4.77688 9.29679 4.78932C9.48821 4.79454 9.67921 4.79013 9.87022 4.79013Z" fill="#FF2A00"/>
<path d="M10.9475 14.5518C10.9241 15.158 10.4588 15.6366 9.83909 15.6384C9.2157 15.6402 8.72538 15.1608 8.72764 14.5488C8.72989 13.9421 9.21406 13.4662 9.83663 13.4668C10.4572 13.4672 10.9235 13.9438 10.9475 14.5518Z" fill="#FF2A00"/>
<path d="M2.7353 15.3137L3.31994 15.4486L3.38174 15.1808L3.2193 14.9591L2.7353 15.3137ZM2 18.5L1.41537 18.3651L1.16869 19.434L2.2018 19.065L2 18.5ZM4.94584 17.4479L5.2832 16.9517L5.03112 16.7803L4.74404 16.8829L4.94584 17.4479ZM18.4 10C18.4 14.6392 14.6392 18.4 10 18.4V19.6C15.3019 19.6 19.6 15.3019 19.6 10H18.4ZM10 1.6C14.6392 1.6 18.4 5.36081 18.4 10H19.6C19.6 4.69807 15.3019 0.4 10 0.4V1.6ZM1.6 10C1.6 5.36081 5.36081 1.6 10 1.6V0.4C4.69807 0.4 0.4 4.69807 0.4 10H1.6ZM3.2193 14.9591C2.20107 13.5693 1.6 11.8557 1.6 10H0.4C0.4 12.1193 1.08743 14.0798 2.25131 15.6683L3.2193 14.9591ZM2.58463 18.6349L3.31994 15.4486L2.15067 15.1788L1.41537 18.3651L2.58463 18.6349ZM4.74404 16.8829L1.7982 17.935L2.2018 19.065L5.14764 18.013L4.74404 16.8829ZM10 18.4C8.25051 18.4 6.6276 17.8658 5.2832 16.9517L4.60848 17.9441C6.14558 18.9892 8.00236 19.6 10 19.6V18.4Z" fill="#FF2A00"/>
</svg>
