<svg width="19" height="18" viewBox="0 0 19 18" fill="none" xmlns="http://www.w3.org/2000/svg">
<path fill-rule="evenodd" clip-rule="evenodd" d="M6.17483 8.0564L13.9383 0.292893C14.3289 -0.0976316 14.962 -0.0976306 15.3525 0.292894L18.181 3.12132C18.5715 3.51185 18.5715 4.14501 18.181 4.53553L10.4175 12.299L10.4058 12.3107L10.4028 12.3137C10.1616 12.555 9.82772 12.6472 9.51569 12.5904L5.56619 13.5078L4.78441 13.6895L4.96602 12.9077L5.8835 8.95817C5.8267 8.64614 5.91891 8.31231 6.16016 8.07107L6.16319 8.06803L6.17483 8.0564ZM9.806 11.4963L9.62697 11.5379L6.93598 8.84689L6.97757 8.66786L13.2428 2.40268L16.0712 5.23111L9.806 11.4963ZM16.7783 4.524L13.9499 1.69557L14.6454 1L17.4739 3.82843L16.7783 4.524ZM8.47935 11.8045L6.12169 12.3522L6.66939 9.99451L8.47935 11.8045ZM2 0.585837H9V1.58584H2C1.44772 1.58584 1 2.03355 1 2.58584V15.5858C1 16.1381 1.44772 16.5858 2 16.5858H15C15.5523 16.5858 16 16.1381 16 15.5858V9.58584H17V15.5858C17 16.6904 16.1046 17.5858 15 17.5858H2C0.89543 17.5858 0 16.6904 0 15.5858V2.58584C0 1.48127 0.895431 0.585837 2 0.585837Z" fill="#FF2A00"/>
</svg>
