<svg width="44" height="41" viewBox="0 0 44 41" fill="none" xmlns="http://www.w3.org/2000/svg">
<path fill-rule="evenodd" clip-rule="evenodd" d="M14.8937 6.06126C10.2369 4.62334 7.40801 5.64362 6.69885 5.96183C6.6541 5.98191 6.60839 6.00285 6.56214 6.02404C6.47936 6.06197 6.39487 6.10068 6.31113 6.13662C3.95134 7.14949 2.54093 9.01913 1.68553 11.3424C0.828682 13.6697 0.532081 16.4438 0.398854 19.2482C0.222846 22.953 0.250543 27.1464 0.291202 29.6178C0.311596 30.8574 1.1086 31.9449 2.28063 32.3546L25.4047 40.4393C25.9874 40.6431 26.6188 40.6621 27.2127 40.4937L36.0252 37.9957C37.303 37.6335 38.1906 36.4745 38.2085 35.1464L38.2155 34.6272L38.4763 34.6308L38.4693 35.1499C38.4499 36.5933 37.4852 37.8529 36.0964 38.2466L27.2839 40.7447C26.6383 40.9277 25.952 40.907 25.3186 40.6856L2.19455 32.6009C0.921045 32.1556 0.0526194 30.9728 0.0303977 29.6221C-0.0102863 27.1491 -0.0381026 22.9491 0.138309 19.2358C0.271762 16.4267 0.56939 13.619 1.44076 11.2523C2.31358 8.8817 3.76538 6.94545 6.20825 5.89693C6.2896 5.86201 6.3684 5.8259 6.44883 5.78903C6.49574 5.76753 6.54321 5.74578 6.59206 5.72385C7.35132 5.38316 10.2456 4.35304 14.9706 5.81203C20.4631 7.50801 28.5267 10.3067 33.6508 12.7137L33.6547 12.7155C35.3594 13.5162 36.6692 14.1315 37.5203 15.4258C38.3713 16.72 38.7516 18.6715 38.6817 22.1113C38.6054 25.8709 38.5399 30.1194 38.4963 33.1962L38.2355 33.1925C38.2791 30.1155 38.3446 25.8664 38.4209 22.106C38.4906 18.6747 38.1071 16.7929 37.3023 15.5691C36.4982 14.3462 35.2617 13.7585 33.5399 12.9497C28.4325 10.5506 20.3828 7.75619 14.8937 6.06126Z" fill="white"/>
<path fill-rule="evenodd" clip-rule="evenodd" d="M40.5043 36.2916C39.647 36.2258 38.7014 36.0616 38.1309 35.9299L38.1895 35.6758C38.7493 35.805 39.6818 35.9668 40.5242 36.0315C40.9459 36.0638 41.3399 36.0714 41.6513 36.0399C41.8071 36.0242 41.9377 35.9991 42.0389 35.9647C42.142 35.9296 42.2018 35.8892 42.2318 35.8518L42.4355 36.0148C42.3611 36.1078 42.2475 36.1692 42.1228 36.2116C41.9961 36.2547 41.8442 36.2826 41.6775 36.2994C41.3439 36.3332 40.9325 36.3244 40.5043 36.2916Z" fill="white"/>
<path fill-rule="evenodd" clip-rule="evenodd" d="M7.05876 5.58194C8.10216 5.29935 9.20672 5.33964 10.2268 5.6975L33.7201 13.9396C34.8177 14.3246 35.5523 15.3608 35.5523 16.5239V22.4347H35.2914V16.5239C35.2914 15.4716 34.6268 14.5341 33.6338 14.1857L10.1404 5.94363C9.17013 5.60323 8.11945 5.5649 7.12695 5.83371L6.76361 5.93211L6.69542 5.68034L7.05876 5.58194ZM4.9153 6.62673C6.00992 6.28096 7.18675 6.29662 8.27178 6.67141L30.8384 14.4664C31.9424 14.8477 32.6831 15.8871 32.6831 17.0551V21.6854C32.6831 21.9518 32.726 22.2164 32.8102 22.469L32.9372 22.85L32.6897 22.9325L32.5628 22.5515C32.4697 22.2722 32.4222 21.9798 32.4222 21.6854V17.0551C32.4222 15.9984 31.7521 15.0579 30.7533 14.7129L8.18662 6.91796C7.15452 6.56145 6.03509 6.54655 4.99387 6.87546L4.68208 6.97395L4.60352 6.72522L4.9153 6.62673Z" fill="white"/>
<path fill-rule="evenodd" clip-rule="evenodd" d="M5.98556 6.06458C7.06478 5.74498 8.21733 5.77408 9.27904 6.14773L32.1575 14.1994C33.2537 14.5852 33.9871 15.6208 33.9871 16.7829V21.587H33.7262V16.7829C33.7262 15.7314 33.0627 14.7945 32.0709 14.4454L9.19245 6.39378C8.18253 6.03835 7.0862 6.01067 6.05962 6.31469L5.59262 6.45299L5.51855 6.20288L5.98556 6.06458Z" fill="white"/>
<path fill-rule="evenodd" clip-rule="evenodd" d="M11.0982 4.52339C9.0541 6.73885 7.51113 10.1027 7.51113 14.2835C7.51113 14.5717 7.27757 14.8052 6.98945 14.8052C6.70134 14.8052 6.46777 14.5717 6.46777 14.2835C6.46777 9.84046 8.1095 6.22402 10.3314 3.81588C12.5349 1.42756 15.3773 0.167048 17.7791 0.612958L17.7939 0.615701L17.8085 0.619289C19.0722 0.930099 19.9088 1.67672 20.4234 2.75313C20.9224 3.79695 21.113 5.13668 21.1639 6.65647C21.2151 8.18337 21.126 9.95632 21.0261 11.8902L21.0196 12.0163C20.9211 13.9235 20.814 15.9977 20.814 18.1961C20.814 18.4842 20.5804 18.7178 20.2923 18.7178C20.0042 18.7178 19.7706 18.4842 19.7706 18.1961C19.7706 15.9704 19.8789 13.8731 19.9772 11.9707L19.9842 11.8364C20.0846 9.89065 20.1706 8.16514 20.1212 6.69143C20.0715 5.2106 19.8858 4.04756 19.4821 3.20313C19.096 2.39548 18.5076 1.86963 17.5739 1.63607C15.6526 1.28691 13.1553 2.29384 11.0982 4.52339Z" fill="white"/>
<path fill-rule="evenodd" clip-rule="evenodd" d="M17.1973 4.25601C17.4328 4.9209 17.6976 5.6688 17.9141 6.4494L16.9087 6.72829C16.7024 5.98441 16.4493 5.26936 16.2121 4.59943C16.1932 4.54605 16.1744 4.49296 16.1558 4.44017C15.9084 3.74036 15.675 3.06792 15.5704 2.50877C15.4733 1.98971 15.4397 1.33897 15.8891 0.905947C16.3288 0.482389 17.0221 0.472432 17.7794 0.613034L17.7942 0.615777L17.8088 0.619365C19.587 1.05669 22.1495 2.35628 24.5786 4.15832C27.0109 5.96271 29.3754 8.31925 30.7067 10.9155L29.7782 11.3916C28.5477 8.99157 26.3199 6.74918 23.957 4.99628C21.5981 3.24638 19.17 2.03238 17.5742 1.63615C16.848 1.50343 16.6476 1.62401 16.613 1.65732C16.588 1.6814 16.5017 1.81293 16.596 2.3169C16.6828 2.78078 16.8849 3.37214 17.1395 4.09247C17.1585 4.14639 17.1778 4.20091 17.1973 4.25601Z" fill="white"/>
<path fill-rule="evenodd" clip-rule="evenodd" d="M33.8561 20.935C34.0722 20.935 34.2474 21.1102 34.2474 21.3263V21.9784C34.2474 22.1944 34.0722 22.3696 33.8561 22.3696C33.64 22.3696 33.4648 22.1944 33.4648 21.9784V21.3263C33.4648 21.1102 33.64 20.935 33.8561 20.935Z" fill="white"/>
<path fill-rule="evenodd" clip-rule="evenodd" d="M17.6546 2.23214C16.5838 1.98385 15.5176 1.90525 14.804 2.01503C14.3768 2.08075 13.9773 1.78775 13.9116 1.3606C13.8458 0.933454 14.1388 0.53391 14.566 0.468195C15.5478 0.317141 16.8291 0.434168 18.0081 0.707556C19.1789 0.979043 20.3874 1.4366 21.1731 2.06519C21.5106 2.33516 21.5653 2.8276 21.2953 3.16507C21.0253 3.50254 20.5329 3.55725 20.1954 3.28728C19.677 2.87251 18.7335 2.48233 17.6546 2.23214Z" fill="white"/>
<path fill-rule="evenodd" clip-rule="evenodd" d="M37.6003 16.9337C37.0415 15.8023 36.1718 15.0136 34.8999 15.0116L34.9003 14.7507C36.3065 14.753 37.2496 15.6346 37.8342 16.8182C38.4175 17.9992 38.6562 19.5005 38.6562 20.8046H38.3954C38.3954 19.5258 38.1603 18.0675 37.6003 16.9337ZM28.2439 19.905C27.2718 21.894 26.6837 24.3268 26.6837 26.8039V38.7024C26.6837 39.7463 27.7697 40.4335 28.7149 39.9887L28.8259 40.2248C27.7084 40.7507 26.4229 39.9382 26.4229 38.7024V26.8039C26.4229 24.2875 27.0198 21.8154 28.0096 19.7905C28.9982 17.7679 30.3857 16.1779 31.9764 15.4463L32.0854 15.6833C30.5686 16.3809 29.2173 17.9137 28.2439 19.905Z" fill="white"/>
<path fill-rule="evenodd" clip-rule="evenodd" d="M35.2902 22.2393C35.6172 22.2393 35.9159 22.4802 36.0765 22.8192C36.2399 23.1642 36.2719 23.6272 36.0622 24.1165C35.9363 24.4102 35.8378 24.6765 35.7622 24.9019C35.5992 25.3881 35.5511 25.9055 35.5511 26.4308V26.6735H35.2902V26.4308C35.2902 25.8912 35.3394 25.3425 35.5149 24.819C35.5925 24.5875 35.6935 24.3146 35.8224 24.0138C36.004 23.5901 35.9708 23.2054 35.8408 22.9309C35.7079 22.6504 35.4849 22.5001 35.2902 22.5001H33.3339V22.2393H35.2902ZM32.6818 37.9392C32.6818 38.4466 32.4802 38.9278 32.1219 39.286L31.9375 39.1016C32.2473 38.7918 32.421 38.3766 32.421 37.9392V24.943L32.6818 24.9427V37.9392ZM35.2902 37.3679V32.9337H35.5511V37.3679C35.5511 37.8195 35.3385 38.2447 34.9772 38.5156L34.8207 38.307C35.1163 38.0853 35.2902 37.7374 35.2902 37.3679Z" fill="white"/>
<path fill-rule="evenodd" clip-rule="evenodd" d="M32.6852 25.196C32.9366 24.8017 33.2471 24.2636 33.4654 23.7609C33.6144 23.4179 33.7147 23.1039 33.7308 22.8677C33.7388 22.7499 33.7249 22.6638 33.6965 22.6054C33.6707 22.5525 33.63 22.5151 33.5598 22.495C33.4628 22.4673 33.384 22.466 33.3189 22.4815C33.2544 22.4968 33.1952 22.5307 33.1397 22.5861C33.0248 22.701 32.93 22.9048 32.8583 23.1992C32.7373 23.6969 32.6952 24.3961 32.6852 25.196ZM33.2585 22.2277C33.3753 22.1999 33.5003 22.2067 33.6315 22.2442C33.7716 22.2843 33.8723 22.3707 33.931 22.4914C33.9871 22.6066 34.0006 22.7439 33.991 22.8854C33.9718 23.1676 33.8565 23.5151 33.7047 23.8648C33.3993 24.5682 32.923 25.3311 32.6588 25.7053L32.4219 26.041V25.6301C32.4219 24.6536 32.4539 23.7582 32.6049 23.1376C32.68 22.8289 32.789 22.568 32.9553 22.4017C33.0404 22.3166 33.1412 22.2556 33.2585 22.2277Z" fill="white"/>
<path fill-rule="evenodd" clip-rule="evenodd" d="M35.1201 26.3918C35.2745 26.4025 35.4196 26.4126 35.5514 26.4126C35.9249 26.4126 36.1955 26.6012 36.3324 26.8359C36.4637 27.0609 36.4836 27.3603 36.2957 27.5481L36.1113 27.3637C36.1843 27.2907 36.2041 27.1337 36.1071 26.9674C36.0158 26.8108 35.8299 26.6734 35.5514 26.6734C35.4097 26.6734 35.2538 26.6626 35.0996 26.6519C35.0702 26.6498 35.0409 26.6478 35.0117 26.6458C34.8264 26.6334 34.6453 26.6239 34.4797 26.633C34.1414 26.6516 33.9267 26.7429 33.8492 26.9755C33.7958 27.1359 33.8254 27.224 33.8666 27.2858C33.8903 27.3213 33.9217 27.3535 33.9595 27.3875C33.9699 27.3969 33.9825 27.4078 33.9959 27.4194C34.0236 27.4434 34.0549 27.4705 34.0786 27.4941L33.8941 27.6786C33.8763 27.6607 33.8586 27.6455 33.8369 27.6268C33.8219 27.614 33.8051 27.5995 33.785 27.5814C33.7412 27.542 33.6911 27.4928 33.6496 27.4305C33.5604 27.2966 33.5248 27.1238 33.6018 26.893C33.7339 26.4966 34.1061 26.3923 34.4653 26.3725C34.6485 26.3625 34.8438 26.3731 35.0292 26.3856C35.0598 26.3876 35.0902 26.3897 35.1201 26.3918Z" fill="white"/>
<path fill-rule="evenodd" clip-rule="evenodd" d="M33.3103 23.367C33.2147 23.5036 33.1422 23.7655 33.318 24.2343C33.4858 24.6818 33.8226 24.9947 34.214 25.1832C34.6091 25.3734 35.0439 25.4286 35.3785 25.3729C35.6249 25.3318 35.8011 25.1245 35.8863 24.7981C35.9719 24.4698 35.9363 24.1131 35.8402 23.9209L36.3068 23.6876C36.4715 24.0171 36.501 24.5082 36.3911 24.9298C36.2806 25.3533 36.0004 25.7981 35.4643 25.8874C35.0163 25.9621 34.4729 25.8869 33.9877 25.6532C33.4988 25.4178 33.053 25.0134 32.8296 24.4175C32.6141 23.843 32.6591 23.3876 32.8829 23.0678C33.0993 22.7588 33.4466 22.6305 33.7259 22.6305V23.1522C33.5879 23.1522 33.4135 23.2195 33.3103 23.367Z" fill="white"/>
<path fill-rule="evenodd" clip-rule="evenodd" d="M34.4979 27.0648C34.2837 27.0648 34.1123 27.2346 34.1134 27.4435C34.1143 27.6148 34.1177 27.7934 34.1243 27.9777H36.1658C36.1502 27.7987 36.1339 27.6131 36.1168 27.4204C36.099 27.2191 35.9302 27.0648 35.7277 27.0648H34.4979ZM36.1886 28.2386H34.1358C34.1831 29.1425 34.3144 30.1585 34.6222 31.1012C35.0243 32.333 35.7222 33.4243 36.9122 33.9897C38.2463 34.6234 39.5053 34.5218 40.6284 34.4311C40.6489 34.4294 40.6693 34.4278 40.6897 34.4261C40.4007 34.2621 40.066 34.1078 39.6813 33.9693C38.9286 33.6984 38.3523 33.4862 37.9112 33.2488C37.4656 33.009 37.1495 32.7393 36.9208 32.3497C36.6947 31.9645 36.5602 31.4723 36.4564 30.8001C36.3562 30.1512 36.2829 29.321 36.1886 28.2386ZM41.1333 34.393C40.7624 34.1462 40.3101 33.9185 39.7697 33.7239C39.0118 33.4511 38.4554 33.2454 38.0348 33.0191C37.6187 32.7952 37.3439 32.5553 37.1457 32.2176C36.945 31.8756 36.8165 31.4227 36.7142 30.7603C36.6131 30.1057 36.5394 29.2603 36.4413 28.1346L36.438 28.0968C36.4187 27.8746 36.3983 27.6416 36.3767 27.3974C36.3468 27.0611 36.065 26.804 35.7277 26.804H34.4979C34.1444 26.804 33.8506 27.0862 33.8525 27.445C33.8584 28.5248 33.9598 29.9129 34.3742 31.1822C34.7886 32.4516 35.5215 33.6178 36.8003 34.2253C38.1995 34.89 39.5232 34.7825 40.6411 34.6918C40.7148 34.6858 40.7875 34.6799 40.8593 34.6743C40.9277 34.669 40.995 34.6639 41.0615 34.6593C41.7347 35.1265 42.0834 35.6453 42.1907 36.0941C42.273 36.4381 42.2149 36.7408 42.0582 36.9626C41.9676 37.0909 41.8406 37.1969 41.6801 37.2691C41.3765 37.3263 41.1061 37.3629 40.9254 37.3873C40.9123 37.3891 40.8998 37.3908 40.8877 37.3924C39.6893 37.4425 38.1844 37.3162 37.5236 37.2384L37.4931 37.4975C38.161 37.5761 39.6854 37.7044 40.9048 37.6528C41.0411 37.647 41.1738 37.639 41.3014 37.6283C41.4672 37.6145 41.62 37.5775 41.757 37.52C42.1612 37.4424 42.6241 37.328 43.0206 37.1574C43.3895 36.9986 43.7263 36.7809 43.8925 36.4756C44.0668 36.1554 44.0364 35.774 43.7466 35.3393C43.4007 34.8204 42.966 34.5625 42.4661 34.4497C42.0581 34.3576 41.6076 34.3627 41.1333 34.393ZM41.4674 34.6377C42.0203 35.0842 42.3346 35.5741 42.4444 36.0334C42.5415 36.4393 42.4774 36.8213 42.2713 37.1131C42.2645 37.1227 42.2575 37.1323 42.2504 37.1417C42.4799 37.0811 42.709 37.0075 42.9175 36.9178C43.2711 36.7656 43.5401 36.5773 43.6634 36.3509C43.7786 36.1393 43.7823 35.8631 43.5296 35.484C43.2234 35.0247 42.848 34.8033 42.4086 34.7042C42.1228 34.6396 41.8093 34.6267 41.4674 34.6377Z" fill="white"/>
<path fill-rule="evenodd" clip-rule="evenodd" d="M35.0648 25.1523C34.8782 25.1896 34.6621 25.3234 34.5622 25.4233L34.1934 25.0544C34.3544 24.8934 34.6599 24.7012 34.9624 24.6407C35.1161 24.61 35.3029 24.6066 35.4723 24.6968C35.6527 24.7927 35.7632 24.9671 35.8074 25.1877C35.8952 25.6271 35.706 25.9019 35.5669 26.0933C35.4241 26.2896 35.3819 26.354 35.4134 26.4798L34.9073 26.6063C34.8144 26.2348 35.0012 25.9814 35.1221 25.8176C35.1301 25.8068 35.1377 25.7964 35.145 25.7864C35.2667 25.6191 35.3383 25.5027 35.2958 25.29C35.2747 25.1845 35.2385 25.1633 35.2273 25.1573C35.2052 25.1456 35.1556 25.1341 35.0648 25.1523Z" fill="white"/>
</svg>
