<svg width="37" height="65" viewBox="0 0 37 65" fill="none" xmlns="http://www.w3.org/2000/svg">
<path d="M25.5706 17.664C26.1794 17.8162 26.9404 17.2073 27.7015 16.2941L24.9617 15.5331C24.5051 15.8882 23.3484 16.3854 23.5919 16.7507C23.8963 17.2073 24.9617 17.5118 25.5706 17.664Z" fill="white"/>
<path d="M16.928 15.0764C17.5368 15.2286 18.2978 14.6198 19.0589 13.7066L16.3192 12.9456C15.8626 13.3007 14.7058 13.7979 14.9493 14.1632C15.2537 14.6198 16.3192 14.9242 16.928 15.0764Z" fill="white"/>
<path d="M34.2457 59.6728C33.9413 60.1294 33.7891 60.2816 33.3325 61.0427C32.7744 60.789 31.6582 60.2816 31.6582 60.1294C31.6582 59.825 32.1148 59.5206 32.1148 59.5206C32.4085 59.638 34.104 58.7065 34.5501 58.6074C34.4994 58.861 34.5501 59.2162 34.2457 59.6728Z" fill="white"/>
<path d="M33.4851 60.9513C33.4851 61.7919 32.9399 62.4734 32.2675 62.4734C31.595 62.4734 31.0498 61.7919 31.0498 60.9513C31.0498 60.1107 31.595 59.4293 32.2675 59.4293C32.9399 59.4293 33.4851 60.1107 33.4851 60.9513Z" fill="white"/>
<path d="M33.9412 61.0427C33.9412 61.8833 33.396 62.5647 32.7235 62.5647C32.051 62.5647 31.5059 61.8833 31.5059 61.0427C31.5059 60.2021 32.051 59.5206 32.7235 59.5206C33.396 59.5206 33.9412 60.2021 33.9412 61.0427Z" fill="white"/>
<path d="M33.4842 61.0427C33.4842 61.5471 33.2117 61.9559 32.8754 61.9559C32.5392 61.9559 32.2666 61.5471 32.2666 61.0427C32.2666 60.5383 32.5392 60.1295 32.8754 60.1295C33.2117 60.1295 33.4842 60.5383 33.4842 61.0427Z" fill="white"/>
<path d="M26.7875 62.4125C26.3308 62.7169 26.0264 62.7169 25.5698 63.4779C25.0117 63.2242 23.9564 62.6255 24.2 62.2602C24.4435 61.895 24.5044 61.4992 24.3522 61.347C24.6058 61.4485 25.2045 61.3775 25.5698 61.4992C25.9351 61.621 26.9397 61.1441 27.3963 61.0426C27.3455 61.2963 27.1527 62.1689 26.7875 62.4125Z" fill="white"/>
<ellipse cx="24.5048" cy="63.3866" rx="1.21765" ry="1.52206" fill="white"/>
<ellipse cx="24.9618" cy="63.4779" rx="1.21765" ry="1.52206" fill="white"/>
<path d="M25.5702 63.4779C25.5702 63.9822 25.2976 64.3911 24.9614 64.3911C24.6251 64.3911 24.3525 63.9822 24.3525 63.4779C24.3525 62.9735 24.6251 62.5646 24.9614 62.5646C25.2976 62.5646 25.5702 62.9735 25.5702 63.4779Z" fill="white"/>
<mask id="mask0" mask-type="alpha" maskUnits="userSpaceOnUse" x="2" y="54" width="6" height="6">
<path d="M2.43457 54.65L7.00075 55.8676V59.825L2.43457 58.6073V54.65Z" fill="#C4C4C4"/>
</mask>
<g mask="url(#mask0)">
<path d="M6.69566 56.0198C6.23904 56.3242 5.93463 56.3242 5.47801 57.0853C4.91992 56.8316 3.86463 56.2329 4.10816 55.8676C4.35169 55.5023 4.41257 55.1066 4.26036 54.9544C4.51404 55.0558 5.11272 54.9848 5.47801 55.1066C5.8433 55.2283 6.84786 54.7514 7.30448 54.65C7.25375 54.9036 7.06095 55.7763 6.69566 56.0198Z" fill="white"/>
<ellipse cx="4.41296" cy="56.9939" rx="1.21765" ry="1.52206" fill="white"/>
<ellipse cx="4.86999" cy="57.0852" rx="1.21765" ry="1.52206" fill="white"/>
<path d="M5.47839 57.0852C5.47839 57.5896 5.20581 57.9985 4.86957 57.9985C4.53332 57.9985 4.26074 57.5896 4.26074 57.0852C4.26074 56.5809 4.53332 56.172 4.86957 56.172C5.20581 56.172 5.47839 56.5809 5.47839 57.0852Z" fill="white"/>
</g>
<path fill-rule="evenodd" clip-rule="evenodd" d="M10.7504 11.4723C11.2881 11.3294 11.8517 11.3497 12.3806 11.5084L33.7952 17.9328C35.1472 18.3384 36.0731 19.5828 36.0731 20.9943V56.0883C36.0731 57.4746 35.1795 58.7028 33.8606 59.1295L26.5874 61.4826C25.9266 61.6963 25.2142 61.6891 24.558 61.4619L21.5637 60.4255L21.6633 60.1378L24.6575 61.1743C25.2513 61.3798 25.8959 61.3864 26.4937 61.1929L33.7669 58.8398C34.9602 58.4538 35.7687 57.3425 35.7687 56.0883V20.9943C35.7687 19.7172 34.931 18.5914 33.7077 18.2244L12.2931 11.8C11.814 11.6563 11.308 11.6391 10.8286 11.7665C9.58839 12.096 7.08793 12.8323 4.94798 13.9082C4.26558 14.3705 3.71417 15.1213 3.31258 15.954C2.91003 16.7887 2.66435 17.6927 2.58698 18.4407L2.28418 18.4093C2.3653 17.6252 2.62104 16.6872 3.03839 15.8218C3.45517 14.9576 4.03945 14.1528 4.78587 13.6503L4.79385 13.6449L4.80243 13.6406C6.97294 12.548 9.50289 11.8038 10.7504 11.4723Z" fill="white"/>
<path d="M17.1304 5.33527C17.5125 5.33527 17.8223 5.64502 17.8223 6.02713L17.8223 13.6679C17.8223 14.05 17.5125 14.3598 17.1304 14.3598C16.7483 14.3598 16.4385 14.05 16.4385 13.6679L16.4385 6.02713C16.4385 5.64502 16.7483 5.33527 17.1304 5.33527Z" fill="white"/>
<path fill-rule="evenodd" clip-rule="evenodd" d="M17.5179 13.6679L17.5179 6.02713C17.5179 5.81315 17.3444 5.63968 17.1304 5.63968C16.9164 5.63968 16.743 5.81315 16.743 6.02713L16.743 13.6679C16.743 13.8819 16.9164 14.0553 17.1304 14.0553C17.3444 14.0553 17.5179 13.8819 17.5179 13.6679ZM17.8223 6.02713C17.8223 5.64502 17.5125 5.33527 17.1304 5.33527C16.7483 5.33527 16.4385 5.64502 16.4385 6.02713L16.4385 13.6679C16.4385 14.05 16.7483 14.3598 17.1304 14.3598C17.5125 14.3598 17.8223 14.05 17.8223 13.6679L17.8223 6.02713Z" fill="white"/>
<path d="M25.3492 7.77057C25.7313 7.77057 26.041 8.08033 26.041 8.46243L26.041 16.1032C26.041 16.4853 25.7313 16.7951 25.3492 16.7951C24.967 16.7951 24.6573 16.4853 24.6573 16.1032L24.6573 8.46243C24.6573 8.08033 24.967 7.77057 25.3492 7.77057Z" fill="white"/>
<path fill-rule="evenodd" clip-rule="evenodd" d="M25.7366 16.1032L25.7366 8.46243C25.7366 8.24845 25.5631 8.07498 25.3492 8.07498C25.1352 8.07498 24.9617 8.24845 24.9617 8.46243L24.9617 16.1032C24.9617 16.3172 25.1352 16.4907 25.3492 16.4907C25.5631 16.4907 25.7366 16.3172 25.7366 16.1032ZM26.041 8.46243C26.041 8.08033 25.7313 7.77057 25.3492 7.77057C24.967 7.77057 24.6573 8.08033 24.6573 8.46243L24.6573 16.1032C24.6573 16.4853 24.967 16.7951 25.3492 16.7951C25.7313 16.7951 26.041 16.4853 26.041 16.1032L26.041 8.46243Z" fill="white"/>
<path fill-rule="evenodd" clip-rule="evenodd" d="M16.4274 1.11965C16.1473 1.31964 15.981 1.64261 15.981 1.98677V5.89302C15.981 6.48145 16.458 6.95847 17.0465 6.95847C17.6349 6.95847 18.1119 6.48145 18.1119 5.89302V3.47909L24.3994 5.63788V8.62977C24.3994 9.21819 24.8764 9.69521 25.4648 9.69521C26.0533 9.69521 26.5303 9.21819 26.5303 8.62977V4.87721C26.5303 4.42213 26.2412 4.01729 25.8108 3.86951L17.3925 0.979077C17.0669 0.867311 16.7075 0.919671 16.4274 1.11965Z" fill="white"/>
<path fill-rule="evenodd" clip-rule="evenodd" d="M2.60262 17.9531C3.54832 17.0691 4.92061 16.8181 6.89 17.3651C9.63028 18.1263 16.8139 20.2421 19.5317 21.1729C20.5727 21.5295 21.9247 22.1463 23.0193 23.1033C24.1162 24.0624 24.9618 25.3705 24.9618 27.1007C24.9618 28.4139 24.8953 30.7935 24.8245 33.3261C24.8195 33.5051 24.8145 33.6849 24.8095 33.8651C24.7334 36.5973 24.6574 39.432 24.6574 41.2559C24.6574 43.0786 24.8094 47.2987 24.9617 51.2195C25.0023 52.2662 25.043 53.2919 25.0808 54.2446C25.1843 56.8558 25.2662 58.9194 25.2662 59.3684C25.2662 59.6951 25.1946 59.9711 25.0584 60.1944C24.9219 60.4182 24.726 60.5802 24.492 60.6865C24.0293 60.8968 23.4193 60.89 22.794 60.7337C21.7563 60.4743 17.6472 59.2274 13.3592 57.9262C12.5973 57.695 11.8298 57.4622 11.0729 57.2328C10.2179 57.049 8.61411 56.582 6.89343 56.081C5.73814 55.7446 4.53015 55.3929 3.46069 55.1012C1.69954 54.6209 0.843479 52.9064 0.422493 51.0885C-2.03217e-06 49.2641 -7.41942e-07 47.2715 1.97715e-09 46.131V46.1265C1.97715e-09 37.7583 0.323399 25.8858 0.915018 22.0547C1.18895 20.2809 1.6703 18.8246 2.60262 17.9531ZM2.81049 18.1755C1.95783 18.9725 1.48808 20.3384 1.21586 22.1012C0.628518 25.9046 0.304412 37.752 0.304412 46.1265C0.304412 47.2699 0.304978 49.2317 0.719056 51.0198C1.1352 52.8168 1.95341 54.3746 3.54079 54.8076C4.62648 55.1037 5.84286 55.4579 7.00077 55.7951C8.71337 56.2939 10.2981 56.7554 11.1429 56.9365L11.1491 56.9378L11.1552 56.9396C11.9146 57.1697 12.6842 57.4033 13.4477 57.635C17.7384 58.9369 21.8382 60.181 22.8678 60.4384C23.4601 60.5864 23.9916 60.5796 24.3661 60.4094C24.5507 60.3255 24.6972 60.2021 24.7985 60.0359C24.9002 59.8691 24.9618 59.6504 24.9618 59.3684C24.9618 58.9259 24.8805 56.8763 24.7772 54.2721C24.7393 53.3159 24.6984 52.2849 24.6575 51.2313C24.5053 47.3134 24.3529 43.0861 24.3529 41.2559C24.3529 39.4268 24.4291 36.5872 24.5052 33.8567C24.5102 33.6775 24.5152 33.4989 24.5202 33.3211C24.591 30.7853 24.6574 28.4095 24.6574 27.1007C24.6574 25.4824 23.8702 24.2517 22.8189 23.3325C21.7653 22.4113 20.4537 21.8105 19.433 21.4609C16.7241 20.5331 9.54767 18.4193 6.80853 17.6584C4.89631 17.1272 3.64976 17.391 2.81049 18.1755ZM35.2254 19.2798C35.7988 19.6651 36.0728 20.3786 36.0728 21.3169L35.7684 21.3169C35.7684 20.4287 35.5097 19.8376 35.0557 19.5325C34.5982 19.2251 33.8931 19.174 32.9227 19.4832C32.5572 19.5997 32.1969 19.706 31.846 19.8095L31.7665 19.8329C31.3899 19.944 31.0246 20.0526 30.6718 20.1689C29.9658 20.4015 29.3168 20.6629 28.7419 21.0298C27.6028 21.7568 26.7312 22.9129 26.3292 25.149C25.3807 30.4261 25.2659 38.4792 25.3897 45.4708C25.4515 48.9644 25.5728 52.1894 25.6786 54.665C25.7154 55.5261 25.7504 56.2976 25.7804 56.9585C25.8365 58.1942 25.875 59.0433 25.875 59.3684C25.875 59.855 25.922 60.209 26.0012 60.4621C26.0801 60.7139 26.1877 60.8565 26.3037 60.9362C26.4195 61.0159 26.5633 61.0464 26.7411 61.0358C26.9208 61.0251 27.1246 60.973 27.3489 60.8982L27.4452 61.187C27.2129 61.2645 26.9791 61.3266 26.7592 61.3396C26.5375 61.3528 26.3198 61.3167 26.1312 61.1871C25.9428 61.0576 25.8031 60.8481 25.7107 60.553C25.6187 60.2591 25.5706 59.8711 25.5706 59.3684C25.5706 59.0502 25.5327 58.215 25.4771 56.9899C25.447 56.3268 25.4117 55.5494 25.3745 54.678C25.2686 52.2011 25.1472 48.9733 25.0853 45.4761C24.9616 38.486 25.0751 30.4053 26.0296 25.0951C26.4438 22.7906 27.3554 21.5536 28.5782 20.7732C29.1842 20.3864 29.8608 20.1156 30.5765 19.8798C30.9345 19.7618 31.3041 19.652 31.6803 19.541L31.7593 19.5177C32.1108 19.414 32.468 19.3087 32.8303 19.1932C33.8385 18.8719 34.6555 18.8969 35.2254 19.2798Z" fill="white"/>
<path fill-rule="evenodd" clip-rule="evenodd" d="M32.5399 19.4719C33.2483 19.4145 33.9478 19.4134 34.4228 19.4925C34.6822 19.5358 34.8844 19.6461 35.0394 19.8124C35.1918 19.9758 35.2911 20.1853 35.3615 20.4164C35.4678 20.766 35.5162 21.1988 35.5667 21.6503C35.5818 21.7854 35.5971 21.9223 35.6142 22.0591L35.6154 22.0685V22.0779C35.6154 24.5863 35.7294 28.3508 35.8436 31.7188C35.8718 32.5508 35.9 33.3589 35.9265 34.1178C36.0072 36.4278 36.072 38.2828 36.072 38.9728H35.7676C35.7676 38.2886 35.7031 36.4433 35.6226 34.1366C35.596 33.3759 35.5677 32.5651 35.5394 31.7291C35.4254 28.3663 35.3113 24.6018 35.311 22.0874C35.2928 21.9412 35.2769 21.7992 35.2615 21.6622C35.2117 21.218 35.1677 20.8251 35.0702 20.5051C35.0074 20.2986 34.926 20.1371 34.8168 20.0199C34.7101 19.9055 34.5699 19.8256 34.3727 19.7928C33.9344 19.7197 33.2641 19.7186 32.5645 19.7753C31.8666 19.8319 31.1543 19.9449 30.6344 20.0934L30.5508 19.8007C31.0963 19.6448 31.83 19.5295 32.5399 19.4719Z" fill="white"/>
<path fill-rule="evenodd" clip-rule="evenodd" d="M2.6307 18.2319C3.57583 17.5107 4.93511 17.4309 6.88977 17.9739C9.63368 18.7361 16.2081 20.852 18.9226 21.7817C19.9636 22.1382 21.3157 22.7551 22.4102 23.7121C23.5071 24.6712 24.3527 25.9793 24.3527 27.7095C24.3527 28.1101 24.4063 29.5487 24.4692 31.2341C24.4757 31.4098 24.4824 31.5882 24.4891 31.7683C24.5599 33.6732 24.6361 35.773 24.6571 36.9914L24.3527 36.9967C24.3318 35.782 24.2557 33.6857 24.1849 31.7796C24.1781 31.597 24.1713 31.4161 24.1647 31.2379C24.1021 29.559 24.0483 28.1162 24.0483 27.7095C24.0483 26.0912 23.2611 24.8605 22.2098 23.9413C21.1562 23.02 19.8447 22.4193 18.824 22.0697C16.1118 21.1407 9.5438 19.027 6.8083 18.2672C4.88135 17.7319 3.64406 17.8416 2.81536 18.4739C1.97887 19.1123 1.5101 20.3172 1.21539 22.1027L0.915039 22.0531C1.21101 20.26 1.69336 18.9472 2.6307 18.2319Z" fill="white"/>
<path fill-rule="evenodd" clip-rule="evenodd" d="M6.02529 26.0812C5.35655 25.8623 4.69871 25.6409 4.05957 25.4179L4.15984 25.1305C4.94649 25.4049 5.76199 25.6772 6.59178 25.9452C9.62346 26.9245 12.8435 27.8463 15.5414 28.6073C15.9274 28.7162 16.3028 28.8218 16.6657 28.9239C18.8346 29.5341 20.5518 30.0172 21.3602 30.3059L21.2578 30.5925C20.4602 30.3077 18.756 29.8282 16.5839 29.2171C16.2212 29.1151 15.8455 29.0094 15.4587 28.9003C12.8083 28.1526 9.64972 27.2487 6.6596 26.2869L6.38899 27.5912L6.38825 27.5942C6.3447 27.7684 6.25484 27.9096 6.10466 27.9532C5.95637 27.9962 5.82062 27.9234 5.73342 27.8362C5.55833 27.6611 5.45794 27.3153 5.65732 27.0162C5.76654 26.8524 5.86281 26.6035 5.93973 26.3652C5.9727 26.263 6.00129 26.1655 6.02529 26.0812ZM6.31493 26.1756C6.29105 26.2592 6.26243 26.3564 6.22942 26.4587C6.1516 26.6998 6.04492 26.9836 5.91061 27.1851C5.80559 27.3426 5.8574 27.5296 5.94867 27.6209C5.96974 27.642 5.98858 27.6531 6.00178 27.658C6.01397 27.6625 6.01899 27.6611 6.01976 27.6608C6.02036 27.6607 6.02922 27.6582 6.04312 27.6397C6.05793 27.62 6.07669 27.5841 6.09221 27.5232L6.36823 26.1928C6.35045 26.1871 6.33269 26.1813 6.31493 26.1756Z" fill="white"/>
<path fill-rule="evenodd" clip-rule="evenodd" d="M6.49821 26.8438C5.66659 26.5752 4.84882 26.3021 4.05957 26.0268L4.15984 25.7394C4.94649 26.0138 5.76199 26.2861 6.59178 26.5541C9.62346 27.5334 12.8435 28.4552 15.5414 29.2162C15.9274 29.325 16.3028 29.4307 16.6657 29.5328C18.8346 30.143 20.5518 30.626 21.3602 30.9148L21.2578 31.2014C20.4602 30.9166 18.756 30.4371 16.5839 29.826C16.2212 29.724 15.8455 29.6182 15.4587 29.5092C12.7606 28.7481 9.53578 27.825 6.49821 26.8438Z" fill="white"/>
<path fill-rule="evenodd" clip-rule="evenodd" d="M6.44328 13.3983C6.96368 13.6186 7.87114 13.9335 8.76514 14.2258C9.85332 14.5815 10.894 14.8949 11.1457 14.9529C11.1497 14.9539 11.1535 14.9549 11.1574 14.9561C12.0182 15.2279 13.0563 15.5439 14.1879 15.8883C16.8496 16.6984 20.0281 17.6658 22.6304 18.5859C22.8775 18.6733 23.3484 18.7859 23.947 18.9133C24.5422 19.04 25.2534 19.1792 25.9753 19.3205L25.9989 19.3251C27.3934 19.5979 28.8339 19.8798 29.5234 20.0905C29.8942 19.9506 30.3433 19.8155 30.7425 19.6954C30.764 19.689 30.7852 19.6826 30.8063 19.6763C30.9879 19.6216 31.1572 19.5704 31.3039 19.523C30.8788 19.4286 30.2877 19.3123 29.6276 19.1825C29.1412 19.0868 28.6174 18.9837 28.095 18.8767C27.3233 18.7185 26.5582 18.5522 25.9325 18.3893C25.6198 18.3079 25.3398 18.2269 25.1103 18.1476C24.8841 18.0695 24.6951 17.9891 24.5724 17.906C24.5029 17.8588 24.4847 17.7642 24.5319 17.6946C24.579 17.625 24.6737 17.6068 24.7433 17.654C24.8306 17.7132 24.9872 17.783 25.2097 17.8598C25.4287 17.9355 25.7003 18.0143 26.0092 18.0947C26.6269 18.2555 27.3856 18.4206 28.1561 18.5785C28.6646 18.6827 29.1797 18.784 29.662 18.8789C30.6329 19.07 31.4707 19.2348 31.8533 19.3441C31.9123 19.361 31.9554 19.4116 31.9627 19.4725C31.9699 19.5333 31.9399 19.5927 31.8866 19.6229C31.7958 19.6743 31.6507 19.7286 31.4848 19.784C31.3153 19.8406 31.1109 19.9025 30.8941 19.9678L30.8345 19.9857C30.4135 20.1123 29.9518 20.2511 29.5833 20.3935C29.5509 20.406 29.5153 20.407 29.4823 20.3965C28.8328 20.1899 27.3657 19.9027 25.9168 19.6192C25.1957 19.4781 24.4818 19.3384 23.8836 19.2111C23.2888 19.0845 22.798 18.9681 22.5289 18.8729C19.9332 17.9551 16.7676 16.9917 14.1083 16.1823C12.9766 15.8379 11.9366 15.5214 11.0713 15.2482C10.7944 15.1832 9.74771 14.8673 8.67055 14.5151C7.58875 14.1615 6.44855 13.7625 6.0181 13.5371C5.96749 13.5106 5.93599 13.4579 5.93653 13.4008C5.93707 13.3437 5.96956 13.2916 6.02066 13.2661C6.17437 13.1892 6.64548 12.9601 7.1105 12.7498C7.34286 12.6448 7.57545 12.5437 7.76685 12.4686C7.86239 12.4311 7.94965 12.3993 8.02251 12.3767C8.08939 12.3559 8.16203 12.3368 8.21961 12.3368C8.24202 12.3368 8.26415 12.3417 8.28442 12.3513C8.47168 12.4394 9.41093 12.8204 10.352 13.1946C11.2949 13.5696 12.2172 13.9288 12.3735 13.9764C12.4539 14.0008 12.4993 14.0859 12.4748 14.1663C12.4503 14.2467 12.3653 14.2921 12.2849 14.2676C12.1128 14.2153 11.173 13.8487 10.2395 13.4775C9.35673 13.1264 8.45965 12.7632 8.19514 12.6451C8.19348 12.6455 8.19174 12.6458 8.18989 12.6462C8.16998 12.6506 8.14435 12.6576 8.1129 12.6673C8.05 12.6869 7.97039 12.7157 7.87805 12.752C7.69369 12.8243 7.46649 12.923 7.23589 13.0272C6.94799 13.1574 6.6575 13.295 6.44328 13.3983Z" fill="white"/>
<path fill-rule="evenodd" clip-rule="evenodd" d="M23.9583 18.4183C23.5997 18.6586 23.1502 18.8816 22.6787 18.8816V18.5772C23.0596 18.5772 23.4472 18.3943 23.7888 18.1654C24.0508 17.9898 24.2699 17.7986 24.4306 17.6584C24.4792 17.616 24.5225 17.5783 24.5599 17.5471L24.7548 17.7809C24.7236 17.8069 24.6851 17.8405 24.6403 17.8796C24.48 18.0196 24.2387 18.2303 23.9583 18.4183Z" fill="white"/>
<path d="M17.5041 13.8588C14.9166 13.0978 12.3291 14.011 11.2637 14.9243C11.771 14.7213 13.203 14.2079 15.8298 14.9243C19.1784 15.8375 21.1571 17.5118 22.9835 18.7294C23.2879 18.7294 24.5056 18.7294 24.81 17.8162C23.8968 16.9029 20.0916 14.6198 17.5041 13.8588Z" fill="white"/>
<path fill-rule="evenodd" clip-rule="evenodd" d="M12.191 14.5001C12.9845 14.3564 14.1886 14.3189 15.8698 14.7774C18.6791 15.5436 20.5388 16.8441 22.1285 17.9559C22.4374 18.1718 22.736 18.3807 23.0294 18.5771C23.2001 18.5762 23.5279 18.5669 23.8529 18.4694C24.1819 18.3707 24.4845 18.1894 24.6316 17.8559C24.1462 17.4052 23.0301 16.6544 21.7102 15.9131C20.3255 15.1354 18.7388 14.3806 17.461 14.0048C16.1962 13.6328 14.9291 13.6695 13.8463 13.9122C13.2165 14.0533 12.6528 14.2633 12.191 14.5001ZM13.7797 13.6151C14.9039 13.3632 16.2243 13.3238 17.5469 13.7128C18.8567 14.098 20.4663 14.8653 21.8593 15.6477C23.2484 16.4279 24.4446 17.2357 24.9175 17.7085C24.9583 17.7493 24.9725 17.8096 24.9543 17.8643C24.7799 18.3873 24.3446 18.6398 23.9404 18.761C23.5384 18.8816 23.1399 18.8816 22.9855 18.8816H22.9834C22.9533 18.8816 22.924 18.8727 22.899 18.856C22.5864 18.6476 22.2705 18.4269 21.9452 18.1995C20.3569 17.0894 18.5438 15.8222 15.7897 15.0711C13.2004 14.3649 11.8025 14.8726 11.3201 15.0656C11.2509 15.0932 11.1719 15.0668 11.1334 15.0031C11.0948 14.9394 11.1079 14.8571 11.1645 14.8087C11.7202 14.3323 12.6579 13.8666 13.7797 13.6151Z" fill="white"/>
<path fill-rule="evenodd" clip-rule="evenodd" d="M14.5373 15.4555C13.7138 15.5704 12.8541 15.6878 11.5324 15.3768C11.4506 15.3576 11.3999 15.2756 11.4191 15.1938C11.4384 15.112 11.5203 15.0612 11.6021 15.0805C12.868 15.3783 13.6825 15.2674 14.4952 15.154L14.5104 15.1519C15.3276 15.0378 16.1484 14.9233 17.388 15.2332C17.4696 15.2536 17.5192 15.3362 17.4988 15.4178C17.4784 15.4993 17.3957 15.5489 17.3142 15.5285C16.132 15.233 15.3588 15.3409 14.5493 15.4538L14.5373 15.4555Z" fill="white"/>
</svg>
