<svg width="34" height="52" viewBox="0 0 34 52" fill="none" xmlns="http://www.w3.org/2000/svg">
<path d="M24.0038 16.4227C24.5753 16.5656 25.2898 15.9941 26.0042 15.1368L23.4323 14.4224C23.0037 14.7558 21.9178 15.2225 22.1464 15.5654C22.4321 15.9941 23.4323 16.2798 24.0038 16.4227Z" fill="#828282"/>
<path d="M15.8909 13.9936C16.4624 14.1365 17.1768 13.565 17.8912 12.7077L15.3194 11.9933C14.8907 12.3267 13.8048 12.7934 14.0335 13.1363C14.3192 13.565 15.3194 13.8507 15.8909 13.9936Z" fill="#828282"/>
<path d="M32.1467 42.9518C31.861 43.3805 31.7181 43.5234 31.2895 44.2378C30.7656 43.9996 29.7178 43.5234 29.7178 43.3805C29.7178 43.0947 30.1464 42.8089 30.1464 42.8089C30.4221 42.9192 32.0137 42.0447 32.4325 41.9517C32.3849 42.1898 32.4325 42.5232 32.1467 42.9518Z" fill="#828282"/>
<path d="M31.4331 44.1521C31.4331 44.9412 30.9213 45.5809 30.29 45.5809C29.6587 45.5809 29.147 44.9412 29.147 44.1521C29.147 43.363 29.6587 42.7233 30.29 42.7233C30.9213 42.7233 31.4331 43.363 31.4331 44.1521Z" fill="#828282"/>
<path d="M31.8612 44.2378C31.8612 45.0269 31.3494 45.6666 30.7181 45.6666C30.0868 45.6666 29.5751 45.0269 29.5751 44.2378C29.5751 43.4487 30.0868 42.809 30.7181 42.809C31.3494 42.809 31.8612 43.4487 31.8612 44.2378Z" fill="#828282"/>
<path d="M31.4327 44.2378C31.4327 44.7112 31.1768 45.0951 30.8612 45.0951C30.5456 45.0951 30.2897 44.7112 30.2897 44.2378C30.2897 43.7643 30.5456 43.3805 30.8612 43.3805C31.1768 43.3805 31.4327 43.7643 31.4327 44.2378Z" fill="#828282"/>
<path d="M25.1472 44.9097C24.7186 45.1955 24.4328 45.1955 24.0042 45.9099C23.4803 45.6717 22.4897 45.1097 22.7183 44.7668C22.9469 44.4239 23.004 44.0524 22.8611 43.9095C23.0993 44.0048 23.6613 43.9381 24.0042 44.0524C24.3471 44.1667 25.2901 43.719 25.7188 43.6238C25.6711 43.8619 25.4902 44.6811 25.1472 44.9097Z" fill="#828282"/>
<ellipse cx="23.004" cy="45.8241" rx="1.14305" ry="1.42881" fill="#828282"/>
<ellipse cx="23.4328" cy="45.9099" rx="1.14305" ry="1.42881" fill="#828282"/>
<path d="M24.0044 45.9098C24.0044 46.3833 23.7485 46.7671 23.4329 46.7671C23.1172 46.7671 22.8613 46.3833 22.8613 45.9098C22.8613 45.4364 23.1172 45.0526 23.4329 45.0526C23.7485 45.0526 24.0044 45.4364 24.0044 45.9098Z" fill="#828282"/>
<mask id="mask0" mask-type="alpha" maskUnits="userSpaceOnUse" x="2" y="39" width="5" height="6">
<path d="M2.28528 39.7221L6.57171 40.8652V44.5801L2.28528 43.437V39.7221Z" fill="#C4C4C4"/>
</mask>
<g mask="url(#mask0)">
<path d="M6.28628 41.008C5.85763 41.2937 5.57187 41.2937 5.14323 42.0081C4.61933 41.77 3.62869 41.208 3.8573 40.8651C4.08591 40.5222 4.14306 40.1507 4.00018 40.0078C4.23832 40.1031 4.80032 40.0364 5.14323 40.1507C5.48614 40.265 6.42916 39.8173 6.8578 39.722C6.81017 39.9602 6.62919 40.7794 6.28628 41.008Z" fill="#828282"/>
<ellipse cx="4.14305" cy="41.9224" rx="1.14305" ry="1.42881" fill="#828282"/>
<ellipse cx="4.57188" cy="42.0082" rx="1.14305" ry="1.42881" fill="#828282"/>
<path d="M5.14341 42.0081C5.14341 42.4816 4.88753 42.8654 4.57189 42.8654C4.25625 42.8654 4.00037 42.4816 4.00037 42.0081C4.00037 41.5346 4.25625 41.1508 4.57189 41.1508C4.88753 41.1508 5.14341 41.5346 5.14341 42.0081Z" fill="#828282"/>
</g>
<path fill-rule="evenodd" clip-rule="evenodd" d="M9.77215 10.8024C10.2866 10.7073 10.8258 10.7209 11.3318 10.8265L31.8205 15.1011C33.114 15.3709 33.9999 16.1989 33.9999 17.1381V40.4887C33.9999 41.4111 33.145 42.2283 31.8831 42.5122L24.9244 44.0779C24.2922 44.2201 23.6106 44.2153 22.9827 44.0641L20.1179 43.3745L20.2132 43.1831L23.0779 43.8727C23.646 44.0095 24.2627 44.0139 24.8347 43.8852L31.7934 42.3195C32.9351 42.0626 33.7086 41.3232 33.7086 40.4887V17.1381C33.7086 16.2884 32.9071 15.5392 31.7368 15.2951L11.2482 11.0205C10.7898 10.9248 10.3056 10.9134 9.84695 10.9982C8.66038 11.2174 6.26804 11.7073 4.22061 12.4232C3.56772 12.7308 3.04015 13.2304 2.65593 13.7844C2.27079 14.3398 2.03573 14.9413 1.9617 15.439L1.672 15.4181C1.74961 14.8964 1.99429 14.2722 2.3936 13.6964C2.79235 13.1214 3.35137 12.586 4.06551 12.2516L4.07315 12.248L4.08136 12.2452C6.15802 11.5182 8.57858 11.023 9.77215 10.8024Z" fill="#828282"/>
<path d="M16.0801 4.84924C16.4388 4.84924 16.7296 5.14002 16.7296 5.49872L16.7296 12.6714C16.7296 13.0301 16.4388 13.3208 16.0801 13.3208V13.3208C15.7214 13.3208 15.4307 13.0301 15.4307 12.6714L15.4307 5.49872C15.4307 5.14002 15.7214 4.84924 16.0801 4.84924V4.84924Z" fill="#828282"/>
<path fill-rule="evenodd" clip-rule="evenodd" d="M16.4439 12.6714L16.4439 5.49872C16.4439 5.29784 16.281 5.13501 16.0801 5.13501C15.8793 5.13501 15.7164 5.29784 15.7164 5.49872L15.7164 12.6714C15.7164 12.8722 15.8793 13.0351 16.0801 13.0351C16.281 13.0351 16.4439 12.8722 16.4439 12.6714ZM16.7296 5.49872C16.7296 5.14002 16.4388 4.84924 16.0801 4.84924C15.7214 4.84924 15.4307 5.14002 15.4307 5.49872L15.4307 12.6714C15.4307 13.0301 15.7214 13.3208 16.0801 13.3208C16.4388 13.3208 16.7296 13.0301 16.7296 12.6714L16.7296 5.49872Z" fill="#828282"/>
<path d="M23.7962 7.13538C24.1549 7.13538 24.4457 7.42616 24.4457 7.78485L24.4457 14.9575C24.4457 15.3162 24.1549 15.607 23.7962 15.607V15.607C23.4375 15.607 23.1467 15.3162 23.1467 14.9575L23.1467 7.78485C23.1467 7.42616 23.4375 7.13538 23.7962 7.13538V7.13538Z" fill="#828282"/>
<path fill-rule="evenodd" clip-rule="evenodd" d="M24.1599 14.9575L24.1599 7.78485C24.1599 7.58398 23.9971 7.42114 23.7962 7.42114C23.5953 7.42114 23.4325 7.58398 23.4325 7.78485L23.4325 14.9575C23.4325 15.1584 23.5953 15.3212 23.7962 15.3212C23.9971 15.3212 24.1599 15.1584 24.1599 14.9575ZM24.4457 7.78485C24.4457 7.42616 24.1549 7.13538 23.7962 7.13538C23.4375 7.13538 23.1467 7.42616 23.1467 7.78485L23.1467 14.9575C23.1467 15.3162 23.4375 15.607 23.7962 15.607C24.1549 15.607 24.4457 15.3162 24.4457 14.9575L24.4457 7.78485Z" fill="#828282"/>
<path fill-rule="evenodd" clip-rule="evenodd" d="M15.4211 0.891926C15.1582 1.07966 15.0021 1.38284 15.0021 1.70592V5.37285C15.0021 5.92523 15.4499 6.37302 16.0023 6.37302C16.5546 6.37302 17.0024 5.92523 17.0024 5.37285V3.10681L22.9047 5.13334V7.94193C22.9047 8.49431 23.3525 8.9421 23.9049 8.9421C24.4572 8.9421 24.905 8.49431 24.905 7.94193V4.41927C24.905 3.99207 24.6337 3.61204 24.2297 3.47331L16.3271 0.759962C16.0215 0.655044 15.684 0.704196 15.4211 0.891926Z" fill="#828282"/>
<path fill-rule="evenodd" clip-rule="evenodd" d="M2.45307 14.6786C3.34443 14.0776 4.63786 13.9069 6.49409 14.2788C9.07691 14.7964 15.8477 16.235 18.4094 16.868C19.3905 17.1104 20.6649 17.5298 21.6966 18.1806C22.7304 18.8327 23.5274 19.7222 23.5274 20.8986C23.5274 21.7915 23.4648 23.4095 23.3981 25.1316C23.3934 25.2533 23.3886 25.3755 23.3839 25.4981C23.3122 27.3558 23.2405 29.2833 23.2405 30.5234C23.2405 31.7628 23.3838 34.6323 23.5273 37.2982C23.5656 38.0099 23.604 38.7073 23.6396 39.3552C23.7372 41.1306 23.8143 42.5338 23.8143 42.8391C23.8143 43.0613 23.7468 43.2489 23.6185 43.4007C23.4899 43.5529 23.3052 43.6631 23.0847 43.7354C22.6486 43.8784 22.0736 43.8737 21.4842 43.7674C20.5062 43.591 16.6331 42.7432 12.5915 41.8585C11.8735 41.7013 11.1501 41.5429 10.4367 41.387C9.63075 41.262 8.11913 40.9445 6.49732 40.6038C5.40842 40.3751 4.26984 40.136 3.26184 39.9376C1.60189 39.611 0.795011 38.4452 0.398215 37.2091C-1.9154e-06 35.9686 -6.99308e-07 34.6137 1.86354e-09 33.8383V33.8352C1.86354e-09 28.1452 0.304816 20.0725 0.86244 17.4675C1.12063 16.2614 1.57433 15.2712 2.45307 14.6786ZM2.649 14.8298C1.84533 15.3718 1.40258 16.3005 1.146 17.4991C0.592402 20.0853 0.28692 28.1409 0.28692 33.8352C0.28692 34.6127 0.287453 35.9466 0.677738 37.1624C1.06997 38.3843 1.84116 39.4436 3.33733 39.7379C4.36063 39.9393 5.50712 40.1801 6.5985 40.4094C8.21269 40.7486 9.70634 41.0624 10.5026 41.1855L10.5085 41.1864L10.5142 41.1876C11.23 41.3441 11.9553 41.5029 12.675 41.6604C16.7191 42.5457 20.5834 43.3916 21.5538 43.5666C22.1121 43.6673 22.613 43.6627 22.9659 43.5469C23.14 43.4899 23.278 43.406 23.3736 43.293C23.4694 43.1796 23.5274 43.0309 23.5274 42.8391C23.5274 42.5382 23.4508 41.1446 23.3535 39.3739C23.3177 38.7237 23.2792 38.0227 23.2406 37.3062C23.0972 34.6423 22.9536 31.7679 22.9536 30.5234C22.9536 29.2797 23.0254 27.349 23.0971 25.4923C23.1018 25.3705 23.1065 25.2491 23.1112 25.1281C23.178 23.4039 23.2405 21.7885 23.2405 20.8986C23.2405 19.7982 22.4986 18.9614 21.5077 18.3364C20.5146 17.71 19.2784 17.3015 18.3164 17.0638C15.7631 16.4329 8.99904 14.9956 6.4173 14.4783C4.61496 14.1171 3.44004 14.2964 2.649 14.8298ZM33.2013 15.5808C33.7417 15.8427 34 16.3279 34 16.9659L33.7131 16.9659C33.7131 16.3619 33.4693 15.96 33.0413 15.7526C32.6101 15.5436 31.9456 15.5088 31.0309 15.7191C30.6864 15.7983 30.3468 15.8705 30.0161 15.9409L29.9411 15.9568C29.5862 16.0324 29.2419 16.1062 28.9093 16.1853C28.2439 16.3435 27.6322 16.5212 27.0904 16.7707C26.0167 17.265 25.1951 18.0511 24.8163 19.5715C23.9223 23.1597 23.8141 28.6354 23.9307 33.3894C23.989 35.7649 24.1033 37.9577 24.2031 39.641C24.2378 40.2265 24.2708 40.7511 24.299 41.2005C24.3519 42.0407 24.3882 42.618 24.3882 42.8391C24.3882 43.17 24.4325 43.4107 24.5072 43.5827C24.5815 43.754 24.6829 43.8509 24.7922 43.9052C24.9014 43.9593 25.0369 43.98 25.2046 43.9728C25.3739 43.9656 25.566 43.9302 25.7774 43.8793L25.8681 44.0757C25.6492 44.1283 25.4288 44.1706 25.2216 44.1795C25.0126 44.1884 24.8074 44.1639 24.6297 44.0757C24.4521 43.9876 24.3204 43.8453 24.2333 43.6446C24.1466 43.4447 24.1013 43.1809 24.1013 42.8391C24.1013 42.6228 24.0655 42.0548 24.0131 41.2218C23.9848 40.7709 23.9515 40.2424 23.9164 39.6498C23.8166 37.9657 23.7022 35.7709 23.6439 33.393C23.5273 28.6401 23.6343 23.1455 24.5339 19.5349C24.9243 17.9679 25.7835 17.1268 26.936 16.5962C27.5072 16.3332 28.1449 16.1491 28.8195 15.9887C29.1569 15.9084 29.5053 15.8338 29.8599 15.7583L29.9343 15.7425C30.2656 15.672 30.6023 15.6004 30.9438 15.5219C31.8941 15.3034 32.6641 15.3204 33.2013 15.5808Z" fill="#828282"/>
<path fill-rule="evenodd" clip-rule="evenodd" d="M5.65706 24.3242C5.02928 24.1188 4.41175 23.9109 3.81177 23.7016L3.90589 23.4318C4.64435 23.6894 5.40989 23.945 6.18884 24.1966C9.03478 25.1159 12.0575 25.9812 14.5902 26.6956C14.9525 26.7978 15.3049 26.8969 15.6455 26.9927C17.6816 27.5655 19.2936 28.019 20.0524 28.2901L19.9563 28.5592C19.2076 28.2918 17.6078 27.8417 15.5688 27.268C15.2283 27.1722 14.8756 27.073 14.5126 26.9706C12.0245 26.2688 9.05943 25.4202 6.25251 24.5173L5.99848 25.7417L5.99778 25.7445C5.9569 25.9081 5.87254 26.0406 5.73156 26.0815C5.59236 26.1219 5.46492 26.0535 5.38307 25.9717C5.2187 25.8073 5.12446 25.4827 5.31163 25.202C5.41416 25.0482 5.50453 24.8145 5.57673 24.5908C5.60768 24.4949 5.63453 24.4034 5.65706 24.3242ZM5.92895 24.4128C5.90653 24.4913 5.87967 24.5826 5.84868 24.6786C5.77563 24.9049 5.67549 25.1714 5.5494 25.3605C5.45081 25.5084 5.49946 25.6839 5.58513 25.7696C5.60491 25.7894 5.62259 25.7999 5.63499 25.8044C5.64643 25.8087 5.65114 25.8073 5.65187 25.8071C5.65243 25.8069 5.66075 25.8046 5.6738 25.7873C5.68769 25.7688 5.70531 25.7351 5.71988 25.6779L5.97898 24.429C5.9623 24.4236 5.94562 24.4182 5.92895 24.4128Z" fill="#828282"/>
<path fill-rule="evenodd" clip-rule="evenodd" d="M6.101 25.04C5.32034 24.7879 4.55267 24.5316 3.81177 24.2731L3.90589 24.0033C4.64435 24.2609 5.40989 24.5165 6.18884 24.7681C9.03478 25.6874 12.0575 26.5527 14.5902 27.2671C14.9525 27.3693 15.3049 27.4684 15.6455 27.5643C17.6816 28.1371 19.2936 28.5906 20.0524 28.8616L19.9563 29.1307C19.2076 28.8633 17.6078 28.4132 15.5688 27.8395C15.2283 27.7438 14.8756 27.6445 14.5126 27.5421C11.9797 26.8277 8.95248 25.9611 6.101 25.04Z" fill="#828282"/>
</svg>
