<svg width="44" height="41" viewBox="0 0 44 41" fill="none" xmlns="http://www.w3.org/2000/svg">
<path fill-rule="evenodd" clip-rule="evenodd" d="M17.6542 2.23214C17.2832 2.1461 16.9127 2.08044 16.5572 2.03593C16.563 2.11349 16.575 2.20622 16.5957 2.3169C16.6825 2.78078 16.8846 3.37214 17.1392 4.09247L17.1971 4.25601L17.1971 4.25607L17.1972 4.25621C17.4326 4.92105 17.6974 5.66888 17.9139 6.4494L17.4187 6.58676C18.2926 6.86959 19.2034 7.17073 20.1348 7.48577C20.1338 7.21344 20.1293 6.9486 20.1207 6.69143C20.071 5.2106 19.8853 4.04756 19.4816 3.20313C19.4 3.03247 19.3094 2.87438 19.2084 2.72898C18.7566 2.53563 18.2243 2.36434 17.6542 2.23214ZM14.8036 2.01503C14.7374 2.02521 14.6719 2.02678 14.6082 2.02058C13.4156 2.49407 12.1941 3.33507 11.0977 4.52339C10.9399 4.6944 10.7851 4.87225 10.6338 5.0568C11.8382 5.08866 13.2884 5.29259 14.9706 5.81203C15.5571 5.99314 16.173 6.18682 16.8114 6.39125C16.6256 5.76816 16.413 5.16758 16.2119 4.59946L16.2119 4.59943L16.1555 4.44017C15.9082 3.74036 15.6748 3.06792 15.5702 2.50877C15.5382 2.33813 15.5132 2.15327 15.5099 1.96658C15.2502 1.967 15.0119 1.98299 14.8036 2.01503ZM14.5656 0.468195C15.3006 0.355121 16.2034 0.392266 17.1054 0.532769L17.1563 0.535819C17.3559 0.54555 17.565 0.573272 17.7792 0.613034L17.7934 0.615701L17.7939 0.615777L17.8085 0.619365C18.0976 0.690458 18.4074 0.784337 18.734 0.899456C19.4927 1.12557 20.2271 1.42904 20.8106 1.80576C22.0166 2.42044 23.3155 3.22148 24.5784 4.15832C27.0107 5.96271 29.3752 8.31925 30.7064 10.9155L30.166 11.1926C31.4199 11.7075 32.5975 12.2189 33.6508 12.7137L33.6547 12.7155C35.3594 13.5162 36.6692 14.1315 37.5203 15.4258C38.3713 16.72 38.7516 18.6715 38.6817 22.1113C38.6054 25.8709 38.5399 30.1194 38.4963 33.1962L38.3957 33.1948C38.7618 33.3581 39.211 33.5227 39.7698 33.7239C40.3102 33.9185 40.7625 34.1462 41.1334 34.393C41.6078 34.3627 42.0582 34.3576 42.4662 34.4497C42.9661 34.5625 43.4008 34.8204 43.7467 35.3393C44.0365 35.774 44.067 36.1554 43.8926 36.4756C43.7264 36.7809 43.3896 36.9986 43.0207 37.1574C42.6243 37.328 42.1613 37.4424 41.7571 37.52C41.6201 37.5775 41.4673 37.6145 41.3015 37.6283C41.1739 37.639 41.0412 37.647 40.9049 37.6528C39.6856 37.7044 38.1612 37.5761 37.4932 37.4975L37.5016 37.4267C37.1191 37.8055 36.6402 38.0924 36.0964 38.2466L27.2839 40.7447C26.6383 40.9277 25.952 40.907 25.3186 40.6856L2.19455 32.6009C0.921045 32.1556 0.0526196 30.9728 0.0303979 29.6221C-0.010286 27.1491 -0.0381024 22.9491 0.138309 19.2358C0.271762 16.4267 0.56939 13.619 1.44076 11.2523C2.10547 9.44693 3.10598 7.89348 4.62431 6.7922L4.60315 6.72522L4.81455 6.65844C5.0404 6.50457 5.27724 6.36034 5.52562 6.22634L5.51868 6.20288L5.63481 6.16849C5.81962 6.07233 6.01069 5.98173 6.20825 5.89693C6.28926 5.86216 6.36774 5.8262 6.44782 5.7895L6.44792 5.78945L6.44799 5.78942L6.44807 5.78938L6.44813 5.78936L6.4482 5.78932L6.44829 5.78928L6.44839 5.78923L6.44851 5.78918L6.4486 5.78914L6.44866 5.78911L6.44881 5.78904L6.44883 5.78903C6.49574 5.76753 6.54321 5.74578 6.59206 5.72385C6.97145 5.55362 7.88392 5.21124 9.29152 5.09329C9.61934 4.63625 9.96734 4.20989 10.3309 3.81588C11.4108 2.64539 12.6442 1.74578 13.904 1.18517C13.9294 0.828983 14.1978 0.52479 14.5656 0.468195ZM38.4209 22.106C38.3452 25.8374 38.2801 30.0502 38.2365 33.1212C38.166 33.0875 38.0989 33.0535 38.0349 33.0191C37.6188 32.7952 37.3441 32.5553 37.1459 32.2176C36.9451 31.8756 36.8166 31.4227 36.7143 30.7603C36.6133 30.1058 36.5396 29.2607 36.4415 28.1354L36.4415 28.1348L36.4414 28.1346L36.4381 28.0968C36.4197 27.8852 36.4004 27.6639 36.3799 27.4324C36.4722 27.251 36.4392 27.0189 36.3324 26.8359C36.1955 26.6012 35.9249 26.4126 35.5514 26.4126H35.5513C35.5515 26.3097 35.5536 26.2071 35.5581 26.105C35.5609 26.1011 35.5638 26.0972 35.5667 26.0933C35.6256 26.0122 35.6935 25.9163 35.7455 25.7992C36.1016 25.6278 36.3016 25.2719 36.3908 24.9298C36.5008 24.5082 36.4712 24.0171 36.3065 23.6876L36.1768 23.7525C36.2476 23.401 36.1989 23.0771 36.0767 22.8192C35.9604 22.5736 35.7715 22.3794 35.5519 22.2911V16.5239C35.5519 15.9757 35.3887 15.4556 35.1012 15.0187C36.264 15.0995 37.0711 15.8632 37.5998 16.9337C38.1598 18.0675 38.3949 19.5258 38.3949 20.8046H38.4245C38.4315 21.2119 38.4303 21.645 38.4209 22.106ZM35.7769 25.0735C35.8222 24.9949 35.8588 24.9026 35.886 24.7981C35.918 24.6756 35.9331 24.5492 35.9344 24.4288C35.8672 24.6006 35.8103 24.7594 35.7625 24.9019C35.754 24.9272 35.7458 24.9526 35.738 24.978C35.7528 25.0083 35.7657 25.0402 35.7769 25.0735ZM35.5419 24.7403C35.6156 24.5265 35.7081 24.2811 35.8227 24.0138C35.8327 23.9904 35.8421 23.9671 35.8508 23.944C35.8473 23.9361 35.8436 23.9284 35.8399 23.9209L35.8635 23.9091C35.9981 23.527 35.9602 23.1826 35.841 22.9309C35.7082 22.6504 35.4851 22.5001 35.2905 22.5001H33.9348C33.9874 22.6135 34 22.7475 33.9906 22.8854C33.9714 23.1676 33.8561 23.5151 33.7043 23.8648C33.6197 24.0598 33.5219 24.2593 33.4191 24.4539C33.6034 24.786 33.8898 25.0272 34.2138 25.1832C34.2755 25.2129 34.3382 25.2393 34.4013 25.2625L34.1931 25.0544C34.3541 24.8934 34.6597 24.7012 34.9622 24.6407C35.1159 24.61 35.3026 24.6066 35.4721 24.6968C35.4967 24.7098 35.5199 24.7244 35.5419 24.7403ZM34.6618 25.3402C34.889 25.3926 35.1124 25.4054 35.3074 25.3828C35.306 25.3538 35.3022 25.3231 35.2956 25.29C35.2745 25.1845 35.2383 25.1633 35.2271 25.1573C35.205 25.1456 35.1553 25.1341 35.0645 25.1523C34.9268 25.1798 34.773 25.2599 34.6618 25.3402ZM35.0526 25.9143C34.7048 25.9049 34.3315 25.8189 33.9875 25.6532C33.667 25.4989 33.365 25.272 33.1321 24.9661C32.9649 25.2487 32.8039 25.4968 32.6821 25.6717V37.9392C32.6821 38.3396 32.5565 38.7236 32.3276 39.0438L34.8396 38.3318L34.8209 38.307C35.1165 38.0853 35.2905 37.7374 35.2905 37.3679V32.9879C34.8815 32.4536 34.5863 31.8314 34.3743 31.1822C33.9848 29.989 33.8718 28.6908 33.8548 27.6423L33.8369 27.6268C33.8219 27.614 33.8051 27.5995 33.785 27.5814C33.7412 27.542 33.6911 27.4928 33.6496 27.4305C33.5604 27.2966 33.5248 27.1238 33.6018 26.893C33.7339 26.4966 34.1061 26.3923 34.4653 26.3725C34.6008 26.3651 34.7429 26.369 34.8827 26.3765C34.8912 26.1843 34.9726 26.0323 35.0526 25.9143ZM35.5514 26.6734C35.7833 26.6734 35.951 26.7687 36.0534 26.8909C35.9573 26.8355 35.846 26.804 35.7279 26.804H34.4981C34.1968 26.804 33.939 27.0088 33.8705 27.2914L33.8666 27.2858C33.8254 27.224 33.7958 27.1359 33.8492 26.9755C33.9267 26.7429 34.1414 26.6516 34.4797 26.633C34.6453 26.6239 34.8264 26.6334 35.0117 26.6458L35.0996 26.6519C35.1633 26.6563 35.2273 26.6607 35.2905 26.6644V26.6735H35.5513V26.6734H35.5514ZM35.5513 37.3679V33.2991C35.8952 33.6735 36.3072 33.9909 36.8004 34.2253C37.2827 34.4544 37.756 34.5918 38.215 34.6697L38.2085 35.1464C38.1906 36.4745 37.303 37.6335 36.0252 37.9957L35.2805 38.2068C35.4545 37.9654 35.5513 37.6727 35.5513 37.3679ZM38.4693 35.1499L38.4753 34.708C39.251 34.8046 39.9819 34.7453 40.6413 34.6918C40.7149 34.6858 40.7876 34.6799 40.8594 34.6743C40.9278 34.669 40.9952 34.6639 41.0616 34.6593C41.6506 35.068 41.9911 35.5162 42.139 35.9225C42.1115 35.937 42.0783 35.9512 42.0387 35.9647C41.9375 35.9991 41.807 36.0242 41.6512 36.0399C41.3397 36.0714 40.9458 36.0638 40.5241 36.0315C39.7847 35.9747 38.976 35.8431 38.4107 35.7244C38.4467 35.5374 38.4667 35.3453 38.4693 35.1499ZM42.1227 36.2116C42.152 36.2017 42.1807 36.1907 42.2084 36.1784C42.2629 36.4876 42.202 36.7591 42.0583 36.9626C41.9677 37.0909 41.8407 37.1969 41.6802 37.2691C41.3766 37.3263 41.1062 37.3629 40.9255 37.3873L40.8878 37.3924C39.7676 37.4393 38.3797 37.3319 37.6635 37.2542C37.9826 36.8888 38.2195 36.4535 38.3512 35.9784C38.9266 36.0995 39.7496 36.2337 40.5042 36.2916C40.9324 36.3244 41.3438 36.3332 41.6774 36.2994C41.8441 36.2826 41.996 36.2547 42.1227 36.2116ZM33.2858 24.143C33.1518 23.731 33.2208 23.4945 33.3101 23.367C33.4024 23.235 33.5518 23.1672 33.681 23.1544C33.6348 23.3365 33.5598 23.5428 33.4651 23.7609C33.4103 23.887 33.3498 24.0153 33.2858 24.143ZM33.7257 22.9196C33.7277 22.9019 33.7292 22.8846 33.7304 22.8677C33.7347 22.805 33.7327 22.7513 33.7257 22.7059V22.9196ZM33.7068 22.6307C33.7035 22.6218 33.6999 22.6133 33.6961 22.6054C33.6724 22.5567 33.6359 22.5211 33.5756 22.5001H33.3342V22.4781C33.3289 22.4791 33.3237 22.4802 33.3185 22.4815C33.254 22.4968 33.1948 22.5307 33.1393 22.5861C33.046 22.6794 32.966 22.8313 32.9008 23.0427C33.1131 22.7585 33.4386 22.6362 33.7068 22.6307ZM32.7298 24.0834C32.7528 24.1898 32.7857 24.3012 32.8293 24.4175C32.8699 24.5257 32.9178 24.6275 32.9719 24.7232C32.8733 24.8938 32.7752 25.0542 32.6849 25.196C32.6898 24.7957 32.7029 24.4206 32.7298 24.0834ZM32.4283 24.943C32.4438 24.2392 32.4898 23.6091 32.6045 23.1376C32.6255 23.0515 32.649 22.9692 32.6757 22.8916L32.5624 22.5515C32.4693 22.2722 32.4218 21.9798 32.4218 21.6854V17.0551C32.4218 16.5664 32.2785 16.1026 32.0256 15.711C30.5329 16.421 29.2041 17.9397 28.2435 19.905C27.2713 21.894 26.6832 24.3268 26.6832 26.8039V38.7024C26.6832 39.7463 27.7692 40.4335 28.7144 39.9887L28.7473 40.0587L31.9788 39.1427L31.9377 39.1016C32.2476 38.7918 32.4212 38.3766 32.4212 37.9392V24.943L32.4283 24.943ZM32.8366 22.5494C32.8725 22.4943 32.9118 22.4448 32.9549 22.4017C33.04 22.3166 33.1408 22.2556 33.2581 22.2277C33.3514 22.2055 33.4499 22.2054 33.5526 22.2253C33.4977 22.158 33.4648 22.072 33.4648 21.9784V21.3263C33.4648 21.1556 33.574 21.0105 33.7264 20.957V16.7829C33.7264 15.7314 33.0628 14.7945 32.071 14.4454L21.0913 10.5813C21.0833 10.7498 21.075 10.9197 21.0664 11.091L30.8381 14.4664C31.942 14.8477 32.6827 15.8871 32.6827 17.0551V21.6854C32.6827 21.9518 32.7256 22.2164 32.8098 22.469L32.8366 22.5494ZM35.2911 16.5239V22.2393H35.2905H34.1477C34.2097 22.17 34.2474 22.0786 34.2474 21.9784V21.3263C34.2474 21.1562 34.1388 21.0114 33.9872 20.9575V16.7829C33.9872 15.6208 33.2538 14.5852 32.1576 14.1994L21.104 10.3093C21.1118 10.1371 21.1193 9.96664 21.1262 9.79783L33.6334 14.1857C34.6264 14.5341 35.2911 15.4716 35.2911 16.5239ZM27.7355 40.3455C27.0097 40.1796 26.4224 39.5377 26.4224 38.7024V26.8039C26.4224 24.2875 27.0193 21.8154 28.0091 19.7905C28.9758 17.8129 30.3237 16.2488 31.8702 15.4963C31.585 15.1438 31.2022 14.8681 30.7529 14.7129L21.0527 11.3623L21.0256 11.8902L21.0191 12.0163L21.0191 12.0165C20.9206 13.9237 20.8135 15.9977 20.8135 18.1961C20.8135 18.4842 20.5799 18.7178 20.2918 18.7178C20.0037 18.7178 19.7701 18.4842 19.7701 18.1961C19.7701 15.9704 19.8785 13.8731 19.9767 11.9707L19.9837 11.8364C19.9982 11.5555 20.0124 11.2792 20.0259 11.0076L9.17853 7.26071C8.16182 9.19629 7.51064 11.5675 7.51064 14.2835C7.51064 14.5717 7.27708 14.8052 6.98896 14.8052C6.70085 14.8052 6.46729 14.5717 6.46729 14.2835C6.46729 11.4618 7.12943 8.97356 8.1818 6.91642C7.15094 6.56141 6.03323 6.54702 4.9935 6.87546L4.93027 6.89543C3.3764 7.96545 2.35897 9.51335 1.68553 11.3424C0.828682 13.6697 0.532081 16.4438 0.398855 19.2482C0.222847 22.953 0.250543 27.1464 0.291202 29.6178C0.311596 30.8574 1.1086 31.9449 2.28063 32.3546L25.4047 40.4393C25.9874 40.6431 26.6188 40.6621 27.2127 40.4937L27.7355 40.3455ZM34.9004 14.7507C36.3063 14.7533 37.2492 15.6348 37.8337 16.8182C37.8986 16.9497 37.9593 17.0852 38.0159 17.224C37.8357 16.5547 37.5973 16.0177 37.3023 15.5691C36.4982 14.3462 35.2617 13.7585 33.5399 12.9497C32.4329 12.4298 31.1878 11.8912 29.8604 11.3493L29.778 11.3916C29.7615 11.3595 29.7449 11.3274 29.7281 11.2954C27.0499 10.206 24.0472 9.10515 21.1749 8.11628C21.1688 8.5702 21.1553 9.0404 21.1369 9.52518L33.7198 13.9396C34.1895 14.1044 34.5928 14.3885 34.9004 14.7507ZM21.243 3.22387C21.0961 3.37413 20.9001 3.45408 20.7012 3.45858C20.9967 4.37529 21.1233 5.46008 21.1635 6.65647C21.1762 7.03662 21.1803 7.43203 21.1776 7.84138C23.9728 8.80242 26.8966 9.87111 29.5303 10.9339C28.2624 8.70721 26.1688 6.63725 23.9567 4.99628C23.0451 4.32001 22.1232 3.72379 21.243 3.22387ZM16.9085 6.72829L16.8987 6.69317C16.2016 6.46929 15.5304 6.25788 14.8937 6.06126C13.1413 5.52017 11.6478 5.32716 10.4286 5.31385C10.3373 5.43149 10.2473 5.55165 10.1588 5.6743C10.1814 5.68188 10.2039 5.68961 10.2264 5.6975L20.1058 9.16345C20.1222 8.67703 20.1327 8.20935 20.1347 7.76111C19.0407 7.3906 17.9744 7.03902 16.9619 6.71347L16.9085 6.72829ZM9.30368 7.02797L20.0393 10.7362C20.0477 10.562 20.0559 10.3898 20.0636 10.2196L9.58967 6.53353C9.49169 6.69485 9.3963 6.85969 9.30368 7.02797ZM8.564 6.21699C8.47512 6.36954 8.38842 6.52479 8.30404 6.68268L8.27141 6.67141C7.4303 6.38088 6.53402 6.30615 5.66364 6.44831C5.68674 6.43591 5.70994 6.4236 5.73324 6.41138L6.05975 6.31469C6.87656 6.07279 7.73753 6.04089 8.564 6.21699ZM9.73062 6.30661L20.0756 9.94734C20.083 9.77491 20.0899 9.60461 20.0962 9.43648L10.14 5.94363C10.0941 5.9275 10.0479 5.91205 10.0016 5.89727C9.90943 6.03094 9.81906 6.1674 9.73062 6.30661ZM8.89554 5.67584C8.8309 5.77626 8.76722 5.87798 8.70454 5.98098C8.14465 5.85199 7.56847 5.81429 6.99831 5.86845L7.12658 5.83371C7.70561 5.67689 8.30443 5.6246 8.89554 5.67584ZM9.0575 5.42991C8.97447 5.42051 8.89126 5.41307 8.80793 5.40757C8.90106 5.39528 8.99695 5.38391 9.0956 5.37365L9.0575 5.42991ZM34.4981 27.0648C34.2839 27.0648 34.1124 27.2346 34.1135 27.4435C34.1144 27.6148 34.1178 27.7934 34.1245 27.9777H36.1659C36.1503 27.7987 36.1341 27.6131 36.117 27.4204C36.0991 27.2191 35.9303 27.0648 35.7279 27.0648H34.4981ZM36.1887 28.2386H34.136C34.1832 29.1425 34.3145 30.1585 34.6223 31.1012C35.0244 32.333 35.7223 33.4243 36.9123 33.9897C38.2464 34.6234 39.5054 34.5218 40.6285 34.4311L40.6898 34.4261C40.4008 34.2621 40.0661 34.1078 39.6814 33.9693C38.9288 33.6984 38.3524 33.4862 37.9113 33.2488C37.4657 33.009 37.1496 32.7393 36.9209 32.3497C36.6948 31.9645 36.5603 31.4723 36.4565 30.8001C36.3563 30.1512 36.283 29.321 36.1887 28.2386ZM41.4675 34.6377C42.0204 35.0842 42.3347 35.5741 42.4445 36.0334C42.5416 36.4393 42.4775 36.8213 42.2714 37.1131L42.2642 37.1232L42.2505 37.1417C42.48 37.0811 42.7091 37.0075 42.9176 36.9178C43.2713 36.7656 43.5402 36.5773 43.6636 36.3509C43.7788 36.1393 43.7824 35.8631 43.5297 35.484C43.2235 35.0247 42.8481 34.8033 42.4088 34.7042C42.1229 34.6396 41.8094 34.6267 41.4675 34.6377Z" fill="#828282"/>
</svg>
