<svg width="37" height="65" viewBox="0 0 37 65" fill="none" xmlns="http://www.w3.org/2000/svg">
<path d="M25.5702 17.6641C26.179 17.8163 26.9401 17.2075 27.7011 16.2942L24.9614 15.5332C24.5048 15.8884 23.348 16.3856 23.5915 16.7509C23.8959 17.2075 24.9614 17.5119 25.5702 17.6641Z" fill="#828282"/>
<path d="M16.9282 15.0766C17.5371 15.2288 18.2981 14.6199 19.0591 13.7067L16.3194 12.9457C15.8628 13.3008 14.706 13.798 14.9496 14.1633C15.254 14.6199 16.3194 14.9244 16.9282 15.0766Z" fill="#828282"/>
<path d="M34.2451 59.6729C33.9407 60.1295 33.7885 60.2817 33.3319 61.0427C32.7738 60.789 31.6576 60.2817 31.6576 60.1295C31.6576 59.8251 32.1142 59.5207 32.1142 59.5207C32.4078 59.6381 34.1034 58.7066 34.5495 58.6074C34.4988 58.8611 34.5495 59.2162 34.2451 59.6729Z" fill="#828282"/>
<path d="M33.4846 60.9514C33.4846 61.792 32.9395 62.4734 32.267 62.4734C31.5945 62.4734 31.0493 61.792 31.0493 60.9514C31.0493 60.1108 31.5945 59.4293 32.267 59.4293C32.9395 59.4293 33.4846 60.1108 33.4846 60.9514Z" fill="#828282"/>
<path d="M33.9409 61.0427C33.9409 61.8833 33.3958 62.5647 32.7233 62.5647C32.0508 62.5647 31.5056 61.8833 31.5056 61.0427C31.5056 60.2021 32.0508 59.5206 32.7233 59.5206C33.3958 59.5206 33.9409 60.2021 33.9409 61.0427Z" fill="#828282"/>
<path d="M33.484 61.0428C33.484 61.5471 33.2114 61.956 32.8752 61.956C32.5389 61.956 32.2664 61.5471 32.2664 61.0428C32.2664 60.5384 32.5389 60.1295 32.8752 60.1295C33.2114 60.1295 33.484 60.5384 33.484 61.0428Z" fill="#828282"/>
<path d="M26.7882 62.4126C26.3316 62.717 26.0272 62.717 25.5705 63.478C25.0125 63.2243 23.9572 62.6257 24.2007 62.2604C24.4442 61.8951 24.5051 61.4993 24.3529 61.3471C24.6066 61.4486 25.2052 61.3776 25.5705 61.4993C25.9358 61.6211 26.9404 61.1442 27.397 61.0427C27.3463 61.2964 27.1535 62.169 26.7882 62.4126Z" fill="#828282"/>
<ellipse cx="24.5051" cy="63.3867" rx="1.21765" ry="1.52206" fill="#828282"/>
<ellipse cx="24.9619" cy="63.478" rx="1.21765" ry="1.52206" fill="#828282"/>
<path d="M25.5708 63.4781C25.5708 63.9824 25.2982 64.3913 24.962 64.3913C24.6257 64.3913 24.3531 63.9824 24.3531 63.4781C24.3531 62.9737 24.6257 62.5648 24.962 62.5648C25.2982 62.5648 25.5708 62.9737 25.5708 63.4781Z" fill="#828282"/>
<mask id="mask0" mask-type="alpha" maskUnits="userSpaceOnUse" x="2" y="54" width="6" height="6">
<path d="M2.43469 54.65L7.00087 55.8677V59.825L2.43469 58.6074V54.65Z" fill="#C4C4C4"/>
</mask>
<g mask="url(#mask0)">
<path d="M6.69602 56.0199C6.23941 56.3243 5.93499 56.3243 5.47838 57.0853C4.92029 56.8316 3.86499 56.233 4.10852 55.8677C4.35205 55.5024 4.41294 55.1066 4.26073 54.9544C4.51441 55.0559 5.11308 54.9849 5.47838 55.1066C5.84367 55.2284 6.84823 54.7515 7.30485 54.65C7.25411 54.9037 7.06132 55.7763 6.69602 56.0199Z" fill="#828282"/>
<ellipse cx="4.41296" cy="56.994" rx="1.21765" ry="1.52206" fill="#828282"/>
<ellipse cx="4.86975" cy="57.0853" rx="1.21765" ry="1.52206" fill="#828282"/>
<path d="M5.47863 57.0854C5.47863 57.5897 5.20605 57.9986 4.86981 57.9986C4.53357 57.9986 4.26099 57.5897 4.26099 57.0854C4.26099 56.581 4.53357 56.1721 4.86981 56.1721C5.20605 56.1721 5.47863 56.581 5.47863 57.0854Z" fill="#828282"/>
</g>
<path fill-rule="evenodd" clip-rule="evenodd" d="M10.7502 11.4724C11.2879 11.3295 11.8514 11.3498 12.3803 11.5085L33.795 17.9329C35.1469 18.3385 36.0728 19.5829 36.0728 20.9944V56.0884C36.0728 57.4746 35.1793 58.7028 33.8604 59.1295L26.5872 61.4826C25.9264 61.6964 25.214 61.6892 24.5577 61.462L21.5635 60.4255L21.6631 60.1379L24.6573 61.1743C25.2511 61.3799 25.8956 61.3864 26.4935 61.193L33.7667 58.8399C34.96 58.4538 35.7684 57.3426 35.7684 56.0884V20.9944C35.7684 19.7173 34.9307 18.5914 33.7075 18.2244L12.2929 11.8001C11.8138 11.6563 11.3077 11.6392 10.8283 11.7666C9.58815 12.0961 7.08769 12.8324 4.94773 13.9082C4.26534 14.3705 3.71392 15.1214 3.31234 15.9541C2.90978 16.7888 2.66411 17.6928 2.58673 18.4407L2.28394 18.4094C2.36505 17.6253 2.62079 16.6872 3.03815 15.8218C3.45492 14.9576 4.0392 14.1529 4.78562 13.6504L4.7936 13.645L4.80219 13.6407C6.9727 12.5481 9.50265 11.8038 10.7502 11.4724Z" fill="#828282"/>
<path d="M17.1298 5.33533C17.5119 5.33533 17.8217 5.64508 17.8217 6.02719L17.8217 13.668C17.8217 14.0501 17.5119 14.3598 17.1298 14.3598V14.3598C16.7477 14.3598 16.4379 14.0501 16.4379 13.668L16.4379 6.02719C16.4379 5.64508 16.7477 5.33533 17.1298 5.33533V5.33533Z" fill="#828282"/>
<path fill-rule="evenodd" clip-rule="evenodd" d="M17.5172 13.668L17.5172 6.02719C17.5172 5.81321 17.3438 5.63974 17.1298 5.63974C16.9158 5.63974 16.7423 5.81321 16.7423 6.02719L16.7423 13.668C16.7423 13.8819 16.9158 14.0554 17.1298 14.0554C17.3438 14.0554 17.5172 13.8819 17.5172 13.668ZM17.8217 6.02719C17.8217 5.64508 17.5119 5.33533 17.1298 5.33533C16.7477 5.33533 16.4379 5.64508 16.4379 6.02719L16.4379 13.668C16.4379 14.0501 16.7477 14.3598 17.1298 14.3598C17.5119 14.3598 17.8217 14.0501 17.8217 13.668L17.8217 6.02719Z" fill="#828282"/>
<path d="M25.3489 7.77063C25.731 7.77063 26.0408 8.08039 26.0408 8.46249L26.0408 16.1033C26.0408 16.4854 25.731 16.7951 25.3489 16.7951V16.7951C24.9668 16.7951 24.657 16.4854 24.657 16.1033L24.657 8.46249C24.657 8.08039 24.9668 7.77063 25.3489 7.77063V7.77063Z" fill="#828282"/>
<path fill-rule="evenodd" clip-rule="evenodd" d="M25.7364 16.1033L25.7364 8.46249C25.7364 8.24851 25.5629 8.07504 25.3489 8.07504C25.1349 8.07504 24.9615 8.24851 24.9615 8.46249L24.9615 16.1033C24.9615 16.3172 25.1349 16.4907 25.3489 16.4907C25.5629 16.4907 25.7364 16.3172 25.7364 16.1033ZM26.0408 8.46249C26.0408 8.08039 25.731 7.77063 25.3489 7.77063C24.9668 7.77063 24.657 8.08039 24.657 8.46249L24.657 16.1033C24.657 16.4854 24.9668 16.7951 25.3489 16.7951C25.731 16.7951 26.0408 16.4854 26.0408 16.1033L26.0408 8.46249Z" fill="#828282"/>
<path fill-rule="evenodd" clip-rule="evenodd" d="M16.4273 1.11971C16.1472 1.3197 15.9809 1.64267 15.9809 1.98684V5.89309C15.9809 6.48151 16.4579 6.95853 17.0464 6.95853C17.6348 6.95853 18.1118 6.48151 18.1118 5.89309V3.47915L24.3993 5.63794V8.62983C24.3993 9.21826 24.8763 9.69527 25.4647 9.69527C26.0531 9.69527 26.5302 9.21826 26.5302 8.62983V4.87727C26.5302 4.42219 26.2411 4.01735 25.8107 3.86957L17.3923 0.979138C17.0668 0.867372 16.7074 0.919732 16.4273 1.11971Z" fill="#828282"/>
<path fill-rule="evenodd" clip-rule="evenodd" d="M2.60262 17.9531C3.54832 17.0692 4.92061 16.8181 6.89 17.3652C9.63028 18.1264 16.8139 20.2421 19.5317 21.173C20.5727 21.5295 21.9247 22.1464 23.0193 23.1034C24.1162 24.0624 24.9618 25.3706 24.9618 27.1008C24.9618 28.414 24.8953 30.7936 24.8245 33.3262C24.8195 33.5052 24.8145 33.685 24.8095 33.8652C24.7334 36.5974 24.6574 39.4321 24.6574 41.2559C24.6574 43.0787 24.8094 47.2987 24.9617 51.2195C25.0023 52.2662 25.043 53.2919 25.0808 54.2447C25.1843 56.8558 25.2662 58.9195 25.2662 59.3684C25.2662 59.6952 25.1946 59.9712 25.0584 60.1944C24.9219 60.4183 24.726 60.5803 24.492 60.6866C24.0293 60.8969 23.4193 60.8901 22.794 60.7337C21.7563 60.4743 17.6472 59.2274 13.3592 57.9263C12.5973 57.6951 11.8298 57.4622 11.0729 57.2328C10.2179 57.049 8.61411 56.5821 6.89343 56.0811C5.73814 55.7447 4.53015 55.393 3.46069 55.1013C1.69954 54.621 0.843479 52.9064 0.422493 51.0885C-2.03217e-06 49.2641 -7.41941e-07 47.2715 1.97715e-09 46.1311V46.1265C1.97715e-09 37.7584 0.323399 25.8859 0.915018 22.0548C1.18895 20.2809 1.6703 18.8246 2.60262 17.9531ZM2.81049 18.1755C1.95783 18.9725 1.48808 20.3384 1.21586 22.1012C0.628518 25.9046 0.304412 37.752 0.304412 46.1265C0.304412 47.2699 0.304978 49.2318 0.719056 51.0198C1.1352 52.8168 1.95341 54.3747 3.54079 54.8076C4.62648 55.1037 5.84286 55.458 7.00077 55.7952C8.71337 56.294 10.2981 56.7555 11.1429 56.9365L11.1491 56.9378L11.1552 56.9397C11.9146 57.1698 12.6842 57.4033 13.4477 57.635C17.7384 58.937 21.8382 60.181 22.8678 60.4384C23.4601 60.5865 23.9916 60.5797 24.3661 60.4095C24.5507 60.3255 24.6972 60.2021 24.7985 60.0359C24.9002 59.8692 24.9618 59.6505 24.9618 59.3684C24.9618 58.926 24.8805 56.8764 24.7772 54.2722C24.7393 53.316 24.6984 52.285 24.6575 51.2313C24.5053 47.3135 24.3529 43.0861 24.3529 41.2559C24.3529 39.4269 24.4291 36.5873 24.5052 33.8567C24.5102 33.6776 24.5152 33.499 24.5202 33.3211C24.591 30.7854 24.6574 28.4095 24.6574 27.1008C24.6574 25.4824 23.8702 24.2518 22.8189 23.3326C21.7653 22.4113 20.4537 21.8106 19.433 21.461C16.7241 20.5332 9.54767 18.4193 6.80853 17.6585C4.89631 17.1273 3.64976 17.391 2.81049 18.1755ZM35.2254 19.2799C35.7988 19.6652 36.0728 20.3787 36.0728 21.317L35.7684 21.317C35.7684 20.4288 35.5097 19.8377 35.0557 19.5326C34.5982 19.2252 33.8931 19.1741 32.9227 19.4833C32.5572 19.5998 32.1969 19.706 31.846 19.8095L31.7665 19.833C31.3899 19.9441 31.0246 20.0526 30.6718 20.1689C29.9658 20.4016 29.3168 20.663 28.7419 21.0299C27.6028 21.7569 26.7312 22.9129 26.3292 25.149C25.3807 30.4262 25.2659 38.4792 25.3897 45.4708C25.4515 48.9645 25.5728 52.1895 25.6786 54.665C25.7154 55.5261 25.7504 56.2977 25.7804 56.9586C25.8365 58.1943 25.875 59.0433 25.875 59.3684C25.875 59.8551 25.922 60.209 26.0012 60.4621C26.0801 60.714 26.1877 60.8565 26.3037 60.9363C26.4195 61.0159 26.5633 61.0464 26.7411 61.0358C26.9208 61.0251 27.1246 60.9731 27.3489 60.8983L27.4452 61.1871C27.2129 61.2645 26.9791 61.3266 26.7592 61.3397C26.5375 61.3529 26.3198 61.3168 26.1312 61.1871C25.9428 61.0576 25.8031 60.8482 25.7107 60.5531C25.6187 60.2592 25.5706 59.8711 25.5706 59.3684C25.5706 59.0503 25.5327 58.2151 25.4771 56.99C25.447 56.3268 25.4117 55.5495 25.3745 54.678C25.2686 52.2012 25.1472 48.9734 25.0853 45.4762C24.9616 38.4861 25.0751 30.4053 26.0296 25.0952C26.4438 22.7907 27.3554 21.5536 28.5782 20.7733C29.1842 20.3865 29.8608 20.1157 30.5765 19.8798C30.9345 19.7618 31.3041 19.652 31.6803 19.541L31.7593 19.5177C32.1108 19.4141 32.468 19.3087 32.8303 19.1933C33.8385 18.872 34.6555 18.8969 35.2254 19.2799Z" fill="#828282"/>
<path fill-rule="evenodd" clip-rule="evenodd" d="M32.5402 19.472C33.2486 19.4145 33.9481 19.4134 34.423 19.4926C34.6825 19.5358 34.8847 19.6462 35.0397 19.8124C35.192 19.9759 35.2914 20.1854 35.3617 20.4165C35.4681 20.7661 35.5165 21.1988 35.567 21.6503C35.5821 21.7855 35.5974 21.9223 35.6145 22.0591L35.6156 22.0685V22.078C35.6156 24.5864 35.7297 28.3509 35.8439 31.7189C35.8721 32.5509 35.9003 33.3589 35.9268 34.1179C36.0075 36.4279 36.0723 38.2829 36.0723 38.9728H35.7678C35.7678 38.2887 35.7034 36.4433 35.6228 34.1366C35.5963 33.376 35.568 32.5651 35.5396 31.7292C35.4256 28.3663 35.3115 24.6019 35.3112 22.0875C35.293 21.9412 35.2771 21.7993 35.2617 21.6622C35.2119 21.218 35.1679 20.8252 35.0705 20.5051C35.0076 20.2987 34.9262 20.1372 34.817 20.02C34.7104 19.9056 34.5701 19.8257 34.373 19.7928C33.9347 19.7198 33.2643 19.7187 32.5648 19.7754C31.8669 19.832 31.1545 19.9449 30.6347 20.0935L30.551 19.8008C31.0966 19.6449 31.8302 19.5295 32.5402 19.472Z" fill="#828282"/>
<path fill-rule="evenodd" clip-rule="evenodd" d="M2.6307 18.2321C3.57583 17.5108 4.93511 17.431 6.88977 17.974C9.63368 18.7362 16.2081 20.8521 18.9226 21.7818C19.9636 22.1383 21.3157 22.7552 22.4102 23.7122C23.5071 24.6713 24.3527 25.9794 24.3527 27.7096C24.3527 28.1103 24.4063 29.5489 24.4692 31.2342C24.4757 31.4099 24.4824 31.5883 24.4891 31.7684C24.5599 33.6733 24.6361 35.7731 24.6571 36.9916L24.3527 36.9968C24.3318 35.7821 24.2557 33.6858 24.1849 31.7798C24.1781 31.5972 24.1713 31.4163 24.1647 31.238C24.1021 29.5592 24.0483 28.1163 24.0483 27.7096C24.0483 26.0913 23.2611 24.8606 22.2098 23.9414C21.1562 23.0201 19.8447 22.4194 18.824 22.0698C16.1118 21.1409 9.5438 19.0272 6.8083 18.2673C4.88135 17.732 3.64406 17.8417 2.81536 18.4741C1.97887 19.1124 1.5101 20.3173 1.21539 22.1028L0.915039 22.0532C1.21101 20.2601 1.69336 18.9473 2.6307 18.2321Z" fill="#828282"/>
<path fill-rule="evenodd" clip-rule="evenodd" d="M6.02578 26.0813C5.35703 25.8625 4.6992 25.641 4.06006 25.418L4.16032 25.1306C4.94698 25.405 5.76248 25.6773 6.59227 25.9454C9.62395 26.9246 12.844 27.8464 15.5419 28.6074C15.9278 28.7163 16.3033 28.8219 16.6661 28.924C18.8351 29.5342 20.5523 30.0173 21.3606 30.306L21.2583 30.5927C20.4607 30.3078 18.7565 29.8283 16.5844 29.2172C16.2217 29.1152 15.846 29.0095 15.4592 28.9004C12.8088 28.1528 9.65021 27.2488 6.66009 26.287L6.38948 27.5913L6.38873 27.5943C6.34519 27.7685 6.25532 27.9097 6.10514 27.9533C5.95686 27.9963 5.82111 27.9235 5.73391 27.8363C5.55881 27.6612 5.45842 27.3155 5.65781 27.0164C5.76703 26.8525 5.86329 26.6036 5.94021 26.3653C5.97318 26.2632 6.00178 26.1656 6.02578 26.0813ZM6.31541 26.1757C6.29154 26.2593 6.26292 26.3566 6.22991 26.4588C6.15209 26.6999 6.04541 26.9838 5.9111 27.1852C5.80608 27.3428 5.85789 27.5298 5.94916 27.621C5.97023 27.6421 5.98906 27.6533 6.00227 27.6581C6.01446 27.6627 6.01948 27.6612 6.02025 27.661C6.02085 27.6608 6.02971 27.6583 6.04361 27.6399C6.05841 27.6202 6.07718 27.5842 6.0927 27.5233L6.36871 26.193C6.35094 26.1872 6.33317 26.1814 6.31541 26.1757Z" fill="#828282"/>
<path fill-rule="evenodd" clip-rule="evenodd" d="M6.4987 26.8438C5.66708 26.5752 4.84931 26.3021 4.06006 26.0268L4.16032 25.7394C4.94698 26.0138 5.76248 26.2861 6.59227 26.5541C9.62395 27.5334 12.844 28.4552 15.5419 29.2162C15.9278 29.325 16.3033 29.4307 16.6661 29.5328C18.8351 30.143 20.5523 30.626 21.3606 30.9148L21.2583 31.2014C20.4607 30.9166 18.7565 30.4371 16.5844 29.826C16.2217 29.724 15.846 29.6182 15.4592 29.5092C12.7611 28.7481 9.53627 27.825 6.4987 26.8438Z" fill="#828282"/>
<path fill-rule="evenodd" clip-rule="evenodd" d="M6.44315 13.3983C6.96355 13.6186 7.87102 13.9335 8.76501 14.2258C9.8532 14.5815 10.8939 14.8949 11.1456 14.9529C11.1495 14.9539 11.1534 14.9549 11.1572 14.9561C12.018 15.2279 13.0562 15.5439 14.1878 15.8883C16.8495 16.6984 20.028 17.6658 22.6303 18.5859C22.8774 18.6733 23.3483 18.7859 23.9468 18.9133C24.5421 19.04 25.2533 19.1792 25.9752 19.3205L25.9988 19.3251C27.3933 19.5979 28.8338 19.8798 29.5233 20.0905C29.894 19.9506 30.3432 19.8155 30.7424 19.6954C30.7638 19.689 30.7851 19.6826 30.8062 19.6763C30.9878 19.6216 31.1571 19.5704 31.3037 19.523C30.8787 19.4286 30.2876 19.3123 29.6275 19.1825C29.1411 19.0868 28.6172 18.9837 28.0948 18.8767C27.3232 18.7185 26.5581 18.5522 25.9324 18.3893C25.6196 18.3079 25.3397 18.2269 25.1101 18.1476C24.884 18.0695 24.695 17.9891 24.5723 17.906C24.5027 17.8588 24.4846 17.7642 24.5317 17.6946C24.5789 17.625 24.6736 17.6068 24.7431 17.654C24.8304 17.7132 24.987 17.783 25.2095 17.8598C25.4286 17.9355 25.7002 18.0143 26.0091 18.0947C26.6267 18.2555 27.3855 18.4206 28.156 18.5785C28.6645 18.6827 29.1796 18.784 29.6619 18.8789C30.6328 19.07 31.4705 19.2348 31.8532 19.3441C31.9122 19.361 31.9553 19.4116 31.9625 19.4725C31.9698 19.5333 31.9398 19.5927 31.8864 19.6229C31.7957 19.6743 31.6506 19.7286 31.4847 19.784C31.3152 19.8406 31.1108 19.9025 30.8939 19.9678L30.8344 19.9857C30.4133 20.1123 29.9517 20.2511 29.5831 20.3935C29.5508 20.406 29.5152 20.407 29.4822 20.3965C28.8327 20.1899 27.3656 19.9027 25.9167 19.6192C25.1955 19.4781 24.4816 19.3384 23.8835 19.2111C23.2887 19.0845 22.7979 18.9681 22.5288 18.8729C19.9331 17.9551 16.7675 16.9917 14.1081 16.1823C12.9765 15.8379 11.9365 15.5214 11.0712 15.2482C10.7942 15.1832 9.74759 14.8673 8.67043 14.5151C7.58863 14.1615 6.44843 13.7625 6.01798 13.5371C5.96737 13.5106 5.93587 13.4579 5.93641 13.4008C5.93695 13.3437 5.96944 13.2916 6.02054 13.2661C6.17425 13.1892 6.64536 12.9601 7.11038 12.7498C7.34274 12.6448 7.57533 12.5437 7.76673 12.4686C7.86227 12.4311 7.94952 12.3993 8.02239 12.3767C8.08927 12.3559 8.1619 12.3368 8.21949 12.3368C8.2419 12.3368 8.26402 12.3417 8.2843 12.3513C8.47156 12.4394 9.41081 12.8204 10.3519 13.1946C11.2948 13.5696 12.217 13.9288 12.3733 13.9764C12.4538 14.0008 12.4991 14.0859 12.4747 14.1663C12.4502 14.2467 12.3652 14.2921 12.2848 14.2676C12.1126 14.2153 11.1728 13.8487 10.2394 13.4775C9.35661 13.1264 8.45952 12.7632 8.19501 12.6451C8.19336 12.6455 8.19161 12.6458 8.18977 12.6462C8.16986 12.6506 8.14423 12.6576 8.11277 12.6673C8.04988 12.6869 7.97027 12.7157 7.87793 12.752C7.69357 12.8243 7.46637 12.923 7.23577 13.0272C6.94786 13.1574 6.65738 13.295 6.44315 13.3983Z" fill="#828282"/>
<path fill-rule="evenodd" clip-rule="evenodd" d="M23.9582 18.4183C23.5995 18.6587 23.1501 18.8817 22.6786 18.8817V18.5773C23.0595 18.5773 23.4471 18.3944 23.7887 18.1655C24.0507 17.9898 24.2698 17.7987 24.4305 17.6585C24.4791 17.6161 24.5223 17.5784 24.5598 17.5471L24.7547 17.781C24.7235 17.807 24.685 17.8406 24.6402 17.8797C24.4799 18.0197 24.2386 18.2303 23.9582 18.4183Z" fill="#828282"/>
<path d="M17.5037 13.8588C14.9162 13.0978 12.3287 14.011 11.2633 14.9243C11.7707 14.7213 13.2027 14.2079 15.8295 14.9243C19.178 15.8375 21.1567 17.5118 22.9832 18.7294C23.2876 18.7294 24.5052 18.7294 24.8096 17.8162C23.8964 16.9029 20.0912 14.6198 17.5037 13.8588Z" fill="#828282"/>
<path fill-rule="evenodd" clip-rule="evenodd" d="M12.1905 14.5001C12.984 14.3564 14.1881 14.3189 15.8693 14.7774C18.6786 15.5436 20.5383 16.8441 22.1281 17.9559C22.4369 18.1718 22.7355 18.3807 23.0289 18.5771C23.1996 18.5762 23.5274 18.5669 23.8524 18.4694C24.1814 18.3707 24.484 18.1894 24.6311 17.8559C24.1457 17.4052 23.0296 16.6544 21.7097 15.9131C20.325 15.1354 18.7383 14.3806 17.4605 14.0048C16.1957 13.6328 14.9286 13.6695 13.8458 13.9122C13.216 14.0533 12.6523 14.2633 12.1905 14.5001ZM13.7792 13.6151C14.9034 13.3632 16.2238 13.3238 17.5464 13.7128C18.8562 14.098 20.4658 14.8653 21.8588 15.6477C23.2479 16.4279 24.4441 17.2357 24.917 17.7085C24.9578 17.7493 24.972 17.8096 24.9538 17.8643C24.7794 18.3873 24.3441 18.6398 23.9399 18.761C23.5379 18.8816 23.1395 18.8816 22.985 18.8816H22.9829C22.9529 18.8816 22.9235 18.8727 22.8985 18.856C22.5859 18.6476 22.27 18.4269 21.9448 18.1995C20.3564 17.0894 18.5433 15.8222 15.7892 15.0711C13.1999 14.3649 11.8021 14.8726 11.3196 15.0656C11.2504 15.0932 11.1714 15.0668 11.1329 15.0031C11.0943 14.9394 11.1075 14.8571 11.164 14.8087C11.7198 14.3323 12.6574 13.8666 13.7792 13.6151Z" fill="#828282"/>
<path fill-rule="evenodd" clip-rule="evenodd" d="M14.5375 15.4556C13.714 15.5705 12.8543 15.6879 11.5327 15.3769C11.4508 15.3577 11.4001 15.2757 11.4194 15.1939C11.4386 15.1121 11.5206 15.0614 11.6024 15.0806C12.8682 15.3785 13.6828 15.2675 14.4955 15.1541L14.5106 15.152C15.3279 15.038 16.1487 14.9234 17.3883 15.2333C17.4698 15.2537 17.5194 15.3363 17.499 15.4179C17.4786 15.4994 17.396 15.549 17.3144 15.5286C16.1322 15.2331 15.3591 15.341 14.5495 15.454L14.5375 15.4556Z" fill="#828282"/>
</svg>
