<svg width="61" height="65" viewBox="0 0 61 65" fill="none" xmlns="http://www.w3.org/2000/svg">
<g clip-path="url(#clip0)">
<path d="M35.3797 9.73V5H38.0097C39.0897 5 39.9697 4.12 39.9697 3.04V1.96C39.9697 0.88 39.0897 0 38.0097 0H25.3397C24.2597 0 23.3797 0.88 23.3797 1.96V3.04C23.3797 4.12 24.2597 5 25.3397 5H28.3797V9.66C23.0397 10.28 18.1597 12.41 14.2097 15.64L18.1997 20.61C21.8397 17.62 26.4897 15.83 31.5597 15.83C43.1897 15.83 52.6197 25.26 52.6197 36.89C52.6197 48.52 43.1997 57.96 31.5697 57.96C20.7797 57.96 11.9197 49.83 10.6897 39.37H14.5797C15.4897 39.37 16.0597 38.38 15.6097 37.59L12.2597 31.79L8.90971 25.99C8.44971 25.2 7.30971 25.2 6.85971 25.99L3.50971 31.79L0.159706 37.59C-0.300294 38.38 0.269706 39.37 1.18971 39.37H4.25971C5.50971 53.36 17.2497 64.33 31.5697 64.33C46.7197 64.33 59.0097 52.05 59.0097 36.89C59.0097 23.04 48.7297 11.58 35.3797 9.73Z" fill="#818283"/>
<path d="M31.8004 39.6695H31.3004H28.8004V19.9395C22.1504 21.0195 16.7904 25.9195 15.0204 32.3195L17.9704 37.4295C18.9304 39.0995 17.7304 41.1895 15.8004 41.1895H14.9404C16.8504 48.5995 23.5604 54.0895 31.5704 54.0895C40.1204 54.0895 47.1904 47.8395 48.5104 39.6695H31.8004Z" fill="#818283"/>
<path d="M31.7998 36.6707H48.7498C48.6298 27.3607 41.1098 19.8507 31.7998 19.7207V36.6707Z" fill="#E9476F"/>
<path d="M56.3602 16.7793L50.5202 11.6793C49.8602 11.0993 49.7902 10.0993 50.3702 9.44928L51.5902 8.05928C52.1702 7.39928 53.1702 7.32928 53.8202 7.90928L59.6602 13.0093C60.3202 13.5893 60.3902 14.5893 59.8102 15.2393L58.5902 16.6293C58.0202 17.2793 57.0202 17.3493 56.3602 16.7793Z" fill="#E9476F"/>
</g>
<defs>
<clipPath id="clip0">
<rect width="60.2" height="64.33" fill="white"/>
</clipPath>
</defs>
</svg>
