<svg width="110" height="61" viewBox="0 0 110 61" fill="none" xmlns="http://www.w3.org/2000/svg">
<g clip-path="url(#clip0)">
<path d="M15.1598 15.4992C15.1598 15.4992 13.7798 16.4992 12.0298 18.1292C10.2798 19.7592 10.5298 19.2592 10.3998 21.1292C10.2698 22.9992 10.2698 22.7592 9.64983 23.3792C9.02983 23.9992 8.01983 24.8792 8.01983 24.8792L6.63983 25.2592C6.63983 25.2592 6.63983 25.0092 6.76983 26.5092C6.89983 28.0092 7.01983 27.8892 6.63983 28.7592C6.25983 29.6292 5.63983 28.7592 6.00983 30.0092C6.37983 31.2592 6.88983 32.6392 7.00983 33.3892C7.12983 34.1392 7.38983 35.6392 6.75983 35.6392C6.12983 35.6392 3.03983 35.9992 2.65983 36.2492C2.27983 36.4992 -0.340168 37.8792 0.0298319 38.4992C0.399832 39.1192 1.90983 42.4992 2.27983 43.7492C2.64983 44.9992 4.02983 48.8792 4.02983 48.8792L5.77983 45.8792C5.77983 45.8792 6.40983 44.2492 7.15983 44.2492C7.90983 44.2492 9.03983 45.7492 9.78983 44.2492C10.5398 42.7492 10.7898 42.6192 10.5398 41.8692C10.2898 41.1192 9.65983 40.2392 9.90983 39.8692C10.1598 39.4992 12.0398 38.8692 12.7898 38.6192C13.5398 38.3692 14.7898 37.9892 15.6698 38.4892C16.5498 38.9892 16.7998 38.9892 17.4198 39.7392C18.0398 40.4892 19.0498 40.2392 19.2998 40.9892C19.5498 41.7392 18.9198 42.3692 19.9298 43.2392C20.9398 44.1092 22.0598 44.6192 22.4298 44.8692C22.7998 45.1192 22.9298 45.8692 23.6798 46.1192C24.4298 46.3692 24.9298 44.9892 24.9298 44.3692C24.9298 43.7492 25.3098 43.1192 26.0598 43.1192C26.8098 43.1192 26.8098 42.1192 27.3098 42.1192C27.8098 42.1192 29.5598 42.9992 30.1898 43.3692C30.8198 43.7392 29.6898 43.3692 31.5698 43.7492C33.4498 44.1292 34.0698 44.2492 34.5698 44.3792C35.0698 44.5092 35.6998 44.5092 35.9498 45.3792C36.1998 46.2492 35.9498 47.1292 37.4498 47.7592C38.9498 48.3892 40.6998 48.3892 40.6998 48.3892C40.6998 48.3892 41.8298 49.7692 41.4498 50.6392C41.0698 51.5092 41.1998 53.2692 41.8298 53.6392C42.4598 54.0092 43.7098 54.1392 44.5798 54.8892C45.4498 55.6392 46.0798 56.0192 46.7098 56.7692C47.3398 57.5192 47.7098 58.5192 48.8398 58.5192C49.9698 58.5192 49.9698 57.1392 51.0898 57.2692C52.2098 57.3992 53.8398 55.8892 54.4698 56.6392C55.0998 57.3892 56.4698 58.1392 57.4698 58.1392C58.4698 58.1392 58.0998 56.1392 58.3498 55.7592C58.5998 55.3792 59.4798 54.1292 60.4798 55.0092C61.4798 55.8892 62.3598 56.5092 63.7298 57.3892C65.1098 58.2692 64.7298 56.5092 66.3598 57.2592C67.9898 58.0092 67.9898 58.3892 69.3598 58.5092C70.7298 58.6292 71.6098 58.1292 72.3598 57.7592C73.1098 57.3892 73.4898 56.2592 75.2398 56.1292C76.9898 55.9992 78.6198 56.1292 79.1198 55.2492C79.6198 54.3692 79.7498 52.9992 79.1198 52.2492C78.4898 51.4992 79.6198 49.8692 80.4998 49.7492C81.3798 49.6292 83.8798 48.7492 84.8798 49.7492C85.8798 50.7492 86.3798 52.1292 88.0098 52.8792C89.6398 53.6292 89.6398 53.0092 90.3898 53.1292C91.1398 53.2492 91.6398 54.0092 92.2698 54.1292C92.8998 54.2492 93.0198 52.6292 94.1498 52.3792C95.2798 52.1292 96.2798 52.8792 96.3998 54.1292C96.5198 55.3792 96.2698 57.1292 95.7698 57.5092C95.2698 57.8892 94.8898 58.5092 95.0198 59.5092C95.1498 60.5092 96.0198 61.3892 97.0198 60.7592C98.0198 60.1292 98.7698 58.6292 99.0198 57.7592C99.2698 56.8892 100.02 54.6292 99.6498 52.5092C99.2798 50.3892 100.15 48.7592 99.0198 47.7592C97.8898 46.7592 96.1398 43.8792 95.8898 43.2592C95.6398 42.6392 95.2598 42.2592 94.6398 42.3792C94.6398 42.3792 94.4198 43.1292 93.8598 43.5092C93.2998 43.8892 93.2298 44.8192 92.5198 44.3892C91.8098 43.9592 90.2398 43.5092 90.2398 42.6092C90.2398 41.7092 91.0798 40.7692 91.1798 39.9192C91.2798 39.0692 91.1498 38.9192 91.1498 37.7892C91.1498 36.6592 91.2398 36.6592 91.5898 35.9492C91.9398 35.2392 91.9298 34.0392 92.6798 33.0392C93.4298 32.0392 94.3698 31.1292 94.8398 30.8192C95.3098 30.5092 96.1198 29.6892 96.8698 29.3792C97.6198 29.0692 98.3698 28.7492 98.2098 28.3192C98.0498 27.8892 97.8698 26.9392 97.9598 26.5992C98.0498 26.2592 97.5198 25.2192 97.4898 24.5992C97.4598 23.9792 97.7398 22.4692 98.4598 22.3492C99.1798 22.2292 99.9898 21.9092 99.6498 21.3492C99.3098 20.7892 98.1498 20.8192 99.0598 19.7892C99.9698 18.7592 101.25 19.0392 101.28 19.1992C101.31 19.3592 101.44 20.7292 101.81 22.2292C102.18 23.7292 102.09 29.4492 102.97 30.4192C103.85 31.3892 103.78 31.5792 106.19 33.4792C108.6 35.3792 109.47 35.8892 109.72 34.9492C109.97 34.0092 109.41 32.9492 108.5 31.1392C107.59 29.3292 108.16 27.9492 107.37 26.8592C106.58 25.7692 105.24 25.1392 104.31 24.1992C103.38 23.2592 102.59 22.5092 102.81 21.5092C103.03 20.5092 103.47 19.3192 103.78 18.7292C104.09 18.1392 104.81 17.5392 104.56 15.7892C104.31 14.0392 104.97 11.7592 104.25 11.0092C103.53 10.2592 102.03 11.0692 101.69 9.8192C101.35 8.5692 100.47 8.28921 100.35 7.4092C100.23 6.5292 100.82 5.7792 101.85 5.6592C102.88 5.5392 103.04 4.9092 103.41 4.6592C103.78 4.4092 103.54 3.8492 103 3.4992C102.46 3.1492 102.28 2.6592 101.78 2.2192C101.28 1.7792 100.5 1.9692 100.28 3.0292C100.06 4.0892 100.12 4.1892 98.9698 4.7492C97.8198 5.3092 97.6298 5.02921 96.3098 6.24921C94.9898 7.4692 93.6198 8.30921 93.1198 9.05921C92.6198 9.80921 92.6198 11.5292 92.6198 11.5292C92.6198 11.5292 90.7798 12.2892 90.0298 13.2892C89.2798 14.2892 86.8598 14.6192 83.6998 16.3692C80.5398 18.1192 79.1198 16.7892 78.8698 16.4492C78.6198 16.1192 77.6198 14.2792 77.7898 15.6192C77.9598 16.9492 79.2898 17.2892 79.2898 18.1992C79.2898 19.1192 79.7898 19.7792 78.8698 20.6192C77.9498 21.4492 75.9498 25.1192 75.2898 23.4492C74.6198 21.7792 74.7098 19.8692 73.3698 20.1992C72.0398 20.5292 70.0398 21.6992 67.8698 22.7792C65.6998 23.8592 61.4498 23.6092 62.5398 22.2792C63.6198 20.9492 65.7098 20.0292 65.4598 18.6992C65.2098 17.3692 63.4598 16.1192 63.2098 16.1192C62.9598 16.1192 58.6298 18.1192 57.1298 19.3692C55.6298 20.6192 53.3798 22.1192 52.9598 22.1992C52.5398 22.2792 45.9598 22.3692 45.2098 21.7792C44.4598 21.1992 39.7898 19.0292 39.9598 18.7792C40.1298 18.5292 39.8798 17.6992 41.9598 16.8592C44.0398 16.0292 45.2098 15.8592 46.7098 15.3592C48.2098 14.8592 48.0398 13.6092 46.4598 13.6092C44.8798 13.6092 41.1298 14.7792 40.1298 16.1892C39.1298 17.5992 39.4598 20.7692 37.2998 21.7692C35.1398 22.7692 34.2198 21.5992 32.9698 21.0192C31.7198 20.4392 31.9698 18.7692 31.9698 18.7692C31.9698 18.7692 31.4698 16.8492 29.1398 16.5992C26.8098 16.3492 21.0598 16.0992 19.9698 15.5992C18.7398 15.1292 15.1598 15.4992 15.1598 15.4992Z" fill="#818283"/>
<path d="M97.29 40.3809C97.29 40.3809 101.54 44.8809 102.17 45.6309C102.8 46.3809 103.17 46.7609 103.05 47.3809C102.93 48.0009 101.92 49.2609 103.3 50.2609C104.68 51.2609 106.68 51.8909 105.43 52.1409C104.18 52.3909 102.8 51.7609 102.05 50.8909C101.3 50.0209 101.3 47.7609 100.17 46.3909C99.04 45.0209 96.79 41.2609 96.79 41.2609L97.29 40.3809Z" fill="#818283"/>
<path d="M22.2397 0C17.3797 0 13.4297 3.94 13.4297 8.81C13.4297 13.68 22.2397 29.25 22.2397 29.25C22.2397 29.25 31.0497 13.67 31.0497 8.81C31.0497 3.95 27.1097 0 22.2397 0Z" fill="white"/>
<path d="M22.2402 1.81055C18.3702 1.81055 15.2402 4.94055 15.2402 8.81055C15.2402 12.6805 22.2402 25.0605 22.2402 25.0605C22.2402 25.0605 29.2402 12.6805 29.2402 8.81055C29.2402 4.94055 26.1102 1.81055 22.2402 1.81055ZM22.2402 12.9405C19.8202 12.9405 17.8602 10.9805 17.8602 8.56055C17.8602 6.14055 19.8202 4.18055 22.2402 4.18055C24.6602 4.18055 26.6202 6.14055 26.6202 8.56055C26.6202 10.9805 24.6602 12.9405 22.2402 12.9405Z" fill="#E9476F"/>
<path d="M45.4904 17.4609C41.0004 17.4609 37.3604 21.1009 37.3604 25.5909C37.3604 30.0809 45.4904 44.4609 45.4904 44.4609C45.4904 44.4609 53.6203 30.0809 53.6203 25.5909C53.6203 21.1009 49.9804 17.4609 45.4904 17.4609Z" fill="white"/>
<path d="M45.4903 19.1309C41.9203 19.1309 39.0303 22.0209 39.0303 25.5909C39.0303 29.1609 45.4903 40.5909 45.4903 40.5909C45.4903 40.5909 51.9503 29.1609 51.9503 25.5909C51.9503 22.0209 49.0603 19.1309 45.4903 19.1309ZM45.4903 29.4009C43.2603 29.4009 41.4503 27.5909 41.4503 25.3609C41.4503 23.1309 43.2603 21.3209 45.4903 21.3209C47.7203 21.3209 49.5303 23.1309 49.5303 25.3609C49.5303 27.5909 47.7303 29.4009 45.4903 29.4009Z" fill="#E9476F"/>
<path d="M70.9103 21.1309C65.3403 21.1309 60.8203 25.6509 60.8203 31.2209C60.8203 36.7909 70.9103 54.6309 70.9103 54.6309C70.9103 54.6309 81.0003 36.7809 81.0003 31.2109C81.0003 25.6409 76.4803 21.1309 70.9103 21.1309Z" fill="white"/>
<path d="M70.9097 23.1992C66.4797 23.1992 62.8896 26.7892 62.8896 31.2192C62.8896 35.6492 70.9097 49.8292 70.9097 49.8292C70.9097 49.8292 78.9296 35.6492 78.9296 31.2192C78.9296 26.7892 75.3397 23.1992 70.9097 23.1992ZM70.9097 35.9392C68.1397 35.9392 65.8997 33.6992 65.8997 30.9292C65.8997 28.1592 68.1397 25.9192 70.9097 25.9192C73.6797 25.9192 75.9196 28.1592 75.9196 30.9292C75.9196 33.6992 73.6797 35.9392 70.9097 35.9392Z" fill="#E9476F"/>
<path d="M88.9099 10.1309C85.0299 10.1309 81.8799 13.2809 81.8799 17.1609C81.8799 21.0409 88.9099 33.4709 88.9099 33.4709C88.9099 33.4709 95.9399 21.0409 95.9399 17.1609C95.9399 13.2809 92.7899 10.1309 88.9099 10.1309Z" fill="white"/>
<path d="M88.9101 11.5703C85.8301 11.5703 83.3301 14.0703 83.3301 17.1503C83.3301 20.2303 88.9101 30.1103 88.9101 30.1103C88.9101 30.1103 94.4901 20.2303 94.4901 17.1503C94.4901 14.0703 92.0001 11.5703 88.9101 11.5703ZM88.9101 20.4503C86.9801 20.4503 85.4201 18.8903 85.4201 16.9603C85.4201 15.0303 86.9801 13.4703 88.9101 13.4703C90.8401 13.4703 92.4001 15.0303 92.4001 16.9603C92.4001 18.8903 90.8401 20.4503 88.9101 20.4503Z" fill="#E9476F"/>
</g>
<defs>
<clipPath id="clip0">
<rect width="109.66" height="60.96" fill="white"/>
</clipPath>
</defs>
</svg>
