<svg width="60" height="60" viewBox="0 0 60 60" fill="none" xmlns="http://www.w3.org/2000/svg">
<g clip-path="url(#clip0)">
<path d="M8.11035 9.3007L36.5303 58.5307C41.7104 57.3007 46.3703 54.7207 50.1003 51.1707L21.2604 1.2207C16.1704 2.7207 11.6604 5.5407 8.11035 9.3007Z" fill="#E9476F"/>
<path d="M29.6698 0C27.6598 0 25.6998 0.2 23.7998 0.58L33.2198 16.9L36.3298 12.5H46.3298L37.7098 24.68L39.6398 28.02C41.4698 27.16 43.5098 26.66 45.6598 26.66C51.5698 26.66 56.6398 30.29 58.7598 35.44C59.1298 33.57 59.3298 31.64 59.3298 29.66C59.3298 13.28 46.0498 0 29.6698 0Z" fill="#818283"/>
<path d="M22.17 46.6691H12.17L20.21 35.2991L18.08 31.6191C16.24 32.4891 14.18 32.9991 12 32.9991C7.05 32.9991 2.71 30.4591 0.17 26.6191C0.07 27.6191 0 28.6391 0 29.6691C0 46.0491 13.28 59.3391 29.67 59.3391C31.11 59.3391 32.53 59.2291 33.91 59.0291L24.7 43.0791L22.17 46.6691Z" fill="#818283"/>
</g>
<defs>
<clipPath id="clip0">
<rect width="59.33" height="59.33" fill="white"/>
</clipPath>
</defs>
</svg>
