<svg width="388" height="234" viewBox="0 0 388 234" fill="none" xmlns="http://www.w3.org/2000/svg">
<rect width="388" height="234" rx="5" fill="#C4C4C4"/>
<rect y="29.0762" width="388" height="45.6923" fill="#505050"/>
<rect x="12.4717" y="91.3848" width="363.057" height="42.9231" fill="white"/>
<path d="M170.968 118.385H170.03V108.135L166.936 109.283V108.408L170.811 106.971H170.968V118.385ZM182.616 118.385H175.491V117.666L179.39 113.244C180.035 112.499 180.483 111.885 180.733 111.4C180.983 110.916 181.108 110.445 181.108 109.986C181.108 109.268 180.897 108.7 180.475 108.283C180.054 107.861 179.473 107.65 178.733 107.65C177.968 107.65 177.348 107.895 176.874 108.385C176.405 108.874 176.171 109.51 176.171 110.291H175.241C175.241 109.65 175.384 109.067 175.671 108.541C175.962 108.015 176.374 107.604 176.905 107.307C177.442 107.005 178.051 106.854 178.733 106.854C179.775 106.854 180.587 107.127 181.171 107.674C181.759 108.221 182.054 108.965 182.054 109.908C182.054 110.439 181.887 111.02 181.554 111.65C181.225 112.281 180.645 113.067 179.811 114.01L176.64 117.596H182.616V118.385ZM186.444 112.189H187.413C187.949 112.189 188.418 112.096 188.819 111.908C189.22 111.715 189.525 111.455 189.733 111.127C189.947 110.794 190.054 110.411 190.054 109.979C190.054 109.249 189.848 108.679 189.436 108.268C189.025 107.856 188.434 107.65 187.663 107.65C186.934 107.65 186.335 107.867 185.866 108.299C185.403 108.726 185.171 109.291 185.171 109.994H184.233C184.233 109.406 184.382 108.869 184.679 108.385C184.975 107.895 185.387 107.518 185.913 107.252C186.439 106.986 187.022 106.854 187.663 106.854C188.694 106.854 189.507 107.135 190.1 107.697C190.694 108.26 190.991 109.031 190.991 110.01C190.991 110.557 190.817 111.062 190.468 111.525C190.124 111.984 189.65 112.327 189.046 112.557C189.754 112.755 190.291 113.096 190.655 113.58C191.02 114.059 191.202 114.632 191.202 115.299C191.202 116.273 190.884 117.057 190.249 117.65C189.613 118.244 188.765 118.541 187.702 118.541C187.025 118.541 186.403 118.406 185.835 118.135C185.272 117.864 184.835 117.486 184.522 117.002C184.215 116.512 184.061 115.945 184.061 115.299H184.999C184.999 116.023 185.252 116.614 185.757 117.072C186.262 117.525 186.91 117.752 187.702 117.752C188.509 117.752 189.137 117.546 189.585 117.135C190.038 116.718 190.265 116.117 190.265 115.33C190.265 114.57 190.02 113.989 189.53 113.588C189.046 113.187 188.33 112.986 187.382 112.986H186.444V112.189ZM198.983 114.721H200.757V115.51H198.983V118.385H198.046V115.51H192.694V114.979L197.96 107.01H198.983V114.721ZM193.843 114.721H198.046V108.221L197.632 108.939L193.843 114.721ZM206.64 112.557L207.194 107.01H212.882V107.877H207.999L207.6 111.721C208.21 111.304 208.923 111.096 209.741 111.096C210.767 111.096 211.585 111.429 212.194 112.096C212.804 112.762 213.108 113.65 213.108 114.76C213.108 115.958 212.811 116.887 212.218 117.549C211.624 118.21 210.788 118.541 209.71 118.541C208.72 118.541 207.918 118.265 207.304 117.713C206.689 117.161 206.337 116.387 206.249 115.393H207.147C207.236 116.169 207.499 116.757 207.936 117.158C208.374 117.554 208.965 117.752 209.71 117.752C210.522 117.752 211.134 117.494 211.546 116.979C211.962 116.463 212.171 115.729 212.171 114.775C212.171 113.942 211.939 113.262 211.475 112.736C211.012 112.21 210.379 111.947 209.577 111.947C209.134 111.947 208.749 112.005 208.421 112.119C208.093 112.229 207.746 112.445 207.382 112.768L206.64 112.557ZM220.397 106.924V107.744H220.288C218.929 107.744 217.858 108.145 217.077 108.947C216.296 109.744 215.863 110.854 215.78 112.275C216.093 111.843 216.491 111.51 216.975 111.275C217.46 111.036 218.002 110.916 218.6 110.916C219.6 110.916 220.395 111.262 220.983 111.955C221.577 112.643 221.874 113.544 221.874 114.658C221.874 115.398 221.736 116.064 221.46 116.658C221.184 117.252 220.788 117.715 220.272 118.049C219.757 118.377 219.168 118.541 218.507 118.541C217.418 118.541 216.533 118.148 215.85 117.361C215.168 116.57 214.827 115.549 214.827 114.299V113.361C214.827 111.325 215.291 109.749 216.218 108.635C217.145 107.515 218.46 106.945 220.163 106.924H220.397ZM218.452 111.721C217.858 111.721 217.304 111.898 216.788 112.252C216.278 112.601 215.936 113.046 215.765 113.588V114.385C215.765 115.374 216.017 116.182 216.522 116.807C217.033 117.432 217.694 117.744 218.507 117.744C219.236 117.744 219.824 117.455 220.272 116.877C220.725 116.299 220.952 115.57 220.952 114.689C220.952 113.794 220.725 113.075 220.272 112.533C219.824 111.992 219.218 111.721 218.452 111.721ZM230.765 107.549L225.905 118.385H224.929L229.757 107.807H223.288V107.01H230.765V107.549ZM239.335 109.939C239.335 110.528 239.163 111.057 238.819 111.525C238.475 111.989 238.022 112.33 237.46 112.549C238.116 112.773 238.642 113.135 239.038 113.635C239.434 114.135 239.632 114.713 239.632 115.369C239.632 116.343 239.301 117.117 238.64 117.689C237.978 118.257 237.103 118.541 236.015 118.541C234.916 118.541 234.035 118.257 233.374 117.689C232.718 117.122 232.39 116.348 232.39 115.369C232.39 114.723 232.58 114.148 232.96 113.643C233.34 113.137 233.861 112.773 234.522 112.549C233.96 112.33 233.512 111.989 233.179 111.525C232.845 111.057 232.679 110.528 232.679 109.939C232.679 108.997 232.981 108.247 233.585 107.689C234.194 107.132 234.999 106.854 235.999 106.854C236.999 106.854 237.804 107.135 238.413 107.697C239.028 108.26 239.335 109.007 239.335 109.939ZM238.694 115.377C238.694 114.669 238.442 114.088 237.936 113.635C237.431 113.176 236.785 112.947 235.999 112.947C235.212 112.947 234.569 113.171 234.069 113.619C233.569 114.067 233.319 114.653 233.319 115.377C233.319 116.101 233.561 116.679 234.046 117.111C234.53 117.538 235.186 117.752 236.015 117.752C236.822 117.752 237.47 117.538 237.96 117.111C238.449 116.684 238.694 116.106 238.694 115.377ZM238.397 109.932C238.397 109.281 238.171 108.739 237.718 108.307C237.27 107.869 236.697 107.65 235.999 107.65C235.291 107.65 234.715 107.861 234.272 108.283C233.835 108.7 233.616 109.249 233.616 109.932C233.616 110.598 233.835 111.135 234.272 111.541C234.715 111.947 235.293 112.15 236.007 112.15C236.71 112.15 237.283 111.947 237.725 111.541C238.173 111.13 238.397 110.593 238.397 109.932ZM251.233 113.119C250.9 113.609 250.486 113.989 249.991 114.26C249.496 114.525 248.96 114.658 248.382 114.658C247.736 114.658 247.166 114.492 246.671 114.158C246.176 113.825 245.793 113.364 245.522 112.775C245.252 112.187 245.116 111.544 245.116 110.846C245.116 110.096 245.259 109.413 245.546 108.799C245.837 108.184 246.241 107.708 246.757 107.369C247.278 107.025 247.877 106.854 248.554 106.854C249.694 106.854 250.582 107.255 251.218 108.057C251.853 108.854 252.171 109.986 252.171 111.455V112.299C252.171 114.351 251.733 115.893 250.858 116.924C249.983 117.955 248.647 118.471 246.85 118.471H246.679L246.686 117.658H247.015C248.374 117.637 249.408 117.252 250.116 116.502C250.824 115.752 251.197 114.624 251.233 113.119ZM248.499 113.854C249.124 113.854 249.684 113.669 250.179 113.299C250.679 112.924 251.033 112.439 251.241 111.846V111.307C251.241 110.15 250.999 109.255 250.515 108.619C250.035 107.979 249.387 107.658 248.569 107.658C247.83 107.658 247.223 107.958 246.749 108.557C246.275 109.15 246.038 109.9 246.038 110.807C246.038 111.676 246.265 112.403 246.718 112.986C247.176 113.564 247.77 113.854 248.499 113.854ZM261.132 113.643C261.132 115.247 260.837 116.465 260.249 117.299C259.66 118.127 258.793 118.541 257.647 118.541C256.522 118.541 255.66 118.135 255.061 117.322C254.462 116.505 254.155 115.317 254.14 113.76V111.721C254.14 110.122 254.436 108.911 255.03 108.088C255.624 107.265 256.491 106.854 257.632 106.854C258.757 106.854 259.616 107.252 260.21 108.049C260.804 108.84 261.111 110.01 261.132 111.557V113.643ZM260.194 111.604C260.194 110.301 259.981 109.317 259.554 108.65C259.132 107.984 258.491 107.65 257.632 107.65C256.788 107.65 256.153 107.976 255.725 108.627C255.298 109.278 255.08 110.239 255.069 111.51V113.744C255.069 115.041 255.288 116.033 255.725 116.721C256.168 117.408 256.809 117.752 257.647 117.752C258.481 117.752 259.111 117.416 259.538 116.744C259.97 116.072 260.189 115.088 260.194 113.791V111.604ZM267.499 118.385H266.561V108.135L263.468 109.283V108.408L267.343 106.971H267.499V118.385ZM279.147 118.385H272.022V117.666L275.921 113.244C276.567 112.499 277.015 111.885 277.265 111.4C277.515 110.916 277.64 110.445 277.64 109.986C277.64 109.268 277.429 108.7 277.007 108.283C276.585 107.861 276.004 107.65 275.265 107.65C274.499 107.65 273.879 107.895 273.405 108.385C272.936 108.874 272.702 109.51 272.702 110.291H271.772C271.772 109.65 271.916 109.067 272.202 108.541C272.494 108.015 272.905 107.604 273.436 107.307C273.973 107.005 274.582 106.854 275.265 106.854C276.306 106.854 277.119 107.127 277.702 107.674C278.291 108.221 278.585 108.965 278.585 109.908C278.585 110.439 278.418 111.02 278.085 111.65C277.757 112.281 277.176 113.067 276.343 114.01L273.171 117.596H279.147V118.385ZM286.866 112.189H287.835C288.371 112.189 288.84 112.096 289.241 111.908C289.642 111.715 289.947 111.455 290.155 111.127C290.369 110.794 290.475 110.411 290.475 109.979C290.475 109.249 290.27 108.679 289.858 108.268C289.447 107.856 288.856 107.65 288.085 107.65C287.356 107.65 286.757 107.867 286.288 108.299C285.824 108.726 285.593 109.291 285.593 109.994H284.655C284.655 109.406 284.804 108.869 285.1 108.385C285.397 107.895 285.809 107.518 286.335 107.252C286.861 106.986 287.444 106.854 288.085 106.854C289.116 106.854 289.929 107.135 290.522 107.697C291.116 108.26 291.413 109.031 291.413 110.01C291.413 110.557 291.238 111.062 290.89 111.525C290.546 111.984 290.072 112.327 289.468 112.557C290.176 112.755 290.712 113.096 291.077 113.58C291.442 114.059 291.624 114.632 291.624 115.299C291.624 116.273 291.306 117.057 290.671 117.65C290.035 118.244 289.186 118.541 288.124 118.541C287.447 118.541 286.824 118.406 286.257 118.135C285.694 117.864 285.257 117.486 284.944 117.002C284.637 116.512 284.483 115.945 284.483 115.299H285.421C285.421 116.023 285.673 116.614 286.179 117.072C286.684 117.525 287.332 117.752 288.124 117.752C288.931 117.752 289.559 117.546 290.007 117.135C290.46 116.718 290.686 116.117 290.686 115.33C290.686 114.57 290.442 113.989 289.952 113.588C289.468 113.187 288.752 112.986 287.804 112.986H286.866V112.189ZM299.405 114.721H301.179V115.51H299.405V118.385H298.468V115.51H293.116V114.979L298.382 107.01H299.405V114.721ZM294.265 114.721H298.468V108.221L298.054 108.939L294.265 114.721ZM303.171 112.557L303.725 107.01H309.413V107.877H304.53L304.132 111.721C304.741 111.304 305.455 111.096 306.272 111.096C307.298 111.096 308.116 111.429 308.725 112.096C309.335 112.762 309.64 113.65 309.64 114.76C309.64 115.958 309.343 116.887 308.749 117.549C308.155 118.21 307.319 118.541 306.241 118.541C305.252 118.541 304.449 118.265 303.835 117.713C303.22 117.161 302.869 116.387 302.78 115.393H303.679C303.767 116.169 304.03 116.757 304.468 117.158C304.905 117.554 305.496 117.752 306.241 117.752C307.054 117.752 307.666 117.494 308.077 116.979C308.494 116.463 308.702 115.729 308.702 114.775C308.702 113.942 308.47 113.262 308.007 112.736C307.543 112.21 306.91 111.947 306.108 111.947C305.666 111.947 305.28 112.005 304.952 112.119C304.624 112.229 304.278 112.445 303.913 112.768L303.171 112.557ZM316.929 106.924V107.744H316.819C315.46 107.744 314.39 108.145 313.608 108.947C312.827 109.744 312.395 110.854 312.311 112.275C312.624 111.843 313.022 111.51 313.507 111.275C313.991 111.036 314.533 110.916 315.132 110.916C316.132 110.916 316.926 111.262 317.515 111.955C318.108 112.643 318.405 113.544 318.405 114.658C318.405 115.398 318.267 116.064 317.991 116.658C317.715 117.252 317.319 117.715 316.804 118.049C316.288 118.377 315.699 118.541 315.038 118.541C313.949 118.541 313.064 118.148 312.382 117.361C311.699 116.57 311.358 115.549 311.358 114.299V113.361C311.358 111.325 311.822 109.749 312.749 108.635C313.676 107.515 314.991 106.945 316.694 106.924H316.929ZM314.983 111.721C314.39 111.721 313.835 111.898 313.319 112.252C312.809 112.601 312.468 113.046 312.296 113.588V114.385C312.296 115.374 312.548 116.182 313.054 116.807C313.564 117.432 314.225 117.744 315.038 117.744C315.767 117.744 316.356 117.455 316.804 116.877C317.257 116.299 317.483 115.57 317.483 114.689C317.483 113.794 317.257 113.075 316.804 112.533C316.356 111.992 315.749 111.721 314.983 111.721ZM338.968 107.549L334.108 118.385H333.132L337.96 107.807H331.491V107.01H338.968V107.549ZM347.538 109.939C347.538 110.528 347.366 111.057 347.022 111.525C346.679 111.989 346.225 112.33 345.663 112.549C346.319 112.773 346.845 113.135 347.241 113.635C347.637 114.135 347.835 114.713 347.835 115.369C347.835 116.343 347.504 117.117 346.843 117.689C346.181 118.257 345.306 118.541 344.218 118.541C343.119 118.541 342.238 118.257 341.577 117.689C340.921 117.122 340.593 116.348 340.593 115.369C340.593 114.723 340.783 114.148 341.163 113.643C341.543 113.137 342.064 112.773 342.725 112.549C342.163 112.33 341.715 111.989 341.382 111.525C341.048 111.057 340.882 110.528 340.882 109.939C340.882 108.997 341.184 108.247 341.788 107.689C342.397 107.132 343.202 106.854 344.202 106.854C345.202 106.854 346.007 107.135 346.616 107.697C347.231 108.26 347.538 109.007 347.538 109.939ZM346.897 115.377C346.897 114.669 346.645 114.088 346.14 113.635C345.634 113.176 344.988 112.947 344.202 112.947C343.416 112.947 342.772 113.171 342.272 113.619C341.772 114.067 341.522 114.653 341.522 115.377C341.522 116.101 341.765 116.679 342.249 117.111C342.733 117.538 343.39 117.752 344.218 117.752C345.025 117.752 345.673 117.538 346.163 117.111C346.653 116.684 346.897 116.106 346.897 115.377ZM346.6 109.932C346.6 109.281 346.374 108.739 345.921 108.307C345.473 107.869 344.9 107.65 344.202 107.65C343.494 107.65 342.918 107.861 342.475 108.283C342.038 108.7 341.819 109.249 341.819 109.932C341.819 110.598 342.038 111.135 342.475 111.541C342.918 111.947 343.496 112.15 344.21 112.15C344.913 112.15 345.486 111.947 345.929 111.541C346.377 111.13 346.6 110.593 346.6 109.932ZM355.546 113.119C355.212 113.609 354.798 113.989 354.304 114.26C353.809 114.525 353.272 114.658 352.694 114.658C352.048 114.658 351.478 114.492 350.983 114.158C350.488 113.825 350.106 113.364 349.835 112.775C349.564 112.187 349.429 111.544 349.429 110.846C349.429 110.096 349.572 109.413 349.858 108.799C350.15 108.184 350.554 107.708 351.069 107.369C351.59 107.025 352.189 106.854 352.866 106.854C354.007 106.854 354.895 107.255 355.53 108.057C356.166 108.854 356.483 109.986 356.483 111.455V112.299C356.483 114.351 356.046 115.893 355.171 116.924C354.296 117.955 352.96 118.471 351.163 118.471H350.991L350.999 117.658H351.327C352.686 117.637 353.72 117.252 354.429 116.502C355.137 115.752 355.509 114.624 355.546 113.119ZM352.811 113.854C353.436 113.854 353.996 113.669 354.491 113.299C354.991 112.924 355.345 112.439 355.554 111.846V111.307C355.554 110.15 355.311 109.255 354.827 108.619C354.348 107.979 353.699 107.658 352.882 107.658C352.142 107.658 351.535 107.958 351.061 108.557C350.587 109.15 350.35 109.9 350.35 110.807C350.35 111.676 350.577 112.403 351.03 112.986C351.488 113.564 352.082 113.854 352.811 113.854Z" fill="black"/>
<circle cx="347" cy="113" r="26.5" stroke="#FF0A12"/>
</svg>
