<svg width="42" height="34" viewBox="0 0 42 34" fill="none" xmlns="http://www.w3.org/2000/svg">
<path d="M41.5691 16.0275C41.5691 17.0803 41.5691 18.1478 41.5691 19.2006C41.3669 20.7214 41.0348 22.2129 40.3994 23.6168C38.2476 28.34 34.7095 31.4985 29.8717 33.1801C28.6153 33.6188 27.3012 33.8382 25.9726 33.999C22.5067 33.999 19.0408 33.999 15.5749 33.999C15.4305 33.9698 15.3005 33.9405 15.1561 33.9259C13.1488 33.7358 11.2281 33.1655 9.43738 32.2297C7.48781 31.206 5.78375 29.8607 4.35406 28.1352C2.86662 26.3366 1.76908 24.3333 1.13367 22.0667C0.80152 20.8676 0.628225 19.6539 0.512695 18.411C0.512695 17.8699 0.512695 17.3143 0.512695 16.7732C0.57046 16.2322 0.628225 15.6911 0.68599 15.1501C1.11923 11.8453 2.37562 8.90609 4.57068 6.4202C6.78019 3.91968 9.53847 2.31115 12.7444 1.49227C13.842 1.21444 14.9684 1.09745 16.0948 0.980469C19.1997 0.980469 22.3045 0.980469 25.4094 0.980469C26.0737 1.05358 26.738 1.08283 27.3878 1.19981C31.3736 1.93096 34.7962 3.68571 37.5256 6.77115C38.7386 8.1457 39.6918 9.66648 40.3994 11.3627C41.0492 12.8689 41.3814 14.4336 41.5691 16.0275ZM31.8069 17.519C31.8069 9.2278 25.1928 2.47201 17.0335 2.45738C8.91749 2.45738 2.21676 9.1693 2.17344 17.3289C2.13011 25.4885 8.41205 32.5367 17.0046 32.5221C25.6116 32.5075 31.8069 25.4885 31.8069 17.519Z" fill="#09457C"/>
<path d="M20.3115 17.5189C20.3115 14.7845 20.3115 12.0353 20.3115 9.30086C20.3115 8.56971 20.3837 8.51122 21.048 8.84754C24.5139 10.6754 26.4346 13.5561 26.4202 17.5482C26.4057 21.511 24.4706 24.3625 21.0191 26.1757C20.3982 26.4974 20.3115 26.4389 20.3115 25.737C20.3115 22.9879 20.3115 20.2534 20.3115 17.5189Z" fill="#09457C"/>
<path d="M13.6539 17.5767C13.6539 20.2673 13.6539 22.9433 13.6539 25.6339C13.6539 26.4674 13.5962 26.5259 12.8452 26.1165C9.32155 24.2155 7.44419 21.2324 7.55972 17.1965C7.67525 13.3214 9.62481 10.5284 13.0618 8.80291C13.5528 8.55432 13.6539 8.61282 13.6539 9.19773C13.6684 11.9761 13.6539 14.7691 13.6539 17.5767Z" fill="#09457C"/>
</svg>
