<svg width="188" height="230" viewBox="0 0 188 230" fill="none" xmlns="http://www.w3.org/2000/svg">
<path fill-rule="evenodd" clip-rule="evenodd" d="M106.846 21.8033C105.495 22.8052 102.685 24.1863 100.306 22.4532C99.0363 19.8807 100.063 18.4726 101.631 16.9562C104.441 14.7899 104.63 13.0298 102.955 12.407C107.603 10.6469 110.278 15.0607 106.765 16.7937L106.63 16.8479L107.117 17.0916C117.305 23.2114 116.467 38.1048 103.901 43.006C105.279 39.0254 105.279 34.5845 103.955 30.5769L103.928 30.4415C104.144 30.4685 104.387 30.4956 104.603 30.4956C106.738 30.4956 108.495 28.7626 108.495 26.5963C108.495 25.2153 107.792 24.0238 106.738 23.3197C106.63 23.2385 106.549 23.1843 106.441 23.1302C106.306 23.0489 106.198 22.9948 106.063 22.9406C106.414 22.8323 107.549 22.047 106.846 21.8033ZM102.117 23.753L99.766 24.8632C99.847 24.2404 99.9281 23.6718 100.225 22.9136C100.658 23.428 101.496 23.6447 102.117 23.753ZM103.36 20.5035C103.333 20.0974 102.982 19.7724 102.576 19.7995C102.171 19.8266 101.847 20.1786 101.874 20.5848C101.901 20.991 102.252 21.3159 102.658 21.2888C103.063 21.2617 103.387 20.9097 103.36 20.5035ZM110.036 14.3836C108.063 14.167 109.333 11.8653 111.252 12.461C112.684 12.8943 113.036 14.7086 112.09 15.5209C110.766 16.6582 109.496 16.6853 107.847 16.6853C109.658 16.0354 110.604 15.3043 110.387 14.4378C110.227 13.7938 110.184 13.9652 110.135 14.1635C110.109 14.2654 110.082 14.3744 110.036 14.3836ZM79.4444 21.668H88.7137C88.9365 21.6786 89.2009 21.686 89.497 21.6943L89.4971 21.6943L89.4972 21.6943L89.4973 21.6943C91.4636 21.7492 94.8233 21.843 96.6317 23.1844C92.6086 15.8209 87.7248 15.6763 81.2918 15.4858H81.2917C80.2492 15.4549 79.166 15.4228 78.0391 15.3586C71.5923 15.3586 68.45 13.4403 67.2334 12.6975L67.2334 12.6975C67.1734 12.6609 67.1181 12.6271 67.0673 12.5966C66.3917 12.6237 70.8237 21.668 79.4444 21.668ZM82.3907 36.9947C81.7691 30.0896 94.7137 30.4957 91.66 36.3989C91.5249 36.0469 90.9303 36.0469 90.6601 36.2635C90.3358 36.5072 90.3358 37.3738 91.0925 37.7799C93.2274 39.1339 98.5241 38.5111 101.118 31.6601C99.4429 44.0893 83.2555 46.6347 82.3907 36.9947ZM68.2828 36.2363C70.796 30.9559 75.0929 30.2248 78.2817 31.6058C79.4438 32.2286 79.7951 33.1493 79.4438 34.0429C78.633 31.9307 75.5523 32.7702 74.9307 35.9384C72.1472 50.1548 101.55 52.9439 102.685 31.3079C103.009 32.6889 103.198 34.1241 103.198 35.6135C103.198 45.8763 94.6043 54.2166 83.9838 54.2166C82.4705 54.2166 81.0112 54.0541 79.6059 53.7292C79.2005 53.6208 78.8222 53.5125 78.4168 53.3771C68.7692 49.9381 65.7965 41.5166 68.2828 36.2363ZM102.469 45.7952C101.929 47.9615 100.929 49.9653 99.5504 51.6713C96.5778 55.2728 92.0107 57.6015 86.8761 57.6286C83.7413 57.6015 80.8497 56.7079 78.3905 55.1915C78.5045 55.2405 78.6184 55.2796 78.7383 55.3207L78.7384 55.3207L78.7385 55.3208L78.7386 55.3208L78.7387 55.3208L78.7388 55.3209C78.8177 55.348 78.8993 55.3759 78.985 55.4082C79.3904 55.5435 79.7958 55.6789 80.2011 55.7873C81.6604 56.1122 83.1738 56.3018 84.7412 56.3018C92.4701 56.3018 99.1721 52.0504 102.469 45.7952ZM96.1456 28.2483H84.0388C79.2555 28.2483 76.1477 24.7281 74.9317 22.6971C76.3099 23.2387 78.6069 23.5637 80.2824 23.5637L89.9301 23.6449C96.497 23.4012 100.145 25.73 102.01 29.6022C100.406 28.4163 97.6493 28.3076 96.2573 28.2527L96.1456 28.2483ZM120.387 17.8228C120.306 21.7492 116.955 22.8865 114.55 22.9677C113.928 21.6409 113.09 20.3953 112.117 19.3121C114.523 19.6371 118.792 18.933 120.387 17.8228ZM115.954 28.6001C119.305 27.9231 119.926 24.8091 119.791 22.2095C118.548 23.5635 116.63 24.0779 115.062 24.1863C115.603 25.5944 115.9 27.1108 115.954 28.6001ZM119.089 28.1938C118.576 31.01 117.306 33.6366 115.036 34.2053C115.576 32.7701 115.927 31.2808 115.982 29.7373C117.333 29.4665 118.36 28.9249 119.089 28.1938ZM113.024 18.0192C113.047 18.0449 113.069 18.0698 113.09 18.0937C110.199 18.6082 108.496 17.5792 108.091 17.2813C109.172 17.3626 110.091 17.3626 111.009 16.9564C111.782 16.6207 112.556 17.4915 113.024 18.0192Z" fill="#FF2A00"/>
<path fill-rule="evenodd" clip-rule="evenodd" d="M106.846 91.8033C105.495 92.8052 102.685 94.1863 100.306 92.4532C99.0363 89.8807 100.063 88.4726 101.631 86.9562C104.441 84.7899 104.63 83.0298 102.955 82.407C107.603 80.6469 110.278 85.0607 106.765 86.7937L106.63 86.8479L107.117 87.0916C117.305 93.2114 116.467 108.105 103.901 113.006C105.279 109.025 105.279 104.585 103.955 100.577L103.928 100.441C104.144 100.469 104.387 100.496 104.603 100.496C106.738 100.496 108.495 98.7626 108.495 96.5963C108.495 95.2153 107.792 94.0238 106.738 93.3197C106.63 93.2385 106.549 93.1843 106.441 93.1302C106.306 93.0489 106.198 92.9948 106.063 92.9406C106.414 92.8323 107.549 92.047 106.846 91.8033ZM102.117 93.753L99.766 94.8632C99.847 94.2404 99.9281 93.6718 100.225 92.9136C100.658 93.428 101.496 93.6447 102.117 93.753ZM103.36 90.5035C103.333 90.0974 102.982 89.7724 102.576 89.7995C102.171 89.8266 101.847 90.1786 101.874 90.5848C101.901 90.991 102.252 91.3159 102.658 91.2888C103.063 91.2617 103.387 90.9097 103.36 90.5035ZM110.036 84.3836C108.063 84.167 109.333 81.8653 111.252 82.461C112.684 82.8943 113.036 84.7086 112.09 85.5209C110.766 86.6582 109.496 86.6853 107.847 86.6853C109.658 86.0354 110.604 85.3043 110.387 84.4378C110.227 83.7938 110.184 83.9652 110.135 84.1635C110.109 84.2654 110.082 84.3744 110.036 84.3836ZM79.4444 91.668H88.7137C88.9365 91.6786 89.2009 91.686 89.497 91.6943L89.4971 91.6943L89.4972 91.6943L89.4973 91.6943C91.4636 91.7492 94.8233 91.843 96.6317 93.1844C92.6086 85.8209 87.7248 85.6763 81.2918 85.4858H81.2917C80.2492 85.4549 79.166 85.4228 78.0391 85.3586C71.5923 85.3586 68.45 83.4403 67.2334 82.6975L67.2334 82.6975C67.1734 82.6609 67.1181 82.6271 67.0673 82.5966C66.3917 82.6237 70.8237 91.668 79.4444 91.668ZM82.3907 106.995C81.7691 100.09 94.7137 100.496 91.66 106.399C91.5249 106.047 90.9303 106.047 90.6601 106.264C90.3358 106.507 90.3358 107.374 91.0925 107.78C93.2274 109.134 98.5241 108.511 101.118 101.66C99.4429 114.089 83.2555 116.635 82.3907 106.995ZM68.2828 106.236C70.796 100.956 75.0929 100.225 78.2817 101.606C79.4438 102.229 79.7951 103.149 79.4438 104.043C78.633 101.931 75.5523 102.77 74.9307 105.938C72.1472 120.155 101.55 122.944 102.685 101.308C103.009 102.689 103.198 104.124 103.198 105.613C103.198 115.876 94.6043 124.217 83.9838 124.217C82.4705 124.217 81.0112 124.054 79.6059 123.729C79.2005 123.621 78.8222 123.513 78.4168 123.377C68.7692 119.938 65.7965 111.517 68.2828 106.236ZM102.469 115.795C101.929 117.961 100.929 119.965 99.5504 121.671C96.5778 125.273 92.0107 127.602 86.8761 127.629C83.7413 127.602 80.8497 126.708 78.3905 125.192C78.5045 125.24 78.6184 125.28 78.7383 125.321L78.7384 125.321L78.7385 125.321L78.7386 125.321L78.7387 125.321L78.7388 125.321C78.8177 125.348 78.8993 125.376 78.985 125.408C79.3904 125.544 79.7958 125.679 80.2011 125.787C81.6604 126.112 83.1738 126.302 84.7412 126.302C92.4701 126.302 99.1721 122.05 102.469 115.795ZM96.1456 98.2483H84.0388C79.2555 98.2483 76.1477 94.7281 74.9317 92.6971C76.3099 93.2387 78.6069 93.5637 80.2824 93.5637L89.9301 93.6449C96.497 93.4012 100.145 95.73 102.01 99.6022C100.406 98.4163 97.6493 98.3076 96.2573 98.2527L96.1456 98.2483ZM120.387 87.8228C120.306 91.7492 116.955 92.8865 114.55 92.9677C113.928 91.6409 113.09 90.3953 112.117 89.3121C114.523 89.6371 118.792 88.933 120.387 87.8228ZM115.954 98.6001C119.305 97.9231 119.926 94.8091 119.791 92.2095C118.548 93.5635 116.63 94.0779 115.062 94.1863C115.603 95.5944 115.9 97.1108 115.954 98.6001ZM119.089 98.1938C118.576 101.01 117.306 103.637 115.036 104.205C115.576 102.77 115.927 101.281 115.982 99.7373C117.333 99.4665 118.36 98.9249 119.089 98.1938ZM113.024 88.0192C113.047 88.0449 113.069 88.0698 113.09 88.0937C110.199 88.6082 108.496 87.5792 108.091 87.2813C109.172 87.3626 110.091 87.3626 111.009 86.9564C111.782 86.6207 112.556 87.4915 113.024 88.0192Z" fill="#504F54"/>
<rect width="188" height="90" transform="translate(0 140)" fill="#FF2A00"/>
<path fill-rule="evenodd" clip-rule="evenodd" d="M106.846 171.803C105.495 172.805 102.685 174.186 100.306 172.453C99.0363 169.881 100.063 168.473 101.631 166.956C104.441 164.79 104.63 163.03 102.955 162.407C107.603 160.647 110.278 165.061 106.765 166.794L106.63 166.848L107.117 167.092C117.305 173.211 116.467 188.105 103.901 193.006C105.279 189.025 105.279 184.585 103.955 180.577L103.928 180.441C104.144 180.469 104.387 180.496 104.603 180.496C106.738 180.496 108.495 178.763 108.495 176.596C108.495 175.215 107.792 174.024 106.738 173.32C106.63 173.238 106.549 173.184 106.441 173.13C106.306 173.049 106.198 172.995 106.063 172.941C106.414 172.832 107.549 172.047 106.846 171.803ZM102.117 173.753L99.766 174.863C99.847 174.24 99.9281 173.672 100.225 172.914C100.658 173.428 101.496 173.645 102.117 173.753ZM103.36 170.504C103.333 170.097 102.982 169.772 102.576 169.799C102.171 169.827 101.847 170.179 101.874 170.585C101.901 170.991 102.252 171.316 102.658 171.289C103.063 171.262 103.387 170.91 103.36 170.504ZM110.036 164.384C108.063 164.167 109.333 161.865 111.252 162.461C112.684 162.894 113.036 164.709 112.09 165.521C110.766 166.658 109.496 166.685 107.847 166.685C109.658 166.035 110.604 165.304 110.387 164.438C110.227 163.794 110.184 163.965 110.135 164.164C110.109 164.265 110.082 164.374 110.036 164.384ZM79.4444 171.668H88.7137C88.9365 171.679 89.2009 171.686 89.497 171.694L89.4971 171.694L89.4972 171.694L89.4973 171.694C91.4636 171.749 94.8233 171.843 96.6317 173.184C92.6086 165.821 87.7248 165.676 81.2918 165.486H81.2917C80.2492 165.455 79.166 165.423 78.0391 165.359C71.5923 165.359 68.45 163.44 67.2334 162.698L67.2334 162.698C67.1734 162.661 67.1181 162.627 67.0673 162.597C66.3917 162.624 70.8237 171.668 79.4444 171.668ZM82.3907 186.995C81.7691 180.09 94.7137 180.496 91.66 186.399C91.5249 186.047 90.9303 186.047 90.6601 186.264C90.3358 186.507 90.3358 187.374 91.0925 187.78C93.2274 189.134 98.5241 188.511 101.118 181.66C99.4429 194.089 83.2555 196.635 82.3907 186.995ZM68.2828 186.236C70.796 180.956 75.0929 180.225 78.2817 181.606C79.4438 182.229 79.7951 183.149 79.4438 184.043C78.633 181.931 75.5523 182.77 74.9307 185.938C72.1472 200.155 101.55 202.944 102.685 181.308C103.009 182.689 103.198 184.124 103.198 185.613C103.198 195.876 94.6043 204.217 83.9838 204.217C82.4705 204.217 81.0112 204.054 79.6059 203.729C79.2005 203.621 78.8222 203.513 78.4168 203.377C68.7692 199.938 65.7965 191.517 68.2828 186.236ZM102.469 195.795C101.929 197.961 100.929 199.965 99.5504 201.671C96.5778 205.273 92.0107 207.602 86.8761 207.629C83.7413 207.602 80.8497 206.708 78.3905 205.192C78.5045 205.24 78.6184 205.28 78.7383 205.321L78.7384 205.321L78.7385 205.321L78.7386 205.321L78.7387 205.321L78.7388 205.321C78.8177 205.348 78.8993 205.376 78.985 205.408C79.3904 205.544 79.7958 205.679 80.2011 205.787C81.6604 206.112 83.1738 206.302 84.7412 206.302C92.4701 206.302 99.1721 202.05 102.469 195.795ZM96.1456 178.248H84.0388C79.2555 178.248 76.1477 174.728 74.9317 172.697C76.3099 173.239 78.6069 173.564 80.2824 173.564L89.9301 173.645C96.497 173.401 100.145 175.73 102.01 179.602C100.406 178.416 97.6493 178.308 96.2573 178.253L96.1456 178.248ZM120.387 167.823C120.306 171.749 116.955 172.887 114.55 172.968C113.928 171.641 113.09 170.395 112.117 169.312C114.523 169.637 118.792 168.933 120.387 167.823ZM115.954 178.6C119.305 177.923 119.926 174.809 119.791 172.21C118.548 173.563 116.63 174.078 115.062 174.186C115.603 175.594 115.9 177.111 115.954 178.6ZM119.089 178.194C118.576 181.01 117.306 183.637 115.036 184.205C115.576 182.77 115.927 181.281 115.982 179.737C117.333 179.466 118.36 178.925 119.089 178.194ZM113.024 168.019C113.047 168.045 113.069 168.07 113.09 168.094C110.199 168.608 108.496 167.579 108.091 167.281C109.172 167.363 110.091 167.363 111.009 166.956C111.782 166.621 112.556 167.492 113.024 168.019Z" fill="white"/>
</svg>
