<svg width="42" height="21" viewBox="0 0 42 21" fill="none" xmlns="http://www.w3.org/2000/svg">
<path d="M13.9338 12.4531L8.55859 20.3469H13.1863L25.1112 12.5239L13.9338 12.4531L13.9338 12.4531Z" stroke="#B2C0D1" stroke-width="1.2" stroke-linecap="round" stroke-linejoin="round"/>
<path d="M23.7942 13.644C25.8518 13.644 32.8617 12.8676 37.4249 12.452C39.4612 12.2665 41.3548 11.9616 41.3436 10.5643C41.3324 9.16714 37.2771 8.24167 35.7193 7.81653C35.7193 7.81653 34.5802 6.15291 34.1174 5.51566C33.6547 4.87853 32.9427 4.20591 31.1273 4.34753C29.3118 4.48916 6.74335 6.50678 6.74335 6.50678L4.60755 2.08203L0.65625 2.18828C0.65625 2.18828 0.976534 7.49804 1.11895 9.51566C1.26138 11.5334 2.57861 13.8343 5.17711 13.905C5.9009 13.9247 10.7348 13.7417 12.83 13.7228" stroke="#B2C0D1" stroke-width="1.2" stroke-linecap="round" stroke-linejoin="round"/>
<path d="M34.2952 5.79841L30.7356 6.75416C30.7356 6.75416 31.6254 8.98428 33.3341 8.70103C35.0428 8.41791 35.7192 7.81603 35.7192 7.81603M19.7361 5.18335L13.2219 0.652344L8.55859 0.758597L11.8336 5.82047L19.7361 5.18335Z" stroke="#B2C0D1" stroke-width="1.2" stroke-linecap="round" stroke-linejoin="round"/>
<path opacity="0.99" d="M12.1721 10.4384C12.8196 10.4385 13.3446 9.91656 13.3447 9.27265C13.3447 9.27257 13.3447 9.27248 13.3447 9.27239C13.3447 8.62848 12.8199 8.10643 12.1724 8.10636C12.1723 8.10636 12.1722 8.10636 12.1721 8.10636C11.5246 8.10629 10.9996 8.62822 10.9995 9.27213C10.9995 9.27222 10.9995 9.27231 10.9995 9.27239C10.9994 9.91631 11.5243 10.4384 12.1718 10.4384C12.1719 10.4384 12.172 10.4384 12.1721 10.4384ZM17.3514 10.1862C17.999 10.1866 18.5244 9.66486 18.5248 9.0208C18.5252 8.37674 18.0005 7.85431 17.3528 7.85391C17.3523 7.85391 17.3518 7.85391 17.3514 7.85391C16.7037 7.85431 16.179 8.37674 16.1794 9.0208C16.1798 9.66429 16.7043 10.1858 17.3514 10.1862ZM22.7266 9.97387C23.3743 9.98019 23.9044 9.46323 23.9108 8.81921C23.9171 8.17518 23.3973 7.64797 22.7496 7.64166C22.7419 7.64158 22.7342 7.64158 22.7265 7.64167C22.0788 7.6475 21.5586 8.17431 21.5644 8.81834C21.5702 9.45418 22.0872 9.96819 22.7266 9.97387Z" stroke="#B2C0D1" stroke-width="1.2" stroke-linecap="round" stroke-linejoin="round"/>
</svg>
