<svg width="44" height="26" viewBox="0 0 44 26" fill="none" xmlns="http://www.w3.org/2000/svg">
<path d="M7.90134 15.2932H0.652832M30.1375 19.989C31.8346 17.9688 35.0466 19.4914 35.0333 21.8928C35.0333 24.0924 33.4629 25.3577 30.9381 25.3577C28.4135 25.3577 26.3048 23.4019 26.3048 20.4916C26.3048 16.7202 29.7732 15.273 33.1798 15.2932H43.3474L30.1375 19.989ZM16.1733 19.989C14.4763 17.9688 11.2642 19.4914 11.2775 21.8928C11.2775 24.0924 12.8479 25.3577 15.3727 25.3577C17.8973 25.3577 20.0061 23.4019 20.0061 20.4916C20.0061 19.1276 19.5524 18.0675 18.812 17.2711L16.1733 19.989Z" stroke="#B2C0D1" stroke-width="1.2" stroke-linecap="round" stroke-linejoin="round"/>
<path d="M14.4071 10.9189L9.67627 17.7933H13.7491L24.2448 10.9806L14.407 10.9189H14.4071V10.9189Z" stroke="#B2C0D1" stroke-width="1.2" stroke-linecap="round" stroke-linejoin="round"/>
<path d="M23.0858 11.9556C24.8968 11.9556 31.0664 11.2795 35.0828 10.9174C36.8749 10.7559 38.5415 10.4903 38.5316 9.27358C38.5217 8.05685 34.9526 7.25087 33.5814 6.8807C33.5814 6.8807 32.5789 5.43186 32.1716 4.87699C31.7643 4.32212 31.1377 3.73629 29.5399 3.8596C27.9421 3.98303 8.07856 5.74013 8.07856 5.74013L6.19878 1.88672L2.72119 1.9792C2.72119 1.9792 3.00316 6.60326 3.12848 8.36036C3.2538 10.1175 4.41299 12.1213 6.70006 12.1829C7.33709 12.2001 11.5917 12.0408 13.4358 12.0242" stroke="#B2C0D1" stroke-width="1.2" stroke-linecap="round" stroke-linejoin="round"/>
<path d="M32.328 5.12407L29.195 5.95638C29.195 5.95638 29.9783 7.89843 31.4821 7.65182C32.9859 7.40521 33.5812 6.88117 33.5812 6.88117M19.5139 4.58847L13.7805 0.642578L9.67627 0.735057L12.5586 5.14334L19.5139 4.58847Z" stroke="#B2C0D1" stroke-width="1.2" stroke-linecap="round" stroke-linejoin="round"/>
<path d="M12.878 6.50646C12.0028 6.50646 11.2905 7.20724 11.2905 8.06858C11.2905 8.92991 12.0026 9.6307 12.8779 9.6307C13.7533 9.6307 14.4654 8.92991 14.4654 8.06858C14.4654 7.20711 13.7533 6.50646 12.878 6.50646ZM12.8779 8.55332C12.6059 8.55304 12.3855 8.3361 12.3852 8.06845C12.3855 7.80085 12.6059 7.58399 12.8779 7.58371C13.1499 7.58399 13.3703 7.80085 13.3706 8.06845C13.3703 8.3361 13.1499 8.55304 12.8779 8.55332ZM17.3986 6.36286C16.5234 6.36286 15.8111 7.06364 15.8111 7.92485C15.8111 8.78619 16.5234 9.48684 17.3986 9.48684C18.2739 9.48684 18.9861 8.78619 18.9861 7.92485C18.9861 7.06364 18.2739 6.36286 17.3986 6.36286ZM17.3986 8.40959C17.1267 8.40931 16.9063 8.19245 16.906 7.92485C16.9062 7.6572 17.1266 7.44026 17.3986 7.43998C17.6706 7.4404 17.8909 7.65726 17.8913 7.92485C17.891 8.19245 17.6706 8.40931 17.3986 8.40959ZM22.1063 6.14746C21.231 6.14746 20.5188 6.84812 20.5188 7.70945C20.5188 8.57066 21.2309 9.27157 22.1063 9.27157C22.9816 9.27157 23.6938 8.57079 23.6938 7.70945C23.6938 6.84811 22.9816 6.14746 22.1063 6.14746ZM22.1063 8.19419C21.8343 8.19391 21.6139 7.97705 21.6136 7.70945C21.6139 7.44185 21.8343 7.22499 22.1063 7.22471C22.3783 7.22499 22.5987 7.44185 22.599 7.70945C22.5987 7.97705 22.3783 8.19391 22.1063 8.19419Z" fill="#B2C0D1"/>
</svg>
