<svg width="25" height="34" viewBox="0 0 25 34" fill="none" xmlns="http://www.w3.org/2000/svg">
<path d="M21.3287 3.74555C18.9612 1.3301 15.8259 0 12.5001 0H12.5C9.17425 0 6.03879 1.3301 3.67133 3.74555C1.30387 6.16088 0 9.3596 0 12.7526V21.2473C0 22.9403 0.3246 24.5884 0.96464 26.1458C1.6843 27.8967 2.80412 29.4942 4.203 30.7653C6.49835 32.8512 9.44505 34 12.5001 34C15.8259 34 18.9612 32.6698 21.3287 30.2544C23.6961 27.8391 25 24.6403 25 21.2473V12.7526C25 9.35959 23.6963 6.16087 21.3287 3.74555L21.3287 3.74555ZM2.37713 26.1152L2.75617 25.8527C5.45243 24.0286 8.6104 22.8696 11.868 22.8696H13.2208L4.68163 29.4045C3.73149 28.4551 2.93958 27.3358 2.37713 26.1152ZM23.6983 21.2473C23.6983 27.5468 18.6748 32.6719 12.5 32.6719C10.031 32.6719 7.6408 31.8334 5.68634 30.2958L15.564 22.7369C15.8514 22.5163 15.9092 22.0998 15.693 21.8065C15.5702 21.6399 15.3778 21.5417 15.1734 21.5415H11.8681C9.10214 21.5415 6.34457 22.2958 3.90575 23.6149C3.2086 23.9908 2.53156 24.4043 1.87751 24.8537C1.4953 23.6934 1.30196 22.4838 1.30196 21.2473V12.7526C1.30183 6.45311 6.32524 1.32802 12.5001 1.32802C18.6749 1.32802 23.6983 6.45311 23.6983 12.7526V21.2473Z" fill="#B2C0D1"/>
<path d="M12.4085 4.27639C13.7051 4.27639 14.9529 4.56772 16.1173 5.14232C16.4409 5.30204 16.8301 5.1639 16.9867 4.83379C16.9867 4.83377 16.9867 4.83375 16.9867 4.83373C17.1433 4.50362 17.0079 4.10653 16.6843 3.94681C16.6843 3.94681 16.6843 3.9468 16.6842 3.94679C15.3416 3.2842 13.903 2.94824 12.4085 2.94824C12.049 2.95337 11.7616 3.25484 11.7667 3.6216C11.7716 3.98113 12.0561 4.27137 12.4085 4.27639ZM18.6709 6.09557C18.4094 6.34725 18.3974 6.7675 18.6441 7.0343C19.1587 7.59077 19.6003 8.21305 19.9578 8.88553C20.1291 9.20796 20.5242 9.32768 20.8402 9.15291C21.1563 8.97815 21.2736 8.5751 21.1023 8.25267C20.6911 7.47903 20.1831 6.76314 19.5911 6.12295C19.3444 5.85627 18.9325 5.84402 18.6709 6.09557ZM14.2342 9.81362C14.2342 8.52608 13.2302 7.47329 11.979 7.4271C11.426 6.58764 10.4876 6.06521 9.47971 6.06521C9.24415 6.06521 9.01215 6.09272 8.78612 6.14735C8.36981 5.80681 7.85242 5.62072 7.31881 5.61959C6.02805 5.61959 4.97806 6.69081 4.97806 8.00754C4.97806 8.08722 4.982 8.16663 4.98964 8.2454C4.42831 8.72344 4.10404 9.43111 4.10449 10.1771C4.10449 11.5649 5.21121 12.694 6.57155 12.694C7.22851 12.694 7.85341 12.4231 8.31042 11.9608C8.68044 12.1202 9.07808 12.2021 9.47971 12.2016C9.92947 12.2016 10.3674 12.1005 10.7677 11.9066C11.1127 12.1 11.5 12.2014 11.8936 12.2016C13.1842 12.2016 14.2342 11.1303 14.2342 9.81361V9.81362ZM11.8936 10.8734C11.647 10.8733 11.4085 10.7836 11.2207 10.6205C10.9981 10.4268 10.6761 10.4086 10.4338 10.576C10.1523 10.7705 9.81987 10.8741 9.47984 10.8734C9.1312 10.8734 8.79605 10.7667 8.5105 10.5651C8.21518 10.3563 7.80985 10.4312 7.60516 10.7325C7.59562 10.7465 7.58661 10.7609 7.57816 10.7757C7.36861 11.1402 6.98588 11.3646 6.57168 11.3659C5.92909 11.3659 5.40645 10.8327 5.40645 10.1771C5.40634 9.73886 5.64258 9.33611 6.02118 9.1291C6.29897 8.97682 6.42975 8.64325 6.33154 8.33753C6.29736 8.23101 6.27998 8.11963 6.28002 8.00754C6.28002 7.42321 6.74606 6.94775 7.31882 6.94775C7.60984 6.94775 7.89297 7.07803 8.08783 7.29772C8.26129 7.49178 8.3575 7.74491 8.35761 8.00754C8.35761 8.3743 8.64904 8.67162 9.00853 8.67162C9.36802 8.67162 9.65944 8.3743 9.65944 8.00754C9.65944 7.79654 9.6321 7.59216 9.5816 7.39712C10.2003 7.43527 10.7594 7.81834 11.0249 8.39567C11.1488 8.66506 11.4333 8.81745 11.721 8.76861C11.7781 8.75884 11.8359 8.75385 11.8937 8.75369C12.4665 8.75369 12.9325 9.22915 12.9325 9.81349C12.9325 10.398 12.4664 10.8734 11.8936 10.8734H11.8936V10.8734ZM18.6359 18.2976L18.636 18.2977L18.6185 18.2671L18.6359 18.2976V18.2976ZM18.6187 18.2676C18.618 18.2661 18.618 18.2661 18.6187 18.2676V18.2676Z" fill="#B2C0D1"/>
<path d="M18.8964 13.1416C18.3665 13.1416 17.8417 13.3298 17.429 13.6692C17.2017 13.6145 16.969 13.587 16.7355 13.5872C15.7276 13.5872 14.7892 14.1095 14.2363 14.9491C12.985 14.995 11.981 16.048 11.981 17.3355C11.981 18.6522 13.031 19.7234 14.3216 19.7234C14.7173 19.7234 15.1046 19.6207 15.4476 19.4286C15.8501 19.6233 16.2901 19.7241 16.7355 19.7234C17.1415 19.7234 17.5374 19.6413 17.9047 19.4829C18.3617 19.9451 18.9867 20.216 19.6437 20.216C21.0039 20.216 22.1108 19.0869 22.1108 17.6991C22.1112 16.9531 21.7869 16.2453 21.2255 15.7673C21.2331 15.6885 21.2371 15.6092 21.2371 15.5295C21.2371 14.2128 20.1871 13.1416 18.8964 13.1416L18.8964 13.1416ZM19.6436 18.888C19.2294 18.8867 18.8468 18.6623 18.6372 18.2978L18.7073 18.4201L18.6371 18.2977C18.4554 17.9811 18.0565 17.8748 17.7462 18.0601C17.7321 18.0686 17.7182 18.0776 17.7047 18.0871C17.4201 18.2885 17.0818 18.3961 16.7354 18.3954C16.3931 18.3954 16.0633 18.2925 15.7813 18.098C15.539 17.9307 15.2171 17.9489 14.9944 18.1425C14.8066 18.3057 14.5681 18.3953 14.3215 18.3954C13.7486 18.3954 13.2827 17.9201 13.2827 17.3356C13.2827 16.7512 13.7486 16.2757 14.3215 16.2757C14.3777 16.2757 14.4359 16.2808 14.4944 16.2908C14.7821 16.3395 15.0665 16.187 15.1904 15.9177C15.4558 15.3404 16.015 14.9574 16.6335 14.9193C16.5819 15.1184 16.5558 15.3236 16.5558 15.5296C16.5487 15.8963 16.8343 16.1994 17.1938 16.2067C17.5532 16.214 17.8504 15.9226 17.8575 15.5559C17.8577 15.5471 17.8577 15.5383 17.8575 15.5296C17.8575 15.2568 17.9599 15.0085 18.1265 14.8206C18.3215 14.6004 18.605 14.4699 18.8964 14.4699C19.4692 14.4699 19.9352 14.9452 19.9352 15.5296C19.9352 15.6419 19.9178 15.7529 19.8836 15.8595C19.7855 16.1653 19.9163 16.4988 20.1941 16.6512C20.5727 16.8582 20.8089 17.261 20.8088 17.6992C20.8088 18.3547 20.286 18.888 19.6436 18.888H19.6436V18.888ZM18.7095 18.424C18.713 18.4303 18.7135 18.4312 18.7095 18.424V18.424ZM13.5122 29.2074H9.82736C9.46787 29.2125 9.18055 29.514 9.18561 29.8808C9.19057 30.2403 9.47501 30.5304 9.82736 30.5355H13.5122C13.8717 30.5303 14.159 30.2288 14.1539 29.8621C14.149 29.5026 13.8645 29.2124 13.5122 29.2074ZM16.9079 29.0599H16.2577C15.8982 29.0599 15.6067 29.3573 15.6067 29.724C15.6067 30.0908 15.8982 30.3881 16.2577 30.3881H16.9079C17.2674 30.3829 17.5547 30.0814 17.5496 29.7147C17.5447 29.3552 17.2602 29.065 16.9079 29.0599ZM18.0639 25.2271H14.3793C14.0198 25.2198 13.7227 25.5112 13.7156 25.878C13.7085 26.2447 13.9941 26.5478 14.3536 26.5551C14.3621 26.5553 14.3707 26.5553 14.3793 26.5551H18.0639C18.4234 26.5623 18.7206 26.2709 18.7277 25.9042C18.7348 25.5375 18.4492 25.2343 18.0897 25.2271C18.0811 25.2269 18.0725 25.2269 18.0639 25.2271V25.2271V25.2271Z" fill="#B2C0D1"/>
</svg>
