<svg width="41" height="41" viewBox="0 0 41 41" fill="none" xmlns="http://www.w3.org/2000/svg">
<g clip-path="url(#clip0)">
<path d="M36.0167 37.6747L33.343 26.0886C33.0449 24.8963 31.9779 24.0637 30.7489 24.0637H25.5538C24.8188 22.857 23.8606 21.7989 22.7277 20.9478V13.3687C22.7277 11.3536 20.5696 10.1213 18.8581 10.9769L13.5107 13.6506C12.599 14.1063 12.0417 15.0228 12.0417 16.0424V19.4622C12.0251 19.4678 12.0083 19.4697 11.9919 19.4761C7.68587 21.158 4.90332 25.2326 4.90332 29.8568C4.90332 35.9998 9.90091 40.9974 16.0439 40.9974C22.2284 40.9974 27.4225 35.8764 27.1648 29.4111H28.6615L30.8287 38.9725C31.1858 40.398 32.6209 41.2826 34.0717 40.9177C35.5011 40.5604 36.3736 39.1056 36.0167 37.6747ZM16.0438 38.3237C11.3752 38.3237 7.57697 34.5254 7.57697 29.8569C7.57697 26.6883 9.30529 23.8729 12.0416 22.4098V25.8462C12.0416 27.3206 13.2321 28.52 14.7065 28.52C16.1809 28.52 17.3802 27.3206 17.3802 25.8462V21.4702C17.4464 21.4936 17.513 21.5162 17.5843 21.5293C21.5975 22.2664 24.5107 25.7688 24.5107 29.8569C24.5106 34.5254 20.7124 38.3237 16.0438 38.3237Z" fill="#C4C4C4"/>
<path d="M20.5001 0C18.2886 0 16.4895 1.79904 16.4895 4.01063C16.4895 6.22223 18.2885 8.02127 20.5001 8.02127C22.7117 8.02127 24.5108 6.22223 24.5108 4.01063C24.5108 1.79904 22.7117 0 20.5001 0Z" fill="#C4C4C4"/>
</g>
<defs>
<clipPath id="clip0">
<rect width="41" height="41" fill="white"/>
</clipPath>
</defs>
</svg>
