<svg width="41" height="41" viewBox="0 0 41 41" fill="none" xmlns="http://www.w3.org/2000/svg">
<path d="M24.5362 27.1486C24.5362 26.5367 25.0218 26.0405 25.6207 26.0405H28.5655C28.6122 25.4019 28.6846 24.8028 28.7841 24.2904L29.116 22.5777H25.6208C25.0219 22.5777 24.5363 22.0815 24.5363 21.4696C24.5363 20.8576 25.0219 20.3615 25.6208 20.3615H29.5453L30.0019 18.0041C30.296 16.4899 29.5949 15.1721 28.3606 14.6477C29.1404 14.3118 29.6878 13.5238 29.6878 12.6047C29.6878 11.4451 28.7932 10.495 27.6829 10.3981C27.0723 7.52475 25.0334 5.22916 22.1865 4.42218V2.21622C22.1865 0.992172 21.2155 0 20.0175 0C18.8195 0 17.8484 0.992172 17.8484 2.21622V4.42218C15.1371 5.22902 13.0077 7.52475 12.3971 10.3981C11.2868 10.4949 10.426 11.4451 10.426 12.6047C10.426 13.5238 10.9791 14.3119 11.759 14.6478C10.5259 15.1721 9.83059 16.4893 10.1276 18.0027L11.3321 24.1619C11.7174 26.1249 11.7181 29.3369 11.3328 31.2999L10.1301 37.4311C9.74477 39.3939 11.0332 41 12.9925 41H27.1325C29.0919 41 30.3766 39.3946 29.9873 37.4324L29.2943 33.9358H25.6207C25.0218 33.9358 24.5362 33.4397 24.5362 32.8277C24.5362 32.2158 25.0218 31.7196 25.6207 31.7196H28.855L28.7988 31.4356C28.6238 30.5539 28.5268 29.4182 28.5069 28.2568H25.6207C25.0218 28.2568 24.5362 27.7606 24.5362 27.1486Z" fill="#C4C4C4"/>
</svg>
