<svg width="41" height="41" viewBox="0 0 41 41" fill="none" xmlns="http://www.w3.org/2000/svg">
<g clip-path="url(#clip0)">
<path d="M30.6351 29.572C30.3434 28.9786 29.6374 28.7419 29.0575 29.035L24.6031 31.3106H15.4758V39.7989C15.4758 40.4627 16.0018 41.0001 16.6514 41.0001H23.7051C24.3551 41.0001 24.8807 40.4627 24.8807 39.7989V33.855L29.0575 35.9886C29.6444 36.2864 30.3458 36.0402 30.6351 35.4515C30.9254 34.8578 30.6899 34.1365 30.1092 33.8396L27.51 32.5118L30.1092 31.1839C30.6902 30.8871 30.9254 30.1657 30.6351 29.572V29.572Z" fill="#C4C4C4"/>
<path d="M37.6554 7.80762C37.8115 7.53204 37.8529 7.20359 37.7724 6.8961C37.6921 6.58893 37.4947 6.32617 37.225 6.16664C36.0089 5.45 34.6083 5.35116 33.3754 5.77595C33.3558 5.67741 33.3329 5.57888 33.3065 5.48035C32.9817 4.24039 32.2032 3.20469 31.116 2.56313C30.5546 2.22999 29.8348 2.42799 29.51 3.00293L26.5709 8.20394C25.5279 10.0507 25.7645 12.4237 27.3578 14.0193L25.7774 16.8164H21.3542V11.8412C23.3766 11.3042 24.881 9.43983 24.881 7.20703V1.20117C24.881 0.537399 24.355 0 23.7054 0C22.3023 0 21.0407 0.631241 20.1785 1.63034C19.3161 0.631241 18.0545 0 16.6514 0C16.0017 0 15.4758 0.537399 15.4758 1.20117V7.20703C15.4758 9.43983 16.9802 11.3042 19.0026 11.8412V16.8164H14.4646L12.8842 14.019C14.4808 12.4184 14.7101 10.0435 13.6701 8.20394L10.7311 3.00293C10.405 2.42706 9.6828 2.22999 9.125 2.56313C7.91019 3.27976 7.12614 4.4703 6.86898 5.77595C5.63489 5.3571 4.23425 5.45094 3.017 6.16664C2.74728 6.32617 2.54982 6.58893 2.46961 6.8961C2.38909 7.20359 2.43042 7.53204 2.58655 7.80762L5.52559 13.0086C6.60416 14.9161 8.79344 15.8214 10.8541 15.2324L11.7744 16.8608C11.4554 16.9124 11.16 17.067 10.9754 17.3441C10.7574 17.6738 10.7127 18.0936 10.8572 18.4633L14.9149 28.9082H18.98L17.8503 23.0581C17.7229 22.4069 18.1359 21.7747 18.7721 21.6446C19.4138 21.5119 20.0291 21.9367 20.1556 22.5864L21.3774 28.9082H25.4419L29.4996 18.4633C29.6441 18.0939 29.5994 17.6738 29.3814 17.3441C29.1769 17.0369 28.8423 16.8599 28.4819 16.8352L29.3878 15.232C31.4406 15.8189 33.6344 14.9224 34.7164 13.0086L37.6554 7.80762Z" fill="#C4C4C4"/>
</g>
<defs>
<clipPath id="clip0">
<rect width="40.1277" height="41" fill="white"/>
</clipPath>
</defs>
</svg>
