<svg width="41" height="41" viewBox="0 0 41 41" fill="none" xmlns="http://www.w3.org/2000/svg">
<g clip-path="url(#clip0)">
<path d="M38.2661 35.6235L38.0771 35.8121L34.8115 32.5464C33.2768 28.6961 31.2777 25.0238 28.7205 21.3633C31.5214 18.7311 34.3992 15.8139 37.4522 12.6508L38.2661 13.4647C38.5786 13.7772 38.9887 13.9336 39.3984 13.9336C39.8082 13.9336 40.2183 13.7772 40.5311 13.4647C41.1564 12.8391 41.1564 11.825 40.5311 11.1997L29.8006 0.469208C29.175 -0.156403 28.1609 -0.156403 27.5356 0.469208C26.91 1.0945 26.91 2.10862 27.5356 2.73423L28.3455 3.54408C25.4545 6.32179 22.8479 8.91713 20.5009 11.4177C18.331 9.10388 15.8367 6.60112 12.6545 3.54408L13.4647 2.73423C14.09 2.10862 14.09 1.0945 13.4647 0.469208C12.8391 -0.156403 11.825 -0.156403 11.1997 0.469208L0.469208 11.1997C-0.156403 11.825 -0.156403 12.8391 0.469208 13.4647C0.7817 13.7772 1.19179 13.9336 1.60156 13.9336C2.01134 13.9336 2.42142 13.7772 2.73423 13.4647L3.54784 12.6508C5.76938 14.9511 7.52265 16.7313 9.12453 18.3138C9.43639 18.6222 9.84335 18.7761 10.25 18.7761C10.6632 18.7761 11.0761 18.6172 11.3895 18.3C12.0111 17.671 12.0048 16.6569 11.3758 16.0353C9.78298 14.4616 8.03471 12.6864 5.81348 10.3854L10.3892 5.80973C13.6349 8.9262 16.1514 11.454 18.3316 13.7872C12.8016 19.9898 8.88711 25.7667 6.18635 32.5489L2.92285 35.8121L2.73423 35.6235C2.10862 34.9979 1.09451 34.9979 0.469208 35.6235C-0.156403 36.2488 -0.156403 37.2629 0.469208 37.8885L3.11179 40.5311C3.42428 40.8436 3.83437 41 4.24414 41C4.65392 41 5.064 40.8436 5.37681 40.5311C6.00211 39.9055 6.00211 38.8914 5.37681 38.2661L5.18787 38.0771L8.33595 34.9291C14.7572 32.7285 20.4374 28.8112 26.3376 23.5476C27.9429 25.8802 29.3089 28.2159 30.4613 30.6039C29.1025 29.9811 27.7474 29.2595 26.3745 28.4277C25.6181 27.9695 24.6334 28.2116 24.1751 28.9682C23.7169 29.7246 23.9587 30.7096 24.7154 31.1676C27.372 32.7766 29.9755 34.0082 32.6641 34.9291L35.8121 38.0771L35.6235 38.2661C34.9979 38.8914 34.9979 39.9055 35.6235 40.5311C35.936 40.8436 36.3461 41 36.7559 41C37.1656 41 37.5757 40.8436 37.8885 40.5311L40.5311 37.8885C41.1564 37.2629 41.1564 36.2488 40.5311 35.6235C39.9055 34.9979 38.8914 34.9979 38.2661 35.6235V35.6235ZM20.6379 16.0162L22.2104 17.5887C22.5229 17.9012 22.933 18.0576 23.3428 18.0576C23.7529 18.0576 24.1626 17.9012 24.4754 17.5887C25.1007 16.9631 25.1007 15.949 24.4754 15.3237L22.801 13.6492C25.1276 11.1671 27.723 8.58368 30.6111 5.80973L35.1868 10.3854C26.1999 19.6986 18.8099 26.8049 10.5378 30.6017C12.9783 25.5361 16.2765 20.9229 20.6379 16.0162Z" fill="#C4C4C4"/>
</g>
<defs>
<clipPath id="clip0">
<rect width="41" height="41" fill="white"/>
</clipPath>
</defs>
</svg>
