<svg width="41" height="41" viewBox="0 0 41 41" fill="none" xmlns="http://www.w3.org/2000/svg">
<path d="M16.1269 9.10541C16.1554 9.28998 16.2759 9.44744 16.4467 9.52317C16.6173 9.59889 16.815 9.5826 16.971 9.47976L20.5001 7.15433L24.0304 9.47976C24.1864 9.58247 24.3839 9.59889 24.5547 9.52303C24.7254 9.44731 24.8458 9.28985 24.8743 9.10515L25.7485 3.43166C25.9676 2.01011 25.0729 0.652409 23.6793 0.296889C23.6217 0.282199 23.5639 0.269244 23.5059 0.258293C22.6423 0.0952237 21.6101 0 20.5006 0C19.3903 0 18.3573 0.0953572 17.4932 0.25896C17.4173 0.273251 17.3413 0.29128 17.2655 0.312515C15.8975 0.694078 15.0362 2.03415 15.2527 3.4378L16.1269 9.10541ZM17.9167 3.56641C17.9601 3.4561 18.0611 3.37864 18.1789 3.36542C18.74 3.30305 19.378 3.26245 20.0608 3.25029C20.2057 3.24762 20.3519 3.24602 20.5004 3.24602C20.648 3.24602 20.7932 3.24775 20.9371 3.25029C21.6193 3.26245 22.2576 3.30291 22.8193 3.36542C22.9372 3.3785 23.0383 3.45583 23.0817 3.56628C23.1251 3.67673 23.1038 3.802 23.0264 3.89202L20.4985 6.8362L17.9714 3.89215C17.8944 3.80214 17.8733 3.67673 17.9167 3.56641Z" fill="#C4C4C4"/>
<path d="M38.5551 23.6942L30.5802 5.72241C30.1769 4.81425 29.4168 4.10855 28.4768 3.77307C28.2397 3.68773 27.9964 3.62829 27.7504 3.59424L26.724 10.2552C26.6201 10.9294 26.1803 11.5045 25.5567 11.7812C25.2968 11.8966 25.02 11.9535 24.7442 11.9535C24.3582 11.9535 23.9743 11.842 23.642 11.6231L20.5001 9.55339L17.3594 11.6229C17.0269 11.842 16.6431 11.9535 16.257 11.9535C15.9814 11.9535 15.7045 11.8966 15.4447 11.7813C14.8212 11.5046 14.3812 10.9298 14.2772 10.2556L13.2498 3.59424C13.0038 3.62843 12.7599 3.68773 12.5219 3.77293C11.583 4.10842 10.8242 4.81412 10.4209 5.72228L2.44597 23.6942C2.21279 24.2186 2.43115 24.8342 2.94559 25.0921L5.10462 26.1803C5.36118 26.3086 5.65606 26.332 5.92758 26.2444C6.19655 26.1544 6.42106 25.9606 6.5494 25.7052L12.3825 14.134L8.7704 39.7184C8.7115 40.0347 8.79657 40.3607 9.00211 40.6082C9.20765 40.8557 9.51269 40.9999 9.83442 40.9999H19.4984V32.0191C19.4984 31.4658 19.9467 31.0174 20.5 31.0174C21.0533 31.0174 21.5017 31.4658 21.5017 32.0191V40.9999H30.8043C31.2155 40.9999 31.6055 40.8172 31.8687 40.5012C32.132 40.1852 32.2408 39.7687 32.167 39.364L28.6235 14.1462L34.4493 25.7051C34.5776 25.9592 34.8021 26.1542 35.0711 26.2442C35.345 26.3318 35.6375 26.3083 35.8927 26.1825L38.0531 25.0919C38.5662 24.8342 38.7871 24.2186 38.5551 23.6942ZM20.5 28.2283C19.8906 28.2283 19.3958 27.7347 19.3958 27.1253C19.3958 26.5145 19.8905 26.0199 20.5 26.0199C21.1094 26.0199 21.6042 26.5145 21.6042 27.1253C21.6041 27.7347 21.1094 28.2283 20.5 28.2283ZM20.5 23.8128C19.8906 23.8128 19.3958 23.3167 19.3958 22.7073C19.3958 22.0978 19.8905 21.603 20.5 21.603C21.1094 21.603 21.6042 22.0977 21.6042 22.7073C21.6041 23.3167 21.1094 23.8128 20.5 23.8128ZM20.5 19.3947C19.8906 19.3947 19.3958 18.9 19.3958 18.2905C19.3958 17.6809 19.8905 17.1862 20.5 17.1862C21.1094 17.1862 21.6042 17.6809 21.6042 18.2905C21.6041 18.8999 21.1094 19.3947 20.5 19.3947ZM20.5 14.9778C19.8906 14.9778 19.3958 14.4831 19.3958 13.8736C19.3958 13.264 19.8905 12.7692 20.5 12.7692C21.1094 12.7692 21.6042 13.2639 21.6042 13.8736C21.6041 14.4831 21.1094 14.9778 20.5 14.9778Z" fill="#C4C4C4"/>
</svg>
