<svg width="100" height="36" viewBox="0 0 100 36" fill="none" xmlns="http://www.w3.org/2000/svg">
<g clip-path="url(#clip0)">
<path d="M8.02065 9.82668C8.21044 9.77874 8.19394 9.60297 8.23519 9.47515C8.85406 7.59765 9.46467 5.72015 10.0835 3.84266C10.4383 2.77208 10.8014 1.70151 11.1562 0.630938C11.2057 0.479141 11.2717 0.391258 11.4698 0.399247C13.0046 0.399247 14.5476 0.399247 16.0906 0.399247C16.3134 0.399247 16.3629 0.447183 16.3217 0.670885C15.9916 2.60431 15.6863 4.53773 15.3727 6.47115C15.0757 8.24479 14.7456 10.0184 14.4816 11.7921C14.2918 13.0464 14.069 14.3007 13.8875 15.555C13.8297 15.9305 13.6977 16.0743 13.2769 16.0504C12.4682 16.0104 11.6513 16.0264 10.8427 16.0424C10.6034 16.0504 10.5374 15.9865 10.5786 15.7548C10.8509 14.109 11.1232 12.4632 11.3873 10.8174C11.7008 8.85997 11.9979 6.89459 12.2949 4.92921C12.3114 4.80138 12.2949 4.66556 12.2949 4.44985C11.9649 4.91323 11.8906 5.40058 11.7256 5.84798C11.28 7.04638 10.8757 8.25278 10.4548 9.45118C9.95976 10.8653 9.48117 12.2794 8.98608 13.7015C8.73854 14.4126 8.46624 15.1236 8.22694 15.8427C8.16918 16.0184 8.07016 16.0504 7.89688 16.0504C7.34403 16.0424 6.79943 16.0264 6.24658 16.0584C5.97428 16.0743 5.93302 15.9625 5.92477 15.7388C5.90827 14.6522 5.88352 13.5577 5.84226 12.4712C5.75149 9.97847 5.68548 7.47781 5.67723 4.98513C5.67723 4.92921 5.67723 4.88127 5.66898 4.82535C5.66072 4.75344 5.68548 4.64958 5.56171 4.64958C5.44619 4.65757 5.46269 4.75344 5.45444 4.83333C5.40493 5.10497 5.33066 5.37661 5.29766 5.65624C5.11613 7.02242 4.85208 8.37262 4.62929 9.73081C4.29923 11.7122 3.96917 13.7015 3.64736 15.6829C3.59785 15.9705 3.49883 16.0743 3.18527 16.0584C2.45914 16.0344 1.72476 16.0184 0.998624 16.0584C0.553043 16.0823 0.520037 15.8746 0.594301 15.579C0.833594 14.6283 0.924361 13.6456 1.08939 12.6789C1.40295 10.8893 1.67525 9.09965 1.9723 7.31003C2.13733 6.30337 2.31061 5.29672 2.47564 4.29805C2.67368 3.11563 2.87172 1.94119 3.05325 0.758768C3.09451 0.495119 3.16877 0.383269 3.48233 0.383269C4.81907 0.407237 6.14756 0.407237 7.48431 0.383269C7.80612 0.375279 7.85563 0.471151 7.86388 0.758768C7.93814 3.68287 7.93814 6.60697 7.95464 9.52308C7.95464 9.63493 7.89688 9.74678 8.02065 9.82668Z" fill="#E52124"/>
<path d="M94.4139 16.0416C94.4716 15.6501 94.5211 15.2986 94.5706 14.9071C94.2323 15.003 94.059 15.2586 93.8363 15.4344C92.0704 16.8165 89.2484 16.3612 88.2005 14.1401C87.7879 13.2613 87.5486 12.3585 87.5156 11.3838C87.4661 9.83386 87.6807 8.33985 88.2995 6.90976C88.9101 5.51162 89.7518 4.28925 91.1958 3.54624C92.7306 2.7553 94.5459 3.09884 95.6763 4.42507C95.7176 4.473 95.7506 4.53692 95.8084 4.57687C95.8826 4.63279 95.9404 4.73665 96.0476 4.71268C96.1714 4.68073 96.1219 4.56089 96.1384 4.473C96.3529 3.19471 96.5757 1.91641 96.782 0.638118C96.815 0.454363 96.8563 0.398438 97.0543 0.398438C97.962 0.406427 98.8696 0.406427 99.7773 0.398438C100.017 0.398438 100.041 0.478331 100.008 0.678065C99.6865 2.58752 99.3647 4.49697 99.0594 6.40643C98.7294 8.45969 98.4076 10.513 98.0693 12.5662C97.8877 13.6448 97.6979 14.7313 97.5577 15.8259C97.5412 15.9537 97.5329 16.0576 97.3596 16.0576C96.3695 16.0416 95.3958 16.0416 94.4139 16.0416ZM90.9317 10.441C90.9317 10.6967 90.8987 10.9524 90.94 11.2C91.039 11.8312 91.1628 12.4783 91.7816 12.8458C92.615 13.3412 93.7042 13.0775 94.2983 12.2067C95.3545 10.6647 95.5526 8.98699 95.0245 7.22933C94.8512 6.6541 94.2076 6.23865 93.5805 6.23066C92.5985 6.21468 92.0209 6.78193 91.6001 7.53292C91.0968 8.43572 90.907 9.41841 90.9317 10.441Z" fill="#E52124"/>
<path d="M86.7485 35.5043C86.4184 35.5043 86.0884 35.4883 85.7583 35.5123C85.4613 35.5283 85.288 35.4803 85.387 35.1448C85.42 35.017 85.4283 34.8811 85.4448 34.7533C85.4613 34.6415 85.5355 34.4897 85.4283 34.4257C85.2962 34.3538 85.222 34.5056 85.1395 34.5855C84.7846 34.9451 84.3803 35.2247 83.91 35.4324C82.3092 36.1115 80.5021 35.4164 79.7017 33.9544C78.8271 32.3485 78.7445 30.6388 78.9756 28.8891C79.1654 27.451 79.5862 26.0928 80.4031 24.8625C80.989 23.9757 81.6986 23.2007 82.7465 22.8252C84.0833 22.3458 85.4035 22.6414 86.4597 23.8558C86.567 23.9837 86.6412 24.2233 86.831 24.1674C86.9465 24.1355 86.9465 23.8958 86.9713 23.744C87.1611 22.5296 87.3591 21.3152 87.5406 20.0928C87.5654 19.9251 87.6149 19.8691 87.7882 19.8691C88.6298 19.8771 89.4632 19.8771 90.3049 19.8691C90.4947 19.8691 90.5524 19.941 90.5277 20.1008C90.4782 20.4284 90.4204 20.756 90.3709 21.0835C90.0656 23.1528 89.7685 25.222 89.455 27.2913C89.1662 29.1927 88.8444 31.0862 88.5803 32.9877C88.4731 33.7466 88.3575 34.5056 88.2338 35.2646C88.2008 35.4803 88.11 35.5203 87.912 35.5123C87.5241 35.4963 87.1363 35.5043 86.7485 35.5043ZM86.1461 28.3219C86.1709 27.7546 86.0801 27.2114 85.8738 26.6841C85.486 25.6774 84.2731 25.3898 83.4231 26.0849C82.7218 26.6601 82.4247 27.4351 82.2432 28.258C81.9791 29.4644 81.8389 30.6787 82.4247 31.8452C82.5897 32.1648 82.8373 32.3964 83.2169 32.4763C84.1493 32.6761 85.0404 32.1967 85.4943 31.254C85.9399 30.3272 86.1296 29.3445 86.1461 28.3219Z" fill="#F7AD1D"/>
<path d="M22.0724 14.7082C21.6268 15.2594 21.1482 15.6749 20.5459 15.9066C19.0936 16.4578 17.4103 16.5377 16.3541 15.1955C15.661 14.3167 15.496 13.2781 15.6197 12.2155C15.76 11.0171 16.1973 9.93052 17.204 9.13159C18.0457 8.46048 19.0359 8.1489 20.092 7.98112C20.8924 7.85329 21.7011 7.85329 22.5097 7.96514C22.716 7.9971 22.815 7.93319 22.8563 7.74144C22.9636 7.26208 23.0378 6.80669 22.6418 6.39923C22.3695 6.11162 22.0064 6.0477 21.6433 5.99976C20.2901 5.83199 18.9698 6.03172 17.6744 6.40722C17.5918 6.43119 17.5176 6.45516 17.4351 6.47913C17.3938 6.48711 17.3525 6.48711 17.2948 6.48711C17.4268 5.62427 17.5506 4.76941 17.6909 3.91454C17.7074 3.82666 17.6991 3.71481 17.8476 3.67486C19.7537 3.13159 21.6763 2.70016 23.6567 3.30735C24.8944 3.69084 25.6701 4.4738 25.9176 5.78405C26.1487 6.99044 25.8929 8.18086 25.7196 9.37127C25.4555 11.1769 25.1172 12.9745 24.9274 14.788C24.8862 15.1396 24.8119 15.4911 24.7707 15.8506C24.7542 16.0184 24.6716 16.0424 24.5314 16.0424C23.7722 16.0424 23.0213 16.0344 22.2622 16.0424C22.0312 16.0504 22.0229 15.9305 22.0394 15.7707C22.0559 15.4512 22.1549 15.1316 22.0724 14.7082ZM20.1168 13.5737C20.3974 13.5577 20.7604 13.4778 21.0822 13.2461C22.0312 12.567 22.2787 11.5843 22.353 10.5297C22.3695 10.314 22.1879 10.346 22.0724 10.33C21.4783 10.2581 20.9007 10.33 20.3231 10.4578C19.3329 10.6815 18.8213 11.2488 18.7718 12.2235C18.7305 13.0544 19.2091 13.5737 20.1168 13.5737Z" fill="#E52124"/>
<path d="M76.5825 14.8036C76.3184 14.8914 76.2194 15.0592 76.0956 15.1871C75.1385 16.1697 73.1251 16.6012 71.8296 16.01C71.054 15.6584 70.5424 15.0353 70.2948 14.2443C69.8658 12.9021 69.9978 11.5839 70.6414 10.3455C71.2107 9.24298 72.2174 8.59584 73.4056 8.23632C74.3793 7.94071 75.3943 7.86082 76.4174 7.90876C76.4752 7.90876 76.533 7.91675 76.5825 7.90876C76.8218 7.85283 77.1518 8.17241 77.2756 7.85283C77.4406 7.42141 77.5231 6.95003 77.2096 6.51861C76.9455 6.15909 76.5412 6.06322 76.1369 6.01528C74.8001 5.8475 73.4882 6.03126 72.2009 6.40676C71.7471 6.54258 71.7306 6.53459 71.8131 6.0792C71.9204 5.44005 72.0276 4.8009 72.1184 4.16175C72.1597 3.86615 72.2669 3.70636 72.6052 3.6025C73.9585 3.20303 75.32 2.93938 76.731 3.05123C77.9605 3.14711 79.1074 3.47467 79.8583 4.53725C80.2626 5.11248 80.4194 5.76761 80.4442 6.4547C80.4854 7.61315 80.2626 8.74764 80.0976 9.89011C79.8336 11.7117 79.4952 13.5253 79.3055 15.3548C79.2312 16.0579 79.2477 16.0579 78.5463 16.0579C77.9522 16.0579 77.3664 16.0499 76.7723 16.0579C76.566 16.0579 76.4752 16.0259 76.5165 15.7942C76.566 15.4827 76.5577 15.1711 76.5825 14.8036ZM76.0049 10.3056C75.518 10.2816 75.0229 10.3855 74.5361 10.5213C73.5624 10.7849 72.9931 11.7676 73.2654 12.7104C73.3974 13.1817 73.7027 13.5093 74.2308 13.5652C74.7094 13.6211 75.1632 13.5333 75.551 13.2536C76.2854 12.7343 76.599 11.9993 76.7392 11.1604C76.8878 10.3056 76.896 10.3056 76.0049 10.3056Z" fill="#E52124"/>
<path d="M71.9286 35.9752C71.0952 36.071 70.2535 35.8793 69.4697 35.3919C68.7105 34.9286 68.1907 34.2734 67.8606 33.4985C67.118 31.7408 67.1015 29.9192 67.4563 28.0737C67.6873 26.8673 68.1329 25.7648 68.8755 24.7741C70.1133 23.1363 72.4154 22.3613 74.3628 22.9126C76.0626 23.3919 76.9785 24.5664 77.4736 26.1163C77.8119 27.1949 77.8779 28.3054 77.7789 29.4239C77.7047 30.3187 77.6139 31.2215 77.3086 32.0764C76.6155 34.0657 75.5015 35.4559 73.1168 35.9672C72.7703 36.0391 72.3824 35.9752 71.9286 35.9752ZM74.6103 28.4892C74.5938 28.2655 74.6103 27.9619 74.5526 27.6583C74.4948 27.3467 74.4123 27.0351 74.2885 26.7395C74.0905 26.2681 73.7604 25.9166 73.1911 25.8287C72.2834 25.6769 71.6316 26.2521 71.2025 27.0191C70.5176 28.2495 70.3691 29.5837 70.4928 30.9579C70.5341 31.4053 70.6826 31.8127 70.8807 32.2042C71.2025 32.8593 71.9369 33.139 72.6465 32.9312C73.3149 32.7315 73.7109 32.2521 73.9832 31.6769C74.4618 30.6942 74.5773 29.6396 74.6103 28.4892Z" fill="#F7AD1D"/>
<path d="M51.2003 12.6877C51.1508 13.6624 50.8537 14.5492 50.7795 15.476C50.763 15.6997 50.6557 15.8035 50.4494 15.8595C48.8569 16.2829 47.2561 16.4587 45.6223 16.1231C44.3103 15.8515 43.2706 15.2203 42.5609 14.1098C42.0658 13.3348 41.8678 12.472 41.7605 11.5852C41.5542 9.93136 41.8183 8.3255 42.4372 6.79155C43.023 5.33749 43.9637 4.1231 45.4655 3.44401C47.3468 2.58915 49.748 2.90872 51.0683 4.64241C51.7449 5.52923 51.9512 6.56784 51.9347 7.64641C51.9264 8.55719 51.8357 9.46798 51.6294 10.3708C51.5551 10.6824 51.4561 10.8022 51.093 10.7942C49.1704 10.7702 47.2396 10.7942 45.3169 10.7782C44.9869 10.7782 44.8879 10.8661 44.8961 11.1777C44.9291 12.5599 45.6553 13.207 47.0663 13.4067C48.502 13.6065 49.8718 13.2629 51.2003 12.6877ZM46.992 8.21365C47.3881 8.22164 47.7924 8.22164 48.1885 8.22164C48.9476 8.22164 48.9559 8.21365 48.8981 7.47064C48.7991 6.03256 47.5036 5.4014 46.2741 6.2243C45.6305 6.65573 45.3747 7.33482 45.2262 8.04587C45.1849 8.23762 45.35 8.21365 45.4655 8.21365C45.9771 8.21365 46.4887 8.21365 46.992 8.21365Z" fill="#E52124"/>
<path d="M32.4862 22.9767C32.9152 22.9767 33.3361 22.9927 33.7651 22.9687C34.0374 22.9528 34.1447 23.0327 34.0869 23.3043C33.8394 24.3749 33.7404 25.4774 33.5753 26.5639C33.3856 27.8502 33.1215 29.1205 33.0225 30.4148C32.9977 30.7743 33.0142 31.1339 33.1133 31.4854C33.3195 32.2204 34.5078 32.5 35.2091 31.9967C36.0095 31.4215 36.3644 30.5906 36.5376 29.7038C36.8182 28.2896 37.041 26.8596 37.239 25.4295C37.3463 24.6944 37.4948 23.9674 37.5938 23.2324C37.6186 23.0327 37.6928 22.9767 37.8991 22.9767C38.7655 22.9847 39.6319 22.9847 40.4983 22.9847C40.6551 22.9847 40.7789 22.9608 40.7376 23.2164C40.4323 25.1498 40.1518 27.0912 39.8547 29.0247C39.6897 30.0873 39.4999 31.1418 39.3431 32.1964C39.1946 33.2191 39.0626 34.2417 38.9636 35.2723C38.9388 35.544 38.8398 35.5999 38.5923 35.5919C37.8661 35.5759 37.1317 35.5679 36.4056 35.5999C36.059 35.6159 36.0178 35.4801 36.059 35.2084C36.1251 34.801 36.1746 34.3935 36.2158 33.9861C36.2241 33.8902 36.2901 33.7464 36.1663 33.7064C36.0178 33.6585 35.9683 33.8103 35.9023 33.9062C35.4649 34.5453 34.9616 35.1205 34.2437 35.4721C32.4036 36.3589 30.7781 35.7118 30.1345 33.8422C29.6064 32.2923 29.7549 30.7264 29.9694 29.1605C30.151 27.8343 30.349 26.516 30.5305 25.1898C30.6213 24.5347 30.7863 23.8875 30.8028 23.2244C30.8111 23.0486 30.8936 22.9767 31.0834 22.9767C31.5455 22.9847 32.0158 22.9767 32.4862 22.9767Z" fill="#F7AD1D"/>
<path d="M0.618657 32.0377C1.22102 32.4212 1.86463 32.7328 2.58251 32.8127C3.40767 32.9086 4.22456 32.9485 5.04972 32.613C6.24618 32.1256 6.41946 30.2241 5.21475 29.4412C4.55462 29.0178 3.83674 28.6902 3.18487 28.2428C2.2112 27.5717 1.64184 26.6929 1.53457 25.5424C1.4108 24.312 1.50157 23.0976 2.07092 21.9631C2.74755 20.6209 3.90276 19.8859 5.41278 19.6063C6.50198 19.4066 7.56642 19.4944 8.63912 19.6462C9.09295 19.7101 9.51378 19.846 9.93461 20.0137C10.1574 20.1016 10.2729 20.1895 10.1904 20.4851C9.97586 21.2601 9.81908 22.059 9.6458 22.842C9.53853 23.3054 9.53853 23.2734 9.0682 23.0657C7.88823 22.5384 6.66701 22.3706 5.40453 22.85C4.62064 23.1456 4.29058 24.4958 5.10748 25.2228C5.58606 25.6462 6.15542 25.9418 6.72477 26.2295C8.13578 26.9645 8.98568 28.067 9.17547 29.6249C9.33224 30.9032 9.18372 32.1496 8.63912 33.316C8.08627 34.4985 7.11259 35.2574 5.83361 35.6569C4.83518 35.9765 3.81199 36.0404 2.78055 35.9525C2.08742 35.8966 1.4108 35.7208 0.758932 35.4732C-0.115727 35.1456 -0.0992241 35.1296 0.131818 34.2428C0.313351 33.5317 0.453627 32.7967 0.618657 32.0377Z" fill="#F7AD1D"/>
<path d="M70.5007 4.20286C69.7169 3.77943 68.9 3.4998 68.017 3.41192C66.8618 3.30007 65.8717 3.64361 65.0465 4.45053C63.8831 5.60899 63.454 7.04707 63.3797 8.597C63.3385 9.47583 63.3302 10.3547 63.6603 11.2255C64.1966 12.6396 65.5251 13.3187 66.9526 13.127C67.7448 13.0231 68.4709 12.7115 69.2053 12.3999C69.1227 13.4785 68.8504 14.5091 68.7432 15.5557C68.7184 15.8194 68.5864 15.9073 68.3471 15.9712C66.8288 16.3547 65.3023 16.5464 63.784 16.0191C62.8104 15.6836 62.0017 15.1083 61.3829 14.2854C60.1699 12.6716 59.9636 10.834 60.0214 8.91658C60.0709 7.33469 60.3844 5.80872 61.0611 4.37064C61.9027 2.57304 63.1652 1.14294 65.129 0.439881C66.4328 -0.023501 67.7695 -0.231224 69.1475 0.264116C69.6508 0.44787 70.2037 0.535753 70.7235 0.69554C70.9958 0.775434 71.0948 0.903263 71.0288 1.18289C70.806 2.18955 70.7565 3.19621 70.5007 4.20286Z" fill="#E52124"/>
<path d="M99.2739 32.3884C99.1089 33.3791 98.9439 34.3139 98.7953 35.2486C98.7706 35.4244 98.6798 35.4963 98.5148 35.5362C96.815 36.0236 95.0904 36.2153 93.3824 35.6241C91.9054 35.1048 91.039 34.0023 90.6512 32.5562C90.4449 31.7732 90.3129 30.9663 90.3459 30.1594C90.4201 28.3938 90.7254 26.676 91.6991 25.1501C92.582 23.7679 93.795 22.7932 95.5443 22.6814C97.1286 22.5775 98.6633 23.3285 99.3647 24.7985C99.9835 26.0928 100 27.435 99.8103 28.8092C99.7525 29.2406 99.6617 29.672 99.6122 30.1035C99.5875 30.3751 99.4472 30.4151 99.2079 30.4151C97.3926 30.4071 95.5773 30.423 93.762 30.3991C93.3824 30.3911 93.2999 30.5189 93.3081 30.8545C93.3246 32.1647 94.191 33.0356 95.5608 33.1075C96.7325 33.1714 97.8547 33.0116 98.9026 32.4923C99.0016 32.4523 99.1171 32.4364 99.2739 32.3884ZM95.3545 27.9064C95.3545 27.9064 95.3545 27.9144 95.3545 27.9064C95.8331 27.9144 96.3199 27.9064 96.7985 27.9144C96.9965 27.9224 97.1038 27.8744 97.0955 27.6507C97.0873 27.3232 97.1203 26.9876 97.046 26.6601C96.8315 25.7093 95.7836 25.2619 94.9007 25.7333C94.1168 26.1567 93.8692 26.8997 93.6547 27.6587C93.5969 27.8585 93.7207 27.9064 93.9105 27.9064C94.3973 27.8984 94.8759 27.9064 95.3545 27.9064Z" fill="#F7AD1D"/>
<path d="M55.9947 32.4055C55.8792 33.3802 55.7059 34.3309 55.5409 35.2816C55.5161 35.4175 55.4666 35.4814 55.3263 35.5213C53.8246 35.9448 52.3145 36.1685 50.755 35.793C48.9066 35.3456 47.8587 34.2111 47.4131 32.4614C46.753 29.8649 47.1656 27.3962 48.5188 25.1032C49.311 23.753 50.5322 22.8902 52.1908 22.6904C53.8741 22.4907 55.6729 23.5373 56.267 25.0633C56.6631 26.0779 56.7539 27.1165 56.6383 28.1871C56.5723 28.8103 56.5146 29.4254 56.3908 30.0406C56.3248 30.3682 56.1845 30.4241 55.8709 30.4241C54.0969 30.4081 52.3228 30.4321 50.5487 30.4081C50.1774 30.4002 50.0949 30.512 50.0866 30.8555C50.0619 32.2297 51.0025 33.0286 52.3558 33.1085C53.511 33.1804 54.6167 33.0286 55.6564 32.5013C55.7554 32.4534 55.8792 32.4374 55.9947 32.4055ZM52.133 27.9075C52.4218 27.9075 52.7106 27.9075 52.9994 27.9075C53.9483 27.9075 53.9566 27.9075 53.8741 26.9727C53.8163 26.4055 53.577 25.9261 53.0077 25.6705C52.4713 25.4308 51.968 25.5187 51.4976 25.8462C50.8705 26.2856 50.623 26.9408 50.4414 27.6278C50.3837 27.8356 50.4744 27.9155 50.6972 27.9075C51.1676 27.8995 51.6544 27.9075 52.133 27.9075Z" fill="#F7AD1D"/>
<path d="M19.1929 32.389C19.1186 32.7964 19.0526 33.132 18.9948 33.4675C18.9041 34.0268 18.8215 34.594 18.739 35.1533C18.7143 35.361 18.6153 35.4889 18.4007 35.5528C16.5029 36.0641 14.6133 36.2798 12.7567 35.377C11.7913 34.9056 11.1806 34.1387 10.7928 33.1879C10.24 31.8457 10.2647 30.4476 10.372 29.0335C10.4875 27.5954 10.9166 26.2532 11.7087 25.0308C12.5751 23.6886 13.7881 22.7938 15.4467 22.6899C17.0475 22.5861 18.4832 23.2731 19.2506 24.7432C19.9685 26.1333 19.9025 27.5874 19.7045 29.0574C19.6632 29.385 19.5972 29.7126 19.5559 30.0401C19.5229 30.3197 19.4074 30.4236 19.0856 30.4236C17.3033 30.4076 15.5127 30.4316 13.7304 30.3996C13.3095 30.3916 13.2435 30.5754 13.2518 30.887C13.26 32.2052 14.1347 33.0441 15.5044 33.116C16.6514 33.1799 17.7323 33.0122 18.772 32.5328C18.871 32.4849 18.9948 32.4529 19.1929 32.389ZM15.2321 27.907C15.5374 27.907 15.8345 27.907 16.1398 27.907C17.0392 27.907 17.0475 27.907 16.9897 27.0361C16.9484 26.4529 16.7422 25.9496 16.1481 25.6779C15.5787 25.4143 15.0424 25.5181 14.5638 25.8777C13.9449 26.3411 13.7056 27.0201 13.5488 27.7312C13.5076 27.9229 13.6643 27.907 13.7881 27.907C14.275 27.907 14.7535 27.907 15.2321 27.907Z" fill="#F7AD1D"/>
<path d="M66.5317 32.0047C66.3914 32.8995 66.2676 33.7224 66.1439 34.5453C66.1356 34.6012 66.1191 34.6492 66.1109 34.6971C65.9871 35.52 65.9788 35.504 65.1207 35.7038C63.9902 35.9674 62.8763 36.0233 61.7458 35.7038C60.5411 35.3602 59.6417 34.6412 59.0146 33.6186C57.9501 31.8769 57.8346 29.9754 57.9749 28.01C58.0574 26.8356 58.2719 25.7011 58.668 24.5906C59.2291 23.0247 60.0955 21.6585 61.5313 20.6838C63.1238 19.6052 64.8566 19.4295 66.6967 19.9568C67.134 20.0846 67.5631 20.2044 67.9839 20.3562C68.1077 20.4042 68.2397 20.4201 68.2067 20.6199C68.0417 21.6665 67.8932 22.7131 67.7281 23.7916C67.1258 23.4721 66.5234 23.2164 65.8881 23.0646C64.4853 22.745 63.1486 23.2404 62.3152 24.3589C61.5065 25.4375 61.226 26.6758 61.0527 27.9621C60.9207 28.8968 61.0279 29.8076 61.292 30.7104C61.7458 32.2604 63.1733 33.0673 64.7824 32.6598C65.3682 32.516 65.9211 32.2923 66.5317 32.0047Z" fill="#F7AD1D"/>
<path d="M32.1808 3.0277C33.0472 3.01971 33.9053 3.14754 34.7552 3.26738C34.9615 3.29934 34.9533 3.36325 34.9285 3.52304C34.7965 4.306 34.6727 5.08895 34.5655 5.8799C34.5324 6.12757 34.4087 6.19947 34.1529 6.16751C33.4763 6.07963 32.7914 5.99175 32.1065 5.99974C31.7682 5.99974 31.4546 6.07164 31.1411 6.18349C30.778 6.31931 30.5717 6.58296 30.5387 6.95846C30.4975 7.36592 30.58 7.71745 31.0008 7.93316C31.5454 8.21279 32.0817 8.48442 32.6181 8.78003C34.1776 9.64288 34.5324 11.041 34.3839 12.6229C34.3097 13.3739 34.1364 14.1169 33.6413 14.7321C32.9564 15.587 32.0075 15.9545 30.9348 16.1382C29.6723 16.3539 28.4263 16.2501 27.1721 16.0983C26.8338 16.0583 26.4955 16.0104 26.1572 15.9465C26.0251 15.9225 25.9096 15.8985 25.9509 15.6908C26.0994 14.8999 26.2149 14.1009 26.3304 13.294C26.3635 13.0623 26.4295 13.0144 26.6688 13.0863C27.6424 13.3819 28.6409 13.5497 29.6723 13.4778C29.8868 13.4618 30.1179 13.4538 30.3242 13.3899C30.745 13.2541 31.1493 13.0703 31.2071 12.551C31.2649 12.0397 31.1411 11.6402 30.6295 11.3526C29.9529 10.9611 29.2102 10.6895 28.5831 10.2021C27.4527 9.33129 27.0813 8.18882 27.1969 6.86259C27.2629 6.06365 27.4692 5.29667 27.9807 4.64155C28.7151 3.70679 29.7466 3.30733 30.8935 3.11558C31.3061 3.04368 31.7434 3.0277 32.1808 3.0277Z" fill="#E52124"/>
<path d="M23.9455 29.8077C23.8712 30.5907 24.028 31.2938 24.4983 31.901C25.1089 32.6999 25.9588 32.9795 26.9655 32.7239C27.2791 32.644 27.5926 32.5401 27.898 32.4203C28.1125 32.3324 28.1703 32.3883 28.1455 32.596C28.0217 33.4509 27.8897 34.2978 27.7824 35.1526C27.7494 35.4402 27.5844 35.5761 27.3286 35.64C26.1404 35.9116 24.9522 36.1513 23.7392 35.7199C22.7903 35.3843 22.0971 34.7611 21.6268 33.9303C20.5294 32.0288 20.4221 30.0075 20.9254 27.9223C21.371 26.1007 22.2209 24.5108 23.9125 23.4962C25.0594 22.8091 26.3054 22.5374 27.6504 22.881C28.1455 23.0088 28.6158 23.1766 29.0862 23.3603C29.3667 23.4722 29.5152 23.6 29.4162 23.9595C29.2099 24.7105 29.0614 25.4775 28.9294 26.2445C28.8716 26.58 28.7479 26.5161 28.5416 26.3963C27.9145 26.0288 27.2461 25.8131 26.5117 25.901C25.3647 26.0368 24.6881 26.7638 24.3003 27.7465C24.0362 28.4016 23.8465 29.1047 23.9455 29.8077Z" fill="#F7AD1D"/>
<path d="M38.7404 1.42281C39.1943 1.42281 39.6481 1.4308 40.1019 1.42281C40.3 1.41482 40.3495 1.45477 40.3165 1.67048C40.2505 2.11788 40.1845 2.5573 40.0524 2.98872C39.9617 3.26835 40.0689 3.34025 40.3495 3.32427C40.7043 3.3083 41.0674 3.32427 41.4222 3.31629C41.6037 3.31629 41.6945 3.33226 41.6532 3.55597C41.5047 4.4268 41.3809 5.30563 41.2654 6.18446C41.2406 6.36822 41.1499 6.39218 41.0014 6.39218C40.6053 6.38419 40.201 6.39218 39.8049 6.38419C39.6316 6.38419 39.5491 6.41615 39.5161 6.61589C39.2273 8.36555 38.922 10.1152 38.6249 11.8649C38.6002 12.0167 38.6084 12.1845 38.6167 12.3442C38.6249 12.8396 38.8477 13.0793 39.3511 13.1831C39.6399 13.2391 39.9204 13.255 40.2092 13.2071C40.6218 13.1432 40.6548 13.1751 40.5805 13.5906C40.498 14.062 40.4072 14.5253 40.3165 14.9967C40.3165 15.0127 40.3082 15.0207 40.3082 15.0367C40.4237 15.8436 39.9452 16.0593 39.2273 16.1711C38.4929 16.283 37.7668 16.4028 37.0324 16.2351C35.8112 15.9474 35.3326 15.0127 35.2336 13.8303C35.1593 13.0313 35.3821 12.2564 35.5059 11.4654C35.7534 9.91548 35.9762 8.35756 36.2237 6.79964C36.4383 5.46542 36.6858 4.13919 36.9169 2.81296C36.9746 2.46142 37.0241 2.1019 37.0736 1.75037C37.1067 1.52667 37.1892 1.40683 37.4615 1.4308C37.8905 1.43879 38.3196 1.42281 38.7404 1.42281Z" fill="#E52124"/>
<path d="M60.1201 3.23649C59.9469 3.65993 59.7983 4.08336 59.6086 4.49082C59.295 5.16991 59.1465 5.90493 58.9649 6.62397C58.9237 6.79175 58.8989 6.9036 58.6596 6.89561C57.95 6.87164 57.5209 7.27111 57.2486 7.85433C56.8856 8.6293 56.6958 9.46019 56.539 10.2911C56.3162 11.4735 56.0687 12.6559 55.9036 13.8463C55.8129 14.4855 55.6891 15.1246 55.6148 15.7718C55.5901 15.9795 55.5241 16.0674 55.2848 16.0674C54.3771 16.0514 53.4694 16.0594 52.5618 16.0674C52.3307 16.0674 52.2895 16.0035 52.3225 15.7957C52.6525 13.7824 52.9661 11.7691 53.2962 9.7558C53.585 7.95819 53.8903 6.16059 54.1873 4.355C54.1956 4.33103 54.1956 4.29907 54.1956 4.27511C54.2121 3.96352 54.1378 3.54807 54.3689 3.3803C54.5751 3.2285 54.9795 3.33236 55.293 3.33236C55.8541 3.33236 56.4235 3.34035 56.9846 3.32437C57.2321 3.31638 57.2899 3.38829 57.2486 3.61998C57.1579 4.09934 57.0918 4.58669 57.0093 5.106C57.3394 4.9542 57.4384 4.65859 57.6117 4.44288C58.2388 3.64395 58.9484 3.02078 60.1201 3.23649Z" fill="#E52124"/>
<path d="M85.4936 4.99309C85.6669 4.96912 85.7247 4.85727 85.8072 4.74542C86.1125 4.32998 86.4426 3.92252 86.8552 3.59496C87.276 3.2594 87.7628 3.19549 88.2744 3.1875C88.5385 3.1875 88.555 3.29935 88.456 3.47512C88.1424 4.03437 87.9444 4.64156 87.7381 5.24076C87.5813 5.69616 87.4823 6.15954 87.3833 6.62292C87.3585 6.73477 87.3667 6.87858 87.1852 6.87059C86.1455 6.82265 85.7329 7.51773 85.4771 8.30867C84.9243 9.99442 84.6685 11.7361 84.4127 13.4778C84.2972 14.2607 84.0826 15.0357 84.0496 15.8267C84.0414 15.9944 83.9506 16.0424 83.7773 16.0424C82.8532 16.0344 81.9372 16.0344 81.0131 16.0424C80.7985 16.0424 80.7573 15.9705 80.7738 15.7867C80.8233 15.2035 80.9718 14.6442 81.0626 14.069C81.3019 12.5111 81.5247 10.9531 81.7722 9.40321C81.995 8.01307 82.2425 6.63091 82.4571 5.24875C82.5478 4.6895 82.6139 4.12225 82.7294 3.563C82.7624 3.39522 82.7954 3.30734 83.0017 3.30734C83.8268 3.31533 84.652 3.31533 85.4771 3.30734C85.6752 3.30734 85.6917 3.36327 85.6669 3.54702C85.6092 4.02638 85.4276 4.48976 85.4936 4.99309Z" fill="#E52124"/>
<path d="M44.9792 24.6145C45.3423 24.3269 45.5073 23.9514 45.7631 23.6478C46.2087 23.1365 46.7203 22.793 47.4464 22.793C47.8012 22.793 47.8012 22.9288 47.6774 23.1605C47.2401 24.0073 47.0091 24.9261 46.7863 25.8369C46.7533 25.9807 46.712 26.1245 46.712 26.2603C46.7038 26.4361 46.6295 26.5 46.4562 26.484C45.6393 26.4042 45.2102 27.0433 44.9957 27.6904C44.4511 29.3522 44.2118 31.0699 43.9725 32.7876C43.8487 33.6745 43.6589 34.5613 43.5764 35.4561C43.5599 35.6079 43.4857 35.6558 43.3371 35.6558C42.4542 35.6558 41.5796 35.6558 40.6967 35.6558C40.5151 35.6558 40.5151 35.5839 40.5399 35.4321C40.8122 33.7464 41.0597 32.0526 41.299 30.3669C41.6373 28.034 41.9839 25.7011 42.3222 23.3682C42.3635 23.0566 42.4625 22.9128 42.8338 22.9368C43.4609 22.9767 44.0963 22.9607 44.7316 22.9448C45.0122 22.9368 45.1525 22.9528 45.07 23.2963C44.9709 23.7117 44.9544 24.1432 44.9792 24.6145Z" fill="#F7AD1D"/>
</g>
<defs>
<clipPath id="clip0">
<rect width="100" height="36" fill="white"/>
</clipPath>
</defs>
</svg>
