<svg width="45" height="35" viewBox="0 0 45 35" fill="none" xmlns="http://www.w3.org/2000/svg">
<g clip-path="url(#clip0)">
<path d="M13.9061 27.8437C21.5862 27.8437 27.8122 21.6107 27.8122 13.9219C27.8122 6.23303 21.5862 0 13.9061 0C6.22596 0 0 6.23303 0 13.9219C0 21.6107 6.22596 27.8437 13.9061 27.8437Z" fill="#E41122"/>
<path d="M31.0936 27.8437C38.7737 27.8437 44.9997 21.6107 44.9997 13.9219C44.9997 6.23303 38.7737 0 31.0936 0C23.4135 0 17.1875 6.23303 17.1875 13.9219C17.1875 21.6107 23.4135 27.8437 31.0936 27.8437Z" fill="#F59E1F"/>
<path d="M2.63579 31.5015C2.65237 31.4931 2.67723 31.4848 2.68551 31.4682C3.12474 30.9196 4.2601 30.9113 4.76563 31.5763C4.86507 31.7092 4.9148 31.6428 4.98938 31.5596C5.6275 30.8698 6.84574 30.9113 7.36784 31.6428C7.58331 31.9503 7.64132 32.2994 7.64132 32.6568C7.6496 33.33 7.64132 34.0032 7.64132 34.6765C7.64132 34.8344 7.59159 34.9175 7.41756 34.9092C7.26839 34.9009 7.11093 34.9009 6.96176 34.9092C6.82916 34.9092 6.77944 34.851 6.77944 34.718C6.78772 34.1113 6.77944 33.5129 6.77944 32.9061C6.77944 32.7565 6.76286 32.6152 6.738 32.4739C6.6717 32.1498 6.46452 31.9337 6.18275 31.9004C5.73524 31.8422 5.40375 31.9752 5.238 32.2994C5.16342 32.449 5.13027 32.6069 5.13027 32.7731C5.13027 33.3965 5.13027 34.0282 5.13027 34.6515C5.13027 34.8926 5.11369 34.9092 4.87336 34.9092C4.74905 34.9092 4.62474 34.9009 4.50872 34.9092C4.34297 34.9175 4.26839 34.8593 4.27667 34.6765C4.28496 34.0697 4.27667 33.4547 4.27667 32.8479C4.27667 32.7648 4.27668 32.6817 4.2601 32.6069C4.16065 32.05 3.92032 31.8505 3.38165 31.8838C2.93413 31.917 2.63579 32.2412 2.6275 32.7399C2.61922 33.3799 2.6275 34.0199 2.6275 34.6515C2.6275 34.8926 2.61922 34.9009 2.38717 34.9009C2.238 34.9009 2.09712 34.9009 1.94795 34.9009C1.82364 34.9009 1.76562 34.851 1.76562 34.7263C1.76562 33.596 1.76562 32.4656 1.76562 31.3352C1.76562 31.2022 1.82364 31.1607 1.94795 31.1607C2.09712 31.169 2.25458 31.169 2.40375 31.1607C2.56949 31.1524 2.64408 31.2106 2.6275 31.3851C2.60264 31.4183 2.59435 31.4682 2.63579 31.5015Z" fill="black"/>
<path d="M41.2873 31.5017C41.337 31.4435 41.3122 31.377 41.3122 31.3188C41.3122 30.8534 41.3205 30.3796 41.3122 29.9142C41.3122 29.7479 41.3619 29.6731 41.5359 29.6898C41.6768 29.6981 41.8177 29.6981 41.9586 29.6898C42.1326 29.6731 42.1906 29.7479 42.174 29.9142C42.174 29.9225 42.174 29.9391 42.174 29.9474C42.174 31.5183 42.174 33.0892 42.174 34.6601C42.174 34.9011 42.1658 34.9094 41.9254 34.9094C41.8011 34.9094 41.6768 34.9011 41.5608 34.9094C41.395 34.9177 41.2956 34.8679 41.3205 34.685C41.3205 34.6518 41.337 34.5936 41.2873 34.5853C41.2624 34.577 41.2293 34.6102 41.2044 34.6351C40.6243 35.1671 39.5718 35.0923 38.9586 34.5271C38.1133 33.7541 38.1381 32.2663 39 31.5183C39.605 30.9947 40.6741 30.8866 41.2542 31.4934C41.2542 31.4934 41.2707 31.4934 41.2873 31.5017ZM39.1906 33.031C39.1906 33.7126 39.6464 34.1946 40.2845 34.1946C40.9061 34.1946 41.3702 33.7042 41.3702 33.0393C41.3785 32.3744 40.9144 31.8923 40.2845 31.884C39.6381 31.8757 39.1989 32.3411 39.1906 33.031Z" fill="black"/>
<path d="M33.8541 31.5017C33.8624 31.4934 33.8707 31.4934 33.8707 31.4934C33.937 31.1692 33.937 31.1692 34.2851 31.1692C34.7492 31.1692 34.7492 31.1692 34.7492 31.643C34.7492 32.6487 34.7492 33.6544 34.7492 34.6684C34.7492 34.9094 34.7409 34.9177 34.5005 34.9177C34.3762 34.9177 34.2519 34.9094 34.1359 34.9177C33.9702 34.926 33.879 34.8762 33.8956 34.6933C33.8956 34.6601 33.8956 34.6102 33.8707 34.5936C33.8293 34.5603 33.7961 34.6102 33.7713 34.6351C33.1166 35.2585 31.7077 35.1006 31.1359 34.0284C30.6387 33.0892 30.937 31.8674 31.8072 31.3438C32.4122 30.978 33.3072 30.9614 33.821 31.4934C33.821 31.4934 33.8376 31.4934 33.8541 31.5017ZM32.8597 31.884C32.2215 31.884 31.7657 32.3411 31.7657 32.9978C31.7575 33.6959 32.205 34.1863 32.8431 34.1946C33.4812 34.2029 33.9536 33.7042 33.9453 33.0393C33.9453 32.3661 33.4895 31.884 32.8597 31.884Z" fill="black"/>
<path d="M11.2962 34.5187C10.542 35.2419 9.4564 35.0258 8.9343 34.5187C8.34591 33.9536 8.18016 33.2554 8.37905 32.4741C8.56137 31.7593 9.02546 31.2855 9.74646 31.1193C10.3266 30.978 10.8487 31.0944 11.2879 31.5349C11.2962 31.5183 11.3128 31.5016 11.3128 31.4933C11.3293 31.1692 11.3293 31.1692 11.6525 31.1692C12.1415 31.1692 12.1415 31.1692 12.1415 31.6596C12.1415 32.6653 12.1415 33.671 12.1415 34.685C12.1415 34.8678 12.0835 34.926 11.9094 34.9177C11.7851 34.9094 11.6525 34.9094 11.5282 34.9177C11.3625 34.926 11.2879 34.8678 11.3045 34.6933C11.3128 34.6434 11.3045 34.5935 11.2962 34.5187ZM10.2603 31.884C9.61386 31.884 9.15806 32.3577 9.15806 33.0393C9.15806 33.7042 9.62215 34.1863 10.2437 34.1946C10.8735 34.1946 11.3376 33.7125 11.3376 33.0476C11.3459 32.3577 10.9067 31.884 10.2603 31.884Z" fill="black"/>
<path d="M22.4593 33.3634C22.0698 33.3634 21.6803 33.3634 21.2825 33.3634C21.1251 33.3634 21.1002 33.4216 21.1499 33.5546C21.3074 34.0117 21.7963 34.2943 22.3184 34.2112C22.6085 34.1697 22.8737 34.0865 23.114 33.912C23.2135 33.8372 23.2798 33.8538 23.3378 33.9535C23.4124 34.0782 23.4952 34.2029 23.5781 34.3193C23.6527 34.419 23.6195 34.4855 23.5284 34.552C22.8737 35.059 21.7798 35.1255 21.0753 34.7016C20.3958 34.2943 20.1472 33.513 20.2135 32.8066C20.2632 32.258 20.4704 31.7759 20.9179 31.4268C21.8461 30.7204 23.5201 30.9614 23.7936 32.6071C23.8267 32.7899 23.835 32.9811 23.8267 33.164C23.8267 33.2969 23.7687 33.3551 23.6361 33.3468C23.2549 33.3634 22.8571 33.3634 22.4593 33.3634ZM22.0284 32.6819C22.277 32.6819 22.5339 32.6819 22.7825 32.6819C22.9151 32.6819 22.9566 32.632 22.9151 32.499C22.7991 32.0918 22.4759 31.8341 22.0532 31.8341C21.6223 31.8341 21.2577 32.1084 21.1416 32.5157C21.1085 32.6403 21.1499 32.6819 21.2742 32.6819C21.5311 32.6736 21.7798 32.6819 22.0284 32.6819Z" fill="black"/>
<path d="M14.4533 34.9926C13.9643 34.9926 13.4837 34.8762 13.0362 34.6102C12.9119 34.5354 12.8787 34.4606 12.9699 34.3359C13.0693 34.1946 13.119 34.0035 13.2516 33.9204C13.4091 33.8206 13.5417 34.0284 13.6909 34.0866C14.0887 34.2279 14.4947 34.2778 14.9091 34.1946C14.9837 34.178 15.0583 34.1531 15.1246 34.1198C15.2406 34.0533 15.3235 33.9536 15.3152 33.8123C15.3069 33.6627 15.2074 33.5962 15.0914 33.5546C14.8179 33.4466 14.5196 33.4466 14.2378 33.3884C14.0224 33.3469 13.8069 33.297 13.608 33.1889C12.9284 32.8398 12.8373 31.9339 13.4257 31.4435C13.724 31.1941 14.0804 31.111 14.4533 31.0944C14.9588 31.0695 15.4561 31.1443 15.9119 31.377C16.119 31.4767 16.1273 31.4934 16.0196 31.6928C15.9367 31.8425 15.887 32.0419 15.7627 32.1167C15.6301 32.1999 15.4726 32.0253 15.3152 31.9838C15.0003 31.8923 14.6936 31.8341 14.3704 31.884C14.271 31.9006 14.1798 31.9339 14.0887 31.9838C13.9726 32.0586 13.9229 32.1583 13.9312 32.2996C13.9395 32.4326 14.0306 32.4908 14.1384 32.5323C14.3953 32.6237 14.6605 32.6321 14.9257 32.6736C15.166 32.7152 15.3981 32.765 15.6135 32.8731C16.3014 33.2139 16.4174 34.1115 15.8207 34.6102C15.4312 34.9094 14.9671 34.9842 14.4533 34.9926Z" fill="black"/>
<path d="M17.4455 32.965C17.4455 32.6907 17.4373 32.4164 17.4455 32.1422C17.4538 31.9759 17.3875 31.9261 17.2301 31.9344C17.1058 31.9427 16.9732 31.9344 16.8489 31.9344C16.7494 31.9344 16.6997 31.8928 16.6914 31.7931C16.6914 31.6352 16.6914 31.4772 16.6914 31.3193C16.6914 31.2113 16.7494 31.1697 16.8572 31.1697C16.998 31.178 17.1389 31.1697 17.2798 31.1697C17.3958 31.1697 17.4455 31.1198 17.4455 31.0035C17.4455 30.7458 17.4455 30.4882 17.4455 30.2305C17.4455 30.0975 17.4953 30.0393 17.6279 30.0477C17.7936 30.056 17.9511 30.056 18.1168 30.0477C18.2577 30.0393 18.3074 30.1058 18.2991 30.2388C18.2991 30.4632 18.2991 30.696 18.2991 30.9204C18.2991 31.1697 18.3074 31.1697 18.556 31.1697C18.8461 31.1697 19.1279 31.178 19.4179 31.1697C19.5505 31.1697 19.6085 31.2196 19.6002 31.3526C19.592 31.4856 19.592 31.6185 19.6002 31.7598C19.6085 31.9011 19.5422 31.9427 19.4096 31.9427C19.103 31.9344 18.8047 31.9427 18.498 31.9427C18.3489 31.9427 18.2909 31.9926 18.2909 32.1505C18.2991 32.6575 18.2909 33.1728 18.2991 33.6798C18.3074 34.0704 18.5395 34.2533 18.9207 34.1868C19.0781 34.1619 19.2273 34.1203 19.3682 34.0538C19.4676 34.0039 19.5257 34.0206 19.5671 34.1286C19.6085 34.2782 19.6665 34.4278 19.7163 34.5774C19.7494 34.6772 19.7246 34.7354 19.6334 34.7769C19.1196 35.0263 18.5892 35.0928 18.0588 34.8767C17.5947 34.6855 17.4621 34.2616 17.4373 33.8045C17.429 33.5219 17.4455 33.2393 17.4455 32.965Z" fill="black"/>
<path d="M29.1963 34.9841C28.1687 34.9841 27.4229 34.4023 27.2323 33.4548C26.9505 32.0502 28.0361 30.8948 29.4532 31.0777C29.793 31.1193 30.0997 31.219 30.3814 31.4102C30.4892 31.485 30.5223 31.5515 30.4477 31.6678C30.3648 31.7925 30.282 31.9255 30.2157 32.0585C30.1577 32.1748 30.0914 32.1831 29.9836 32.1083C29.7102 31.9255 29.4035 31.8507 29.0637 31.8756C28.5416 31.9089 28.1273 32.3078 28.0858 32.8314C28.0693 32.9977 28.061 33.1556 28.1024 33.3218C28.2599 33.9868 28.8483 34.3192 29.5444 34.1281C29.6936 34.0865 29.8428 34.0283 29.9753 33.9369C30.0914 33.8538 30.1577 33.887 30.224 34.0034C30.2903 34.1364 30.3648 34.261 30.4477 34.3774C30.5306 34.4938 30.4892 34.5603 30.3897 34.6351C30.0251 34.8927 29.6273 35.0008 29.1963 34.9841Z" fill="black"/>
<path d="M36.605 31.5263C36.9945 31.0692 37.4503 30.9944 37.9642 31.1274C38.0885 31.1606 38.1299 31.2105 38.0802 31.3352C38.0222 31.4931 37.9724 31.6593 37.9227 31.8172C37.8896 31.9336 37.8316 31.9669 37.7155 31.9253C37.6244 31.8921 37.5249 31.8837 37.4255 31.8837C36.8951 31.8754 36.605 32.1497 36.605 32.6817C36.5968 33.33 36.605 33.9783 36.605 34.6349C36.605 34.9008 36.5968 34.9008 36.3398 34.9008C36.2321 34.9008 36.1327 34.9008 36.0249 34.9008C35.7597 34.9008 35.7432 34.8925 35.7432 34.6266C35.7432 34.1112 35.7432 33.5959 35.7432 33.0806C35.7432 32.5154 35.7432 31.9585 35.7432 31.3934C35.7432 31.1689 35.7515 31.1606 35.9835 31.1606C36.1078 31.1606 36.2321 31.1606 36.3481 31.1606C36.5802 31.1606 36.5802 31.1606 36.5968 31.3934C36.5968 31.4266 36.5968 31.4515 36.605 31.5263Z" fill="black"/>
<path d="M25.4917 31.5109C25.6906 31.2615 25.9475 31.1119 26.2625 31.0787C26.4779 31.0538 26.6768 31.087 26.884 31.1452C26.9669 31.1701 27 31.22 26.9669 31.3031C26.9089 31.486 26.8426 31.6688 26.7846 31.8517C26.7514 31.9431 26.7017 31.968 26.6105 31.9348C26.4779 31.8932 26.3453 31.8849 26.2127 31.8932C25.7984 31.9015 25.5415 32.1343 25.4917 32.5498C25.4337 33.007 25.4669 33.4641 25.4586 33.9212C25.4503 34.1872 25.4503 34.4449 25.4586 34.7108C25.4669 34.8688 25.4006 34.9186 25.2514 34.9103C25.1105 34.902 24.9696 34.902 24.8288 34.9103C24.6713 34.9186 24.6133 34.8604 24.6133 34.6942C24.6216 33.6885 24.6133 32.6828 24.6133 31.6771C24.6133 31.1701 24.6133 31.1701 25.1188 31.1701C25.152 31.1701 25.1768 31.1701 25.21 31.1701C25.4337 31.1701 25.4337 31.1701 25.442 31.4028C25.442 31.4278 25.442 31.4527 25.4503 31.4693C25.4669 31.486 25.4752 31.4943 25.4917 31.5109Z" fill="black"/>
<path d="M17.1875 13.9229C17.1875 16.4164 17.8422 18.7602 18.9941 20.7882C19.8892 22.3674 21.0825 23.7472 22.4997 24.8692C24.066 23.6308 25.3671 22.0599 26.2869 20.2646C27.2648 18.3613 27.8118 16.2086 27.8118 13.9229C27.8118 11.6788 27.2814 9.55101 26.3367 7.6726C25.4168 5.83574 24.0991 4.23992 22.4997 2.97656C20.9416 4.20667 19.6488 5.76094 18.7372 7.53961C17.751 9.45127 17.1875 11.6206 17.1875 13.9229Z" fill="#EA621A"/>
</g>
<defs>
<clipPath id="clip0">
<rect width="45" height="35" fill="white"/>
</clipPath>
</defs>
</svg>
