<svg width="83" height="23" viewBox="0 0 83 23" fill="none" xmlns="http://www.w3.org/2000/svg">
<g clip-path="url(#clip0)">
<path d="M67.3997 0C69.8457 0 72.2917 0 74.7377 0C76.314 0 77.7544 0.429405 79.1404 1.28821C81.994 3.05951 83.1355 5.63594 82.9996 8.85648C82.9724 9.36639 82.8094 9.5811 82.2386 9.5811C77.8631 9.55426 73.4603 9.5811 69.0847 9.55426C64.7635 9.52742 61.0402 7.00467 59.4096 3.08635C59.0563 2.22754 58.866 1.34189 58.7573 0.456243C58.7029 0.0805134 58.8932 0 59.1921 0C60.3608 0 61.5294 0 62.698 0C64.2743 0 65.8234 0 67.3997 0Z" fill="#3D82C4"/>
<path fill-rule="evenodd" clip-rule="evenodd" d="M-0.000498816 11.4871V0.617775C-0.000498816 0.161533 0.108211 0.0273438 0.597406 0.0273438C1.71168 0.0407627 2.81916 0.0407627 3.92665 0.0407627C5.03413 0.0407627 6.14161 0.0407627 7.25589 0.0541816C9.40291 0.0541816 10.9248 1.20821 11.5228 3.24788C12.2982 5.93897 13.0917 8.61222 13.8886 11.2967L13.8888 11.2975C14.0693 11.9057 14.25 12.5145 14.4307 13.1242C14.44 13.1609 14.4469 13.1999 14.4539 13.2393C14.4877 13.4304 14.5229 13.6295 14.8384 13.6073C15.1009 13.5857 15.1345 13.4076 15.166 13.241L15.166 13.241C15.1736 13.2006 15.1811 13.1609 15.1917 13.1242C15.5088 12.0328 15.8289 10.9414 16.149 9.85C16.7891 7.66719 17.4293 5.48437 18.0453 3.30156C18.5889 1.39607 20.2195 0.000505945 22.3937 0.0541816C24.6133 0.107641 26.8059 0.0812345 29.0253 0.0545062L29.0522 0.0541816C29.4599 0.0541816 29.623 0.134695 29.623 0.590938C29.5958 7.89082 29.5958 15.1907 29.623 22.5174C29.623 22.9468 29.5142 23.0542 29.0794 23.0542C26.9596 23.0273 24.8125 23.0273 22.6927 23.0542C22.2307 23.0542 22.1491 22.92 22.1491 22.4906C22.1763 18.3576 22.1763 14.1977 22.1491 10.0647C22.1491 10.0213 22.1593 9.97078 22.1699 9.91806C22.2051 9.74242 22.2453 9.54237 21.9317 9.50109C21.6322 9.45883 21.5853 9.64946 21.5391 9.83724C21.5267 9.88797 21.5142 9.9385 21.4969 9.98417C21.0249 11.499 20.5493 13.0103 20.0741 14.5207L20.0736 14.5223C19.2355 17.1857 18.3983 19.8461 17.5833 22.5174C17.4474 22.92 17.2844 23.081 16.8495 23.0542C15.4091 23.0273 13.9959 23.0273 12.5555 23.0542C12.175 23.0542 12.0391 22.9468 11.9304 22.5979C10.6259 18.3844 9.32138 14.1977 7.98968 10.011C7.97609 9.94391 7.95571 9.88353 7.93532 9.82314C7.91494 9.76276 7.89456 9.70237 7.88097 9.63528C7.83347 9.49457 7.72373 9.49731 7.60612 9.50024C7.58914 9.50066 7.57199 9.50109 7.55484 9.50109C7.3646 9.50109 7.33742 9.60844 7.33742 9.76947V10.2257V22.4906C7.33742 22.9468 7.22871 23.081 6.76669 23.081C4.7012 23.0542 2.63572 23.0542 0.543051 23.081C0.0538561 23.081 -0.0820312 22.9737 -0.0820312 22.4906C0.00859006 19.3809 0.00478321 16.3271 0.00100733 13.2981L0.0010073 13.2981C0.000253625 12.6935 -0.000498816 12.0899 -0.000498816 11.4871ZM32.8027 11.5407V0.564028C32.8027 0.161461 32.8842 0.0272721 33.3191 0.0541099C35.4117 0.0809477 37.5044 0.0809477 39.5971 0.0541099C40.1406 0.0541099 40.2493 0.215137 40.2493 0.698217C40.2312 3.38043 40.2373 6.05073 40.2433 8.72499V8.7267V8.72878C40.2463 10.067 40.2493 11.4062 40.2493 12.7484V13.2583C40.2493 13.2813 40.2482 13.3049 40.2471 13.3284C40.2405 13.4697 40.2338 13.611 40.4668 13.634C40.6842 13.6609 40.7657 13.5535 40.8472 13.3925C41.1965 12.6216 41.5613 11.866 41.9298 11.1026L41.9306 11.101C42.0494 10.855 42.1685 10.6082 42.2876 10.3598C43.4563 7.86391 44.6249 5.36799 45.7664 2.87208C46.636 0.966595 48.0764 0.0272721 50.1963 0.0809477C51.99 0.107786 53.7837 0.107786 55.5503 0.0809477C55.9579 0.0809477 56.0938 0.134623 56.0938 0.590866C56.0757 5.47535 56.0817 10.3598 56.0878 15.2443L56.0878 15.2535C56.0908 17.6927 56.0938 20.1319 56.0938 22.571C56.0938 22.9468 55.9851 23.0809 55.6046 23.0809C53.4848 23.0541 51.3377 23.0541 49.2179 23.0809C48.7559 23.0809 48.6472 22.9468 48.6472 22.5173C48.6653 19.761 48.6592 16.9927 48.6532 14.2284C48.6502 12.8478 48.6472 11.4681 48.6472 10.0914C48.6472 10.046 48.6567 9.99438 48.6665 9.94099C48.6974 9.77344 48.7314 9.58891 48.4841 9.52785C48.1604 9.42949 48.0648 9.69164 47.9884 9.9014C47.9842 9.91275 47.9802 9.92395 47.9761 9.93493C47.9733 9.94248 47.9705 9.94993 47.9677 9.95726C47.4333 11.1022 46.8958 12.2472 46.3584 13.3922C45.2833 15.6824 44.2082 17.9727 43.1573 20.263C42.2876 22.1685 40.8744 23.1078 38.7274 23.0809C36.9337 23.0541 35.1128 23.0541 33.3191 23.0809C32.9114 23.0809 32.8299 22.9736 32.8299 22.5979C32.8027 18.8674 32.8027 15.1906 32.8027 11.5407ZM82.0211 10.9235H70.8512C67.1279 10.9235 63.4045 10.9235 59.6269 10.9772C59.192 10.9772 59.0562 11.0577 59.0562 11.5139C59.0833 15.1639 59.0833 18.8407 59.0562 22.4906C59.0562 22.9468 59.192 23.0542 59.6541 23.0542C61.7739 23.0274 63.8666 23.0274 65.9864 23.0542C66.4756 23.0542 66.5571 22.92 66.5571 22.4638C66.5435 21.511 66.5435 20.565 66.5435 19.6189C66.5435 18.6729 66.5435 17.7269 66.53 16.7741C66.53 16.3984 66.6658 16.2911 67.0463 16.2911H72.808C73.8679 16.2911 74.9278 16.2911 75.9605 16.0764C78.787 15.4859 80.9884 14.0367 82.3472 11.4871C82.5918 11.0577 82.5647 10.9235 82.0211 10.9235Z" fill="#076947"/>
</g>
<defs>
<clipPath id="clip0">
<rect width="83" height="23" fill="white"/>
</clipPath>
</defs>
</svg>
