<svg width="10" height="16" viewBox="0 0 10 16" fill="none" xmlns="http://www.w3.org/2000/svg">
<path fill-rule="evenodd" clip-rule="evenodd" d="M4.57441 2.389C4.12689 2.38953 3.69785 2.56754 3.3814 2.88399C3.06496 3.20044 2.88694 3.62948 2.88642 4.077C2.88642 5.007 3.64341 5.764 4.57441 5.764C5.02176 5.76347 5.45066 5.5856 5.76707 5.26937C6.08349 4.95314 6.26162 4.52435 6.26242 4.077C6.26189 3.62948 6.08387 3.20044 5.76743 2.88399C5.45098 2.56754 5.02194 2.38953 4.57441 2.389V2.389ZM4.57441 8.152C3.49389 8.15094 2.45791 7.7213 1.69377 6.95735C0.92963 6.1934 0.499739 5.15752 0.498415 4.077C0.499209 2.99613 0.928867 1.95974 1.69306 1.19536C2.45726 0.430971 3.49354 0.00105939 4.57441 0C5.65546 0.000794593 6.692 0.43059 7.45641 1.195C8.22083 1.95942 8.65062 2.99596 8.65142 4.077C8.65009 5.1577 8.22006 6.19372 7.45571 6.95771C6.69135 7.72169 5.65511 8.15121 4.57441 8.152V8.152ZM2.92541 11.477C2.08684 11.286 1.28657 10.9547 0.558415 10.497C0.290281 10.3283 0.100136 10.06 0.0298101 9.75117C-0.0405161 9.44229 0.0147374 9.11813 0.183415 8.85C0.352093 8.58187 0.620378 8.39172 0.92925 8.3214C1.23812 8.25107 1.56228 8.30632 1.83042 8.475C2.65328 8.98975 3.60431 9.26271 4.57492 9.26271C5.54552 9.26271 6.49655 8.98975 7.31941 8.475C7.58755 8.30632 7.91171 8.25107 8.22058 8.3214C8.52945 8.39172 8.79774 8.58187 8.96642 8.85C9.13509 9.11813 9.19035 9.44229 9.12002 9.75117C9.04969 10.06 8.85955 10.3283 8.59142 10.497C7.86314 10.9544 7.06291 11.2858 6.22442 11.477L8.50342 13.757C8.61425 13.868 8.70214 13.9997 8.76208 14.1446C8.82201 14.2895 8.85281 14.4449 8.85272 14.6017C8.85263 14.7585 8.82164 14.9138 8.76154 15.0587C8.70143 15.2036 8.61338 15.3352 8.50242 15.446C8.39145 15.5568 8.25974 15.6447 8.1148 15.7047C7.96987 15.7646 7.81455 15.7954 7.65771 15.7953C7.50087 15.7952 7.34559 15.7642 7.20072 15.7041C7.05586 15.644 6.92425 15.556 6.81342 15.445L4.57542 13.205L2.33542 15.445C2.11144 15.669 1.80766 15.7948 1.49091 15.7948C1.17417 15.7948 0.87039 15.669 0.646415 15.445C0.42244 15.221 0.296612 14.9172 0.296612 14.6005C0.296612 14.2838 0.42244 13.98 0.646415 13.756L2.92541 11.477Z" fill="#BDBDBD"/>
</svg>
