<svg width="1566" height="300" viewBox="0 0 1566 300" fill="none" xmlns="http://www.w3.org/2000/svg">
<path d="M0.999993 150C0.999993 133.445 13.7075 115.808 35.4114 98.5816C57.0577 81.401 87.4101 64.8237 122.158 50.355C191.659 21.4162 278.531 1.00005 348.016 1.00005L348.193 1.00005L348.385 1.00005L348.591 1.00005L348.812 1.00005L349.048 1.00005L349.298 1.00005L349.563 1.00005L349.842 1.00005L350.135 1.00005L350.443 1.00005L350.766 1.00005L351.103 1.00005L351.453 1.00005L351.818 1.00005L352.198 1.00005L352.591 1.00005L352.998 1.00005L353.42 1.00005L353.855 1.00005L354.304 1.00005L354.767 1.00005L355.244 1.00005L355.734 1.00005L356.239 1.00005L356.756 1.00005L357.288 1.00005L357.833 1.00005L358.391 1.00005L358.963 1.00005L359.549 1.00005L360.147 1.00005L360.759 1.00005L361.384 1.00005L362.023 1.00005L362.674 1.00005L363.339 1.00005L364.017 1.00005L364.707 1.00005L365.411 1.00005L366.128 1.00005L366.857 1.00004L367.599 1.00004L368.354 1.00004L369.122 1.00004L369.902 1.00004L370.695 1.00004L371.5 1.00004L372.318 1.00004L373.149 1.00004L373.992 1.00004L374.847 1.00004L375.715 1.00004L376.594 1.00004L377.486 1.00004L378.39 1.00004L379.307 1.00004L380.235 1.00004L381.175 1.00004L382.128 1.00004L383.092 1.00004L384.068 1.00004L385.056 1.00004L386.056 1.00004L387.067 1.00004L388.09 1.00004L389.125 1.00004L390.171 1.00004L391.229 1.00004L392.298 1.00004L393.379 1.00004L394.471 1.00004L395.574 1.00004L396.689 1.00004L397.815 1.00004L398.952 1.00004L400.1 1.00004L401.259 1.00004L402.429 1.00004L403.611 1.00004L404.803 1.00004L406.006 1.00004L407.22 1.00004L408.445 1.00004L409.68 1.00004L410.926 1.00004L412.183 1.00004L413.45 1.00004L414.728 1.00004L416.016 1.00004L417.315 1.00004L418.624 1.00004L419.944 1.00004L421.274 1.00004L422.614 1.00004L423.964 1.00004L425.324 1.00004L426.695 1.00004L428.075 1.00004L429.466 1.00004L430.866 1.00004L432.276 1.00004L433.696 1.00004L435.126 1.00004L436.566 1.00004L438.016 1.00004L439.475 1.00004L440.943 1.00004L442.421 1.00004L443.909 1.00004L445.406 1.00004L446.913 1.00004L448.429 1.00004L449.954 1.00004L451.488 1.00004L453.032 1.00004L454.585 1.00004L456.147 1.00004L457.718 1.00004L459.298 1.00004L460.887 1.00004L462.485 1.00004L464.091 1.00004L465.707 1.00004L467.331 1.00004L468.964 1.00004L470.606 1.00004L472.256 1.00004L473.915 1.00004L475.582 1.00004L477.258 1.00004L478.942 1.00004L480.635 1.00004L482.336 1.00004L484.045 1.00004L485.762 1.00004L487.488 1.00004L489.221 1.00004L490.963 1.00004L492.713 1.00004L494.471 1.00004L496.236 1.00004L498.01 1.00004L499.791 1.00004L501.58 1.00004L503.377 1.00004L505.182 1.00004L506.994 1.00004L508.814 1.00004L510.641 1.00004L512.476 1.00004L514.318 1.00004L516.167 1.00004L518.024 1.00004L519.888 1.00004L521.76 1.00004L523.638 1.00004L525.524 1.00004L527.417 1.00004L529.317 1.00004L531.223 1.00004L533.137 1.00004L535.058 1.00004L536.985 1.00004L538.919 1.00004L540.86 1.00004L542.808 1.00004L544.762 1.00004L546.723 1.00004L548.691 1.00004L550.665 1.00004L552.645 1.00004L554.632 1.00004L556.625 1.00004L558.624 1.00004L560.63 1.00004L562.642 1.00004L564.66 1.00004L566.684 1.00004L568.714 1.00004L570.75 1.00004L572.792 1.00004L574.841 1.00004L576.894 1.00004L578.954 1.00004L581.019 1.00004L583.091 1.00004L585.167 1.00004L587.25 1.00004L589.338 1.00004L591.431 1.00004L593.53 1.00004L595.634 1.00003L597.744 1.00003L599.859 1.00003L601.979 1.00003L604.104 1.00003L606.235 1.00003L608.371 1.00003L610.512 1.00003L612.657 1.00003L614.808 1.00003L616.964 1.00003L619.124 1.00003L621.29 1.00003L623.46 1.00003L625.635 1.00003L627.814 1.00003L629.998 1.00003L632.187 1.00003L634.38 1.00003L636.578 1.00003L638.78 1.00003L640.986 1.00003L643.197 1.00003L645.412 1.00003L647.631 1.00003L649.855 1.00003L652.082 1.00003L654.314 1.00003L656.55 1.00003L658.789 1.00003L661.033 1.00003L663.281 1.00003L665.532 1.00003L667.787 1.00003L670.046 1.00003L672.308 1.00003L674.574 1.00003L676.844 1.00003L679.117 1.00003L681.394 1.00003L683.674 1.00003L685.958 1.00003L688.245 1.00003L690.535 1.00003L692.828 1.00003L695.125 1.00003L697.424 1.00003L699.727 1.00003L702.033 1.00003L704.342 1.00003L706.654 1.00003L708.969 1.00003L711.286 1.00003L713.606 1.00003L715.929 1.00003L718.255 1.00003L720.584 1.00003L722.915 1.00003L725.248 1.00003L727.584 1.00003L729.923 1.00003L732.264 1.00003L734.607 1.00003L736.953 1.00003L739.3 1.00003L741.65 1.00003L744.003 1.00003L746.357 1.00003L748.713 1.00003L751.072 1.00003L753.432 1.00003L755.794 1.00003L758.158 1.00003L760.524 1.00003L762.892 1.00003L765.261 1.00003L767.632 1.00003L770.005 1.00003L772.379 1.00003L774.754 1.00003L777.132 1.00003L779.51 1.00003L781.89 1.00003L784.271 1.00003L786.654 1.00003L789.037 1.00003L791.422 1.00003L793.808 1.00003L796.195 1.00003L798.583 1.00003L800.973 1.00003L803.363 1.00003L805.753 1.00003L808.145 1.00003L810.538 1.00003L812.931 1.00003L815.325 1.00003L817.719 1.00003L820.114 1.00003L822.51 1.00003L824.906 1.00002L827.302 1.00002L829.699 1.00002L832.096 1.00002L834.494 1.00002L836.891 1.00002L839.289 1.00002L841.687 1.00002L844.085 1.00002L846.483 1.00002L848.882 1.00002L851.28 1.00002L853.677 1.00002L856.075 1.00002L858.473 1.00002L860.87 1.00002L863.267 1.00002L865.664 1.00002L868.06 1.00002L870.456 1.00002L872.851 1.00002L875.246 1.00002L877.64 1.00002L880.033 1.00002L882.426 1.00002L884.818 1.00002L887.209 1.00002L889.599 1.00002L891.988 1.00002L894.377 1.00002L896.764 1.00002L899.151 1.00002L901.536 1.00002L903.92 1.00002L906.303 1.00002L908.685 1.00002L911.065 1.00002L913.444 1.00002L915.822 1.00002L918.198 1.00002L920.573 1.00002L922.946 1.00002L925.317 1.00002L927.687 1.00002L930.055 1.00002L932.422 1.00002L934.787 1.00002L937.149 1.00002L939.51 1.00002L941.869 1.00002L944.226 1.00002L946.581 1.00002L948.934 1.00002L951.285 1.00002L953.634 1.00002L955.98 1.00002L958.324 1.00002L960.666 1.00002L963.005 1.00002L965.342 1.00002L967.677 1.00002L970.008 1.00002L972.338 1.00002L974.664 1.00002L976.989 1.00002L979.31 1.00002L981.628 1.00002L983.944 1.00002L986.257 1.00002L988.567 1.00002L990.874 1.00002L993.177 1.00002L995.478 1.00002L997.776 1.00002L1000.07 1.00002L1002.36 1.00002L1004.65 1.00002L1006.93 1.00002L1009.22 1.00002L1011.49 1.00002L1013.77 1.00002L1016.04 1.00002L1018.31 1.00002L1020.57 1.00002L1022.83 1.00002L1025.09 1.00002L1027.34 1.00002L1029.59 1.00002L1031.83 1.00002L1034.07 1.00002L1036.31 1.00002L1038.54 1.00002L1040.77 1.00002L1043 1.00002L1045.22 1.00002L1047.44 1.00002L1049.65 1.00002L1051.86 1.00002L1054.06 1.00001L1056.26 1.00001L1058.45 1.00001L1060.64 1.00001L1062.83 1.00001L1065.01 1.00001L1067.19 1.00001L1069.36 1.00001L1071.53 1.00001L1073.69 1.00001L1075.84 1.00001L1078 1.00001L1080.14 1.00001L1082.29 1.00001L1084.42 1.00001L1086.56 1.00001L1088.68 1.00001L1090.81 1.00001L1092.92 1.00001L1095.03 1.00001L1097.14 1.00001L1099.24 1.00001L1101.34 1.00001L1103.43 1.00001L1105.51 1.00001L1107.59 1.00001L1109.66 1.00001L1111.73 1.00001L1113.79 1.00001L1115.85 1.00001L1117.9 1.00001L1119.94 1.00001L1121.98 1.00001L1124.01 1.00001L1126.04 1.00001L1128.06 1.00001L1130.07 1.00001L1132.08 1.00001L1134.08 1.00001L1136.08 1.00001L1138.07 1.00001L1140.05 1.00001L1142.03 1.00001L1143.99 1.00001L1145.96 1.00001L1147.91 1.00001L1149.86 1.00001L1151.81 1.00001L1153.74 1.00001L1155.67 1.00001L1157.6 1.00001L1159.51 1.00001L1161.42 1.00001L1163.32 1.00001L1165.22 1.00001L1167.11 1.00001L1168.99 1.00001L1170.86 1.00001L1172.73 1.00001L1174.59 1.00001L1176.44 1.00001L1178.29 1.00001L1180.12 1.00001L1181.95 1.00001L1183.78 1.00001L1185.59 1.00001L1187.4 1.00001L1189.2 1.00001L1190.99 1.00001L1192.77 1.00001L1194.55 1.00001L1196.32 1.00001L1198.08 1.00001L1199.83 1.00001L1201.58 1.00001L1203.31 1.00001L1205.04 1.00001L1206.76 1.00001L1208.47 1.00001L1210.18 1.00001L1211.87 1.00001L1213.56 1.00001L1215.24 1.00001L1216.91 1.00001L1218.57 1.00001L1220.22 1.00001L1221.87 1.00001L1223.5 1.00001L1225.13 1.00001L1226.75 1.00001L1228.36 1.00001L1229.96 1.00001L1231.55 1.00001L1233.13 1.00001L1234.71 1.00001L1236.27 1.00001L1237.83 1.00001L1239.38 1.00001L1240.91 1.00001L1242.44 1.00001L1243.96 1.00001L1245.47 1.00001L1246.97 1.00001L1248.46 1.00001L1249.94 1.00001L1251.42 1.00001L1252.88 1.00001L1254.33 1.00001L1255.77 1.00001L1257.21 1.00001L1258.63 1.00001L1260.05 1.00001L1261.45 1.00001L1262.84 1.00001L1264.23 1.00001L1265.6 1.00001L1266.96 1.00001L1268.32 1.00001L1269.66 1.00001L1271 1.00001L1272.32 1.00001L1273.63 1.00001L1274.93 1.00001L1572 1.00002L1679.06 1.00005L1709.93 1.00005L1718.16 1.00005L1720 1.00005L1720 150L1720 299L1718.16 299L1709.93 299L1679.06 299L1572 299L1274.93 299L348.016 299C277.275 299 190.405 277.646 121.218 248.237C86.6274 233.534 56.5084 216.838 35.0559 199.831C24.3297 191.327 15.7996 182.769 9.95813 174.37C4.11514 165.969 0.999994 157.783 0.999993 150Z" stroke="#DFDFDF" stroke-width="2"/>
<path d="M393.827 225.075L393.827 247.539C341.81 239.96 295 198.139 295 139.845C295 81.5507 341.81 39.7296 393.827 32.1508L393.827 54.6145C358.146 62.2984 329.49 99.8484 329.49 139.845C329.49 179.841 358.146 217.391 393.827 225.075Z" stroke="#DFDFDF" stroke-width="2"/>
<path d="M294 139.948L329.405 139.948M327.272 216.501L353.719 200.334M355.852 77.6591L329.405 61.4926" stroke="#DFDFDF" stroke-width="2"/>
</svg>
