<svg width="22" height="16" viewBox="0 0 22 16" fill="none">
<path fill-rule="evenodd" clip-rule="evenodd" d="M2.625 1.5H19.375C19.4602 1.5 19.5429 1.51066 19.6219 1.53071L11.9043 8.13285C11.3429 8.61308 10.5155 8.61308 9.95411 8.13285L2.27446 1.56316C2.38354 1.52233 2.50166 1.5 2.625 1.5ZM1.63853 2.33513C1.62963 2.38877 1.625 2.44384 1.625 2.5V13.5C1.625 13.6072 1.64187 13.7105 1.6731 13.8073L7.27145 8.20895L7.97855 8.91605L2.4164 14.4782C2.48368 14.4925 2.55346 14.5 2.625 14.5H19.375C19.4822 14.5 19.5855 14.4831 19.6823 14.4519L14.1464 8.91605L14.8536 8.20895L20.3532 13.7086C20.3675 13.6413 20.375 13.5715 20.375 13.5V2.5C20.375 2.40761 20.3625 2.31814 20.339 2.23321L12.5543 8.89274C11.6187 9.69312 10.2397 9.69312 9.30406 8.89274L1.63853 2.33513ZM0.625 2.5C0.625 1.39543 1.52043 0.5 2.625 0.5H19.375C20.4796 0.5 21.375 1.39543 21.375 2.5V13.5C21.375 14.6046 20.4796 15.5 19.375 15.5H2.625C1.52043 15.5 0.625 14.6046 0.625 13.5V2.5Z"/>
</svg>
