<svg width="22" height="22" viewBox="0 0 22 22" fill="none" xmlns="http://www.w3.org/2000/svg">
<path d="M17.0444 22C17.016 22 16.9889 21.9973 16.9605 21.9932C16.7899 21.9661 16.6424 21.8591 16.5625 21.706L12.0381 12.9168C11.8864 13.0699 11.7375 13.2203 11.5873 13.372C11.0227 13.9384 10.4582 14.5061 9.8923 15.0711C9.41576 15.548 8.93787 16.0236 8.46133 16.4991L8.20817 16.7511C8.17027 16.7891 8.12017 16.8392 8.05519 16.8866C8.05384 16.9273 8.05655 16.9896 8.05925 17.0343L8.06332 17.1197C8.07144 17.3568 8.08362 17.5925 8.09445 17.8296C8.10664 18.0884 8.11882 18.3472 8.1283 18.6073C8.13777 18.8959 8.14454 19.1832 8.14996 19.4718C8.15402 19.6777 8.15808 19.8837 8.16485 20.0882C8.17297 20.3579 8.08498 20.576 7.89815 20.7562C7.66394 20.9811 7.42838 21.2196 7.19959 21.4499C7.09129 21.5597 6.98298 21.6681 6.87468 21.7764C6.80022 21.851 6.72305 21.8903 6.68244 21.9106L6.66755 21.9187C6.53894 21.9932 6.38596 22.0122 6.24245 21.9702C6.1003 21.9282 5.98117 21.8293 5.91348 21.6979L5.78351 21.4418C5.69146 21.2602 5.60075 21.08 5.50598 20.9025C5.43965 20.7792 5.37196 20.6559 5.30427 20.534C5.21492 20.3728 5.12557 20.2115 5.04028 20.0476C4.9049 19.7875 4.77358 19.5246 4.64226 19.2618C4.55291 19.0843 4.46491 18.9068 4.37421 18.7293C4.34307 18.6683 4.31193 18.606 4.2808 18.545C4.18603 18.3553 4.09668 18.1765 3.9965 18.0085C3.98161 18.0004 3.96401 17.9922 3.95047 17.9855C3.92204 17.9719 3.89361 17.957 3.86789 17.9435C3.42519 17.7077 2.97979 17.4774 2.53575 17.247C2.33674 17.1441 2.13773 17.0411 1.93872 16.9395C1.72347 16.8297 1.50957 16.7186 1.29431 16.6075C1.06552 16.4883 0.83808 16.3677 0.602518 16.2444L0.289791 16.0791C0.138165 15.9992 0.0339222 15.8529 0.00684616 15.6848C-0.0202299 15.5155 0.0339222 15.3448 0.153057 15.2215L0.331758 15.0358C0.464431 14.899 0.591688 14.7662 0.721653 14.6362C0.935554 14.4221 1.12915 14.2338 1.31597 14.0603C1.45677 13.9289 1.64901 13.849 1.83177 13.8463C2.21625 13.8408 2.61291 13.8341 3.01364 13.8449C3.47799 13.8571 3.94641 13.8788 4.39993 13.8991L4.71672 13.9126C4.83585 13.9181 4.9401 13.9425 5.01456 13.9601C5.05517 13.9695 5.09172 13.9777 5.28667 13.7799C5.75915 13.2989 6.24381 12.8138 6.71222 12.3464C6.98027 12.0781 7.24833 11.8098 7.51638 11.5416C7.95095 11.1053 8.38281 10.6677 8.81603 10.23L9.08002 9.96313L0.29656 5.43101C0.142226 5.35107 0.0366298 5.20339 0.00955376 5.03267C-0.0175223 4.86196 0.0393374 4.68853 0.162533 4.56524C0.288437 4.43923 0.41434 4.31323 0.53889 4.18858C0.955861 3.76991 1.35117 3.37428 1.76814 2.98137C2.04026 2.72394 2.43015 2.7971 2.59802 2.82691C2.80245 2.86485 3.00145 2.91091 3.19505 2.95698C3.29929 2.98137 3.40353 3.00575 3.50778 3.02879C3.66888 3.06401 3.82863 3.09789 3.98973 3.13176C4.15354 3.16563 4.3187 3.20086 4.48251 3.23609C4.94416 3.3377 5.40445 3.43796 5.86339 3.545C6.0272 3.58294 6.19101 3.62359 6.35346 3.66559C6.5606 3.71843 6.75554 3.7672 6.95455 3.81056C7.15491 3.85392 7.35528 3.89321 7.55699 3.93115C7.76548 3.97044 7.97261 4.01109 8.17974 4.0558C8.37469 4.09915 8.56693 4.14657 8.7524 4.194C8.92163 4.23735 9.09085 4.27935 9.26008 4.31729C9.46044 4.362 9.66215 4.40265 9.86252 4.44194C10.0642 4.48259 10.2659 4.52188 10.4663 4.56659C10.6653 4.6113 10.8643 4.65872 11.0633 4.7075C11.2407 4.75086 11.418 4.79421 11.5954 4.83486C11.7186 4.86196 11.8445 4.88499 11.969 4.90667C12.0882 4.92835 12.2073 4.95003 12.3251 4.97441C12.4402 4.9988 12.5539 5.02726 12.6676 5.05571C12.7637 5.0801 12.8585 5.10448 12.956 5.12481C13.0236 5.13971 13.1022 5.15055 13.1847 5.16274C13.3634 5.18849 13.5638 5.21694 13.7642 5.29417C13.7669 5.29146 13.7696 5.28739 13.7723 5.28468C13.8102 5.24133 13.8481 5.19933 13.886 5.16139C14.678 4.38504 15.474 3.58294 16.2443 2.80929L16.4366 2.6169C16.6627 2.39063 16.8847 2.1603 17.1081 1.93132C17.5345 1.49369 17.9772 1.0398 18.4307 0.607593C19.0426 0.0249892 19.7805 -0.143017 20.5643 0.122542C21.1221 0.310872 21.535 0.667209 21.7611 1.15362C21.9086 1.47202 22.0887 1.953 21.9506 2.46515L21.9384 2.51122C21.8829 2.71852 21.8152 2.97595 21.6352 3.22525C21.4023 3.54907 21.1329 3.80921 20.8716 4.05986C20.7796 4.14928 20.6862 4.23735 20.5968 4.32948C20.4371 4.49207 20.276 4.65601 20.1162 4.81996C19.8671 5.07468 19.6166 5.33075 19.3648 5.58412C18.8694 6.08407 18.3712 6.58267 17.873 7.07992L17.6699 7.28315C17.5589 7.39425 17.4465 7.50535 17.3355 7.61646C17.1257 7.82511 16.909 8.03918 16.6979 8.25461C16.7263 8.37926 16.7561 8.50256 16.7872 8.62585C16.8075 8.71121 16.8292 8.79521 16.8495 8.88057C16.9023 9.10277 16.9551 9.32633 17.0052 9.54853C17.058 9.78293 17.1081 10.0187 17.1581 10.2531C17.2204 10.5403 17.2813 10.8289 17.3409 11.1161C17.3707 11.2625 17.4005 11.4074 17.4303 11.5538C17.4763 11.7828 17.5223 12.0117 17.5711 12.2394C17.5968 12.3572 17.6252 12.4751 17.6536 12.593C17.6834 12.7176 17.7146 12.8409 17.7403 12.9669C17.7782 13.1404 17.8134 13.3138 17.8486 13.4872C17.8906 13.6972 17.9339 13.9086 17.9799 14.1172C18.0232 14.311 18.0693 14.5034 18.1166 14.6958C18.1667 14.9017 18.2168 15.1077 18.2628 15.315C18.3143 15.548 18.3617 15.7838 18.4077 16.0181C18.4361 16.1604 18.4632 16.3013 18.493 16.4436C18.5593 16.7633 18.627 17.0817 18.6974 17.4001L18.7272 17.537C18.7827 17.7944 18.8396 18.0532 18.9005 18.3093C18.9641 18.5748 19.0305 18.839 19.0968 19.1032L19.1916 19.4799C19.2931 19.885 19.1198 20.1587 18.9573 20.3172C18.5837 20.6817 18.2209 21.0462 17.8351 21.4323L17.4289 21.8388C17.3247 21.9431 17.1866 22 17.0444 22ZM1.43375 15.4559C1.55424 15.5195 1.67338 15.5819 1.79251 15.6442C2.00506 15.7553 2.21896 15.8637 2.4315 15.9734C2.63187 16.0764 2.83358 16.1794 3.03259 16.2837C3.4807 16.5154 3.92881 16.7484 4.37421 16.9855C4.39045 16.9937 4.40805 17.0032 4.42701 17.0113C4.55697 17.075 4.75192 17.1712 4.88053 17.3757C5.02132 17.602 5.13775 17.8351 5.25012 18.0586C5.2799 18.1182 5.30968 18.1778 5.33947 18.2361C5.43017 18.415 5.52088 18.5952 5.61023 18.774C5.73884 19.0328 5.8688 19.2902 6.00148 19.5463C6.08135 19.7007 6.16529 19.8525 6.25058 20.0042C6.32233 20.133 6.39272 20.2617 6.46177 20.3917C6.49155 20.4486 6.52134 20.5056 6.55112 20.5625C6.72441 20.3877 6.9004 20.2115 7.08046 20.0381C7.07504 19.8539 7.07233 19.6737 7.06827 19.4921C7.06286 19.2089 7.05609 18.9257 7.04661 18.6412C7.03849 18.3865 7.02495 18.1331 7.01277 17.8784C7.00058 17.6372 6.98975 17.3974 6.98027 17.1563L6.97757 17.0872C6.96403 16.823 6.93966 16.3311 7.41891 16.0073C7.42567 16.0005 7.43244 15.9938 7.43921 15.987L7.69779 15.7296C8.17433 15.254 8.65086 14.7798 9.1274 14.3029C9.69194 13.7379 10.2565 13.1715 10.8197 12.6052C11.0363 12.3884 11.2515 12.1703 11.4708 11.948L11.793 11.6215C11.9149 11.4982 12.0895 11.4413 12.2601 11.4671C12.432 11.4928 12.5796 11.5998 12.6595 11.7543L17.1866 20.5476C17.5007 20.2332 17.8012 19.9324 18.1099 19.6303L18.0449 19.3688C17.9772 19.1005 17.9095 18.8309 17.8459 18.5613C17.7823 18.2971 17.7254 18.0315 17.6685 17.7673L17.6387 17.6305C17.5683 17.308 17.4993 16.9869 17.433 16.6631C17.4032 16.5181 17.3748 16.3745 17.3463 16.2295C17.3017 16.0032 17.257 15.7756 17.2069 15.5507C17.1622 15.3515 17.1148 15.1524 17.0661 14.9532C17.0174 14.754 16.97 14.5549 16.9253 14.3557C16.8766 14.1389 16.8332 13.9221 16.7886 13.704C16.7547 13.5346 16.7195 13.3653 16.683 13.1973C16.6586 13.0821 16.6302 12.9656 16.6017 12.8504C16.5706 12.723 16.5395 12.5957 16.5124 12.4683C16.4623 12.2353 16.4163 12.0036 16.3689 11.7706C16.3405 11.6269 16.3107 11.482 16.2809 11.3383C16.2213 11.0525 16.1604 10.7679 16.0995 10.4821C16.0494 10.2504 16.0007 10.0187 15.9479 9.78835C15.8991 9.56886 15.8477 9.35072 15.7949 9.13258C15.7746 9.04993 15.7556 8.96728 15.7353 8.88463C15.692 8.70443 15.6473 8.52559 15.6094 8.34539C15.5512 8.07306 15.608 7.8224 15.7678 7.65846C16.0345 7.38341 16.308 7.11108 16.5733 6.84823C16.6843 6.73848 16.7953 6.62738 16.9063 6.51764L17.1094 6.3144C17.6063 5.81716 18.1031 5.32127 18.5986 4.82267C18.8477 4.57066 19.0968 4.31729 19.3445 4.06393C19.5056 3.89998 19.6654 3.73604 19.8265 3.5721C19.924 3.47319 20.0228 3.37699 20.123 3.28215C20.3599 3.05453 20.5833 2.84046 20.7579 2.59522C20.8215 2.50715 20.854 2.38115 20.8933 2.23617L20.9068 2.18604C20.9529 2.01533 20.8567 1.77687 20.7809 1.61292C20.6807 1.3975 20.498 1.24575 20.2204 1.15226C19.8251 1.01813 19.4948 1.09535 19.1807 1.39479C18.7407 1.81345 18.3075 2.25921 17.8865 2.69006C17.6604 2.92175 17.4343 3.15344 17.2069 3.38241L17.0146 3.57481C16.2416 4.35116 15.4429 5.15461 14.6468 5.93639C14.6265 5.95671 14.6062 5.97974 14.5873 6.00278C14.4533 6.15453 14.0485 6.61519 13.3959 6.3144C13.312 6.27511 13.178 6.25614 13.0358 6.23582C12.9384 6.22227 12.8368 6.20737 12.7299 6.18433C12.6216 6.1613 12.5133 6.1342 12.4063 6.1071C12.3061 6.08136 12.2046 6.05562 12.1031 6.0353C11.9961 6.01226 11.8878 5.99329 11.7809 5.97433C11.6401 5.94858 11.5006 5.92419 11.3625 5.89303C11.1771 5.85103 10.9929 5.80632 10.8088 5.76161C10.6179 5.71554 10.4284 5.66812 10.2362 5.62612C10.0426 5.58276 9.84898 5.54482 9.65539 5.50553C9.44555 5.46353 9.23706 5.42153 9.02858 5.37546C8.84852 5.33482 8.66982 5.2901 8.49112 5.24539C8.30565 5.19797 8.12965 5.15326 7.9523 5.11532C7.75465 5.07197 7.55564 5.03403 7.35798 4.99609C7.14679 4.95545 6.93695 4.91615 6.72711 4.87009C6.51186 4.82267 6.29931 4.76847 6.09218 4.71698C5.93514 4.67769 5.77945 4.6384 5.62241 4.60182C5.16753 4.49614 4.70995 4.39587 4.25372 4.29561C4.09397 4.26039 3.93287 4.22651 3.77177 4.19264C3.60796 4.15877 3.44279 4.12354 3.27898 4.08831C3.16933 4.06393 3.05967 4.03818 2.95001 4.01244C2.76183 3.96773 2.58448 3.92573 2.40578 3.89321C2.40037 3.89185 2.3936 3.8905 2.38818 3.8905C2.07681 4.18858 1.7722 4.49207 1.45541 4.80776L10.2416 9.33852C10.3973 9.41846 10.5042 9.57021 10.5299 9.74364C10.5543 9.91706 10.4934 10.0918 10.3661 10.2138L10.3255 10.2517C10.3066 10.2693 10.289 10.2856 10.2727 10.3019L9.59176 10.9901C9.15854 11.4278 8.72532 11.8668 8.29075 12.303C8.0227 12.5727 7.75329 12.8423 7.48389 13.1105C7.01683 13.5766 6.53487 14.059 6.0651 14.5372C5.86339 14.7432 5.44236 15.17 4.77222 15.0128C4.7438 15.006 4.69235 14.9938 4.67475 14.9938L4.35661 14.9803C3.9085 14.96 3.44415 14.9397 2.98927 14.9275C2.65353 14.918 2.31237 14.922 1.97798 14.9275C1.825 15.0724 1.6639 15.2282 1.49061 15.4017C1.4703 15.4193 1.45135 15.4369 1.43375 15.4559Z" fill="#FF2A00"/>
</svg>
