<svg width="97" height="42" viewBox="0 0 97 42" fill="none" xmlns="http://www.w3.org/2000/svg">
<g clip-path="url(#clip0)">
<path d="M55.04 41.9999C54.6275 41.7062 54.13 41.7674 53.681 41.6572C53.05 41.4981 52.4312 41.3513 51.8124 41.131C51.5575 41.0453 51.4726 40.9107 51.509 40.6293C51.7153 39.4055 51.9216 38.1939 52.1036 36.9702C52.1642 36.5418 52.3827 36.7499 52.5647 36.8355C53.8024 37.423 55.0764 37.8513 56.4476 37.9369C57.3455 37.9981 58.2313 38.0104 59.0807 37.6922C59.748 37.4352 60.3184 37.0558 60.4276 36.2726C60.5368 35.4894 60.0635 35.0244 59.5054 34.6205C58.8987 34.1799 58.2192 33.874 57.5518 33.5313C56.848 33.1765 56.1685 32.7726 55.5497 32.2709C53.1471 30.3495 52.8316 27.2901 54.7852 24.9037C55.8045 23.6432 57.1635 22.909 58.6924 22.4929C61.1192 21.8198 63.5218 21.9299 65.9122 22.7009C66.1791 22.7866 66.3975 22.8478 66.3247 23.2271C66.1063 24.4876 65.9122 25.7481 65.6938 27.0576C64.541 26.5069 63.3883 26.1764 62.1627 26.1275C61.3255 26.0908 60.5004 26.103 59.7238 26.4579C58.474 27.0331 58.3405 28.11 59.4204 28.9667C60.0757 29.4806 60.828 29.8355 61.5682 30.2149C62.1991 30.5331 62.818 30.8758 63.3883 31.3041C66.0214 33.2621 66.4218 36.6765 64.3226 39.2219C63.0971 40.6904 61.459 41.4125 59.6388 41.8041C59.3598 41.8653 59.0321 41.8041 58.8016 42.0366C57.5518 41.9999 56.302 41.9999 55.04 41.9999Z" fill="#164894"/>
<path d="M0 1.20028C1.05567 1.01671 2.11133 0.845384 3.15487 0.637342C3.60383 0.551678 3.55529 0.86986 3.60383 1.09014C3.97998 3.02371 4.34401 4.95727 4.72017 6.8786C5.13272 9.02021 5.54528 11.1618 5.95784 13.3157C6.22479 13.1076 6.334 12.8262 6.46748 12.5692C8.32399 8.83664 10.2048 5.10413 12.037 1.35937C12.2676 0.882098 12.5345 0.710769 13.0442 0.747482C13.7115 0.796433 14.3789 0.75972 15.0463 0.75972C15.7258 0.75972 15.7258 0.75972 15.4224 1.34713C14.1484 3.77021 12.8864 6.19329 11.6123 8.61636C10.0956 11.5045 8.56668 14.3926 7.07418 17.2807C6.89217 17.6356 6.68589 17.7824 6.28546 17.7702C5.60595 17.7335 4.91431 17.7335 4.22267 17.7702C3.77371 17.7947 3.60383 17.6356 3.50676 17.2073C2.71804 13.5359 1.89292 9.87685 1.09207 6.21776C0.800851 4.87161 0.521766 3.53769 0.218414 2.21601C0.182012 2.03245 0.20628 1.79993 0 1.67755C0 1.51846 0 1.35937 0 1.20028Z" fill="#164894"/>
<path d="M96.9998 8.87171C96.7814 8.98185 96.745 9.2266 96.6479 9.41017C95.1675 12.2983 93.6993 15.1742 92.2189 18.0623C91.8913 18.6986 91.5394 19.2983 91.0541 19.8367C90.1925 20.8158 89.0762 21.1095 87.8264 21.0238C87.5473 20.9993 87.3653 20.9014 87.4017 20.5832C87.4017 20.5465 87.4017 20.4976 87.4017 20.4609C87.4017 20.057 87.2682 19.5675 87.4502 19.2738C87.6444 18.9556 88.1297 19.2616 88.4938 19.2371C89.6101 19.1514 90.3745 18.1479 90.1319 17.0343C89.5858 14.4766 89.0519 11.9189 88.4938 9.37346C88.4088 8.98185 88.4816 8.81052 88.882 8.79828C89.0277 8.79828 89.1611 8.77381 89.3067 8.74933C90.775 8.59024 90.775 8.59024 91.0298 10.071C91.2967 11.6007 91.5515 13.1427 91.8064 14.6846C92.0733 14.6724 92.0733 14.4399 92.134 14.293C92.9348 12.6165 93.7478 10.9399 94.5123 9.23884C94.7186 8.78604 94.9491 8.65143 95.4223 8.6759C95.9441 8.70038 96.4659 8.74933 96.9876 8.62695C96.9998 8.70038 96.9998 8.78604 96.9998 8.87171Z" fill="#164894"/>
<path d="M80.8369 41.731C80.2302 41.731 79.6235 41.7066 79.0168 41.7433C78.6528 41.7555 78.4708 41.6699 78.4101 41.266C78.313 40.6052 78.1189 39.9566 78.0218 39.2957C77.9611 38.9041 77.7791 38.8185 77.4151 38.8185C75.6314 38.8307 73.8598 38.8307 72.0761 38.8062C71.6514 38.794 71.4815 38.9531 71.3602 39.3447C71.1539 40.0055 70.8869 40.6419 70.6685 41.2905C70.5715 41.5964 70.438 41.7433 70.074 41.7433C68.6421 41.7188 67.2103 41.7188 65.7663 41.7433C65.3417 41.7555 65.2931 41.6454 65.4509 41.266C67.8534 35.5265 70.2438 29.7748 72.6221 24.0352C73.059 22.9828 73.8355 22.4321 74.964 22.4076C76.2138 22.3831 77.4758 22.4199 78.7256 22.3831C79.211 22.3709 79.1624 22.7013 79.2231 22.9828C80.2909 28.0982 81.3587 33.2258 82.4265 38.3534C82.6328 39.3202 82.8269 40.2992 83.0453 41.266C83.1303 41.6454 83.0453 41.7678 82.6449 41.7555C82.0503 41.7066 81.4436 41.731 80.8369 41.731ZM75.6193 27.6821C74.7456 30.0685 73.9326 32.308 73.1075 34.5352C73.0104 34.8045 73.1318 34.8412 73.3623 34.8412C74.4908 34.8412 75.6193 34.8289 76.7477 34.8412C77.0147 34.8412 77.0996 34.7678 77.0268 34.4863C76.8691 33.8377 76.7599 33.1768 76.6143 32.5282C76.2988 30.9618 75.9833 29.4076 75.6193 27.6821Z" fill="#164894"/>
<path d="M33.7205 32.5652C34.0724 33.4585 34.0724 34.4253 34.3636 35.3431C34.582 35.184 34.6063 34.927 34.6791 34.7068C36.1352 30.7784 37.5913 26.8379 39.0352 22.8973C39.1808 22.5179 39.3386 22.3711 39.7633 22.3711C41.3164 22.3956 42.8575 22.3833 44.4956 22.3833C44.1073 23.3624 43.7554 24.2557 43.3914 25.1491C41.2436 30.448 39.0959 35.7347 36.9603 41.0337C36.7662 41.511 36.5477 41.719 36.0017 41.6945C34.6305 41.6456 33.2594 41.6701 31.8761 41.6823C31.5485 41.6823 31.3786 41.6089 31.2815 41.254C29.874 35.8571 28.4543 30.4725 27.0467 25.0756C27.0346 25.0145 27.0346 24.9533 27.0225 24.8921C27.1802 24.9777 27.3501 25.0512 27.4957 25.1491C30.3229 26.997 32.41 29.4445 33.7205 32.5652Z" fill="#164894"/>
<path d="M70.3052 16.1173C69.832 16.4844 69.4559 16.7781 69.0676 17.0596C68.4245 17.5124 67.7207 17.7939 66.9441 17.8795C64.6507 18.1365 63.049 16.8393 62.8064 14.5386C62.6001 12.5928 62.952 10.7327 63.8378 8.9949C65.2696 6.24141 67.927 5.14001 71.0697 5.97218C71.5551 6.10679 71.6764 5.99665 71.7492 5.53162C71.9433 4.08756 72.2103 2.6435 72.3802 1.19945C72.453 0.636512 72.6107 0.330568 73.2417 0.306092C73.8363 0.281617 74.443 0.134763 75.0375 0.0246236C75.3894 -0.0365652 75.535 -0.048803 75.4622 0.416232C74.6493 5.64176 73.8605 10.8795 73.0475 16.105C72.9747 16.5946 73.084 17.2554 72.7321 17.5491C72.368 17.855 71.7249 17.6103 71.2032 17.647C71.1668 17.647 71.1182 17.647 71.0818 17.647C70.2931 17.647 70.2931 17.647 70.3052 16.8271C70.3052 16.6313 70.3052 16.4355 70.3052 16.1173ZM65.7307 12.9232C65.7428 13.0946 65.7549 13.2904 65.7913 13.4984C66.034 14.9914 67.0412 15.6033 68.4609 15.1138C69.2132 14.8568 69.7835 14.355 70.3416 13.8166C70.463 13.6942 70.5115 13.5473 70.5358 13.3883C70.7663 11.883 70.9847 10.3778 71.2274 8.88476C71.2638 8.66448 71.2153 8.56658 71.0211 8.45644C69.5165 7.58756 67.5751 8.06483 66.6529 9.53336C65.9976 10.5491 65.8156 11.6994 65.7307 12.9232Z" fill="#164894"/>
<path d="M45.8786 41.7304C45.2112 41.7304 44.5438 41.7181 43.8765 41.7304C43.5124 41.7426 43.379 41.6692 43.4518 41.2531C44.4589 35.1098 45.4417 28.9664 46.4246 22.823C46.4853 22.4681 46.6066 22.358 46.9585 22.358C48.2933 22.3825 49.628 22.3825 50.9506 22.358C51.436 22.3458 51.4603 22.5293 51.3996 22.9332C50.9021 25.9926 50.4046 29.0521 49.9192 32.1115C49.446 35.073 48.9485 38.0346 48.4995 40.9961C48.4146 41.5591 48.2326 41.8038 47.638 41.7304C47.0556 41.6814 46.461 41.7304 45.8786 41.7304Z" fill="#164894"/>
<path d="M60.9984 14.2685C60.9984 14.9294 60.9984 15.5902 60.9984 16.2511C60.9984 16.4469 60.8892 16.5325 60.7436 16.6182C58.7415 17.7685 56.6059 18.2213 54.3368 17.6829C52.5895 17.2668 51.5096 16.1287 51.2669 14.3297C50.9029 11.6374 51.5217 9.20212 53.4874 7.24407C54.7736 5.95911 56.3875 5.44512 58.1954 5.60421C60.2461 5.78778 61.593 7.1217 61.8357 9.20212C61.9327 10.071 61.8842 10.9399 61.7507 11.8088C61.6901 12.2248 61.5202 12.3227 61.1319 12.3227C59.0084 12.3105 56.8971 12.335 54.7736 12.2983C54.2276 12.286 54.0335 12.4206 54.0699 12.9958C54.1427 14.7213 55.077 15.6269 56.8122 15.6147C58.0984 15.6025 59.2632 15.1619 60.3674 14.5378C60.5252 14.4521 60.6829 14.3542 60.8407 14.2685C60.8649 14.2563 60.9013 14.2685 60.9984 14.2685ZM54.446 10.4626C55.7565 10.4626 56.9942 10.4626 58.244 10.4626C59.1419 10.4626 59.1419 10.4626 59.057 9.58149C59.0448 9.38568 59.0084 9.17764 58.9478 8.98184C58.6808 8.02729 58.062 7.57449 57.0791 7.62345C56.3875 7.66016 55.8536 7.97834 55.4046 8.48009C54.9435 9.03079 54.6402 9.66715 54.446 10.4626Z" fill="#164894"/>
<path d="M22.6669 14.2577C22.6669 14.7472 22.6184 15.2 22.6791 15.6406C22.7519 16.2769 22.5092 16.6196 21.9389 16.901C20.1309 17.7699 18.2744 18.1371 16.2965 17.7699C14.44 17.4273 13.2145 16.2647 12.9354 14.4045C12.5471 11.7245 13.1538 9.26468 15.1074 7.2944C16.4057 5.97272 18.0317 5.45874 19.8639 5.61783C21.9995 5.81363 23.3343 7.23321 23.5163 9.46048C23.577 10.207 23.5284 10.9535 23.4314 11.7C23.3707 12.1773 23.213 12.3364 22.7155 12.3364C20.5799 12.3119 18.4321 12.3364 16.2965 12.3119C15.8233 12.3119 15.7262 12.4587 15.7262 12.8993C15.7505 14.735 16.6969 15.665 18.5292 15.6283C19.779 15.6038 20.8953 15.1755 21.9753 14.5881C22.1816 14.4535 22.3514 14.2699 22.6669 14.2577ZM20.7619 10.0234C20.6648 8.98321 20.5313 8.11433 19.5485 7.7472C18.6627 7.41678 17.6677 7.75944 16.976 8.60384C16.6363 9.01993 16.43 9.4972 16.2237 9.98671C16.0417 10.415 16.1994 10.4885 16.5999 10.4885C17.789 10.464 18.9782 10.464 20.1673 10.4885C20.6527 10.4885 20.8468 10.3538 20.7619 10.0234Z" fill="#164894"/>
<path d="M44.3861 8.2485C43.1363 8.2485 43.1363 8.2485 42.9422 9.48451C42.566 11.9933 42.1656 14.4898 41.8137 16.9985C41.7409 17.5247 41.5468 17.7083 41.0129 17.6593C40.4304 17.6104 39.8359 17.6349 39.2534 17.6593C38.8773 17.6716 38.7802 17.5737 38.8409 17.1821C39.2898 14.4041 39.6781 11.6139 40.1392 8.82367C40.2242 8.29745 40.0785 8.22402 39.6175 8.23626C38.5254 8.26074 38.5254 8.23626 38.671 7.18381C38.671 7.15934 38.671 7.1471 38.6831 7.12262C38.8651 5.8499 38.8651 5.83766 40.1392 5.83766C40.5032 5.83766 40.6367 5.72752 40.6731 5.37262C40.7338 4.78521 40.843 4.21004 40.9401 3.63486C41.292 1.72577 42.3476 0.673323 44.2405 0.30619C44.92 0.171575 45.6117 0.208288 46.2912 0.232764C46.6431 0.245002 46.7523 0.404092 46.728 0.722274C46.7159 0.807939 46.728 0.881365 46.728 0.96703C46.728 1.49325 46.91 2.12962 46.6795 2.52123C46.4368 2.92507 45.7573 2.55794 45.2719 2.61913C44.4711 2.72927 44.01 3.07192 43.828 3.86738C43.7066 4.3936 43.6581 4.9443 43.5489 5.48276C43.4882 5.76423 43.5974 5.83766 43.8644 5.83766C44.3497 5.82542 44.8351 5.8499 45.3205 5.82542C45.6238 5.81318 45.7694 5.89885 45.7452 6.22927C45.7209 6.44955 45.7452 6.66983 45.7452 6.90234C45.7452 8.2485 45.7452 8.2485 44.3861 8.2485Z" fill="#164894"/>
<path d="M81.5776 9.63169C82.2814 9.10547 82.9003 8.71386 83.6526 8.56701C85.2907 8.23659 86.6497 9.09323 86.9288 10.7331C87.2564 12.5932 86.8924 14.331 85.8003 15.8852C84.9994 17.0355 83.8224 17.6107 82.4634 17.7453C81.1408 17.8799 79.8425 17.7086 78.5684 17.3292C78.2408 17.2313 78.1801 17.0845 78.2286 16.7663C78.8353 12.8747 79.4299 8.99533 80.0123 5.10372C80.073 4.73659 80.2186 4.57749 80.5826 4.55302C81.0195 4.51631 81.4684 4.46735 81.8931 4.35721C82.33 4.24707 82.3664 4.4184 82.3057 4.78554C82.0751 6.33973 81.8446 7.9184 81.5776 9.63169ZM84.7568 12.4586C84.7689 11.1981 84.3321 10.5495 83.507 10.4761C82.7182 10.4027 81.3471 11.2471 81.2379 11.8957C81.0437 13.0338 80.8981 14.1841 80.704 15.3222C80.6433 15.6404 80.7647 15.7383 81.0437 15.824C82.5605 16.2646 83.8467 15.6404 84.417 14.1597C84.6354 13.5845 84.7446 12.9604 84.7568 12.4586Z" fill="#164894"/>
<path d="M28.5512 7.94206C29.6068 6.82842 30.6625 5.92282 32.1429 5.64136C32.5676 5.55569 32.8224 5.58017 32.7374 6.09415C32.7253 6.19206 32.7374 6.3022 32.7374 6.4001C32.7374 7.02422 32.9073 7.73401 32.6889 8.26024C32.4584 8.82317 31.6211 8.56618 31.0993 8.82317C30.6504 9.04345 30.1771 9.23926 29.7524 9.49625C28.7089 10.1204 28.0901 10.9525 27.9809 12.262C27.8474 13.9141 27.5076 15.5539 27.2649 17.1938C27.2164 17.4875 27.1436 17.6711 26.7796 17.6466C26.0758 17.6221 25.372 17.6221 24.6561 17.6466C24.3406 17.6588 24.2436 17.5732 24.2921 17.2305C24.8624 13.5714 25.4206 9.9001 25.9787 6.24101C26.0273 5.93506 26.1365 5.78821 26.4762 5.81269C27.0223 5.83716 27.5683 5.83716 28.1143 5.81269C28.4662 5.80045 28.5633 5.93506 28.5512 6.26548C28.539 6.82842 28.5512 7.39136 28.5512 7.94206Z" fill="#164894"/>
<path d="M34.1216 17.6482C33.7333 17.5625 33.0538 17.8929 32.7989 17.5013C32.6048 17.1954 32.8717 16.5713 32.9445 16.094C33.4299 12.8632 33.9395 9.64469 34.4128 6.41392C34.4856 5.91218 34.6676 5.77756 35.1408 5.81427C35.7839 5.85099 36.427 5.82651 37.0823 5.82651C37.3735 5.82651 37.4584 5.8877 37.4099 6.20588C36.8396 9.86497 36.2814 13.5363 35.7354 17.1954C35.6869 17.538 35.5655 17.6971 35.2015 17.6604C34.8617 17.6237 34.5341 17.6482 34.1216 17.6482Z" fill="#164894"/>
<path d="M46.9345 17.6469C46.5583 17.5735 45.9031 17.8794 45.6604 17.5123C45.4662 17.2308 45.721 16.6312 45.7938 16.1661C46.2913 12.8864 46.801 9.59446 47.2863 6.31474C47.3349 5.9476 47.4441 5.78851 47.8445 5.81299C48.524 5.8497 49.2157 5.83746 49.9073 5.81299C50.2471 5.80075 50.3077 5.91089 50.2471 6.24131C49.6768 9.86369 49.1307 13.4861 48.5847 17.1207C48.524 17.5612 48.3541 17.7081 47.9295 17.6591C47.6382 17.6224 47.3349 17.6469 46.9345 17.6469Z" fill="#164894"/>
<path d="M33.7209 32.5641C32.4226 29.4557 30.3355 27.0082 27.4961 25.1847C27.3505 25.0868 27.1807 25.0134 27.0229 24.9277C25.5668 23.9854 23.9773 23.3736 22.327 22.884C22.2057 22.8473 22.0965 22.8106 21.9751 22.7861C21.8659 22.7494 21.8174 22.676 21.8174 22.5659C21.8295 22.4312 21.9145 22.4068 22.0237 22.3945C22.145 22.3945 22.2663 22.3945 22.3877 22.3945C24.8024 22.3945 27.2292 22.3945 29.6439 22.3945C31.2577 22.3945 31.8766 22.8963 32.192 24.4627C32.6895 26.9592 33.1749 29.468 33.6603 31.9645C33.7209 32.1603 33.7088 32.3561 33.7209 32.5641Z" fill="#F1AE1C"/>
<path d="M36.827 0.464966C37.7371 0.464966 38.3195 1.06462 38.3074 1.94574C38.2953 2.99818 37.3609 3.8793 36.2689 3.85483C35.3831 3.84259 34.7764 3.26741 34.7764 2.43525C34.7885 1.35832 35.7107 0.452729 36.827 0.464966Z" fill="#164894"/>
<path d="M49.7017 0.464966C50.5997 0.477204 51.1942 1.06462 51.1821 1.94574C51.1578 2.99818 50.2235 3.8793 49.1436 3.85483C48.2578 3.83035 47.6632 3.26741 47.6632 2.43525C47.6511 1.35832 48.5975 0.452729 49.7017 0.464966Z" fill="#164894"/>
</g>
<defs>
<clipPath id="clip0">
<rect width="97" height="42" fill="white"/>
</clipPath>
</defs>
</svg>
