<svg width="68" height="24" viewBox="0 0 68 24" fill="none" xmlns="http://www.w3.org/2000/svg">
<g clip-path="url(#clip0)">
<path fill-rule="evenodd" clip-rule="evenodd" d="M36.7789 24.0008C34.9654 23.9365 33.1127 23.7693 31.4166 22.8561C31.371 22.8304 31.322 22.8047 31.2731 22.7789C31.2242 22.7532 31.1753 22.7275 31.1296 22.7018C29.8641 21.9558 29.8119 21.8143 30.2685 20.4638C30.5164 19.7307 30.7643 18.9976 30.9991 18.2645C31.2079 17.5957 31.2731 17.5571 31.8602 17.9558C33.6607 19.1648 35.6438 19.8593 37.8487 19.8336C38.7489 19.8207 39.6231 19.6278 40.4059 19.1905C42.102 18.2388 42.2716 16.5924 40.8234 15.2934C40.0817 14.624 39.2229 14.1443 38.3608 13.6627L38.3608 13.6627C38.1462 13.5428 37.9314 13.4229 37.7182 13.2998C36.7658 12.7597 35.9308 12.0908 35.2133 11.2677C33.3867 9.1455 33.4519 6.16158 35.3307 3.80788C37.4834 1.10692 40.2885 -0.089221 43.7328 0.000811104C45.8334 0.052258 47.8817 0.322355 49.8648 1.04261C50.4389 1.2484 50.9738 1.54422 51.4957 1.8529C51.8219 2.04583 51.8349 2.25161 51.6522 2.53457C51.0521 3.46062 50.465 4.3738 49.8779 5.29985C49.7083 5.56994 49.5517 5.56994 49.2908 5.38988C47.4642 4.1037 45.3898 3.80788 43.211 3.94936C42.0759 4.02653 41.1235 4.46383 40.7321 5.59567C40.3407 6.70178 40.8103 7.58923 41.5931 8.3738C42.315 9.09344 43.1731 9.61921 44.0324 10.1458C44.5554 10.4663 45.0788 10.787 45.5724 11.1519C45.6781 11.231 45.7848 11.309 45.8917 11.3872L45.8922 11.3876L45.8923 11.3876C46.1678 11.5891 46.4444 11.7914 46.7075 12.0137C48.6776 13.6471 48.6776 16.2323 47.8165 18.4574C46.7597 21.2098 44.5156 22.5474 41.8019 23.2934C40.1841 23.7564 38.5141 23.9622 36.7789 24.0008ZM64.0207 23.625C64.3034 23.6264 64.586 23.6278 64.8687 23.6278C65.7428 23.6278 66.617 23.615 67.465 23.6021C67.8564 23.6021 68.026 23.4606 67.9869 23.0619C67.7783 20.7742 67.5813 18.4865 67.3843 16.1988L67.3839 16.1944C67.2853 15.0495 67.1867 13.9046 67.0867 12.7597L67.0451 12.2959L67.0448 12.2933C66.7196 8.66842 66.3954 5.05437 66.0951 1.42849C66.056 0.862573 65.8864 0.643924 65.2862 0.656786C63.7597 0.695371 62.2463 0.682509 60.7198 0.656786C60.1588 0.643924 59.8587 0.862573 59.5848 1.3256C58.1145 3.75989 56.6306 6.18747 55.1478 8.61318L55.1467 8.61492L55.1457 8.61666C54.5766 9.54768 54.0076 10.4784 53.4397 11.4092C52.2522 13.3453 51.068 15.2813 49.8838 17.2174L49.8825 17.2195L49.8812 17.2215C48.6983 19.1555 47.5154 21.0894 46.3292 23.0233C46.0422 23.4864 46.1726 23.615 46.6815 23.615C48.0253 23.6021 49.3821 23.6021 50.726 23.6278C51.2087 23.6407 51.4827 23.4606 51.7045 23.0491C52.1426 22.2438 52.5934 21.447 53.0448 20.6489C53.3866 20.0448 53.7287 19.44 54.0659 18.8304C54.2356 18.5217 54.4313 18.3417 54.8227 18.3417C56.8058 18.3545 58.7759 18.3545 60.759 18.3417C61.1634 18.3417 61.333 18.496 61.3591 18.9076C61.4113 19.6019 61.4765 20.293 61.5417 20.9842L61.5418 20.9848C61.607 21.6761 61.6722 22.3674 61.7244 23.0619C61.7505 23.4735 61.9071 23.6407 62.3246 23.6278C62.8899 23.6193 63.4553 23.6221 64.0207 23.625ZM60.6807 15.2291H56.0752C57.4973 12.6954 58.8933 10.2002 60.2893 7.70502L60.4458 7.7436L60.4461 7.74608C60.5765 9.18577 60.7068 10.6255 60.8242 12.0651L60.8243 12.0666C60.8895 12.9407 60.9547 13.8148 61.0329 14.6889C61.059 14.9719 61.059 15.2291 60.6807 15.2291ZM11.5985 14.73C11.3767 15.1016 11.1549 15.4731 10.9332 15.8461C10.7635 14.8172 10.7244 13.814 10.6853 12.8107C10.5897 10.3189 10.5289 7.82127 10.4681 5.32558L10.468 5.3249C10.4375 4.07233 10.407 2.82024 10.3721 1.56959C10.346 0.720714 10.3069 0.682129 9.48495 0.682129H0.743589C0.613121 0.682129 0.482653 0.682129 0.352184 0.694991C0.169529 0.707852 0.0129673 0.772161 -7.95152e-05 0.990811C-0.0131263 1.1966 0.117342 1.29949 0.313044 1.32522C0.381757 1.34215 0.456124 1.34794 0.528701 1.35358H0.528702C0.566369 1.35651 0.603553 1.35941 0.639214 1.3638C2.89631 1.6339 3.9792 2.74001 4.07053 4.99081C4.17342 7.6028 4.25096 10.2273 4.32814 12.8396L4.33146 12.9522C4.43584 16.2706 4.52716 19.5889 4.60545 22.9072C4.60545 23.4217 4.77505 23.6403 5.32302 23.6275L5.75901 23.6196H5.75903H5.75906C7.09021 23.5953 8.42988 23.5708 9.75894 23.6403C10.6722 23.6918 11.1549 23.3445 11.6116 22.5985C13.7076 19.1919 15.8242 15.7988 17.9414 12.4045C18.7499 11.1084 19.5584 9.81215 20.366 8.51493C21.1097 7.31879 21.8566 6.12586 22.6035 4.93294C23.3505 3.74001 24.0974 2.54708 24.8411 1.35094C25.1933 0.797884 25.1281 0.694991 24.4757 0.694991C23.9053 0.689478 23.3373 0.691054 22.7697 0.692629C22.0129 0.694729 21.2568 0.696827 20.4965 0.682129C20.0268 0.682129 19.7528 0.849331 19.518 1.24805C17.3393 5.00343 15.1345 8.74595 12.9297 12.4885L12.9293 12.4892C12.4857 13.2438 12.0421 13.9869 11.5985 14.73ZM20.4182 23.6277H22.9623C23.4141 23.6277 23.8626 23.6244 24.3094 23.6212C24.753 23.618 25.195 23.6148 25.6369 23.6148C26.0675 23.6277 26.2762 23.4604 26.3936 23.0746C26.9155 21.364 27.4504 19.6791 27.9984 17.9813C28.8922 15.2159 29.7827 12.4504 30.6732 9.68498C31.5636 6.91989 32.4539 4.1548 33.3476 1.38971C33.5563 0.720898 33.5433 0.682313 32.7866 0.682313C32.302 0.682313 31.8174 0.684413 31.3328 0.686513C30.1213 0.691763 28.9098 0.697012 27.6983 0.669451C27.0851 0.65659 26.8372 0.888101 26.6546 1.45402C25.5488 4.94601 24.4211 8.43801 23.2934 11.93C22.9175 13.094 22.5416 14.2579 22.1665 15.4219C21.5236 17.4165 20.8893 19.4195 20.2566 21.4174C20.106 21.893 19.9555 22.3683 19.805 22.8431C19.5702 23.6019 19.5962 23.6277 20.4182 23.6277Z" fill="#004E8E"/>
</g>
<defs>
<clipPath id="clip0">
<rect width="68" height="24" fill="white"/>
</clipPath>
</defs>
</svg>
