<svg width="17" height="10" viewBox="0 0 17 10" fill="none" xmlns="http://www.w3.org/2000/svg">
<path fill-rule="evenodd" clip-rule="evenodd" d="M13.8563 5.78619C14.3904 6.30697 14.9541 6.79695 15.4331 7.37024C15.6447 7.625 15.845 7.8879 15.9982 8.18356C16.2154 8.60384 16.0187 9.06635 15.6414 9.09144L13.2959 9.09039C12.691 9.14053 12.2084 8.89728 11.8026 8.48418C11.4778 8.15381 11.1771 7.80221 10.8649 7.46069C10.7368 7.32111 10.6029 7.18976 10.4428 7.08595C10.1226 6.87836 9.84467 6.94192 9.6617 7.27546C9.47534 7.6147 9.43307 7.99035 9.41477 8.36842C9.38965 8.92005 9.2227 9.06508 8.66791 9.09033C7.48225 9.14618 6.35701 8.96702 5.31169 8.36964C4.39011 7.84299 3.67546 7.09952 3.05343 6.25784C1.84233 4.6189 0.914875 2.81797 0.0813104 0.966585C-0.106318 0.549466 0.0308988 0.325559 0.491692 0.317634C1.25686 0.302788 2.02192 0.303844 2.78799 0.316577C3.09898 0.321121 3.30485 0.499274 3.42493 0.79271C3.83891 1.80938 4.34546 2.77665 4.98129 3.67323C5.15062 3.91193 5.32328 4.15063 5.56915 4.31864C5.84115 4.50467 6.04824 4.44301 6.17621 4.14039C6.2574 3.94849 6.29295 3.74181 6.31125 3.53629C6.37187 2.82922 6.37986 2.12337 6.27354 1.41878C6.20826 0.979054 5.96028 0.694388 5.52096 0.611175C5.29678 0.56875 5.33016 0.485432 5.4387 0.357629C5.62723 0.137208 5.80454 0 6.15801 0H8.80877C9.22609 0.0822614 9.31876 0.269503 9.37589 0.688893L9.37817 3.62975C9.37362 3.79211 9.45936 4.27389 9.75216 4.38136C9.98649 4.45786 10.141 4.27062 10.2816 4.12221C10.9162 3.44943 11.3692 2.65434 11.7739 1.83104C11.9534 1.46903 12.1079 1.09307 12.2575 0.717423C12.3684 0.438675 12.5424 0.301519 12.8567 0.307595L15.4079 0.309867C15.4836 0.309867 15.5601 0.310977 15.6334 0.323498C16.0633 0.396672 16.1811 0.581377 16.0483 1.00066C15.8391 1.65849 15.4321 2.20669 15.0341 2.75742C14.6086 3.3454 14.1536 3.91325 13.7317 4.50472C13.344 5.04484 13.3748 5.31709 13.8563 5.78619Z" fill="#BDBDBD"/>
</svg>
